<svg width="30" height="30" viewBox="0 0 30 30" fill="none" xmlns="http://www.w3.org/2000/svg">
<path d="M26.6432 29.8186H3.35686C1.60311 29.8186 0.181458 28.3969 0.181458 26.6432V3.35686C0.181458 1.60311 1.60311 0.181458 3.35686 0.181458H26.6432C28.3969 0.181458 29.8186 1.60311 29.8186 3.35686V26.6432C29.8186 28.3969 28.3969 29.8186 26.6432 29.8186Z" fill="white"/>
<path fill-rule="evenodd" clip-rule="evenodd" d="M25.8594 10.3038L13.687 22.4761C13.2736 22.8895 12.6034 22.8895 12.19 22.4761L5.31 15.596C4.89667 15.1827 4.89667 14.5125 5.31 14.0992L6.80687 12.6023C7.22027 12.189 7.89048 12.189 8.30381 12.6023L12.9385 17.237L22.8655 7.31002C23.2789 6.89663 23.9492 6.89669 24.3625 7.31002L25.8594 8.8069C26.2727 9.22023 26.2727 9.89044 25.8594 10.3038Z" fill="#6B97ED"/>
</svg>
