<svg width="30" height="30" viewBox="0 0 30 30" fill="none" xmlns="http://www.w3.org/2000/svg">
<path fill-rule="evenodd" clip-rule="evenodd" d="M19.0605 7.93949C19.3417 8.22078 19.4997 8.60224 19.4997 8.99998C19.4997 9.39773 19.3417 9.77919 19.0605 10.0605L14.121 15L19.0605 19.9395C19.3337 20.2224 19.4849 20.6013 19.4815 20.9946C19.4781 21.3879 19.3203 21.7641 19.0422 22.0422C18.7641 22.3203 18.3879 22.4781 17.9946 22.4815C17.6013 22.4849 17.2224 22.3337 16.9395 22.0605L10.9395 16.0605C10.6583 15.7792 10.5003 15.3977 10.5003 15C10.5003 14.6022 10.6583 14.2208 10.9395 13.9395L16.9395 7.93949C17.2208 7.65828 17.6023 7.50031 18 7.50031C18.3977 7.50031 18.7792 7.65828 19.0605 7.93949Z" fill="black"/>
</svg>
