<svg width="560" height="560" viewBox="0 0 560 560" fill="none" xmlns="http://www.w3.org/2000/svg">
<rect width="560" height="560" fill="white"/>
<rect width="560" height="560" fill="white"/>
<rect x="61.5" y="60.5" width="439" height="439" fill="#E7E7E7" stroke="#C4C4C4"/>
<path d="M458.693 98.216C457.605 98.216 456.565 98.04 455.573 97.688C454.581 97.336 453.741 96.84 453.053 96.2L453.797 94.64C455.285 95.856 456.909 96.464 458.669 96.464C459.837 96.464 460.757 96.136 461.429 95.48C462.101 94.824 462.437 93.96 462.437 92.888C462.437 91.784 462.117 90.88 461.477 90.176C460.837 89.472 459.957 89.12 458.837 89.12C457.221 89.12 455.949 89.792 455.021 91.136H453.581V81.08H463.397V82.76H455.525V88.808C456.453 87.88 457.677 87.416 459.197 87.416C460.253 87.416 461.173 87.64 461.957 88.088C462.741 88.536 463.341 89.168 463.757 89.984C464.189 90.784 464.405 91.72 464.405 92.792C464.405 93.848 464.173 94.784 463.709 95.6C463.245 96.416 462.581 97.056 461.717 97.52C460.869 97.984 459.861 98.216 458.693 98.216ZM467.347 102.32V86.336H469.243V88.424C469.595 87.704 470.115 87.144 470.803 86.744C471.507 86.328 472.323 86.12 473.251 86.12C474.291 86.12 475.195 86.368 475.963 86.864C476.747 87.344 477.347 88.04 477.763 88.952C478.195 89.848 478.411 90.92 478.411 92.168C478.411 93.4 478.195 94.472 477.763 95.384C477.347 96.28 476.747 96.976 475.963 97.472C475.195 97.968 474.291 98.216 473.251 98.216C472.355 98.216 471.555 98.016 470.851 97.616C470.147 97.216 469.627 96.664 469.291 95.96V102.32H467.347ZM472.843 96.656C473.931 96.656 474.803 96.272 475.459 95.504C476.115 94.72 476.443 93.608 476.443 92.168C476.443 90.712 476.115 89.6 475.459 88.832C474.803 88.064 473.931 87.68 472.843 87.68C471.755 87.68 470.883 88.064 470.227 88.832C469.571 89.6 469.243 90.712 469.243 92.168C469.243 93.608 469.571 94.72 470.227 95.504C470.883 96.272 471.755 96.656 472.843 96.656ZM479.594 98L484.442 91.976L479.882 86.336H482.186L485.57 90.632L488.978 86.336H491.258L486.698 91.976L491.546 98H489.242L485.546 93.368L481.898 98H479.594Z" fill="black"/>
<path d="M77.6928 98.216C76.6048 98.216 75.5648 98.04 74.5728 97.688C73.5808 97.336 72.7408 96.84 72.0528 96.2L72.7968 94.64C74.2848 95.856 75.9088 96.464 77.6688 96.464C78.8368 96.464 79.7568 96.136 80.4288 95.48C81.1008 94.824 81.4368 93.96 81.4368 92.888C81.4368 91.784 81.1168 90.88 80.4768 90.176C79.8368 89.472 78.9568 89.12 77.8368 89.12C76.2208 89.12 74.9488 89.792 74.0208 91.136H72.5808V81.08H82.3968V82.76H74.5248V88.808C75.4528 87.88 76.6768 87.416 78.1968 87.416C79.2528 87.416 80.1728 87.64 80.9568 88.088C81.7408 88.536 82.3408 89.168 82.7568 89.984C83.1888 90.784 83.4048 91.72 83.4048 92.792C83.4048 93.848 83.1728 94.784 82.7088 95.6C82.2448 96.416 81.5808 97.056 80.7168 97.52C79.8688 97.984 78.8608 98.216 77.6928 98.216ZM86.3474 102.32V86.336H88.2434V88.424C88.5954 87.704 89.1154 87.144 89.8034 86.744C90.5074 86.328 91.3234 86.12 92.2514 86.12C93.2914 86.12 94.1954 86.368 94.9634 86.864C95.7474 87.344 96.3474 88.04 96.7634 88.952C97.1954 89.848 97.4114 90.92 97.4114 92.168C97.4114 93.4 97.1954 94.472 96.7634 95.384C96.3474 96.28 95.7474 96.976 94.9634 97.472C94.1954 97.968 93.2914 98.216 92.2514 98.216C91.3554 98.216 90.5554 98.016 89.8514 97.616C89.1474 97.216 88.6274 96.664 88.2914 95.96V102.32H86.3474ZM91.8434 96.656C92.9314 96.656 93.8034 96.272 94.4594 95.504C95.1154 94.72 95.4434 93.608 95.4434 92.168C95.4434 90.712 95.1154 89.6 94.4594 88.832C93.8034 88.064 92.9314 87.68 91.8434 87.68C90.7554 87.68 89.8834 88.064 89.2274 88.832C88.5714 89.6 88.2434 90.712 88.2434 92.168C88.2434 93.608 88.5714 94.72 89.2274 95.504C89.8834 96.272 90.7554 96.656 91.8434 96.656ZM98.5938 98L103.442 91.976L98.8818 86.336H101.186L104.57 90.632L107.978 86.336H110.258L105.698 91.976L110.546 98H108.242L104.546 93.368L100.898 98H98.5938Z" fill="black"/>
<path d="M458.693 478.216C457.605 478.216 456.565 478.04 455.573 477.688C454.581 477.336 453.741 476.84 453.053 476.2L453.797 474.64C455.285 475.856 456.909 476.464 458.669 476.464C459.837 476.464 460.757 476.136 461.429 475.48C462.101 474.824 462.437 473.96 462.437 472.888C462.437 471.784 462.117 470.88 461.477 470.176C460.837 469.472 459.957 469.12 458.837 469.12C457.221 469.12 455.949 469.792 455.021 471.136H453.581V461.08H463.397V462.76H455.525V468.808C456.453 467.88 457.677 467.416 459.197 467.416C460.253 467.416 461.173 467.64 461.957 468.088C462.741 468.536 463.341 469.168 463.757 469.984C464.189 470.784 464.405 471.72 464.405 472.792C464.405 473.848 464.173 474.784 463.709 475.6C463.245 476.416 462.581 477.056 461.717 477.52C460.869 477.984 459.861 478.216 458.693 478.216ZM467.347 482.32V466.336H469.243V468.424C469.595 467.704 470.115 467.144 470.803 466.744C471.507 466.328 472.323 466.12 473.251 466.12C474.291 466.12 475.195 466.368 475.963 466.864C476.747 467.344 477.347 468.04 477.763 468.952C478.195 469.848 478.411 470.92 478.411 472.168C478.411 473.4 478.195 474.472 477.763 475.384C477.347 476.28 476.747 476.976 475.963 477.472C475.195 477.968 474.291 478.216 473.251 478.216C472.355 478.216 471.555 478.016 470.851 477.616C470.147 477.216 469.627 476.664 469.291 475.96V482.32H467.347ZM472.843 476.656C473.931 476.656 474.803 476.272 475.459 475.504C476.115 474.72 476.443 473.608 476.443 472.168C476.443 470.712 476.115 469.6 475.459 468.832C474.803 468.064 473.931 467.68 472.843 467.68C471.755 467.68 470.883 468.064 470.227 468.832C469.571 469.6 469.243 470.712 469.243 472.168C469.243 473.608 469.571 474.72 470.227 475.504C470.883 476.272 471.755 476.656 472.843 476.656ZM479.594 478L484.442 471.976L479.882 466.336H482.186L485.57 470.632L488.978 466.336H491.258L486.698 471.976L491.546 478H489.242L485.546 473.368L481.898 478H479.594Z" fill="black"/>
<path d="M77.6928 478.216C76.6048 478.216 75.5648 478.04 74.5728 477.688C73.5808 477.336 72.7408 476.84 72.0528 476.2L72.7968 474.64C74.2848 475.856 75.9088 476.464 77.6688 476.464C78.8368 476.464 79.7568 476.136 80.4288 475.48C81.1008 474.824 81.4368 473.96 81.4368 472.888C81.4368 471.784 81.1168 470.88 80.4768 470.176C79.8368 469.472 78.9568 469.12 77.8368 469.12C76.2208 469.12 74.9488 469.792 74.0208 471.136H72.5808V461.08H82.3968V462.76H74.5248V468.808C75.4528 467.88 76.6768 467.416 78.1968 467.416C79.2528 467.416 80.1728 467.64 80.9568 468.088C81.7408 468.536 82.3408 469.168 82.7568 469.984C83.1888 470.784 83.4048 471.72 83.4048 472.792C83.4048 473.848 83.1728 474.784 82.7088 475.6C82.2448 476.416 81.5808 477.056 80.7168 477.52C79.8688 477.984 78.8608 478.216 77.6928 478.216ZM86.3474 482.32V466.336H88.2434V468.424C88.5954 467.704 89.1154 467.144 89.8034 466.744C90.5074 466.328 91.3234 466.12 92.2514 466.12C93.2914 466.12 94.1954 466.368 94.9634 466.864C95.7474 467.344 96.3474 468.04 96.7634 468.952C97.1954 469.848 97.4114 470.92 97.4114 472.168C97.4114 473.4 97.1954 474.472 96.7634 475.384C96.3474 476.28 95.7474 476.976 94.9634 477.472C94.1954 477.968 93.2914 478.216 92.2514 478.216C91.3554 478.216 90.5554 478.016 89.8514 477.616C89.1474 477.216 88.6274 476.664 88.2914 475.96V482.32H86.3474ZM91.8434 476.656C92.9314 476.656 93.8034 476.272 94.4594 475.504C95.1154 474.72 95.4434 473.608 95.4434 472.168C95.4434 470.712 95.1154 469.6 94.4594 468.832C93.8034 468.064 92.9314 467.68 91.8434 467.68C90.7554 467.68 89.8834 468.064 89.2274 468.832C88.5714 469.6 88.2434 470.712 88.2434 472.168C88.2434 473.608 88.5714 474.72 89.2274 475.504C89.8834 476.272 90.7554 476.656 91.8434 476.656ZM98.5938 478L103.442 471.976L98.8818 466.336H101.186L104.57 470.632L107.978 466.336H110.258L105.698 471.976L110.546 478H108.242L104.546 473.368L100.898 478H98.5938Z" fill="black"/>
<path d="M205.189 191.246C205.085 190.389 204.775 189.571 204.286 188.86C203.796 188.15 203.14 187.57 202.376 187.169C197.13 184.375 191.279 182.912 185.335 182.905C179.42 182.924 173.595 184.36 168.35 187.094C162.996 189.886 158.416 193.958 155.018 198.947C151.62 203.936 149.509 209.688 148.873 215.691C148.237 221.693 149.096 227.76 151.373 233.35C153.65 238.941 157.275 243.881 161.924 247.732C162.619 248.314 163.445 248.718 164.331 248.909C165.217 249.1 166.136 249.073 167.009 248.831C167.867 248.599 168.655 248.16 169.305 247.553C169.954 246.946 170.445 246.189 170.734 245.349C177.471 226.536 188.675 209.638 203.382 196.105C204.054 195.501 204.569 194.744 204.883 193.898C205.198 193.051 205.303 192.141 205.189 191.246Z" fill="#FFAB4D"/>
<path d="M204.127 183.873C195.301 179.239 185.071 178.034 175.409 180.491C165.747 182.948 157.336 188.893 151.799 197.181C146.261 205.468 143.988 215.511 145.417 225.375C146.847 235.238 151.878 244.224 159.54 250.599C161.227 251.995 163.348 252.759 165.537 252.759C167.453 252.757 169.322 252.164 170.889 251.061C172.455 249.958 173.643 248.399 174.291 246.596C180.819 228.349 191.684 211.961 205.952 198.842C207.056 197.831 207.9 196.568 208.413 195.162C208.925 193.755 209.09 192.246 208.895 190.762C208.716 189.314 208.189 187.931 207.358 186.731C206.528 185.532 205.419 184.551 204.127 183.873ZM170.771 245.312C170.482 246.152 169.991 246.909 169.342 247.516C168.693 248.123 167.904 248.562 167.046 248.793C166.173 249.036 165.254 249.063 164.368 248.872C163.482 248.68 162.656 248.276 161.962 247.695C157.312 243.844 153.687 238.903 151.41 233.313C149.133 227.723 148.274 221.656 148.91 215.654C149.546 209.651 151.657 203.899 155.055 198.91C158.454 193.92 163.033 189.849 168.387 187.057C173.632 184.323 179.457 182.886 185.372 182.868C191.316 182.874 197.167 184.338 202.414 187.131C203.178 187.532 203.833 188.113 204.323 188.823C204.813 189.533 205.123 190.352 205.226 191.209C205.333 192.109 205.22 193.022 204.895 193.868C204.571 194.715 204.045 195.47 203.363 196.068C188.671 209.617 177.487 226.528 170.771 245.349V245.312Z" fill="black"/>
<path d="M319.263 133.773C315.975 133.775 312.703 134.232 309.541 135.132C304.245 136.608 299.351 139.262 295.226 142.896C291.101 146.529 287.852 151.048 285.72 156.114C285.344 156.964 285.187 157.895 285.261 158.821C285.336 159.748 285.641 160.641 286.149 161.42C286.625 162.172 287.278 162.795 288.05 163.236C288.823 163.678 289.692 163.923 290.581 163.952C310.533 164.68 330.012 170.231 347.348 180.131C348.141 180.59 349.035 180.847 349.951 180.88C350.867 180.912 351.777 180.719 352.6 180.317C353.416 179.928 354.125 179.347 354.667 178.624C355.208 177.901 355.567 177.057 355.71 176.165C356.549 170.912 356.233 165.538 354.784 160.419C353.334 155.3 350.786 150.558 347.317 146.523C343.848 142.488 339.541 139.257 334.696 137.055C329.851 134.854 324.585 133.733 319.263 133.773Z" fill="#FFA44B"/>
<path d="M355.766 152.651C351.58 144.186 344.577 137.44 335.959 133.571C327.342 129.702 317.646 128.95 308.535 131.446C302.693 133.081 297.297 136.015 292.75 140.029C288.202 144.043 284.621 149.033 282.275 154.625C281.679 156.036 281.434 157.571 281.56 159.098C281.687 160.625 282.181 162.099 283.001 163.394C283.8 164.657 284.897 165.705 286.196 166.445C287.495 167.185 288.956 167.595 290.451 167.639C309.803 168.336 328.695 173.722 345.504 183.333C346.81 184.077 348.276 184.494 349.778 184.548C351.28 184.602 352.772 184.292 354.128 183.645C355.484 182.997 356.663 182.031 357.565 180.829C358.466 179.627 359.063 178.225 359.305 176.743C360.641 168.54 359.404 160.124 355.766 152.651ZM355.636 176.147C355.502 177.035 355.157 177.877 354.628 178.603C354.1 179.329 353.404 179.917 352.6 180.317C351.785 180.704 350.888 180.887 349.986 180.851C349.085 180.815 348.205 180.562 347.423 180.112C330.086 170.212 310.608 164.661 290.656 163.934C289.766 163.905 288.898 163.659 288.125 163.218C287.352 162.776 286.699 162.153 286.223 161.402C285.716 160.623 285.411 159.729 285.336 158.803C285.261 157.876 285.419 156.946 285.795 156.096C287.919 151.019 291.166 146.489 295.291 142.845C299.417 139.202 304.314 136.539 309.615 135.057C312.778 134.158 316.049 133.701 319.337 133.698C324.66 133.668 329.926 134.798 334.768 137.009C339.61 139.22 343.912 142.459 347.374 146.501C350.836 150.543 353.375 155.291 354.815 160.414C356.255 165.537 356.56 170.912 355.71 176.165L355.636 176.147Z" fill="black"/>
<path d="M406.071 345.419L382.79 334.658L383.61 332.964C392.839 313.662 396.113 292.05 393.014 270.882C389.915 249.713 380.585 229.945 366.21 214.095C351.836 198.245 333.067 187.031 312.296 181.879C291.524 176.727 269.688 177.872 249.569 185.167C229.45 192.462 211.959 205.578 199.321 222.844C186.684 240.11 179.473 260.745 178.606 282.121C177.739 303.498 183.256 324.648 194.454 342.88C205.652 361.112 222.025 375.599 241.487 384.498L243.182 385.28L232.008 409.353C231.042 411.468 230.95 413.878 231.752 416.061C232.554 418.243 234.185 420.021 236.291 421.007L245.939 425.457C248.054 426.423 250.466 426.514 252.649 425.712C254.832 424.911 256.61 423.28 257.597 421.175L270.634 393.155L272.013 393.342C289.414 395.701 307.128 393.784 323.621 387.756C339.816 381.848 354.332 372.091 365.917 359.327L366.848 358.321L394.3 371.019C396.416 371.984 398.827 372.076 401.01 371.274C403.193 370.472 404.972 368.842 405.959 366.737L410.41 357.093C411.376 354.978 411.468 352.567 410.665 350.385C409.863 348.203 408.232 346.425 406.126 345.438L406.071 345.419ZM366.01 319.094L365.581 320.136C358.081 337.96 344.768 352.722 327.808 362.02C310.848 371.318 291.24 374.605 272.174 371.347C253.107 368.088 235.705 358.476 222.799 344.073C209.892 329.67 202.242 311.326 201.091 292.024V289.845C200.677 275.973 203.632 262.208 209.704 249.728C215.776 237.247 224.784 226.424 235.956 218.186L238.731 216.175C244.467 212.354 250.638 209.229 257.113 206.866C271.413 201.633 286.848 200.297 301.835 202.996C316.822 205.695 330.82 212.332 342.394 222.226L344.666 224.292C357.45 236.055 366.345 251.431 370.168 268.374C373.991 285.317 372.56 303.022 366.066 319.131L366.01 319.094Z" fill="#FF6C37"/>
<path d="M414.06 349.087C413.499 347.544 412.637 346.127 411.525 344.919C410.412 343.711 409.071 342.736 407.579 342.05L387.707 332.852C396.842 312.873 399.869 290.641 396.408 268.948C392.947 247.255 383.152 227.068 368.252 210.921C353.353 194.774 334.013 183.387 312.662 178.189C291.311 172.992 268.9 174.217 248.242 181.709C227.585 189.201 209.602 202.627 196.551 220.301C183.501 237.975 175.965 259.109 174.889 281.05C173.813 302.991 179.246 324.761 190.505 343.626C201.763 362.491 218.347 377.61 238.172 387.086L228.599 407.789C227.22 410.801 227.086 414.235 228.227 417.345C229.367 420.455 231.69 422.989 234.69 424.396L244.337 428.846C245.825 429.537 247.436 429.927 249.077 429.991C250.717 430.055 252.353 429.792 253.891 429.218C255.436 428.66 256.855 427.799 258.063 426.687C259.272 425.574 260.247 424.232 260.931 422.739L272.758 397.214C290.333 399.365 308.169 397.31 324.794 391.219C341.117 385.273 355.797 375.543 367.63 362.827L392.624 374.37C395.634 375.748 399.067 375.881 402.175 374.741C405.283 373.601 407.814 371.279 409.218 368.282L413.688 358.638C414.379 357.15 414.768 355.539 414.832 353.9C414.896 352.26 414.634 350.625 414.06 349.087ZM410.336 357.074L405.884 366.718C404.897 368.823 403.119 370.454 400.936 371.256C398.753 372.057 396.341 371.966 394.226 371L366.773 358.303L365.842 359.308C354.258 372.072 339.742 381.829 323.546 387.738C307.053 393.765 289.339 395.682 271.938 393.323L270.56 393.137L257.523 421.156C256.536 423.261 254.757 424.892 252.574 425.694C250.391 426.496 247.98 426.404 245.864 425.439L236.217 420.989C234.111 420.002 232.48 418.224 231.678 416.042C230.876 413.86 230.967 411.449 231.933 409.334L243.108 385.261L241.413 384.479C221.954 375.568 205.589 361.07 194.4 342.83C183.211 324.591 177.704 303.436 178.582 282.058C179.459 260.68 186.681 240.047 199.327 222.785C211.973 205.524 229.472 192.414 249.596 185.127C269.719 177.839 291.557 176.702 312.329 181.862C333.101 187.021 351.867 198.243 366.238 214.098C380.609 229.954 389.935 249.726 393.029 270.897C396.122 292.068 392.843 313.68 383.61 332.983L382.79 334.677L406.071 345.438C408.176 346.425 409.808 348.203 410.61 350.385C411.412 352.567 411.32 354.978 410.354 357.093L410.336 357.074Z" fill="black"/>
<path d="M337.44 282.491C331.704 266.908 309.652 268.919 309.503 268.938H309.28C308.125 268.938 280.617 268.323 276.333 254.825C273.801 246.82 277.581 239.522 280.617 233.657C281.25 232.465 281.846 231.311 282.368 230.194C284.789 225.018 292.257 223.641 298.161 224.609C301.264 225.167 304.33 225.913 307.343 226.843C314.942 229.002 322.783 231.237 329.133 227.625C332.486 225.763 335.335 224.218 337.663 223.138C324.433 212.622 308.274 206.453 291.399 205.477C274.525 204.5 257.761 208.764 243.406 217.683C245.077 218.857 246.34 220.523 247.019 222.449C248.211 225.986 247.335 230.306 244.43 235.295C242.903 237.902 242.288 239.95 242.568 241.197C242.847 242.445 244.039 243.059 245.883 244.008C247.727 244.958 249.999 246.187 250.576 248.7C251.06 250.878 250.148 253.448 247.689 256.817C240.482 266.685 215.655 291.037 204.853 293.643C206.002 308.134 210.987 322.059 219.297 333.988C227.607 345.917 238.942 355.421 252.141 361.524C257.632 364.064 263.383 365.999 269.294 367.295C267.431 365.061 266.053 361.189 266.63 354.505C267.822 340.616 264.358 339.22 261.304 337.991L260.745 337.768C259.332 337.12 258 336.307 256.778 335.347C253.56 332.98 250.101 330.959 246.46 329.315C230.313 321.868 229.046 314.421 230.834 309.357C233.982 300.569 248.9 294.76 254.32 296.157C258.361 297.199 261.769 295.393 266.22 293.122C269.042 291.548 272.004 290.24 275.067 289.212C280.841 287.351 282.517 289.957 284.193 292.619C286.47 296.449 290.045 299.336 294.269 300.755C302.91 304.2 306.654 313.49 305.071 327.639C304.972 328.921 304.569 330.16 303.896 331.254C303.222 332.349 302.297 333.267 301.197 333.932C299.074 335.515 296.653 337.302 296.392 347.337C296.169 351.745 294.821 356.024 292.477 359.765C290.133 363.506 286.871 366.585 283.001 368.71L282.349 369.027C299.021 369.854 315.548 365.582 329.729 356.781C343.911 347.98 355.072 335.067 361.726 319.764C354.314 310.865 342.022 294.984 337.44 282.491Z" fill="#AFE2E3"/>
<path d="M366.96 257.655C362.265 244.908 354.604 233.459 344.61 224.255L342.338 222.188C330.765 212.295 316.766 205.658 301.779 202.959C286.793 200.26 271.357 201.595 257.057 206.829C250.582 209.191 244.411 212.316 238.675 216.138L235.9 218.148C224.728 226.387 215.721 237.21 209.648 249.69C203.576 262.171 200.621 275.936 201.035 289.808V291.986C202.121 311.339 209.741 329.751 222.651 344.213C235.561 358.675 252.996 368.332 272.108 371.605C291.219 374.877 310.876 371.573 327.865 362.231C344.854 352.888 358.17 338.062 365.637 320.174L366.066 319.131C374.008 299.465 374.327 277.544 366.96 257.655ZM239.923 219.917C241.529 220.651 242.781 221.989 243.406 223.641C244.244 226.098 243.406 229.375 241.134 233.415C239.01 237.045 238.321 239.838 238.992 242.202C239.448 243.358 240.142 244.405 241.027 245.277C241.912 246.149 242.97 246.827 244.132 247.267C245.473 247.993 246.739 248.663 246.944 249.519C247.075 250.078 246.944 251.493 244.691 254.602C235.826 266.741 212.825 287.481 204.76 289.883C204.331 276.216 207.323 262.659 213.463 250.441C219.604 238.223 228.699 227.731 239.923 219.917ZM273.354 365.918C270.988 364.335 269.945 360.332 270.411 354.747C271.733 339.387 267.543 336.39 262.756 334.472L262.254 334.267C261.104 333.709 260.017 333.028 259.013 332.238C255.607 329.735 251.95 327.595 248.099 325.852C240.649 322.389 232.138 316.916 234.41 310.548C236.906 303.604 249.999 298.8 253.463 299.694C258.882 301.09 263.315 298.782 268.008 296.343C270.635 294.882 273.391 293.667 276.24 292.712C279.313 291.744 279.593 292.191 281.139 294.574C283.82 299.066 288.012 302.458 292.965 304.144C301.7 307.625 302.408 318.573 301.439 327.155C301.397 327.929 301.156 328.678 300.738 329.331C300.32 329.984 299.74 330.517 299.055 330.879C295.777 333.336 293.04 336.241 292.742 347.188C292.554 350.934 291.41 354.568 289.417 357.746C287.425 360.924 284.652 363.538 281.362 365.34C278.196 366.997 275.272 367.202 273.354 365.918ZM314.849 364.056C304.488 367.887 293.457 369.578 282.424 369.027L283.076 368.71C286.946 366.585 290.208 363.506 292.552 359.765C294.895 356.024 296.243 351.745 296.466 347.337C296.727 337.302 299.148 335.515 301.271 333.932C302.371 333.267 303.296 332.349 303.97 331.254C304.644 330.16 305.047 328.921 305.145 327.639C306.728 313.49 302.985 304.2 294.343 300.755C290.119 299.336 286.544 296.449 284.267 292.619C282.535 289.957 280.915 287.444 275.142 289.212C272.078 290.24 269.117 291.548 266.295 293.122C261.9 295.393 258.436 297.199 254.394 296.157C248.974 294.76 234.056 300.569 230.909 309.357C229.046 314.346 230.387 321.849 246.535 329.315C250.176 330.959 253.634 332.98 256.852 335.347C258.075 336.307 259.406 337.12 260.819 337.768L261.378 337.991C264.433 339.22 267.897 340.616 266.705 354.505C266.127 361.189 267.561 365.061 269.368 367.295C263.458 365.999 257.706 364.064 252.215 361.524C239.017 355.421 227.681 345.917 219.371 333.988C211.061 322.059 206.076 308.134 204.928 293.643C215.655 291.037 240.482 266.685 247.764 256.817C250.222 253.448 251.135 250.878 250.651 248.7C250.073 246.187 247.894 244.977 245.957 244.008C244.02 243.04 242.977 242.333 242.642 241.197C242.307 240.061 242.903 237.902 244.505 235.295C247.41 230.306 248.229 225.986 247.093 222.449C246.414 220.523 245.151 218.857 243.48 217.683C257.82 208.797 274.555 204.553 291.398 205.529C308.241 206.505 324.372 212.655 337.589 223.138C335.261 224.218 332.411 225.726 329.059 227.625C322.708 231.237 314.867 229.002 307.269 226.843C304.256 225.913 301.19 225.167 298.087 224.609C292.183 223.678 284.714 225.056 282.293 230.194C281.772 231.311 281.176 232.465 280.543 233.657C277.507 239.522 273.726 246.82 276.259 254.825C280.543 268.323 308.051 268.919 309.205 268.938H309.429C309.652 268.938 331.778 266.908 337.365 282.491C341.947 294.984 354.239 310.865 361.577 319.727C357.171 329.873 350.761 339.026 342.732 346.637C334.702 354.248 325.218 360.16 314.849 364.019V364.056ZM363.272 315.854C356.772 307.923 345.132 292.768 340.923 281.244C334.348 263.39 311.236 265.065 309.15 265.251C301.849 265.121 282.666 262.794 279.798 253.746C277.73 247.211 280.971 240.936 283.839 235.407C284.491 234.16 285.106 232.968 285.702 231.814C287.21 228.556 292.946 227.569 297.565 228.295C300.517 228.825 303.434 229.533 306.3 230.417C314.234 232.689 323.211 235.258 330.94 230.864C334.123 228.997 337.405 227.307 340.774 225.8C353.226 236.753 362.053 251.231 366.085 267.314C370.116 283.398 369.161 300.326 363.346 315.854H363.272Z" fill="black"/>
<path d="M244.691 254.583C235.807 266.741 212.75 287.481 204.723 289.957C204.293 276.286 207.286 262.724 213.43 250.502C219.573 238.281 228.674 227.787 239.904 219.973C241.514 220.708 242.771 222.045 243.406 223.697C244.244 226.154 243.406 229.431 241.133 233.471C239.01 237.101 238.321 239.894 238.992 242.258C239.448 243.414 240.141 244.461 241.027 245.333C241.912 246.205 242.97 246.883 244.132 247.322C245.473 248.049 246.739 248.719 246.944 249.575C247.075 250.059 246.944 251.474 244.691 254.583ZM301.439 327.193C302.407 318.61 301.7 307.663 292.965 304.181C288.012 302.495 283.82 299.103 281.138 294.612C279.593 292.229 279.276 291.782 276.24 292.75C273.39 293.704 270.635 294.92 268.008 296.38C263.315 298.819 258.882 301.128 253.463 299.732C253.127 299.651 252.783 299.614 252.438 299.62C247.95 299.62 236.701 304.2 234.41 310.586C232.119 316.972 240.593 322.427 248.099 325.889C251.949 327.632 255.607 329.773 259.013 332.275C260.017 333.066 261.104 333.746 262.253 334.305L262.756 334.51C267.543 336.371 271.733 339.425 270.411 354.784C269.945 360.37 270.988 364.335 273.354 365.955C275.216 367.24 278.196 367.035 281.362 365.396C284.652 363.594 287.425 360.98 289.417 357.802C291.409 354.624 292.554 350.989 292.741 347.244C293.039 336.297 295.777 333.392 299.055 330.935C299.743 330.571 300.324 330.035 300.742 329.379C301.16 328.723 301.4 327.97 301.439 327.193ZM363.309 315.836C369.113 300.302 370.064 283.373 366.037 267.287C362.01 251.2 353.194 236.715 340.755 225.745C337.383 227.263 334.094 228.959 330.903 230.827C323.174 235.221 314.141 232.689 306.263 230.38C303.397 229.496 300.48 228.787 297.528 228.258C292.909 227.532 287.173 228.519 285.664 231.777C285.124 232.931 284.509 234.123 283.802 235.37C280.934 240.955 277.693 247.174 279.76 253.708C282.628 262.757 301.811 265.084 309.112 265.214C309.503 265.214 310.658 265.102 312.316 265.102C319.374 265.102 335.559 266.741 340.885 281.207C345.15 292.731 356.809 307.905 363.309 315.836Z" fill="#70D44B"/>
<line x1="21" y1="59.5" x2="541" y2="59.5" stroke="#494949" stroke-dasharray="6 6"/>
<line x1="21" y1="119.5" x2="541" y2="119.5" stroke="#494949" stroke-dasharray="6 6"/>
<line x1="20" y1="439.5" x2="540" y2="439.5" stroke="#494949" stroke-dasharray="6 6"/>
<line x1="21" y1="499.5" x2="541" y2="499.5" stroke="#494949" stroke-dasharray="6 6"/>
<line x1="120.5" y1="20" x2="120.5" y2="540" stroke="#494949" stroke-dasharray="6 6"/>
<line x1="442.5" y1="20" x2="442.5" y2="540" stroke="#494949" stroke-dasharray="6 6"/>
</svg>
