<svg width="69" height="59" viewBox="0 0 69 59" fill="none" xmlns="http://www.w3.org/2000/svg">
<path d="M35.357 3.64214L40.3577 8.64292L29.4988 19.5019L25.0402 19.9941C24.4433 20.0601 23.939 19.5554 24.0054 18.9585L24.5015 14.4968L35.357 3.64214ZM43.4507 2.89761L41.1027 0.54956C40.3702 -0.182861 39.1824 -0.182861 38.4499 0.54956L36.241 2.75854L41.2417 7.75933L43.4507 5.55034C44.1831 4.81753 44.1831 3.63003 43.4507 2.89761Z" fill="black"/>
<path d="M2.57229 52C2.03229 52 1.76229 51.73 1.76229 51.19V40.12C1.76229 39.58 2.03229 39.31 2.57229 39.31H9.26829C9.68829 39.31 9.89829 39.514 9.89829 39.922C9.89829 40.342 9.68829 40.552 9.26829 40.552H3.20229V44.944H8.89029C9.31029 44.944 9.52029 45.148 9.52029 45.556C9.52029 45.976 9.31029 46.186 8.89029 46.186H3.20229V50.758H9.26829C9.68829 50.758 9.89829 50.962 9.89829 51.37C9.89829 51.79 9.68829 52 9.26829 52H2.57229ZM15.3181 52.162C14.5381 52.162 13.8541 51.976 13.2661 51.604C12.6901 51.232 12.2401 50.71 11.9161 50.038C11.6041 49.354 11.4481 48.55 11.4481 47.626C11.4481 46.69 11.6041 45.886 11.9161 45.214C12.2401 44.53 12.6901 44.008 13.2661 43.648C13.8541 43.276 14.5381 43.09 15.3181 43.09C16.0021 43.09 16.6021 43.24 17.1181 43.54C17.6461 43.84 18.0361 44.254 18.2881 44.782V39.922C18.2881 39.43 18.5341 39.184 19.0261 39.184C19.5061 39.184 19.7461 39.43 19.7461 39.922V51.37C19.7461 51.874 19.5061 52.126 19.0261 52.126C18.5461 52.126 18.3061 51.874 18.3061 51.37V50.434C18.0421 50.974 17.6461 51.4 17.1181 51.712C16.6021 52.012 16.0021 52.162 15.3181 52.162ZM15.6241 50.992C16.4401 50.992 17.0941 50.704 17.5861 50.128C18.0781 49.54 18.3241 48.706 18.3241 47.626C18.3241 46.534 18.0781 45.7 17.5861 45.124C17.0941 44.548 16.4401 44.26 15.6241 44.26C14.7961 44.26 14.1361 44.548 13.6441 45.124C13.1641 45.7 12.9241 46.534 12.9241 47.626C12.9241 48.706 13.1641 49.54 13.6441 50.128C14.1361 50.704 14.7961 50.992 15.6241 50.992ZM23.2023 41.146C22.5663 41.146 22.2483 40.846 22.2483 40.246C22.2483 39.658 22.5663 39.364 23.2023 39.364C23.8383 39.364 24.1563 39.658 24.1563 40.246C24.1563 40.846 23.8383 41.146 23.2023 41.146ZM23.2023 52.09C22.7223 52.09 22.4823 51.826 22.4823 51.298V43.936C22.4823 43.42 22.7223 43.162 23.2023 43.162C23.6943 43.162 23.9403 43.42 23.9403 43.936V51.298C23.9403 51.826 23.6943 52.09 23.2023 52.09ZM30.1759 52.162C29.1439 52.162 28.3699 51.892 27.8539 51.352C27.3379 50.8 27.0799 50.008 27.0799 48.976V44.386H25.8739C25.4539 44.386 25.2439 44.194 25.2439 43.81C25.2439 43.438 25.4539 43.252 25.8739 43.252H27.0799V41.182C27.0799 40.69 27.3259 40.444 27.8179 40.444C28.2979 40.444 28.5379 40.69 28.5379 41.182V43.252H30.8059C31.2259 43.252 31.4359 43.438 31.4359 43.81C31.4359 44.194 31.2259 44.386 30.8059 44.386H28.5379V48.832C28.5379 49.516 28.6819 50.038 28.9699 50.398C29.2579 50.746 29.7259 50.92 30.3739 50.92C30.6019 50.92 30.7939 50.896 30.9499 50.848C31.1059 50.8 31.2439 50.776 31.3639 50.776C31.4719 50.764 31.5619 50.8 31.6339 50.884C31.7059 50.968 31.7419 51.112 31.7419 51.316C31.7419 51.46 31.7119 51.592 31.6519 51.712C31.6039 51.832 31.5139 51.916 31.3819 51.964C31.2379 52.012 31.0459 52.054 30.8059 52.09C30.5779 52.138 30.3679 52.162 30.1759 52.162ZM38.3194 41.146C37.6834 41.146 37.3654 40.846 37.3654 40.246C37.3654 39.658 37.6834 39.364 38.3194 39.364C38.9554 39.364 39.2734 39.658 39.2734 40.246C39.2734 40.846 38.9554 41.146 38.3194 41.146ZM38.3194 52.09C37.8394 52.09 37.5994 51.826 37.5994 51.298V43.936C37.5994 43.42 37.8394 43.162 38.3194 43.162C38.8114 43.162 39.0574 43.42 39.0574 43.936V51.298C39.0574 51.826 38.8114 52.09 38.3194 52.09ZM45.491 52.162C44.615 52.162 43.859 51.976 43.223 51.604C42.587 51.22 42.095 50.686 41.747 50.002C41.411 49.306 41.243 48.496 41.243 47.572C41.243 46.18 41.621 45.088 42.377 44.296C43.133 43.492 44.171 43.09 45.491 43.09C45.923 43.09 46.373 43.162 46.841 43.306C47.309 43.438 47.735 43.66 48.119 43.972C48.323 44.116 48.407 44.296 48.371 44.512C48.347 44.728 48.245 44.89 48.065 44.998C47.897 45.106 47.699 45.082 47.471 44.926C47.147 44.686 46.823 44.518 46.499 44.422C46.187 44.326 45.881 44.278 45.581 44.278C44.669 44.278 43.967 44.566 43.475 45.142C42.983 45.706 42.737 46.522 42.737 47.59C42.737 48.634 42.983 49.462 43.475 50.074C43.967 50.674 44.669 50.974 45.581 50.974C45.881 50.974 46.187 50.926 46.499 50.83C46.823 50.734 47.147 50.566 47.471 50.326C47.699 50.17 47.897 50.152 48.065 50.272C48.233 50.38 48.323 50.542 48.335 50.758C48.359 50.974 48.275 51.148 48.083 51.28C47.699 51.592 47.279 51.82 46.823 51.964C46.367 52.096 45.923 52.162 45.491 52.162ZM53.5753 52.162C52.7233 52.162 51.9853 51.976 51.3613 51.604C50.7373 51.232 50.2513 50.71 49.9033 50.038C49.5673 49.354 49.3993 48.55 49.3993 47.626C49.3993 46.702 49.5673 45.904 49.9033 45.232C50.2513 44.548 50.7373 44.02 51.3613 43.648C51.9853 43.276 52.7233 43.09 53.5753 43.09C54.4153 43.09 55.1473 43.276 55.7713 43.648C56.4073 44.02 56.8933 44.548 57.2293 45.232C57.5773 45.904 57.7513 46.702 57.7513 47.626C57.7513 48.55 57.5773 49.354 57.2293 50.038C56.8933 50.71 56.4073 51.232 55.7713 51.604C55.1473 51.976 54.4153 52.162 53.5753 52.162ZM53.5753 50.992C54.3913 50.992 55.0453 50.704 55.5373 50.128C56.0293 49.54 56.2753 48.706 56.2753 47.626C56.2753 46.534 56.0293 45.7 55.5373 45.124C55.0453 44.548 54.3913 44.26 53.5753 44.26C52.7473 44.26 52.0873 44.548 51.5953 45.124C51.1153 45.7 50.8753 46.534 50.8753 47.626C50.8753 48.706 51.1153 49.54 51.5953 50.128C52.0873 50.704 52.7473 50.992 53.5753 50.992ZM60.6612 52.126C60.1812 52.126 59.9412 51.874 59.9412 51.37V43.864C59.9412 43.372 60.1752 43.126 60.6432 43.126C61.1232 43.126 61.3632 43.372 61.3632 43.864V44.746C61.6512 44.194 62.0592 43.78 62.5872 43.504C63.1152 43.228 63.7092 43.09 64.3692 43.09C66.4452 43.09 67.4832 44.242 67.4832 46.546V51.37C67.4832 51.874 67.2432 52.126 66.7632 52.126C66.2712 52.126 66.0252 51.874 66.0252 51.37V46.636C66.0252 45.82 65.8632 45.226 65.5392 44.854C65.2272 44.47 64.7232 44.278 64.0272 44.278C63.2232 44.278 62.5812 44.53 62.1012 45.034C61.6332 45.526 61.3992 46.186 61.3992 47.014V51.37C61.3992 51.874 61.1532 52.126 60.6612 52.126Z" fill="black"/>
</svg>
