<svg width="30" height="26" viewBox="0 0 30 26" fill="none" xmlns="http://www.w3.org/2000/svg">
<path d="M28.9286 20.8H1.07143C0.787268 20.8 0.514746 20.937 0.313814 21.1808C0.112882 21.4246 0 21.7552 0 22.1L0 24.7C0 25.0448 0.112882 25.3754 0.313814 25.6192C0.514746 25.863 0.787268 26 1.07143 26H28.9286C29.2127 26 29.4853 25.863 29.6862 25.6192C29.8871 25.3754 30 25.0448 30 24.7V22.1C30 21.7552 29.8871 21.4246 29.6862 21.1808C29.4853 20.937 29.2127 20.8 28.9286 20.8ZM28.9286 10.4H1.07143C0.787268 10.4 0.514746 10.537 0.313814 10.7808C0.112882 11.0246 0 11.3552 0 11.7L0 14.3C0 14.6448 0.112882 14.9754 0.313814 15.2192C0.514746 15.463 0.787268 15.6 1.07143 15.6H28.9286C29.2127 15.6 29.4853 15.463 29.6862 15.2192C29.8871 14.9754 30 14.6448 30 14.3V11.7C30 11.3552 29.8871 11.0246 29.6862 10.7808C29.4853 10.537 29.2127 10.4 28.9286 10.4ZM28.9286 0H1.07143C0.787268 0 0.514746 0.136964 0.313814 0.380762C0.112882 0.624559 0 0.955219 0 1.3L0 3.9C0 4.24478 0.112882 4.57544 0.313814 4.81924C0.514746 5.06304 0.787268 5.2 1.07143 5.2H28.9286C29.2127 5.2 29.4853 5.06304 29.6862 4.81924C29.8871 4.57544 30 4.24478 30 3.9V1.3C30 0.955219 29.8871 0.624559 29.6862 0.380762C29.4853 0.136964 29.2127 0 28.9286 0Z" fill="black"/>
</svg>
