<svg width="143" height="64" viewBox="0 0 143 64" fill="none" xmlns="http://www.w3.org/2000/svg">
<path d="M85.9286 23.3529H58.0714C57.7873 23.3529 57.5147 23.5053 57.3138 23.7766C57.1129 24.0478 57 24.4158 57 24.7994V27.6922C57 28.0758 57.1129 28.4437 57.3138 28.715C57.5147 28.9863 57.7873 29.1387 58.0714 29.1387H85.9286C86.2127 29.1387 86.4853 28.9863 86.6862 28.715C86.8871 28.4437 87 28.0758 87 27.6922V24.7994C87 24.4158 86.8871 24.0478 86.6862 23.7766C86.4853 23.5053 86.2127 23.3529 85.9286 23.3529ZM85.9286 11.7815H58.0714C57.7873 11.7815 57.5147 11.9339 57.3138 12.2052C57.1129 12.4764 57 12.8443 57 13.2279V16.1208C57 16.5044 57.1129 16.8723 57.3138 17.1436C57.5147 17.4148 57.7873 17.5672 58.0714 17.5672H85.9286C86.2127 17.5672 86.4853 17.4148 86.6862 17.1436C86.8871 16.8723 87 16.5044 87 16.1208V13.2279C87 12.8443 86.8871 12.4764 86.6862 12.2052C86.4853 11.9339 86.2127 11.7815 85.9286 11.7815ZM85.9286 0.210083H58.0714C57.7873 0.210083 57.5147 0.362475 57.3138 0.633733C57.1129 0.904991 57 1.27289 57 1.65651V4.54937C57 4.93299 57.1129 5.30089 57.3138 5.57215C57.5147 5.84341 57.7873 5.9958 58.0714 5.9958H85.9286C86.2127 5.9958 86.4853 5.84341 86.6862 5.57215C86.8871 5.30089 87 4.93299 87 4.54937V1.65651C87 1.27289 86.8871 0.904991 86.6862 0.633733C86.4853 0.362475 86.2127 0.210083 85.9286 0.210083Z" fill="black"/>
<path d="M2.74443 57.126C2.25243 57.126 2.00643 56.868 2.00643 56.352V44.958C2.00643 44.442 2.25243 44.184 2.74443 44.184C3.23643 44.184 3.48243 44.442 3.48243 44.958V49.926H11.0964V44.958C11.0964 44.442 11.3424 44.184 11.8344 44.184C12.3264 44.184 12.5724 44.442 12.5724 44.958V56.352C12.5724 56.868 12.3264 57.126 11.8344 57.126C11.3424 57.126 11.0964 56.868 11.0964 56.352V51.204H3.48243V56.352C3.48243 56.868 3.23643 57.126 2.74443 57.126ZM18.2558 57.162C17.6558 57.162 17.1158 57.048 16.6358 56.82C16.1678 56.58 15.7958 56.256 15.5198 55.848C15.2438 55.44 15.1058 54.984 15.1058 54.48C15.1058 53.844 15.2678 53.34 15.5918 52.968C15.9278 52.596 16.4738 52.332 17.2298 52.176C17.9978 52.008 19.0418 51.924 20.3618 51.924H20.9378V51.366C20.9378 50.622 20.7818 50.088 20.4698 49.764C20.1698 49.428 19.6838 49.26 19.0118 49.26C18.5918 49.26 18.1658 49.314 17.7338 49.422C17.3138 49.53 16.8758 49.704 16.4198 49.944C16.2158 50.052 16.0418 50.076 15.8978 50.016C15.7658 49.944 15.6698 49.836 15.6098 49.692C15.5618 49.536 15.5618 49.38 15.6098 49.224C15.6698 49.056 15.7898 48.93 15.9698 48.846C16.4858 48.582 17.0018 48.39 17.5178 48.27C18.0458 48.15 18.5438 48.09 19.0118 48.09C20.1398 48.09 20.9738 48.366 21.5138 48.918C22.0658 49.47 22.3418 50.328 22.3418 51.492V56.37C22.3418 56.874 22.1198 57.126 21.6758 57.126C21.2078 57.126 20.9738 56.874 20.9738 56.37V55.488C20.7458 56.004 20.3918 56.412 19.9118 56.712C19.4438 57.012 18.8918 57.162 18.2558 57.162ZM18.4898 56.064C19.2098 56.064 19.7978 55.818 20.2538 55.326C20.7098 54.822 20.9378 54.186 20.9378 53.418V52.878H20.3798C19.4078 52.878 18.6398 52.926 18.0758 53.022C17.5238 53.106 17.1338 53.262 16.9058 53.49C16.6898 53.706 16.5818 54.006 16.5818 54.39C16.5818 54.882 16.7498 55.284 17.0858 55.596C17.4338 55.908 17.9018 56.064 18.4898 56.064ZM25.8027 57.126C25.3227 57.126 25.0827 56.874 25.0827 56.37V48.864C25.0827 48.372 25.3167 48.126 25.7847 48.126C26.2647 48.126 26.5047 48.372 26.5047 48.864V49.728C26.7687 49.2 27.1347 48.798 27.6027 48.522C28.0707 48.234 28.6167 48.09 29.2407 48.09C30.6087 48.09 31.4847 48.684 31.8687 49.872C32.1327 49.32 32.5227 48.888 33.0387 48.576C33.5547 48.252 34.1487 48.09 34.8207 48.09C36.7647 48.09 37.7367 49.242 37.7367 51.546V56.37C37.7367 56.874 37.4907 57.126 36.9987 57.126C36.5187 57.126 36.2787 56.874 36.2787 56.37V51.618C36.2787 50.814 36.1347 50.226 35.8467 49.854C35.5707 49.47 35.1087 49.278 34.4607 49.278C33.7527 49.278 33.1887 49.53 32.7687 50.034C32.3487 50.538 32.1387 51.21 32.1387 52.05V56.37C32.1387 56.874 31.8927 57.126 31.4007 57.126C30.9207 57.126 30.6807 56.874 30.6807 56.37V51.618C30.6807 50.814 30.5367 50.226 30.2487 49.854C29.9727 49.47 29.5107 49.278 28.8627 49.278C28.1427 49.278 27.5727 49.53 27.1527 50.034C26.7447 50.538 26.5407 51.21 26.5407 52.05V56.37C26.5407 56.874 26.2947 57.126 25.8027 57.126ZM44.8907 57.162C44.2067 57.162 43.6007 57.012 43.0727 56.712C42.5447 56.4 42.1547 55.974 41.9027 55.434V56.37C41.9027 56.874 41.6627 57.126 41.1827 57.126C40.7027 57.126 40.4627 56.874 40.4627 56.37V44.922C40.4627 44.43 40.7027 44.184 41.1827 44.184C41.6747 44.184 41.9207 44.43 41.9207 44.922V49.764C42.1727 49.248 42.5627 48.84 43.0907 48.54C43.6187 48.24 44.2187 48.09 44.8907 48.09C45.6707 48.09 46.3487 48.276 46.9247 48.648C47.5127 49.008 47.9627 49.53 48.2747 50.214C48.5987 50.886 48.7607 51.69 48.7607 52.626C48.7607 53.55 48.5987 54.354 48.2747 55.038C47.9627 55.71 47.5127 56.232 46.9247 56.604C46.3487 56.976 45.6707 57.162 44.8907 57.162ZM44.5847 55.992C45.4007 55.992 46.0547 55.704 46.5467 55.128C47.0387 54.54 47.2847 53.706 47.2847 52.626C47.2847 51.534 47.0387 50.7 46.5467 50.124C46.0547 49.548 45.4007 49.26 44.5847 49.26C43.7687 49.26 43.1147 49.548 42.6227 50.124C42.1307 50.7 41.8847 51.534 41.8847 52.626C41.8847 53.706 42.1307 54.54 42.6227 55.128C43.1147 55.704 43.7687 55.992 44.5847 55.992ZM54.0529 57.162C51.9529 57.162 50.9029 56.004 50.9029 53.688V48.864C50.9029 48.372 51.1429 48.126 51.6229 48.126C52.1149 48.126 52.3609 48.372 52.3609 48.864V53.67C52.3609 54.45 52.5169 55.026 52.8289 55.398C53.1529 55.77 53.6569 55.956 54.3409 55.956C55.0849 55.956 55.6909 55.71 56.1589 55.218C56.6269 54.714 56.8609 54.048 56.8609 53.22V48.864C56.8609 48.372 57.1069 48.126 57.5989 48.126C58.0789 48.126 58.3189 48.372 58.3189 48.864V56.37C58.3189 56.874 58.0849 57.126 57.6169 57.126C57.1369 57.126 56.8969 56.874 56.8969 56.37V55.524C56.6209 56.052 56.2309 56.46 55.7269 56.748C55.2349 57.024 54.6769 57.162 54.0529 57.162ZM61.7847 57.126C61.2927 57.126 61.0467 56.874 61.0467 56.37V48.864C61.0467 48.372 61.2807 48.126 61.7487 48.126C62.2287 48.126 62.4687 48.372 62.4687 48.864V49.818C62.7087 49.266 63.0807 48.846 63.5847 48.558C64.0887 48.258 64.6887 48.096 65.3847 48.072C65.7687 48.036 65.9727 48.228 65.9967 48.648C66.0327 49.068 65.8167 49.302 65.3487 49.35L65.0607 49.386C64.2327 49.458 63.6027 49.722 63.1707 50.178C62.7387 50.622 62.5227 51.234 62.5227 52.014V56.37C62.5227 56.874 62.2767 57.126 61.7847 57.126ZM71.2624 60.402C70.6264 60.402 70.0024 60.324 69.3904 60.168C68.7904 60.024 68.2444 59.79 67.7524 59.466C67.5724 59.358 67.4644 59.226 67.4284 59.07C67.4044 58.926 67.4284 58.782 67.5004 58.638C67.5724 58.506 67.6744 58.41 67.8064 58.35C67.9504 58.29 68.1004 58.302 68.2564 58.386C68.7844 58.71 69.2884 58.932 69.7684 59.052C70.2484 59.172 70.7224 59.232 71.1904 59.232C72.9184 59.232 73.7824 58.344 73.7824 56.568V55.02C73.5304 55.572 73.1344 56.01 72.5944 56.334C72.0664 56.646 71.4604 56.802 70.7764 56.802C69.9724 56.802 69.2764 56.616 68.6884 56.244C68.1004 55.872 67.6444 55.362 67.3204 54.714C67.0084 54.054 66.8524 53.292 66.8524 52.428C66.8524 51.564 67.0084 50.808 67.3204 50.16C67.6444 49.5 68.1004 48.99 68.6884 48.63C69.2764 48.27 69.9724 48.09 70.7764 48.09C71.4604 48.09 72.0664 48.24 72.5944 48.54C73.1224 48.84 73.5124 49.26 73.7644 49.8V48.864C73.7644 48.372 74.0044 48.126 74.4844 48.126C74.9644 48.126 75.2044 48.372 75.2044 48.864V56.37C75.2044 57.714 74.8684 58.722 74.1964 59.394C73.5364 60.066 72.5584 60.402 71.2624 60.402ZM71.0464 55.614C71.8864 55.614 72.5524 55.326 73.0444 54.75C73.5364 54.174 73.7824 53.4 73.7824 52.428C73.7824 51.456 73.5364 50.688 73.0444 50.124C72.5524 49.548 71.8864 49.26 71.0464 49.26C70.2184 49.26 69.5584 49.548 69.0664 50.124C68.5744 50.688 68.3284 51.456 68.3284 52.428C68.3284 53.4 68.5744 54.174 69.0664 54.75C69.5584 55.326 70.2184 55.614 71.0464 55.614ZM81.8813 57.162C80.5013 57.162 79.4093 56.76 78.6053 55.956C77.8013 55.14 77.3993 54.036 77.3993 52.644C77.3993 51.744 77.5793 50.952 77.9393 50.268C78.2993 49.572 78.7913 49.038 79.4153 48.666C80.0513 48.282 80.7833 48.09 81.6113 48.09C82.7993 48.09 83.7293 48.474 84.4013 49.242C85.0733 49.998 85.4093 51.042 85.4093 52.374C85.4093 52.746 85.1993 52.932 84.7793 52.932H78.8213C78.8693 53.928 79.1573 54.69 79.6853 55.218C80.2133 55.734 80.9453 55.992 81.8813 55.992C82.2773 55.992 82.6793 55.944 83.0873 55.848C83.4953 55.74 83.8913 55.554 84.2753 55.29C84.5513 55.11 84.7793 55.074 84.9593 55.182C85.1513 55.29 85.2473 55.458 85.2473 55.686C85.2593 55.902 85.1393 56.094 84.8873 56.262C84.4913 56.55 84.0173 56.772 83.4653 56.928C82.9253 57.084 82.3973 57.162 81.8813 57.162ZM81.6473 49.17C80.8193 49.17 80.1653 49.428 79.6853 49.944C79.2053 50.46 78.9233 51.138 78.8393 51.978H84.1493C84.1133 51.09 83.8793 50.4 83.4473 49.908C83.0273 49.416 82.4273 49.17 81.6473 49.17ZM88.2574 57.126C87.7654 57.126 87.5194 56.874 87.5194 56.37V48.864C87.5194 48.372 87.7534 48.126 88.2214 48.126C88.7014 48.126 88.9414 48.372 88.9414 48.864V49.818C89.1814 49.266 89.5534 48.846 90.0574 48.558C90.5614 48.258 91.1614 48.096 91.8574 48.072C92.2414 48.036 92.4454 48.228 92.4694 48.648C92.5054 49.068 92.2894 49.302 91.8214 49.35L91.5334 49.386C90.7054 49.458 90.0754 49.722 89.6434 50.178C89.2114 50.622 88.9954 51.234 88.9954 52.014V56.37C88.9954 56.874 88.7494 57.126 88.2574 57.126ZM99.3672 57.126C98.8872 57.126 98.6472 56.874 98.6472 56.37V48.864C98.6472 48.372 98.8812 48.126 99.3492 48.126C99.8292 48.126 100.069 48.372 100.069 48.864V49.728C100.333 49.2 100.699 48.798 101.167 48.522C101.635 48.234 102.181 48.09 102.805 48.09C104.173 48.09 105.049 48.684 105.433 49.872C105.697 49.32 106.087 48.888 106.603 48.576C107.119 48.252 107.713 48.09 108.385 48.09C110.329 48.09 111.301 49.242 111.301 51.546V56.37C111.301 56.874 111.055 57.126 110.563 57.126C110.083 57.126 109.843 56.874 109.843 56.37V51.618C109.843 50.814 109.699 50.226 109.411 49.854C109.135 49.47 108.673 49.278 108.025 49.278C107.317 49.278 106.753 49.53 106.333 50.034C105.913 50.538 105.703 51.21 105.703 52.05V56.37C105.703 56.874 105.457 57.126 104.965 57.126C104.485 57.126 104.245 56.874 104.245 56.37V51.618C104.245 50.814 104.101 50.226 103.813 49.854C103.537 49.47 103.075 49.278 102.427 49.278C101.707 49.278 101.137 49.53 100.717 50.034C100.309 50.538 100.105 51.21 100.105 52.05V56.37C100.105 56.874 99.8592 57.126 99.3672 57.126ZM117.969 57.162C116.589 57.162 115.497 56.76 114.693 55.956C113.889 55.14 113.487 54.036 113.487 52.644C113.487 51.744 113.667 50.952 114.027 50.268C114.387 49.572 114.879 49.038 115.503 48.666C116.139 48.282 116.871 48.09 117.699 48.09C118.887 48.09 119.817 48.474 120.489 49.242C121.161 49.998 121.497 51.042 121.497 52.374C121.497 52.746 121.287 52.932 120.867 52.932H114.909C114.957 53.928 115.245 54.69 115.773 55.218C116.301 55.734 117.033 55.992 117.969 55.992C118.365 55.992 118.767 55.944 119.175 55.848C119.583 55.74 119.979 55.554 120.363 55.29C120.639 55.11 120.867 55.074 121.047 55.182C121.239 55.29 121.335 55.458 121.335 55.686C121.347 55.902 121.227 56.094 120.975 56.262C120.579 56.55 120.105 56.772 119.553 56.928C119.013 57.084 118.485 57.162 117.969 57.162ZM117.735 49.17C116.907 49.17 116.253 49.428 115.773 49.944C115.293 50.46 115.011 51.138 114.927 51.978H120.237C120.201 51.09 119.967 50.4 119.535 49.908C119.115 49.416 118.515 49.17 117.735 49.17ZM124.327 57.126C123.847 57.126 123.607 56.874 123.607 56.37V48.864C123.607 48.372 123.841 48.126 124.309 48.126C124.789 48.126 125.029 48.372 125.029 48.864V49.746C125.317 49.194 125.725 48.78 126.253 48.504C126.781 48.228 127.375 48.09 128.035 48.09C130.111 48.09 131.149 49.242 131.149 51.546V56.37C131.149 56.874 130.909 57.126 130.429 57.126C129.937 57.126 129.691 56.874 129.691 56.37V51.636C129.691 50.82 129.529 50.226 129.205 49.854C128.893 49.47 128.389 49.278 127.693 49.278C126.889 49.278 126.247 49.53 125.767 50.034C125.299 50.526 125.065 51.186 125.065 52.014V56.37C125.065 56.874 124.819 57.126 124.327 57.126ZM136.934 57.162C134.834 57.162 133.784 56.004 133.784 53.688V48.864C133.784 48.372 134.024 48.126 134.504 48.126C134.996 48.126 135.242 48.372 135.242 48.864V53.67C135.242 54.45 135.398 55.026 135.71 55.398C136.034 55.77 136.538 55.956 137.222 55.956C137.966 55.956 138.572 55.71 139.04 55.218C139.508 54.714 139.742 54.048 139.742 53.22V48.864C139.742 48.372 139.988 48.126 140.48 48.126C140.96 48.126 141.2 48.372 141.2 48.864V56.37C141.2 56.874 140.966 57.126 140.498 57.126C140.018 57.126 139.778 56.874 139.778 56.37V55.524C139.502 56.052 139.112 56.46 138.608 56.748C138.116 57.024 137.558 57.162 136.934 57.162Z" fill="black"/>
</svg>
