<svg width="140" height="64" viewBox="0 0 140 64" fill="none" xmlns="http://www.w3.org/2000/svg">
<path d="M82.7599 0.0328369H59.2402C58.3896 0.0328369 57.5738 0.370741 56.9723 0.972215C56.3709 1.57369 56.033 2.38946 56.033 3.24007V26.7598C56.033 27.6104 56.3709 28.4262 56.9723 29.0277C57.5738 29.6291 58.3896 29.967 59.2402 29.967H68.4109V19.7901H64.2014V14.9999H68.4109V11.349C68.4109 7.19633 70.8831 4.90249 74.6697 4.90249C76.4831 4.90249 78.3794 5.22589 78.3794 5.22589V9.30175H76.29C74.2314 9.30175 73.5892 10.5793 73.5892 11.8896V14.9999H78.1849L77.45 19.7901H73.5892V29.967H82.7599C83.6105 29.967 84.4263 29.6291 85.0278 29.0277C85.6293 28.4262 85.9672 27.6104 85.9672 26.7598V3.24007C85.9672 2.38946 85.6293 1.57369 85.0278 0.972215C84.4263 0.370741 83.6105 0.0328369 82.7599 0.0328369Z" fill="#6491E9"/>
<path d="M5.91121 57.162C5.04721 57.162 4.23121 57.06 3.46321 56.856C2.70721 56.64 2.05321 56.328 1.50121 55.92C1.30921 55.788 1.19521 55.632 1.15921 55.452C1.12321 55.272 1.14121 55.104 1.21321 54.948C1.29721 54.792 1.41721 54.69 1.57321 54.642C1.72921 54.582 1.90921 54.618 2.11321 54.75C2.65321 55.146 3.22921 55.428 3.84121 55.596C4.45321 55.764 5.14321 55.848 5.91121 55.848C6.99121 55.848 7.78921 55.65 8.30521 55.254C8.83321 54.846 9.09721 54.312 9.09721 53.652C9.09721 53.124 8.90521 52.704 8.52121 52.392C8.14921 52.08 7.51921 51.834 6.63121 51.654L4.75921 51.276C3.63121 51.036 2.78521 50.646 2.22121 50.106C1.66921 49.554 1.39321 48.822 1.39321 47.91C1.39321 47.154 1.58521 46.494 1.96921 45.93C2.36521 45.366 2.91121 44.928 3.60721 44.616C4.30321 44.304 5.10721 44.148 6.01921 44.148C6.77521 44.148 7.47721 44.256 8.12521 44.472C8.78521 44.676 9.37921 44.988 9.90721 45.408C10.0752 45.54 10.1712 45.696 10.1952 45.876C10.2312 46.044 10.2072 46.2 10.1232 46.344C10.0392 46.488 9.91921 46.584 9.76321 46.632C9.60721 46.668 9.42121 46.62 9.20521 46.488C8.72521 46.116 8.22121 45.852 7.69321 45.696C7.17721 45.54 6.61321 45.462 6.00121 45.462C5.05321 45.462 4.29721 45.684 3.73321 46.128C3.16921 46.56 2.88721 47.136 2.88721 47.856C2.88721 48.432 3.06121 48.888 3.40921 49.224C3.76921 49.56 4.35121 49.806 5.15521 49.962L7.02721 50.358C8.23921 50.61 9.13321 50.994 9.70921 51.51C10.2972 52.014 10.5912 52.704 10.5912 53.58C10.5912 54.288 10.3992 54.912 10.0152 55.452C9.64321 55.992 9.10321 56.412 8.39521 56.712C7.69921 57.012 6.87121 57.162 5.91121 57.162ZM16.3194 57.162C15.4674 57.162 14.7294 56.976 14.1054 56.604C13.4814 56.232 12.9954 55.71 12.6474 55.038C12.3114 54.354 12.1434 53.55 12.1434 52.626C12.1434 51.702 12.3114 50.904 12.6474 50.232C12.9954 49.548 13.4814 49.02 14.1054 48.648C14.7294 48.276 15.4674 48.09 16.3194 48.09C17.1594 48.09 17.8914 48.276 18.5154 48.648C19.1514 49.02 19.6374 49.548 19.9734 50.232C20.3214 50.904 20.4954 51.702 20.4954 52.626C20.4954 53.55 20.3214 54.354 19.9734 55.038C19.6374 55.71 19.1514 56.232 18.5154 56.604C17.8914 56.976 17.1594 57.162 16.3194 57.162ZM16.3194 55.992C17.1354 55.992 17.7894 55.704 18.2814 55.128C18.7734 54.54 19.0194 53.706 19.0194 52.626C19.0194 51.534 18.7734 50.7 18.2814 50.124C17.7894 49.548 17.1354 49.26 16.3194 49.26C15.4914 49.26 14.8314 49.548 14.3394 50.124C13.8594 50.7 13.6194 51.534 13.6194 52.626C13.6194 53.706 13.8594 54.54 14.3394 55.128C14.8314 55.704 15.4914 55.992 16.3194 55.992ZM26.3934 57.162C25.5174 57.162 24.7614 56.976 24.1254 56.604C23.4894 56.22 22.9974 55.686 22.6494 55.002C22.3134 54.306 22.1454 53.496 22.1454 52.572C22.1454 51.18 22.5234 50.088 23.2794 49.296C24.0354 48.492 25.0734 48.09 26.3934 48.09C26.8254 48.09 27.2754 48.162 27.7434 48.306C28.2114 48.438 28.6374 48.66 29.0214 48.972C29.2254 49.116 29.3094 49.296 29.2734 49.512C29.2494 49.728 29.1474 49.89 28.9674 49.998C28.7994 50.106 28.6014 50.082 28.3734 49.926C28.0494 49.686 27.7254 49.518 27.4014 49.422C27.0894 49.326 26.7834 49.278 26.4834 49.278C25.5714 49.278 24.8694 49.566 24.3774 50.142C23.8854 50.706 23.6394 51.522 23.6394 52.59C23.6394 53.634 23.8854 54.462 24.3774 55.074C24.8694 55.674 25.5714 55.974 26.4834 55.974C26.7834 55.974 27.0894 55.926 27.4014 55.83C27.7254 55.734 28.0494 55.566 28.3734 55.326C28.6014 55.17 28.7994 55.152 28.9674 55.272C29.1354 55.38 29.2254 55.542 29.2374 55.758C29.2614 55.974 29.1774 56.148 28.9854 56.28C28.6014 56.592 28.1814 56.82 27.7254 56.964C27.2694 57.096 26.8254 57.162 26.3934 57.162ZM31.7374 46.146C31.1014 46.146 30.7834 45.846 30.7834 45.246C30.7834 44.658 31.1014 44.364 31.7374 44.364C32.3734 44.364 32.6914 44.658 32.6914 45.246C32.6914 45.846 32.3734 46.146 31.7374 46.146ZM31.7374 57.09C31.2574 57.09 31.0174 56.826 31.0174 56.298V48.936C31.0174 48.42 31.2574 48.162 31.7374 48.162C32.2294 48.162 32.4754 48.42 32.4754 48.936V56.298C32.4754 56.826 32.2294 57.09 31.7374 57.09ZM37.955 57.162C37.355 57.162 36.815 57.048 36.335 56.82C35.867 56.58 35.495 56.256 35.219 55.848C34.943 55.44 34.805 54.984 34.805 54.48C34.805 53.844 34.967 53.34 35.291 52.968C35.627 52.596 36.173 52.332 36.929 52.176C37.697 52.008 38.741 51.924 40.061 51.924H40.637V51.366C40.637 50.622 40.481 50.088 40.169 49.764C39.869 49.428 39.383 49.26 38.711 49.26C38.291 49.26 37.865 49.314 37.433 49.422C37.013 49.53 36.575 49.704 36.119 49.944C35.915 50.052 35.741 50.076 35.597 50.016C35.465 49.944 35.369 49.836 35.309 49.692C35.261 49.536 35.261 49.38 35.309 49.224C35.369 49.056 35.489 48.93 35.669 48.846C36.185 48.582 36.701 48.39 37.217 48.27C37.745 48.15 38.243 48.09 38.711 48.09C39.839 48.09 40.673 48.366 41.213 48.918C41.765 49.47 42.041 50.328 42.041 51.492V56.37C42.041 56.874 41.819 57.126 41.375 57.126C40.907 57.126 40.673 56.874 40.673 56.37V55.488C40.445 56.004 40.091 56.412 39.611 56.712C39.143 57.012 38.591 57.162 37.955 57.162ZM38.189 56.064C38.909 56.064 39.497 55.818 39.953 55.326C40.409 54.822 40.637 54.186 40.637 53.418V52.878H40.079C39.107 52.878 38.339 52.926 37.775 53.022C37.223 53.106 36.833 53.262 36.605 53.49C36.389 53.706 36.281 54.006 36.281 54.39C36.281 54.882 36.449 55.284 36.785 55.596C37.133 55.908 37.601 56.064 38.189 56.064ZM47.4099 57.162C46.5459 57.162 45.8859 56.904 45.4299 56.388C44.9739 55.86 44.7459 55.098 44.7459 54.102V44.922C44.7459 44.43 44.9859 44.184 45.4659 44.184C45.9579 44.184 46.2039 44.43 46.2039 44.922V53.994C46.2039 55.278 46.7139 55.92 47.7339 55.92C47.8419 55.92 47.9379 55.914 48.0219 55.902C48.1059 55.89 48.1899 55.884 48.2739 55.884C48.4059 55.872 48.4959 55.902 48.5439 55.974C48.6039 56.046 48.6339 56.19 48.6339 56.406C48.6339 56.814 48.4299 57.048 48.0219 57.108C47.9259 57.132 47.8239 57.144 47.7159 57.144C47.6079 57.156 47.5059 57.162 47.4099 57.162ZM55.6307 57.126C55.1747 57.126 54.9467 56.886 54.9467 56.406V44.904C54.9467 44.424 55.1747 44.184 55.6307 44.184C55.8227 44.184 55.9727 44.226 56.0807 44.31C56.2007 44.382 56.3087 44.508 56.4047 44.688L61.0667 53.472L65.7107 44.688C65.8067 44.508 65.9087 44.382 66.0167 44.31C66.1247 44.226 66.2807 44.184 66.4847 44.184C66.9287 44.184 67.1507 44.424 67.1507 44.904V56.406C67.1507 56.886 66.9227 57.126 66.4667 57.126C66.0107 57.126 65.7827 56.886 65.7827 56.406V47.082L61.7147 54.732C61.6307 54.888 61.5407 55.002 61.4447 55.074C61.3607 55.134 61.2347 55.164 61.0667 55.164C60.8987 55.164 60.7667 55.128 60.6707 55.056C60.5747 54.984 60.4907 54.876 60.4187 54.732L56.2967 47.1V56.406C56.2967 56.886 56.0747 57.126 55.6307 57.126ZM74.0532 57.162C72.6732 57.162 71.5812 56.76 70.7772 55.956C69.9732 55.14 69.5712 54.036 69.5712 52.644C69.5712 51.744 69.7512 50.952 70.1112 50.268C70.4712 49.572 70.9632 49.038 71.5872 48.666C72.2232 48.282 72.9552 48.09 73.7832 48.09C74.9712 48.09 75.9012 48.474 76.5732 49.242C77.2452 49.998 77.5812 51.042 77.5812 52.374C77.5812 52.746 77.3712 52.932 76.9512 52.932H70.9932C71.0412 53.928 71.3292 54.69 71.8572 55.218C72.3852 55.734 73.1172 55.992 74.0532 55.992C74.4492 55.992 74.8512 55.944 75.2592 55.848C75.6672 55.74 76.0632 55.554 76.4472 55.29C76.7232 55.11 76.9512 55.074 77.1312 55.182C77.3232 55.29 77.4192 55.458 77.4192 55.686C77.4312 55.902 77.3112 56.094 77.0592 56.262C76.6632 56.55 76.1892 56.772 75.6372 56.928C75.0972 57.084 74.5692 57.162 74.0532 57.162ZM73.8192 49.17C72.9912 49.17 72.3372 49.428 71.8572 49.944C71.3772 50.46 71.0952 51.138 71.0112 51.978H76.3212C76.2852 51.09 76.0512 50.4 75.6192 49.908C75.1992 49.416 74.5992 49.17 73.8192 49.17ZM83.0212 57.162C82.2412 57.162 81.5572 56.976 80.9692 56.604C80.3932 56.232 79.9432 55.71 79.6192 55.038C79.3072 54.354 79.1512 53.55 79.1512 52.626C79.1512 51.69 79.3072 50.886 79.6192 50.214C79.9432 49.53 80.3932 49.008 80.9692 48.648C81.5572 48.276 82.2412 48.09 83.0212 48.09C83.7052 48.09 84.3052 48.24 84.8212 48.54C85.3492 48.84 85.7392 49.254 85.9912 49.782V44.922C85.9912 44.43 86.2372 44.184 86.7292 44.184C87.2092 44.184 87.4492 44.43 87.4492 44.922V56.37C87.4492 56.874 87.2092 57.126 86.7292 57.126C86.2492 57.126 86.0092 56.874 86.0092 56.37V55.434C85.7452 55.974 85.3492 56.4 84.8212 56.712C84.3052 57.012 83.7052 57.162 83.0212 57.162ZM83.3272 55.992C84.1432 55.992 84.7972 55.704 85.2892 55.128C85.7812 54.54 86.0272 53.706 86.0272 52.626C86.0272 51.534 85.7812 50.7 85.2892 50.124C84.7972 49.548 84.1432 49.26 83.3272 49.26C82.4992 49.26 81.8392 49.548 81.3472 50.124C80.8672 50.7 80.6272 51.534 80.6272 52.626C80.6272 53.706 80.8672 54.54 81.3472 55.128C81.8392 55.704 82.4992 55.992 83.3272 55.992ZM90.9054 46.146C90.2694 46.146 89.9514 45.846 89.9514 45.246C89.9514 44.658 90.2694 44.364 90.9054 44.364C91.5414 44.364 91.8594 44.658 91.8594 45.246C91.8594 45.846 91.5414 46.146 90.9054 46.146ZM90.9054 57.09C90.4254 57.09 90.1854 56.826 90.1854 56.298V48.936C90.1854 48.42 90.4254 48.162 90.9054 48.162C91.3974 48.162 91.6434 48.42 91.6434 48.936V56.298C91.6434 56.826 91.3974 57.09 90.9054 57.09ZM97.123 57.162C96.523 57.162 95.983 57.048 95.503 56.82C95.035 56.58 94.663 56.256 94.387 55.848C94.111 55.44 93.973 54.984 93.973 54.48C93.973 53.844 94.135 53.34 94.459 52.968C94.795 52.596 95.341 52.332 96.097 52.176C96.865 52.008 97.909 51.924 99.229 51.924H99.805V51.366C99.805 50.622 99.649 50.088 99.337 49.764C99.037 49.428 98.551 49.26 97.879 49.26C97.459 49.26 97.033 49.314 96.601 49.422C96.181 49.53 95.743 49.704 95.287 49.944C95.083 50.052 94.909 50.076 94.765 50.016C94.633 49.944 94.537 49.836 94.477 49.692C94.429 49.536 94.429 49.38 94.477 49.224C94.537 49.056 94.657 48.93 94.837 48.846C95.353 48.582 95.869 48.39 96.385 48.27C96.913 48.15 97.411 48.09 97.879 48.09C99.007 48.09 99.841 48.366 100.381 48.918C100.933 49.47 101.209 50.328 101.209 51.492V56.37C101.209 56.874 100.987 57.126 100.543 57.126C100.075 57.126 99.841 56.874 99.841 56.37V55.488C99.613 56.004 99.259 56.412 98.779 56.712C98.311 57.012 97.759 57.162 97.123 57.162ZM97.357 56.064C98.077 56.064 98.665 55.818 99.121 55.326C99.577 54.822 99.805 54.186 99.805 53.418V52.878H99.247C98.275 52.878 97.507 52.926 96.943 53.022C96.391 53.106 96.001 53.262 95.773 53.49C95.557 53.706 95.449 54.006 95.449 54.39C95.449 54.882 95.617 55.284 95.953 55.596C96.301 55.908 96.769 56.064 97.357 56.064ZM109.275 46.146C108.639 46.146 108.321 45.846 108.321 45.246C108.321 44.658 108.639 44.364 109.275 44.364C109.911 44.364 110.229 44.658 110.229 45.246C110.229 45.846 109.911 46.146 109.275 46.146ZM109.275 57.09C108.795 57.09 108.555 56.826 108.555 56.298V48.936C108.555 48.42 108.795 48.162 109.275 48.162C109.767 48.162 110.013 48.42 110.013 48.936V56.298C110.013 56.826 109.767 57.09 109.275 57.09ZM116.446 57.162C115.57 57.162 114.814 56.976 114.178 56.604C113.542 56.22 113.05 55.686 112.702 55.002C112.366 54.306 112.198 53.496 112.198 52.572C112.198 51.18 112.576 50.088 113.332 49.296C114.088 48.492 115.126 48.09 116.446 48.09C116.878 48.09 117.328 48.162 117.796 48.306C118.264 48.438 118.69 48.66 119.074 48.972C119.278 49.116 119.362 49.296 119.326 49.512C119.302 49.728 119.2 49.89 119.02 49.998C118.852 50.106 118.654 50.082 118.426 49.926C118.102 49.686 117.778 49.518 117.454 49.422C117.142 49.326 116.836 49.278 116.536 49.278C115.624 49.278 114.922 49.566 114.43 50.142C113.938 50.706 113.692 51.522 113.692 52.59C113.692 53.634 113.938 54.462 114.43 55.074C114.922 55.674 115.624 55.974 116.536 55.974C116.836 55.974 117.142 55.926 117.454 55.83C117.778 55.734 118.102 55.566 118.426 55.326C118.654 55.17 118.852 55.152 119.02 55.272C119.188 55.38 119.278 55.542 119.29 55.758C119.314 55.974 119.23 56.148 119.038 56.28C118.654 56.592 118.234 56.82 117.778 56.964C117.322 57.096 116.878 57.162 116.446 57.162ZM124.53 57.162C123.678 57.162 122.94 56.976 122.316 56.604C121.692 56.232 121.206 55.71 120.858 55.038C120.522 54.354 120.354 53.55 120.354 52.626C120.354 51.702 120.522 50.904 120.858 50.232C121.206 49.548 121.692 49.02 122.316 48.648C122.94 48.276 123.678 48.09 124.53 48.09C125.37 48.09 126.102 48.276 126.726 48.648C127.362 49.02 127.848 49.548 128.184 50.232C128.532 50.904 128.706 51.702 128.706 52.626C128.706 53.55 128.532 54.354 128.184 55.038C127.848 55.71 127.362 56.232 126.726 56.604C126.102 56.976 125.37 57.162 124.53 57.162ZM124.53 55.992C125.346 55.992 126 55.704 126.492 55.128C126.984 54.54 127.23 53.706 127.23 52.626C127.23 51.534 126.984 50.7 126.492 50.124C126 49.548 125.346 49.26 124.53 49.26C123.702 49.26 123.042 49.548 122.55 50.124C122.07 50.7 121.83 51.534 121.83 52.626C121.83 53.706 122.07 54.54 122.55 55.128C123.042 55.704 123.702 55.992 124.53 55.992ZM131.616 57.126C131.136 57.126 130.896 56.874 130.896 56.37V48.864C130.896 48.372 131.13 48.126 131.598 48.126C132.078 48.126 132.318 48.372 132.318 48.864V49.746C132.606 49.194 133.014 48.78 133.542 48.504C134.07 48.228 134.664 48.09 135.324 48.09C137.4 48.09 138.438 49.242 138.438 51.546V56.37C138.438 56.874 138.198 57.126 137.718 57.126C137.226 57.126 136.98 56.874 136.98 56.37V51.636C136.98 50.82 136.818 50.226 136.494 49.854C136.182 49.47 135.678 49.278 134.982 49.278C134.178 49.278 133.536 49.53 133.056 50.034C132.588 50.526 132.354 51.186 132.354 52.014V56.37C132.354 56.874 132.108 57.126 131.616 57.126Z" fill="black"/>
</svg>
