<svg width="20" height="20" viewBox="0 0 20 20" fill="none" xmlns="http://www.w3.org/2000/svg">
<path d="M4.04555 4.04547L4.04548 4.04554C3.79239 4.2987 3.65021 4.64202 3.65021 4.99999C3.65021 5.35796 3.79239 5.70128 4.04548 5.95444L4.04551 5.95448L8.09103 9.99999L4.04551 14.0455L4.04548 14.0455L4.04125 14.0498C3.79534 14.3045 3.65926 14.6455 3.66234 14.9994C3.66541 15.3534 3.80739 15.692 4.05769 15.9423C4.308 16.1926 4.64659 16.3346 5.00056 16.3377C5.35452 16.3407 5.69554 16.2047 5.95015 15.9587L5.95019 15.9588L5.95449 15.9545L10 11.909L14.0455 15.9545L14.0455 15.9545L14.0499 15.9587C14.3045 16.2047 14.6455 16.3407 14.9994 16.3377C15.3534 16.3346 15.692 16.1926 15.9423 15.9423C16.1926 15.692 16.3346 15.3534 16.3377 14.9994C16.3407 14.6455 16.2047 14.3045 15.9588 14.0498L15.9588 14.0498L15.9545 14.0455L11.909 9.99999L15.9525 5.95647C16.0803 5.8324 16.1824 5.68424 16.2527 5.52054C16.3234 5.35583 16.3607 5.17868 16.3622 4.99943C16.3638 4.82018 16.3296 4.64241 16.2618 4.4765C16.1939 4.31059 16.0936 4.15986 15.9669 4.03311C15.8401 3.90635 15.6894 3.80611 15.5235 3.73823C15.3576 3.67035 15.1798 3.63619 15.0006 3.63775C14.8213 3.63931 14.6442 3.67655 14.4795 3.7473C14.3157 3.81763 14.1676 3.91966 14.0435 4.04751L10 8.09101L5.95449 4.0455L5.95445 4.04547C5.70129 3.79238 5.35797 3.6502 5 3.6502C4.64203 3.6502 4.29871 3.79238 4.04555 4.04547Z" fill="#9A9A9A" stroke="#9A9A9A" stroke-width="0.7"/>
</svg>
