<svg width="146" height="162" viewBox="0 0 146 162" fill="none" xmlns="http://www.w3.org/2000/svg">
<path d="M33.3 32.8964C33.2446 32.4364 33.0782 31.9967 32.8151 31.6152C32.5521 31.2337 32.2003 30.9218 31.79 30.7064C28.9732 29.2062 25.8314 28.4199 22.64 28.4164C19.4638 28.4264 16.3364 29.198 13.52 30.6664C10.6455 32.1659 8.18647 34.353 6.36187 37.0329C4.53726 39.7128 3.40372 42.8024 3.06221 46.0264C2.72071 49.2505 3.18183 52.5089 4.4045 55.5116C5.62717 58.5143 7.57344 61.168 10.07 63.2364C10.4431 63.5488 10.8866 63.7657 11.3622 63.8685C11.8378 63.9713 12.3312 63.9569 12.8 63.8264C13.2608 63.7019 13.6841 63.4664 14.0328 63.1404C14.3814 62.8144 14.6449 62.4079 14.8 61.9564C18.4177 51.8515 24.4331 42.7752 32.33 35.5065C32.6906 35.1822 32.9672 34.7753 33.1362 34.3208C33.3051 33.8662 33.3613 33.3775 33.3 32.8964Z" fill="#FFAB4D"/>
<path d="M32.73 28.9365C27.9909 26.4471 22.4981 25.8 17.3102 27.1198C12.1224 28.4396 7.60658 31.6328 4.63318 36.0842C1.65979 40.5356 0.43925 45.9301 1.20678 51.2279C1.97431 56.5257 4.67557 61.3519 8.79 64.7765C9.69559 65.5261 10.8344 65.9364 12.01 65.9365C13.0388 65.9353 14.0421 65.6168 14.8833 65.0244C15.7244 64.4321 16.3623 63.5947 16.71 62.6265C20.215 52.8255 26.049 44.0229 33.71 36.9765C34.3029 36.4334 34.7561 35.7553 35.0312 34.9998C35.3062 34.2443 35.395 33.4336 35.29 32.6364C35.1939 31.8588 34.9109 31.116 34.465 30.4716C34.0192 29.8273 33.4239 29.3005 32.73 28.9365V28.9365ZM14.82 61.9365C14.6649 62.3879 14.4015 62.7944 14.0528 63.1204C13.7041 63.4464 13.2808 63.682 12.82 63.8065C12.3512 63.9369 11.8578 63.9513 11.3821 63.8485C10.9065 63.7458 10.4631 63.5288 10.09 63.2165C7.59345 61.1481 5.64716 58.4943 4.42449 55.4916C3.20182 52.4889 2.74071 49.2305 3.08222 46.0064C3.42373 42.7824 4.55727 39.6928 6.38187 37.0129C8.20648 34.333 10.6655 32.1459 13.54 30.6465C16.3563 29.178 19.4838 28.4064 22.66 28.3965C25.8514 28.3999 28.9932 29.1863 31.81 30.6865C32.2203 30.9019 32.5721 31.2137 32.8351 31.5952C33.0981 31.9767 33.2646 32.4164 33.32 32.8765C33.3777 33.36 33.3168 33.8503 33.1425 34.305C32.9683 34.7598 32.686 35.1652 32.32 35.4865C24.4313 42.7642 18.4262 51.8474 14.82 61.9565V61.9365Z" fill="black"/>
<path d="M94.55 2.02645C92.7846 2.02763 91.0279 2.2733 89.33 2.75645C86.4864 3.5493 83.859 4.97486 81.6441 6.92649C79.4293 8.87812 77.6844 11.3053 76.54 14.0265C76.3381 14.4831 76.2534 14.9829 76.2936 15.4806C76.3338 15.9783 76.4975 16.4581 76.77 16.8765C77.0258 17.28 77.3763 17.6149 77.7911 17.8519C78.206 18.089 78.6725 18.221 79.15 18.2365C89.863 18.6271 100.322 21.6089 109.63 26.9264C110.056 27.1731 110.536 27.3113 111.028 27.3287C111.519 27.3461 112.008 27.2423 112.45 27.0265C112.888 26.8175 113.269 26.5055 113.56 26.1171C113.85 25.7287 114.043 25.2755 114.12 24.7965V24.7965C114.57 21.9745 114.401 19.0884 113.622 16.3387C112.844 13.5891 111.476 11.0421 109.613 8.87489C107.751 6.70769 105.438 4.97236 102.837 3.78965C100.235 2.60694 97.4076 2.00525 94.55 2.02645Z" fill="#FFA44B"/>
<path d="M114.15 12.1664C111.902 7.61946 108.142 3.99623 103.515 1.91806C98.888 -0.160099 93.6821 -0.56371 88.79 0.776448C85.6534 1.65485 82.756 3.23093 80.3143 5.38686C77.8727 7.54279 75.95 10.2228 74.69 13.2264C74.3701 13.9847 74.2386 14.8092 74.3065 15.6294C74.3744 16.4495 74.6398 17.2411 75.08 17.9365C75.5089 18.6151 76.098 19.178 76.7955 19.5755C77.493 19.9731 78.2775 20.1932 79.08 20.2164C89.4706 20.5913 99.6147 23.4842 108.64 28.6464C109.341 29.0459 110.128 29.2697 110.935 29.2988C111.741 29.3279 112.542 29.1615 113.27 28.8136C113.999 28.4658 114.632 27.947 115.116 27.3015C115.6 26.6559 115.92 25.9028 116.05 25.1064C116.767 20.7004 116.103 16.1804 114.15 12.1664V12.1664ZM114.08 24.7864C114.008 25.2633 113.823 25.7159 113.539 26.1059C113.255 26.4958 112.882 26.8116 112.45 27.0264C112.012 27.234 111.531 27.3323 111.046 27.3132C110.562 27.294 110.09 27.1579 109.67 26.9164C100.362 21.5989 89.903 18.6171 79.19 18.2264C78.7125 18.211 78.246 18.079 77.8312 17.8419C77.4163 17.6049 77.0657 17.27 76.81 16.8664C76.5375 16.4481 76.3738 15.9683 76.3336 15.4706C76.2935 14.9729 76.3781 14.4731 76.58 14.0165C77.7207 11.2897 79.464 8.8566 81.679 6.89959C83.8941 4.94258 86.5235 3.51246 89.37 2.71645C91.068 2.2333 92.8247 1.98764 94.59 1.98645C97.4482 1.97014 100.276 2.57689 102.875 3.7645C105.475 4.95211 107.785 6.69203 109.644 8.86315C111.503 11.0343 112.866 13.5844 113.639 16.3361C114.412 19.0878 114.576 21.9749 114.12 24.7965L114.08 24.7864Z" fill="black"/>
<path d="M141.16 115.706L128.66 109.926L129.1 109.016C134.055 98.6487 135.813 87.0406 134.149 75.6706C132.486 64.3005 127.476 53.6828 119.758 45.1695C112.039 36.6562 101.962 30.6325 90.8092 27.8654C79.6561 25.0984 67.9319 25.7132 57.1295 29.6316C46.327 33.55 36.9351 40.5946 30.1496 49.8685C23.3642 59.1424 19.4923 70.2259 19.0269 81.7076C18.5616 93.1893 21.5238 104.55 27.5364 114.342C33.5491 124.135 42.3401 131.917 52.79 136.696L53.7 137.116L47.7 150.046C47.1815 151.182 47.1321 152.477 47.5628 153.649C47.9935 154.822 48.8693 155.776 50 156.306L55.18 158.696C56.316 159.215 57.6107 159.264 58.7829 158.834C59.9551 158.403 60.9099 157.527 61.44 156.396L68.44 141.346L69.18 141.446C78.5232 142.714 88.0345 141.684 96.89 138.446C105.586 135.273 113.38 130.032 119.6 123.176L120.1 122.636L134.84 129.456C135.976 129.975 137.271 130.024 138.443 129.594C139.615 129.163 140.57 128.287 141.1 127.156L143.49 121.976C144.009 120.84 144.058 119.546 143.627 118.374C143.196 117.201 142.321 116.247 141.19 115.716L141.16 115.706ZM119.65 101.566L119.42 102.126C115.393 111.7 108.245 119.629 99.1385 124.623C90.0322 129.617 79.5038 131.383 69.2665 129.633C59.0291 127.882 49.6853 122.719 42.7555 114.983C35.8257 107.247 31.7177 97.3939 31.1 87.0264V85.8564C30.8775 78.4055 32.4644 71.0118 35.7246 64.3083C38.9849 57.6049 43.8215 51.7917 49.82 47.3664L51.31 46.2864C54.3899 44.234 57.7032 42.5555 61.18 41.2864C68.8581 38.4754 77.1458 37.758 85.1927 39.2078C93.2396 40.6576 100.756 44.2225 106.97 49.5364L108.19 50.6464C115.054 56.9643 119.83 65.2234 121.883 74.3237C123.936 83.424 123.167 92.9337 119.68 101.586L119.65 101.566Z" fill="#FF6C37"/>
<path d="M145.45 117.676C145.149 116.848 144.686 116.087 144.089 115.438C143.491 114.789 142.771 114.265 141.97 113.896L131.3 108.956C136.205 98.2252 137.83 86.284 135.972 74.6321C134.113 62.9803 128.854 52.1372 120.854 43.4642C112.854 34.7913 102.47 28.6751 91.006 25.8836C79.5419 23.0921 67.5085 23.7497 56.4169 27.7739C45.3252 31.7981 35.6696 39.0094 28.6624 48.5025C21.6552 57.9956 17.6088 69.3473 17.0311 81.1322C16.4535 92.9172 19.3704 104.61 25.4157 114.743C31.4609 124.876 40.365 132.997 51.01 138.086L45.87 149.206C45.1295 150.824 45.0577 152.669 45.67 154.339C46.2824 156.01 47.5294 157.371 49.14 158.126L54.32 160.516C55.1192 160.888 55.9842 161.097 56.8649 161.131C57.7456 161.166 58.6243 161.025 59.45 160.716C60.2797 160.417 61.0412 159.954 61.6902 159.357C62.3393 158.759 62.8627 158.038 63.23 157.236L69.58 143.526C79.0169 144.682 88.5933 143.578 97.52 140.306C106.284 137.113 114.167 131.886 120.52 125.056L133.94 131.256C135.556 131.997 137.399 132.068 139.068 131.456C140.737 130.843 142.096 129.596 142.85 127.986L145.25 122.806C145.621 122.007 145.83 121.142 145.864 120.261C145.899 119.381 145.758 118.502 145.45 117.676V117.676ZM143.45 121.966L141.06 127.146C140.53 128.277 139.575 129.153 138.403 129.584C137.231 130.014 135.936 129.965 134.8 129.446L120.06 122.626L119.56 123.166C113.34 130.022 105.546 135.263 96.85 138.436C87.9945 141.674 78.4832 142.704 69.14 141.436L68.4 141.336L61.4 156.386C60.8699 157.517 59.9151 158.393 58.7429 158.824C57.5708 159.254 56.276 159.205 55.14 158.686L49.96 156.296C48.8293 155.766 47.9535 154.811 47.5229 153.639C47.0922 152.467 47.1415 151.172 47.66 150.036L53.66 137.106L52.75 136.686C42.3021 131.9 33.5149 124.113 27.5071 114.316C21.4994 104.519 18.5428 93.1561 19.014 81.6737C19.4852 70.1912 23.3627 59.1086 30.1529 49.837C36.943 40.5654 46.3388 33.5241 57.1437 29.6097C67.9486 25.6953 79.674 25.0848 90.8271 27.856C101.98 30.6272 112.056 36.6546 119.773 45.171C127.489 53.6873 132.496 64.3072 134.157 75.6787C135.818 87.0502 134.058 98.6588 129.1 109.026L128.66 109.936L141.16 115.716C142.291 116.247 143.166 117.201 143.597 118.374C144.028 119.546 143.979 120.84 143.46 121.976L143.45 121.966Z" fill="black"/>
<path d="M104.31 81.9065C101.23 73.5365 89.39 74.6165 89.31 74.6265H89.19C88.57 74.6265 73.8 74.2964 71.5 67.0464C70.14 62.7464 72.17 58.8264 73.8 55.6764C74.14 55.0364 74.46 54.4165 74.74 53.8165C76.04 51.0365 80.05 50.2965 83.22 50.8165C84.886 51.1165 86.5324 51.5172 88.15 52.0164C92.23 53.1764 96.44 54.3765 99.85 52.4365C101.65 51.4365 103.18 50.6065 104.43 50.0265C97.3263 44.3782 88.6497 41.0648 79.5894 40.5403C70.529 40.0158 61.5281 42.3057 53.82 47.0965C54.7173 47.7271 55.3955 48.622 55.76 49.6565C56.4 51.5565 55.93 53.8765 54.37 56.5565C53.55 57.9565 53.22 59.0565 53.37 59.7265C53.52 60.3965 54.16 60.7264 55.15 61.2364C56.14 61.7464 57.36 62.4065 57.67 63.7565C57.93 64.9265 57.44 66.3065 56.12 68.1165C52.25 73.4165 38.92 86.4965 33.12 87.8965C33.7366 95.6799 36.4131 103.159 40.8751 109.566C45.337 115.974 51.4236 121.078 58.51 124.356C61.4585 125.721 64.5466 126.76 67.72 127.456C66.72 126.256 65.98 124.176 66.29 120.586C66.93 113.126 65.07 112.376 63.43 111.716L63.13 111.596C62.3713 111.249 61.6563 110.812 61 110.296C59.272 109.025 57.4151 107.939 55.46 107.056C46.79 103.056 46.11 99.0565 47.07 96.3365C48.76 91.6165 56.77 88.4965 59.68 89.2465C61.85 89.8065 63.68 88.8365 66.07 87.6165C67.5851 86.7712 69.1752 86.0682 70.82 85.5164C73.92 84.5164 74.82 85.9165 75.72 87.3465C76.9424 89.4035 78.8619 90.954 81.13 91.7165C85.77 93.5665 87.78 98.5565 86.93 106.156C86.8771 106.845 86.6607 107.51 86.299 108.098C85.9372 108.686 85.4405 109.179 84.85 109.536C83.71 110.386 82.41 111.346 82.27 116.736C82.1501 119.104 81.4265 121.402 80.168 123.412C78.9096 125.421 77.158 127.075 75.08 128.216L74.73 128.386C83.6814 128.831 92.5556 126.536 100.17 121.809C107.784 117.082 113.777 110.146 117.35 101.926C113.37 97.1464 106.77 88.6165 104.31 81.9065Z" fill="#AFE2E3"/>
<path d="M120.16 68.5665C117.639 61.7194 113.526 55.5701 108.16 50.6265L106.94 49.5164C100.726 44.2025 93.2096 40.6376 85.1627 39.1878C77.1158 37.738 68.8281 38.4554 61.15 41.2664C57.6732 42.5355 54.3599 44.214 51.28 46.2664L49.79 47.3465C43.7915 51.7717 38.9549 57.585 35.6947 64.2884C32.4344 70.9918 30.8475 78.3856 31.07 85.8365V87.0065C31.6528 97.4011 35.7444 107.291 42.6761 115.059C49.6078 122.826 58.9694 128.013 69.2309 129.771C79.4925 131.529 90.0468 129.754 99.1687 124.736C108.291 119.718 115.441 111.754 119.45 102.146L119.68 101.586C123.944 91.0232 124.116 79.2492 120.16 68.5665V68.5665ZM51.95 48.2964C52.8124 48.6908 53.4844 49.4095 53.82 50.2964C54.27 51.6164 53.82 53.3764 52.6 55.5464C51.46 57.4964 51.09 58.9964 51.45 60.2664C51.6952 60.8871 52.0674 61.4496 52.5427 61.918C53.018 62.3864 53.5859 62.7503 54.21 62.9864C54.93 63.3764 55.61 63.7365 55.72 64.1965C55.79 64.4965 55.72 65.2565 54.51 66.9265C49.75 73.4465 37.4 84.5865 33.07 85.8765C32.8398 78.5359 34.446 71.254 37.743 64.6915C41.0399 58.129 45.9233 52.4935 51.95 48.2964V48.2964ZM69.9 126.716C68.63 125.866 68.07 123.716 68.32 120.716C69.03 112.466 66.78 110.856 64.21 109.826L63.94 109.716C63.3227 109.416 62.7394 109.051 62.2 108.626C60.3714 107.282 58.4075 106.133 56.34 105.196C52.34 103.336 47.77 100.396 48.99 96.9765C50.33 93.2465 57.36 90.6665 59.22 91.1465C62.13 91.8965 64.51 90.6565 67.03 89.3465C68.4402 88.5619 69.9198 87.9091 71.45 87.3965C73.1 86.8765 73.25 87.1165 74.08 88.3965C75.5198 90.8089 77.7706 92.6308 80.43 93.5365C85.12 95.4065 85.5 101.286 84.98 105.896C84.9575 106.312 84.8277 106.715 84.6034 107.065C84.3791 107.416 84.0679 107.702 83.7 107.896C81.94 109.216 80.47 110.776 80.31 116.656C80.2092 118.668 79.5948 120.621 78.5252 122.327C77.4556 124.034 75.9665 125.439 74.2 126.406C72.5 127.296 70.93 127.406 69.9 126.716ZM92.18 125.716C86.6169 127.774 80.6942 128.683 74.77 128.386L75.12 128.216C77.1981 127.075 78.9496 125.421 80.208 123.412C81.4665 121.402 82.1901 119.104 82.31 116.736C82.45 111.346 83.75 110.386 84.89 109.536C85.4805 109.179 85.9772 108.686 86.339 108.098C86.7007 107.51 86.917 106.845 86.97 106.156C87.82 98.5565 85.81 93.5665 81.17 91.7165C78.9019 90.954 76.9824 89.4035 75.76 87.3465C74.83 85.9165 73.96 84.5664 70.86 85.5164C69.2152 86.0682 67.6251 86.7712 66.11 87.6165C63.75 88.8365 61.89 89.8065 59.72 89.2465C56.81 88.4965 48.8 91.6165 47.11 96.3365C46.11 99.0165 46.83 103.046 55.5 107.056C57.4551 107.939 59.312 109.025 61.04 110.296C61.6963 110.812 62.4113 111.249 63.17 111.596L63.47 111.716C65.11 112.376 66.97 113.126 66.33 120.586C66.02 124.176 66.79 126.256 67.76 127.456C64.5866 126.76 61.4985 125.721 58.55 124.356C51.4636 121.078 45.377 115.974 40.9151 109.566C36.4532 103.159 33.7765 95.6799 33.16 87.8965C38.92 86.4965 52.25 73.4165 56.16 68.1165C57.48 66.3065 57.97 64.9265 57.71 63.7565C57.4 62.4065 56.23 61.7564 55.19 61.2364C54.15 60.7164 53.59 60.3365 53.41 59.7265C53.23 59.1165 53.55 57.9565 54.41 56.5565C55.97 53.8765 56.41 51.5565 55.8 49.6565C55.4355 48.622 54.7573 47.7271 53.86 47.0965C61.5597 42.3238 70.5448 40.044 79.5885 40.5684C88.6322 41.0928 97.2936 44.3958 104.39 50.0265C103.14 50.6065 101.61 51.4165 99.81 52.4365C96.4 54.3765 92.19 53.1764 88.11 52.0164C86.4924 51.5172 84.8461 51.1165 83.18 50.8165C80.01 50.3165 76 51.0565 74.7 53.8165C74.42 54.4165 74.1 55.0365 73.76 55.6765C72.13 58.8265 70.1 62.7464 71.46 67.0464C73.76 74.2964 88.53 74.6165 89.15 74.6265H89.27C89.39 74.6265 101.27 73.5365 104.27 81.9065C106.73 88.6165 113.33 97.1465 117.27 101.906C114.904 107.356 111.463 112.272 107.151 116.36C102.84 120.448 97.7479 123.624 92.18 125.696V125.716ZM118.18 99.8264C114.69 95.5664 108.44 87.4264 106.18 81.2364C102.65 71.6464 90.24 72.5465 89.12 72.6465C85.2 72.5765 74.9 71.3265 73.36 66.4665C72.25 62.9565 73.99 59.5865 75.53 56.6165C75.88 55.9465 76.21 55.3065 76.53 54.6865C77.34 52.9365 80.42 52.4064 82.9 52.7964C84.485 53.0809 86.0513 53.4616 87.59 53.9365C91.85 55.1565 96.67 56.5364 100.82 54.1764C102.529 53.1736 104.291 52.2656 106.1 51.4564C112.786 57.3394 117.526 65.116 119.69 73.7546C121.855 82.3933 121.342 91.4859 118.22 99.8264H118.18Z" fill="black"/>
<path d="M54.51 66.9165C49.74 73.4465 37.36 84.5865 33.05 85.9165C32.8192 78.5734 34.4261 71.2889 37.7249 64.7244C41.0238 58.1599 45.91 52.5233 51.94 48.3264C52.8043 48.7214 53.4792 49.4394 53.82 50.3264C54.27 51.6464 53.82 53.4064 52.6 55.5764C51.46 57.5264 51.09 59.0264 51.45 60.2964C51.6952 60.9171 52.0674 61.4796 52.5427 61.948C53.018 62.4164 53.5859 62.7803 54.21 63.0164C54.93 63.4064 55.61 63.7665 55.72 64.2265C55.79 64.4865 55.72 65.2465 54.51 66.9165ZM84.98 105.916C85.5 101.306 85.12 95.4265 80.43 93.5565C77.7705 92.6508 75.5198 90.8289 74.08 88.4165C73.25 87.1365 73.08 86.8965 71.45 87.4165C69.9198 87.9291 68.4402 88.5819 67.03 89.3665C64.51 90.6765 62.13 91.9165 59.22 91.1665C59.0399 91.1234 58.8551 91.1032 58.67 91.1064C56.26 91.1064 50.22 93.5665 48.99 96.9965C47.76 100.426 52.31 103.356 56.34 105.216C58.4074 106.153 60.3714 107.302 62.2 108.646C62.7394 109.071 63.3227 109.436 63.94 109.736L64.21 109.846C66.78 110.846 69.03 112.486 68.32 120.736C68.07 123.736 68.63 125.866 69.9 126.736C70.9 127.426 72.5 127.316 74.2 126.436C75.9665 125.469 77.4555 124.064 78.5252 122.357C79.5948 120.651 80.2092 118.698 80.31 116.686C80.47 110.806 81.94 109.246 83.7 107.926C84.0693 107.731 84.3814 107.443 84.6058 107.091C84.8302 106.738 84.9591 106.334 84.98 105.916ZM118.2 99.8165C121.316 91.4728 121.827 82.3798 119.665 73.7396C117.503 65.0994 112.769 57.3188 106.09 51.4265C104.279 52.2418 102.514 53.1532 100.8 54.1565C96.65 56.5165 91.8 55.1565 87.57 53.9165C86.0312 53.4416 84.465 53.0609 82.88 52.7765C80.4 52.3865 77.32 52.9165 76.51 54.6665C76.22 55.2865 75.89 55.9265 75.51 56.5965C73.97 59.5965 72.23 62.9365 73.34 66.4465C74.88 71.3065 85.18 72.5565 89.1 72.6265C89.31 72.6265 89.93 72.5665 90.82 72.5665C94.61 72.5665 103.3 73.4465 106.16 81.2165C108.45 87.4065 114.71 95.5565 118.2 99.8165V99.8165Z" fill="#70D44B"/>
</svg>
