<svg width="146" height="162" viewBox="0 0 146 162" fill="none" xmlns="http://www.w3.org/2000/svg">
<path d="M33.04 32.8901C32.9857 32.4322 32.8208 31.9945 32.5594 31.6147C32.2981 31.2349 31.9482 30.9244 31.54 30.7101C28.7199 29.2079 25.5752 28.4183 22.38 28.4101C19.203 28.4235 16.0756 29.1985 13.26 30.6701C10.3875 32.1713 7.93041 34.3592 6.10733 37.0391C4.28425 39.7189 3.15166 42.8078 2.81024 46.0309C2.46883 49.2541 2.92917 52.5116 4.15036 55.514C5.37155 58.5163 7.31572 61.1703 9.81 63.2401C10.1807 63.5524 10.6216 63.7703 11.0949 63.8751C11.5683 63.9798 12.0599 63.9683 12.5278 63.8415C12.9957 63.7147 13.4259 63.4764 13.7815 63.147C14.1372 62.8176 14.4077 62.4069 14.57 61.9501C18.1805 51.8469 24.1932 42.773 32.09 35.5101C32.4445 35.1798 32.7154 34.77 32.8806 34.3145C33.0457 33.859 33.1004 33.3708 33.04 32.8901V32.8901Z" fill="#B6B6B6"/>
<path d="M32.45 28.9401C27.71 26.4321 22.2082 25.7716 17.0093 27.0864C11.8104 28.4012 7.28403 31.5979 4.30624 36.0577C1.32845 40.5175 0.110942 45.9235 0.88934 51.2293C1.66774 56.5351 4.38669 61.3635 8.52002 64.7801C9.13921 65.302 9.87589 65.6656 10.6667 65.8398C11.4575 66.014 12.2788 65.9935 13.06 65.7801C13.8342 65.5724 14.5459 65.1787 15.1333 64.6331C15.7206 64.0876 16.1658 63.4069 16.43 62.6501C19.9389 52.854 25.7725 44.0556 33.43 37.0101C34.0244 36.466 34.4785 35.7863 34.7536 35.0289C35.0287 34.2715 35.1167 33.4588 35.01 32.6601C34.9195 31.8782 34.6389 31.1302 34.1926 30.4818C33.7463 29.8333 33.148 29.304 32.45 28.9401V28.9401ZM14.55 61.9401C14.3877 62.3969 14.1172 62.8076 13.7615 63.137C13.4059 63.4664 12.9757 63.7047 12.5078 63.8315C12.0399 63.9583 11.5482 63.9698 11.0749 63.8651C10.6016 63.7603 10.1607 63.5425 9.79 63.2301C7.29572 61.1604 5.35155 58.5063 4.13037 55.504C2.90918 52.5017 2.44883 49.2441 2.79025 46.0209C3.13166 42.7978 4.26426 39.7089 6.08734 37.0291C7.91041 34.3492 10.3675 32.1614 13.24 30.6601C16.0556 29.1885 19.1831 28.4135 22.36 28.4001C25.5552 28.4083 28.6999 29.1979 31.52 30.7001C31.9282 30.9144 32.2781 31.2249 32.5394 31.6047C32.8008 31.9845 32.9657 32.4223 33.02 32.8801C33.0804 33.3609 33.0258 33.849 32.8606 34.3045C32.6954 34.76 32.4245 35.1698 32.07 35.5001C24.1791 42.7681 18.1733 51.8454 14.57 61.9501L14.55 61.9401Z" fill="black"/>
<path d="M94.29 1.98012C92.5251 1.97779 90.7684 2.2201 89.07 2.70012C86.2235 3.49613 83.5941 4.92625 81.379 6.88326C79.164 8.84027 77.4207 11.2734 76.28 14.0001C76.0781 14.4568 75.9935 14.9566 76.0336 15.4543C76.0738 15.952 76.2375 16.4317 76.51 16.8501C76.7647 17.2569 77.1164 17.594 77.5336 17.8314C77.9507 18.0688 78.4202 18.1989 78.9 18.2101C89.6142 18.6019 100.073 21.5873 109.38 26.9101C109.801 27.1485 110.273 27.2817 110.757 27.2981C111.24 27.3146 111.72 27.2139 112.156 27.0047C112.592 26.7955 112.971 26.4839 113.261 26.0966C113.551 25.7092 113.743 25.2576 113.82 24.7801C114.457 20.7983 113.853 16.7168 112.09 13.0901C110.457 9.76035 107.924 6.95462 104.778 4.99097C101.632 3.02732 97.9986 1.98429 94.29 1.98012Z" fill="#B6B6B6"/>
<path d="M113.89 12.1701C111.645 7.6205 107.886 3.99489 103.258 1.9163C98.6295 -0.162278 93.4221 -0.564021 88.53 0.780104C85.3971 1.66116 82.5036 3.23844 80.0656 5.39422C77.6276 7.55001 75.708 10.2286 74.45 13.2301C74.13 13.9871 73.9992 14.8107 74.0689 15.6296C74.1386 16.4485 74.4067 17.2381 74.85 17.9301C75.2783 18.6093 75.8673 19.1727 76.5649 19.5703C77.2625 19.968 78.0473 20.1877 78.85 20.2101C89.2364 20.5913 99.3758 23.4839 108.4 28.6401C109.155 29.0721 110.01 29.2996 110.88 29.3001C111.623 29.2996 112.357 29.1358 113.03 28.8201C113.76 28.4712 114.394 27.9504 114.878 27.3024C115.362 26.6545 115.682 25.8988 115.81 25.1001C116.521 20.6952 115.85 16.1784 113.89 12.1701V12.1701ZM113.82 24.7801C113.743 25.2576 113.551 25.7092 113.261 26.0966C112.971 26.4839 112.592 26.7955 112.156 27.0047C111.72 27.2139 111.24 27.3146 110.757 27.2981C110.273 27.2816 109.801 27.1485 109.38 26.9101C100.073 21.5872 89.6142 18.6018 78.9 18.2101C78.4202 18.1989 77.9507 18.0687 77.5336 17.8314C77.1165 17.594 76.7647 17.2568 76.51 16.8501C76.2375 16.4317 76.0738 15.9519 76.0336 15.4543C75.9935 14.9566 76.0782 14.4568 76.28 14.0001C77.4207 11.2734 79.164 8.84025 81.379 6.88324C83.5941 4.92623 86.2235 3.49611 89.07 2.7001C90.7684 2.22008 92.5251 1.97777 94.29 1.9801C97.9986 1.98427 101.632 3.0273 104.778 4.99095C107.924 6.9546 110.457 9.76033 112.09 13.0901C113.853 16.7168 114.457 20.7982 113.82 24.7801V24.7801Z" fill="black"/>
<path d="M140.9 115.71L128.45 109.92L128.89 109.01C133.842 98.6441 135.598 87.0387 133.933 75.6716C132.269 64.3045 127.259 53.69 119.542 45.1794C111.825 36.6688 101.75 30.6473 90.5992 27.8814C79.4488 25.1155 67.7275 25.7304 56.9277 29.6479C46.1279 33.5653 36.7381 40.608 29.954 49.8793C23.1698 59.1506 19.2981 70.2311 18.8319 81.71C18.3657 93.1888 21.326 104.547 27.3359 114.338C33.3458 124.129 42.1335 131.91 52.58 136.69L53.49 137.11L47.45 150.09C46.9315 151.226 46.8822 152.521 47.3128 153.693C47.7435 154.865 48.6193 155.82 49.75 156.35L54.92 158.74C56.0557 159.261 57.3515 159.312 58.5244 158.881C59.6973 158.45 60.652 157.573 61.18 156.44L68.18 141.38L68.91 141.48C78.2531 142.759 87.7671 141.729 96.62 138.48C105.32 135.308 113.117 130.067 119.34 123.21L119.83 122.67L134.57 129.49C135.706 130.009 137.001 130.058 138.173 129.627C139.345 129.197 140.3 128.321 140.83 127.19L143.22 122.02C143.741 120.884 143.792 119.589 143.361 118.416C142.93 117.243 142.052 116.288 140.92 115.76L140.9 115.71ZM119.45 101.57L119.21 102.13C116.835 107.841 113.33 113.013 108.906 117.335C104.481 121.658 99.2292 125.041 93.4645 127.283C87.6998 129.524 81.5416 130.578 75.3596 130.38C69.1776 130.182 63.0994 128.736 57.49 126.13C49.9351 122.638 43.4676 117.164 38.7751 110.289C34.0826 103.415 31.3404 95.3981 30.84 87.0901V85.9201C30.6213 78.4687 32.2108 71.0753 35.4726 64.3722C38.7345 57.6692 43.5715 51.856 49.57 47.4301L51.05 46.3601C59.3986 40.7267 69.3652 37.989 79.42 38.567C89.4749 39.1451 99.0621 43.0071 106.71 49.5601L107.93 50.6701C114.81 56.9898 119.598 65.259 121.653 74.3723C123.708 83.4857 122.932 93.0092 119.43 101.67L119.45 101.57Z" fill="#969696"/>
<path d="M145.22 117.67C144.919 116.841 144.456 116.08 143.859 115.432C143.261 114.783 142.541 114.259 141.74 113.89L131.07 108.96C135.976 98.2287 137.602 86.287 135.744 74.6345C133.886 62.982 128.627 52.1382 120.627 43.4647C112.626 34.7912 102.242 28.6747 90.7772 25.8832C79.3124 23.0917 67.2785 23.7497 56.1864 27.7745C45.0943 31.7993 35.4386 39.0115 28.4318 48.5055C21.4249 57.9995 17.3792 69.3521 16.8026 81.1377C16.2261 92.9233 19.1445 104.617 25.1913 114.749C31.2381 124.882 40.1437 133.002 50.79 138.09L45.64 149.22C44.8979 150.837 44.8263 152.682 45.441 154.352C46.0557 156.022 47.3065 157.38 48.92 158.13L54.09 160.52C54.9662 160.931 55.9224 161.142 56.89 161.14C58.1756 161.146 59.4358 160.783 60.5208 160.093C61.6057 159.403 62.4697 158.417 63.01 157.25L69.35 143.53C78.7861 144.694 88.3638 143.594 97.29 140.32C106.055 137.124 113.938 131.894 120.29 125.06L133.7 131.27C135.317 132.012 137.162 132.084 138.832 131.469C140.502 130.854 141.86 129.604 142.61 127.99L145.01 122.82C145.384 122.018 145.595 121.15 145.631 120.266C145.667 119.382 145.527 118.5 145.22 117.67V117.67ZM143.22 121.97L140.83 127.14C140.3 128.271 139.345 129.147 138.173 129.577C137.001 130.008 135.706 129.959 134.57 129.44L119.83 122.62L119.34 123.16C113.117 130.017 105.32 135.258 96.62 138.43C87.7671 141.679 78.2531 142.709 68.91 141.43L68.18 141.33L61.18 156.39C60.652 157.523 59.6973 158.4 58.5244 158.831C57.3515 159.262 56.0557 159.211 54.92 158.69L49.75 156.3C48.6319 155.77 47.7655 154.824 47.3357 153.663C46.9059 152.503 46.947 151.221 47.45 150.09L53.45 137.09L52.54 136.67C42.0901 131.89 33.2991 124.109 27.2865 114.316C21.2738 104.524 18.3116 93.163 18.7769 81.6813C19.2423 70.1996 23.1142 59.1161 29.8997 49.8422C36.6851 40.5683 46.077 33.5237 56.8795 29.6053C67.6819 25.6869 79.4062 25.0721 90.5592 27.8391C101.712 30.6062 111.789 36.6299 119.508 45.1432C127.226 53.6565 132.236 64.2742 133.899 75.6443C135.563 87.0143 133.805 98.6223 128.85 108.99L128.41 109.9L140.91 115.69C142.043 116.218 142.92 117.173 143.351 118.346C143.782 119.519 143.731 120.814 143.21 121.95L143.22 121.97Z" fill="black"/>
<path d="M104.05 81.9001C100.97 73.5301 89.13 74.6101 89.05 74.6201H88.93C88.31 74.6201 73.54 74.2901 71.24 67.0301C69.88 62.7301 71.91 58.8201 73.55 55.6701C73.88 55.0201 74.2 54.4001 74.48 53.8101C75.78 51.0201 79.79 50.2901 82.97 50.8101C84.6335 51.1066 86.2768 51.5074 87.89 52.0101C91.97 53.1701 96.18 54.3701 99.6 52.4301C101.39 51.4301 102.92 50.5901 104.17 50.0101C98.2584 45.3192 91.2413 42.2249 83.7908 41.0237C76.3404 39.8225 68.7063 40.5547 61.62 43.1501C58.8097 44.1896 56.1097 45.5061 53.56 47.0801C54.4575 47.7149 55.1355 48.613 55.5 49.6501C56.14 51.5401 55.67 53.8601 54.11 56.5501C53.29 57.9501 52.96 59.0401 53.11 59.7101C53.26 60.3801 53.9 60.7101 54.89 61.2201C55.88 61.7301 57.1 62.4001 57.41 63.7401C57.68 64.9101 57.18 66.3001 55.86 68.1001C51.99 73.4101 38.67 86.4901 32.86 87.8801C33.1887 91.8828 34.06 95.8222 35.45 99.5901C38.0195 106.543 42.2974 112.737 47.8896 117.603C53.4818 122.468 60.2086 125.847 67.45 127.43C66.45 126.23 65.71 124.16 66.02 120.57C66.66 113.11 64.8 112.36 63.16 111.7L62.86 111.58C62.1032 111.225 61.3887 110.785 60.73 110.27C59.0011 109 57.1444 107.914 55.19 107.03C46.53 103.03 45.85 99.0301 46.8 96.3201C48.49 91.6001 56.51 88.4701 59.41 89.2301C61.58 89.7901 63.41 88.8201 65.8 87.5901C67.3163 86.7502 68.9063 86.0506 70.55 85.5001C73.66 84.5001 74.55 85.8901 75.45 87.3301C76.6749 89.389 78.5982 90.9397 80.87 91.7001C85.51 93.5501 87.51 98.5401 86.66 106.13C86.6106 106.818 86.3968 107.484 86.0366 108.072C85.6764 108.66 85.1803 109.153 84.59 109.51C83.44 110.36 82.15 111.33 82.01 116.71C81.8863 119.078 81.16 121.376 79.9 123.385C78.64 125.394 76.8881 127.048 74.81 128.19L74.46 128.36C83.4037 128.811 92.2721 126.522 99.8806 121.8C107.489 117.077 113.475 110.145 117.04 101.93C113.11 97.1401 106.51 88.6101 104.05 81.9001Z" fill="#D3D3D3"/>
<path d="M119.91 68.5601C117.389 61.7131 113.276 55.5638 107.91 50.6201L106.69 49.5101C99.0421 42.9571 89.4548 39.0951 79.4 38.517C69.3452 37.939 59.3786 40.6767 51.03 46.3101L49.55 47.3801C43.5515 51.806 38.7145 57.6192 35.4526 64.3222C32.1908 71.0253 30.6013 78.4188 30.82 85.8701V87.0401C31.4332 97.4116 35.5395 107.27 42.4701 115.01C49.4007 122.751 58.7475 127.917 68.9886 129.667C79.2296 131.418 89.7618 129.65 98.8701 124.652C107.978 119.654 115.126 111.719 119.15 102.14L119.39 101.58C123.66 91.0203 123.845 79.2491 119.91 68.5601V68.5601ZM51.69 48.2901C52.5486 48.6897 53.2189 49.4066 53.56 50.2901C54.01 51.6101 53.56 53.3801 52.34 55.5401C51.2 57.5401 50.83 59.0001 51.19 60.2601C51.4351 60.882 51.8072 61.4459 52.2824 61.9159C52.7576 62.386 53.3255 62.7518 53.95 62.9901C54.67 63.3701 55.35 63.7301 55.46 64.1901C55.57 64.6501 55.46 65.2601 54.25 66.9301C49.49 73.4401 37.15 84.5901 32.81 85.8801C32.579 78.538 34.1848 71.2545 37.4818 64.6902C40.7788 58.126 45.6625 52.4888 51.69 48.2901V48.2901ZM69.64 126.71C68.37 125.86 67.81 123.71 68.06 120.71C68.77 112.46 66.52 110.85 63.95 109.81L63.68 109.7C63.0646 109.401 62.4815 109.039 61.94 108.62C60.1154 107.27 58.1508 106.12 56.08 105.19C52.08 103.32 47.51 100.38 48.74 96.9601C50.07 93.2401 57.1 90.6501 58.96 91.1301C61.87 91.8901 64.26 90.6501 66.77 89.3401C68.1764 88.5343 69.6564 87.8646 71.19 87.3401C72.85 86.8301 72.99 87.0601 73.82 88.3401C75.2638 90.7553 77.5174 92.5801 80.18 93.4901C84.87 95.3601 85.24 101.24 84.72 105.84C84.6984 106.256 84.5691 106.659 84.3447 107.01C84.1203 107.36 83.8085 107.646 83.44 107.84C81.68 109.15 80.21 110.71 80.06 116.59C79.9571 118.604 79.3407 120.558 78.2695 122.266C77.1983 123.974 75.7079 125.38 73.94 126.35C72.24 127.3 70.68 127.4 69.64 126.71ZM91.92 125.71C86.3562 127.765 80.4335 128.67 74.51 128.37L74.86 128.2C76.9381 127.058 78.6901 125.404 79.9501 123.395C81.21 121.386 81.9363 119.088 82.06 116.72C82.2 111.34 83.49 110.37 84.64 109.52C85.2303 109.163 85.7264 108.67 86.0866 108.082C86.4468 107.494 86.6606 106.828 86.71 106.14C87.56 98.5501 85.56 93.5601 80.92 91.7101C78.6482 90.9497 76.7249 89.399 75.5 87.3401C74.57 85.9001 73.71 84.5501 70.6 85.5101C68.9563 86.0606 67.3663 86.7602 65.85 87.6001C63.49 88.8301 61.63 89.8001 59.46 89.2401C56.56 88.4801 48.54 91.6101 46.85 96.3301C45.9 99.0001 46.58 103.03 55.24 107.04C57.1944 107.924 59.0511 109.01 60.78 110.28C61.4387 110.795 62.1532 111.235 62.91 111.59L63.21 111.71C64.85 112.37 66.71 113.12 66.07 120.58C65.76 124.17 66.53 126.24 67.5 127.44C60.2586 125.857 53.5319 122.478 47.9396 117.613C42.3474 112.747 38.0695 106.553 35.5 99.6001C34.1159 95.828 33.2514 91.8852 32.93 87.8801C38.7 86.4901 52.02 73.4101 55.93 68.1001C57.25 66.3001 57.75 64.9101 57.48 63.7401C57.17 62.4001 56 61.7401 54.96 61.2201C53.92 60.7001 53.36 60.3301 53.18 59.7101C53 59.0901 53.32 57.9501 54.18 56.5501C55.74 53.8601 56.18 51.5501 55.57 49.6501C55.2055 48.613 54.5276 47.7148 53.63 47.0801C56.1797 45.5061 58.8797 44.1896 61.69 43.1501C68.7763 40.5547 76.4104 39.8225 83.8609 41.0237C91.3113 42.2249 98.3284 45.3192 104.24 50.0101C102.99 50.5901 101.46 51.4001 99.67 52.4301C96.25 54.3701 92.04 53.1701 87.96 52.0101C86.3468 51.5074 84.7035 51.1066 83.04 50.8101C79.86 50.3101 75.85 51.0401 74.55 53.8101C74.27 54.4001 73.95 55.0201 73.62 55.6701C71.98 58.8201 69.95 62.7301 71.31 67.0301C73.61 74.2901 88.38 74.6101 89 74.6201H89.12C89.24 74.6201 101.12 73.5301 104.12 81.9001C106.58 88.6101 113.18 97.1401 117.12 101.9C114.741 107.361 111.283 112.285 106.952 116.375C102.621 120.465 97.5083 123.637 91.92 125.7V125.71ZM117.92 99.8201C114.43 95.5501 108.18 87.4201 105.92 81.2301C102.39 71.6301 89.98 72.5401 88.86 72.6401C84.95 72.5601 74.64 71.3101 73.1 66.4501C71.99 62.9401 73.73 59.5801 75.27 56.6101C75.62 55.9401 75.95 55.2901 76.27 54.6701C77.09 52.9201 80.16 52.3901 82.64 52.7801C84.2242 53.0729 85.7901 53.4569 87.33 53.9301C91.59 55.1401 96.42 56.5201 100.56 54.1601C102.271 53.1615 104.034 52.2536 105.84 51.4401C112.527 57.3247 117.267 65.1029 119.431 73.7433C121.596 82.3838 121.083 91.4781 117.96 99.8201H117.92Z" fill="black"/>
<path d="M54.25 66.9201C49.48 73.4401 37.1 84.5901 32.79 85.8701C32.5637 78.5277 34.1727 71.2448 37.4711 64.6811C40.7696 58.1174 45.6533 52.4802 51.68 48.2801C52.5443 48.675 53.2193 49.3931 53.56 50.2801C54.01 51.6001 53.56 53.3701 52.34 55.5301C51.2 57.5301 50.83 58.9901 51.19 60.2501C51.4351 60.872 51.8072 61.4359 52.2824 61.9059C52.7576 62.376 53.3255 62.7418 53.95 62.9801C54.67 63.3601 55.35 63.7201 55.46 64.1801C55.57 64.6401 55.45 65.2501 54.25 66.9201ZM84.72 105.92C85.24 101.32 84.87 95.4401 80.18 93.5701C77.5174 92.6601 75.2638 90.8353 73.82 88.4201C72.99 87.1401 72.82 86.9101 71.19 87.4201C69.6564 87.9446 68.1764 88.6143 66.77 89.4201C64.26 90.7301 61.87 91.9701 58.96 91.2101C58.7954 91.1499 58.6242 91.1097 58.45 91.0901C56.04 91.0901 50 93.5601 48.78 96.9801C47.56 100.4 52.1 103.34 56.12 105.21C58.1908 106.14 60.1554 107.29 61.98 108.64C62.5215 109.059 63.1046 109.421 63.72 109.72L63.99 109.83C66.56 110.83 68.81 112.48 68.1 120.73C67.85 123.73 68.41 125.85 69.68 126.73C70.68 127.42 72.28 127.32 73.98 126.44C75.7467 125.469 77.2361 124.063 78.3071 122.355C79.3781 120.647 79.9952 118.693 80.1 116.68C80.25 110.8 81.72 109.24 83.48 107.93C83.8439 107.73 84.1494 107.438 84.3668 107.084C84.5841 106.73 84.7058 106.325 84.72 105.91V105.92ZM117.94 99.8301C121.057 91.4874 121.57 82.395 119.409 73.7549C117.249 65.1147 112.517 57.3337 105.84 51.4401C104.024 52.2479 102.255 53.1559 100.54 54.1601C96.4 56.5201 91.54 55.1601 87.31 53.9301C85.7701 53.4569 84.2042 53.0729 82.62 52.7801C80.14 52.3901 77.07 52.9201 76.25 54.6701C75.96 55.2901 75.63 55.9401 75.25 56.6101C73.71 59.6101 71.97 62.9401 73.08 66.4501C74.62 71.3101 84.93 72.5601 88.84 72.6401C89.05 72.6401 89.67 72.5701 90.56 72.5701C94.35 72.5701 103.04 73.4501 105.9 81.2301C108.2 87.4101 114.45 95.5501 117.94 99.8201V99.8301Z" fill="#A6A6A6"/>
</svg>
