<svg width="620" height="620" viewBox="0 0 620 620" fill="none" xmlns="http://www.w3.org/2000/svg">
<rect width="620" height="620" fill="white"/>
<rect width="620" height="620" fill="white"/>
<rect x="60.5" y="60.5" width="499" height="499" fill="#E7E7E7" stroke="#C4C4C4"/>
<path d="M516.693 538.216C515.605 538.216 514.565 538.04 513.573 537.688C512.581 537.336 511.741 536.84 511.053 536.2L511.797 534.64C513.285 535.856 514.909 536.464 516.669 536.464C517.837 536.464 518.757 536.136 519.429 535.48C520.101 534.824 520.437 533.96 520.437 532.888C520.437 531.784 520.117 530.88 519.477 530.176C518.837 529.472 517.957 529.12 516.837 529.12C515.221 529.12 513.949 529.792 513.021 531.136H511.581V521.08H521.397V522.76H513.525V528.808C514.453 527.88 515.677 527.416 517.197 527.416C518.253 527.416 519.173 527.64 519.957 528.088C520.741 528.536 521.341 529.168 521.757 529.984C522.189 530.784 522.405 531.72 522.405 532.792C522.405 533.848 522.173 534.784 521.709 535.6C521.245 536.416 520.581 537.056 519.717 537.52C518.869 537.984 517.861 538.216 516.693 538.216ZM525.347 542.32V526.336H527.243V528.424C527.595 527.704 528.115 527.144 528.803 526.744C529.507 526.328 530.323 526.12 531.251 526.12C532.291 526.12 533.195 526.368 533.963 526.864C534.747 527.344 535.347 528.04 535.763 528.952C536.195 529.848 536.411 530.92 536.411 532.168C536.411 533.4 536.195 534.472 535.763 535.384C535.347 536.28 534.747 536.976 533.963 537.472C533.195 537.968 532.291 538.216 531.251 538.216C530.355 538.216 529.555 538.016 528.851 537.616C528.147 537.216 527.627 536.664 527.291 535.96V542.32H525.347ZM530.843 536.656C531.931 536.656 532.803 536.272 533.459 535.504C534.115 534.72 534.443 533.608 534.443 532.168C534.443 530.712 534.115 529.6 533.459 528.832C532.803 528.064 531.931 527.68 530.843 527.68C529.755 527.68 528.883 528.064 528.227 528.832C527.571 529.6 527.243 530.712 527.243 532.168C527.243 533.608 527.571 534.72 528.227 535.504C528.883 536.272 529.755 536.656 530.843 536.656ZM537.594 538L542.442 531.976L537.882 526.336H540.186L543.57 530.632L546.978 526.336H549.258L544.698 531.976L549.546 538H547.242L543.546 533.368L539.898 538H537.594Z" fill="black"/>
<path d="M77.6928 538.216C76.6048 538.216 75.5648 538.04 74.5728 537.688C73.5808 537.336 72.7408 536.84 72.0528 536.2L72.7968 534.64C74.2848 535.856 75.9088 536.464 77.6688 536.464C78.8368 536.464 79.7568 536.136 80.4288 535.48C81.1008 534.824 81.4368 533.96 81.4368 532.888C81.4368 531.784 81.1168 530.88 80.4768 530.176C79.8368 529.472 78.9568 529.12 77.8368 529.12C76.2208 529.12 74.9488 529.792 74.0208 531.136H72.5808V521.08H82.3968V522.76H74.5248V528.808C75.4528 527.88 76.6768 527.416 78.1968 527.416C79.2528 527.416 80.1728 527.64 80.9568 528.088C81.7408 528.536 82.3408 529.168 82.7568 529.984C83.1888 530.784 83.4048 531.72 83.4048 532.792C83.4048 533.848 83.1728 534.784 82.7088 535.6C82.2448 536.416 81.5808 537.056 80.7168 537.52C79.8688 537.984 78.8608 538.216 77.6928 538.216ZM86.3474 542.32V526.336H88.2434V528.424C88.5954 527.704 89.1154 527.144 89.8034 526.744C90.5074 526.328 91.3234 526.12 92.2514 526.12C93.2914 526.12 94.1954 526.368 94.9634 526.864C95.7474 527.344 96.3474 528.04 96.7634 528.952C97.1954 529.848 97.4114 530.92 97.4114 532.168C97.4114 533.4 97.1954 534.472 96.7634 535.384C96.3474 536.28 95.7474 536.976 94.9634 537.472C94.1954 537.968 93.2914 538.216 92.2514 538.216C91.3554 538.216 90.5554 538.016 89.8514 537.616C89.1474 537.216 88.6274 536.664 88.2914 535.96V542.32H86.3474ZM91.8434 536.656C92.9314 536.656 93.8034 536.272 94.4594 535.504C95.1154 534.72 95.4434 533.608 95.4434 532.168C95.4434 530.712 95.1154 529.6 94.4594 528.832C93.8034 528.064 92.9314 527.68 91.8434 527.68C90.7554 527.68 89.8834 528.064 89.2274 528.832C88.5714 529.6 88.2434 530.712 88.2434 532.168C88.2434 533.608 88.5714 534.72 89.2274 535.504C89.8834 536.272 90.7554 536.656 91.8434 536.656ZM98.5938 538L103.442 531.976L98.8818 526.336H101.186L104.57 530.632L107.978 526.336H110.258L105.698 531.976L110.546 538H108.242L104.546 533.368L100.898 538H98.5938Z" fill="black"/>
<path d="M516.693 98.216C515.605 98.216 514.565 98.04 513.573 97.688C512.581 97.336 511.741 96.84 511.053 96.2L511.797 94.64C513.285 95.856 514.909 96.464 516.669 96.464C517.837 96.464 518.757 96.136 519.429 95.48C520.101 94.824 520.437 93.96 520.437 92.888C520.437 91.784 520.117 90.88 519.477 90.176C518.837 89.472 517.957 89.12 516.837 89.12C515.221 89.12 513.949 89.792 513.021 91.136H511.581V81.08H521.397V82.76H513.525V88.808C514.453 87.88 515.677 87.416 517.197 87.416C518.253 87.416 519.173 87.64 519.957 88.088C520.741 88.536 521.341 89.168 521.757 89.984C522.189 90.784 522.405 91.72 522.405 92.792C522.405 93.848 522.173 94.784 521.709 95.6C521.245 96.416 520.581 97.056 519.717 97.52C518.869 97.984 517.861 98.216 516.693 98.216ZM525.347 102.32V86.336H527.243V88.424C527.595 87.704 528.115 87.144 528.803 86.744C529.507 86.328 530.323 86.12 531.251 86.12C532.291 86.12 533.195 86.368 533.963 86.864C534.747 87.344 535.347 88.04 535.763 88.952C536.195 89.848 536.411 90.92 536.411 92.168C536.411 93.4 536.195 94.472 535.763 95.384C535.347 96.28 534.747 96.976 533.963 97.472C533.195 97.968 532.291 98.216 531.251 98.216C530.355 98.216 529.555 98.016 528.851 97.616C528.147 97.216 527.627 96.664 527.291 95.96V102.32H525.347ZM530.843 96.656C531.931 96.656 532.803 96.272 533.459 95.504C534.115 94.72 534.443 93.608 534.443 92.168C534.443 90.712 534.115 89.6 533.459 88.832C532.803 88.064 531.931 87.68 530.843 87.68C529.755 87.68 528.883 88.064 528.227 88.832C527.571 89.6 527.243 90.712 527.243 92.168C527.243 93.608 527.571 94.72 528.227 95.504C528.883 96.272 529.755 96.656 530.843 96.656ZM537.594 98L542.442 91.976L537.882 86.336H540.186L543.57 90.632L546.978 86.336H549.258L544.698 91.976L549.546 98H547.242L543.546 93.368L539.898 98H537.594Z" fill="black"/>
<line x1="21" y1="59.5" x2="601" y2="59.5" stroke="#494949" stroke-dasharray="6 6"/>
<line x1="21" y1="119.5" x2="601" y2="119.5" stroke="#494949" stroke-dasharray="6 6"/>
<line x1="21" y1="499.5" x2="601" y2="499.5" stroke="#494949" stroke-dasharray="6 6"/>
<line x1="21" y1="559.5" x2="601" y2="559.5" stroke="#494949" stroke-dasharray="6 6"/>
<line x1="120.5" y1="20" x2="120.5" y2="600" stroke="#494949" stroke-dasharray="6 6"/>
<line x1="500.5" y1="20" x2="500.5" y2="600" stroke="#494949" stroke-dasharray="6 6"/>
<path d="M155.398 452.415H139V442.213H184.014V452.415H167.616V498.363H155.398V452.415Z" fill="black"/>
<path d="M194.018 453.861C192.142 453.861 190.561 453.245 189.275 452.013C187.989 450.782 187.346 449.229 187.346 447.354C187.346 445.533 187.989 444.007 189.275 442.775C190.561 441.49 192.142 440.848 194.018 440.848C195.893 440.848 197.474 441.49 198.76 442.775C200.046 444.007 200.689 445.533 200.689 447.354C200.689 449.229 200.046 450.782 198.76 452.013C197.474 453.245 195.893 453.861 194.018 453.861ZM187.909 459.805H200.127V498.363H187.909V459.805Z" fill="black"/>
<path d="M209.011 459.805H220.345V464.464C222.006 462.59 223.935 461.144 226.133 460.126C228.33 459.109 230.607 458.6 232.965 458.6C235.912 458.6 238.27 459.082 240.039 460.046C241.807 460.956 243.2 462.322 244.218 464.143C245.88 462.376 247.889 461.01 250.247 460.046C252.658 459.082 255.043 458.6 257.401 458.6C262.331 458.6 265.841 459.859 267.931 462.376C270.075 464.893 271.146 468.534 271.146 473.3V498.363H259.571V474.987C259.571 472.524 259.089 470.757 258.124 469.686C257.16 468.614 255.606 468.079 253.462 468.079C250.461 468.079 248.05 469.257 246.228 471.613C246.335 473.327 246.389 474.719 246.389 475.791V498.363H234.733V474.586C234.733 472.229 234.305 470.569 233.447 469.605C232.643 468.588 231.223 468.079 229.187 468.079C226.025 468.079 223.212 469.873 220.747 473.461V498.363H209.011V459.805Z" fill="black"/>
<path d="M301.374 499.568C293.978 499.568 288.164 497.801 283.931 494.266C279.697 490.678 277.581 485.671 277.581 479.245C277.581 472.872 279.456 467.838 283.207 464.143C287.012 460.448 292.424 458.6 299.444 458.6C304.053 458.6 307.965 459.457 311.18 461.171C314.395 462.884 316.834 465.267 318.495 468.32C320.156 471.319 320.987 474.719 320.987 478.522V483.422H289.156C290.013 488.349 294.621 490.812 302.981 490.812C305.446 490.812 307.992 490.598 310.617 490.169C313.243 489.741 315.521 489.152 317.45 488.402V496.917C315.574 497.72 313.163 498.363 310.216 498.845C307.268 499.327 304.321 499.568 301.374 499.568ZM309.492 475.55C309.331 472.979 308.367 470.998 306.598 469.605C304.83 468.159 302.392 467.436 299.284 467.436C296.229 467.436 293.818 468.159 292.049 469.605C290.281 471.051 289.316 473.033 289.156 475.55H309.492Z" fill="black"/>
<path d="M342.088 499.568C337.372 499.568 333.514 498.39 330.513 496.033C327.566 493.623 326.092 490.357 326.092 486.233C326.092 481.949 327.512 478.629 330.352 476.272C333.193 473.863 337.212 472.658 342.41 472.658C344.714 472.658 346.911 472.899 349.001 473.381C351.091 473.863 352.94 474.532 354.547 475.389V474.425C354.547 472.015 353.69 470.248 351.975 469.123C350.26 467.999 347.634 467.436 344.098 467.436C339.382 467.436 335.041 468.32 331.076 470.087V461.251C332.791 460.501 335.015 459.885 337.748 459.403C340.481 458.868 343.213 458.6 345.946 458.6C352.913 458.6 358.111 460.046 361.541 462.938C364.97 465.776 366.685 469.766 366.685 474.907V498.363H355.271V494.828C352.002 497.988 347.608 499.568 342.088 499.568ZM345.384 491.535C347.367 491.535 349.162 491.16 350.769 490.41C352.377 489.661 353.636 488.616 354.547 487.277V483.422C351.814 481.601 348.813 480.691 345.545 480.691C343.294 480.691 341.552 481.173 340.32 482.136C339.141 483.047 338.551 484.412 338.551 486.233C338.551 487.947 339.141 489.259 340.32 490.169C341.499 491.08 343.187 491.535 345.384 491.535Z" fill="black"/>
<path d="M374.72 459.805H386.456V465.348C388.01 463.473 390.18 462.054 392.967 461.09C395.753 460.073 398.915 459.564 402.452 459.564V468.802C398.754 468.802 395.485 469.364 392.645 470.489C389.859 471.613 387.929 473.327 386.858 475.63V498.363H374.72V459.805Z" fill="black"/>
<path d="M423.767 499.568C419.266 499.568 415.836 498.336 413.478 495.873C411.174 493.356 410.022 489.875 410.022 485.43V468.561H404.395V459.805H410.022V448.238H422.16V459.805H431.243V468.561H422.16V483.823C422.16 486.073 422.588 487.706 423.446 488.723C424.303 489.687 425.83 490.169 428.027 490.169C429.796 490.169 431.484 489.741 433.092 488.884V497.961C430.627 499.032 427.518 499.568 423.767 499.568Z" fill="black"/>
<path d="M438.696 439H450.833V464.223C452.655 462.349 454.718 460.956 457.023 460.046C459.327 459.082 461.792 458.6 464.418 458.6C469.669 458.6 473.581 460.019 476.154 462.858C478.779 465.642 480.092 469.418 480.092 474.184V498.363H467.955V475.55C467.955 470.569 465.65 468.079 461.042 468.079C459.005 468.079 457.103 468.588 455.335 469.605C453.566 470.569 452.066 472.015 450.833 473.943V498.363H438.696V439Z" fill="black"/>
<path d="M236.253 181.878C236.152 181.035 235.847 180.228 235.364 179.529C234.882 178.829 234.237 178.258 233.485 177.863C228.32 175.112 222.56 173.67 216.708 173.664C210.885 173.682 205.151 175.097 199.987 177.789C194.716 180.539 190.208 184.549 186.862 189.462C183.517 194.376 181.439 200.041 180.813 205.952C180.186 211.863 181.032 217.837 183.274 223.343C185.515 228.848 189.084 233.714 193.661 237.506C194.345 238.079 195.158 238.477 196.03 238.665C196.902 238.854 197.807 238.827 198.667 238.588C199.512 238.36 200.288 237.928 200.927 237.33C201.566 236.732 202.049 235.987 202.334 235.159C208.967 216.632 219.996 199.991 234.475 186.664C235.136 186.069 235.643 185.323 235.953 184.49C236.263 183.656 236.366 182.76 236.253 181.878Z" fill="#FFAB4D"/>
<path d="M235.208 174.618C226.519 170.053 216.448 168.867 206.936 171.287C197.424 173.706 189.145 179.561 183.693 187.723C178.241 195.884 176.003 205.775 177.411 215.489C178.818 225.202 183.771 234.051 191.314 240.33C192.975 241.704 195.063 242.457 197.218 242.457C199.104 242.455 200.944 241.871 202.486 240.785C204.029 239.698 205.198 238.163 205.836 236.388C212.262 218.418 222.959 202.278 237.005 189.359C238.092 188.363 238.923 187.12 239.427 185.735C239.932 184.349 240.094 182.863 239.902 181.401C239.726 179.976 239.207 178.614 238.389 177.432C237.572 176.251 236.48 175.285 235.208 174.618ZM202.37 235.123C202.086 235.95 201.603 236.696 200.964 237.294C200.324 237.891 199.548 238.323 198.703 238.551C197.844 238.79 196.939 238.817 196.067 238.629C195.195 238.44 194.382 238.042 193.698 237.47C189.121 233.677 185.552 228.812 183.31 223.306C181.069 217.801 180.223 211.826 180.849 205.915C181.475 200.004 183.554 194.339 186.899 189.426C190.245 184.512 194.753 180.502 200.023 177.753C205.187 175.06 210.921 173.646 216.745 173.627C222.596 173.634 228.357 175.075 233.521 177.826C234.274 178.221 234.919 178.793 235.401 179.492C235.883 180.192 236.188 180.998 236.29 181.841C236.396 182.728 236.284 183.627 235.965 184.461C235.645 185.294 235.128 186.038 234.456 186.627C219.993 199.971 208.982 216.625 202.37 235.159V235.123Z" fill="black"/>
<path d="M348.555 125.278C345.318 125.28 342.097 125.731 338.984 126.617C333.77 128.07 328.953 130.684 324.892 134.262C320.831 137.841 317.632 142.291 315.533 147.28C315.163 148.117 315.008 149.034 315.082 149.946C315.155 150.859 315.456 151.738 315.955 152.506C316.424 153.246 317.067 153.86 317.827 154.294C318.588 154.729 319.443 154.971 320.319 154.999C339.961 155.715 359.137 161.183 376.204 170.932C376.984 171.384 377.864 171.638 378.766 171.67C379.668 171.702 380.563 171.511 381.374 171.116C382.177 170.732 382.875 170.16 383.409 169.448C383.942 168.736 384.294 167.905 384.436 167.027C385.262 161.853 384.951 156.561 383.524 151.52C382.097 146.478 379.588 141.808 376.173 137.835C372.758 133.861 368.518 130.68 363.749 128.511C358.979 126.343 353.794 125.239 348.555 125.278Z" fill="#FFA44B"/>
<path d="M384.491 143.87C380.37 135.533 373.476 128.89 364.992 125.08C356.508 121.269 346.963 120.529 337.994 122.986C332.243 124.597 326.93 127.487 322.454 131.44C317.977 135.392 314.452 140.306 312.142 145.813C311.555 147.204 311.314 148.715 311.438 150.219C311.563 151.723 312.05 153.174 312.857 154.449C313.643 155.693 314.723 156.725 316.002 157.454C317.281 158.183 318.719 158.587 320.191 158.629C339.242 159.317 357.841 164.621 374.389 174.086C375.674 174.818 377.118 175.228 378.596 175.282C380.074 175.335 381.544 175.03 382.879 174.392C384.213 173.755 385.374 172.803 386.262 171.62C387.149 170.436 387.737 169.055 387.975 167.595C389.29 159.517 388.073 151.229 384.491 143.87ZM384.363 167.008C384.231 167.883 383.891 168.713 383.371 169.428C382.851 170.143 382.166 170.722 381.374 171.116C380.571 171.496 379.688 171.676 378.801 171.641C377.913 171.606 377.047 171.357 376.277 170.914C359.21 161.164 340.034 155.697 320.392 154.981C319.517 154.952 318.661 154.71 317.901 154.276C317.14 153.841 316.497 153.227 316.029 152.487C315.529 151.72 315.229 150.84 315.155 149.928C315.082 149.016 315.237 148.099 315.607 147.262C317.698 142.262 320.895 137.801 324.956 134.213C329.017 130.625 333.838 128.003 339.057 126.543C342.17 125.657 345.391 125.207 348.628 125.205C353.868 125.175 359.052 126.287 363.819 128.465C368.586 130.642 372.821 133.833 376.229 137.813C379.637 141.794 382.137 146.47 383.555 151.515C384.972 156.56 385.273 161.854 384.436 167.027L384.363 167.008Z" fill="black"/>
<path d="M434.014 333.709L411.095 323.112L411.902 321.443C420.988 302.434 424.21 281.151 421.16 260.304C418.11 239.457 408.924 219.99 394.773 204.381C380.621 188.771 362.145 177.727 341.696 172.654C321.247 167.58 299.751 168.708 279.944 175.892C260.138 183.076 242.918 195.993 230.477 212.996C218.036 230 210.937 250.321 210.084 271.373C209.23 292.425 214.662 313.254 225.686 331.209C236.71 349.163 252.828 363.431 271.988 372.195L273.656 372.965L262.656 396.672C261.705 398.754 261.614 401.128 262.404 403.278C263.194 405.427 264.799 407.177 266.873 408.149L276.37 412.531C278.453 413.482 280.827 413.572 282.976 412.783C285.125 411.993 286.876 410.387 287.848 408.314L300.682 380.72L302.039 380.904C319.17 383.227 336.609 381.339 352.845 375.403C368.789 369.584 383.079 359.976 394.484 347.406L395.4 346.416L422.426 358.92C424.509 359.871 426.883 359.961 429.032 359.172C431.181 358.382 432.932 356.776 433.904 354.703L438.286 345.206C439.236 343.123 439.327 340.749 438.537 338.6C437.748 336.45 436.142 334.7 434.069 333.728L434.014 333.709ZM394.575 307.784L394.154 308.811C386.77 326.363 373.664 340.901 356.968 350.058C340.271 359.215 320.968 362.452 302.197 359.243C283.427 356.034 266.296 346.567 253.59 332.384C240.884 318.2 233.352 300.134 232.22 281.125V278.98C231.812 265.319 234.721 251.762 240.699 239.472C246.677 227.181 255.544 216.522 266.543 208.409L269.274 206.428C274.921 202.665 280.996 199.588 287.371 197.261C301.449 192.107 316.644 190.792 331.398 193.45C346.152 196.108 359.933 202.644 371.327 212.387L373.563 214.422C386.148 226.006 394.906 241.149 398.669 257.835C402.433 274.52 401.024 291.956 394.63 307.821L394.575 307.784Z" fill="#FF6C37"/>
<path d="M441.879 337.321C441.327 335.802 440.479 334.407 439.383 333.217C438.288 332.028 436.968 331.067 435.499 330.391L415.936 321.333C424.929 301.658 427.909 279.764 424.501 258.4C421.094 237.037 411.451 217.156 396.783 201.254C382.115 185.352 363.076 174.138 342.057 169.02C321.037 163.902 298.974 165.108 278.638 172.486C258.301 179.864 240.598 193.086 227.75 210.492C214.903 227.897 207.483 248.71 206.424 270.318C205.365 291.926 210.713 313.365 221.797 331.943C232.881 350.522 249.207 365.411 268.724 374.743L259.3 395.131C257.943 398.098 257.811 401.48 258.934 404.542C260.056 407.605 262.343 410.1 265.296 411.486L274.793 415.868C276.259 416.55 277.845 416.933 279.459 416.996C281.074 417.059 282.685 416.8 284.199 416.235C285.72 415.685 287.117 414.838 288.307 413.742C289.497 412.647 290.456 411.325 291.13 409.854L302.772 384.717C320.075 386.836 337.633 384.812 354 378.813C370.07 372.958 384.522 363.376 396.17 350.853L420.776 362.22C423.739 363.577 427.119 363.708 430.178 362.586C433.238 361.463 435.73 359.176 437.112 356.225L441.513 346.727C442.193 345.262 442.576 343.676 442.639 342.061C442.702 340.447 442.444 338.836 441.879 337.321ZM438.212 345.187L433.83 354.685C432.859 356.758 431.108 358.364 428.959 359.153C426.81 359.943 424.436 359.852 422.353 358.902L395.327 346.397L394.41 347.387C383.006 359.958 368.716 369.566 352.772 375.385C336.535 381.321 319.096 383.209 301.966 380.885L300.609 380.702L287.774 408.296C286.803 410.369 285.052 411.975 282.903 412.764C280.754 413.554 278.38 413.464 276.297 412.513L266.799 408.131C264.726 407.159 263.12 405.408 262.331 403.259C261.541 401.11 261.631 398.736 262.582 396.653L273.583 372.946L271.915 372.176C252.758 363.4 236.647 349.122 225.632 331.16C214.617 313.198 209.196 292.364 210.06 271.311C210.924 250.258 218.033 229.938 230.483 212.938C242.933 195.939 260.16 183.029 279.971 175.852C299.781 168.675 321.28 167.556 341.729 172.636C362.178 177.717 380.652 188.769 394.8 204.383C408.948 219.998 418.129 239.469 421.174 260.319C424.22 281.169 420.992 302.453 411.902 321.462L411.095 323.13L434.014 333.728C436.087 334.7 437.693 336.45 438.482 338.6C439.272 340.749 439.182 343.123 438.231 345.206L438.212 345.187Z" fill="black"/>
<path d="M366.45 271.737C360.802 256.391 339.094 258.371 338.947 258.39H338.727C337.59 258.39 310.51 257.785 306.293 244.492C303.799 236.608 307.521 229.42 310.51 223.645C311.133 222.472 311.72 221.335 312.233 220.235C314.617 215.138 321.969 213.781 327.781 214.734C330.836 215.284 333.855 216.019 336.82 216.934C344.301 219.061 352.02 221.261 358.272 217.704C361.572 215.871 364.378 214.349 366.67 213.286C353.645 202.93 337.737 196.855 321.124 195.893C304.512 194.931 288.009 199.13 273.877 207.914C275.522 209.07 276.765 210.711 277.434 212.607C278.607 216.091 277.745 220.345 274.885 225.258C273.382 227.825 272.776 229.842 273.051 231.071C273.327 232.299 274.5 232.904 276.315 233.839C278.13 234.774 280.367 235.984 280.935 238.46C281.412 240.605 280.514 243.135 278.094 246.454C270.998 256.171 246.558 280.153 235.923 282.72C237.054 296.991 241.961 310.704 250.142 322.452C258.323 334.2 269.483 343.559 282.476 349.569C287.882 352.071 293.544 353.977 299.362 355.253C297.529 353.053 296.172 349.239 296.74 342.657C297.914 328.979 294.503 327.604 291.496 326.394L290.946 326.174C289.555 325.536 288.244 324.736 287.041 323.79C283.873 321.46 280.468 319.468 276.883 317.85C260.987 310.516 259.74 303.182 261.5 298.195C264.599 289.541 279.285 283.82 284.621 285.195C288.6 286.222 291.955 284.444 296.337 282.207C299.115 280.657 302.03 279.368 305.046 278.356C310.73 276.523 312.38 279.09 314.03 281.712C316.271 285.483 319.791 288.326 323.949 289.724C332.457 293.116 336.142 302.265 334.583 316.2C334.486 317.461 334.09 318.682 333.426 319.76C332.763 320.838 331.852 321.742 330.77 322.397C328.68 323.955 326.296 325.715 326.039 335.598C325.82 339.939 324.493 344.153 322.185 347.837C319.878 351.521 316.667 354.554 312.857 356.647L312.215 356.958C328.627 357.772 344.898 353.566 358.859 344.898C372.82 336.231 383.808 323.514 390.358 308.444C383.061 299.68 370.96 284.04 366.45 271.737Z" fill="#AFE2E3"/>
<path d="M395.51 247.279C390.889 234.725 383.347 223.45 373.508 214.386L371.272 212.351C359.878 202.607 346.097 196.071 331.343 193.413C316.589 190.755 301.394 192.07 287.316 197.224C280.941 199.551 274.866 202.629 269.219 206.392L266.488 208.372C255.489 216.486 246.622 227.144 240.644 239.435C234.666 251.726 231.757 265.282 232.165 278.943V281.088C233.233 300.147 240.735 318.279 253.444 332.522C266.153 346.764 283.318 356.274 302.132 359.497C320.947 362.72 340.298 359.465 357.023 350.265C373.748 341.065 386.858 326.464 394.209 308.847L394.63 307.821C402.449 288.453 402.763 266.865 395.51 247.279ZM270.448 210.114C272.029 210.837 273.261 212.155 273.877 213.781C274.702 216.201 273.877 219.428 271.64 223.407C269.549 226.982 268.871 229.732 269.531 232.061C269.981 233.199 270.663 234.23 271.535 235.089C272.406 235.948 273.447 236.615 274.592 237.048C275.912 237.763 277.158 238.423 277.36 239.266C277.488 239.816 277.36 241.21 275.142 244.272C266.414 256.226 243.771 276.651 235.832 279.016C235.409 265.558 238.354 252.206 244.399 240.174C250.444 228.142 259.398 217.809 270.448 210.114ZM303.359 353.896C301.031 352.338 300.004 348.396 300.462 342.895C301.764 327.769 297.639 324.817 292.927 322.929L292.431 322.727C291.3 322.177 290.23 321.507 289.241 320.728C285.889 318.264 282.288 316.156 278.497 314.44C271.163 311.029 262.784 305.639 265.021 299.368C267.478 292.529 280.367 287.799 283.777 288.679C289.113 290.054 293.477 287.781 298.097 285.379C300.683 283.94 303.395 282.743 306.201 281.803C309.226 280.85 309.501 281.29 311.023 283.637C313.663 288.06 317.79 291.4 322.666 293.061C331.265 296.49 331.962 307.271 331.008 315.723C330.967 316.485 330.729 317.223 330.318 317.866C329.906 318.508 329.336 319.033 328.661 319.39C325.434 321.81 322.739 324.67 322.446 335.451C322.261 339.14 321.134 342.72 319.173 345.849C317.212 348.978 314.482 351.553 311.243 353.328C308.126 354.96 305.248 355.161 303.359 353.896ZM344.209 352.063C334.009 355.836 323.15 357.501 312.288 356.958L312.93 356.646C316.74 354.554 319.951 351.521 322.259 347.837C324.566 344.153 325.893 339.939 326.113 335.598C326.369 325.715 328.753 323.955 330.843 322.397C331.926 321.742 332.837 320.838 333.5 319.76C334.163 318.682 334.56 317.461 334.657 316.2C336.215 302.265 332.53 293.116 324.023 289.724C319.864 288.326 316.345 285.483 314.103 281.712C312.398 279.09 310.803 276.615 305.119 278.356C302.104 279.368 299.188 280.657 296.41 282.207C292.083 284.444 288.673 286.222 284.694 285.195C279.359 283.82 264.672 289.541 261.574 298.195C259.74 303.109 261.06 310.497 276.957 317.85C280.542 319.468 283.946 321.46 287.114 323.79C288.318 324.736 289.629 325.536 291.02 326.174L291.57 326.394C294.577 327.604 297.987 328.979 296.814 342.657C296.245 349.239 297.657 353.053 299.435 355.253C293.617 353.977 287.955 352.071 282.549 349.569C269.556 343.559 258.396 334.2 250.215 322.452C242.035 310.704 237.127 296.991 235.997 282.72C246.557 280.153 270.998 256.171 278.167 246.454C280.587 243.135 281.486 240.605 281.009 238.46C280.44 235.984 278.295 234.793 276.388 233.839C274.482 232.886 273.455 232.189 273.125 231.071C272.795 229.952 273.381 227.825 274.958 225.258C277.819 220.345 278.625 216.091 277.507 212.607C276.839 210.711 275.595 209.07 273.95 207.914C288.067 199.163 304.541 194.983 321.123 195.944C337.704 196.906 353.585 202.962 366.596 213.286C364.304 214.349 361.499 215.834 358.199 217.704C351.947 221.261 344.228 219.061 336.747 216.934C333.781 216.019 330.763 215.284 327.708 214.734C321.896 213.817 314.543 215.174 312.16 220.235C311.646 221.335 311.06 222.472 310.436 223.645C307.448 229.42 303.726 236.608 306.219 244.492C310.436 257.785 337.517 258.371 338.654 258.39H338.874C339.094 258.39 360.876 256.391 366.376 271.737C370.887 284.04 382.988 299.68 390.212 308.407C385.874 318.4 379.564 327.413 371.659 334.908C363.754 342.404 354.418 348.226 344.209 352.026V352.063ZM391.88 304.594C385.481 296.783 374.022 281.858 369.878 270.509C363.406 252.926 340.652 254.576 338.599 254.759C331.412 254.631 312.527 252.339 309.703 243.428C307.668 236.993 310.858 230.814 313.682 225.368C314.323 224.14 314.928 222.967 315.515 221.83C317 218.621 322.647 217.649 327.195 218.364C330.101 218.886 332.972 219.584 335.794 220.455C343.604 222.692 352.442 225.222 360.051 220.895C363.184 219.056 366.416 217.391 369.732 215.908C381.99 226.694 390.68 240.952 394.649 256.791C398.618 272.63 397.678 289.301 391.953 304.594H391.88Z" fill="black"/>
<path d="M275.142 244.254C266.396 256.226 243.697 276.651 235.795 279.09C235.372 265.626 238.318 252.27 244.366 240.234C250.415 228.198 259.374 217.864 270.429 210.169C272.014 210.893 273.252 212.209 273.876 213.836C274.701 216.256 273.876 219.483 271.64 223.462C269.549 227.037 268.871 229.787 269.531 232.116C269.981 233.254 270.663 234.285 271.534 235.144C272.406 236.003 273.447 236.67 274.591 237.103C275.912 237.818 277.158 238.478 277.36 239.321C277.488 239.798 277.36 241.192 275.142 244.254ZM331.008 315.76C331.961 307.307 331.265 296.526 322.666 293.098C317.79 291.437 313.663 288.097 311.023 283.674C309.501 281.327 309.189 280.887 306.201 281.84C303.395 282.78 300.682 283.977 298.097 285.415C293.476 287.817 289.113 290.091 283.777 288.716C283.447 288.637 283.108 288.6 282.769 288.606C278.35 288.606 267.276 293.116 265.021 299.405C262.765 305.694 271.108 311.066 278.497 314.476C282.287 316.193 285.888 318.3 289.241 320.765C290.23 321.543 291.3 322.213 292.431 322.764L292.926 322.965C297.638 324.799 301.764 327.806 300.462 342.932C300.004 348.433 301.03 352.338 303.359 353.933C305.192 355.198 308.126 354.996 311.243 353.383C314.482 351.608 317.212 349.034 319.173 345.904C321.134 342.775 322.261 339.195 322.446 335.506C322.739 324.726 325.434 321.865 328.661 319.445C329.338 319.087 329.911 318.559 330.322 317.913C330.733 317.267 330.97 316.525 331.008 315.76ZM391.917 304.575C397.63 289.277 398.567 272.605 394.602 256.764C390.638 240.922 381.959 226.656 369.713 215.853C366.393 217.348 363.156 219.019 360.014 220.858C352.405 225.185 343.512 222.692 335.757 220.418C332.936 219.547 330.064 218.849 327.158 218.328C322.611 217.613 316.963 218.585 315.478 221.793C314.947 222.93 314.342 224.103 313.645 225.332C310.821 230.832 307.631 236.956 309.666 243.392C312.49 252.303 331.375 254.594 338.562 254.723C338.947 254.723 340.084 254.613 341.716 254.613C348.665 254.613 364.598 256.226 369.841 270.472C374.04 281.822 385.518 296.765 391.917 304.575Z" fill="#70D44B"/>
<path d="M77.6928 98.216C76.6048 98.216 75.5648 98.04 74.5728 97.688C73.5808 97.336 72.7408 96.84 72.0528 96.2L72.7968 94.64C74.2848 95.856 75.9088 96.464 77.6688 96.464C78.8368 96.464 79.7568 96.136 80.4288 95.48C81.1008 94.824 81.4368 93.96 81.4368 92.888C81.4368 91.784 81.1168 90.88 80.4768 90.176C79.8368 89.472 78.9568 89.12 77.8368 89.12C76.2208 89.12 74.9488 89.792 74.0208 91.136H72.5808V81.08H82.3968V82.76H74.5248V88.808C75.4528 87.88 76.6768 87.416 78.1968 87.416C79.2528 87.416 80.1728 87.64 80.9568 88.088C81.7408 88.536 82.3408 89.168 82.7568 89.984C83.1888 90.784 83.4048 91.72 83.4048 92.792C83.4048 93.848 83.1728 94.784 82.7088 95.6C82.2448 96.416 81.5808 97.056 80.7168 97.52C79.8688 97.984 78.8608 98.216 77.6928 98.216ZM86.3474 102.32V86.336H88.2434V88.424C88.5954 87.704 89.1154 87.144 89.8034 86.744C90.5074 86.328 91.3234 86.12 92.2514 86.12C93.2914 86.12 94.1954 86.368 94.9634 86.864C95.7474 87.344 96.3474 88.04 96.7634 88.952C97.1954 89.848 97.4114 90.92 97.4114 92.168C97.4114 93.4 97.1954 94.472 96.7634 95.384C96.3474 96.28 95.7474 96.976 94.9634 97.472C94.1954 97.968 93.2914 98.216 92.2514 98.216C91.3554 98.216 90.5554 98.016 89.8514 97.616C89.1474 97.216 88.6274 96.664 88.2914 95.96V102.32H86.3474ZM91.8434 96.656C92.9314 96.656 93.8034 96.272 94.4594 95.504C95.1154 94.72 95.4434 93.608 95.4434 92.168C95.4434 90.712 95.1154 89.6 94.4594 88.832C93.8034 88.064 92.9314 87.68 91.8434 87.68C90.7554 87.68 89.8834 88.064 89.2274 88.832C88.5714 89.6 88.2434 90.712 88.2434 92.168C88.2434 93.608 88.5714 94.72 89.2274 95.504C89.8834 96.272 90.7554 96.656 91.8434 96.656ZM98.5938 98L103.442 91.976L98.8818 86.336H101.186L104.57 90.632L107.978 86.336H110.258L105.698 91.976L110.546 98H108.242L104.546 93.368L100.898 98H98.5938Z" fill="black"/>
</svg>
