<svg width="150" height="151" viewBox="0 0 150 151" fill="none" xmlns="http://www.w3.org/2000/svg">
<rect width="150" height="150" transform="translate(0 0.692383)" fill="white"/>
<path d="M41.0861 9.02563L40.0516 10.8174L42.1206 10.8174L41.0861 9.02563ZM41.0861 116.533L42.1206 114.741L40.0516 114.741L41.0861 116.533ZM40.9069 12.2509L40.9069 14.401L41.2653 14.401L41.2653 12.2509L40.9069 12.2509ZM40.9069 16.5512L40.9069 18.7013L41.2653 18.7013L41.2653 16.5512L40.9069 16.5512ZM40.9069 20.8515L40.9069 23.0016L41.2653 23.0016L41.2653 20.8515L40.9069 20.8515ZM40.9069 25.1518L40.9069 27.3019L41.2653 27.3019L41.2653 25.1518L40.9069 25.1518ZM40.9069 29.4521L40.9069 31.6022L41.2653 31.6022L41.2653 29.4521L40.9069 29.4521ZM40.9069 33.7524L40.9069 35.9025L41.2653 35.9025L41.2653 33.7524L40.9069 33.7524ZM40.9069 38.0527L40.9069 40.2028L41.2653 40.2028L41.2653 38.0527L40.9069 38.0527ZM40.9069 42.353L40.9069 44.5032L41.2653 44.5032L41.2653 42.353L40.9069 42.353ZM40.9069 46.6533L40.9069 48.8035L41.2653 48.8035L41.2653 46.6533L40.9069 46.6533ZM40.9069 50.9536L40.9069 53.1038L41.2653 53.1038L41.2653 50.9536L40.9069 50.9536ZM40.9069 55.2539L40.9069 57.4041L41.2653 57.4041L41.2653 55.2539L40.9069 55.2539ZM40.9069 59.5542L40.9069 61.7044L41.2653 61.7044L41.2653 59.5542L40.9069 59.5542ZM40.9069 63.8545L40.9069 66.0047L41.2653 66.0047L41.2653 63.8545L40.9069 63.8545ZM40.9069 68.1548L40.9069 70.305L41.2653 70.305L41.2653 68.1548L40.9069 68.1548ZM40.9069 72.4552L40.9069 74.6053L41.2653 74.6053L41.2653 72.4552L40.9069 72.4552ZM40.9069 76.7555L40.9069 78.9056L41.2653 78.9056L41.2653 76.7555L40.9069 76.7555ZM40.9069 81.0558L40.9069 83.2059L41.2653 83.2059L41.2653 81.0558L40.9069 81.0558ZM40.9069 85.3561L40.9069 87.5062L41.2653 87.5062L41.2653 85.3561L40.9069 85.3561ZM40.9069 89.6564L40.9069 91.8065L41.2653 91.8065L41.2653 89.6564L40.9069 89.6564ZM40.9069 93.9567L40.9069 96.1068L41.2653 96.1068L41.2653 93.9567L40.9069 93.9567ZM40.9069 98.257L40.9069 100.407L41.2653 100.407L41.2653 98.257L40.9069 98.257ZM40.9069 102.557L40.9069 104.707L41.2653 104.707L41.2653 102.557L40.9069 102.557ZM40.9069 106.858L40.9069 109.008L41.2653 109.008L41.2653 106.858L40.9069 106.858ZM40.9069 111.158L40.9069 113.308L41.2653 113.308L41.2653 111.158L40.9069 111.158Z" fill="#494949"/>
<path d="M51.1202 123.7L52.9158 124.728L52.9082 122.659L51.1202 123.7ZM147.877 123.342L146.081 122.314L146.089 124.383L147.877 123.342ZM52.1726 123.876L52.3518 123.875L52.3504 123.517L52.1713 123.517L52.1726 123.876ZM54.2747 123.51L54.0955 123.51L54.0968 123.869L54.276 123.868L54.2747 123.51ZM56.3794 123.86L56.5586 123.859L56.5573 123.501L56.3781 123.502L56.3794 123.86ZM58.4815 123.494L58.3023 123.495L58.3036 123.853L58.4828 123.852L58.4815 123.494ZM60.5862 123.845L60.7654 123.844L60.7641 123.486L60.5849 123.486L60.5862 123.845ZM62.6883 123.478L62.5091 123.479L62.5105 123.837L62.6896 123.837L62.6883 123.478ZM64.793 123.829L64.9722 123.828L64.9709 123.47L64.7917 123.471L64.793 123.829ZM66.8951 123.463L66.716 123.463L66.7173 123.822L66.8965 123.821L66.8951 123.463ZM68.9999 123.813L69.179 123.813L69.1777 123.454L68.9985 123.455L68.9999 123.813ZM71.102 123.447L70.9228 123.448L70.9241 123.806L71.1033 123.806L71.102 123.447ZM73.2067 123.798L73.3859 123.797L73.3845 123.439L73.2054 123.439L73.2067 123.798ZM75.3088 123.432L75.1296 123.432L75.1309 123.791L75.3101 123.79L75.3088 123.432ZM77.4135 123.782L77.5927 123.782L77.5914 123.423L77.4122 123.424L77.4135 123.782ZM79.5156 123.416L79.3364 123.417L79.3377 123.775L79.5169 123.774L79.5156 123.416ZM81.6203 123.767L81.7995 123.766L81.7982 123.408L81.619 123.408L81.6203 123.767ZM83.7224 123.401L83.5432 123.401L83.5446 123.76L83.7237 123.759L83.7224 123.401ZM85.8271 123.751L86.0063 123.75L86.005 123.392L85.8258 123.393L85.8271 123.751ZM87.9292 123.385L87.7501 123.386L87.7514 123.744L87.9306 123.743L87.9292 123.385ZM90.034 123.735L90.2131 123.735L90.2118 123.376L90.0326 123.377L90.034 123.735ZM92.136 123.369L91.9569 123.37L91.9582 123.728L92.1374 123.728L92.136 123.369ZM94.2408 123.72L94.42 123.719L94.4186 123.361L94.2395 123.362L94.2408 123.72ZM96.3429 123.354L96.1637 123.354L96.165 123.713L96.3442 123.712L96.3429 123.354ZM98.4476 123.704L98.6268 123.704L98.6255 123.345L98.4463 123.346L98.4476 123.704ZM100.55 123.338L100.371 123.339L100.372 123.697L100.551 123.697L100.55 123.338ZM102.654 123.689L102.834 123.688L102.832 123.33L102.653 123.33L102.654 123.689ZM104.757 123.323L104.577 123.323L104.579 123.682L104.758 123.681L104.757 123.323ZM106.861 123.673L107.04 123.673L107.039 123.314L106.86 123.315L106.861 123.673ZM108.963 123.307L108.784 123.308L108.785 123.666L108.965 123.665L108.963 123.307ZM111.068 123.658L111.247 123.657L111.246 123.299L111.067 123.299L111.068 123.658ZM113.17 123.291L112.991 123.292L112.992 123.65L113.171 123.65L113.17 123.291ZM115.275 123.642L115.454 123.641L115.453 123.283L115.274 123.284L115.275 123.642ZM117.377 123.276L117.198 123.277L117.199 123.635L117.378 123.634L117.377 123.276ZM119.482 123.626L119.661 123.626L119.66 123.267L119.48 123.268L119.482 123.626ZM121.584 123.26L121.405 123.261L121.406 123.619L121.585 123.619L121.584 123.26ZM123.689 123.611L123.868 123.61L123.866 123.252L123.687 123.252L123.689 123.611ZM125.791 123.245L125.611 123.245L125.613 123.604L125.792 123.603L125.791 123.245ZM127.895 123.595L128.075 123.595L128.073 123.236L127.894 123.237L127.895 123.595ZM129.997 123.229L129.818 123.23L129.82 123.588L129.999 123.587L129.997 123.229ZM132.102 123.58L132.281 123.579L132.28 123.221L132.101 123.221L132.102 123.58ZM134.204 123.214L134.025 123.214L134.026 123.573L134.206 123.572L134.204 123.214ZM136.309 123.564L136.488 123.563L136.487 123.205L136.308 123.206L136.309 123.564ZM138.411 123.198L138.232 123.199L138.233 123.557L138.412 123.556L138.411 123.198ZM140.516 123.549L140.695 123.548L140.694 123.19L140.514 123.19L140.516 123.549ZM142.618 123.182L142.439 123.183L142.44 123.541L142.619 123.541L142.618 123.182ZM144.723 123.533L144.902 123.532L144.9 123.174L144.721 123.175L144.723 123.533ZM146.825 123.167L146.646 123.167L146.647 123.526L146.826 123.525L146.825 123.167ZM54.276 123.868L56.3794 123.86L56.3781 123.502L54.2747 123.51L54.276 123.868ZM58.4828 123.852L60.5862 123.845L60.5849 123.486L58.4815 123.494L58.4828 123.852ZM62.6896 123.837L64.793 123.829L64.7917 123.471L62.6883 123.478L62.6896 123.837ZM66.8965 123.821L68.9999 123.813L68.9985 123.455L66.8951 123.463L66.8965 123.821ZM71.1033 123.806L73.2067 123.798L73.2054 123.439L71.102 123.447L71.1033 123.806ZM75.3101 123.79L77.4135 123.782L77.4122 123.424L75.3088 123.432L75.3101 123.79ZM79.5169 123.774L81.6203 123.767L81.619 123.408L79.5156 123.416L79.5169 123.774ZM83.7237 123.759L85.8271 123.751L85.8258 123.393L83.7224 123.401L83.7237 123.759ZM87.9306 123.743L90.034 123.735L90.0326 123.377L87.9292 123.385L87.9306 123.743ZM92.1374 123.728L94.2408 123.72L94.2395 123.362L92.136 123.369L92.1374 123.728ZM96.3442 123.712L98.4476 123.704L98.4463 123.346L96.3429 123.354L96.3442 123.712ZM100.551 123.697L102.654 123.689L102.653 123.33L100.55 123.338L100.551 123.697ZM104.758 123.681L106.861 123.673L106.86 123.315L104.757 123.323L104.758 123.681ZM108.965 123.665L111.068 123.658L111.067 123.299L108.963 123.307L108.965 123.665ZM113.171 123.65L115.275 123.642L115.274 123.284L113.17 123.291L113.171 123.65ZM117.378 123.634L119.482 123.626L119.48 123.268L117.377 123.276L117.378 123.634ZM121.585 123.619L123.689 123.611L123.687 123.252L121.584 123.26L121.585 123.619ZM125.792 123.603L127.895 123.595L127.894 123.237L125.791 123.245L125.792 123.603ZM129.999 123.587L132.102 123.58L132.101 123.221L129.997 123.229L129.999 123.587ZM134.206 123.572L136.309 123.564L136.308 123.206L134.204 123.214L134.206 123.572ZM138.412 123.556L140.516 123.549L140.514 123.19L138.411 123.198L138.412 123.556ZM142.619 123.541L144.723 123.533L144.721 123.175L142.618 123.182L142.619 123.541Z" fill="#494949"/>
<path d="M92.8154 139.587C92.414 139.587 92.0327 139.526 91.6715 139.406C91.3103 139.28 91.0064 139.099 90.7598 138.864L91.0179 138.305C91.2988 138.535 91.5826 138.701 91.8693 138.804C92.156 138.907 92.4656 138.959 92.7982 138.959C93.234 138.959 93.5665 138.864 93.7959 138.675C94.0309 138.48 94.1485 138.196 94.1485 137.824C94.1485 137.468 94.0309 137.199 93.7959 137.015C93.5608 136.832 93.2196 136.74 92.7724 136.74H91.8779V136.129H92.7122C93.1021 136.129 93.4088 136.029 93.6324 135.828C93.8618 135.622 93.9765 135.341 93.9765 134.985C93.9765 134.67 93.8704 134.426 93.6582 134.254C93.4518 134.082 93.1565 133.996 92.7724 133.996C92.1417 133.996 91.5912 134.226 91.1211 134.684L90.8631 134.134C91.0867 133.893 91.3705 133.707 91.7145 133.575C92.0643 133.437 92.4312 133.368 92.8154 133.368C93.4002 133.368 93.8561 133.506 94.1829 133.781C94.5154 134.056 94.6817 134.438 94.6817 134.925C94.6817 135.263 94.5957 135.562 94.4237 135.82C94.2517 136.072 94.0137 136.255 93.7099 136.37C94.0711 136.468 94.352 136.648 94.5527 136.912C94.7534 137.17 94.8537 137.491 94.8537 137.875C94.8537 138.397 94.6703 138.813 94.3033 139.122C93.9421 139.432 93.4461 139.587 92.8154 139.587ZM98.0412 139.587C97.3474 139.587 96.8199 139.32 96.4587 138.787C96.0975 138.254 95.9168 137.482 95.9168 136.473C95.9168 135.458 96.0975 134.687 96.4587 134.16C96.8199 133.632 97.3474 133.368 98.0412 133.368C98.7407 133.368 99.2682 133.632 99.6237 134.16C99.9849 134.681 100.166 135.45 100.166 136.465C100.166 137.48 99.9821 138.254 99.6151 138.787C99.2539 139.32 98.7292 139.587 98.0412 139.587ZM98.0412 138.976C98.5228 138.976 98.8783 138.772 99.1077 138.365C99.3428 137.958 99.4603 137.325 99.4603 136.465C99.4603 135.605 99.3456 134.977 99.1163 134.581C98.8869 134.18 98.5286 133.979 98.0412 133.979C97.5596 133.979 97.2012 134.18 96.9661 134.581C96.7368 134.982 96.6221 135.61 96.6221 136.465C96.6221 137.325 96.7368 137.958 96.9661 138.365C97.2012 138.772 97.5596 138.976 98.0412 138.976ZM101.272 141.057V135.329H101.951V136.078C102.077 135.82 102.264 135.619 102.51 135.476C102.762 135.327 103.055 135.252 103.387 135.252C103.76 135.252 104.084 135.341 104.359 135.519C104.64 135.691 104.855 135.94 105.004 136.267C105.159 136.588 105.237 136.972 105.237 137.419C105.237 137.861 105.159 138.245 105.004 138.572C104.855 138.893 104.64 139.142 104.359 139.32C104.084 139.498 103.76 139.587 103.387 139.587C103.066 139.587 102.78 139.515 102.527 139.372C102.275 139.228 102.089 139.031 101.968 138.778V141.057H101.272ZM103.241 139.028C103.631 139.028 103.944 138.89 104.179 138.615C104.414 138.334 104.531 137.935 104.531 137.419C104.531 136.898 104.414 136.499 104.179 136.224C103.944 135.949 103.631 135.811 103.241 135.811C102.851 135.811 102.539 135.949 102.304 136.224C102.069 136.499 101.951 136.898 101.951 137.419C101.951 137.935 102.069 138.334 102.304 138.615C102.539 138.89 102.851 139.028 103.241 139.028ZM105.66 139.509L107.398 137.351L105.763 135.329H106.589L107.802 136.869L109.023 135.329H109.84L108.206 137.351L109.943 139.509H109.118L107.793 137.849L106.486 139.509H105.66Z" fill="black"/>
<path d="M4.66529 66.1231C4.26393 66.1231 3.88263 66.0629 3.52141 65.9424C3.16018 65.8163 2.85629 65.6357 2.60974 65.4006L2.86776 64.8416C3.14871 65.0709 3.43253 65.2372 3.71922 65.3404C4.00591 65.4436 4.31553 65.4952 4.64809 65.4952C5.08385 65.4952 5.41641 65.4006 5.64576 65.2114C5.88084 65.0164 5.99838 64.7326 5.99838 64.3599C5.99838 64.0044 5.88084 63.735 5.64576 63.5515C5.41068 63.368 5.06952 63.2763 4.62229 63.2763H3.72782V62.6656H4.56208C4.95198 62.6656 5.25873 62.5653 5.48235 62.3646C5.7117 62.1582 5.82637 61.8772 5.82637 61.5217C5.82637 61.2064 5.7203 60.9627 5.50815 60.7907C5.30173 60.6187 5.00645 60.5327 4.62229 60.5327C3.99157 60.5327 3.44114 60.762 2.97097 61.2207L2.71295 60.6703C2.93657 60.4295 3.22039 60.2431 3.56441 60.1112C3.91417 59.9736 4.28113 59.9048 4.66529 59.9048C5.25013 59.9048 5.70596 60.0424 6.03279 60.3176C6.36534 60.5929 6.53162 60.9742 6.53162 61.4615C6.53162 61.7998 6.44562 62.098 6.2736 62.356C6.10159 62.6083 5.86364 62.7918 5.55975 62.9064C5.92098 63.0039 6.20193 63.1845 6.40261 63.4483C6.60329 63.7063 6.70363 64.0274 6.70363 64.4115C6.70363 64.9333 6.52015 65.349 6.15319 65.6586C5.79197 65.9682 5.296 66.1231 4.66529 66.1231ZM9.8223 66.1231C9.42093 66.1231 9.03964 66.0629 8.67841 65.9424C8.31719 65.8163 8.0133 65.6357 7.76675 65.4006L8.02477 64.8416C8.30572 65.0709 8.58954 65.2372 8.87623 65.3404C9.16292 65.4436 9.47254 65.4952 9.80509 65.4952C10.2409 65.4952 10.5734 65.4006 10.8028 65.2114C11.0378 65.0164 11.1554 64.7326 11.1554 64.3599C11.1554 64.0044 11.0378 63.735 10.8028 63.5515C10.5677 63.368 10.2265 63.2763 9.77929 63.2763H8.88483V62.6656H9.71909C10.109 62.6656 10.4157 62.5653 10.6394 62.3646C10.8687 62.1582 10.9834 61.8772 10.9834 61.5217C10.9834 61.2064 10.8773 60.9627 10.6652 60.7907C10.4587 60.6187 10.1635 60.5327 9.77929 60.5327C9.14858 60.5327 8.59814 60.762 8.12798 61.2207L7.86996 60.6703C8.09357 60.4295 8.37739 60.2431 8.72142 60.1112C9.07118 59.9736 9.43814 59.9048 9.8223 59.9048C10.4071 59.9048 10.863 60.0424 11.1898 60.3176C11.5223 60.5929 11.6886 60.9742 11.6886 61.4615C11.6886 61.7998 11.6026 62.098 11.4306 62.356C11.2586 62.6083 11.0206 62.7918 10.7168 62.9064C11.078 63.0039 11.3589 63.1845 11.5596 63.4483C11.7603 63.7063 11.8606 64.0274 11.8606 64.4115C11.8606 64.9333 11.6772 65.349 11.3102 65.6586C10.949 65.9682 10.453 66.1231 9.8223 66.1231ZM13.0098 66.0457V65.1684H13.887V66.0457H13.0098ZM16.9363 66.1231C16.5349 66.1231 16.1536 66.0629 15.7924 65.9424C15.4312 65.8163 15.1273 65.6357 14.8807 65.4006L15.1387 64.8416C15.4197 65.0709 15.7035 65.2372 15.9902 65.3404C16.2769 65.4436 16.5865 65.4952 16.9191 65.4952C17.3548 65.4952 17.6874 65.4006 17.9167 65.2114C18.1518 65.0164 18.2694 64.7326 18.2694 64.3599C18.2694 64.0044 18.1518 63.735 17.9167 63.5515C17.6817 63.368 17.3405 63.2763 16.8933 63.2763H15.9988V62.6656H16.8331C17.223 62.6656 17.5297 62.5653 17.7533 62.3646C17.9827 62.1582 18.0974 61.8772 18.0974 61.5217C18.0974 61.2064 17.9913 60.9627 17.7791 60.7907C17.5727 60.6187 17.2774 60.5327 16.8933 60.5327C16.2626 60.5327 15.7121 60.762 15.242 61.2207L14.9839 60.6703C15.2076 60.4295 15.4914 60.2431 15.8354 60.1112C16.1852 59.9736 16.5521 59.9048 16.9363 59.9048C17.5211 59.9048 17.977 60.0424 18.3038 60.3176C18.6363 60.5929 18.8026 60.9742 18.8026 61.4615C18.8026 61.7998 18.7166 62.098 18.5446 62.356C18.3726 62.6083 18.1346 62.7918 17.8307 62.9064C18.192 63.0039 18.4729 63.1845 18.6736 63.4483C18.8743 63.7063 18.9746 64.0274 18.9746 64.4115C18.9746 64.9333 18.7911 65.349 18.4242 65.6586C18.063 65.9682 17.567 66.1231 16.9363 66.1231ZM22.2911 66.1231C21.9012 66.1231 21.5285 66.06 21.173 65.9338C20.8175 65.8077 20.5165 65.63 20.27 65.4006L20.5366 64.8416C21.0698 65.2773 21.6518 65.4952 22.2825 65.4952C22.7011 65.4952 23.0308 65.3777 23.2716 65.1426C23.5124 64.9075 23.6328 64.5979 23.6328 64.2137C23.6328 63.8181 23.5181 63.4941 23.2888 63.2419C23.0594 62.9896 22.7441 62.8634 22.3427 62.8634C21.7636 62.8634 21.3078 63.1042 20.9752 63.5859H20.4592V59.9822H23.9768V60.5843H21.1558V62.7516C21.4884 62.4191 21.927 62.2528 22.4717 62.2528C22.8501 62.2528 23.1798 62.3331 23.4608 62.4936C23.7417 62.6541 23.9568 62.8806 24.1058 63.1731C24.2606 63.4597 24.338 63.7952 24.338 64.1793C24.338 64.5577 24.2549 64.8932 24.0886 65.1856C23.9223 65.478 23.6844 65.7074 23.3748 65.8736C23.0709 66.0399 22.7097 66.1231 22.2911 66.1231ZM25.3926 67.5938V61.8658H26.072V62.614C26.1981 62.356 26.3845 62.1553 26.631 62.012C26.8833 61.8629 27.1758 61.7884 27.5083 61.7884C27.881 61.7884 28.205 61.8772 28.4802 62.055C28.7611 62.227 28.9761 62.4764 29.1252 62.8032C29.28 63.1243 29.3574 63.5085 29.3574 63.9557C29.3574 64.3972 29.28 64.7814 29.1252 65.1082C28.9761 65.4293 28.7611 65.6787 28.4802 65.8564C28.205 66.0342 27.881 66.1231 27.5083 66.1231C27.1872 66.1231 26.9005 66.0514 26.6482 65.908C26.396 65.7647 26.2096 65.5669 26.0892 65.3146V67.5938H25.3926ZM27.3621 65.564C27.752 65.564 28.0645 65.4264 28.2996 65.1512C28.5346 64.8702 28.6522 64.4717 28.6522 63.9557C28.6522 63.4339 28.5346 63.0354 28.2996 62.7602C28.0645 62.485 27.752 62.3474 27.3621 62.3474C26.9722 62.3474 26.6597 62.485 26.4246 62.7602C26.1895 63.0354 26.072 63.4339 26.072 63.9557C26.072 64.4717 26.1895 64.8702 26.4246 65.1512C26.6597 65.4264 26.9722 65.564 27.3621 65.564ZM29.7812 66.0457L31.5185 63.8869L29.8844 61.8658H30.71L31.9227 63.4053L33.144 61.8658H33.9611L32.3269 63.8869L34.0643 66.0457H33.2386L31.9141 64.3857L30.6068 66.0457H29.7812Z" fill="black"/>
<path d="M71.5456 35.322C71.5104 35.0302 71.4048 34.7513 71.2379 34.5093C71.071 34.2674 70.8478 34.0696 70.5875 33.9329C68.8003 32.9814 66.8068 32.4827 64.7819 32.4805C62.7666 32.4868 60.7823 32.9762 58.9953 33.9076C57.1715 34.8586 55.6112 36.2458 54.4535 37.9456C53.2958 39.6454 52.5766 41.605 52.3599 43.6499C52.1432 45.6948 52.4358 47.7616 53.2116 49.6661C53.9874 51.5706 55.2223 53.2538 56.8063 54.5657C57.043 54.7639 57.3244 54.9014 57.6262 54.9666C57.9279 55.0318 58.241 55.0227 58.5385 54.9399C58.8309 54.861 59.0994 54.7116 59.3207 54.5048C59.5419 54.298 59.709 54.0402 59.8075 53.7539C62.1028 47.3446 65.9196 41.5878 70.9301 36.9774C71.1589 36.7718 71.3344 36.5137 71.4416 36.2254C71.5488 35.9371 71.5845 35.6271 71.5456 35.322Z" fill="#FFAB4D"/>
<path d="M71.1839 32.8103C68.177 31.2314 64.6919 30.8209 61.4002 31.658C58.1085 32.4951 55.2433 34.5205 53.3567 37.3439C51.4701 40.1673 50.6957 43.5888 51.1827 46.9491C51.6696 50.3093 53.3836 53.3704 55.9942 55.5425C56.5687 56.018 57.2913 56.2782 58.0372 56.2783C58.69 56.2775 59.3266 56.0755 59.8603 55.6998C60.394 55.3241 60.7987 54.7929 61.0193 54.1788C63.2432 47.9624 66.9449 42.3792 71.8057 37.9098C72.1819 37.5654 72.4695 37.1353 72.644 36.6561C72.8185 36.1769 72.8748 35.6627 72.8082 35.1571C72.7473 34.6638 72.5677 34.1927 72.2848 33.784C72.0019 33.3753 71.6242 33.0412 71.1839 32.8103ZM59.8201 53.7412C59.7217 54.0275 59.5546 54.2854 59.3334 54.4921C59.1121 54.6989 58.8435 54.8483 58.5512 54.9273C58.2537 55.01 57.9406 55.0192 57.6389 54.954C57.3371 54.8888 57.0557 54.7512 56.819 54.553C55.2349 53.2411 54 51.5579 53.2243 49.6534C52.4485 47.7489 52.1559 45.6822 52.3726 43.6373C52.5893 41.5923 53.3085 39.6327 54.4662 37.933C55.6239 36.2332 57.1842 34.846 59.008 33.8949C60.7949 32.9635 62.7793 32.4741 64.7946 32.4678C66.8195 32.47 68.8129 32.9687 70.6002 33.9203C70.8605 34.0569 71.0837 34.2547 71.2506 34.4967C71.4175 34.7386 71.5231 35.0175 71.5583 35.3093C71.5949 35.616 71.5562 35.927 71.4457 36.2154C71.3351 36.5038 71.156 36.761 70.9238 36.9648C65.9184 41.5808 62.1082 47.342 59.8201 53.7539V53.7412Z" fill="black"/>
<path d="M110.408 15.7421C109.288 15.7429 108.174 15.8987 107.096 16.2051C105.292 16.708 103.625 17.6122 102.22 18.85C100.814 20.0879 99.7072 21.6274 98.9811 23.3533C98.853 23.643 98.7992 23.96 98.8247 24.2757C98.8502 24.5913 98.9541 24.8956 99.127 25.161C99.2893 25.417 99.5117 25.6294 99.7749 25.7797C100.038 25.9301 100.334 26.0138 100.637 26.0236C107.434 26.2714 114.07 28.1627 119.976 31.5354C120.247 31.6919 120.551 31.7795 120.863 31.7905C121.175 31.8016 121.485 31.7358 121.766 31.5988C122.044 31.4663 122.285 31.2684 122.47 31.022C122.654 30.7757 122.776 30.4883 122.825 30.1844C123.111 28.3946 123.003 26.5639 122.51 24.8199C122.016 23.076 121.148 21.4604 119.966 20.0859C118.784 18.7113 117.317 17.6106 115.666 16.8604C114.016 16.1103 112.221 15.7287 110.408 15.7421Z" fill="#FFA44B"/>
<path d="M122.844 22.1736C121.418 19.2896 119.032 16.9915 116.097 15.6734C113.161 14.3552 109.858 14.0992 106.754 14.9493C104.763 15.5064 102.925 16.5061 101.376 17.8735C99.8267 19.2409 98.6067 20.9408 97.8073 22.8459C97.6043 23.3269 97.5208 23.8498 97.5639 24.37C97.607 24.8902 97.7754 25.3923 98.0547 25.8333C98.3269 26.2638 98.7006 26.6208 99.1432 26.8729C99.5857 27.1251 100.084 27.2647 100.593 27.2795C107.185 27.5172 113.622 29.3521 119.348 32.6264C119.793 32.8797 120.293 33.0217 120.804 33.0401C121.316 33.0586 121.824 32.953 122.286 32.7324C122.748 32.5118 123.15 32.1827 123.457 31.7733C123.764 31.3638 123.968 30.8861 124.05 30.381C124.505 27.5864 124.084 24.7195 122.844 22.1736ZM122.8 30.1781C122.754 30.4805 122.637 30.7676 122.457 31.0149C122.277 31.2623 122.04 31.4626 121.766 31.5988C121.488 31.7305 121.182 31.7929 120.875 31.7807C120.568 31.7686 120.268 31.6822 120.002 31.5291C114.096 28.1563 107.46 26.265 100.662 26.0173C100.359 26.0075 100.064 25.9237 99.8003 25.7734C99.5371 25.623 99.3146 25.4106 99.1524 25.1547C98.9795 24.8893 98.8756 24.585 98.8501 24.2693C98.8246 23.9537 98.8784 23.6366 99.0065 23.347C99.7302 21.6175 100.836 20.0743 102.242 18.833C103.647 17.5917 105.316 16.6846 107.122 16.1797C108.199 15.8733 109.314 15.7175 110.434 15.7167C112.247 15.7064 114.041 16.0912 115.691 16.8445C117.34 17.5978 118.806 18.7013 119.985 20.0784C121.165 21.4555 122.03 23.073 122.52 24.8183C123.011 26.5636 123.115 28.3948 122.825 30.1844L122.8 30.1781Z" fill="black"/>
<path d="M139.982 87.8458L132.051 84.1797L132.33 83.6025C135.474 77.0266 136.589 69.664 135.534 62.4523C134.478 55.2406 131.299 48.5061 126.402 43.1064C121.505 37.7066 115.111 33.886 108.035 32.1309C100.958 30.3759 93.5193 30.7658 86.6652 33.2512C79.8111 35.7365 73.852 40.2047 69.5467 46.0868C65.2414 51.969 62.7847 58.9989 62.4894 66.2814C62.1941 73.5639 64.0736 80.7695 67.8886 86.9807C71.7036 93.1918 77.2814 98.1275 83.9118 101.159L84.4892 101.426L80.6823 109.627C80.3533 110.347 80.322 111.168 80.5952 111.912C80.8685 112.655 81.4242 113.261 82.1416 113.597L85.4283 115.113C86.1491 115.442 86.9706 115.473 87.7143 115.2C88.458 114.927 89.0639 114.371 89.4002 113.654L93.8416 104.108L94.3112 104.172C100.239 104.976 106.274 104.323 111.893 102.269C117.411 100.256 122.356 96.9323 126.302 92.5838L126.62 92.2413L135.972 96.567C136.693 96.8959 137.514 96.9272 138.258 96.654C139.002 96.3809 139.608 95.8254 139.944 95.1082L141.46 91.8227C141.789 91.1021 141.821 90.2809 141.547 89.5375C141.274 88.794 140.718 88.1884 140.001 87.8522L139.982 87.8458ZM126.334 78.8772L126.188 79.2324C123.633 85.3046 119.098 90.3336 113.32 93.5013C107.542 96.669 100.862 97.7889 94.366 96.6788C87.8705 95.5686 81.9419 92.2938 77.545 87.3871C73.1481 82.4805 70.5416 76.2308 70.1497 69.655V68.9129C70.0085 64.187 71.0154 59.4973 73.084 55.2456C75.1526 50.9938 78.2214 47.3066 82.0274 44.4998L82.9728 43.8148C84.927 42.513 87.0292 41.4484 89.2352 40.6435C94.1069 38.8605 99.3654 38.4055 104.471 39.3251C109.577 40.2447 114.346 42.5057 118.289 45.8762L119.063 46.5802C123.418 50.5875 126.448 55.826 127.751 61.598C129.053 67.3701 128.566 73.4018 126.353 78.8899L126.334 78.8772Z" fill="#FF6C37"/>
<path d="M142.704 89.0953C142.513 88.5696 142.219 88.087 141.84 87.6755C141.461 87.264 141.004 86.9316 140.496 86.6978L133.726 83.5645C136.838 76.758 137.869 69.184 136.69 61.7936C135.511 54.4032 132.174 47.5258 127.098 42.0248C122.022 36.5238 115.434 32.6445 108.16 30.8739C100.886 29.1034 93.2507 29.5205 86.2131 32.0729C79.1755 34.6253 73.0491 39.1992 68.603 45.2204C64.157 51.2416 61.5896 58.4416 61.2231 65.9165C60.8566 73.3913 62.7073 80.8078 66.543 87.2348C70.3787 93.6617 76.0283 98.8126 82.7824 102.041L79.5212 109.094C79.0513 110.12 79.0057 111.29 79.3943 112.349C79.7828 113.409 80.574 114.272 81.5959 114.752L84.8826 116.267C85.3897 116.503 85.9386 116.636 86.4974 116.657C87.0561 116.679 87.6137 116.59 88.1376 116.394C88.664 116.204 89.1472 115.911 89.559 115.532C89.9708 115.153 90.3029 114.696 90.5359 114.187L94.565 105.491C100.553 106.224 106.629 105.524 112.293 103.449C117.854 101.423 122.855 98.1083 126.886 93.7762L135.401 97.7087C136.426 98.1781 137.596 98.2235 138.655 97.835C139.714 97.4466 140.576 96.6557 141.054 95.6346L142.577 92.3491C142.813 91.8421 142.945 91.2935 142.967 90.7349C142.989 90.1764 142.899 89.6191 142.704 89.0953ZM141.435 91.8163L139.919 95.1019C139.582 95.819 138.976 96.3745 138.233 96.6477C137.489 96.9208 136.667 96.8896 135.947 96.5607L126.594 92.235L126.277 92.5775C122.33 96.926 117.385 100.25 111.868 102.263C106.249 104.316 100.214 104.969 94.2858 104.166L93.8163 104.102L89.3748 113.648C89.0385 114.365 88.4326 114.921 87.6889 115.194C86.9452 115.467 86.1237 115.436 85.4029 115.107L82.1162 113.591C81.3988 113.255 80.8431 112.649 80.5699 111.906C80.2966 111.162 80.3279 110.341 80.6569 109.62L84.4638 101.419L83.8865 101.153C77.2573 98.1169 71.6819 93.1776 67.87 86.9638C64.0581 80.75 62.1822 73.5429 62.4812 66.2599C62.7801 58.9769 65.2404 51.9476 69.5487 46.0669C73.8571 40.1862 79.8186 35.7201 86.6742 33.2373C93.5299 30.7545 100.97 30.3673 108.046 32.125C115.123 33.8826 121.516 37.7057 126.412 43.1073C131.308 48.509 134.485 55.2449 135.539 62.4575C136.593 69.67 135.476 77.033 132.33 83.6089L132.051 84.1861L139.982 87.8522C140.699 88.1884 141.255 88.794 141.528 89.5375C141.802 90.2809 141.77 91.1021 141.441 91.8227L141.435 91.8163Z" fill="black"/>
<path d="M116.601 66.4075C114.647 61.0987 107.134 61.7837 107.084 61.79H107.007C106.614 61.79 97.2425 61.5807 95.7832 56.9823C94.9203 54.2549 96.2083 51.7686 97.2425 49.7706C97.4583 49.3647 97.6613 48.9714 97.839 48.5909C98.6638 46.8276 101.208 46.3582 103.219 46.6881C104.277 46.8784 105.321 47.1326 106.348 47.4492C108.936 48.1849 111.607 48.9461 113.771 47.7156C114.913 47.0813 115.884 46.5549 116.677 46.187C112.17 42.6045 106.665 40.5029 100.916 40.1702C95.1671 39.8375 89.4561 41.29 84.5654 44.3286C85.1347 44.7286 85.565 45.2962 85.7963 45.9523C86.2024 47.1574 85.9042 48.6289 84.9143 50.3288C84.3941 51.2167 84.1847 51.9145 84.2799 52.3394C84.375 52.7644 84.7811 52.9737 85.4093 53.2971C86.0374 53.6206 86.8115 54.0393 87.0082 54.8955C87.1731 55.6376 86.8622 56.5129 86.0247 57.6609C83.5692 61.0226 75.1114 69.3188 71.4314 70.2068C71.8226 75.1436 73.5208 79.8875 76.3519 83.9514C79.183 88.0154 83.0448 91.2531 87.5411 93.3322C89.4119 94.1976 91.3713 94.8569 93.3848 95.2985C92.7503 94.5374 92.2808 93.2181 92.4775 90.9411C92.8836 86.2094 91.7034 85.7337 90.6629 85.3151L90.4725 85.239C89.9911 85.0183 89.5375 84.7415 89.121 84.4144C88.0246 83.6081 86.8465 82.9193 85.6059 82.3594C80.1049 79.8223 79.6734 77.2852 80.2825 75.56C81.3548 72.5663 86.4371 70.5873 88.2835 71.063C89.6604 71.4182 90.8215 70.803 92.3379 70.0292C93.2992 69.4931 94.3081 69.0472 95.3517 68.6972C97.3187 68.0629 97.8897 68.9509 98.4608 69.8579C99.2364 71.1626 100.454 72.1461 101.893 72.6297C104.837 73.8031 106.113 76.9681 105.573 81.7885C105.54 82.225 105.403 82.6472 105.173 83.0201C104.944 83.3929 104.628 83.7057 104.254 83.9324C103.53 84.4715 102.706 85.0804 102.617 88.4991C102.541 90.001 102.082 91.4585 101.283 92.7329C100.485 94.0074 99.3732 95.0565 98.0547 95.7805L97.8326 95.8883C103.512 96.17 109.143 94.7147 113.974 91.7164C118.805 88.718 122.608 84.319 124.875 79.1056C122.349 76.0738 118.162 70.6635 116.601 66.4075Z" fill="#AFE2E3"/>
<path d="M126.658 57.9463C125.058 53.6035 122.449 49.7032 119.044 46.5676L118.27 45.8635C114.327 42.493 109.558 40.232 104.452 39.3124C99.3464 38.3928 94.0879 38.8478 89.2162 40.6308C87.0102 41.4357 84.9079 42.5003 82.9538 43.8021L82.0084 44.4872C78.2023 47.2939 75.1336 50.9811 73.065 55.2329C70.9963 59.4847 69.9895 64.1743 70.1307 68.9002V69.6423C70.5004 76.2353 73.0965 82.5079 77.4946 87.4349C81.8927 92.3618 87.8327 95.6516 94.3435 96.7666C100.854 97.8815 107.551 96.7557 113.339 93.573C119.127 90.3904 123.663 85.3392 126.207 79.2451L126.353 78.8899C129.059 72.19 129.167 64.7221 126.658 57.9463ZM83.3789 45.0897C83.9261 45.3398 84.3524 45.7957 84.5654 46.3582C84.8509 47.1955 84.5654 48.3118 83.7913 49.6882C83.068 50.925 82.8332 51.8764 83.0616 52.6819C83.2172 53.0755 83.4534 53.4324 83.7549 53.7294C84.0565 54.0265 84.4168 54.2574 84.8128 54.4071C85.2697 54.6545 85.7011 54.8828 85.7709 55.1746C85.8153 55.3649 85.7709 55.8469 85.0032 56.9061C81.983 61.0416 74.147 68.1073 71.3996 68.9256C71.2536 64.2697 72.2727 59.651 74.3646 55.4886C76.4565 51.3262 79.555 47.7518 83.3789 45.0897ZM94.768 94.8291C93.9622 94.29 93.6069 92.9263 93.7655 91.0235C94.216 85.7908 92.7884 84.7696 91.1578 84.1163L90.9864 84.0465C90.5948 83.8562 90.2246 83.6244 89.8824 83.3552C88.7222 82.5026 87.4761 81.7734 86.1643 81.1796C83.6263 79.9999 80.7267 78.1352 81.5008 75.966C82.351 73.6001 86.8115 71.9637 87.9916 72.2681C89.838 72.7438 91.3481 71.9574 92.947 71.1265C93.8418 70.6288 94.7806 70.2148 95.7515 69.8896C96.7984 69.5598 96.8936 69.712 97.4202 70.5239C98.3338 72.054 99.7618 73.2096 101.449 73.7841C104.425 74.9701 104.666 78.6996 104.336 81.6236C104.322 81.8872 104.24 82.1425 104.097 82.3648C103.955 82.5871 103.757 82.7688 103.524 82.8922C102.407 83.7294 101.475 84.7189 101.373 88.4484C101.309 89.7244 100.919 90.9627 100.241 92.0453C99.562 93.1279 98.6172 94.0186 97.4963 94.6325C96.4177 95.197 95.4216 95.2668 94.768 94.8291ZM108.905 94.1948C105.375 95.5001 101.617 96.0762 97.858 95.8883L98.0801 95.7805C99.3986 95.0565 100.51 94.0074 101.308 92.7329C102.107 91.4584 102.566 90.001 102.642 88.4991C102.731 85.0804 103.556 84.4715 104.279 83.9324C104.654 83.7057 104.969 83.3929 105.198 83.0201C105.428 82.6472 105.565 82.225 105.599 81.7885C106.138 76.9681 104.863 73.8031 101.919 72.6297C100.48 72.1461 99.2618 71.1626 98.4862 69.8579C97.8961 68.9509 97.3441 68.0947 95.3771 68.6972C94.3335 69.0472 93.3246 69.4931 92.3633 70.0292C90.8659 70.803 89.6857 71.4182 88.3089 71.063C86.4625 70.5873 81.3802 72.5663 80.3079 75.56C79.6734 77.2599 80.1303 79.816 85.6313 82.3594C86.8718 82.9193 88.05 83.6081 89.1464 84.4144C89.5629 84.7415 90.0165 85.0183 90.4979 85.239L90.6882 85.3151C91.7288 85.7337 92.909 86.2094 92.5029 90.941C92.3062 93.2181 92.7947 94.5373 93.4102 95.2985C91.3967 94.8569 89.4373 94.1976 87.5665 93.3322C83.0702 91.2531 79.2084 88.0154 76.3773 83.9514C73.5462 79.8874 71.8479 75.1436 71.4567 70.2068C75.1114 69.3188 83.5692 61.0226 86.0501 57.6609C86.8876 56.5129 87.1985 55.6376 87.0336 54.8955C86.8369 54.0393 86.0945 53.627 85.4346 53.2971C84.7748 52.9673 84.4194 52.7263 84.3052 52.3394C84.191 51.9525 84.3941 51.2167 84.9397 50.3288C85.9295 48.6289 86.2087 47.1574 85.8217 45.9523C85.5904 45.2962 85.1601 44.7286 84.5908 44.3286C89.4761 41.3014 95.1771 39.8554 100.915 40.188C106.653 40.5207 112.149 42.6157 116.652 46.187C115.859 46.5549 114.888 47.0686 113.746 47.7156C111.582 48.9461 108.911 48.1849 106.322 47.4492C105.296 47.1326 104.251 46.8784 103.194 46.6881C101.183 46.3709 98.6384 46.8403 97.8136 48.5909C97.6359 48.9714 97.4329 49.3647 97.2172 49.7706C96.1829 51.7686 94.8949 54.2549 95.7578 56.9822C97.2172 61.5807 106.589 61.7837 106.982 61.79H107.058C107.134 61.79 114.672 61.0987 116.576 66.4075C118.136 70.6635 122.324 76.0738 124.824 79.0929C123.323 82.5496 121.139 85.6677 118.404 88.2606C115.668 90.8534 112.437 92.8675 108.905 94.1822V94.1948ZM125.401 77.7736C123.187 75.0716 119.221 69.9087 117.787 65.9825C115.548 59.8999 107.674 60.4707 106.963 60.5342C104.476 60.4898 97.9405 59.6969 96.9634 56.6144C96.2591 54.3881 97.3631 52.2506 98.3402 50.3668C98.5623 49.9419 98.7717 49.5359 98.9747 49.1427C99.4886 48.0327 101.443 47.6965 103.016 47.9439C104.022 48.1243 105.016 48.3658 105.992 48.667C108.695 49.4408 111.753 50.3161 114.387 48.8192C115.471 48.1831 116.589 47.6072 117.737 47.094C121.979 50.8254 124.986 55.7578 126.36 61.237C127.733 66.7163 127.408 72.4834 125.427 77.7736H125.401Z" fill="black"/>
<path d="M85.0031 56.8999C81.9766 61.0416 74.1216 68.1074 71.3869 68.951C71.2405 64.2935 72.2601 59.6731 74.3531 55.5095C76.4462 51.3458 79.5465 47.7707 83.3725 45.1088C83.9209 45.3592 84.3491 45.8147 84.5653 46.3773C84.8508 47.2145 84.5653 48.3309 83.7912 49.7072C83.0679 50.944 82.8332 51.8954 83.0616 52.701C83.2172 53.0946 83.4533 53.4514 83.7549 53.7485C84.0564 54.0456 84.4168 54.2764 84.8128 54.4262C85.2696 54.6735 85.7011 54.9019 85.7709 55.1937C85.8153 55.3586 85.7709 55.8406 85.0031 56.8999ZM104.336 81.6364C104.666 78.7124 104.425 74.9829 101.449 73.7968C99.7618 73.2223 98.3337 72.0668 97.4202 70.5366C96.8935 69.7248 96.7857 69.5726 95.7514 69.9024C94.7806 70.2275 93.8417 70.6415 92.947 71.1392C91.3481 71.9701 89.838 72.7566 87.9916 72.2809C87.8773 72.2536 87.7601 72.2408 87.6426 72.2428C86.1135 72.2428 82.2812 73.8031 81.5007 75.9787C80.7203 78.1542 83.6073 80.0126 86.1643 81.1924C87.476 81.7862 88.7222 82.5153 89.8824 83.3679C90.2246 83.6371 90.5947 83.8689 90.9864 84.0593L91.1577 84.129C92.7884 84.7633 94.216 85.8035 93.7655 91.0362C93.6069 92.939 93.9622 94.29 94.768 94.8418C95.4025 95.2795 96.4177 95.2097 97.4963 94.6516C98.6171 94.0377 99.5619 93.1469 100.241 92.0644C100.919 90.9818 101.309 89.7434 101.373 88.4674C101.475 84.7379 102.407 83.7485 103.524 82.9112C103.758 82.7873 103.956 82.6047 104.099 82.3812C104.241 82.1577 104.323 81.901 104.336 81.6364ZM125.414 77.7673C127.391 72.4752 127.715 66.7077 126.343 61.2275C124.971 55.7473 121.968 50.8123 117.73 47.075C116.582 47.5922 115.461 48.1702 114.374 48.8066C111.741 50.3034 108.663 49.4408 105.979 48.6543C105.003 48.3532 104.009 48.1117 103.004 47.9313C101.43 47.6839 99.4759 48.0201 98.962 49.13C98.778 49.5233 98.5686 49.9292 98.3275 50.3542C97.3504 52.257 96.2464 54.3755 96.9506 56.6017C97.9278 59.6843 104.463 60.4771 106.95 60.5215C107.083 60.5215 107.477 60.4835 108.042 60.4835C110.446 60.4835 115.96 61.0416 117.775 65.9699C119.228 69.896 123.2 75.0653 125.414 77.7673Z" fill="#70D44B"/>
</svg>
