<svg width="80" height="84" viewBox="0 0 80 84" fill="none" xmlns="http://www.w3.org/2000/svg">
<path d="M17.8441 17.0553C17.8135 16.8168 17.7216 16.5889 17.5764 16.3911C17.4311 16.1933 17.2369 16.0316 17.0104 15.9199C15.455 15.1421 13.7203 14.7345 11.9581 14.7327C10.2044 14.7378 8.47753 15.1378 6.92247 15.8992C5.33531 16.6766 3.97753 17.8105 2.97006 19.1999C1.96259 20.5893 1.3367 22.1911 1.14814 23.8626C0.95957 25.5342 1.21418 27.2235 1.88929 28.7803C2.56439 30.3371 3.63904 31.7129 5.01753 32.7853C5.22353 32.9472 5.46839 33.0597 5.731 33.113C5.99361 33.1663 6.26608 33.1588 6.52492 33.0912C6.77936 33.0266 7.01307 32.9045 7.20559 32.7355C7.39811 32.5665 7.54357 32.3557 7.62923 32.1217C9.62674 26.8827 12.9482 22.1771 17.3085 18.4085C17.5076 18.2404 17.6604 18.0295 17.7536 17.7938C17.8469 17.5581 17.878 17.3047 17.8441 17.0553Z" fill="#FFAB4D"/>
<path d="M17.5294 15.0021C14.9127 13.7115 11.8798 13.376 9.01527 14.0602C6.15076 14.7445 3.65734 16.4 2.01557 18.7079C0.373796 21.0157 -0.300135 23.8125 0.12366 26.5592C0.547455 29.3059 2.03897 31.808 4.31078 33.5835C4.8108 33.9722 5.43959 34.1849 6.08872 34.1849C6.65676 34.1843 7.21078 34.0192 7.67521 33.7121C8.13963 33.405 8.49186 32.9708 8.68386 32.4688C10.6191 27.3875 13.8404 22.8237 18.0705 19.1705C18.3979 18.8889 18.6481 18.5374 18.8 18.1457C18.9518 17.754 19.0009 17.3336 18.9429 16.9204C18.8898 16.5172 18.7336 16.1321 18.4874 15.798C18.2412 15.4639 17.9125 15.1908 17.5294 15.0021V15.0021ZM7.64028 32.1111C7.55462 32.3451 7.40918 32.5559 7.21666 32.7249C7.02413 32.894 6.79041 33.0161 6.53596 33.0806C6.27713 33.1482 6.00465 33.1557 5.74205 33.1024C5.47944 33.0491 5.23458 32.9367 5.02858 32.7747C3.6501 31.7023 2.57544 30.3265 1.90034 28.7697C1.22523 27.213 0.97063 25.5236 1.1592 23.8521C1.34776 22.1806 1.97365 20.5788 2.98112 19.1894C3.98858 17.8 5.34635 16.666 6.93352 15.8886C8.48858 15.1273 10.2154 14.7273 11.9692 14.7221C13.7313 14.7239 15.4661 15.1316 17.0214 15.9094C17.2479 16.0211 17.4422 16.1827 17.5874 16.3805C17.7327 16.5783 17.8245 16.8063 17.8552 17.0448C17.887 17.2955 17.8534 17.5497 17.7572 17.7854C17.661 18.0212 17.5051 18.2314 17.303 18.398C12.9472 22.1712 9.63145 26.8804 7.64028 32.1215V32.1111Z" fill="black"/>
<path d="M51.6638 1.05057C50.689 1.05119 49.719 1.17855 48.7815 1.42904C47.2114 1.8401 45.7606 2.57919 44.5377 3.59101C43.3148 4.60284 42.3513 5.86121 41.7194 7.27201C41.608 7.50877 41.5612 7.7679 41.5834 8.02592C41.6055 8.28394 41.696 8.53269 41.8464 8.7496C41.9876 8.95882 42.1812 9.13244 42.4102 9.25534C42.6393 9.37824 42.8969 9.44668 43.1605 9.4547C49.0758 9.65724 54.8506 11.2032 59.9903 13.96C60.2254 14.0879 60.4904 14.1596 60.7619 14.1686C61.0335 14.1776 61.3032 14.1238 61.5474 14.0119C61.7892 13.9036 61.9994 13.7418 62.16 13.5404C62.3206 13.339 62.4268 13.1041 62.4695 12.8557V12.8557C62.7182 11.3927 62.6244 9.89637 62.1947 8.47082C61.7649 7.04527 61.0096 5.72475 59.9811 4.60116C58.9526 3.47757 57.6758 2.57789 56.2394 1.96471C54.803 1.35153 53.2416 1.03958 51.6638 1.05057Z" fill="#FFA44B"/>
<path d="M62.486 6.30774C61.2448 3.95034 59.1687 2.07186 56.6139 0.994428C54.059 -0.0830038 51.1845 -0.292258 48.4833 0.402553C46.7514 0.857963 45.1516 1.67509 43.8034 2.79284C42.4553 3.91059 41.3936 5.30004 40.6979 6.8573C40.5213 7.25044 40.4487 7.67788 40.4862 8.1031C40.5237 8.52833 40.6702 8.93872 40.9133 9.29923C41.1501 9.65107 41.4754 9.94289 41.8605 10.149C42.2456 10.3551 42.6788 10.4692 43.1219 10.4813C48.8591 10.6757 54.4602 12.1755 59.4436 14.8519C59.8307 15.0589 60.2654 15.175 60.7107 15.1901C61.1559 15.2052 61.5984 15.1189 62.0004 14.9386C62.4024 14.7582 62.7519 14.4892 63.0192 14.1546C63.2864 13.8199 63.4634 13.4294 63.5351 13.0165C63.9311 10.7322 63.5646 8.38878 62.486 6.30774V6.30774ZM62.4474 12.8506C62.4078 13.0979 62.3053 13.3325 62.1487 13.5347C61.992 13.7369 61.7857 13.9006 61.5473 14.012C61.3056 14.1196 61.0397 14.1706 60.7724 14.1606C60.505 14.1507 60.2443 14.0801 60.0123 13.9549C54.8727 11.198 49.0979 9.65212 43.1826 9.44958C42.9189 9.44156 42.6614 9.37312 42.4323 9.25023C42.2033 9.12733 42.0097 8.9537 41.8685 8.74448C41.718 8.52756 41.6276 8.27882 41.6055 8.0208C41.5833 7.76278 41.63 7.50365 41.7415 7.26689C42.3714 5.8532 43.3339 4.59174 44.557 3.57712C45.78 2.5625 47.2318 1.82105 48.8036 1.40835C49.7411 1.15786 50.7111 1.0305 51.6858 1.02989C53.264 1.02143 54.8251 1.336 56.2606 1.95172C57.6961 2.56744 58.9715 3.46951 59.9979 4.59514C61.0243 5.72076 61.7771 7.04291 62.204 8.46953C62.6308 9.89615 62.7214 11.393 62.4694 12.8558L62.4474 12.8506Z" fill="black"/>
<path d="M77.3997 59.9887L70.4977 56.992L70.7407 56.5202C73.4768 51.145 74.4474 45.1268 73.5288 39.2319C72.6101 33.337 69.8439 27.8322 65.5822 23.4185C61.3206 19.0047 55.7564 15.8817 49.5982 14.4471C43.4399 13.0125 36.9663 13.3313 31.0017 15.3628C25.037 17.3943 19.8512 21.0466 16.1046 25.8547C12.358 30.6628 10.2201 36.4091 9.96314 42.3618C9.70618 48.3146 11.3418 54.2045 14.6617 59.2815C17.9816 64.3586 22.8356 68.393 28.6056 70.8711L29.1081 71.0888L25.7951 77.7924C25.5088 78.3814 25.4816 79.0527 25.7194 79.6604C25.9572 80.2681 26.4408 80.7631 27.0651 81.038L29.9253 82.2771C30.5525 82.5459 31.2674 82.5715 31.9146 82.3482C32.5619 82.1249 33.0891 81.6708 33.3818 81.0846L37.2469 73.2819L37.6555 73.3337C42.8144 73.9907 48.0661 73.4568 52.9557 71.7784C57.7573 70.133 62.0607 67.416 65.4952 63.8616L65.7712 63.5816L73.91 67.1174C74.5373 67.3863 75.2522 67.4118 75.8994 67.1886C76.5466 66.9653 77.0738 66.5112 77.3665 65.925L78.6862 63.2394C78.9725 62.6504 78.9997 61.9792 78.7619 61.3715C78.5241 60.7637 78.0405 60.2687 77.4162 59.9939L77.3997 59.9887ZM65.5228 52.6578L65.3958 52.9481C63.1723 57.9115 59.2253 62.0223 54.1972 64.6115C49.1691 67.2008 43.3558 68.1162 37.7032 67.2088C32.0506 66.3014 26.8914 63.6245 23.065 59.6138C19.2387 55.603 16.9704 50.4945 16.6293 45.1194V44.5128C16.5065 40.6499 17.3827 36.8165 19.1829 33.3411C20.9831 29.8657 23.6536 26.8518 26.9657 24.5575L27.7884 23.9976C29.489 22.9335 31.3185 22.0632 33.2382 21.4053C37.4777 19.9479 42.0538 19.576 46.497 20.3276C50.9401 21.0793 55.0902 22.9275 58.5214 25.6825L59.1951 26.258C62.985 29.5336 65.6223 33.8155 66.7557 38.5336C67.8891 43.2517 67.4648 48.1821 65.5394 52.6681L65.5228 52.6578Z" fill="#FF6C37"/>
<path d="M79.7685 61.0099C79.6021 60.5802 79.3466 60.1857 79.0168 59.8493C78.687 59.5129 78.2894 59.2413 77.847 59.0501L71.9555 56.489C74.6639 50.9253 75.5613 44.7343 74.5351 38.6933C73.509 32.6524 70.605 27.0307 66.1877 22.5342C61.7705 18.0377 56.0369 14.8667 49.7069 13.4194C43.3769 11.9722 36.7326 12.3131 30.6083 14.3995C24.4839 16.4858 19.1526 20.2246 15.2835 25.1463C11.4144 30.0681 9.18014 35.9534 8.86119 42.0634C8.54225 48.1733 10.1529 54.2356 13.4908 59.489C16.8287 64.7425 21.7452 68.9528 27.6229 71.5915L24.7848 77.3568C24.3759 78.1955 24.3362 79.1518 24.6743 80.0178C25.0125 80.8839 25.701 81.5895 26.5903 81.9814L29.4505 83.2205C29.8918 83.4132 30.3694 83.5215 30.8557 83.5393C31.342 83.5571 31.8272 83.484 32.2831 83.3242C32.7412 83.1687 33.1617 82.9291 33.52 82.6193C33.8784 82.3095 34.1674 81.9358 34.3702 81.52L37.8764 74.4119C43.0871 75.011 48.3747 74.4388 53.3037 72.7425C58.143 71.0867 62.4952 68.3772 66.0033 64.8361L73.4132 68.0505C74.3056 68.4342 75.3233 68.4713 76.2448 68.1538C77.1662 67.8363 77.9167 67.1898 78.3329 66.3551L79.6581 63.6696C79.863 63.2551 79.9783 62.8067 79.9972 62.3501C80.0162 61.8936 79.9384 61.438 79.7685 61.0099V61.0099ZM78.6642 63.2341L77.3445 65.9196C77.0519 66.5059 76.5246 66.9599 75.8774 67.1832C75.2302 67.4065 74.5153 67.3809 73.8881 67.1121L65.7493 63.5762L65.4732 63.8562C62.0387 67.4107 57.7353 70.1277 52.9337 71.773C48.0441 73.4515 42.7924 73.9854 37.6335 73.3284L37.2249 73.2765L33.3598 81.0793C33.0671 81.6655 32.5398 82.1195 31.8926 82.3428C31.2454 82.5661 30.5305 82.5406 29.9033 82.2717L27.0431 81.0326C26.4188 80.7578 25.9352 80.2627 25.6974 79.655C25.4596 79.0473 25.4868 78.3761 25.7731 77.7871L29.0861 71.0835L28.5836 70.8657C22.8147 68.3841 17.9628 64.3468 14.6456 59.2676C11.3284 54.1884 9.6959 48.2972 9.95605 42.3441C10.2162 36.3909 12.3572 30.6451 16.1064 25.8382C19.8557 21.0313 25.0436 17.3807 31.0096 15.3513C36.9756 13.3218 43.4499 13.0053 49.6081 14.442C55.7663 15.8788 61.3299 19.0037 65.5905 23.4191C69.8511 27.8344 72.616 33.3404 73.5332 39.236C74.4504 45.1316 73.4783 51.1501 70.7408 56.5252L70.4978 56.997L77.3998 59.9937C78.0241 60.2685 78.5077 60.7636 78.7455 61.3713C78.9833 61.979 78.9561 62.6503 78.6697 63.2392L78.6642 63.2341Z" fill="black"/>
<path d="M57.0528 42.4646C55.3521 38.1252 48.8146 38.6851 48.7704 38.6903H48.7042C48.3618 38.6903 40.2065 38.5192 38.9365 34.7604C38.1856 32.531 39.3065 30.4987 40.2065 28.8655C40.3942 28.5337 40.5709 28.2123 40.7255 27.9012C41.4433 26.4599 43.6575 26.0763 45.4078 26.3459C46.3277 26.5014 47.2368 26.7092 48.1299 26.968C50.3827 27.5694 52.7073 28.1916 54.5902 27.1857C55.584 26.6673 56.4288 26.237 57.119 25.9363C53.1967 23.0079 48.4059 21.2901 43.4031 21.0181C38.4004 20.7462 33.4305 21.9334 29.1744 24.4172C29.6698 24.7442 30.0443 25.2081 30.2456 25.7444C30.599 26.7295 30.3395 27.9323 29.4781 29.3218C29.0253 30.0476 28.8431 30.6179 28.9259 30.9653C29.0088 31.3127 29.3621 31.4837 29.9088 31.7482C30.4554 32.0126 31.129 32.3548 31.3002 33.0547C31.4438 33.6613 31.1732 34.3767 30.4444 35.3151C28.3075 38.0629 20.9473 44.8443 17.7448 45.5702C18.0852 49.6056 19.5631 53.4832 22.0268 56.8051C24.4905 60.127 27.8512 62.7736 31.764 64.4731C33.392 65.1804 35.0972 65.7193 36.8494 66.0803C36.2972 65.4581 35.8886 64.3797 36.0598 62.5185C36.4132 58.6508 35.3862 58.262 34.4806 57.9198L34.315 57.8576C33.896 57.6772 33.5013 57.4509 33.1389 57.1836C32.1848 56.5245 31.1595 55.9615 30.0799 55.5038C25.2927 53.43 24.9173 51.3561 25.4473 49.9459C26.3805 47.4988 30.8033 45.8813 32.41 46.2701C33.6082 46.5604 34.6187 46.0575 35.9383 45.425C36.7749 44.9868 37.6529 44.6223 38.5611 44.3362C40.2727 43.8178 40.7697 44.5436 41.2666 45.285C41.9416 46.3515 43.0014 47.1554 44.2538 47.5507C46.8158 48.5098 47.9256 51.0969 47.4563 55.0372C47.4271 55.394 47.3076 55.7391 47.1079 56.0439C46.9081 56.3486 46.6339 56.6043 46.3078 56.7896C45.6784 57.2302 44.9606 57.728 44.8833 60.5224C44.817 61.7501 44.4175 62.9414 43.7226 63.9832C43.0278 65.0249 42.0607 65.8825 40.9132 66.4743L40.72 66.5624C45.6626 66.7927 50.5625 65.6031 54.7668 63.1522C58.9712 60.7013 62.2802 57.1056 64.2529 52.8441C62.0553 50.3659 58.4111 45.9435 57.0528 42.4646Z" fill="#AFE2E3"/>
<path d="M65.8044 35.5486C64.4126 31.9987 62.1415 28.8105 59.1785 26.2475L58.5049 25.672C55.0737 22.9169 50.9236 21.0687 46.4804 20.317C42.0373 19.5654 37.4612 19.9373 33.2217 21.3947C31.302 22.0527 29.4725 22.9229 27.7719 23.987L26.9492 24.5469C23.6371 26.8412 20.9665 29.8551 19.1664 33.3306C17.3662 36.806 16.49 40.6393 16.6128 44.5023V45.1089C16.9346 50.498 19.1938 55.6253 23.0212 59.6526C26.8486 63.68 32.0177 66.3691 37.6836 67.2805C43.3496 68.1918 49.1772 67.2715 54.214 64.67C59.2507 62.0685 63.1986 57.9396 65.4124 52.9583L65.5394 52.668C67.894 47.1914 67.9885 41.0871 65.8044 35.5486V35.5486ZM28.1418 25.0395C28.618 25.2439 28.9891 25.6165 29.1744 26.0764C29.4228 26.7607 29.1744 27.6732 28.5007 28.7983C27.8713 29.8092 27.667 30.5869 27.8658 31.2454C28.0012 31.5671 28.2067 31.8588 28.4691 32.1016C28.7315 32.3445 29.0451 32.5332 29.3897 32.6556C29.7873 32.8578 30.1627 33.0444 30.2235 33.2829C30.2621 33.4385 30.2235 33.8325 29.5554 34.6983C26.9271 38.0786 20.108 43.8542 17.7171 44.523C17.59 40.7173 18.4769 36.942 20.2973 33.5396C22.1178 30.1372 24.8142 27.2155 28.1418 25.0395V25.0395ZM38.0531 65.6967C37.3518 65.2561 37.0426 64.1414 37.1806 62.586C37.5727 58.3088 36.3303 57.474 34.9113 56.94L34.7622 56.883C34.4213 56.7274 34.0993 56.538 33.8014 56.3179C32.7918 55.621 31.7074 55.025 30.5658 54.5396C28.3572 53.5753 25.8338 52.051 26.5075 50.2779C27.2474 48.344 31.129 47.0064 32.156 47.2553C33.7628 47.6441 35.0769 47.0012 36.4684 46.3221C37.247 45.9153 38.064 45.5769 38.9089 45.3111C39.8199 45.0415 39.9028 45.1659 40.3611 45.8295C41.1561 47.0803 42.3988 48.0248 43.8673 48.4944C46.4569 49.4639 46.6667 52.5124 46.3796 54.9025C46.3671 55.1179 46.2955 55.3266 46.1716 55.5084C46.0478 55.6901 45.8759 55.8386 45.6728 55.9394C44.701 56.6238 43.8893 57.4326 43.801 60.4811C43.7454 61.5241 43.4061 62.5363 42.8155 63.4212C42.2249 64.3061 41.4027 65.0342 40.4273 65.536C39.4887 65.9975 38.6218 66.0545 38.0531 65.6967ZM50.3551 65.1783C47.2834 66.2452 44.0131 66.7161 40.7421 66.5626L40.9353 66.4744C42.0827 65.8826 43.0498 65.0251 43.7447 63.9833C44.4396 62.9415 44.8391 61.7502 44.9053 60.5226C44.9826 57.7281 45.7004 57.2304 46.3299 56.7897C46.6559 56.6044 46.9302 56.3487 47.1299 56.044C47.3297 55.7392 47.4491 55.3941 47.4784 55.0373C47.9477 51.097 46.8379 48.5099 44.2759 47.5508C43.0235 47.1555 41.9637 46.3516 41.2887 45.2852C40.7752 44.5438 40.2948 43.8438 38.5831 44.3364C37.6749 44.6224 36.7969 44.9869 35.9604 45.4251C34.6573 46.0576 33.6303 46.5606 32.4321 46.2702C30.8253 45.8814 26.4026 47.499 25.4694 49.9461C24.9173 51.3355 25.3148 53.4249 30.102 55.5039C31.1815 55.9616 32.2068 56.5246 33.1609 57.1837C33.5233 57.4511 33.9181 57.6773 34.337 57.8577L34.5027 57.9199C35.4082 58.2621 36.4352 58.6509 36.0819 62.5186C35.9107 64.3799 36.3358 65.4583 36.8714 66.0804C35.1192 65.7195 33.4141 65.1805 31.7861 64.4732C27.8733 62.7737 24.5125 60.1272 22.0488 56.8053C19.5852 53.4833 18.1073 49.6057 17.7668 45.5703C20.9472 44.8445 28.3075 38.0631 30.4664 35.3153C31.1953 34.3768 31.4658 33.6614 31.3223 33.0548C31.1511 32.3549 30.5051 32.0179 29.9308 31.7483C29.3566 31.4787 29.0474 31.2817 28.948 30.9654C28.8486 30.6492 29.0253 30.0477 29.5001 29.3219C30.3615 27.9324 30.6045 26.7296 30.2676 25.7446C30.0664 25.2083 29.6919 24.7443 29.1965 24.4173C33.4479 21.9429 38.4091 20.7609 43.4026 21.0328C48.3961 21.3047 53.1786 23.0172 57.0969 25.9364C56.4067 26.2371 55.5619 26.657 54.568 27.1859C52.6852 28.1917 50.3606 27.5695 48.1078 26.9681C47.2147 26.7093 46.3056 26.5015 45.3857 26.346C43.6354 26.0867 41.4212 26.4704 40.7034 27.9013C40.5488 28.2124 40.3721 28.5339 40.1844 28.8657C39.2844 30.4988 38.1635 32.5311 38.9144 34.7605C40.1844 38.5193 48.3397 38.6852 48.6821 38.6904H48.7483C48.8146 38.6904 55.3742 38.1253 57.0307 42.4648C58.389 45.9436 62.0332 50.366 64.2087 52.8339C62.9024 55.6594 61.0021 58.2082 58.6216 60.3276C56.2411 62.447 53.4294 64.0933 50.3551 65.1679V65.1783ZM64.7112 51.7555C62.7841 49.5468 59.3332 45.3266 58.0853 42.1174C56.1362 37.1454 49.2839 37.612 48.6655 37.6639C46.501 37.6276 40.8138 36.9795 39.9635 34.4598C39.3506 32.64 40.3114 30.8928 41.1617 29.353C41.3549 29.0056 41.5371 28.6738 41.7138 28.3524C42.1611 27.4451 43.8617 27.1703 45.2311 27.3725C46.1063 27.52 46.9711 27.7174 47.8207 27.9636C50.1729 28.5961 52.8343 29.3115 55.1257 28.088C56.0692 27.568 57.0425 27.0973 58.0411 26.6778C61.7328 29.7278 64.3498 33.7596 65.545 38.2384C66.7402 42.7172 66.4571 47.4313 64.7332 51.7555H64.7112Z" fill="black"/>
<path d="M29.5554 34.693C26.9216 38.0785 20.0859 43.8541 17.7061 44.5437C17.5787 40.7366 18.4659 36.9599 20.2874 33.5565C22.1089 30.1531 24.8068 27.2308 28.1363 25.0549C28.6136 25.2597 28.9863 25.632 29.1744 26.0918C29.4229 26.7762 29.1744 27.6887 28.5008 28.8137C27.8713 29.8247 27.667 30.6024 27.8658 31.2608C28.0012 31.5826 28.2067 31.8743 28.4691 32.1171C28.7316 32.36 29.0451 32.5486 29.3897 32.671C29.7873 32.8732 30.1628 33.0599 30.2235 33.2984C30.2621 33.4332 30.2235 33.8272 29.5554 34.693ZM46.3796 54.9128C46.6667 52.5227 46.4569 49.4742 43.8673 48.5047C42.3989 48.0351 41.1561 47.0906 40.3611 45.8398C39.9028 45.1762 39.8089 45.0518 38.9089 45.3214C38.064 45.5871 37.247 45.9256 36.4684 46.3323C35.0769 47.0115 33.7628 47.6544 32.156 47.2656C32.0566 47.2432 31.9546 47.2328 31.8524 47.2344C30.5217 47.2344 27.1866 48.5099 26.5075 50.2882C25.8283 52.0665 28.3406 53.5855 30.5658 54.5499C31.7074 55.0352 32.7918 55.6312 33.8015 56.3282C34.0993 56.5482 34.4214 56.7377 34.7622 56.8933L34.9113 56.9503C36.3304 57.4688 37.5727 58.319 37.1807 62.5963C37.0426 64.1516 37.3518 65.256 38.0531 65.707C38.6052 66.0647 39.4887 66.0077 40.4273 65.5515C41.4027 65.0497 42.2249 64.3216 42.8155 63.4367C43.4061 62.5518 43.7454 61.5395 43.801 60.4965C43.8894 57.448 44.701 56.6392 45.6728 55.9549C45.8767 55.8536 46.0491 55.7043 46.173 55.5216C46.2969 55.3389 46.3681 55.1291 46.3796 54.9128ZM64.7222 51.7502C66.4429 47.4244 66.725 42.7101 65.531 38.2305C64.3371 33.7509 61.7235 29.7171 58.0356 26.6621C57.0359 27.0849 56.0609 27.5574 55.1147 28.0775C52.8233 29.3011 50.1453 28.596 47.8097 27.9531C46.9601 27.7069 46.0952 27.5095 45.2201 27.3621C43.8507 27.1599 42.1501 27.4347 41.7028 28.342C41.5427 28.6634 41.3605 28.9952 41.1507 29.3426C40.3004 30.8979 39.3396 32.6296 39.9525 34.4494C40.8028 36.969 46.49 37.6171 48.6545 37.6534C48.7704 37.6534 49.1128 37.6223 49.6042 37.6223C51.6969 37.6223 56.4951 38.0785 58.0743 42.1069C59.3387 45.3162 62.7952 49.5416 64.7222 51.7502V51.7502Z" fill="#70D44B"/>
</svg>
