<svg width="150" height="150" viewBox="0 0 150 150" fill="none" xmlns="http://www.w3.org/2000/svg">
<g clip-path="url(#clip0_513_604)">
<rect width="150" height="150" fill="white"/>
<rect width="153.516" height="153.516" fill="white"/>
<rect x="16.8593" y="16.5853" width="120.345" height="120.345" fill="#E7E7E7" stroke="#C4C4C4" stroke-width="0.274135"/>
<path d="M126.124 27.3453C125.826 27.3453 125.541 27.2971 125.269 27.2006C124.997 27.1041 124.766 26.9681 124.578 26.7927L124.782 26.365C125.19 26.6984 125.635 26.8651 126.117 26.8651C126.438 26.8651 126.69 26.7751 126.874 26.5953C127.058 26.4155 127.15 26.1786 127.15 25.8848C127.15 25.5821 127.063 25.3343 126.887 25.1413C126.712 24.9483 126.47 24.8518 126.163 24.8518C125.72 24.8518 125.372 25.036 125.117 25.4045H124.723V22.6478H127.414V23.1083H125.256V24.7663C125.51 24.5119 125.845 24.3847 126.262 24.3847C126.552 24.3847 126.804 24.4461 127.019 24.5689C127.234 24.6917 127.398 24.865 127.512 25.0887C127.631 25.308 127.69 25.5646 127.69 25.8584C127.69 26.1479 127.626 26.4045 127.499 26.6282C127.372 26.8519 127.19 27.0273 126.953 27.1545C126.72 27.2817 126.444 27.3453 126.124 27.3453ZM128.497 28.4704V24.0886H129.016V24.661C129.113 24.4636 129.255 24.3101 129.444 24.2005C129.637 24.0864 129.861 24.0294 130.115 24.0294C130.4 24.0294 130.648 24.0974 130.858 24.2334C131.073 24.3649 131.238 24.5557 131.352 24.8058C131.47 25.0514 131.53 25.3453 131.53 25.6874C131.53 26.0251 131.47 26.319 131.352 26.569C131.238 26.8146 131.073 27.0054 130.858 27.1414C130.648 27.2774 130.4 27.3453 130.115 27.3453C129.869 27.3453 129.65 27.2905 129.457 27.1809C129.264 27.0712 129.122 26.9199 129.029 26.7269V28.4704H128.497ZM130.003 26.9177C130.301 26.9177 130.54 26.8124 130.72 26.6019C130.9 26.387 130.99 26.0821 130.99 25.6874C130.99 25.2882 130.9 24.9834 130.72 24.7729C130.54 24.5623 130.301 24.4571 130.003 24.4571C129.705 24.4571 129.466 24.5623 129.286 24.7729C129.106 24.9834 129.016 25.2882 129.016 25.6874C129.016 26.0821 129.106 26.387 129.286 26.6019C129.466 26.8124 129.705 26.9177 130.003 26.9177ZM131.854 27.2861L133.183 25.6347L131.933 24.0886H132.564L133.492 25.2663L134.426 24.0886H135.051L133.801 25.6347L135.13 27.2861H134.499L133.485 26.0163L132.485 27.2861H131.854Z" fill="black"/>
<path d="M21.6786 27.3453C21.3803 27.3453 21.0952 27.2971 20.8233 27.2006C20.5513 27.1041 20.321 26.9681 20.1324 26.7927L20.3364 26.365C20.7443 26.6984 21.1895 26.8651 21.672 26.8651C21.9922 26.8651 22.2444 26.7751 22.4286 26.5953C22.6128 26.4155 22.7049 26.1786 22.7049 25.8848C22.7049 25.5821 22.6172 25.3343 22.4417 25.1413C22.2663 24.9483 22.0251 24.8518 21.718 24.8518C21.275 24.8518 20.9263 25.036 20.6719 25.4045H20.2772V22.6478H22.9681V23.1083H20.8101V24.7663C21.0645 24.5119 21.4 24.3847 21.8167 24.3847C22.1062 24.3847 22.3584 24.4461 22.5733 24.5689C22.7883 24.6917 22.9527 24.865 23.0668 25.0887C23.1852 25.308 23.2444 25.5646 23.2444 25.8584C23.2444 26.1479 23.1808 26.4045 23.0536 26.6282C22.9264 26.8519 22.7444 27.0273 22.5075 27.1545C22.2751 27.2817 21.9987 27.3453 21.6786 27.3453ZM24.0511 28.4704V24.0886H24.5709V24.661C24.6673 24.4636 24.8099 24.3101 24.9985 24.2005C25.1915 24.0864 25.4152 24.0294 25.6696 24.0294C25.9547 24.0294 26.2025 24.0974 26.413 24.2334C26.628 24.3649 26.7924 24.5557 26.9065 24.8058C27.0249 25.0514 27.0841 25.3453 27.0841 25.6874C27.0841 26.0251 27.0249 26.319 26.9065 26.569C26.7924 26.8146 26.628 27.0054 26.413 27.1414C26.2025 27.2774 25.9547 27.3453 25.6696 27.3453C25.424 27.3453 25.2047 27.2905 25.0117 27.1809C24.8187 27.0712 24.6761 26.9199 24.584 26.7269V28.4704H24.0511ZM25.5577 26.9177C25.856 26.9177 26.095 26.8124 26.2749 26.6019C26.4547 26.387 26.5446 26.0821 26.5446 25.6874C26.5446 25.2882 26.4547 24.9834 26.2749 24.7729C26.095 24.5623 25.856 24.4571 25.5577 24.4571C25.2595 24.4571 25.0204 24.5623 24.8406 24.7729C24.6608 24.9834 24.5709 25.2882 24.5709 25.6874C24.5709 26.0821 24.6608 26.387 24.8406 26.6019C25.0204 26.8124 25.2595 26.9177 25.5577 26.9177ZM27.4083 27.2861L28.7373 25.6347L27.4872 24.0886H28.1188L29.0465 25.2663L29.9807 24.0886H30.6058L29.3557 25.6347L30.6847 27.2861H30.0531L29.0399 26.0163L28.0399 27.2861H27.4083Z" fill="black"/>
<path d="M126.124 131.516C125.826 131.516 125.541 131.468 125.269 131.372C124.997 131.275 124.766 131.139 124.578 130.964L124.782 130.536C125.19 130.87 125.635 131.036 126.117 131.036C126.438 131.036 126.69 130.946 126.874 130.766C127.058 130.587 127.15 130.35 127.15 130.056C127.15 129.753 127.063 129.505 126.887 129.312C126.712 129.119 126.47 129.023 126.163 129.023C125.72 129.023 125.372 129.207 125.117 129.576H124.723V126.819H127.414V127.279H125.256V128.937C125.51 128.683 125.845 128.556 126.262 128.556C126.552 128.556 126.804 128.617 127.019 128.74C127.234 128.863 127.398 129.036 127.512 129.26C127.631 129.479 127.69 129.736 127.69 130.03C127.69 130.319 127.626 130.576 127.499 130.799C127.372 131.023 127.19 131.198 126.953 131.326C126.72 131.453 126.444 131.516 126.124 131.516ZM128.497 132.642V128.26H129.016V128.832C129.113 128.635 129.255 128.481 129.444 128.372C129.637 128.258 129.861 128.201 130.115 128.201C130.4 128.201 130.648 128.269 130.858 128.405C131.073 128.536 131.238 128.727 131.352 128.977C131.47 129.223 131.53 129.516 131.53 129.859C131.53 130.196 131.47 130.49 131.352 130.74C131.238 130.986 131.073 131.177 130.858 131.313C130.648 131.449 130.4 131.516 130.115 131.516C129.869 131.516 129.65 131.462 129.457 131.352C129.264 131.242 129.122 131.091 129.029 130.898V132.642H128.497ZM130.003 131.089C130.301 131.089 130.54 130.984 130.72 130.773C130.9 130.558 130.99 130.253 130.99 129.859C130.99 129.459 130.9 129.155 130.72 128.944C130.54 128.733 130.301 128.628 130.003 128.628C129.705 128.628 129.466 128.733 129.286 128.944C129.106 129.155 129.016 129.459 129.016 129.859C129.016 130.253 129.106 130.558 129.286 130.773C129.466 130.984 129.705 131.089 130.003 131.089ZM131.854 131.457L133.183 129.806L131.933 128.26H132.564L133.492 129.437L134.426 128.26H135.051L133.801 129.806L135.13 131.457H134.499L133.485 130.187L132.485 131.457H131.854Z" fill="black"/>
<path d="M21.6786 131.516C21.3803 131.516 21.0952 131.468 20.8233 131.372C20.5513 131.275 20.321 131.139 20.1324 130.964L20.3364 130.536C20.7443 130.87 21.1895 131.036 21.672 131.036C21.9922 131.036 22.2444 130.946 22.4286 130.766C22.6128 130.587 22.7049 130.35 22.7049 130.056C22.7049 129.753 22.6172 129.505 22.4417 129.312C22.2663 129.119 22.0251 129.023 21.718 129.023C21.275 129.023 20.9263 129.207 20.6719 129.576H20.2772V126.819H22.9681V127.279H20.8101V128.937C21.0645 128.683 21.4 128.556 21.8167 128.556C22.1062 128.556 22.3584 128.617 22.5733 128.74C22.7883 128.863 22.9527 129.036 23.0668 129.26C23.1852 129.479 23.2444 129.736 23.2444 130.03C23.2444 130.319 23.1808 130.576 23.0536 130.799C22.9264 131.023 22.7444 131.198 22.5075 131.326C22.2751 131.453 21.9987 131.516 21.6786 131.516ZM24.0511 132.642V128.26H24.5709V128.832C24.6673 128.635 24.8099 128.481 24.9985 128.372C25.1915 128.258 25.4152 128.201 25.6696 128.201C25.9547 128.201 26.2025 128.269 26.413 128.405C26.628 128.536 26.7924 128.727 26.9065 128.977C27.0249 129.223 27.0841 129.516 27.0841 129.859C27.0841 130.196 27.0249 130.49 26.9065 130.74C26.7924 130.986 26.628 131.177 26.413 131.313C26.2025 131.449 25.9547 131.516 25.6696 131.516C25.424 131.516 25.2047 131.462 25.0117 131.352C24.8187 131.242 24.6761 131.091 24.584 130.898V132.642H24.0511ZM25.5577 131.089C25.856 131.089 26.095 130.984 26.2749 130.773C26.4547 130.558 26.5446 130.253 26.5446 129.859C26.5446 129.459 26.4547 129.155 26.2749 128.944C26.095 128.733 25.856 128.628 25.5577 128.628C25.2595 128.628 25.0204 128.733 24.8406 128.944C24.6608 129.155 24.5709 129.459 24.5709 129.859C24.5709 130.253 24.6608 130.558 24.8406 130.773C25.0204 130.984 25.2595 131.089 25.5577 131.089ZM27.4083 131.457L28.7373 129.806L27.4872 128.26H28.1188L29.0465 129.437L29.9807 128.26H30.6058L29.3557 129.806L30.6847 131.457H30.0531L29.0399 130.187L28.0399 131.457H27.4083Z" fill="black"/>
<path d="M56.2494 52.4273C56.2211 52.1925 56.1361 51.9681 56.0018 51.7734C55.8675 51.5787 55.6879 51.4195 55.4784 51.3096C54.0403 50.5439 52.4362 50.1426 50.8068 50.1408C49.1852 50.1459 47.5885 50.5397 46.1506 51.2892C44.683 52.0545 43.4275 53.1707 42.4959 54.5385C41.5643 55.9062 40.9856 57.4831 40.8112 59.1286C40.6369 60.774 40.8723 62.4371 41.4966 63.9696C42.1208 65.5021 43.1145 66.8565 44.3891 67.9122C44.5796 68.0716 44.806 68.1823 45.0488 68.2348C45.2917 68.2872 45.5436 68.2799 45.783 68.2133C46.0182 68.1498 46.2343 68.0296 46.4123 67.8632C46.5904 67.6968 46.7249 67.4893 46.8041 67.2589C48.6511 62.1016 51.7223 57.4692 55.7542 53.7594C55.9383 53.5939 56.0795 53.3863 56.1657 53.1543C56.252 52.9223 56.2807 52.6728 56.2494 52.4273Z" fill="#FFAB4D"/>
<path d="M55.9584 50.4062C53.5388 49.1357 50.7344 48.8054 48.0857 49.479C45.437 50.1526 43.1314 51.7824 41.6133 54.0543C40.0952 56.3262 39.4721 59.0794 39.8639 61.7833C40.2558 64.4872 41.635 66.9504 43.7356 68.6982C44.198 69.0808 44.7794 69.2902 45.3796 69.2902C45.9049 69.2896 46.4171 69.1271 46.8466 68.8247C47.276 68.5224 47.6017 68.095 47.7792 67.6009C49.5687 62.5987 52.5473 58.106 56.4587 54.5097C56.7614 54.2325 56.9928 53.8864 57.1332 53.5008C57.2737 53.1152 57.319 52.7015 57.2654 52.2946C57.2163 51.8977 57.0718 51.5186 56.8442 51.1897C56.6166 50.8609 56.3126 50.592 55.9584 50.4062ZM46.8143 67.2487C46.7351 67.4791 46.6006 67.6866 46.4226 67.853C46.2446 68.0194 46.0284 68.1396 45.7932 68.2031C45.5538 68.2697 45.3019 68.277 45.0591 68.2246C44.8162 68.1721 44.5898 68.0614 44.3993 67.902C43.1247 66.8463 42.131 65.4919 41.5068 63.9594C40.8825 62.4269 40.6471 60.7638 40.8215 59.1184C40.9958 57.4729 41.5746 55.896 42.5061 54.5283C43.4377 53.1605 44.6932 52.0443 46.1608 51.279C47.5987 50.5295 49.1954 50.1357 50.817 50.1306C52.4464 50.1324 54.0505 50.5337 55.4887 51.2994C55.6981 51.4093 55.8777 51.5685 56.012 51.7632C56.1463 51.9579 56.2313 52.1823 56.2596 52.4171C56.289 52.6639 56.258 52.9141 56.169 53.1462C56.08 53.3783 55.9359 53.5853 55.749 53.7492C51.7214 57.4636 48.6554 62.0995 46.8143 67.2589V67.2487Z" fill="black"/>
<path d="M87.5211 36.672C86.6198 36.6726 85.7229 36.7979 84.856 37.0445C83.4042 37.4492 82.0627 38.1768 80.9319 39.1728C79.8011 40.1689 78.9102 41.4077 78.3259 42.7965C78.2229 43.0296 78.1796 43.2847 78.2001 43.5387C78.2206 43.7927 78.3042 44.0375 78.4434 44.2511C78.5739 44.457 78.7529 44.628 78.9647 44.7489C79.1765 44.8699 79.4147 44.9373 79.6585 44.9452C85.1281 45.1446 90.4678 46.6664 95.2203 49.3804C95.4377 49.5063 95.6827 49.5768 95.9338 49.5857C96.1849 49.5946 96.4343 49.5416 96.6601 49.4314C96.8837 49.3248 97.0781 49.1655 97.2266 48.9673C97.3751 48.769 97.4733 48.5378 97.5127 48.2933C97.7427 46.853 97.656 45.38 97.2586 43.9766C96.8612 42.5733 96.1628 41.2733 95.2118 40.1672C94.2608 39.0612 93.0802 38.1755 91.752 37.5718C90.4238 36.9682 88.98 36.6611 87.5211 36.672Z" fill="#FFA44B"/>
<path d="M97.528 41.8472C96.3803 39.5265 94.4606 37.6773 92.0983 36.6166C89.7359 35.556 87.0779 35.35 84.5803 36.034C82.9789 36.4823 81.4996 37.2867 80.253 38.387C79.0063 39.4874 78.0247 40.8552 77.3814 42.3882C77.2181 42.7752 77.1509 43.196 77.1856 43.6146C77.2203 44.0332 77.3558 44.4372 77.5805 44.7921C77.7995 45.1384 78.1003 45.4257 78.4564 45.6286C78.8125 45.8315 79.213 45.9439 79.6227 45.9557C84.9277 46.1471 90.1069 47.6235 94.7148 50.2582C95.0728 50.4621 95.4747 50.5763 95.8864 50.5912C96.2981 50.606 96.7073 50.5211 97.079 50.3436C97.4507 50.166 97.7739 49.9012 98.021 49.5718C98.2681 49.2423 98.4318 48.8579 98.4981 48.4515C98.8642 46.2027 98.5254 43.8958 97.528 41.8472ZM97.4923 48.2882C97.4557 48.5315 97.361 48.7625 97.2161 48.9616C97.0712 49.1606 96.8805 49.3217 96.6601 49.4314C96.4365 49.5373 96.1907 49.5875 95.9435 49.5778C95.6963 49.568 95.4552 49.4985 95.2407 49.3753C90.4883 46.6613 85.1485 45.1395 79.6789 44.9401C79.4351 44.9322 79.1969 44.8648 78.9851 44.7438C78.7734 44.6228 78.5944 44.4519 78.4638 44.246C78.3247 44.0324 78.2411 43.7876 78.2206 43.5336C78.2001 43.2796 78.2433 43.0245 78.3464 42.7914C78.9288 41.3997 79.8188 40.1579 80.9497 39.1591C82.0806 38.1603 83.4231 37.4304 84.8764 37.0241C85.7433 36.7775 86.6402 36.6521 87.5415 36.6515C89.0008 36.6432 90.4443 36.9529 91.7717 37.559C93.099 38.1651 94.2783 39.0532 95.2273 40.1613C96.1764 41.2693 96.8725 42.5709 97.2672 43.9753C97.6619 45.3797 97.7457 46.8532 97.5127 48.2933L97.4923 48.2882Z" fill="black"/>
<path d="M111.318 94.6917L104.936 91.7417L105.161 91.2773C107.691 85.9858 108.588 80.0613 107.739 74.2583C106.889 68.4552 104.332 63.0362 100.391 58.6912C96.4504 54.3462 91.3054 51.2718 85.6112 49.8596C79.9169 48.4473 73.931 48.7611 68.4157 50.761C62.9004 52.7608 58.1053 56.3563 54.6409 61.0895C51.1766 65.8226 49.1997 71.4794 48.9621 77.3394C48.7245 83.1995 50.2369 88.9976 53.3067 93.9955C56.3766 98.9935 60.8649 102.965 66.2001 105.405L66.6648 105.619L63.6014 112.218C63.3367 112.798 63.3115 113.459 63.5314 114.057C63.7512 114.655 64.1984 115.143 64.7757 115.413L67.4204 116.633C68.0004 116.898 68.6614 116.923 69.2599 116.703C69.8583 116.483 70.3458 116.036 70.6165 115.459L74.1904 107.778L74.5682 107.829C79.3385 108.476 84.1945 107.95 88.7158 106.298C93.1556 104.678 97.1348 102.003 100.311 98.5042L100.566 98.2286L108.091 101.709C108.671 101.974 109.332 101.999 109.931 101.779C110.529 101.56 111.017 101.113 111.288 100.536L112.508 97.8918C112.773 97.312 112.798 96.6512 112.578 96.0529C112.358 95.4547 111.911 94.9673 111.333 94.6968L111.318 94.6917ZM100.336 87.475L100.219 87.7608C98.1626 92.6468 94.5131 96.6936 89.8638 99.2425C85.2145 101.791 79.8391 102.693 74.6123 101.799C69.3856 100.906 64.615 98.2709 61.077 94.3226C57.5389 90.3744 55.4415 85.3454 55.1261 80.0541V79.4569C55.0126 75.6541 55.8227 71.8805 57.4873 68.4592C59.1519 65.038 61.6212 62.071 64.6838 59.8125L65.4445 59.2613C67.017 58.2137 68.7086 57.3571 70.4837 56.7094C74.4038 55.2747 78.6352 54.9085 82.7436 55.6485C86.852 56.3884 90.6895 58.2078 93.8622 60.92L94.4851 61.4865C97.9895 64.711 100.428 68.9263 101.476 73.5709C102.524 78.2155 102.132 83.069 100.351 87.4852L100.336 87.475Z" fill="#FF6C37"/>
<path d="M113.508 95.6971C113.355 95.2741 113.118 94.8858 112.813 94.5546C112.508 94.2235 112.141 93.9561 111.732 93.7679L106.284 91.2466C108.788 85.7696 109.618 79.6751 108.669 73.7283C107.721 67.7814 105.035 62.2473 100.951 57.8209C96.8664 53.3944 91.5648 50.2728 85.7117 48.8481C79.8586 47.4234 73.7148 47.759 68.0519 49.8129C62.3889 51.8667 57.4592 55.5472 53.8816 60.3923C50.304 65.2374 48.2381 71.031 47.9432 77.0458C47.6483 83.0606 49.1375 89.0284 52.224 94.2C55.3104 99.3716 59.8565 103.516 65.2914 106.114L62.6671 111.789C62.2891 112.615 62.2523 113.556 62.565 114.409C62.8776 115.262 63.5143 115.956 64.3366 116.342L66.9813 117.562C67.3893 117.751 67.831 117.858 68.2806 117.876C68.7303 117.893 69.1789 117.821 69.6005 117.664C70.0241 117.511 70.4129 117.275 70.7442 116.97C71.0756 116.665 71.3429 116.297 71.5304 115.888L74.7724 108.89C79.5905 109.48 84.4798 108.917 89.0374 107.247C93.5122 105.617 97.5365 102.95 100.78 99.4637L107.632 102.628C108.457 103.006 109.398 103.042 110.25 102.73C111.102 102.417 111.796 101.781 112.181 100.959L113.406 98.3154C113.596 97.9074 113.702 97.4659 113.72 97.0165C113.737 96.5671 113.666 96.1186 113.508 95.6971ZM112.487 97.8867L111.267 100.53C110.996 101.107 110.509 101.554 109.911 101.774C109.312 101.994 108.651 101.969 108.071 101.704L100.545 98.2235L100.29 98.4991C97.1144 101.998 93.1352 104.673 88.6954 106.293C84.1741 107.945 79.318 108.47 74.5478 107.824L74.17 107.773L70.5961 115.454C70.3254 116.031 69.8379 116.478 69.2395 116.698C68.641 116.918 67.98 116.892 67.4 116.628L64.7553 115.408C64.178 115.137 63.7309 114.65 63.511 114.052C63.2911 113.454 63.3163 112.793 63.581 112.213L66.6443 105.614L66.1797 105.399C60.8455 102.957 56.3591 98.982 53.2918 93.982C50.2245 88.9819 48.715 83.1825 48.9555 77.3221C49.1961 71.4617 51.1758 65.8054 54.6426 61.0734C58.1094 56.3414 62.9064 52.7477 68.423 50.7498C73.9395 48.752 79.926 48.4404 85.6203 49.8548C91.3146 51.2691 96.459 54.3454 100.399 58.6919C104.338 63.0385 106.895 68.4587 107.743 74.2624C108.591 80.0662 107.692 85.9909 105.161 91.2824L104.936 91.7468L111.318 94.6968C111.895 94.9673 112.343 95.4547 112.563 96.0529C112.782 96.6512 112.757 97.312 112.492 97.8918L112.487 97.8867Z" fill="black"/>
<path d="M92.5041 77.4409C90.9316 73.1691 84.8866 73.7203 84.8457 73.7254H84.7845C84.4679 73.7254 76.927 73.5569 75.7527 69.8567C75.0583 67.6621 76.0948 65.6614 76.927 64.0537C77.1006 63.7271 77.264 63.4106 77.4069 63.1044C78.0706 61.6855 80.118 61.3079 81.7364 61.5733C82.5871 61.7264 83.4276 61.9309 84.2535 62.1857C86.3366 62.7777 88.486 63.3902 90.227 62.4001C91.146 61.8897 91.9272 61.4661 92.5654 61.1701C88.9385 58.2873 84.5086 56.5963 79.8828 56.3285C75.257 56.0608 70.6615 57.2296 66.726 59.6747C67.1842 59.9965 67.5304 60.4533 67.7165 60.9812C68.0433 61.9509 67.8033 63.135 67.0068 64.5028C66.5882 65.2174 66.4197 65.7788 66.4963 66.1207C66.5729 66.4627 66.8996 66.6311 67.4051 66.8914C67.9105 67.1517 68.5334 67.4885 68.6917 68.1776C68.8244 68.7747 68.5743 69.479 67.9003 70.4028C65.9245 73.1078 59.1187 79.7836 56.1575 80.4981C56.4723 84.4706 57.8388 88.2878 60.1169 91.558C62.395 94.8282 65.5025 97.4335 69.1206 99.1065C70.6259 99.8028 72.2026 100.333 73.8228 100.689C73.3122 100.076 72.9344 99.0146 73.0927 97.1823C73.4195 93.3749 72.4698 92.9921 71.6325 92.6553L71.4793 92.5941C71.092 92.4165 70.7269 92.1937 70.3918 91.9306C69.5096 91.2818 68.5616 90.7275 67.5634 90.2769C63.1368 88.2354 62.7896 86.1939 63.2798 84.8057C64.1426 82.3967 68.2322 80.8043 69.7179 81.1871C70.8258 81.4729 71.7601 80.9778 72.9804 80.3552C73.7539 79.9238 74.5657 79.565 75.4055 79.2834C76.9882 78.773 77.4478 79.4875 77.9073 80.2174C78.5314 81.2672 79.5114 82.0586 80.6694 82.4477C83.0384 83.3919 84.0646 85.9387 83.6306 89.8176C83.6036 90.1688 83.4931 90.5086 83.3084 90.8086C83.1237 91.1086 82.8701 91.3603 82.5687 91.5427C81.9866 91.9765 81.3229 92.4664 81.2514 95.2174C81.1902 96.4259 80.8208 97.5987 80.1782 98.6242C79.5357 99.6498 78.6415 100.494 77.5805 101.077L77.4018 101.163C81.972 101.39 86.5028 100.219 90.3904 97.8062C94.278 95.3935 97.3377 91.8538 99.1618 87.6587C97.1298 85.2191 93.7601 80.8656 92.5041 77.4409Z" fill="#AFE2E3"/>
<path d="M100.596 70.6325C99.3095 67.1379 97.2095 63.9994 94.4698 61.4763L93.8469 60.9098C90.6742 58.1976 86.8367 56.3782 82.7283 55.6383C78.6199 54.8983 74.3885 55.2645 70.4684 56.6991C68.6933 57.3468 67.0017 58.2035 65.4292 59.251L64.6685 59.8023C61.6059 62.0608 59.1366 65.0278 57.472 68.449C55.8074 71.8703 54.9973 75.6439 55.1108 79.4467V80.0438C55.4084 85.349 57.4974 90.3965 61.0364 94.361C64.5754 98.3256 69.3551 100.973 74.5942 101.87C79.8333 102.767 85.2219 101.861 89.8792 99.3002C94.5365 96.7392 98.187 92.6747 100.234 87.771L100.351 87.4852C102.529 82.0939 102.616 76.0847 100.596 70.6325ZM65.7713 60.2871C66.2116 60.4884 66.5547 60.8552 66.726 61.3079C66.9558 61.9816 66.726 62.8798 66.1032 63.9873C65.5211 64.9826 65.3322 65.7481 65.516 66.3963C65.6412 66.7131 65.8312 67.0002 66.0739 67.2393C66.3166 67.4783 66.6065 67.664 66.9252 67.7846C67.2928 67.9836 67.6399 68.1674 67.6961 68.4021C67.7318 68.5552 67.6961 68.9431 67.0783 69.7954C64.6481 73.1231 58.3427 78.8087 56.132 79.4671C56.0144 75.7207 56.8345 72.0042 58.5178 68.6548C60.2011 65.3054 62.6943 62.4292 65.7713 60.2871ZM74.9358 100.311C74.2874 99.8771 74.0015 98.7798 74.1291 97.2487C74.4916 93.0381 73.3429 92.2164 72.0307 91.6907L71.8929 91.6345C71.5777 91.4814 71.2799 91.2949 71.0045 91.0782C70.0709 90.3921 69.0682 89.8054 68.0127 89.3276C65.9704 88.3783 63.6372 86.8778 64.26 85.1323C64.9442 83.2286 68.5334 81.9118 69.483 82.1568C70.9688 82.5396 72.1839 81.9067 73.4705 81.2381C74.1905 80.8377 74.9459 80.5045 75.7272 80.2429C76.5696 79.9775 76.6462 80.1 77.0699 80.7533C77.8051 81.9845 78.9542 82.9144 80.312 83.3766C82.7065 84.331 82.9005 87.332 82.635 89.6849C82.6235 89.897 82.5573 90.1024 82.4428 90.2813C82.3282 90.4602 82.1693 90.6064 81.9815 90.7056C81.0829 91.3793 80.3324 92.1755 80.2507 95.1766C80.1993 96.2033 79.8856 97.1998 79.3395 98.0709C78.7934 98.942 78.0331 99.6588 77.1312 100.153C76.2633 100.607 75.4617 100.663 74.9358 100.311ZM86.3111 99.8006C83.4707 100.851 80.4469 101.314 77.4222 101.163L77.6009 101.077C78.6619 100.494 79.5561 99.6497 80.1987 98.6242C80.8412 97.5987 81.2106 96.4259 81.2718 95.2174C81.3433 92.4664 82.007 91.9765 82.5891 91.5427C82.8906 91.3603 83.1442 91.1086 83.3289 90.8086C83.5136 90.5086 83.624 90.1688 83.651 89.8176C84.085 85.9387 83.0588 83.3919 80.6898 82.4477C79.5318 82.0586 78.5518 81.2672 77.9277 80.2174C77.4529 79.4875 77.0087 78.7985 75.426 79.2834C74.5862 79.565 73.7743 79.9238 73.0008 80.3552C71.7959 80.9778 70.8462 81.4729 69.7383 81.1871C68.2526 80.8043 64.163 82.3967 63.3002 84.8057C62.7896 86.1735 63.1572 88.2303 67.5838 90.2769C68.582 90.7275 69.53 91.2817 70.4123 91.9305C70.7474 92.1937 71.1124 92.4165 71.4998 92.594L71.6529 92.6553C72.4902 92.9921 73.4399 93.3749 73.1131 97.1823C72.9549 99.0146 73.348 100.076 73.8432 100.689C72.223 100.333 70.6463 99.8028 69.141 99.1065C65.5229 97.4334 62.4154 94.8282 60.1373 91.558C57.8593 88.2878 56.4927 84.4706 56.1779 80.4981C59.1187 79.7835 65.9245 73.1078 67.9207 70.4028C68.5947 69.479 68.8449 68.7747 68.7121 68.1776C68.5538 67.4885 67.9565 67.1568 67.4255 66.8914C66.8945 66.626 66.6086 66.4321 66.5167 66.1207C66.4248 65.8094 66.5882 65.2174 67.0273 64.5028C67.8237 63.135 68.0484 61.9509 67.7369 60.9812C67.5508 60.4533 67.2046 59.9965 66.7465 59.6747C70.6776 57.2388 75.265 56.0752 79.8823 56.3429C84.4997 56.6105 88.9218 58.2963 92.545 61.1701C91.9068 61.4661 91.1256 61.8795 90.2066 62.4001C88.4656 63.3902 86.3162 62.7777 84.2331 62.1857C83.4072 61.9309 82.5666 61.7264 81.716 61.5733C80.0976 61.3181 78.0502 61.6958 77.3865 63.1044C77.2435 63.4106 77.0802 63.7271 76.9066 64.0537C76.0744 65.6614 75.0379 67.6621 75.7323 69.8567C76.9066 73.5569 84.4475 73.7203 84.7641 73.7254H84.8253C84.8866 73.7254 90.952 73.1691 92.4837 77.4409C93.7397 80.8656 97.1094 85.2191 99.121 87.6485C97.9131 90.43 96.1559 92.9391 93.9548 95.0254C91.7536 97.1118 89.1538 98.7325 86.3111 99.7904V99.8006ZM99.5856 86.5869C97.8037 84.4127 94.6127 80.2582 93.4589 77.099C91.6566 72.2044 85.3206 72.6638 84.7487 72.7148C82.7474 72.6791 77.4886 72.0411 76.7023 69.5607C76.1356 67.7693 77.024 66.0493 77.8103 64.5335C77.9889 64.1915 78.1574 63.8649 78.3208 63.5484C78.7344 62.6553 80.3069 62.3848 81.5731 62.5838C82.3823 62.729 83.182 62.9233 83.9676 63.1656C86.1426 63.7883 88.6035 64.4926 90.7223 63.2881C91.5947 62.7763 92.4946 62.3129 93.418 61.8999C96.8316 64.9024 99.2515 68.8714 100.357 73.2804C101.462 77.6894 101.2 82.33 99.606 86.5869H99.5856Z" fill="black"/>
<path d="M67.0783 69.7904C64.6429 73.1232 58.3222 78.8088 56.1217 79.4876C56.0039 75.7398 56.8243 72.022 58.5086 68.6716C60.1928 65.3212 62.6875 62.4444 65.7661 60.3024C66.2074 60.504 66.552 60.8705 66.726 61.3232C66.9558 61.9969 66.726 62.8952 66.1031 64.0027C65.5211 64.9979 65.3322 65.7635 65.516 66.4117C65.6412 66.7284 65.8312 67.0155 66.0739 67.2546C66.3165 67.4937 66.6065 67.6794 66.9251 67.7999C67.2927 67.9989 67.6399 68.1827 67.6961 68.4175C67.7318 68.5502 67.6961 68.9381 67.0783 69.7904ZM82.635 89.6951C82.9005 87.3423 82.7065 84.3413 80.312 83.3869C78.9542 82.9246 77.805 81.9948 77.0699 80.7635C76.6462 80.1102 76.5594 79.9877 75.7271 80.2531C74.9459 80.5148 74.1905 80.8479 73.4705 81.2484C72.1839 81.917 70.9687 82.5498 69.483 82.1671C69.3911 82.1451 69.2967 82.1348 69.2022 82.1364C67.9718 82.1364 64.888 83.392 64.26 85.1426C63.632 86.8931 65.9551 88.3886 68.0126 89.3379C69.0682 89.8157 70.0709 90.4024 71.0045 91.0885C71.2799 91.3051 71.5777 91.4916 71.8928 91.6448L72.0307 91.7009C73.3428 92.2113 74.4916 93.0483 74.1291 97.2589C74.0015 98.7901 74.2874 99.8772 74.9358 100.321C75.4463 100.673 76.2632 100.617 77.1312 100.168C78.0331 99.6741 78.7933 98.9574 79.3394 98.0862C79.8855 97.2151 80.1992 96.2187 80.2507 95.1919C80.3324 92.1909 81.0829 91.3947 81.9815 90.721C82.17 90.6213 82.3294 90.4743 82.444 90.2944C82.5585 90.1146 82.6244 89.9081 82.635 89.6951ZM99.5957 86.5818C101.187 82.3234 101.448 77.6825 100.344 73.2727C99.2396 68.863 96.8229 64.8919 93.4129 61.8846C92.4885 62.3008 91.5869 62.7659 90.712 63.278C88.5932 64.4825 86.117 63.7883 83.9573 63.1555C83.1717 62.9131 82.3721 62.7188 81.5628 62.5736C80.2966 62.3746 78.7241 62.6451 78.3106 63.5383C78.1625 63.8547 77.994 64.1813 77.8 64.5233C77.0138 66.0544 76.1254 67.7591 76.6921 69.5505C77.4784 72.0309 82.7371 72.6689 84.7385 72.7046C84.8457 72.7046 85.1623 72.674 85.6167 72.674C87.5517 72.674 91.9884 73.1232 93.4486 77.0888C94.6178 80.248 97.8139 84.4076 99.5957 86.5818Z" fill="#70D44B"/>
<line x1="5.75679" y1="16.3112" x2="148.307" y2="16.3112" stroke="#494949" stroke-width="0.274135" stroke-dasharray="1.64 1.64"/>
<line x1="5.75679" y1="32.7589" x2="148.307" y2="32.7589" stroke="#494949" stroke-width="0.274135" stroke-dasharray="1.64 1.64"/>
<line x1="5.48264" y1="120.483" x2="148.033" y2="120.483" stroke="#494949" stroke-width="0.274135" stroke-dasharray="1.64 1.64"/>
<line x1="5.75679" y1="136.931" x2="148.307" y2="136.931" stroke="#494949" stroke-width="0.274135" stroke-dasharray="1.64 1.64"/>
<line x1="33.0333" y1="5.48291" x2="33.0333" y2="148.033" stroke="#494949" stroke-width="0.274135" stroke-dasharray="1.64 1.64"/>
<line x1="121.305" y1="5.48291" x2="121.305" y2="148.033" stroke="#494949" stroke-width="0.274135" stroke-dasharray="1.64 1.64"/>
</g>
<defs>
<clipPath id="clip0_513_604">
<rect width="150" height="150" fill="white"/>
</clipPath>
</defs>
</svg>
