<svg width="188" height="209" viewBox="0 0 188 209" fill="none" xmlns="http://www.w3.org/2000/svg">
<path d="M41.9338 42.6679C41.8618 42.0712 41.6459 41.5009 41.3046 41.0061C40.9633 40.5113 40.5068 40.1068 39.9744 39.8274C36.3194 37.8816 32.2427 36.8617 28.1017 36.8572C23.9804 36.8701 19.9223 37.8708 16.2679 39.7755C12.538 41.7204 9.34723 44.5571 6.97968 48.0331C4.61213 51.509 3.14129 55.5163 2.69816 59.698C2.25503 63.8797 2.85336 68.106 4.43987 72.0006C6.02637 75.8952 8.55178 79.3372 11.7912 82.02C12.2753 82.4252 12.8508 82.7065 13.4679 82.8399C14.085 82.9732 14.7253 82.9544 15.3336 82.7853C15.9316 82.6238 16.4808 82.3183 16.9332 81.8955C17.3856 81.4726 17.7275 80.9454 17.9287 80.3598C22.6229 67.2534 30.4283 55.4811 40.6751 46.0532C41.143 45.6326 41.5019 45.1049 41.7212 44.5153C41.9404 43.9258 42.0133 43.2919 41.9338 42.6679Z" fill="#FFAB4D"/>
<path d="M41.1941 37.5317C35.0448 34.3029 27.9176 33.4635 21.1859 35.1753C14.4543 36.8871 8.59478 41.029 4.7366 46.8026C0.878422 52.5762 -0.705318 59.573 0.290603 66.4445C1.28652 73.3159 4.7916 79.5757 10.1303 84.0175C11.3054 84.9899 12.7831 85.5219 14.3085 85.522C15.6434 85.5205 16.9454 85.1074 18.0368 84.3391C19.1282 83.5708 19.9559 82.4847 20.4071 81.2289C24.955 68.5166 32.5251 57.0994 42.4658 47.9599C43.2351 47.2555 43.8231 46.376 44.18 45.3961C44.5369 44.4161 44.6521 43.3646 44.5159 42.3307C44.3912 41.322 44.0239 40.3586 43.4454 39.5228C42.8669 38.6871 42.0945 38.0039 41.1941 37.5317ZM17.9547 80.3339C17.7534 80.9194 17.4116 81.4467 16.9592 81.8695C16.5068 82.2924 15.9575 82.5979 15.3595 82.7594C14.7513 82.9285 14.111 82.9473 13.4938 82.8139C12.8767 82.6806 12.3013 82.3993 11.8172 81.9941C8.57774 79.3113 6.05231 75.8693 4.4658 71.9747C2.8793 68.0801 2.28099 63.8538 2.72412 59.6721C3.16725 55.4903 4.63809 51.4831 7.00564 48.0072C9.37319 44.5312 12.564 41.6945 16.2938 39.7496C19.9482 37.8449 24.0063 36.8441 28.1276 36.8312C32.2687 36.8358 36.3454 37.8556 40.0004 39.8015C40.5327 40.0809 40.9892 40.4854 41.3305 40.9802C41.6718 41.475 41.8878 42.0453 41.9597 42.642C42.0345 43.2692 41.9555 43.9051 41.7294 44.4949C41.5034 45.0847 41.137 45.6106 40.6621 46.0272C30.426 55.4668 22.6339 67.248 17.9547 80.3598V80.3339Z" fill="black"/>
<path d="M121.41 2.62838C119.119 2.62992 116.84 2.94855 114.636 3.57522C110.947 4.60358 107.537 6.45259 104.664 8.98392C101.79 11.5153 99.5255 14.6634 98.0406 18.1928C97.7786 18.7851 97.6688 19.4334 97.7209 20.0789C97.773 20.7244 97.9855 21.3467 98.339 21.8894C98.6709 22.4128 99.1258 22.8472 99.664 23.1546C100.202 23.4621 100.808 23.6333 101.427 23.6534C115.328 24.1601 128.899 28.0276 140.977 34.9246C141.53 35.2446 142.152 35.4237 142.79 35.4464C143.429 35.469 144.062 35.3343 144.636 35.0543C145.205 34.7833 145.699 34.3786 146.076 33.8748C146.453 33.371 146.703 32.7833 146.803 32.1619C147.388 28.5018 147.167 24.7583 146.157 21.192C145.148 17.6256 143.372 14.322 140.956 11.5111C138.539 8.70012 135.538 6.44934 132.163 4.91532C128.787 3.3813 125.118 2.60089 121.41 2.62838Z" fill="#FFA44B"/>
<path d="M146.842 15.7803C143.925 9.88273 139.046 5.18326 133.043 2.4878C127.039 -0.207654 120.284 -0.731153 113.936 1.00708C109.866 2.1464 106.106 4.19064 102.938 6.98696C99.7699 9.78328 97.275 13.2593 95.6401 17.1552C95.2251 18.1387 95.0543 19.2081 95.1424 20.2719C95.2306 21.3357 95.575 22.3623 96.1461 23.2643C96.7027 24.1445 97.4671 24.8745 98.3721 25.3902C99.2772 25.9058 100.295 26.1913 101.336 26.2215C114.819 26.7077 127.982 30.4599 139.693 37.1555C140.602 37.6736 141.624 37.9639 142.67 38.0017C143.716 38.0394 144.756 37.8235 145.701 37.3724C146.646 36.9213 147.467 36.2483 148.095 35.411C148.723 34.5737 149.139 33.5969 149.307 32.564C150.238 26.8492 149.377 20.9866 146.842 15.7803ZM146.751 32.1489C146.658 32.7675 146.418 33.3545 146.049 33.8603C145.681 34.366 145.196 34.7756 144.636 35.0543C144.068 35.3235 143.443 35.4511 142.815 35.4262C142.187 35.4014 141.574 35.2248 141.029 34.9116C128.951 28.0146 115.38 24.1471 101.479 23.6404C100.86 23.6203 100.254 23.4491 99.716 23.1417C99.1777 22.8342 98.7228 22.3998 98.3909 21.8764C98.0374 21.3337 97.8249 20.7115 97.7728 20.066C97.7207 19.4205 97.8306 18.7722 98.0925 18.1799C99.5727 14.6432 101.835 11.4873 104.709 8.94902C107.583 6.41071 110.995 4.55579 114.688 3.52334C116.892 2.89668 119.171 2.57804 121.462 2.57651C125.17 2.55534 128.839 3.34232 132.212 4.8827C135.586 6.42307 138.583 8.67981 140.995 11.4958C143.407 14.3119 145.176 17.6195 146.179 21.1886C147.182 24.7576 147.395 28.5023 146.803 32.1619L146.751 32.1489Z" fill="black"/>
<path d="M181.889 150.076L165.67 142.579L166.241 141.398C172.671 127.951 174.952 112.895 172.793 98.1475C170.634 83.4001 164.133 69.6285 154.118 58.5864C144.104 47.5443 131.028 39.7314 116.556 36.1424C102.084 32.5535 86.871 33.3509 72.8541 38.4332C58.8371 43.5155 46.6505 52.6527 37.8459 64.6813C29.0413 76.7098 24.0173 91.0855 23.4134 105.978C22.8096 120.87 26.6533 135.605 34.4551 148.306C42.2569 161.008 53.6638 171.101 67.2233 177.3L68.4041 177.845L60.6187 194.616C59.9458 196.089 59.8819 197.769 60.4407 199.289C60.9995 200.809 62.1359 202.048 63.6031 202.735L70.3245 205.835C71.7986 206.508 73.4786 206.572 74.9995 206.013C76.5205 205.454 77.7594 204.318 78.4472 202.852L87.5302 183.332L88.4904 183.461C100.614 185.105 112.955 183.769 124.446 179.57C135.73 175.454 145.843 168.657 153.914 159.764L154.563 159.064L173.689 167.91C175.163 168.582 176.843 168.646 178.364 168.088C179.885 167.529 181.124 166.393 181.812 164.927L184.913 158.208C185.586 156.734 185.649 155.055 185.091 153.535C184.532 152.014 183.395 150.776 181.928 150.088L181.889 150.076ZM153.979 131.735L153.68 132.462C148.455 144.879 139.18 155.163 127.364 161.641C115.548 168.118 101.886 170.408 88.6026 168.138C75.319 165.868 63.1948 159.171 54.2029 149.138C45.211 139.104 39.8806 126.324 39.079 112.876V111.359C38.7904 101.695 40.8494 92.1049 45.0799 83.4103C49.3103 74.7157 55.586 67.1757 63.3695 61.436L65.3029 60.0352C69.2993 57.3731 73.5986 55.196 78.1099 53.55C88.0727 49.904 98.8266 48.9735 109.268 50.854C119.709 52.7344 129.462 57.3581 137.526 64.2506L139.109 65.6902C148.015 73.8848 154.213 84.5971 156.876 96.4006C159.54 108.204 158.542 120.538 154.018 131.761L153.979 131.735Z" fill="#FF6C37"/>
<path d="M187.456 152.631C187.065 151.556 186.465 150.569 185.689 149.727C184.914 148.886 183.98 148.206 182.94 147.728L169.095 141.321C175.46 127.402 177.569 111.913 175.158 96.8006C172.746 81.6877 165.922 67.6238 155.541 56.3747C145.161 45.1256 131.687 37.1926 116.811 33.572C101.936 29.9513 86.3216 30.8042 71.9294 36.0237C57.5372 41.2432 45.0084 50.5966 35.9161 62.9095C26.8238 75.2224 21.5732 89.9459 20.8237 105.231C20.0742 120.517 23.8591 135.683 31.7033 148.826C39.5474 161.969 51.1011 172.502 64.9137 179.103L58.2442 193.526C57.2834 195.624 57.1901 198.017 57.9846 200.184C58.7792 202.35 60.3974 204.116 62.4872 205.096L69.2086 208.196C70.2456 208.678 71.3681 208.949 72.5108 208.993C73.6536 209.038 74.7938 208.855 75.8651 208.455C76.9417 208.066 77.9298 207.467 78.772 206.692C79.6141 205.917 80.2933 204.982 80.7699 203.941L89.0095 186.159C101.255 187.658 113.681 186.226 125.264 181.983C136.636 177.84 146.864 171.062 155.108 162.203L172.521 170.244C174.618 171.204 177.01 171.297 179.175 170.503C181.34 169.708 183.104 168.091 184.082 166.003L187.196 159.285C187.678 158.248 187.949 157.126 187.993 155.984C188.038 154.841 187.855 153.702 187.456 152.631ZM184.861 158.195L181.76 164.914C181.072 166.38 179.833 167.516 178.312 168.075C176.791 168.633 175.111 168.569 173.637 167.897L154.511 159.051L153.862 159.751C145.791 168.644 135.678 175.441 124.394 179.557C112.904 183.756 100.562 185.092 88.4386 183.448L87.4784 183.319L78.3954 202.839C77.7076 204.306 76.4686 205.441 74.9476 206C73.4267 206.559 71.7467 206.495 70.2726 205.822L63.5512 202.722C62.0841 202.035 60.9477 200.796 60.3888 199.276C59.83 197.756 59.894 196.076 60.5668 194.603L68.3522 177.832L67.1714 177.287C53.6145 171.079 42.2125 160.979 34.417 148.272C26.6216 135.565 22.7853 120.827 23.3967 105.934C24.008 91.0405 29.0394 76.666 37.8501 64.6404C46.6608 52.6148 58.8524 43.482 72.8725 38.4049C86.8927 33.3277 102.107 32.5359 116.579 36.1302C131.051 39.7245 144.125 47.5424 154.138 58.5884C164.15 69.6344 170.648 83.4088 172.803 98.1581C174.958 112.907 172.674 127.964 166.241 141.411L165.67 142.592L181.889 150.089C183.357 150.776 184.493 152.014 185.052 153.535C185.611 155.055 185.547 156.734 184.874 158.208L184.861 158.195Z" fill="black"/>
<path d="M134.074 106.236C130.078 95.3794 114.714 96.7803 114.61 96.7932H114.455C113.65 96.7932 94.4852 96.3652 91.5008 86.9617C89.7361 81.3844 92.3702 76.3 94.4852 72.2143C94.9264 71.3842 95.3416 70.5801 95.705 69.8019C97.3918 66.1961 102.595 65.2363 106.708 65.9108C108.87 66.2999 111.006 66.8197 113.105 67.4672C118.399 68.9717 123.862 70.5282 128.287 68.012C130.622 66.7149 132.608 65.6384 134.23 64.8861C125.012 57.5601 113.754 53.2625 101.997 52.5822C90.2409 51.9018 78.5616 54.872 68.5598 61.0858C69.7241 61.9038 70.6041 63.0645 71.0771 64.4062C71.9075 66.8706 71.2977 69.8797 69.2735 73.3557C68.2095 75.1716 67.7813 76.5984 67.9759 77.4674C68.1706 78.3364 69.001 78.7644 70.2856 79.4259C71.5702 80.0874 73.1532 80.9434 73.5555 82.6944C73.8928 84.212 73.257 86.0019 71.5443 88.3495C66.5227 95.2238 49.2261 112.189 41.7002 114.005C42.5002 124.1 45.9732 133.801 51.7629 142.112C57.5526 150.422 65.4503 157.043 74.6454 161.295C78.4712 163.065 82.4783 164.413 86.596 165.316C85.2984 163.759 84.3382 161.061 84.7405 156.405C85.5709 146.729 83.1575 145.756 81.0295 144.9L80.6402 144.745C79.6557 144.293 78.728 143.727 77.8763 143.059C75.6342 141.41 73.2248 140.001 70.6878 138.856C59.4379 133.668 58.5556 128.48 59.8012 124.952C61.9941 118.83 72.3877 114.783 76.1636 115.756C78.9793 116.482 81.3538 115.224 84.455 113.642C86.4209 112.545 88.4842 111.634 90.6185 110.918C94.6409 109.621 95.8087 111.437 96.9765 113.292C98.5627 115.96 101.053 117.971 103.996 118.96C110.017 121.359 112.625 127.831 111.522 137.689C111.454 138.581 111.173 139.445 110.703 140.207C110.234 140.97 109.59 141.609 108.823 142.073C107.344 143.175 105.657 144.42 105.476 151.411C105.32 154.483 104.381 157.463 102.748 160.069C101.115 162.676 98.8425 164.821 96.1461 166.301L95.692 166.522C107.307 167.098 118.822 164.122 128.702 157.991C138.582 151.859 146.358 142.863 150.994 132.202C145.83 126.003 137.266 114.939 134.074 106.236Z" fill="#AFE2E3"/>
<path d="M154.64 88.9332C151.37 80.0523 146.033 72.0765 139.07 65.6643L137.487 64.2246C129.423 57.3321 119.671 52.7084 109.229 50.828C98.7877 48.9475 88.0338 49.878 78.071 53.524C73.5597 55.17 69.2604 57.3471 65.264 60.0092L63.3306 61.41C55.5471 67.1497 49.2714 74.6898 45.041 83.3843C40.8105 92.0789 38.7515 101.669 39.0401 111.333V112.851C39.7963 126.333 45.1055 139.16 54.0998 149.235C63.0941 159.31 75.2416 166.038 88.5566 168.318C101.872 170.598 115.567 168.296 127.403 161.787C139.239 155.279 148.517 144.95 153.719 132.488L154.018 131.761C159.551 118.06 159.773 102.789 154.64 88.9332ZM66.1334 62.6422C67.2524 63.1537 68.1244 64.0859 68.5598 65.2363C69.1437 66.9484 68.5598 69.2311 66.9768 72.0457C65.4976 74.5749 65.0175 76.5205 65.4846 78.1677C65.8028 78.9727 66.2857 79.7024 66.9024 80.3099C67.5191 80.9174 68.256 81.3894 69.0659 81.6957C70.0001 82.2015 70.8825 82.6685 71.0252 83.2651C71.116 83.6542 71.0252 84.64 69.4551 86.806C63.2787 95.2627 47.2537 109.712 41.6353 111.385C41.3365 101.864 43.4207 92.4191 47.6988 83.9072C51.9768 75.3954 58.3133 68.086 66.1334 62.6422ZM89.4247 164.356C87.7768 163.253 87.0502 160.465 87.3745 156.574C88.2958 145.873 85.3763 143.785 82.0416 142.449L81.6912 142.306C80.8902 141.917 80.1333 141.443 79.4334 140.892C77.0607 139.149 74.5124 137.658 71.8297 136.444C66.6394 134.031 60.7095 130.218 62.2926 125.782C64.0313 120.944 73.1532 117.598 75.5667 118.22C79.3426 119.193 82.4308 117.585 85.7007 115.886C87.5305 114.868 89.4504 114.021 91.4359 113.356C93.5769 112.682 93.7716 112.993 94.8486 114.653C96.7168 117.782 99.6373 120.145 103.088 121.32C109.174 123.746 109.667 131.372 108.992 137.352C108.963 137.891 108.794 138.413 108.503 138.867C108.212 139.322 107.808 139.693 107.331 139.946C105.047 141.658 103.14 143.681 102.932 151.308C102.802 153.917 102.004 156.449 100.616 158.663C99.2286 160.877 97.2964 162.698 95.0043 163.954C92.7984 165.108 90.7612 165.251 89.4247 164.356ZM118.335 163.059C111.116 165.728 103.431 166.906 95.7439 166.522L96.198 166.301C98.8944 164.821 101.167 162.676 102.8 160.069C104.433 157.463 105.372 154.483 105.528 151.411C105.709 144.42 107.396 143.175 108.875 142.073C109.641 141.609 110.286 140.97 110.755 140.207C111.225 139.445 111.505 138.581 111.574 137.689C112.677 127.831 110.069 121.359 104.048 118.96C101.105 117.971 98.6146 115.96 97.0285 113.292C95.8217 111.437 94.6929 109.686 90.6704 110.918C88.5361 111.634 86.4728 112.545 84.5069 113.642C81.4447 115.224 79.0312 116.482 76.2155 115.756C72.4395 114.783 62.046 118.83 59.8531 124.952C58.5556 128.428 59.4898 133.655 70.7397 138.856C73.2766 140.001 75.6861 141.41 77.9283 143.059C78.7799 143.727 79.7076 144.293 80.6921 144.745L81.0813 144.9C83.2094 145.756 85.6229 146.729 84.7924 156.405C84.3902 161.061 85.3893 163.759 86.6479 165.316C82.5303 164.413 78.5231 163.065 74.6973 161.295C65.5022 157.043 57.6045 150.422 51.8148 142.112C46.0252 133.801 42.5521 124.1 41.7521 114.005C49.226 112.189 66.5226 95.2238 71.5961 88.3495C73.3089 86.0019 73.9447 84.212 73.6074 82.6944C73.2051 80.9434 71.687 80.1003 70.3375 79.4259C68.988 78.7514 68.2614 78.2586 68.0278 77.4674C67.7943 76.6762 68.2095 75.1716 69.3254 73.3557C71.3496 69.8797 71.9205 66.8706 71.129 64.4062C70.656 63.0645 69.776 61.9038 68.6117 61.0858C78.6026 54.8954 90.2614 51.9385 101.996 52.6187C113.731 53.2988 124.97 57.5829 134.178 64.8861C132.556 65.6384 130.571 66.689 128.235 68.0119C123.81 70.5282 118.348 68.9717 113.053 67.4672C110.955 66.8197 108.818 66.2999 106.656 65.9108C102.543 65.2622 97.3399 66.222 95.653 69.8019C95.2897 70.5801 94.8745 71.3842 94.4333 72.2143C92.3183 76.3 89.6842 81.3844 91.4489 86.9616C94.4333 96.3652 113.598 96.7802 114.403 96.7932H114.559C114.714 96.7932 130.129 95.3795 134.022 106.236C137.214 114.939 145.778 126.002 150.891 132.176C147.821 139.245 143.355 145.622 137.761 150.924C132.167 156.226 125.559 160.344 118.335 163.033V163.059ZM152.071 129.479C147.543 123.953 139.433 113.395 136.501 105.367C131.92 92.928 115.817 94.0954 114.364 94.2251C109.278 94.1343 95.9126 92.513 93.9143 86.2094C92.474 81.6568 94.7318 77.2858 96.73 73.4336C97.1842 72.5645 97.6124 71.7344 98.0276 70.9303C99.0786 68.6605 103.075 67.973 106.293 68.4789C108.35 68.8478 110.382 69.3416 112.379 69.9575C117.906 71.5399 124.161 73.3298 129.546 70.2688C131.763 68.9681 134.05 67.7903 136.397 66.7408C145.072 74.3713 151.222 84.4577 154.031 95.6624C156.84 106.867 156.174 118.661 152.123 129.479H152.071Z" fill="black"/>
<path d="M69.4551 86.7932C63.2657 95.2628 47.2018 109.712 41.6093 111.437C41.3098 101.913 43.3949 92.4643 47.6753 83.9499C51.9558 75.4356 58.296 68.1247 66.1203 62.6812C67.2418 63.1934 68.1176 64.1247 68.5597 65.2753C69.1436 66.9874 68.5597 69.2701 66.9767 72.0847C65.4975 74.6139 65.0174 76.5595 65.4845 78.2067C65.8027 79.0117 66.2856 79.7414 66.9023 80.3489C67.519 80.9564 68.2559 81.4284 69.0658 81.7347C70.0001 82.2405 70.8824 82.7075 71.0251 83.3041C71.1159 83.6413 71.0251 84.6271 69.4551 86.7932ZM108.992 137.378C109.667 131.398 109.174 123.772 103.088 121.346C99.6372 120.172 96.7167 117.808 94.8485 114.679C93.7715 113.019 93.5509 112.708 91.4359 113.382C89.4504 114.047 87.5304 114.894 85.7006 115.912C82.4307 117.611 79.3425 119.219 75.5666 118.246C75.3329 118.19 75.0932 118.164 74.8529 118.168C71.7258 118.168 63.8885 121.359 62.2925 125.808C60.6965 130.257 66.6004 134.057 71.8296 136.47C74.5123 137.684 77.0607 139.175 79.4334 140.919C80.1332 141.469 80.8901 141.943 81.6911 142.332L82.0415 142.475C85.3762 143.772 88.2957 145.899 87.3745 156.6C87.0501 160.491 87.7767 163.253 89.4247 164.382C90.7222 165.277 92.7983 165.134 95.0042 163.993C97.2963 162.737 99.2285 160.916 100.616 158.702C102.004 156.488 102.802 153.956 102.932 151.347C103.14 143.72 105.047 141.697 107.331 139.985C107.81 139.731 108.215 139.358 108.506 138.901C108.798 138.444 108.965 137.919 108.992 137.378ZM152.097 129.466C156.141 118.644 156.804 106.85 153.998 95.643C151.192 84.4363 145.05 74.3446 136.384 66.702C134.034 67.7596 131.743 68.9416 129.52 70.2429C124.135 73.3039 117.841 71.54 112.353 69.9317C110.356 69.3157 108.324 68.8219 106.267 68.453C103.049 67.9472 99.0526 68.6346 98.0016 70.9044C97.6253 71.7086 97.1971 72.5387 96.704 73.4077C94.7057 77.2988 92.448 81.6309 93.8883 86.1835C95.8865 92.4871 109.251 94.1084 114.338 94.1992C114.61 94.1992 115.415 94.1214 116.57 94.1214C121.488 94.1214 132.763 95.2628 136.474 105.341C139.446 113.369 147.569 123.94 152.097 129.466Z" fill="#70D44B"/>
</svg>
