<svg width="241" height="43" viewBox="0 0 241 43" fill="none" xmlns="http://www.w3.org/2000/svg">
<path d="M11.586 9.52387H0V2.28116H31.8046V9.52387H20.2187V42.1446H11.586V9.52387Z" fill="black"/>
<path d="M38.8728 10.5504C37.5476 10.5504 36.4307 10.1132 35.522 9.23873C34.6133 8.36428 34.1589 7.26171 34.1589 5.93103C34.1589 4.63837 34.6133 3.55482 35.522 2.68037C36.4307 1.7679 37.5476 1.31167 38.8728 1.31167C40.198 1.31167 41.315 1.7679 42.2237 2.68037C43.1324 3.55482 43.5867 4.63837 43.5867 5.93103C43.5867 7.26171 43.1324 8.36428 42.2237 9.23873C41.315 10.1132 40.198 10.5504 38.8728 10.5504ZM34.5565 14.7706H43.1892V42.1446H34.5565V14.7706Z" fill="black"/>
<path d="M49.4667 14.7706H57.4746V18.0782C58.6484 16.7476 60.0114 15.721 61.5638 14.9987C63.1162 14.2763 64.7253 13.9151 66.3913 13.9151C68.4737 13.9151 70.1397 14.2573 71.3892 14.9416C72.6386 15.588 73.6231 16.5575 74.3425 17.8501C75.5162 16.5955 76.936 15.626 78.602 14.9416C80.3058 14.2573 81.9907 13.9151 83.6567 13.9151C87.14 13.9151 89.62 14.8086 91.0967 16.5955C92.6112 18.3824 93.3684 20.9677 93.3684 24.3515V42.1446H85.1901V25.5491C85.1901 23.8002 84.8493 22.5455 84.1678 21.7851C83.4863 21.0248 82.3883 20.6446 80.8738 20.6446C78.7534 20.6446 77.0496 21.481 75.7623 23.1538C75.838 24.3705 75.8759 25.359 75.8759 26.1194V42.1446H67.6408V25.2639C67.6408 23.5911 67.3379 22.4125 66.7321 21.7281C66.1641 21.0057 65.1608 20.6446 63.722 20.6446C61.4881 20.6446 59.5003 21.9182 57.7586 24.4655V42.1446H49.4667V14.7706Z" fill="black"/>
<path d="M114.726 43C109.501 43 105.392 41.7454 102.401 39.2361C99.4102 36.6888 97.9146 33.1339 97.9146 28.5716C97.9146 24.0473 99.2398 20.4735 101.89 17.8501C104.578 15.2268 108.403 13.9151 113.363 13.9151C116.619 13.9151 119.383 14.5234 121.655 15.7401C123.926 16.9567 125.649 18.6485 126.823 20.8156C127.997 22.9447 128.583 25.359 128.583 28.0584V31.5371H106.093C106.699 35.0349 109.955 36.7838 115.862 36.7838C117.603 36.7838 119.402 36.6317 121.257 36.3276C123.112 36.0234 124.721 35.6052 126.084 35.0729V41.118C124.759 41.6883 123.055 42.1446 120.973 42.4867C118.891 42.8289 116.808 43 114.726 43ZM120.462 25.9483C120.348 24.1233 119.667 22.7166 118.417 21.7281C117.168 20.7016 115.445 20.1883 113.249 20.1883C111.091 20.1883 109.387 20.7016 108.138 21.7281C106.888 22.7546 106.207 24.1614 106.093 25.9483H120.462Z" fill="black"/>
<path d="M143.493 43C140.161 43 137.435 42.1636 135.314 40.4907C133.232 38.7798 132.191 36.4607 132.191 33.5332C132.191 30.4916 133.194 28.1344 135.201 26.4615C137.207 24.7507 140.047 23.8952 143.72 23.8952C145.348 23.8952 146.9 24.0663 148.377 24.4085C149.854 24.7507 151.16 25.2259 152.296 25.8342V25.1499C152.296 23.439 151.69 22.1843 150.478 21.3859C149.267 20.5875 147.411 20.1883 144.913 20.1883C141.581 20.1883 138.514 20.8156 135.712 22.0703V15.7971C136.924 15.2648 138.495 14.8276 140.426 14.4854C142.357 14.1052 144.288 13.9151 146.219 13.9151C151.141 13.9151 154.814 14.9416 157.237 16.9947C159.66 19.0097 160.872 21.8422 160.872 25.492V42.1446H152.807V39.6353C150.497 41.8784 147.393 43 143.493 43ZM145.821 37.2971C147.222 37.2971 148.491 37.0309 149.626 36.4987C150.762 35.9664 151.652 35.225 152.296 34.2745V31.5371C150.365 30.2445 148.244 29.5981 145.935 29.5981C144.345 29.5981 143.114 29.9403 142.243 30.6247C141.41 31.271 140.994 32.2405 140.994 33.5332C140.994 34.7498 141.41 35.6813 142.243 36.3276C143.076 36.9739 144.269 37.2971 145.821 37.2971Z" fill="black"/>
<path d="M166.549 14.7706H174.841V18.7056C175.939 17.3749 177.472 16.3674 179.441 15.683C181.41 14.9607 183.644 14.5995 186.143 14.5995V21.1578C183.53 21.1578 181.221 21.557 179.214 22.3554C177.245 23.1538 175.882 24.3705 175.125 26.0053V42.1446H166.549V14.7706Z" fill="black"/>
<path d="M201.203 43C198.023 43 195.6 42.1255 193.934 40.3767C192.306 38.5897 191.492 36.1185 191.492 32.9629V20.9867H187.516V14.7706H191.492V6.55836H200.067V14.7706H206.485V20.9867H200.067V31.8223C200.067 33.4191 200.37 34.5787 200.976 35.3011C201.582 35.9854 202.661 36.3276 204.213 36.3276C205.463 36.3276 206.656 36.0234 207.791 35.4151V41.8594C206.05 42.6198 203.854 43 201.203 43Z" fill="black"/>
<path d="M211.751 0H220.327V17.9072C221.614 16.5765 223.072 15.588 224.7 14.9416C226.328 14.2573 228.07 13.9151 229.925 13.9151C233.636 13.9151 236.4 14.9226 238.217 16.9377C240.072 18.9147 241 21.595 241 24.9788V42.1446H232.424V25.9483C232.424 22.4125 230.796 20.6446 227.54 20.6446C226.101 20.6446 224.757 21.0057 223.507 21.7281C222.258 22.4125 221.198 23.439 220.327 24.8077V42.1446H211.751V0Z" fill="black"/>
</svg>
