<svg width="145" height="162" viewBox="0 0 145 162" fill="none" xmlns="http://www.w3.org/2000/svg">
<path d="M32.36 32.8901C32.3055 32.431 32.1394 31.9923 31.8761 31.6123C31.6129 31.2322 31.2606 30.9225 30.85 30.7101C28.0339 29.2068 24.8922 28.4171 21.7 28.4101C18.523 28.4235 15.3956 29.1985 12.58 30.6701C9.70745 32.1713 7.2504 34.3592 5.42732 37.0391C3.60425 39.7189 2.47165 42.8078 2.13023 46.0309C1.78882 49.2541 2.24917 52.5116 3.47036 55.514C4.69155 58.5163 6.63572 61.1703 9.13 63.2401C9.50308 63.5524 9.94655 63.7694 10.4221 63.8722C10.8978 63.9749 11.3912 63.9605 11.86 63.8301C12.3189 63.6985 12.7398 63.4592 13.0876 63.1322C13.4355 62.8053 13.7003 62.4 13.86 61.9501C17.4952 51.8421 23.5317 42.7686 31.45 35.5101C31.7973 35.1759 32.0607 34.7644 32.2189 34.3091C32.377 33.8538 32.4254 33.3676 32.36 32.8901V32.8901Z" fill="black"/>
<path d="M31.79 28.9401C27.0509 26.4508 21.5581 25.8036 16.3702 27.1234C11.1823 28.4432 6.66656 31.6365 3.69317 36.0879C0.719776 40.5393 -0.500768 45.9337 0.26676 51.2315C1.03429 56.5294 3.73557 61.3556 7.85 64.7801C8.75903 65.5226 9.89631 65.9287 11.07 65.9301C12.0988 65.9289 13.1021 65.6105 13.9432 65.0181C14.7843 64.4257 15.4223 63.5883 15.77 62.6201C19.2753 52.8222 25.1094 44.023 32.77 36.9801C33.3644 36.4361 33.8185 35.7563 34.0936 34.9989C34.3687 34.2415 34.4567 33.4289 34.35 32.6301C34.2548 31.8535 33.972 31.1117 33.526 30.4688C33.08 29.8259 32.4842 29.3012 31.79 28.9401V28.9401ZM13.88 61.9401C13.7203 62.39 13.4555 62.7953 13.1076 63.1223C12.7598 63.4493 12.3389 63.6885 11.88 63.8201C11.4112 63.9506 10.9177 63.965 10.4421 63.8622C9.96654 63.7594 9.52308 63.5425 9.14999 63.2301C6.65571 61.1604 4.71154 58.5063 3.49036 55.504C2.26917 52.5017 1.80881 49.2441 2.15023 46.0209C2.49164 42.7978 3.62425 39.709 5.44733 37.0291C7.2704 34.3492 9.72745 32.1614 12.6 30.6601C15.4156 29.1885 18.543 28.4135 21.72 28.4001C24.9122 28.4071 28.0539 29.1968 30.87 30.7001C31.2806 30.9125 31.6329 31.2223 31.8961 31.6023C32.1594 31.9823 32.3255 32.4211 32.38 32.8801C32.4342 33.3649 32.3718 33.8557 32.1978 34.3114C32.0238 34.7672 31.7435 35.1748 31.38 35.5001C23.4931 42.7715 17.488 51.8477 13.88 61.9501V61.9401Z" fill="black"/>
<path d="M93.61 1.98012C91.8451 1.97779 90.0884 2.2201 88.39 2.70012C85.5435 3.49613 82.9141 4.92625 80.699 6.88326C78.484 8.84027 76.7407 11.2734 75.6 14.0001C75.3981 14.4568 75.3135 14.9566 75.3536 15.4543C75.3938 15.952 75.5575 16.4317 75.83 16.8501C76.0847 17.2569 76.4364 17.594 76.8535 17.8314C77.2707 18.0688 77.7402 18.1989 78.22 18.2101C88.9312 18.6007 99.3874 21.5862 108.69 26.9101C109.111 27.1507 109.584 27.2855 110.069 27.3031C110.554 27.3207 111.036 27.2205 111.473 27.011C111.911 26.8016 112.291 26.4893 112.581 26.1007C112.871 25.7122 113.063 25.259 113.14 24.7801V24.7801C113.79 20.8024 113.199 16.7211 111.45 13.0901C109.814 9.75425 107.275 6.94447 104.121 4.98039C100.967 3.01632 97.3254 1.97681 93.61 1.98012Z" fill="black"/>
<path d="M113.21 12.1701C110.965 7.6205 107.205 3.99489 102.578 1.9163C97.9495 -0.162278 92.742 -0.564021 87.85 0.780104C84.7134 1.6585 81.816 3.23459 79.3743 5.39052C76.9327 7.54644 75.01 10.2264 73.75 13.2301C73.4302 13.9867 73.2986 14.8095 73.3665 15.6281C73.4345 16.4467 73.6999 17.2366 74.14 17.9301C74.5689 18.6087 75.1581 19.1716 75.8555 19.5692C76.553 19.9667 77.3375 20.1868 78.14 20.2101C88.5298 20.5897 98.6728 23.4823 107.7 28.6401C108.455 29.0721 109.31 29.2996 110.18 29.3001C110.923 29.2996 111.657 29.1358 112.33 28.8201C113.06 28.4712 113.694 27.9504 114.178 27.3024C114.662 26.6545 114.982 25.8988 115.11 25.1001C115.827 20.6973 115.163 16.1805 113.21 12.1701V12.1701ZM113.14 24.7801C113.063 25.259 112.871 25.7122 112.581 26.1007C112.291 26.4893 111.911 26.8016 111.473 27.011C111.036 27.2204 110.554 27.3207 110.069 27.3031C109.584 27.2855 109.111 27.1507 108.69 26.9101C99.3874 21.5862 88.9312 18.6007 78.22 18.2101C77.7402 18.1989 77.2707 18.0687 76.8536 17.8314C76.4364 17.594 76.0847 17.2568 75.83 16.8501C75.5575 16.4317 75.3938 15.9519 75.3536 15.4543C75.3135 14.9566 75.3981 14.4568 75.6 14.0001C76.7407 11.2734 78.484 8.84025 80.699 6.88324C82.9141 4.92623 85.5435 3.49611 88.39 2.7001C90.0884 2.22008 91.8451 1.97777 93.61 1.9801C97.3254 1.97679 100.967 3.0163 104.121 4.98038C107.275 6.94445 109.814 9.75423 111.45 13.0901C113.199 16.7211 113.79 20.8023 113.14 24.7801V24.7801Z" fill="black"/>
<path d="M140.22 115.71L127.72 109.92L128.16 109.01C133.115 98.6424 134.873 87.0344 133.209 75.6643C131.546 64.2942 126.536 53.6764 118.818 45.1631C111.099 36.6498 101.022 30.6261 89.8692 27.8591C78.7162 25.0921 66.9919 25.7069 56.1895 29.6253C45.387 33.5437 35.9951 40.5883 29.2097 49.8622C22.4242 59.1361 18.5523 70.2195 18.0869 81.7013C17.6216 93.183 20.5838 104.544 26.5965 114.336C32.6091 124.129 41.4001 131.91 51.85 136.69L52.76 137.11L46.76 150.05C46.2468 151.187 46.2003 152.48 46.6304 153.65C47.0606 154.821 47.933 155.776 49.06 156.31L54.24 158.7C55.376 159.219 56.6708 159.268 57.8429 158.837C59.0151 158.407 59.9699 157.531 60.5 156.4L67.5 141.34L68.24 141.44C77.583 142.719 87.0971 141.689 95.95 138.44C104.648 135.27 112.442 130.029 118.66 123.17L119.16 122.63L133.9 129.45C135.036 129.969 136.331 130.018 137.503 129.587C138.675 129.157 139.63 128.281 140.16 127.15L142.55 121.98C143.071 120.844 143.122 119.549 142.691 118.376C142.26 117.203 141.383 116.248 140.25 115.72L140.22 115.71ZM118.71 101.57L118.48 102.13C114.456 111.701 107.313 119.629 98.2122 124.625C89.1114 129.621 78.588 131.392 68.3532 129.649C58.1185 127.906 48.7743 122.752 41.84 115.025C34.9058 107.298 30.7893 97.4531 30.16 87.0901V85.9201C29.9392 78.4695 31.5269 71.0763 34.787 64.3732C38.0471 57.67 42.8827 51.8565 48.88 47.4301L50.37 46.3601C58.7186 40.7267 68.6852 37.989 78.74 38.567C88.7948 39.1451 98.3821 43.0071 106.03 49.5601L107.25 50.6701C114.125 56.9935 118.908 65.2631 120.961 74.3754C123.014 83.4878 122.239 93.0095 118.74 101.67L118.71 101.57Z" fill="black"/>
<path d="M144.54 117.67C144.237 116.842 143.774 116.082 143.177 115.433C142.58 114.785 141.86 114.26 141.06 113.89L130.39 108.96C133.668 101.863 135.512 94.1883 135.815 86.3767C136.119 78.5651 134.877 70.7703 132.16 63.4401C128.778 54.2265 123.182 45.9855 115.866 39.4425C108.55 32.8996 99.738 28.2553 90.2053 25.9184C80.6727 23.5816 70.7117 23.6237 61.1991 26.0413C51.6866 28.4588 42.9141 33.1776 35.6539 39.7822C28.3936 46.3869 22.8681 54.675 19.5638 63.917C16.2594 73.159 15.2775 83.0715 16.7045 92.7822C18.1315 102.493 21.9235 111.704 27.747 119.605C33.5704 127.505 41.2466 133.853 50.1 138.09L44.96 149.22C44.2199 150.836 44.1483 152.679 44.7608 154.348C45.3732 156.017 46.6201 157.376 48.23 158.13L53.41 160.52C54.2862 160.931 55.2424 161.142 56.21 161.14C57.4939 161.144 58.752 160.78 59.835 160.09C60.918 159.401 61.7804 158.415 62.32 157.25L68.67 143.53C78.1061 144.694 87.6838 143.594 96.61 140.32C105.375 137.124 113.258 131.894 119.61 125.06L133.03 131.27C134.647 132.012 136.492 132.084 138.162 131.469C139.832 130.854 141.19 129.604 141.94 127.99L144.34 122.82C144.712 122.018 144.922 121.149 144.956 120.265C144.99 119.381 144.849 118.499 144.54 117.67V117.67ZM142.54 121.97L140.15 127.14C139.62 128.271 138.665 129.147 137.493 129.577C136.321 130.008 135.026 129.959 133.89 129.44L119.15 122.62L118.65 123.16C112.432 130.019 104.638 135.26 95.94 138.43C87.0871 141.679 77.573 142.709 68.23 141.43L67.49 141.33L60.49 156.39C59.9599 157.521 59.0051 158.397 57.8329 158.827C56.6608 159.258 55.366 159.209 54.23 158.69L49.05 156.3C47.923 155.766 47.0505 154.811 46.6204 153.64C46.1903 152.47 46.2368 151.177 46.75 150.04L52.75 137.1L51.84 136.68C41.3901 131.9 32.5991 124.119 26.5865 114.326C20.5738 104.534 17.6116 93.173 18.0769 81.6913C18.5423 70.2095 22.4142 59.1261 29.1997 49.8522C35.9851 40.5783 45.377 33.5337 56.1795 29.6153C66.9819 25.6969 78.7061 25.0821 89.8592 27.8491C101.012 30.6162 111.089 36.6398 118.808 45.1531C126.526 53.6664 131.536 64.2842 133.199 75.6543C134.863 87.0244 133.105 98.6324 128.15 109L127.71 109.91L140.21 115.7C141.343 116.228 142.22 117.183 142.651 118.356C143.082 119.529 143.031 120.824 142.51 121.96L142.54 121.97Z" fill="black"/>
<path d="M103.37 81.9001C100.29 73.5301 88.45 74.6101 88.37 74.6201H88.25C87.63 74.6201 72.86 74.2901 70.56 67.0301C69.2 62.7301 71.23 58.8201 72.86 55.6701C73.2 55.0201 73.52 54.4001 73.8 53.8101C75.1 51.0201 79.11 50.2901 82.28 50.8101C83.9471 51.1054 85.5937 51.5062 87.21 52.0101C91.29 53.1701 95.5 54.3701 98.91 52.4301C100.71 51.4035 102.237 50.5968 103.49 50.0101C97.5784 45.3192 90.5612 42.2249 83.1108 41.0237C75.6604 39.8225 68.0263 40.5547 60.94 43.1501C58.1296 44.1896 55.4297 45.5061 52.88 47.0801C53.7775 47.7149 54.4555 48.613 54.82 49.6501C55.46 51.5401 54.99 53.8601 53.43 56.5501C52.61 57.9501 52.28 59.0401 52.43 59.7101C52.58 60.3801 53.22 60.7101 54.21 61.2201C55.2 61.7301 56.42 62.4001 56.73 63.7401C56.99 64.9101 56.5 66.3001 55.18 68.1001C51.31 73.4101 37.98 86.4901 32.18 87.8801C32.9434 97.3124 36.7187 106.249 42.9487 113.373C49.1787 120.496 57.5334 125.427 66.78 127.44C65.78 126.24 65.04 124.17 65.35 120.58C65.99 113.12 64.13 112.37 62.49 111.71L62.19 111.59C61.4332 111.235 60.7187 110.795 60.06 110.28C58.3296 109.013 56.4731 107.927 54.52 107.04C45.85 103.04 45.18 99.0401 46.13 96.3301C47.82 91.6101 55.83 88.4801 58.74 89.2401C60.91 89.8001 62.74 88.8301 65.13 87.6001C66.6454 86.7583 68.2355 86.0587 69.88 85.5101C72.98 84.5101 73.88 85.9001 74.78 87.3401C76.0024 89.3971 77.9219 90.9476 80.19 91.7101C84.83 93.5601 86.84 98.5501 85.99 106.14C85.9403 106.829 85.7253 107.496 85.3633 108.084C85.0012 108.673 84.5027 109.165 83.91 109.52C82.77 110.37 81.47 111.34 81.33 116.72C81.2101 119.088 80.4865 121.386 79.228 123.395C77.9696 125.405 76.218 127.059 74.14 128.2L73.79 128.37C82.7481 128.837 91.6349 126.555 99.2595 121.829C106.884 117.103 112.882 110.16 116.45 101.93C112.45 97.1401 105.83 88.6101 103.37 81.9001Z" fill="white"/>
<path d="M119.22 68.5601C116.699 61.7131 112.586 55.5638 107.22 50.6201L106 49.5101C98.3521 42.9571 88.7648 39.0951 78.71 38.517C68.6552 37.939 58.6886 40.6767 50.34 46.3101L48.85 47.3801C42.8527 51.8065 38.0171 57.62 34.757 64.3232C31.4969 71.0263 29.9092 78.4195 30.13 85.8701V87.0401C30.7477 97.4076 34.8557 107.261 41.7855 114.997C48.7153 122.733 58.0591 127.896 68.2965 129.646C78.5338 131.397 89.0622 129.631 98.1685 124.637C107.275 119.642 114.423 111.714 118.45 102.14L118.68 101.58C122.962 91.024 123.154 79.2506 119.22 68.5601V68.5601ZM51.01 48.2901C51.8686 48.6897 52.5389 49.4066 52.88 50.2901C53.33 51.6101 52.88 53.3801 51.66 55.5401C50.52 57.5401 50.15 59.0001 50.51 60.2601C50.7535 60.8829 51.125 61.4477 51.6004 61.9179C52.0758 62.3882 52.6446 62.7534 53.27 62.9901C53.99 63.3701 54.67 63.7301 54.78 64.1901C54.89 64.6501 54.78 65.2601 53.57 66.9301C48.81 73.4401 36.47 84.5901 32.13 85.8801C31.899 78.538 33.5048 71.2545 36.8018 64.6902C40.0987 58.126 44.9825 52.4888 51.01 48.2901V48.2901ZM68.96 126.71C67.69 125.86 67.13 123.71 67.38 120.71C68.09 112.46 65.84 110.85 63.27 109.81L63 109.7C62.3846 109.401 61.8015 109.039 61.26 108.62C59.4338 107.272 57.4694 106.122 55.4 105.19C51.4 103.32 46.83 100.38 48.05 96.9601C49.39 93.2401 56.42 90.6501 58.28 91.1301C61.19 91.8901 63.57 90.6501 66.09 89.3401C67.4963 88.5343 68.9764 87.8646 70.51 87.3401C72.16 86.8301 72.31 87.0601 73.14 88.3401C74.5814 90.7534 76.8311 92.578 79.49 93.4901C84.18 95.3601 84.56 101.24 84.04 105.84C84.0165 106.255 83.8864 106.658 83.6622 107.008C83.438 107.358 83.1272 107.645 82.76 107.84C81 109.15 79.53 110.71 79.37 116.59C79.269 118.603 78.6546 120.557 77.5851 122.265C76.5156 123.974 75.0266 125.38 73.26 126.35C71.56 127.3 69.99 127.4 68.96 126.71ZM91.24 125.71C85.6762 127.765 79.7535 128.67 73.83 128.37L74.18 128.2C76.258 127.059 78.0096 125.405 79.268 123.395C80.5265 121.386 81.2501 119.088 81.37 116.72C81.51 111.34 82.81 110.37 83.95 109.52C84.5427 109.165 85.0412 108.673 85.4033 108.084C85.7653 107.496 85.9803 106.829 86.03 106.14C86.88 98.5501 84.87 93.5601 80.23 91.7101C77.9619 90.9476 76.0424 89.3971 74.82 87.3401C73.89 85.9001 73.02 84.5501 69.92 85.5101C68.2755 86.0587 66.6854 86.7583 65.17 87.6001C62.81 88.8301 60.95 89.8001 58.78 89.2401C55.87 88.4801 47.86 91.6101 46.17 96.3301C45.17 99.0001 45.89 103.03 54.56 107.04C56.5131 107.927 58.3696 109.013 60.1 110.28C60.7587 110.795 61.4732 111.235 62.23 111.59L62.53 111.71C64.17 112.37 66.03 113.12 65.39 120.58C65.08 124.17 65.85 126.24 66.82 127.44C57.564 125.447 49.198 120.52 42.9646 113.394C36.7313 106.267 32.9632 97.3191 32.22 87.8801C37.98 86.4901 51.31 73.4101 55.22 68.1001C56.54 66.3001 57.03 64.9101 56.77 63.7401C56.46 62.4001 55.29 61.7401 54.25 61.2201C53.21 60.7001 52.65 60.3301 52.47 59.7101C52.29 59.0901 52.61 57.9501 53.47 56.5501C55.03 53.8601 55.47 51.5501 54.86 49.6501C54.4955 48.613 53.8175 47.7148 52.92 47.0801C55.4697 45.5061 58.1697 44.1896 60.98 43.1501C68.0545 40.568 75.6727 39.8418 83.1076 41.041C90.5425 42.2402 97.5461 45.3247 103.45 50.0001C102.203 50.5801 100.677 51.3868 98.87 52.4201C95.46 54.3601 91.25 53.1601 87.17 52.0001C85.5537 51.4962 83.9071 51.0954 82.24 50.8001C79.07 50.3001 75.06 51.0301 73.76 53.8001C73.48 54.3901 73.16 55.0101 72.82 55.6601C71.19 58.8101 69.16 62.7201 70.52 67.0201C72.82 74.2801 87.59 74.6001 88.21 74.6101H88.33C88.45 74.6101 100.33 73.5201 103.33 81.8901C105.79 88.6001 112.39 97.1301 116.33 101.89C113.965 107.343 110.524 112.262 106.213 116.353C101.901 120.444 96.8089 123.624 91.24 125.7V125.71ZM117.24 99.8201C113.75 95.5501 107.5 87.4201 105.24 81.2301C101.71 71.6301 89.3 72.5401 88.18 72.6401C84.26 72.5601 73.96 71.3101 72.42 66.4501C71.31 62.9401 73.05 59.5801 74.59 56.6101C74.94 55.9401 75.27 55.2901 75.59 54.6701C76.41 52.9201 79.48 52.3901 81.96 52.7801C83.5441 53.0729 85.1101 53.4569 86.65 53.9301C90.91 55.1401 95.74 56.5201 99.88 54.1601C101.591 53.1615 103.354 52.2536 105.16 51.4401C111.847 57.3247 116.587 65.1029 118.751 73.7433C120.916 82.3838 120.403 91.4781 117.28 99.8201H117.24Z" fill="white"/>
<path d="M53.57 66.9201C48.8 73.4401 36.42 84.5901 32.11 85.8701C31.8837 78.5277 33.4927 71.2448 36.7911 64.6811C40.0896 58.1174 44.9733 52.4802 51 48.2801C51.8618 48.6785 52.5356 49.3954 52.88 50.2801C53.33 51.6001 52.88 53.3701 51.66 55.5301C50.52 57.5301 50.15 58.9901 50.51 60.2501C50.7535 60.8729 51.125 61.4377 51.6004 61.9079C52.0758 62.3782 52.6446 62.7435 53.27 62.9801C53.99 63.3601 54.67 63.7201 54.78 64.1801C54.89 64.6401 54.78 65.2501 53.57 66.9201ZM84.04 105.92C84.56 101.32 84.18 95.4401 79.49 93.5701C76.8311 92.6581 74.5814 90.8334 73.14 88.4201C72.31 87.1401 72.14 86.9101 70.51 87.4201C68.9764 87.9446 67.4963 88.6143 66.09 89.4201C63.57 90.7301 61.19 91.9701 58.28 91.2101C58.0999 91.167 57.9151 91.1469 57.73 91.1501C55.32 91.1501 49.28 93.6201 48.05 97.0401C46.82 100.46 51.37 103.4 55.4 105.27C57.4695 106.202 59.4338 107.352 61.26 108.7C61.8015 109.119 62.3846 109.481 63 109.78L63.27 109.89C65.84 110.89 68.09 112.54 67.38 120.79C67.13 123.79 67.69 125.91 68.96 126.79C69.96 127.48 71.56 127.38 73.26 126.5C75.0266 125.53 76.5156 124.124 77.5851 122.415C78.6546 120.707 79.269 118.753 79.37 116.74C79.53 110.86 81 109.3 82.76 107.99C83.1386 107.788 83.4567 107.489 83.6816 107.123C83.9066 106.758 84.0302 106.339 84.04 105.91V105.92ZM117.26 99.8301C120.376 91.4864 120.887 82.3934 118.725 73.7532C116.563 65.113 111.829 57.3325 105.15 51.4401C103.339 52.2507 101.573 53.1587 99.86 54.1601C95.72 56.5201 90.86 55.1601 86.63 53.9301C85.0901 53.4569 83.5242 53.0729 81.94 52.7801C79.46 52.3901 76.39 52.9201 75.57 54.6701C75.28 55.2901 74.95 55.9401 74.57 56.6101C73.03 59.6101 71.29 62.9401 72.4 66.4501C73.94 71.3101 84.24 72.5601 88.16 72.6401C88.37 72.6401 88.99 72.5701 89.88 72.5701C93.67 72.5701 102.36 73.4501 105.22 81.2301C107.52 87.4101 113.77 95.5501 117.26 99.8201V99.8301Z" fill="black"/>
</svg>
