<svg width="270" height="270" viewBox="0 0 270 270" fill="none" xmlns="http://www.w3.org/2000/svg">
<rect width="270" height="270" fill="white"/>
<path d="M44.4524 10L42.9206 12.6533H45.9843L44.4524 10ZM44.4524 211.649L45.9843 208.996H42.9206L44.4524 211.649ZM44.1871 14.7261V17.8769H44.7178V14.7261H44.1871ZM44.1871 21.0277V24.1784H44.7178V21.0277H44.1871ZM44.1871 27.3292V30.48H44.7178V27.3292H44.1871ZM44.1871 33.6307V36.7815H44.7178V33.6307H44.1871ZM44.1871 39.9323V43.083H44.7178V39.9323H44.1871ZM44.1871 46.2338V49.3846H44.7178V46.2338H44.1871ZM44.1871 52.5353V55.6861H44.7178V52.5353H44.1871ZM44.1871 58.8369V61.9876H44.7178V58.8369H44.1871ZM44.1871 65.1384V68.2892H44.7178V65.1384H44.1871ZM44.1871 71.4399V74.5907H44.7178V71.4399H44.1871ZM44.1871 77.7415V80.8922H44.7178V77.7415H44.1871ZM44.1871 84.043V87.1937H44.7178V84.043H44.1871ZM44.1871 90.3445V93.4953H44.7178V90.3445H44.1871ZM44.1871 96.646V99.7968H44.7178V96.646H44.1871ZM44.1871 102.948V106.098H44.7178V102.948H44.1871ZM44.1871 109.249V112.4H44.7178V109.249H44.1871ZM44.1871 115.551V118.701H44.7178V115.551H44.1871ZM44.1871 121.852V125.003H44.7178V121.852H44.1871ZM44.1871 128.154V131.304H44.7178V128.154H44.1871ZM44.1871 134.455V137.606H44.7178V134.455H44.1871ZM44.1871 140.757V143.908H44.7178V140.757H44.1871ZM44.1871 147.058V150.209H44.7178V147.058H44.1871ZM44.1871 153.36V156.511H44.7178V153.36H44.1871ZM44.1871 159.661V162.812H44.7178V159.661H44.1871ZM44.1871 165.963V169.114H44.7178V165.963H44.1871ZM44.1871 172.264V175.415H44.7178V172.264H44.1871ZM44.1871 178.566V181.717H44.7178V178.566H44.1871ZM44.1871 184.868V188.018H44.7178V184.868H44.1871ZM44.1871 191.169V194.32H44.7178V191.169H44.1871ZM44.1871 197.471V200.621H44.7178V197.471H44.1871ZM44.1871 203.772V206.923H44.7178V203.772H44.1871Z" fill="#494949"/>
<path d="M65.6786 232.875L68.3319 234.407V231.343L65.6786 232.875ZM267.328 232.875L264.674 231.343V234.407L267.328 232.875ZM67.254 233.141H67.5194V232.61H67.254V233.141ZM70.4048 232.61H70.1395V233.141H70.4048V232.61ZM73.5556 233.141H73.8209V232.61H73.5556V233.141ZM76.7063 232.61H76.441V233.141H76.7063V232.61ZM79.8571 233.141H80.1224V232.61H79.8571V233.141ZM83.0079 232.61H82.7425V233.141H83.0079V232.61ZM86.1586 233.141H86.424V232.61H86.1586V233.141ZM89.3094 232.61H89.0441V233.141H89.3094V232.61ZM92.4602 233.141H92.7255V232.61H92.4602V233.141ZM95.6109 232.61H95.3456V233.141H95.6109V232.61ZM98.7617 233.141H99.027V232.61H98.7617V233.141ZM101.912 232.61H101.647V233.141H101.912V232.61ZM105.063 233.141H105.329V232.61H105.063V233.141ZM108.214 232.61H107.949V233.141H108.214V232.61ZM111.365 233.141H111.63V232.61H111.365V233.141ZM114.516 232.61H114.25V233.141H114.516V232.61ZM117.666 233.141H117.932V232.61H117.666V233.141ZM120.817 232.61H120.552V233.141H120.817V232.61ZM123.968 233.141H124.233V232.61H123.968V233.141ZM127.119 232.61H126.853V233.141H127.119V232.61ZM130.269 233.141H130.535V232.61H130.269V233.141ZM133.42 232.61H133.155V233.141H133.42V232.61ZM136.571 233.141H136.836V232.61H136.571V233.141ZM139.722 232.61H139.456V233.141H139.722V232.61ZM142.872 233.141H143.138V232.61H142.872V233.141ZM146.023 232.61H145.758V233.141H146.023V232.61ZM149.174 233.141H149.439V232.61H149.174V233.141ZM152.325 232.61H152.059V233.141H152.325V232.61ZM155.475 233.141H155.741V232.61H155.475V233.141ZM158.626 232.61H158.361V233.141H158.626V232.61ZM161.777 233.141H162.042V232.61H161.777V233.141ZM164.928 232.61H164.662V233.141H164.928V232.61ZM168.079 233.141H168.344V232.61H168.079V233.141ZM171.229 232.61H170.964V233.141H171.229V232.61ZM174.38 233.141H174.645V232.61H174.38V233.141ZM177.531 232.61H177.265V233.141H177.531V232.61ZM180.682 233.141H180.947V232.61H180.682V233.141ZM183.832 232.61H183.567V233.141H183.832V232.61ZM186.983 233.141H187.248V232.61H186.983V233.141ZM190.134 232.61H189.869V233.141H190.134V232.61ZM193.285 233.141H193.55V232.61H193.285V233.141ZM196.435 232.61H196.17V233.141H196.435V232.61ZM199.586 233.141H199.851V232.61H199.586V233.141ZM202.737 232.61H202.472V233.141H202.737V232.61ZM205.888 233.141H206.153V232.61H205.888V233.141ZM209.038 232.61H208.773V233.141H209.038V232.61ZM212.189 233.141H212.455V232.61H212.189V233.141ZM215.34 232.61H215.075V233.141H215.34V232.61ZM218.491 233.141H218.756V232.61H218.491V233.141ZM221.642 232.61H221.376V233.141H221.642V232.61ZM224.792 233.141H225.058V232.61H224.792V233.141ZM227.943 232.61H227.678V233.141H227.943V232.61ZM231.094 233.141H231.359V232.61H231.094V233.141ZM234.245 232.61H233.979V233.141H234.245V232.61ZM237.395 233.141H237.661V232.61H237.395V233.141ZM240.546 232.61H240.281V233.141H240.546V232.61ZM243.697 233.141H243.962V232.61H243.697V233.141ZM246.848 232.61H246.582V233.141H246.848V232.61ZM249.999 233.141H250.264V232.61H249.999V233.141ZM253.149 232.61H252.884V233.141H253.149V232.61ZM256.3 233.141H256.565V232.61H256.3V233.141ZM259.451 232.61H259.186V233.141H259.451V232.61ZM262.602 233.141H262.867V232.61H262.602V233.141ZM265.752 232.61H265.487V233.141H265.752V232.61ZM70.4048 233.141H73.5556V232.61H70.4048V233.141ZM76.7063 233.141H79.8571V232.61H76.7063V233.141ZM83.0079 233.141H86.1586V232.61H83.0079V233.141ZM89.3094 233.141H92.4602V232.61H89.3094V233.141ZM95.6109 233.141H98.7617V232.61H95.6109V233.141ZM101.912 233.141H105.063V232.61H101.912V233.141ZM108.214 233.141H111.365V232.61H108.214V233.141ZM114.516 233.141H117.666V232.61H114.516V233.141ZM120.817 233.141H123.968V232.61H120.817V233.141ZM127.119 233.141H130.269V232.61H127.119V233.141ZM133.42 233.141H136.571V232.61H133.42V233.141ZM139.722 233.141H142.872V232.61H139.722V233.141ZM146.023 233.141H149.174V232.61H146.023V233.141ZM152.325 233.141H155.475V232.61H152.325V233.141ZM158.626 233.141H161.777V232.61H158.626V233.141ZM164.928 233.141H168.079V232.61H164.928V233.141ZM171.229 233.141H174.38V232.61H171.229V233.141ZM177.531 233.141H180.682V232.61H177.531V233.141ZM183.832 233.141H186.983V232.61H183.832V233.141ZM190.134 233.141H193.285V232.61H190.134V233.141ZM196.435 233.141H199.586V232.61H196.435V233.141ZM202.737 233.141H205.888V232.61H202.737V233.141ZM209.038 233.141H212.189V232.61H209.038V233.141ZM215.34 233.141H218.491V232.61H215.34V233.141ZM221.642 233.141H224.792V232.61H221.642V233.141ZM227.943 233.141H231.094V232.61H227.943V233.141ZM234.245 233.141H237.395V232.61H234.245V233.141ZM240.546 233.141H243.697V232.61H240.546V233.141ZM246.848 233.141H249.999V232.61H246.848V233.141ZM253.149 233.141H256.3V232.61H253.149V233.141ZM259.451 233.141H262.602V232.61H259.451V233.141Z" fill="#494949"/>
<path d="M149.034 256.488V255.597H151.085V248.77L149.467 249.789L149.022 249.012L151.378 247.51H152.129V255.597H154.052V256.488H149.034ZM158.912 256.603C157.885 256.603 157.104 256.208 156.569 255.418C156.034 254.629 155.767 253.487 155.767 251.993C155.767 250.49 156.034 249.348 156.569 248.567C157.104 247.786 157.885 247.395 158.912 247.395C159.948 247.395 160.729 247.786 161.256 248.567C161.791 249.339 162.058 250.477 162.058 251.98C162.058 253.483 161.786 254.629 161.243 255.418C160.708 256.208 159.931 256.603 158.912 256.603ZM158.912 255.699C159.626 255.699 160.152 255.397 160.492 254.794C160.84 254.192 161.014 253.253 161.014 251.98C161.014 250.706 160.844 249.777 160.504 249.191C160.165 248.596 159.634 248.299 158.912 248.299C158.199 248.299 157.668 248.596 157.32 249.191C156.981 249.785 156.811 250.715 156.811 251.98C156.811 253.253 156.981 254.192 157.32 254.794C157.668 255.397 158.199 255.699 158.912 255.699ZM166.549 256.603C165.521 256.603 164.74 256.208 164.205 255.418C163.671 254.629 163.403 253.487 163.403 251.993C163.403 250.49 163.671 249.348 164.205 248.567C164.74 247.786 165.521 247.395 166.549 247.395C167.585 247.395 168.366 247.786 168.892 248.567C169.427 249.339 169.695 250.477 169.695 251.98C169.695 253.483 169.423 254.629 168.879 255.418C168.345 256.208 167.568 256.603 166.549 256.603ZM166.549 255.699C167.262 255.699 167.788 255.397 168.128 254.794C168.476 254.192 168.65 253.253 168.65 251.98C168.65 250.706 168.48 249.777 168.141 249.191C167.801 248.596 167.27 248.299 166.549 248.299C165.836 248.299 165.305 248.596 164.957 249.191C164.617 249.785 164.447 250.715 164.447 251.98C164.447 253.253 164.617 254.192 164.957 254.794C165.305 255.397 165.836 255.699 166.549 255.699ZM171.332 258.781V250.299H172.339V251.407C172.525 251.025 172.801 250.727 173.166 250.515C173.54 250.294 173.973 250.184 174.465 250.184C175.017 250.184 175.497 250.316 175.905 250.579C176.321 250.834 176.639 251.203 176.86 251.687C177.089 252.162 177.204 252.731 177.204 253.393C177.204 254.047 177.089 254.616 176.86 255.1C176.639 255.576 176.321 255.945 175.905 256.208C175.497 256.471 175.017 256.603 174.465 256.603C173.99 256.603 173.565 256.497 173.192 256.285C172.818 256.072 172.542 255.779 172.364 255.406V258.781H171.332ZM174.249 255.775C174.826 255.775 175.289 255.571 175.637 255.164C175.985 254.748 176.159 254.158 176.159 253.393C176.159 252.621 175.985 252.031 175.637 251.623C175.289 251.216 174.826 251.012 174.249 251.012C173.672 251.012 173.209 251.216 172.861 251.623C172.513 252.031 172.339 252.621 172.339 253.393C172.339 254.158 172.513 254.748 172.861 255.164C173.209 255.571 173.672 255.775 174.249 255.775ZM177.831 256.488L180.404 253.292L177.984 250.299H179.207L181.002 252.578L182.811 250.299H184.021L181.601 253.292L184.173 256.488H182.951L180.99 254.03L179.054 256.488H177.831Z" fill="black"/>
<path d="M3.63481 118.518V117.626H5.68526V110.8L4.06783 111.819L3.62207 111.042L5.97819 109.539H6.72959V117.626H8.65269V118.518H3.63481ZM13.5128 118.632C12.4854 118.632 11.7043 118.238 11.1694 117.448C10.6345 116.658 10.367 115.516 10.367 114.022C10.367 112.519 10.6345 111.377 11.1694 110.596C11.7043 109.815 12.4854 109.425 13.5128 109.425C14.5486 109.425 15.3297 109.815 15.8561 110.596C16.391 111.369 16.6585 112.507 16.6585 114.009C16.6585 115.512 16.3868 116.658 15.8434 117.448C15.3085 118.238 14.5316 118.632 13.5128 118.632ZM13.5128 117.728C14.226 117.728 14.7524 117.427 15.092 116.824C15.4401 116.221 15.6142 115.283 15.6142 114.009C15.6142 112.736 15.4443 111.806 15.1047 111.22C14.7651 110.626 14.2345 110.329 13.5128 110.329C12.7996 110.329 12.2689 110.626 11.9208 111.22C11.5812 111.815 11.4114 112.744 11.4114 114.009C11.4114 115.283 11.5812 116.221 11.9208 116.824C12.2689 117.427 12.7996 117.728 13.5128 117.728ZM21.1492 118.632C20.1219 118.632 19.3408 118.238 18.8059 117.448C18.2709 116.658 18.0035 115.516 18.0035 114.022C18.0035 112.519 18.2709 111.377 18.8059 110.596C19.3408 109.815 20.1219 109.425 21.1492 109.425C22.1851 109.425 22.9662 109.815 23.4926 110.596C24.0275 111.369 24.295 112.507 24.295 114.009C24.295 115.512 24.0233 116.658 23.4799 117.448C22.945 118.238 22.1681 118.632 21.1492 118.632ZM21.1492 117.728C21.8624 117.728 22.3888 117.427 22.7285 116.824C23.0766 116.221 23.2506 115.283 23.2506 114.009C23.2506 112.736 23.0808 111.806 22.7412 111.22C22.4016 110.626 21.8709 110.329 21.1492 110.329C20.436 110.329 19.9054 110.626 19.5573 111.22C19.2176 111.815 19.0478 112.744 19.0478 114.009C19.0478 115.283 19.2176 116.221 19.5573 116.824C19.9054 117.427 20.436 117.728 21.1492 117.728ZM25.9329 120.81V112.328H26.939V113.436C27.1258 113.054 27.4017 112.757 27.7668 112.545C28.1404 112.324 28.5734 112.214 29.0659 112.214C29.6178 112.214 30.0975 112.345 30.505 112.608C30.921 112.863 31.2394 113.232 31.4602 113.716C31.6894 114.192 31.8041 114.761 31.8041 115.423C31.8041 116.077 31.6894 116.646 31.4602 117.13C31.2394 117.605 30.921 117.974 30.505 118.238C30.0975 118.501 29.6178 118.632 29.0659 118.632C28.5904 118.632 28.1659 118.526 27.7923 118.314C27.4187 118.102 27.1428 117.809 26.9645 117.435V120.81H25.9329ZM28.8494 117.805C29.4267 117.805 29.8895 117.601 30.2376 117.193C30.5857 116.777 30.7597 116.187 30.7597 115.423C30.7597 114.65 30.5857 114.06 30.2376 113.653C29.8895 113.245 29.4267 113.041 28.8494 113.041C28.272 113.041 27.8093 113.245 27.4612 113.653C27.1131 114.06 26.939 114.65 26.939 115.423C26.939 116.187 27.1131 116.777 27.4612 117.193C27.8093 117.601 28.272 117.805 28.8494 117.805ZM32.4315 118.518L35.0041 115.321L32.5843 112.328H33.8069L35.6027 114.608L37.4112 112.328H38.6211L36.2013 115.321L38.7739 118.518H37.5513L35.59 116.06L33.6541 118.518H32.4315Z" fill="black"/>
<path d="M84.4627 186.398H75.7611V180.984H99.6479V186.398H90.9463V210.78H84.4627V186.398Z" fill="black"/>
<path d="M104.956 187.165C103.961 187.165 103.122 186.838 102.44 186.185C101.757 185.531 101.416 184.707 101.416 183.712C101.416 182.746 101.757 181.936 102.44 181.283C103.122 180.6 103.961 180.259 104.956 180.259C105.952 180.259 106.791 180.6 107.473 181.283C108.156 181.936 108.497 182.746 108.497 183.712C108.497 184.707 108.156 185.531 107.473 186.185C106.791 186.838 105.952 187.165 104.956 187.165ZM101.715 190.319H108.198V210.78H101.715V190.319Z" fill="black"/>
<path d="M112.913 190.319H118.927V192.792C119.809 191.797 120.833 191.03 121.998 190.49C123.164 189.95 124.373 189.68 125.624 189.68C127.188 189.68 128.439 189.936 129.378 190.447C130.316 190.93 131.056 191.655 131.596 192.621C132.477 191.683 133.544 190.959 134.795 190.447C136.075 189.936 137.34 189.68 138.591 189.68C141.207 189.68 143.07 190.348 144.179 191.683C145.316 193.019 145.885 194.952 145.885 197.481V210.78H139.743V198.376C139.743 197.069 139.487 196.131 138.975 195.562C138.463 194.994 137.639 194.71 136.501 194.71C134.909 194.71 133.629 195.335 132.662 196.586C132.719 197.495 132.747 198.234 132.747 198.802V210.78H126.563V198.163C126.563 196.912 126.335 196.031 125.88 195.52C125.453 194.98 124.7 194.71 123.619 194.71C121.942 194.71 120.449 195.662 119.141 197.566V210.78H112.913V190.319Z" fill="black"/>
<path d="M161.925 211.42C158.001 211.42 154.916 210.482 152.669 208.606C150.423 206.702 149.3 204.045 149.3 200.635C149.3 197.253 150.295 194.582 152.285 192.621C154.304 190.66 157.177 189.68 160.902 189.68C163.347 189.68 165.423 190.135 167.129 191.044C168.836 191.953 170.129 193.218 171.011 194.838C171.893 196.429 172.333 198.234 172.333 200.251V202.852H155.442C155.897 205.466 158.342 206.773 162.779 206.773C164.087 206.773 165.437 206.66 166.831 206.432C168.224 206.205 169.433 205.892 170.456 205.495V210.013C169.461 210.439 168.182 210.78 166.618 211.036C165.054 211.292 163.49 211.42 161.925 211.42ZM166.234 198.674C166.148 197.31 165.636 196.259 164.698 195.52C163.76 194.753 162.466 194.369 160.816 194.369C159.196 194.369 157.916 194.753 156.978 195.52C156.039 196.287 155.527 197.339 155.442 198.674H166.234Z" fill="black"/>
<path d="M183.531 211.42C181.028 211.42 178.981 210.794 177.389 209.544C175.825 208.265 175.043 206.532 175.043 204.344C175.043 202.07 175.796 200.308 177.303 199.058C178.81 197.779 180.943 197.14 183.702 197.14C184.924 197.14 186.09 197.268 187.199 197.523C188.308 197.779 189.289 198.134 190.142 198.589V198.077C190.142 196.799 189.687 195.861 188.777 195.264C187.868 194.667 186.474 194.369 184.597 194.369C182.095 194.369 179.791 194.838 177.687 195.776V191.087C178.597 190.689 179.777 190.362 181.228 190.106C182.678 189.822 184.128 189.68 185.578 189.68C189.275 189.68 192.033 190.447 193.853 191.982C195.673 193.488 196.583 195.605 196.583 198.333V210.78H190.526V208.905C188.792 210.581 186.46 211.42 183.531 211.42ZM185.28 207.157C186.332 207.157 187.285 206.958 188.138 206.56C188.991 206.162 189.659 205.608 190.142 204.898V202.852C188.692 201.885 187.1 201.402 185.365 201.402C184.171 201.402 183.247 201.658 182.593 202.17C181.967 202.653 181.654 203.377 181.654 204.344C181.654 205.253 181.967 205.949 182.593 206.432C183.218 206.915 184.114 207.157 185.28 207.157Z" fill="black"/>
<path d="M200.847 190.319H207.075V193.261C207.899 192.266 209.051 191.513 210.53 191.001C212.009 190.461 213.686 190.192 215.563 190.192V195.094C213.601 195.094 211.866 195.392 210.359 195.989C208.881 196.586 207.857 197.495 207.288 198.717V210.78H200.847V190.319Z" fill="black"/>
<path d="M226.874 211.42C224.486 211.42 222.666 210.766 221.415 209.459C220.192 208.123 219.58 206.276 219.58 203.917V194.966H216.595V190.319H219.58V184.181H226.021V190.319H230.841V194.966H226.021V203.065C226.021 204.258 226.249 205.125 226.704 205.665C227.159 206.177 227.969 206.432 229.135 206.432C230.074 206.432 230.969 206.205 231.822 205.75V210.567C230.514 211.135 228.865 211.42 226.874 211.42Z" fill="black"/>
<path d="M234.796 179.279H241.237V192.664C242.204 191.669 243.299 190.93 244.522 190.447C245.744 189.936 247.052 189.68 248.446 189.68C251.233 189.68 253.308 190.433 254.673 191.939C256.067 193.417 256.764 195.42 256.764 197.95V210.78H250.323V198.674C250.323 196.031 249.1 194.71 246.654 194.71C245.574 194.71 244.564 194.98 243.626 195.52C242.687 196.031 241.891 196.799 241.237 197.822V210.78H234.796V179.279Z" fill="black"/>
<path d="M127.369 42.836C127.315 42.3884 127.153 41.9606 126.897 41.5894C126.641 41.2182 126.299 40.9148 125.9 40.7052C123.159 39.2456 120.102 38.4806 116.997 38.4772C113.907 38.4869 110.864 39.2376 108.124 40.6663C105.327 42.1253 102.935 44.2532 101.16 46.8606C99.3843 49.468 98.2814 52.474 97.9491 55.6109C97.6168 58.7477 98.0655 61.918 99.2551 64.8395C100.445 67.761 102.338 70.3429 104.767 72.3554C105.13 72.6593 105.562 72.8704 106.025 72.9704C106.487 73.0704 106.967 73.0563 107.424 72.9294C107.872 72.8083 108.284 72.5792 108.623 72.262C108.962 71.9448 109.219 71.5492 109.369 71.11C112.889 61.2784 118.742 52.4476 126.425 45.3754C126.776 45.06 127.045 44.6641 127.21 44.2218C127.374 43.7796 127.429 43.3041 127.369 42.836Z" fill="#FFAB4D"/>
<path d="M126.814 38.9831C122.204 36.5611 116.859 35.9315 111.812 37.2156C106.764 38.4997 102.371 41.6066 99.4776 45.9376C96.5846 50.2686 95.3971 55.5171 96.1439 60.6716C96.8906 65.8261 99.5188 70.5218 103.522 73.8538C104.403 74.5832 105.511 74.9823 106.655 74.9824C107.656 74.9812 108.632 74.6714 109.45 74.095C110.269 73.5187 110.889 72.7039 111.228 71.7619C114.638 62.226 120.314 53.6616 127.768 46.8057C128.345 46.2773 128.786 45.6176 129.053 44.8825C129.321 44.1474 129.407 43.3586 129.305 42.583C129.212 41.8264 128.936 41.1037 128.503 40.4768C128.069 39.8498 127.49 39.3374 126.814 38.9831ZM109.389 71.0906C109.238 71.5298 108.982 71.9253 108.642 72.2425C108.303 72.5597 107.891 72.7889 107.443 72.91C106.987 73.0369 106.507 73.0509 106.044 72.9509C105.581 72.8509 105.15 72.6399 104.787 72.3359C102.358 70.3235 100.464 67.7415 99.2745 64.8201C98.0849 61.8986 97.6363 58.7283 97.9686 55.5914C98.3009 52.4546 99.4037 49.4486 101.179 46.8412C102.954 44.2337 105.347 42.1058 108.144 40.6469C110.884 39.2181 113.927 38.4674 117.017 38.4577C120.122 38.4611 123.179 39.2262 125.919 40.6858C126.319 40.8954 126.661 41.1988 126.917 41.57C127.173 41.9412 127.335 42.369 127.389 42.8166C127.445 43.287 127.385 43.7641 127.216 44.2065C127.046 44.6489 126.772 45.0434 126.416 45.356C118.74 52.4369 112.898 61.2744 109.389 71.11V71.0906Z" fill="black"/>
<path d="M186.962 12.801C185.245 12.8021 183.536 13.0412 181.884 13.5112C179.117 14.2826 176.561 15.6697 174.406 17.5685C172.251 19.4673 170.553 21.8289 169.44 24.4764C169.243 24.9207 169.161 25.407 169.2 25.8912C169.239 26.3755 169.398 26.8423 169.663 27.2493C169.912 27.642 170.253 27.9678 170.657 28.1984C171.06 28.4291 171.514 28.5575 171.979 28.5726C182.402 28.9527 192.578 31.8538 201.634 37.0275C202.049 37.2675 202.516 37.4019 202.994 37.4189C203.473 37.4358 203.948 37.3349 204.378 37.1248C204.804 36.9215 205.175 36.6179 205.458 36.24C205.741 35.8621 205.928 35.4212 206.003 34.9551C206.441 32.2095 206.276 29.4014 205.519 26.7262C204.762 24.0509 203.431 21.5728 201.618 19.4642C199.806 17.3556 197.556 15.6672 195.025 14.5165C192.494 13.3658 189.743 12.7804 186.962 12.801Z" fill="#FFA44B"/>
<path d="M206.032 22.6667C203.845 18.2427 200.187 14.7175 195.685 12.6955C191.183 10.6736 186.118 10.2809 181.358 11.5848C178.306 12.4394 175.487 13.9729 173.112 16.0705C170.736 18.1681 168.865 20.7756 167.64 23.6981C167.328 24.4358 167.2 25.238 167.266 26.036C167.332 26.834 167.591 27.6041 168.019 28.2807C168.436 28.941 169.01 29.4886 169.688 29.8754C170.367 30.2622 171.13 30.4764 171.911 30.499C182.02 30.8637 191.89 33.6784 200.671 38.701C201.353 39.0896 202.119 39.3074 202.904 39.3357C203.688 39.364 204.468 39.2021 205.177 38.8637C205.885 38.5253 206.501 38.0205 206.972 37.3924C207.443 36.7643 207.755 36.0315 207.881 35.2567C208.579 30.9699 207.933 26.5721 206.032 22.6667ZM205.964 34.9454C205.894 35.4094 205.714 35.8497 205.438 36.2291C205.162 36.6085 204.798 36.9157 204.378 37.1248C203.952 37.3267 203.484 37.4224 203.013 37.4038C202.542 37.3851 202.082 37.2527 201.673 37.0178C192.617 31.8441 182.441 28.9429 172.018 28.5628C171.553 28.5478 171.099 28.4193 170.696 28.1887C170.292 27.9581 169.951 27.6322 169.702 27.2396C169.437 26.8325 169.278 26.3657 169.239 25.8815C169.2 25.3973 169.282 24.911 169.478 24.4667C170.588 21.8137 172.284 19.4464 174.44 17.5423C176.595 15.6382 179.153 14.2468 181.923 13.4723C183.575 13.0022 185.284 12.7632 187.001 12.7621C189.782 12.7462 192.533 13.3365 195.063 14.492C197.592 15.6475 199.839 17.3404 201.648 19.4528C203.457 21.5652 204.783 24.0464 205.535 26.7236C206.287 29.4009 206.447 32.2099 206.003 34.9551L205.964 34.9454Z" fill="black"/>
<path d="M232.312 123.406L220.15 117.782L220.578 116.897C225.399 106.81 227.11 95.5157 225.491 84.4532C223.872 73.3906 218.998 63.0601 211.488 54.777C203.979 46.494 194.174 40.6332 183.323 37.941C172.471 35.2488 161.064 35.847 150.554 39.6594C140.044 43.4718 130.906 50.3259 124.304 59.349C117.702 68.372 113.935 79.1557 113.482 90.3269C113.029 101.498 115.911 112.551 121.761 122.079C127.611 131.607 136.165 139.178 146.332 143.828L147.217 144.237L141.38 156.817C140.875 157.923 140.827 159.182 141.246 160.323C141.665 161.463 142.517 162.392 143.617 162.908L148.657 165.233C149.763 165.738 151.022 165.786 152.163 165.367C153.303 164.948 154.232 164.096 154.748 162.996L161.559 148.353L162.279 148.45C171.369 149.683 180.623 148.681 189.239 145.531C197.7 142.443 205.283 137.345 211.335 130.674L211.821 130.149L226.163 136.784C227.268 137.289 228.528 137.337 229.668 136.918C230.809 136.499 231.738 135.647 232.253 134.546L234.579 129.507C235.083 128.401 235.131 127.142 234.712 126.001C234.293 124.861 233.441 123.932 232.341 123.416L232.312 123.406ZM211.383 109.649L211.16 110.193C207.242 119.508 200.287 127.222 191.427 132.082C182.567 136.941 172.323 138.659 162.363 136.956C152.402 135.253 143.311 130.229 136.569 122.703C129.826 115.176 125.83 105.589 125.229 95.5019V94.3635C125.012 87.1142 126.556 79.9204 129.728 73.3983C132.9 66.8762 137.606 61.2201 143.442 56.9146L144.892 55.8638C147.888 53.8669 151.112 52.2338 154.495 50.999C161.965 48.2641 170.029 47.5661 177.858 48.9767C185.687 50.3872 193 53.8556 199.046 59.0259L200.233 60.1059C206.912 66.2529 211.559 74.2886 213.556 83.1427C215.553 91.9969 214.805 101.249 211.413 109.668L211.383 109.649Z" fill="#FF6C37"/>
<path d="M236.486 125.323C236.192 124.516 235.742 123.776 235.161 123.145C234.58 122.514 233.879 122.004 233.1 121.645L222.718 116.839C227.491 106.398 229.072 94.7795 227.264 83.4428C225.456 72.1061 220.339 61.5563 212.555 53.1179C204.771 44.6796 194.668 38.7288 183.514 36.0128C172.36 33.2968 160.652 33.9367 149.861 37.852C139.069 41.7673 129.675 48.7836 122.857 58.0199C116.039 67.2563 112.102 78.3009 111.54 89.7671C110.978 101.233 113.816 112.61 119.698 122.469C125.58 132.328 134.243 140.229 144.6 145.181L139.599 156C138.879 157.574 138.809 159.369 139.404 160.994C140 162.619 141.214 163.943 142.781 164.679L147.82 167.004C148.598 167.366 149.44 167.569 150.297 167.603C151.153 167.636 152.008 167.499 152.812 167.199C153.619 166.907 154.36 166.457 154.991 165.876C155.623 165.295 156.132 164.593 156.49 163.813L162.668 150.474C171.849 151.598 181.167 150.524 189.852 147.341C198.379 144.234 206.048 139.149 212.23 132.503L225.287 138.536C226.859 139.256 228.653 139.325 230.276 138.729C231.9 138.134 233.223 136.92 233.956 135.354L236.291 130.314C236.652 129.536 236.855 128.695 236.889 127.838C236.922 126.981 236.785 126.126 236.486 125.323ZM234.54 129.497L232.214 134.537C231.699 135.637 230.77 136.489 229.629 136.908C228.489 137.327 227.229 137.279 226.124 136.775L211.782 130.139L211.296 130.664C205.244 137.335 197.661 142.434 189.2 145.521C180.584 148.671 171.33 149.673 162.24 148.44L161.52 148.343L154.709 162.986C154.193 164.086 153.264 164.938 152.124 165.357C150.983 165.776 149.724 165.728 148.618 165.224L143.578 162.898C142.478 162.383 141.626 161.454 141.207 160.313C140.788 159.173 140.836 157.913 141.341 156.808L147.178 144.227L146.293 143.819C136.128 139.162 127.578 131.585 121.733 122.053C115.888 112.521 113.011 101.466 113.469 90.2939C113.928 79.122 117.7 68.3392 124.307 59.3184C130.914 50.2975 140.055 43.4467 150.568 39.6382C161.081 35.8296 172.489 35.2357 183.34 37.9319C194.192 40.6281 203.995 46.4925 211.503 54.7785C219.01 63.0645 223.882 73.3972 225.498 84.4611C227.115 95.525 225.402 106.82 220.578 116.907L220.15 117.792L232.312 123.416C233.412 123.932 234.264 124.861 234.683 126.001C235.102 127.142 235.054 128.401 234.55 129.507L234.54 129.497Z" fill="black"/>
<path d="M196.458 90.5204C193.462 82.3768 181.942 83.4276 181.864 83.4373H181.747C181.144 83.4373 166.774 83.1162 164.536 76.0623C163.213 71.8786 165.188 68.0646 166.774 64.9998C167.104 64.3771 167.416 63.7739 167.688 63.1901C168.953 60.4853 172.855 59.7653 175.939 60.2713C177.56 60.5632 179.162 60.9531 180.735 61.4388C184.705 62.5674 188.801 63.735 192.119 61.8475C193.87 60.8745 195.359 60.067 196.575 59.5026C189.664 54.0072 181.222 50.7834 172.406 50.2731C163.591 49.7627 154.834 51.9908 147.334 56.6519C148.207 57.2655 148.867 58.1362 149.222 59.1426C149.844 60.9913 149.387 63.2485 147.869 65.856C147.071 67.2182 146.75 68.2884 146.896 68.9403C147.042 69.5922 147.665 69.9132 148.628 70.4094C149.591 70.9056 150.778 71.5478 151.08 72.8613C151.333 73.9996 150.856 75.3423 149.572 77.1033C145.806 82.26 132.837 94.9862 127.194 96.3484C127.794 103.921 130.398 111.198 134.739 117.432C139.08 123.666 145.002 128.633 151.897 131.822C154.766 133.15 157.771 134.161 160.858 134.838C159.885 133.671 159.165 131.647 159.467 128.154C160.089 120.896 158.28 120.166 156.684 119.524L156.392 119.407C155.654 119.069 154.958 118.644 154.32 118.142C152.639 116.906 150.832 115.849 148.93 114.99C140.494 111.098 139.833 107.207 140.767 104.56C142.411 99.9677 150.204 96.9321 153.036 97.6618C155.147 98.2067 156.927 97.2629 159.253 96.0759C160.727 95.2536 162.274 94.5696 163.874 94.0327C166.89 93.0598 167.766 94.4219 168.642 95.8132C169.831 97.8146 171.699 99.3232 173.905 100.065C178.42 101.865 180.375 106.72 179.548 114.114C179.497 114.784 179.286 115.432 178.935 116.004C178.583 116.576 178.099 117.055 177.525 117.403C176.416 118.23 175.151 119.164 175.015 124.408C174.898 126.712 174.194 128.948 172.969 130.903C171.745 132.858 170.041 134.467 168.019 135.578L167.678 135.743C176.388 136.175 185.022 133.943 192.43 129.343C199.839 124.744 205.67 117.996 209.146 109.999C205.273 105.348 198.852 97.0489 196.458 90.5204Z" fill="#AFE2E3"/>
<path d="M211.88 77.5412C209.427 70.8793 205.425 64.8964 200.204 60.0864L199.017 59.0064C192.971 53.8362 185.658 50.3678 177.829 48.9572C170 47.5466 161.936 48.2446 154.466 50.9796C151.083 52.2143 147.859 53.8474 144.863 55.8443L143.413 56.8951C137.577 61.2007 132.871 66.8567 129.699 73.3788C126.527 79.9009 124.983 87.0947 125.199 94.3441V95.4824C125.766 105.596 129.747 115.218 136.492 122.776C143.236 130.334 152.344 135.38 162.328 137.09C172.312 138.801 182.581 137.074 191.456 132.192C200.331 127.309 207.288 119.561 211.189 110.213L211.413 109.668C215.562 99.3905 215.728 87.935 211.88 77.5412ZM145.515 57.8194C146.354 58.2031 147.008 58.9024 147.334 59.7653C147.772 61.0496 147.334 62.762 146.147 64.8733C145.038 66.7706 144.678 68.23 145.028 69.4657C145.267 70.0695 145.629 70.6168 146.091 71.0726C146.554 71.5283 147.106 71.8824 147.713 72.1121C148.414 72.4915 149.076 72.8418 149.183 73.2894C149.251 73.5813 149.183 74.3207 148.005 75.9455C143.374 82.2892 131.358 93.1279 127.145 94.383C126.921 87.241 128.484 80.1561 131.692 73.7711C134.9 67.386 139.651 61.903 145.515 57.8194ZM162.979 134.118C161.743 133.291 161.199 131.2 161.442 128.281C162.133 120.254 159.943 118.687 157.443 117.685L157.18 117.578C156.58 117.286 156.012 116.931 155.487 116.518C153.708 115.21 151.797 114.091 149.786 113.18C145.894 111.371 141.448 108.51 142.635 105.183C143.938 101.554 150.778 99.0434 152.588 99.5104C155.419 100.24 157.735 99.0337 160.187 97.7591C161.559 96.9958 162.998 96.3606 164.487 95.8619C166.093 95.3559 166.238 95.5894 167.046 96.8348C168.447 99.182 170.637 100.955 173.224 101.836C177.787 103.655 178.157 109.376 177.651 113.861C177.629 114.266 177.503 114.657 177.285 114.998C177.067 115.339 176.764 115.618 176.406 115.807C174.693 117.092 173.263 118.61 173.108 124.33C173.01 126.288 172.412 128.187 171.371 129.848C170.33 131.509 168.882 132.875 167.163 133.817C165.509 134.683 163.981 134.79 162.979 134.118ZM184.656 133.145C179.244 135.148 173.481 136.031 167.717 135.743L168.058 135.578C170.08 134.467 171.784 132.858 173.008 130.903C174.233 128.948 174.937 126.712 175.053 124.408C175.19 119.164 176.454 118.23 177.564 117.403C178.138 117.055 178.621 116.576 178.973 116.004C179.325 115.432 179.536 114.784 179.587 114.114C180.414 106.72 178.459 101.865 173.944 100.065C171.738 99.3232 169.87 97.8146 168.681 95.8132C167.776 94.4219 166.929 93.1084 163.913 94.0327C162.313 94.5696 160.766 95.2535 159.292 96.0759C156.995 97.2629 155.186 98.2067 153.074 97.6618C150.243 96.9321 142.45 99.9677 140.806 104.56C139.833 107.168 140.533 111.089 148.969 114.99C150.871 115.849 152.677 116.906 154.359 118.142C154.997 118.644 155.693 119.069 156.431 119.407L156.723 119.524C158.319 120.166 160.128 120.896 159.506 128.154C159.204 131.647 159.953 133.671 160.897 134.838C157.809 134.161 154.805 133.15 151.936 131.822C145.041 128.633 139.119 123.666 134.778 117.432C130.437 111.198 127.833 103.921 127.233 96.3483C132.837 94.9862 145.806 82.26 149.611 77.1033C150.895 75.3423 151.372 73.9996 151.119 72.8613C150.817 71.5478 149.679 70.9154 148.667 70.4094C147.655 69.9035 147.11 69.5338 146.935 68.9403C146.76 68.3468 147.071 67.2181 147.908 65.856C149.426 63.2485 149.854 60.9913 149.26 59.1426C148.906 58.1362 148.246 57.2655 147.373 56.6519C154.864 52.0083 163.606 49.7902 172.406 50.3004C181.205 50.8106 189.632 54.0243 196.536 59.5026C195.32 60.0669 193.831 60.855 192.08 61.8475C188.762 63.735 184.666 62.5674 180.697 61.4388C179.123 60.9531 177.521 60.5632 175.9 60.2713C172.816 59.7848 168.914 60.5048 167.649 63.1901C167.377 63.7739 167.066 64.3771 166.735 64.9998C165.149 68.0646 163.174 71.8786 164.497 76.0623C166.735 83.1162 181.105 83.4275 181.708 83.4373H181.825C181.942 83.4373 193.501 82.3768 196.419 90.5204C198.813 97.0489 205.234 105.348 209.068 109.979C206.766 115.282 203.417 120.065 199.223 124.042C195.028 128.02 190.074 131.109 184.656 133.126V133.145ZM209.953 107.956C206.558 103.811 200.477 95.8911 198.278 89.8685C194.843 80.5379 182.769 81.4135 181.679 81.5108C177.865 81.4427 167.844 80.2265 166.346 75.498C165.266 72.0829 166.958 68.8041 168.457 65.9144C168.797 65.2625 169.118 64.6398 169.43 64.0366C170.218 62.3339 173.215 61.8183 175.628 62.1977C177.17 62.4744 178.694 62.8449 180.191 63.3069C184.335 64.4939 189.025 65.8366 193.063 63.5404C194.725 62.5647 196.44 61.6812 198.2 60.8939C204.705 66.6178 209.317 74.184 211.423 82.589C213.529 90.994 213.03 99.8407 209.992 107.956H209.953Z" fill="black"/>
<path d="M148.005 75.9359C143.364 82.2893 131.319 93.128 127.126 94.422C126.901 87.2775 128.465 80.19 131.674 73.8031C134.884 67.4162 139.638 61.932 145.505 57.8487C146.346 58.2329 147.002 58.9315 147.334 59.7946C147.772 61.0789 147.334 62.7913 146.147 64.9026C145.038 66.7998 144.678 68.2593 145.028 69.4949C145.267 70.0987 145.629 70.6461 146.091 71.1018C146.554 71.5575 147.106 71.9116 147.713 72.1413C148.414 72.5208 149.076 72.8711 149.183 73.3186C149.251 73.5716 149.183 74.3111 148.005 75.9359ZM177.651 113.881C178.157 109.396 177.787 103.675 173.224 101.855C170.637 100.974 168.447 99.2016 167.046 96.8544C166.238 95.609 166.073 95.3755 164.487 95.8814C162.998 96.3802 161.559 97.0153 160.187 97.7786C157.735 99.0532 155.419 100.26 152.588 99.53C152.413 99.4881 152.233 99.4684 152.053 99.4716C149.708 99.4716 143.831 101.865 142.635 105.202C141.438 108.54 145.865 111.39 149.786 113.2C151.797 114.111 153.708 115.229 155.487 116.537C156.012 116.95 156.58 117.306 157.18 117.598L157.443 117.705C159.943 118.678 162.133 120.273 161.442 128.3C161.199 131.219 161.743 133.291 162.979 134.138C163.952 134.809 165.509 134.702 167.163 133.846C168.881 132.904 170.33 131.538 171.371 129.877C172.412 128.217 173.009 126.317 173.107 124.36C173.263 118.639 174.693 117.121 176.406 115.837C176.765 115.647 177.069 115.366 177.287 115.024C177.505 114.681 177.631 114.287 177.651 113.881ZM209.973 107.946C213.005 99.828 213.502 90.9809 211.398 82.5744C209.294 74.1679 204.689 66.5978 198.19 60.8648C196.429 61.6582 194.711 62.5448 193.043 63.521C189.006 65.8172 184.287 64.494 180.171 63.2875C178.674 62.8255 177.15 62.4551 175.608 62.1783C173.195 61.7989 170.198 62.3145 169.41 64.0172C169.128 64.6204 168.807 65.2431 168.437 65.895C166.939 68.8139 165.246 72.0635 166.326 75.4786C167.824 80.2071 177.846 81.4233 181.66 81.4914C181.864 81.4914 182.467 81.4331 183.333 81.4331C187.021 81.4331 195.476 82.2893 198.258 89.8491C200.486 95.8717 206.577 103.801 209.973 107.946Z" fill="#70D44B"/>
</svg>
