<svg width="270" height="270" viewBox="0 0 270 270" fill="none" xmlns="http://www.w3.org/2000/svg">
<rect x="0.25" y="0.25" width="269.5" height="269.5" fill="white"/>
<rect width="270" height="270" fill="white"/>
<rect x="26.7823" y="26.3468" width="217.306" height="217.306" fill="#E7E7E7" stroke="#C4C4C4" stroke-width="0.435484"/>
<line x1="9.14516" y1="25.9113" x2="261.726" y2="25.9113" stroke="#494949" stroke-width="0.435484" stroke-dasharray="2.61 2.61"/>
<line x1="9.14516" y1="52.0403" x2="261.726" y2="52.0403" stroke="#494949" stroke-width="0.435484" stroke-dasharray="2.61 2.61"/>
<line x1="9.14516" y1="217.524" x2="261.726" y2="217.524" stroke="#494949" stroke-width="0.435484" stroke-dasharray="2.61 2.61"/>
<line x1="9.14516" y1="243.653" x2="261.726" y2="243.653" stroke="#494949" stroke-width="0.435484" stroke-dasharray="2.61 2.61"/>
<line x1="52.4758" y1="8.70972" x2="52.4758" y2="261.29" stroke="#494949" stroke-width="0.435484" stroke-dasharray="2.61 2.61"/>
<line x1="217.96" y1="8.70972" x2="217.96" y2="261.29" stroke="#494949" stroke-width="0.435484" stroke-dasharray="2.61 2.61"/>
<path d="M67.6733 197.019H60.5323V192.577H80.135V197.019H72.994V217.029H67.6733V197.019Z" fill="black"/>
<path d="M84.4915 197.649C83.6747 197.649 82.9863 197.381 82.4262 196.844C81.8661 196.308 81.5861 195.632 81.5861 194.815C81.5861 194.023 81.8661 193.358 82.4262 192.822C82.9863 192.262 83.6747 191.982 84.4915 191.982C85.3083 191.982 85.9967 192.262 86.5568 192.822C87.1169 193.358 87.3969 194.023 87.3969 194.815C87.3969 195.632 87.1169 196.308 86.5568 196.844C85.9967 197.381 85.3083 197.649 84.4915 197.649ZM81.8311 200.238H87.1519V217.029H81.8311V200.238Z" fill="black"/>
<path d="M91.021 200.238H95.9567V202.267C96.6801 201.45 97.5203 200.821 98.4771 200.378C99.4339 199.934 100.426 199.713 101.452 199.713C102.736 199.713 103.763 199.923 104.533 200.343C105.303 200.739 105.91 201.334 106.353 202.127C107.077 201.357 107.952 200.762 108.979 200.343C110.029 199.923 111.067 199.713 112.094 199.713C114.241 199.713 115.769 200.261 116.68 201.357C117.613 202.453 118.08 204.039 118.08 206.115V217.029H113.039V206.849C113.039 205.776 112.829 205.007 112.409 204.54C111.989 204.074 111.312 203.841 110.379 203.841C109.072 203.841 108.022 204.354 107.228 205.38C107.275 206.126 107.298 206.733 107.298 207.199V217.029H102.223V206.674C102.223 205.648 102.036 204.925 101.663 204.505C101.312 204.062 100.694 203.841 99.8072 203.841C98.4304 203.841 97.2052 204.622 96.1317 206.185V217.029H91.021V200.238Z" fill="black"/>
<path d="M131.243 217.554C128.023 217.554 125.491 216.784 123.647 215.245C121.804 213.682 120.882 211.502 120.882 208.703C120.882 205.928 121.699 203.736 123.332 202.127C124.989 200.518 127.346 199.713 130.403 199.713C132.41 199.713 134.114 200.086 135.514 200.832C136.914 201.579 137.976 202.616 138.699 203.946C139.423 205.252 139.785 206.733 139.785 208.388V210.522H125.923C126.296 212.668 128.303 213.741 131.943 213.741C133.017 213.741 134.125 213.647 135.269 213.461C136.412 213.274 137.404 213.018 138.244 212.691V216.399C137.428 216.749 136.377 217.029 135.094 217.239C133.81 217.449 132.527 217.554 131.243 217.554ZM134.779 207.094C134.709 205.975 134.289 205.112 133.519 204.505C132.749 203.876 131.687 203.561 130.333 203.561C129.003 203.561 127.953 203.876 127.183 204.505C126.413 205.135 125.993 205.998 125.923 207.094H134.779Z" fill="black"/>
<path d="M148.974 217.554C146.92 217.554 145.24 217.041 143.933 216.014C142.65 214.965 142.008 213.542 142.008 211.747C142.008 209.881 142.626 208.435 143.863 207.409C145.1 206.359 146.85 205.835 149.114 205.835C150.117 205.835 151.074 205.94 151.984 206.15C152.894 206.359 153.7 206.651 154.4 207.024V206.604C154.4 205.555 154.026 204.785 153.279 204.296C152.533 203.806 151.389 203.561 149.849 203.561C147.795 203.561 145.905 203.946 144.178 204.715V200.867C144.925 200.541 145.893 200.273 147.084 200.063C148.274 199.83 149.464 199.713 150.654 199.713C153.688 199.713 155.952 200.343 157.445 201.602C158.939 202.838 159.685 204.575 159.685 206.814V217.029H154.715V215.49C153.291 216.866 151.378 217.554 148.974 217.554ZM150.409 214.055C151.273 214.055 152.054 213.892 152.754 213.566C153.454 213.239 154.003 212.784 154.4 212.201V210.522C153.209 209.729 151.903 209.333 150.479 209.333C149.499 209.333 148.74 209.543 148.204 209.963C147.69 210.359 147.434 210.954 147.434 211.747C147.434 212.493 147.69 213.064 148.204 213.461C148.717 213.857 149.452 214.055 150.409 214.055Z" fill="black"/>
<path d="M163.184 200.238H168.295V202.651C168.972 201.835 169.917 201.217 171.131 200.797C172.344 200.354 173.721 200.133 175.261 200.133V204.156C173.651 204.156 172.227 204.4 170.991 204.89C169.777 205.38 168.937 206.126 168.47 207.129V217.029H163.184V200.238Z" fill="black"/>
<path d="M184.544 217.554C182.584 217.554 181.09 217.017 180.063 215.944C179.06 214.848 178.558 213.333 178.558 211.397V204.051H176.108V200.238H178.558V195.2H183.844V200.238H187.799V204.051H183.844V210.697C183.844 211.677 184.03 212.388 184.404 212.831C184.777 213.251 185.442 213.461 186.399 213.461C187.169 213.461 187.904 213.274 188.604 212.901V216.854C187.531 217.32 186.177 217.554 184.544 217.554Z" fill="black"/>
<path d="M191.045 191.177H196.331V202.162C197.124 201.345 198.023 200.739 199.026 200.343C200.029 199.923 201.103 199.713 202.246 199.713C204.533 199.713 206.237 200.331 207.357 201.567C208.501 202.78 209.072 204.424 209.072 206.499V217.029H203.787V207.094C203.787 204.925 202.783 203.841 200.776 203.841C199.889 203.841 199.061 204.062 198.291 204.505C197.521 204.925 196.867 205.555 196.331 206.394V217.029H191.045V191.177Z" fill="black"/>
<path d="M102.884 79.205C102.84 78.8376 102.707 78.4865 102.497 78.1819C102.287 77.8773 102.006 77.6283 101.679 77.4563C99.4297 76.2585 96.9211 75.6307 94.3729 75.6279C91.8369 75.6358 89.3397 76.2519 87.091 77.4244C84.7959 78.6217 82.8324 80.368 81.3755 82.5078C79.9187 84.6476 79.0136 87.1144 78.7409 89.6887C78.4682 92.2629 78.8364 94.8647 79.8127 97.2622C80.7889 99.6597 82.3429 101.779 84.3363 103.43C84.6342 103.68 84.9883 103.853 85.3681 103.935C85.7478 104.017 86.1418 104.005 86.5161 103.901C86.8841 103.802 87.222 103.614 87.5004 103.353C87.7788 103.093 87.9892 102.769 88.113 102.408C91.0016 94.3398 95.8046 87.0928 102.11 81.2889C102.398 81.03 102.619 80.7052 102.754 80.3422C102.889 79.9793 102.933 79.5891 102.884 79.205Z" fill="#FFAB4D"/>
<path d="M102.429 76.0431C98.6454 74.0555 94.2596 73.5387 90.1173 74.5925C85.975 75.6463 82.3694 78.196 79.9953 81.7503C77.6211 85.3045 76.6466 89.6117 77.2594 93.8418C77.8723 98.0719 80.0291 101.925 83.3143 104.66C84.0374 105.258 84.9466 105.586 85.8853 105.586C86.7068 105.585 87.5079 105.331 88.1795 104.858C88.8511 104.385 89.3604 103.716 89.6381 102.943C92.4366 95.1174 97.0949 88.089 103.212 82.4627C103.685 82.0291 104.047 81.4877 104.267 80.8844C104.486 80.2812 104.557 79.6338 104.473 78.9974C104.397 78.3764 104.171 77.7834 103.815 77.2689C103.459 76.7544 102.983 76.3338 102.429 76.0431ZM88.129 102.392C88.0051 102.753 87.7948 103.077 87.5164 103.337C87.238 103.598 86.9 103.786 86.5321 103.885C86.1578 103.989 85.7638 104.001 85.384 103.919C85.0043 103.837 84.6502 103.664 84.3523 103.414C82.3589 101.763 80.8049 99.6438 79.8286 97.2462C78.8524 94.8487 78.4842 92.247 78.7569 89.6727C79.0296 87.0985 79.9347 84.6316 81.3915 82.4918C82.8484 80.352 84.8118 78.6057 87.107 77.4084C89.3557 76.2359 91.8528 75.6198 94.3889 75.6119C96.9371 75.6147 99.4457 76.2425 101.695 77.4404C102.022 77.6124 102.303 77.8614 102.513 78.166C102.723 78.4706 102.856 78.8217 102.9 79.189C102.946 79.5751 102.898 79.9666 102.759 80.3296C102.62 80.6927 102.394 81.0165 102.102 81.273C95.8032 87.084 91.0084 94.3365 88.129 102.408V102.392Z" fill="black"/>
<path d="M151.79 54.5566C150.38 54.5576 148.978 54.7537 147.622 55.1395C145.352 55.7726 143.254 56.9108 141.485 58.4691C139.717 60.0274 138.323 61.9654 137.41 64.1381C137.249 64.5027 137.181 64.9018 137.213 65.2992C137.245 65.6966 137.376 66.0796 137.593 66.4137C137.798 66.7359 138.077 67.0033 138.409 67.1926C138.74 67.3819 139.112 67.4873 139.494 67.4996C148.048 67.8115 156.398 70.1924 163.831 74.4382C164.171 74.6351 164.554 74.7454 164.946 74.7594C165.339 74.7733 165.729 74.6904 166.082 74.518C166.432 74.3512 166.736 74.1021 166.968 73.7919C167.2 73.4818 167.354 73.12 167.416 72.7375C167.775 70.4843 167.64 68.1798 167.018 65.9844C166.397 63.7889 165.305 61.7552 163.817 60.0248C162.33 58.2944 160.484 56.9088 158.407 55.9645C156.329 55.0201 154.072 54.5397 151.79 54.5566Z" fill="#FFA44B"/>
<path d="M167.44 62.653C165.645 59.0224 162.643 56.1294 158.948 54.4701C155.254 52.8108 151.097 52.4885 147.191 53.5586C144.686 54.2599 142.373 55.5184 140.423 57.2398C138.474 58.9612 136.939 61.101 135.933 63.4993C135.677 64.1048 135.572 64.7631 135.626 65.418C135.681 66.0728 135.892 66.7049 136.244 67.2601C136.586 67.8019 137.057 68.2514 137.614 68.5688C138.171 68.8862 138.797 69.062 139.438 69.0806C147.734 69.3799 155.834 71.6897 163.04 75.8115C163.6 76.1304 164.229 76.3092 164.872 76.3324C165.516 76.3557 166.156 76.2227 166.737 75.945C167.319 75.6673 167.824 75.2531 168.211 74.7376C168.597 74.2222 168.853 73.6208 168.957 72.985C169.529 69.467 168.999 65.8579 167.44 62.653ZM167.384 72.7295C167.327 73.1103 167.178 73.4716 166.952 73.783C166.725 74.0943 166.427 74.3465 166.082 74.518C165.733 74.6837 165.348 74.7623 164.962 74.747C164.575 74.7317 164.198 74.623 163.863 74.4302C156.43 70.1844 148.079 67.8035 139.526 67.4916C139.144 67.4793 138.772 67.3739 138.441 67.1846C138.109 66.9953 137.83 66.7279 137.625 66.4057C137.408 66.0717 137.277 65.6886 137.245 65.2912C137.213 64.8938 137.28 64.4948 137.442 64.1301C138.352 61.9529 139.744 60.0102 141.513 58.4476C143.282 56.885 145.381 55.7431 147.654 55.1076C149.01 54.7218 150.412 54.5256 151.822 54.5247C154.104 54.5117 156.362 54.9961 158.437 55.9444C160.513 56.8926 162.357 58.2819 163.842 60.0154C165.326 61.749 166.415 63.7852 167.032 65.9823C167.649 68.1794 167.78 70.4846 167.416 72.7375L167.384 72.7295Z" fill="black"/>
<path d="M189.006 145.325L179.025 140.71L179.377 139.983C183.333 131.705 184.737 122.437 183.408 113.358C182.08 104.28 178.08 95.8019 171.917 89.0044C165.754 82.2069 157.708 77.3972 148.803 75.1879C139.898 72.9785 130.537 73.4694 121.911 76.5981C113.286 79.7267 105.787 85.3516 100.369 92.7564C94.9512 100.161 91.8596 109.011 91.488 118.179C91.1164 127.346 93.4817 136.417 98.2825 144.236C103.083 152.055 110.103 158.268 118.446 162.085L119.173 162.42L114.382 172.744C113.968 173.651 113.929 174.685 114.273 175.621C114.617 176.557 115.316 177.319 116.219 177.742L120.355 179.651C121.262 180.065 122.296 180.104 123.231 179.76C124.167 179.416 124.93 178.717 125.353 177.814L130.942 165.798L131.533 165.877C138.993 166.889 146.588 166.067 153.658 163.482C160.602 160.948 166.825 156.764 171.791 151.29L172.19 150.858L183.96 156.304C184.867 156.718 185.901 156.757 186.836 156.413C187.772 156.07 188.535 155.37 188.958 154.467L190.866 150.331C191.28 149.424 191.32 148.391 190.976 147.455C190.632 146.519 189.933 145.756 189.03 145.333L189.006 145.325ZM171.831 134.035L171.647 134.482C168.432 142.126 162.725 148.457 155.454 152.445C148.183 156.432 139.776 157.842 131.602 156.445C123.428 155.047 115.967 150.924 110.434 144.748C104.901 138.571 101.621 130.703 101.128 122.425V121.491C100.95 115.542 102.217 109.638 104.82 104.286C107.424 98.9336 111.285 94.2919 116.075 90.7586L117.265 89.8963C119.724 88.2575 122.369 86.9173 125.145 85.904C131.276 83.6595 137.893 83.0867 144.318 84.2443C150.744 85.4019 156.745 88.2483 161.707 92.4912L162.681 93.3775C168.161 98.4221 171.975 105.017 173.614 112.283C175.253 119.549 174.639 127.142 171.855 134.051L171.831 134.035Z" fill="#FF6C37"/>
<path d="M192.431 146.898C192.191 146.236 191.821 145.629 191.344 145.111C190.867 144.593 190.292 144.174 189.653 143.88L181.133 139.936C185.05 131.367 186.347 121.833 184.863 112.529C183.38 103.226 179.18 94.5678 172.793 87.6429C166.405 80.7179 158.114 75.8344 148.96 73.6055C139.807 71.3766 130.198 71.9017 121.342 75.1148C112.486 78.3279 104.776 84.0859 99.1815 91.6657C93.5866 99.2455 90.3557 108.309 89.8945 117.719C89.4333 127.129 91.7623 136.465 96.5892 144.556C101.416 152.646 108.526 159.131 117.025 163.195L112.921 172.073C112.33 173.365 112.272 174.838 112.761 176.172C113.25 177.505 114.246 178.592 115.532 179.196L119.668 181.104C120.306 181.401 120.997 181.568 121.7 181.595C122.403 181.622 123.105 181.51 123.764 181.264C124.427 181.024 125.035 180.655 125.553 180.178C126.071 179.701 126.489 179.125 126.782 178.485L131.852 167.538C139.387 168.461 147.034 167.58 154.161 164.967C161.159 162.417 167.453 158.244 172.526 152.791L183.241 157.741C184.532 158.332 186.003 158.389 187.336 157.9C188.668 157.411 189.753 156.416 190.355 155.13L192.272 150.994C192.568 150.356 192.735 149.665 192.762 148.962C192.789 148.259 192.677 147.557 192.431 146.898ZM190.834 150.323L188.926 154.459C188.503 155.362 187.74 156.062 186.805 156.405C185.869 156.749 184.835 156.71 183.928 156.296L172.159 150.85L171.759 151.282C166.793 156.756 160.57 160.94 153.626 163.474C146.556 166.059 138.961 166.881 131.501 165.869L130.91 165.79L125.321 177.806C124.898 178.709 124.135 179.408 123.2 179.752C122.264 180.096 121.23 180.057 120.323 179.643L116.187 177.734C115.284 177.311 114.585 176.549 114.241 175.613C113.897 174.677 113.936 173.643 114.35 172.736L119.141 162.412L118.414 162.077C110.072 158.255 103.056 152.037 98.2591 144.215C93.4621 136.393 91.1015 127.32 91.4777 118.151C91.8539 108.983 94.9499 100.134 100.372 92.7312C105.793 85.3283 113.295 79.7061 121.923 76.5806C130.55 73.4552 139.912 72.9677 148.817 75.1804C157.723 77.393 165.768 82.2057 171.929 89.0056C178.09 95.8055 182.088 104.285 183.415 113.365C184.741 122.444 183.335 131.713 179.377 139.991L179.025 140.718L189.006 145.333C189.909 145.756 190.608 146.519 190.952 147.455C191.296 148.391 191.256 149.424 190.842 150.331L190.834 150.323Z" fill="black"/>
<path d="M159.583 118.337C157.124 111.654 147.67 112.517 147.606 112.525H147.51C147.015 112.525 135.222 112.261 133.385 106.472C132.3 103.039 133.92 99.9089 135.222 97.3937C135.493 96.8827 135.749 96.3877 135.972 95.9086C137.01 93.6889 140.212 93.0981 142.743 93.5133C144.074 93.7528 145.388 94.0728 146.68 94.4714C149.937 95.3976 153.299 96.3558 156.022 94.8068C157.459 94.0083 158.681 93.3456 159.679 92.8825C154.007 88.3726 147.079 85.727 139.844 85.3082C132.61 84.8894 125.423 86.7178 119.269 90.543C119.985 91.0466 120.527 91.7611 120.818 92.587C121.329 94.1041 120.954 95.9565 119.708 98.0964C119.053 99.2142 118.79 100.093 118.909 100.628C119.029 101.162 119.54 101.426 120.331 101.833C121.121 102.24 122.095 102.767 122.343 103.845C122.55 104.779 122.159 105.881 121.105 107.327C118.015 111.558 107.372 122.002 102.741 123.12C103.233 129.335 105.37 135.307 108.933 140.423C112.495 145.539 117.355 149.614 123.014 152.232C125.368 153.321 127.834 154.151 130.367 154.707C129.569 153.749 128.978 152.088 129.226 149.222C129.737 143.265 128.251 142.666 126.942 142.139L126.702 142.043C126.097 141.766 125.526 141.417 125.002 141.005C123.622 139.99 122.139 139.123 120.578 138.418C113.656 135.225 113.113 132.031 113.879 129.859C115.229 126.09 121.624 123.599 123.948 124.198C125.68 124.645 127.142 123.871 129.05 122.896C130.26 122.222 131.529 121.66 132.843 121.22C135.318 120.421 136.036 121.539 136.755 122.681C137.731 124.323 139.264 125.561 141.075 126.17C144.779 127.647 146.384 131.632 145.706 137.7C145.663 138.249 145.491 138.781 145.202 139.25C144.913 139.72 144.516 140.113 144.045 140.399C143.135 141.077 142.097 141.844 141.985 146.147C141.889 148.038 141.311 149.873 140.307 151.477C139.302 153.082 137.903 154.402 136.244 155.314L135.964 155.45C143.112 155.804 150.197 153.972 156.277 150.198C162.357 146.423 167.142 140.885 169.995 134.322C166.817 130.506 161.547 123.695 159.583 118.337Z" fill="#AFE2E3"/>
<path d="M172.238 107.686C170.226 102.219 166.942 97.3089 162.657 93.3616L161.683 92.4753C156.721 88.2323 150.72 85.3859 144.295 84.2283C137.869 83.0707 131.252 83.6435 125.121 85.888C122.345 86.9013 119.7 88.2415 117.241 89.8803L116.051 90.7426C111.261 94.276 107.4 98.9176 104.796 104.27C102.193 109.622 100.926 115.526 101.104 121.475V122.409C101.569 130.709 104.836 138.605 110.371 144.808C115.905 151.01 123.38 155.152 131.574 156.555C139.767 157.959 148.194 156.541 155.478 152.535C162.761 148.528 168.47 142.17 171.671 134.498L171.855 134.051C175.26 125.617 175.397 116.216 172.238 107.686ZM117.776 91.5011C118.464 91.816 119.001 92.3899 119.269 93.098C119.628 94.152 119.269 95.5573 118.295 97.2899C117.384 98.8469 117.089 100.045 117.376 101.059C117.572 101.554 117.869 102.003 118.249 102.377C118.628 102.751 119.082 103.042 119.58 103.23C120.155 103.542 120.698 103.829 120.786 104.197C120.842 104.436 120.786 105.043 119.82 106.376C116.019 111.582 106.158 120.477 102.701 121.507C102.517 115.646 103.799 109.832 106.432 104.592C109.064 99.352 112.964 94.8523 117.776 91.5011ZM132.108 154.116C131.094 153.437 130.647 151.721 130.846 149.325C131.413 142.738 129.617 141.453 127.565 140.63L127.349 140.542C126.856 140.303 126.391 140.011 125.96 139.672C124.5 138.599 122.932 137.681 121.281 136.933C118.087 135.448 114.438 133.101 115.412 130.37C116.482 127.392 122.095 125.332 123.58 125.715C125.904 126.314 127.804 125.324 129.816 124.278C130.942 123.651 132.124 123.13 133.346 122.721C134.663 122.306 134.783 122.497 135.446 123.519C136.595 125.445 138.392 126.9 140.516 127.623C144.26 129.116 144.564 133.811 144.149 137.492C144.131 137.824 144.027 138.145 143.848 138.425C143.669 138.705 143.42 138.934 143.127 139.089C141.721 140.143 140.548 141.389 140.42 146.084C140.339 147.69 139.849 149.249 138.995 150.612C138.141 151.974 136.952 153.096 135.541 153.869C134.184 154.579 132.93 154.667 132.108 154.116ZM149.898 153.318C145.456 154.961 140.727 155.686 135.996 155.45L136.276 155.314C137.935 154.402 139.334 153.082 140.338 151.477C141.343 149.873 141.921 148.038 142.017 146.147C142.129 141.844 143.167 141.077 144.077 140.399C144.548 140.113 144.945 139.72 145.234 139.25C145.523 138.781 145.695 138.249 145.738 137.7C146.416 131.632 144.811 127.647 141.107 126.17C139.296 125.561 137.763 124.323 136.787 122.681C136.044 121.539 135.35 120.461 132.874 121.22C131.561 121.66 130.292 122.222 129.082 122.896C127.197 123.871 125.712 124.645 123.98 124.198C121.656 123.599 115.261 126.09 113.911 129.859C113.113 131.999 113.688 135.217 120.61 138.418C122.171 139.123 123.654 139.99 125.034 141.005C125.558 141.417 126.129 141.766 126.734 142.043L126.974 142.139C128.283 142.666 129.768 143.265 129.257 149.222C129.01 152.088 129.625 153.749 130.399 154.707C127.865 154.151 125.4 153.321 123.045 152.232C117.387 149.614 112.527 145.539 108.965 140.423C105.402 135.307 103.265 129.335 102.773 123.12C107.372 122.002 118.015 111.558 121.137 107.327C122.191 105.881 122.582 104.779 122.375 103.845C122.127 102.767 121.193 102.248 120.363 101.833C119.532 101.418 119.085 101.115 118.941 100.628C118.798 100.14 119.053 99.2142 119.74 98.0964C120.985 95.9565 121.337 94.1041 120.85 92.587C120.559 91.7611 120.017 91.0466 119.301 90.543C125.449 86.7322 132.623 84.9119 139.844 85.3306C147.065 85.7494 153.981 88.3867 159.647 92.8825C158.649 93.3456 157.427 93.9923 155.99 94.8068C153.267 96.3558 149.906 95.3976 146.648 94.4714C145.356 94.0728 144.042 93.7528 142.711 93.5133C140.18 93.114 136.979 93.7049 135.941 95.9086C135.717 96.3877 135.461 96.8827 135.19 97.3937C133.889 99.9089 132.268 103.039 133.354 106.472C135.19 112.261 146.983 112.517 147.478 112.525H147.574C147.67 112.525 157.156 111.654 159.551 118.337C161.515 123.695 166.785 130.506 169.931 134.306C168.042 138.658 165.294 142.583 161.851 145.847C158.409 149.111 154.343 151.647 149.898 153.302V153.318ZM170.657 132.646C167.871 129.244 162.88 122.745 161.076 117.802C158.257 110.145 148.349 110.864 147.454 110.944C144.324 110.888 136.1 109.89 134.871 106.009C133.984 103.207 135.374 100.516 136.603 98.1443C136.883 97.6093 137.146 97.0983 137.402 96.6033C138.048 95.206 140.508 94.7828 142.488 95.0942C143.753 95.3213 145.004 95.6253 146.233 96.0044C149.634 96.9786 153.483 98.0804 156.796 96.1961C158.161 95.3953 159.568 94.6703 161.012 94.0243C166.351 98.7215 170.135 104.931 171.863 111.828C173.592 118.726 173.182 125.986 170.689 132.646H170.657Z" fill="black"/>
<path d="M119.82 106.368C116.011 111.582 106.126 120.477 102.685 121.539C102.5 115.676 103.784 109.86 106.418 104.618C109.052 99.3767 112.953 94.8762 117.768 91.5251C118.458 91.8405 118.997 92.4138 119.269 93.122C119.628 94.176 119.269 95.5813 118.295 97.3139C117.384 98.8709 117.089 100.069 117.376 101.083C117.572 101.578 117.869 102.027 118.249 102.401C118.628 102.775 119.082 103.066 119.58 103.254C120.155 103.566 120.698 103.853 120.786 104.221C120.842 104.428 120.786 105.035 119.82 106.368ZM144.149 137.508C144.564 133.827 144.26 129.132 140.516 127.639C138.392 126.916 136.595 125.462 135.445 123.535C134.783 122.513 134.647 122.322 133.346 122.737C132.124 123.146 130.942 123.667 129.816 124.294C127.804 125.34 125.904 126.33 123.58 125.731C123.437 125.697 123.289 125.681 123.141 125.683C121.217 125.683 116.394 127.647 115.412 130.386C114.43 133.125 118.063 135.464 121.281 136.949C122.932 137.697 124.5 138.615 125.96 139.688C126.39 140.027 126.856 140.319 127.349 140.558L127.565 140.646C129.617 141.445 131.413 142.754 130.846 149.341C130.647 151.737 131.094 153.437 132.108 154.132C132.906 154.683 134.184 154.595 135.541 153.893C136.952 153.12 138.141 151.998 138.995 150.636C139.849 149.273 140.339 147.714 140.42 146.108C140.548 141.413 141.721 140.167 143.127 139.113C143.421 138.957 143.671 138.727 143.85 138.446C144.029 138.164 144.132 137.841 144.149 137.508ZM170.673 132.638C173.162 125.976 173.569 118.715 171.843 111.816C170.116 104.918 166.337 98.7051 161.004 94.0004C159.558 94.6514 158.148 95.3791 156.78 96.1802C153.467 98.0645 149.594 96.9786 146.217 95.9885C144.988 95.6094 143.737 95.3054 142.472 95.0783C140.492 94.7669 138.032 95.1901 137.386 96.5874C137.154 97.0824 136.891 97.5934 136.587 98.1284C135.358 100.524 133.968 103.191 134.855 105.993C136.084 109.874 144.308 110.872 147.438 110.928C147.606 110.928 148.101 110.88 148.812 110.88C151.838 110.88 158.776 111.582 161.06 117.786C162.888 122.729 167.887 129.236 170.673 132.638Z" fill="#70D44B"/>
<rect x="0.25" y="0.25" width="269.5" height="269.5" stroke="#C4C4C4" stroke-width="0.5"/>
</svg>
