<svg width="390" height="123" viewBox="0 0 390 123" fill="none" xmlns="http://www.w3.org/2000/svg">
<path d="M136.826 49.7454H125V42.3342H157.464V49.7454H145.638V83.1247H136.826V49.7454Z" fill="black"/>
<path d="M164.679 50.7958C163.327 50.7958 162.187 50.3484 161.259 49.4536C160.331 48.5588 159.868 47.4306 159.868 46.069C159.868 44.7462 160.331 43.6375 161.259 42.7427C162.187 41.809 163.327 41.3422 164.679 41.3422C166.032 41.3422 167.172 41.809 168.1 42.7427C169.027 43.6375 169.491 44.7462 169.491 46.069C169.491 47.4306 169.027 48.5588 168.1 49.4536C167.172 50.3484 166.032 50.7958 164.679 50.7958ZM160.273 55.1141H169.085V83.1247H160.273V55.1141Z" fill="black"/>
<path d="M175.493 55.1141H183.667V58.4987C184.865 57.137 186.256 56.0866 187.841 55.3475C189.426 54.6083 191.068 54.2387 192.769 54.2387C194.894 54.2387 196.595 54.5889 197.87 55.2891C199.146 55.9505 200.151 56.9425 200.885 58.2653C202.083 56.9814 203.532 55.9894 205.233 55.2891C206.972 54.5889 208.692 54.2387 210.392 54.2387C213.948 54.2387 216.479 55.153 217.987 56.9814C219.533 58.8099 220.306 61.4553 220.306 64.9178V83.1247H211.958V66.1432C211.958 64.3537 211.61 63.0698 210.914 62.2918C210.218 61.5137 209.098 61.1247 207.552 61.1247C205.387 61.1247 203.648 61.9805 202.334 63.6923C202.411 64.9372 202.45 65.9487 202.45 66.7268V83.1247H194.044V65.8515C194.044 64.1397 193.735 62.9337 193.117 62.2334C192.537 61.4943 191.513 61.1247 190.044 61.1247C187.764 61.1247 185.735 62.4279 183.957 65.0345V83.1247H175.493V55.1141Z" fill="black"/>
<path d="M242.106 84C236.772 84 232.579 82.7162 229.526 80.1485C226.473 77.542 224.946 73.9045 224.946 69.2361C224.946 64.6065 226.299 60.9496 229.004 58.2653C231.748 55.5809 235.652 54.2387 240.715 54.2387C244.038 54.2387 246.86 54.8612 249.178 56.1061C251.497 57.351 253.256 59.0822 254.454 61.2997C255.652 63.4783 256.251 65.9487 256.251 68.7109V72.2706H233.294C233.912 75.8497 237.236 77.6393 243.265 77.6393C245.043 77.6393 246.879 77.4836 248.773 77.1724C250.666 76.8612 252.309 76.4332 253.7 75.8886V82.0743C252.348 82.6578 250.608 83.1247 248.483 83.4748C246.357 83.8249 244.232 84 242.106 84ZM247.961 66.5517C247.845 64.6844 247.149 63.2449 245.874 62.2334C244.599 61.183 242.84 60.6578 240.599 60.6578C238.396 60.6578 236.656 61.183 235.381 62.2334C234.106 63.2838 233.41 64.7233 233.294 66.5517H247.961Z" fill="black"/>
<path d="M271.47 84C268.069 84 265.286 83.1441 263.122 81.4324C260.996 79.6817 259.933 77.3086 259.933 74.313C259.933 71.2007 260.957 68.7887 263.006 67.0769C265.054 65.3263 267.953 64.4509 271.702 64.4509C273.363 64.4509 274.948 64.626 276.455 64.9761C277.963 65.3263 279.296 65.8126 280.455 66.435V65.7347C280.455 63.9841 279.837 62.7003 278.6 61.8833C277.364 61.0663 275.47 60.6578 272.919 60.6578C269.518 60.6578 266.387 61.2997 263.528 62.5836V56.1645C264.764 55.6198 266.368 55.1724 268.339 54.8223C270.31 54.4332 272.281 54.2387 274.252 54.2387C279.277 54.2387 283.026 55.2891 285.499 57.3899C287.973 59.4518 289.209 62.3501 289.209 66.0849V83.1247H280.977V80.557C278.62 82.8523 275.45 84 271.47 84ZM273.847 78.1645C275.277 78.1645 276.571 77.8921 277.731 77.3475C278.89 76.8028 279.798 76.0442 280.455 75.0716V72.2706C278.484 70.9478 276.32 70.2865 273.963 70.2865C272.339 70.2865 271.083 70.6366 270.194 71.3369C269.344 71.9982 268.919 72.9903 268.919 74.313C268.919 75.5579 269.344 76.511 270.194 77.1724C271.045 77.8338 272.262 78.1645 273.847 78.1645Z" fill="black"/>
<path d="M295.004 55.1141H303.468V59.1406C304.589 57.779 306.154 56.748 308.164 56.0477C310.174 55.3086 312.454 54.939 315.005 54.939V61.6499C312.338 61.6499 309.98 62.0584 307.932 62.8753C305.922 63.6923 304.531 64.9372 303.758 66.6101V83.1247H295.004V55.1141Z" fill="black"/>
<path d="M330.378 84C327.131 84 324.658 83.1052 322.957 81.3156C321.295 79.4872 320.464 76.9584 320.464 73.7294V61.4748H316.406V55.1141H320.464V46.7109H329.218V55.1141H335.769V61.4748H329.218V72.5623C329.218 74.1963 329.527 75.3828 330.146 76.122C330.764 76.8223 331.866 77.1724 333.45 77.1724C334.726 77.1724 335.943 76.8612 337.103 76.2387V82.8329C335.325 83.611 333.083 84 330.378 84Z" fill="black"/>
<path d="M341.144 40H349.898V58.3236C351.212 56.962 352.7 55.9505 354.362 55.2891C356.024 54.5889 357.802 54.2387 359.695 54.2387C363.483 54.2387 366.304 55.2697 368.159 57.3316C370.053 59.3546 371 62.0973 371 65.5597V83.1247H362.246V66.5517C362.246 62.9337 360.584 61.1247 357.261 61.1247C355.792 61.1247 354.42 61.4943 353.145 62.2334C351.869 62.9337 350.787 63.9841 349.898 65.3846V83.1247H341.144V40Z" fill="black"/>
<path d="M24.6669 25.1108C24.6246 24.7596 24.4976 24.424 24.2968 24.1328C24.096 23.8416 23.8275 23.6035 23.5144 23.4391C21.3644 22.2939 18.9663 21.6937 16.5304 21.6911C14.1061 21.6987 11.719 22.2876 9.56933 23.4086C7.37531 24.5532 5.49837 26.2226 4.1057 28.2683C2.71302 30.3139 1.84782 32.6723 1.58715 35.1333C1.32649 37.5943 1.67845 40.0815 2.61169 42.3736C3.54492 44.6656 5.03046 46.6913 6.93602 48.2702C7.22079 48.5086 7.55928 48.6742 7.92229 48.7526C8.28531 48.8311 8.66196 48.8201 9.01977 48.7205C9.3715 48.6255 9.69457 48.4457 9.9607 48.1969C10.2268 47.948 10.4279 47.6377 10.5463 47.2931C13.3076 39.5797 17.899 32.6516 23.9265 27.1031C24.2018 26.8556 24.4129 26.545 24.5419 26.198C24.6708 25.851 24.7137 25.478 24.6669 25.1108Z" fill="#FFAB4D"/>
<path d="M24.2318 22.088C20.6146 20.1878 16.4221 19.6938 12.4623 20.7013C8.50253 21.7087 5.05575 24.1462 2.78623 27.5441C0.516719 30.942 -0.414893 35.0597 0.170943 39.1037C0.756778 43.1476 2.81859 46.8316 5.95903 49.4457C6.65024 50.018 7.51944 50.3311 8.41678 50.3312C9.20201 50.3303 9.96786 50.0872 10.6099 49.635C11.2519 49.1828 11.7388 48.5436 12.0042 47.8045C14.6794 40.3232 19.1324 33.604 24.9799 28.2252C25.4324 27.8106 25.7783 27.293 25.9883 26.7163C26.1982 26.1396 26.266 25.5208 26.1858 24.9123C26.1125 24.3187 25.8964 23.7517 25.5561 23.2598C25.2158 22.768 24.7614 22.3659 24.2318 22.088ZM10.5616 47.2778C10.4432 47.6224 10.2421 47.9327 9.97598 48.1816C9.70985 48.4304 9.38676 48.6102 9.03503 48.7053C8.67722 48.8048 8.30057 48.8158 7.93755 48.7374C7.57453 48.6589 7.23605 48.4933 6.95129 48.2549C5.04573 46.676 3.56018 44.6504 2.62694 42.3583C1.69371 40.0663 1.34176 37.579 1.60242 35.118C1.86309 32.657 2.72829 30.2987 4.12097 28.253C5.51364 26.2074 7.39056 24.5379 9.58459 23.3933C11.7342 22.2724 14.1214 21.6834 16.5457 21.6758C18.9816 21.6785 21.3796 22.2787 23.5296 23.4238C23.8428 23.5883 24.1113 23.8263 24.3121 24.1175C24.5128 24.4087 24.6399 24.7444 24.6822 25.0955C24.7262 25.4646 24.6797 25.8389 24.5467 26.186C24.4137 26.5331 24.1983 26.8426 23.9189 27.0878C17.8976 32.6431 13.3141 39.5766 10.5616 47.2931V47.2778Z" fill="black"/>
<path d="M71.4175 1.54685C70.0701 1.54775 68.7292 1.73527 67.4332 2.10407C65.2628 2.70928 63.2573 3.79746 61.5668 5.28719C59.8763 6.77692 58.5444 8.62965 57.6709 10.7068C57.5168 11.0554 57.4522 11.4369 57.4829 11.8168C57.5135 12.1967 57.6385 12.5629 57.8465 12.8823C58.0417 13.1903 58.3093 13.4459 58.6259 13.6269C58.9425 13.8078 59.2986 13.9086 59.6631 13.9204C67.8401 14.2186 75.8229 16.4947 82.9277 20.5537C83.2527 20.742 83.619 20.8475 83.9944 20.8608C84.3697 20.8741 84.7426 20.7949 85.0801 20.6301C85.4144 20.4706 85.705 20.2324 85.927 19.9359C86.149 19.6394 86.2958 19.2935 86.3548 18.9278C86.6986 16.7738 86.569 14.5707 85.9749 12.4718C85.3809 10.373 84.3367 8.42874 82.915 6.77445C81.4933 5.12017 79.7282 3.79554 77.7426 2.89275C75.7571 1.98995 73.5986 1.53067 71.4175 1.54685Z" fill="#FFA44B"/>
<path d="M86.3777 9.28699C84.6619 5.81615 81.792 3.05043 78.2603 1.46411C74.7286 -0.122208 70.755 -0.430296 67.021 0.592685C64.627 1.26319 62.4154 2.46626 60.5518 4.11194C58.6881 5.75762 57.2206 7.80333 56.2589 10.0961C56.0147 10.6749 55.9143 11.3043 55.9661 11.9303C56.018 12.5564 56.2206 13.1606 56.5566 13.6914C56.8839 14.2094 57.3336 14.6391 57.866 14.9425C58.3983 15.246 58.9971 15.414 59.6097 15.4318C67.5405 15.7179 75.2833 17.9262 82.1721 21.8666C82.7072 22.1715 83.3081 22.3424 83.9236 22.3646C84.539 22.3868 85.1507 22.2598 85.7064 21.9943C86.2621 21.7288 86.7453 21.3327 87.1147 20.84C87.4842 20.3472 87.7289 19.7723 87.8279 19.1645C88.3753 15.8012 87.8687 12.3509 86.3777 9.28699ZM86.3243 18.9202C86.2696 19.2842 86.128 19.6297 85.9114 19.9273C85.6948 20.225 85.4097 20.466 85.0801 20.6301C84.746 20.7885 84.3784 20.8636 84.0089 20.8489C83.6393 20.8343 83.2789 20.7304 82.9582 20.5461C75.8534 16.4871 67.8706 14.211 59.6936 13.9128C59.3291 13.901 58.9731 13.8002 58.6564 13.6193C58.3398 13.4383 58.0722 13.1827 57.877 12.8746C57.669 12.5553 57.5441 12.189 57.5134 11.8092C57.4828 11.4293 57.5474 11.0477 57.7015 10.6992C58.5722 8.61776 59.9027 6.76049 61.5934 5.26665C63.2841 3.77281 65.2911 2.68116 67.4638 2.07354C68.7598 1.70474 70.1006 1.51722 71.4481 1.51632C73.6296 1.50386 75.7877 1.96701 77.7721 2.87355C79.7564 3.78009 81.5194 5.10821 82.9382 6.76549C84.3571 8.42277 85.3978 10.3694 85.9878 12.4698C86.5779 14.5703 86.7031 16.7741 86.3548 18.9278L86.3243 18.9202Z" fill="black"/>
<path d="M106.994 88.3219L97.4528 83.9099L97.7886 83.2153C101.571 75.3013 102.913 66.4406 101.643 57.7614C100.373 49.0823 96.549 40.9775 90.6579 34.4791C84.7668 27.9806 77.0751 23.3826 68.5622 21.2704C60.0494 19.1583 51.1006 19.6276 42.8553 22.6186C34.6101 25.6096 27.4414 30.987 22.2623 38.066C17.0831 45.145 14.1278 53.6054 13.7726 62.3697C13.4174 71.134 15.6784 79.8058 20.2677 87.2808C24.857 94.7557 31.5669 100.696 39.5431 104.344L40.2377 104.665L35.658 114.535C35.2623 115.402 35.2246 116.39 35.5533 117.285C35.8821 118.18 36.5505 118.908 37.4136 119.313L41.3673 121.137C42.2344 121.533 43.2227 121.571 44.1174 121.242C45.012 120.913 45.7408 120.245 46.1454 119.382L51.4884 107.894L52.0532 107.97C59.1846 108.937 66.4444 108.151 73.2036 105.68C79.841 103.258 85.7899 99.2573 90.5375 94.024L90.9192 93.6118L102.17 98.8177C103.037 99.2135 104.025 99.2512 104.92 98.9224C105.815 98.5937 106.543 97.9251 106.948 97.0621L108.772 93.108C109.168 92.2409 109.206 91.2525 108.877 90.3578C108.548 89.4631 107.88 88.7342 107.017 88.3296L106.994 88.3219ZM90.5757 77.5285L90.4001 77.956C87.3264 85.2636 81.8704 91.316 74.9198 95.1282C67.9692 98.9405 59.9331 100.288 52.1192 98.9522C44.3053 97.6162 37.1734 93.675 31.884 87.7699C26.5947 81.8649 23.4592 74.3435 22.9877 66.4297V65.5366C22.8179 59.8491 24.0291 54.2052 26.5176 49.0883C29.006 43.9714 32.6977 39.534 37.2762 36.1561L38.4135 35.3317C40.7643 33.765 43.2933 32.4838 45.947 31.5151C51.8075 29.3693 58.1333 28.8217 64.2753 29.9284C70.4173 31.0351 76.1542 33.7562 80.8974 37.8125L81.8286 38.6598C87.0676 43.4825 90.7133 49.7868 92.28 56.7333C93.8468 63.6799 93.2603 70.9389 90.5986 77.5438L90.5757 77.5285Z" fill="#FF6C37"/>
<path d="M110.268 89.8257C110.038 89.193 109.685 88.6123 109.229 88.117C108.773 87.6217 108.224 87.2218 107.612 86.9403L99.4679 83.1695C103.212 74.978 104.452 65.863 103.034 56.9688C101.615 48.0746 97.601 39.7978 91.4948 33.1775C85.3886 26.5571 77.4628 21.8885 68.7125 19.7577C59.9622 17.6268 50.7774 18.1288 42.3114 21.2006C33.8454 24.2723 26.4755 29.777 21.1271 37.0233C15.7787 44.2696 12.6901 52.9347 12.2493 61.9305C11.8084 70.9263 14.0348 79.8519 18.649 87.5866C23.2632 95.3212 30.0594 101.52 38.1845 105.405L34.2613 113.893C33.6961 115.128 33.6412 116.536 34.1086 117.811C34.576 119.086 35.5279 120.125 36.7572 120.702L40.7109 122.527C41.3209 122.81 41.9812 122.97 42.6534 122.996C43.3256 123.022 43.9963 122.915 44.6265 122.679C45.2598 122.45 45.8411 122.098 46.3365 121.642C46.8318 121.185 47.2314 120.635 47.5117 120.023L52.3585 109.558C59.5615 110.44 66.8709 109.597 73.6844 107.1C80.3741 104.662 86.3904 100.673 91.2398 95.4591L101.483 100.192C102.717 100.757 104.123 100.811 105.397 100.344C106.671 99.8763 107.708 98.9245 108.284 97.6956L110.116 93.7416C110.399 93.1314 110.558 92.4711 110.584 91.799C110.611 91.1268 110.503 90.4561 110.268 89.8257ZM108.742 93.1004L106.917 97.0544C106.513 97.9175 105.784 98.5861 104.889 98.9148C103.995 99.2435 103.006 99.2059 102.139 98.8101L90.8887 93.6042L90.507 94.0164C85.7594 99.2497 79.8105 103.25 73.173 105.672C66.4138 108.144 59.1541 108.93 52.0227 107.962L51.4579 107.886L46.1149 119.374C45.7103 120.237 44.9815 120.906 44.0868 121.234C43.1922 121.563 42.2039 121.526 41.3368 121.13L37.3831 119.305C36.52 118.901 35.8516 118.172 35.5228 117.277C35.1941 116.382 35.2317 115.394 35.6275 114.527L40.2072 104.657L39.5126 104.337C31.5379 100.683 24.8309 94.7386 20.2453 87.2605C15.6597 79.7824 13.4031 71.1087 13.7627 62.3438C14.1224 53.5789 17.082 45.1193 22.2648 38.042C27.4475 30.9647 34.619 25.5899 42.8662 22.6019C51.1133 19.6139 60.0631 19.1479 68.5759 21.2632C77.0887 23.3786 84.7796 27.9795 90.6692 34.4802C96.5589 40.981 100.381 49.0875 101.649 57.7677C102.917 66.4478 101.573 75.309 97.7887 83.2229L97.4528 83.9176L106.994 88.3296C107.857 88.7342 108.525 89.4631 108.854 90.3578C109.183 91.2525 109.145 92.2409 108.749 93.108L108.742 93.1004Z" fill="black"/>
<path d="M78.8671 62.5215C76.5162 56.1324 67.479 56.9568 67.4179 56.9644H67.3263C66.8531 56.9644 55.5795 56.7125 53.824 51.1784C52.7859 47.8961 54.3354 44.9038 55.5795 42.4994C55.8391 42.0108 56.0833 41.5376 56.297 41.0796C57.2893 38.9575 60.35 38.3927 62.7696 38.7896C64.0413 39.0186 65.2979 39.3245 66.5326 39.7056C69.6467 40.591 72.8601 41.507 75.4629 40.0262C76.8368 39.2628 78.0046 38.6293 78.9587 38.1865C73.5366 33.8751 66.914 31.3459 59.9984 30.9455C53.0829 30.5451 46.2127 32.2931 40.3293 35.95C41.0142 36.4314 41.5318 37.1145 41.8101 37.9041C42.2985 39.3544 41.9398 41.1254 40.7491 43.1711C40.1232 44.2397 39.8713 45.0794 39.9858 45.5908C40.1003 46.1023 40.5888 46.3542 41.3445 46.7435C42.1001 47.1327 43.0313 47.6366 43.2679 48.6671C43.4664 49.5602 43.0924 50.6135 42.0848 51.9952C39.131 56.0408 28.9565 66.0251 24.5295 67.0938C25.0001 73.0351 27.0431 78.7443 30.4488 83.6352C33.8545 88.5261 38.5002 92.4226 43.9091 94.9247C46.1595 95.9662 48.5167 96.7597 50.9388 97.2911C50.1755 96.3751 49.6107 94.7874 49.8473 92.047C50.3358 86.3526 48.9162 85.7801 47.6644 85.2763L47.4354 85.1847C46.8563 84.9191 46.3106 84.586 45.8096 84.1924C44.4907 83.222 43.0734 82.3931 41.5811 81.7192C34.9635 78.6659 34.4444 75.6125 35.1772 73.5363C36.4671 69.9334 42.581 67.5518 44.8021 68.1243C46.4584 68.5518 47.8552 67.8113 49.6794 66.8801C50.8358 66.2349 52.0495 65.6982 53.305 65.2771C55.6711 64.5137 56.3581 65.5824 57.045 66.674C57.9781 68.2441 59.4432 69.4277 61.1743 70.0097C64.7159 71.4219 66.2501 75.2309 65.6014 81.0322C65.5609 81.5575 65.3958 82.0656 65.1197 82.5143C64.8436 82.963 64.4644 83.3394 64.0137 83.6122C63.1436 84.2611 62.1513 84.9938 62.0445 89.1082C61.953 90.9157 61.4007 92.6697 60.4401 94.2035C59.4796 95.7373 58.1427 96.9999 56.5565 97.8712L56.2894 98.001C63.1218 98.3399 69.8953 96.5885 75.7071 92.9801C81.519 89.3716 86.0932 84.0775 88.8202 77.8033C85.7823 74.1546 80.7447 67.6434 78.8671 62.5215Z" fill="#AFE2E3"/>
<path d="M90.965 52.3387C89.0411 47.1121 85.9015 42.4182 81.8057 38.6446L80.8745 37.7972C76.1313 33.7409 70.3944 31.0198 64.2524 29.9131C58.1104 28.8064 51.7846 29.3541 45.9241 31.4998C43.2704 32.4685 40.7414 33.7497 38.3906 35.3164L37.2533 36.1408C32.6748 39.5187 28.9832 43.9562 26.4947 49.0731C24.0062 54.19 22.795 59.8339 22.9648 65.5213V66.4144C23.4096 74.349 26.5326 81.8979 31.8234 87.8274C37.1142 93.7569 44.2597 97.7161 52.0921 99.0579C59.9244 100.4 67.9803 99.0448 74.9429 95.2145C81.9054 91.3843 87.3628 85.3053 90.4231 77.9712L90.5986 77.5438C93.8535 69.4805 93.9842 60.4931 90.965 52.3387ZM38.902 36.866C39.5602 37.167 40.0732 37.7156 40.3293 38.3926C40.6728 39.4002 40.3293 40.7437 39.3981 42.4001C38.528 43.8886 38.2456 45.0336 38.5203 46.003C38.7075 46.4768 38.9916 46.9062 39.3544 47.2637C39.7171 47.6213 40.1506 47.899 40.627 48.0793C41.1765 48.377 41.6956 48.6518 41.7795 49.0029C41.8329 49.2319 41.7795 49.812 40.856 51.0868C37.2228 56.0637 27.7963 64.5672 24.4913 65.5519C24.3156 59.9486 25.5416 54.3902 28.0581 49.3808C30.5746 44.3715 34.302 40.0697 38.902 36.866ZM52.6028 96.7262C51.6334 96.0774 51.206 94.4362 51.3968 92.1462C51.9387 85.8488 50.2214 84.6198 48.2597 83.8336L48.0536 83.7496C47.5825 83.5206 47.1372 83.2416 46.7256 82.9176C45.3298 81.8915 43.8308 81.014 42.2528 80.2994C39.1997 78.8796 35.7115 76.6354 36.6427 74.0248C37.6655 71.1776 43.0313 69.2082 44.451 69.5746C46.6721 70.1471 48.4887 69.2006 50.4122 68.2006C51.4885 67.6017 52.6179 67.1034 53.7858 66.7121C55.0453 66.3152 55.1597 66.4984 55.7933 67.4755C56.8922 69.3169 58.6102 70.7076 60.6401 71.399C64.2198 72.8264 64.5099 77.3148 64.113 80.8337C64.0958 81.1509 63.9967 81.4582 63.8255 81.7257C63.6543 81.9932 63.4168 82.2119 63.136 82.3604C61.7926 83.3679 60.6706 84.5587 60.5485 89.0471C60.4716 90.5827 60.0026 92.0731 59.1862 93.3759C58.3697 94.6788 57.2332 95.7508 55.8849 96.4896C54.5873 97.1689 53.389 97.2529 52.6028 96.7262ZM69.6086 95.9629C65.3623 97.5337 60.8417 98.227 56.3199 98.0009L56.5871 97.8712C58.1732 96.9999 59.5101 95.7373 60.4706 94.2035C61.4312 92.6697 61.9835 90.9156 62.075 89.1082C62.1819 84.9938 63.1741 84.2611 64.0443 83.6122C64.495 83.3394 64.8741 82.963 65.1502 82.5143C65.4264 82.0656 65.5915 81.5575 65.6319 81.0322C66.2807 75.2309 64.7465 71.4219 61.2049 70.0097C59.4737 69.4277 58.0086 68.2441 57.0756 66.674C56.3657 65.5824 55.7017 64.5519 53.3355 65.2771C52.0801 65.6982 50.8664 66.2349 49.71 66.8801C47.9086 67.8113 46.4889 68.5517 44.8326 68.1243C42.6115 67.5518 36.4977 69.9334 35.2077 73.5363C34.4445 75.582 34.994 78.6582 41.6116 81.7192C43.1039 82.393 44.5212 83.222 45.8402 84.1923C46.3411 84.586 46.8868 84.9191 47.4659 85.1847L47.6949 85.2763C48.9467 85.7801 50.3664 86.3526 49.8779 92.047C49.6413 94.7873 50.229 96.3751 50.9694 97.2911C48.5472 96.7596 46.1901 95.9662 43.9396 94.9247C38.5307 92.4226 33.885 88.526 30.4793 83.6351C27.0736 78.7442 25.0306 73.0351 24.56 67.0938C28.9565 66.0251 39.131 56.0408 42.1154 51.9952C43.1229 50.6135 43.4969 49.5601 43.2985 48.6671C43.0618 47.6366 42.1688 47.1404 41.375 46.7435C40.5812 46.3465 40.1537 46.0565 40.0164 45.5908C39.879 45.1252 40.1232 44.2397 40.7796 43.1711C41.9703 41.1254 42.3062 39.3544 41.8406 37.9041C41.5624 37.1145 41.0447 36.4314 40.3598 35.95C46.2368 32.3069 53.0949 30.5667 59.9978 30.967C66.9006 31.3672 73.5116 33.8885 78.9281 38.1865C77.974 38.6293 76.8062 39.2476 75.4323 40.0262C72.8296 41.507 69.6162 40.591 66.502 39.7056C65.2674 39.3245 64.0107 39.0186 62.7391 38.7896C60.3195 38.4079 57.2587 38.9728 56.2665 41.0796C56.0528 41.5376 55.8085 42.0108 55.549 42.4994C54.3049 44.9038 52.7554 47.8961 53.7935 51.1784C55.549 56.7125 66.8226 56.9568 67.2958 56.9644H67.3874C67.479 56.9644 76.5467 56.1324 78.8365 62.5215C80.7142 67.6434 85.7518 74.1546 88.7591 77.788C86.9534 81.948 84.3264 85.7007 81.0358 88.8211C77.7451 91.9415 73.8584 94.3654 69.6086 95.9476V95.9629ZM89.4537 76.2003C86.7899 72.9485 82.0194 66.735 80.2944 62.01C77.6 54.6897 68.1278 55.3767 67.2729 55.453C64.2809 55.3996 56.4192 54.4454 55.2437 50.7357C54.3965 48.0564 55.7246 45.484 56.9 43.2169C57.1672 42.7054 57.419 42.2169 57.6633 41.7437C58.2815 40.4078 60.6324 40.0033 62.5254 40.301C63.7352 40.5181 64.9306 40.8087 66.1051 41.1712C69.3567 42.1024 73.0356 43.1558 76.2032 41.3544C77.5075 40.5889 78.8529 39.8957 80.2333 39.2781C85.3366 43.7687 88.9542 49.7048 90.6064 56.2989C92.2586 62.8931 91.8672 69.8337 89.4842 76.2003H89.4537Z" fill="black"/>
<path d="M40.8559 51.0792C37.2151 56.0638 27.7657 64.5672 24.476 65.5825C24.2999 59.9773 25.5264 54.4168 28.0443 49.4059C30.5622 44.3951 34.2918 40.0925 38.8943 36.8889C39.554 37.1904 40.0692 37.7385 40.3292 38.4156C40.6727 39.4232 40.3292 40.7666 39.3981 42.4231C38.5279 43.9115 38.2455 45.0565 38.5203 46.026C38.7074 46.4997 38.9915 46.9291 39.3543 47.2867C39.7171 47.6442 40.1506 47.922 40.6269 48.1022C41.1765 48.3999 41.6955 48.6747 41.7795 49.0259C41.8329 49.2243 41.7795 49.8045 40.8559 51.0792ZM64.1129 80.849C64.5098 77.3301 64.2198 72.8417 60.64 71.4143C58.6101 70.7229 56.8922 69.3323 55.7932 67.4908C55.1597 66.5137 55.0299 66.3305 53.7858 66.7275C52.6179 67.1188 51.4885 67.617 50.4121 68.2159C48.4887 69.2159 46.6721 70.1624 44.4509 69.5899C44.3135 69.5571 44.1724 69.5417 44.0311 69.5441C42.1916 69.5441 37.5815 71.4219 36.6426 74.0401C35.7038 76.6583 39.1767 78.8949 42.2527 80.3147C43.8307 81.0293 45.3298 81.9068 46.7255 82.9329C47.1372 83.2569 47.5824 83.5359 48.0536 83.7649L48.2597 83.8489C50.2213 84.6122 51.9387 85.8641 51.3967 92.1615C51.2059 94.4515 51.6334 96.0774 52.6027 96.7415C53.366 97.2682 54.5872 97.1842 55.8848 96.5125C57.2331 95.7737 58.3697 94.7017 59.1861 93.3989C60.0025 92.096 60.4715 90.6057 60.5484 89.0701C60.6705 84.5817 61.7926 83.3909 63.1359 82.3833C63.4178 82.2342 63.656 82.0143 63.8273 81.7454C63.9986 81.4764 64.097 81.1675 64.1129 80.849ZM89.4689 76.1927C91.8475 69.8237 92.2374 62.8828 90.587 56.2875C88.9366 49.6922 85.3236 43.753 80.2257 39.2553C78.8437 39.8777 77.4959 40.5733 76.1879 41.3391C73.0203 43.1406 69.3184 42.1025 66.0898 41.156C64.9153 40.7935 63.7198 40.5029 62.51 40.2857C60.6171 39.988 58.2662 40.3926 57.648 41.7284C57.4266 42.2017 57.1747 42.6902 56.8847 43.2017C55.7093 45.4917 54.3812 48.0412 55.2284 50.7205C56.4038 54.4302 64.2656 55.3844 67.2576 55.4378C67.4179 55.4378 67.8911 55.392 68.5704 55.392C71.4632 55.392 78.0961 56.0638 80.2791 61.9948C82.027 66.7198 86.8051 72.9409 89.4689 76.1927Z" fill="#70D44B"/>
</svg>
