<svg width="271" height="300" viewBox="0 0 271 300" fill="none" xmlns="http://www.w3.org/2000/svg">
<path d="M13.018 257.647H0V249.55H35.7356V257.647H22.7176V294.113H13.018V257.647Z" fill="black"/>
<path d="M43.6773 258.794C42.1884 258.794 40.9334 258.305 39.9123 257.328C38.8913 256.35 38.3808 255.118 38.3808 253.63C38.3808 252.185 38.8913 250.974 39.9123 249.996C40.9334 248.976 42.1884 248.466 43.6773 248.466C45.1663 248.466 46.4213 248.976 47.4423 249.996C48.4633 250.974 48.9739 252.185 48.9739 253.63C48.9739 255.118 48.4633 256.35 47.4423 257.328C46.4213 258.305 45.1663 258.794 43.6773 258.794ZM38.8275 263.512H48.5272V294.113H38.8275V263.512Z" fill="black"/>
<path d="M55.5805 263.512H64.5782V267.209C65.8971 265.722 67.4286 264.574 69.1728 263.767C70.9171 262.959 72.7251 262.555 74.597 262.555C76.9368 262.555 78.8087 262.938 80.2125 263.703C81.6164 264.426 82.7225 265.509 83.5308 266.954C84.8497 265.552 86.445 264.468 88.3169 263.703C90.2313 262.938 92.1244 262.555 93.9963 262.555C97.9102 262.555 100.697 263.554 102.356 265.552C104.058 267.549 104.908 270.439 104.908 274.222V294.113H95.7192V275.561C95.7192 273.606 95.3363 272.203 94.5706 271.353C93.8048 270.503 92.5711 270.078 90.8694 270.078C88.487 270.078 86.5726 271.013 85.1262 272.883C85.2113 274.243 85.2538 275.348 85.2538 276.198V294.113H76.0009V275.242C76.0009 273.372 75.6605 272.055 74.9798 271.29C74.3417 270.482 73.2143 270.078 71.5977 270.078C69.0877 270.078 66.8543 271.502 64.8973 274.35V294.113H55.5805V263.512Z" fill="black"/>
<path d="M128.905 295.069C123.034 295.069 118.419 293.666 115.058 290.861C111.697 288.014 110.016 284.04 110.016 278.94C110.016 273.882 111.505 269.887 114.483 266.954C117.504 264.022 121.801 262.555 127.374 262.555C131.032 262.555 134.138 263.236 136.69 264.596C139.243 265.956 141.179 267.847 142.497 270.269C143.816 272.65 144.476 275.348 144.476 278.366V282.255H119.206C119.886 286.165 123.545 288.12 130.181 288.12C132.138 288.12 134.159 287.95 136.244 287.61C138.328 287.27 140.136 286.803 141.668 286.208V292.965C140.179 293.603 138.265 294.113 135.925 294.495C133.585 294.878 131.245 295.069 128.905 295.069ZM135.35 276.007C135.223 273.967 134.457 272.395 133.053 271.29C131.649 270.142 129.714 269.568 127.246 269.568C124.821 269.568 122.907 270.142 121.503 271.29C120.099 272.437 119.333 274.01 119.206 276.007H135.35Z" fill="black"/>
<path d="M161.228 295.069C157.484 295.069 154.421 294.134 152.039 292.264C149.699 290.351 148.529 287.759 148.529 284.486C148.529 281.086 149.656 278.451 151.911 276.581C154.166 274.668 157.356 273.712 161.483 273.712C163.312 273.712 165.057 273.903 166.716 274.286C168.375 274.668 169.843 275.2 171.119 275.88V275.115C171.119 273.202 170.438 271.8 169.077 270.907C167.715 270.014 165.631 269.568 162.823 269.568C159.079 269.568 155.633 270.269 152.485 271.672V264.659C153.847 264.064 155.612 263.576 157.782 263.193C159.951 262.768 162.121 262.555 164.291 262.555C169.821 262.555 173.948 263.703 176.671 265.998C179.393 268.251 180.755 271.417 180.755 275.497V294.113H171.693V291.308C169.098 293.815 165.61 295.069 161.228 295.069ZM163.844 288.694C165.418 288.694 166.843 288.396 168.12 287.801C169.396 287.206 170.396 286.378 171.119 285.315V282.255C168.949 280.81 166.567 280.087 163.972 280.087C162.185 280.087 160.802 280.47 159.824 281.235C158.888 281.957 158.42 283.041 158.42 284.486C158.42 285.846 158.888 286.888 159.824 287.61C160.76 288.333 162.1 288.694 163.844 288.694Z" fill="black"/>
<path d="M187.134 263.512H196.45V267.911C197.684 266.423 199.407 265.297 201.619 264.532C203.831 263.724 206.341 263.321 209.149 263.321V270.652C206.214 270.652 203.619 271.098 201.364 271.991C199.152 272.883 197.62 274.243 196.769 276.071V294.113H187.134V263.512Z" fill="black"/>
<path d="M226.071 295.069C222.498 295.069 219.775 294.091 217.903 292.136C216.074 290.139 215.159 287.376 215.159 283.849V270.461H210.692V263.512H215.159V254.331H224.795V263.512H232.006V270.461H224.795V282.574C224.795 284.359 225.135 285.655 225.816 286.463C226.497 287.228 227.709 287.61 229.453 287.61C230.857 287.61 232.197 287.27 233.474 286.59V293.794C231.517 294.644 229.049 295.069 226.071 295.069Z" fill="black"/>
<path d="M237.923 247H247.558V267.018C249.005 265.531 250.643 264.426 252.472 263.703C254.301 262.938 256.258 262.555 258.343 262.555C262.512 262.555 265.618 263.682 267.66 265.934C269.744 268.144 270.787 271.141 270.787 274.923V294.113H261.151V276.007C261.151 272.055 259.321 270.078 255.663 270.078C254.046 270.078 252.536 270.482 251.132 271.29C249.728 272.055 248.537 273.202 247.558 274.732V294.113H237.923V247Z" fill="black"/>
<path d="M77.2074 47.8687C77.1267 47.1993 76.8845 46.5594 76.5016 46.0043C76.1187 45.4492 75.6067 44.9954 75.0095 44.6819C70.9094 42.4989 66.3363 41.3548 61.691 41.3497C57.0678 41.3642 52.5156 42.4869 48.4162 44.6238C44.2321 46.8057 40.6528 49.9882 37.997 53.8878C35.3411 57.7874 33.6912 62.2831 33.1941 66.9746C32.697 71.666 33.3682 76.4075 35.1479 80.7768C36.9276 85.1461 39.7605 89.0076 43.3944 92.0174C43.9375 92.472 44.583 92.7876 45.2753 92.9372C45.9675 93.0868 46.6858 93.0658 47.3682 92.876C48.0389 92.6948 48.655 92.3521 49.1625 91.8777C49.67 91.4033 50.0535 90.8118 50.2793 90.1549C55.5451 75.4509 64.3009 62.2437 75.7955 51.6666C76.3204 51.1948 76.723 50.6028 76.9689 49.9413C77.2148 49.2799 77.2966 48.5687 77.2074 47.8687Z" fill="#FFAB4D"/>
<path d="M76.3777 42.1064C69.4796 38.4841 61.4845 37.5424 53.9331 39.4629C46.3818 41.3833 39.8087 46.03 35.4807 52.5073C31.1527 58.9847 29.3762 66.8343 30.4933 74.5434C31.6105 82.2524 35.5424 89.2752 41.5313 94.2584C42.8494 95.3493 44.507 95.9462 46.2182 95.9463C47.7157 95.9446 49.1762 95.4812 50.4005 94.6192C51.6248 93.7572 52.5533 92.5387 53.0595 91.1298C58.1612 76.8681 66.653 64.0592 77.8042 53.8057C78.6672 53.0154 79.3269 52.0288 79.7272 50.9294C80.1276 49.83 80.2568 48.6503 80.104 47.4904C79.9641 46.3588 79.5521 45.2779 78.9032 44.3403C78.2542 43.4026 77.3877 42.6361 76.3777 42.1064ZM50.3084 90.1258C50.0826 90.7827 49.6992 91.3742 49.1917 91.8486C48.6841 92.323 48.068 92.6657 47.3972 92.8469C46.7149 93.0367 45.9966 93.0577 45.3043 92.9081C44.6121 92.7585 43.9666 92.4429 43.4235 91.9883C39.7896 88.9785 36.9567 85.117 35.177 80.7477C33.3973 76.3784 32.7261 71.6369 33.2232 66.9455C33.7203 62.2541 35.3702 57.7584 38.0261 53.8587C40.6819 49.9591 44.2612 46.7766 48.4453 44.5947C52.5447 42.4578 57.0969 41.3351 61.7201 41.3206C66.3654 41.3257 70.9385 42.4699 75.0386 44.6529C75.6358 44.9663 76.1478 45.4201 76.5307 45.9752C76.9136 46.5303 77.1558 47.1702 77.2365 47.8396C77.3204 48.5432 77.2318 49.2567 76.9782 49.9184C76.7246 50.58 76.3137 51.1701 75.7809 51.6375C64.2983 62.2276 55.5575 75.4448 50.3084 90.1549V90.1258Z" fill="black"/>
<path d="M166.361 2.94876C163.792 2.95048 161.235 3.30795 158.763 4.011C154.624 5.16471 150.8 7.23909 147.576 10.079C144.352 12.9188 141.812 16.4507 140.146 20.4104C139.853 21.0749 139.729 21.8022 139.788 22.5264C139.846 23.2505 140.085 23.9487 140.481 24.5575C140.853 25.1447 141.364 25.632 141.968 25.9769C142.571 26.3219 143.25 26.514 143.945 26.5365C159.539 27.1049 174.762 31.4439 188.311 39.1816C188.931 39.5405 189.63 39.7415 190.346 39.7669C191.061 39.7923 191.772 39.6412 192.416 39.3271C193.054 39.0231 193.608 38.569 194.031 38.0038C194.454 37.4386 194.734 36.7792 194.847 36.0821C195.503 31.9759 195.255 27.7761 194.122 23.775C192.99 19.774 190.998 16.0677 188.287 12.9141C185.576 9.76058 182.21 7.23545 178.423 5.51445C174.637 3.79344 170.521 2.91791 166.361 2.94876Z" fill="#FFA44B"/>
<path d="M194.891 17.7038C191.618 11.0873 186.146 5.81504 179.411 2.79104C172.676 -0.232965 165.098 -0.820274 157.977 1.12983C153.412 2.40803 149.194 4.70144 145.64 7.8386C142.086 10.9758 139.288 14.8755 137.454 19.2462C136.988 20.3497 136.797 21.5493 136.895 22.7428C136.994 23.9363 137.381 25.0881 138.021 26.0999C138.646 27.0874 139.503 27.9065 140.518 28.485C141.534 29.0635 142.675 29.3838 143.844 29.4176C158.968 29.9631 173.733 34.1727 186.87 41.6844C187.891 42.2656 189.037 42.5913 190.21 42.6337C191.384 42.676 192.551 42.4338 193.61 41.9277C194.67 41.4216 195.591 40.6666 196.296 39.7273C197.001 38.7879 197.467 37.692 197.656 36.5332C198.7 30.1218 197.734 23.5446 194.891 17.7038ZM194.789 36.0676C194.684 36.7615 194.414 37.4201 194.001 37.9875C193.588 38.5549 193.044 39.0144 192.416 39.3271C191.779 39.6291 191.078 39.7722 190.373 39.7443C189.668 39.7165 188.981 39.5184 188.37 39.167C174.821 31.4293 159.597 27.0904 144.004 26.5219C143.309 26.4994 142.63 26.3073 142.026 25.9624C141.422 25.6175 140.912 25.1302 140.539 24.5429C140.143 23.9341 139.905 23.236 139.846 22.5118C139.788 21.7876 139.911 21.0603 140.205 20.3958C141.865 16.428 144.402 12.8875 147.627 10.0398C150.851 7.19211 154.678 5.11109 158.821 3.9528C161.293 3.24975 163.85 2.89228 166.42 2.89056C170.58 2.86681 174.695 3.74972 178.479 5.47785C182.264 7.20598 185.626 9.73779 188.331 12.8971C191.037 16.0563 193.022 19.7672 194.147 23.7712C195.272 27.7753 195.511 31.9764 194.847 36.0821L194.789 36.0676Z" fill="black"/>
<path d="M234.206 168.368L216.011 159.958L216.651 158.633C223.864 143.547 226.423 126.656 224.001 110.111C221.58 93.5657 214.287 78.1155 203.053 65.7275C191.818 53.3395 177.15 44.5742 160.916 40.5478C144.682 36.5214 127.617 37.416 111.893 43.1178C96.1691 48.8196 82.4985 59.0705 72.6218 72.5652C62.7451 86.06 57.1092 102.188 56.4319 118.895C55.7545 135.603 60.0662 152.134 68.8181 166.383C77.5699 180.633 90.3659 191.956 105.576 198.911L106.901 199.523L98.1676 218.337C97.4128 219.99 97.3411 221.875 97.9679 223.58C98.5948 225.286 99.8696 226.675 101.515 227.447L109.055 230.924C110.709 231.679 112.593 231.751 114.3 231.124C116.006 230.497 117.396 229.223 118.167 227.578L128.356 205.678L129.433 205.823C143.033 207.667 156.877 206.169 169.767 201.458C182.425 196.84 193.77 189.214 202.823 179.238L203.551 178.452L225.006 188.376C226.66 189.131 228.544 189.203 230.251 188.576C231.957 187.949 233.347 186.675 234.118 185.029L237.597 177.492C238.352 175.839 238.424 173.955 237.797 172.249C237.17 170.544 235.895 169.154 234.249 168.383L234.206 168.368ZM202.896 147.793L202.561 148.607C196.7 162.538 186.295 174.076 173.04 181.343C159.785 188.61 144.46 191.18 129.559 188.633C114.658 186.086 101.057 178.573 90.9705 167.316C80.8837 156.059 74.9042 141.721 74.0051 126.635V124.932C73.6813 114.09 75.9911 103.331 80.7366 93.5771C85.4822 83.8228 92.5221 75.3637 101.253 68.9244L103.422 67.3529C107.905 64.3663 112.728 61.9238 117.789 60.0772C128.965 55.9868 141.028 54.9429 152.741 57.0525C164.454 59.1622 175.394 64.3495 184.439 72.082L186.215 73.6972C196.206 82.8906 203.158 94.9086 206.146 108.151C209.134 121.393 208.016 135.231 202.94 147.822L202.896 147.793Z" fill="#FF6C37"/>
<path d="M240.45 171.235C240.011 170.029 239.338 168.922 238.468 167.977C237.599 167.033 236.551 166.271 235.385 165.734L219.854 158.546C226.993 142.931 229.359 125.555 226.654 108.6C223.949 91.6446 216.293 75.8665 204.649 63.2462C193.004 50.6259 177.89 41.726 161.203 37.664C144.516 33.602 127 34.559 110.856 40.4147C94.7109 46.2704 80.6565 56.7639 70.457 70.5775C60.2575 84.3912 54.3676 100.909 53.5268 118.058C52.686 135.207 56.9318 152.222 65.7312 166.966C74.5305 181.711 87.491 193.528 102.986 200.934L95.504 217.115C94.4262 219.469 94.3215 222.153 95.2128 224.584C96.1042 227.015 97.9194 228.995 100.264 230.095L107.804 233.573C108.967 234.113 110.226 234.418 111.508 234.468C112.79 234.518 114.069 234.312 115.271 233.864C116.478 233.427 117.587 232.755 118.531 231.885C119.476 231.016 120.238 229.967 120.773 228.8L130.016 208.85C143.752 210.531 157.691 208.925 170.684 204.164C183.442 199.517 194.915 191.912 204.163 181.974L223.696 190.996C226.049 192.072 228.732 192.177 231.161 191.285C233.59 190.394 235.568 188.58 236.665 186.237L240.159 178.7C240.699 177.537 241.003 176.278 241.053 174.996C241.103 173.715 240.898 172.436 240.45 171.235ZM237.539 177.477L234.06 185.015C233.288 186.66 231.899 187.935 230.192 188.561C228.486 189.188 226.602 189.116 224.948 188.362L203.493 178.438L202.765 179.224C193.711 189.2 182.367 196.825 169.709 201.443C156.819 206.154 142.975 207.653 129.375 205.809L128.298 205.663L118.109 227.563C117.337 229.208 115.948 230.483 114.241 231.109C112.535 231.736 110.651 231.664 108.997 230.91L101.457 227.432C99.8115 226.661 98.5367 225.271 97.9098 223.566C97.2829 221.86 97.3546 219.976 98.1094 218.323L106.843 199.508L105.518 198.897C90.3105 191.932 77.5201 180.6 68.7754 166.345C60.0307 152.089 55.7272 135.555 56.413 118.846C57.0989 102.137 62.7429 86.0109 72.6265 72.5194C82.5101 59.028 96.1862 48.782 111.914 43.086C127.641 37.3901 144.708 36.5017 160.942 40.5341C177.176 44.5666 191.843 53.3373 203.075 65.7297C214.306 78.1221 221.595 93.5755 224.013 110.123C226.43 126.67 223.868 143.562 216.651 158.648L216.011 159.972L234.206 168.383C235.851 169.154 237.126 170.544 237.753 172.249C238.38 173.955 238.308 175.839 237.553 177.492L237.539 177.477Z" fill="black"/>
<path d="M180.568 119.185C176.084 107.005 158.85 108.577 158.734 108.591H158.559C157.657 108.591 136.158 108.111 132.81 97.5614C130.831 91.3043 133.786 85.6002 136.158 81.0165C136.653 80.0853 137.119 79.1831 137.526 78.31C139.419 74.2647 145.255 73.1879 149.87 73.9446C152.295 74.3812 154.691 74.9643 157.046 75.6907C162.984 77.3787 169.112 79.1249 174.076 76.3019C176.696 74.8468 178.923 73.639 180.742 72.795C170.402 64.5761 157.773 59.7547 144.585 58.9914C131.397 58.2282 118.295 61.5604 107.076 68.5315C108.382 69.4492 109.369 70.7514 109.9 72.2566C110.831 75.0214 110.147 78.3973 107.876 82.2971C106.683 84.3342 106.202 85.9349 106.421 86.9099C106.639 87.8848 107.571 88.365 109.012 89.1071C110.453 89.8492 112.228 90.8096 112.68 92.774C113.058 94.4765 112.345 96.4846 110.424 99.1184C104.791 106.831 85.3877 125.864 76.9454 127.901C77.8428 139.227 81.7388 150.11 88.2335 159.434C94.7281 168.757 103.588 176.185 113.902 180.955C118.194 182.94 122.689 184.453 127.308 185.466C125.853 183.72 124.776 180.693 125.227 175.469C126.158 164.614 123.451 163.523 121.064 162.562L120.627 162.388C119.523 161.881 118.482 161.246 117.527 160.496C115.012 158.646 112.309 157.066 109.463 155.781C96.8431 149.961 95.8533 144.14 97.2506 140.182C99.7105 133.314 111.37 128.774 115.605 129.865C118.764 130.68 121.428 129.269 124.907 127.493C127.112 126.264 129.426 125.241 131.82 124.438C136.333 122.983 137.643 125.02 138.953 127.101C140.732 130.094 143.526 132.35 146.827 133.46C153.581 136.152 156.507 143.413 155.27 154.472C155.193 155.473 154.878 156.442 154.351 157.297C153.825 158.152 153.102 158.87 152.242 159.39C150.583 160.627 148.691 162.024 148.487 169.867C148.312 173.313 147.259 176.656 145.427 179.58C143.595 182.504 141.046 184.911 138.021 186.572L137.512 186.819C150.541 187.465 163.458 184.127 174.542 177.248C185.625 170.369 194.348 160.277 199.548 148.316C193.755 141.361 184.148 128.949 180.568 119.185Z" fill="#AFE2E3"/>
<path d="M203.639 99.7732C199.97 89.8098 193.982 80.8618 186.172 73.6681L184.396 72.0529C175.351 64.3204 164.41 59.1331 152.697 57.0234C140.985 54.9137 128.921 55.9577 117.745 60.0481C112.684 61.8947 107.862 64.3371 103.379 67.3237L101.21 68.8953C92.4785 75.3346 85.4386 83.7937 80.693 93.548C75.9474 103.302 73.6376 114.061 73.9614 124.903V126.606C74.8097 141.731 80.7654 156.122 90.8549 167.425C100.945 178.729 114.571 186.276 129.508 188.834C144.444 191.392 159.807 188.809 173.084 181.507C186.362 174.206 196.769 162.617 202.605 148.637L202.94 147.822C209.147 132.451 209.396 115.318 203.639 99.7732ZM104.354 70.2776C105.609 70.8515 106.587 71.8973 107.076 73.1879C107.731 75.1087 107.076 77.6697 105.3 80.8274C103.641 83.6649 103.102 85.8476 103.626 87.6956C103.983 88.5987 104.525 89.4173 105.217 90.0989C105.908 90.7804 106.735 91.31 107.643 91.6536C108.691 92.2211 109.681 92.7449 109.841 93.4143C109.943 93.8508 109.841 94.9567 108.08 97.3868C101.152 106.874 83.1752 123.084 76.8726 124.962C76.5375 114.28 78.8755 103.684 83.6745 94.1347C88.4734 84.5853 95.5815 76.385 104.354 70.2776ZM130.481 184.389C128.633 183.152 127.818 180.024 128.182 175.658C129.215 163.654 125.94 161.311 122.199 159.812L121.806 159.652C120.908 159.215 120.059 158.684 119.273 158.066C116.612 156.11 113.753 154.437 110.744 153.075C104.922 150.368 98.2695 146.09 100.045 141.114C101.996 135.686 112.228 131.932 114.936 132.63C119.172 133.721 122.636 131.917 126.304 130.011C128.357 128.869 130.51 127.919 132.738 127.173C135.139 126.417 135.358 126.766 136.566 128.628C138.661 132.139 141.938 134.79 145.809 136.108C152.635 138.829 153.188 147.385 152.431 154.093C152.399 154.698 152.21 155.284 151.883 155.794C151.557 156.304 151.104 156.721 150.568 157.004C148.007 158.924 145.867 161.194 145.634 169.751C145.487 172.678 144.593 175.519 143.036 178.003C141.479 180.486 139.312 182.53 136.74 183.938C134.266 185.233 131.981 185.393 130.481 184.389ZM162.912 182.934C154.814 185.928 146.193 187.25 137.57 186.819L138.08 186.572C141.104 184.911 143.654 182.504 145.485 179.58C147.317 176.656 148.371 173.313 148.545 169.867C148.749 162.024 150.641 160.627 152.3 159.39C153.16 158.87 153.883 158.152 154.41 157.297C154.936 156.442 155.251 155.473 155.328 154.472C156.565 143.413 153.64 136.152 146.886 133.46C143.584 132.35 140.79 130.094 139.011 127.101C137.657 125.02 136.391 123.055 131.879 124.438C129.485 125.241 127.17 126.264 124.965 127.493C121.53 129.269 118.822 130.68 115.664 129.865C111.428 128.774 99.7688 133.314 97.3089 140.182C95.8533 144.082 96.9013 149.946 109.521 155.781C112.367 157.066 115.07 158.646 117.585 160.496C118.54 161.246 119.581 161.881 120.685 162.388L121.122 162.562C123.509 163.523 126.217 164.614 125.285 175.469C124.834 180.693 125.955 183.72 127.366 185.466C122.747 184.453 118.252 182.94 113.961 180.955C103.646 176.185 94.7864 168.757 88.2917 159.434C81.797 150.11 77.901 139.227 77.0036 127.901C85.3877 125.864 104.79 106.831 110.482 99.1184C112.403 96.4846 113.116 94.4765 112.738 92.774C112.287 90.8096 110.584 89.8637 109.07 89.1071C107.556 88.3504 106.741 87.7975 106.479 86.9098C106.217 86.0222 106.683 84.3342 107.935 82.2971C110.205 78.3973 110.846 75.0214 109.958 72.2566C109.427 70.7514 108.44 69.4492 107.134 68.5315C118.341 61.5866 131.42 58.2693 144.584 59.0323C157.747 59.7954 170.355 64.6017 180.684 72.795C178.865 73.639 176.638 74.8177 174.018 76.3019C169.054 79.1249 162.926 77.3787 156.987 75.6907C154.633 74.9643 152.236 74.3812 149.811 73.9446C145.197 73.217 139.36 74.2938 137.468 78.31C137.061 79.1831 136.595 80.0853 136.1 81.0165C133.727 85.6002 130.773 91.3043 132.752 97.5614C136.1 108.111 157.599 108.577 158.501 108.591H158.676C158.851 108.591 176.143 107.005 180.509 119.185C184.09 128.949 193.697 141.361 199.432 148.287C195.988 156.218 190.979 163.371 184.703 169.32C178.428 175.268 171.016 179.889 162.912 182.905V182.934ZM200.757 145.261C195.677 139.062 186.579 127.217 183.29 118.21C178.151 104.255 160.088 105.565 158.458 105.71C152.752 105.608 137.759 103.789 135.518 96.7174C133.902 91.6099 136.435 86.7061 138.676 82.3844C139.186 81.4094 139.666 80.4781 140.132 79.576C141.311 77.0295 145.794 76.2582 149.404 76.8257C151.711 77.2396 153.991 77.7936 156.231 78.4846C162.431 80.2599 169.447 82.2679 175.488 78.8338C177.975 77.3746 180.541 76.0532 183.173 74.8759C192.905 83.4364 199.804 94.7523 202.955 107.323C206.105 119.893 205.359 133.124 200.815 145.261H200.757Z" fill="black"/>
<path d="M108.08 97.3724C101.137 106.874 83.1169 123.085 76.8434 125.02C76.5074 114.335 78.8465 103.735 83.6481 94.1826C88.4498 84.6304 95.5621 76.4284 104.339 70.3214C105.597 70.896 106.58 71.9409 107.076 73.2317C107.731 75.1524 107.076 77.7135 105.3 80.8711C103.64 83.7086 103.102 85.8913 103.626 87.7393C103.983 88.6424 104.525 89.461 105.216 90.1426C105.908 90.8242 106.735 91.3537 107.643 91.6973C108.691 92.2648 109.681 92.7887 109.841 93.458C109.943 93.8364 109.841 94.9423 108.08 97.3724ZM152.431 154.123C153.188 147.414 152.635 138.858 145.809 136.137C141.937 134.819 138.661 132.168 136.566 128.658C135.357 126.795 135.11 126.446 132.737 127.203C130.51 127.949 128.356 128.898 126.304 130.04C122.636 131.946 119.171 133.751 114.936 132.659C114.674 132.597 114.405 132.567 114.135 132.572C110.627 132.572 101.836 136.152 100.045 141.143C98.2549 146.134 104.878 150.397 110.744 153.104C113.753 154.466 116.612 156.139 119.273 158.095C120.058 158.713 120.908 159.244 121.806 159.681L122.199 159.841C125.94 161.296 129.215 163.683 128.181 175.688C127.818 180.053 128.633 183.152 130.481 184.418C131.937 185.422 134.266 185.262 136.74 183.982C139.312 182.573 141.479 180.53 143.036 178.046C144.593 175.563 145.487 172.722 145.634 169.794C145.867 161.238 148.006 158.968 150.568 157.047C151.106 156.763 151.56 156.344 151.887 155.831C152.213 155.318 152.401 154.73 152.431 154.123ZM200.786 145.246C205.322 133.105 206.065 119.874 202.918 107.301C199.77 94.7282 192.88 83.4064 183.159 74.8323C180.523 76.0188 177.953 77.3449 175.459 78.8048C169.418 82.239 162.358 80.26 156.201 78.4556C153.962 77.7646 151.682 77.2106 149.375 76.7967C145.765 76.2292 141.282 77.0005 140.103 79.547C139.681 80.4492 139.2 81.3804 138.647 82.3554C136.405 86.7208 133.873 91.5809 135.488 96.6884C137.73 103.76 152.722 105.579 158.428 105.681C158.734 105.681 159.636 105.594 160.932 105.594C166.449 105.594 179.097 106.874 183.26 118.181C186.594 127.188 195.706 139.047 200.786 145.246Z" fill="#70D44B"/>
</svg>
