<svg width="190" height="211" viewBox="0 0 190 211" fill="none" xmlns="http://www.w3.org/2000/svg">
<path d="M9.13417 180.78H0V175.099H25.0742V180.78H15.94V206.367H9.13417V180.78Z" fill="black"/>
<path d="M30.6466 181.585C29.6019 181.585 28.7213 181.242 28.0049 180.557C27.2885 179.871 26.9303 179.006 26.9303 177.962C26.9303 176.948 27.2885 176.098 28.0049 175.412C28.7213 174.697 29.6019 174.339 30.6466 174.339C31.6914 174.339 32.572 174.697 33.2884 175.412C34.0048 176.098 34.363 176.948 34.363 177.962C34.363 179.006 34.0048 179.871 33.2884 180.557C32.572 181.242 31.6914 181.585 30.6466 181.585ZM27.2437 184.896H34.0496V206.367H27.2437V184.896Z" fill="black"/>
<path d="M38.9986 184.896H45.312V187.49C46.2373 186.446 47.3119 185.641 48.5358 185.075C49.7596 184.508 51.0283 184.225 52.3417 184.225C53.9834 184.225 55.2969 184.493 56.2819 185.03C57.267 185.537 58.0431 186.297 58.6102 187.311C59.5356 186.327 60.655 185.567 61.9684 185.03C63.3116 184.493 64.64 184.225 65.9534 184.225C68.6996 184.225 70.6548 184.925 71.819 186.327C73.013 187.729 73.61 189.756 73.61 192.411V206.367H67.1623V193.35C67.1623 191.978 66.8937 190.994 66.3564 190.398C65.8191 189.801 64.9534 189.503 63.7594 189.503C62.0878 189.503 60.7445 190.159 59.7296 191.471C59.7893 192.426 59.8192 193.201 59.8192 193.797V206.367H53.3267V193.126C53.3267 191.814 53.0879 190.89 52.6103 190.353C52.1626 189.786 51.3716 189.503 50.2372 189.503C48.4761 189.503 46.9089 190.502 45.5358 192.5V206.367H38.9986V184.896Z" fill="black"/>
<path d="M90.4476 207.038C86.3283 207.038 83.0895 206.054 80.7313 204.086C78.3732 202.088 77.1941 199.299 77.1941 195.721C77.1941 192.172 78.2389 189.369 80.3284 187.311C82.4477 185.253 85.4626 184.225 89.373 184.225C91.9401 184.225 94.1192 184.702 95.9102 185.656C97.7012 186.61 99.0594 187.937 99.9848 189.637C100.91 191.307 101.373 193.201 101.373 195.318V198.047H83.6418C84.1194 200.79 86.6865 202.162 91.3431 202.162C92.7162 202.162 94.1341 202.043 95.5968 201.804C97.0594 201.566 98.3281 201.238 99.4027 200.82V205.562C98.3579 206.009 97.0147 206.367 95.3729 206.635C93.7311 206.904 92.0894 207.038 90.4476 207.038ZM94.9699 193.663C94.8804 192.232 94.3431 191.128 93.358 190.353C92.3729 189.548 91.0148 189.145 89.2834 189.145C87.582 189.145 86.2387 189.548 85.2537 190.353C84.2686 191.158 83.7313 192.261 83.6418 193.663H94.9699Z" fill="black"/>
<path d="M113.127 207.038C110.5 207.038 108.351 206.382 106.679 205.07C105.038 203.728 104.217 201.909 104.217 199.612C104.217 197.227 105.008 195.378 106.59 194.066C108.172 192.724 110.411 192.053 113.306 192.053C114.59 192.053 115.814 192.187 116.978 192.455C118.142 192.724 119.172 193.096 120.067 193.574V193.037C120.067 191.695 119.59 190.711 118.634 190.085C117.679 189.458 116.217 189.145 114.246 189.145C111.62 189.145 109.202 189.637 106.993 190.621V185.701C107.948 185.283 109.187 184.94 110.709 184.672C112.232 184.374 113.754 184.225 115.276 184.225C119.157 184.225 122.052 185.03 123.963 186.64C125.873 188.221 126.828 190.442 126.828 193.305V206.367H120.47V204.399C118.649 206.158 116.202 207.038 113.127 207.038ZM114.963 202.565C116.067 202.565 117.067 202.356 117.963 201.939C118.858 201.521 119.56 200.94 120.067 200.194V198.047C118.545 197.033 116.873 196.526 115.052 196.526C113.799 196.526 112.829 196.794 112.142 197.331C111.485 197.838 111.157 198.599 111.157 199.612C111.157 200.567 111.485 201.297 112.142 201.804C112.799 202.311 113.739 202.565 114.963 202.565Z" fill="black"/>
<path d="M131.304 184.896H137.841V187.982C138.707 186.938 139.916 186.148 141.468 185.611C143.02 185.045 144.781 184.761 146.752 184.761V189.906C144.692 189.906 142.871 190.219 141.289 190.845C139.737 191.471 138.662 192.426 138.065 193.708V206.367H131.304V184.896Z" fill="black"/>
<path d="M158.625 207.038C156.118 207.038 154.207 206.352 152.894 204.98C151.61 203.579 150.968 201.64 150.968 199.165V189.771H147.834V184.896H150.968V178.454H157.73V184.896H162.789V189.771H157.73V198.271C157.73 199.523 157.968 200.433 158.446 200.999C158.924 201.536 159.774 201.804 160.998 201.804C161.983 201.804 162.924 201.566 163.819 201.089V206.143C162.446 206.74 160.715 207.038 158.625 207.038Z" fill="black"/>
<path d="M166.941 173.31H173.702V187.356C174.717 186.312 175.866 185.537 177.149 185.03C178.433 184.493 179.806 184.225 181.269 184.225C184.194 184.225 186.373 185.015 187.806 186.595C189.269 188.146 190 190.249 190 192.903V206.367H183.239V193.663C183.239 190.89 181.955 189.503 179.388 189.503C178.254 189.503 177.194 189.786 176.209 190.353C175.224 190.89 174.388 191.695 173.702 192.768V206.367H166.941V173.31Z" fill="black"/>
<path d="M54.1734 33.5875C54.1167 33.1178 53.9468 32.6689 53.6781 32.2794C53.4095 31.8899 53.0502 31.5715 52.6312 31.3515C49.7543 29.8198 46.5455 29.017 43.2861 29.0134C40.0422 29.0236 36.8481 29.8114 33.9717 31.3107C31.0359 32.8417 28.5245 35.0747 26.661 37.8109C24.7975 40.5471 23.6398 43.7016 23.291 46.9934C22.9422 50.2851 23.4131 53.612 24.6619 56.6778C25.9106 59.7436 27.8984 62.4531 30.4481 64.5649C30.8292 64.8839 31.2821 65.1054 31.7678 65.2103C32.2536 65.3152 32.7576 65.3005 33.2364 65.1673C33.707 65.0402 34.1393 64.7997 34.4954 64.4669C34.8515 64.134 35.1206 63.719 35.279 63.258C38.9738 52.9408 45.1174 43.6739 53.1827 36.2524C53.551 35.9213 53.8335 35.5059 54.006 35.0418C54.1786 34.5777 54.236 34.0787 54.1734 33.5875Z" fill="#FFAB4D"/>
<path d="M53.5912 29.5444C48.7511 27.0027 43.1412 26.342 37.8427 27.6895C32.5442 29.037 27.9322 32.2974 24.8954 36.8423C21.8587 41.3872 20.6121 46.895 21.396 52.3041C22.1799 57.7132 24.9387 62.6408 29.1409 66.1373C30.0658 66.9027 31.2288 67.3216 32.4295 67.3217C33.4802 67.3205 34.505 66.9953 35.364 66.3905C36.2231 65.7857 36.8746 64.9307 37.2297 63.9421C40.8094 53.9352 46.7678 44.9478 54.5921 37.7533C55.1976 37.1988 55.6605 36.5065 55.9414 35.7351C56.2223 34.9637 56.313 34.136 56.2058 33.3221C56.1076 32.5281 55.8185 31.7697 55.3632 31.1118C54.9079 30.4539 54.2998 29.9161 53.5912 29.5444ZM35.2994 63.2376C35.141 63.6985 34.8719 64.1136 34.5158 64.4465C34.1597 64.7793 33.7274 65.0198 33.2568 65.1469C32.778 65.2801 32.274 65.2948 31.7883 65.1899C31.3025 65.0849 30.8496 64.8635 30.4686 64.5445C27.9188 62.4327 25.931 59.7232 24.6823 56.6574C23.4336 53.5916 22.9626 50.2647 23.3114 46.9729C23.6602 43.6812 24.8179 40.5267 26.6814 37.7905C28.5449 35.0543 31.0564 32.8213 33.9921 31.2903C36.8685 29.7909 40.0626 29.0031 43.3065 28.993C46.5659 28.9966 49.7747 29.7994 52.6516 31.3311C53.0706 31.5511 53.4299 31.8695 53.6985 32.259C53.9672 32.6485 54.1371 33.0974 54.1938 33.5671C54.2527 34.0608 54.1905 34.5614 54.0125 35.0257C53.8346 35.49 53.5463 35.904 53.1725 36.232C45.1156 43.6626 38.9825 52.9366 35.2994 63.258V63.2376Z" fill="black"/>
<path d="M116.729 2.06902C114.926 2.07023 113.132 2.32106 111.398 2.81436C108.494 3.62387 105.81 5.07938 103.548 7.07201C101.286 9.06463 99.5039 11.5428 98.3351 14.3211C98.1289 14.7874 98.0424 15.2977 98.0835 15.8058C98.1245 16.314 98.2917 16.8038 98.57 17.231C98.8312 17.643 99.1892 17.985 99.6129 18.227C100.037 18.469 100.513 18.6038 101.001 18.6196C111.942 19.0184 122.624 22.0629 132.13 27.4921C132.565 27.744 133.056 27.885 133.558 27.9028C134.06 27.9206 134.559 27.8147 135.011 27.5942C135.458 27.3809 135.847 27.0623 136.144 26.6657C136.441 26.2692 136.637 25.8065 136.716 25.3174C137.176 22.4362 137.003 19.4894 136.208 16.682C135.413 13.8746 134.016 11.2741 132.113 9.06133C130.211 6.84861 127.849 5.07682 125.193 3.86927C122.536 2.66171 119.647 2.04738 116.729 2.06902Z" fill="#FFA44B"/>
<path d="M136.747 12.422C134.451 7.77953 130.611 4.08018 125.885 1.95836C121.16 -0.163462 115.843 -0.575553 110.846 0.79276C107.643 1.68961 104.684 3.29881 102.19 5.50003C99.6962 7.70125 97.7325 10.4375 96.4457 13.5043C96.119 14.2785 95.9846 15.1203 96.054 15.9577C96.1233 16.7951 96.3944 17.6033 96.844 18.3133C97.2821 19.0062 97.8837 19.5809 98.5961 19.9868C99.3084 20.3927 100.11 20.6174 100.929 20.6412C111.541 21.0239 121.902 23.9776 131.119 29.2483C131.835 29.6561 132.639 29.8846 133.463 29.9143C134.287 29.9441 135.105 29.7741 135.849 29.419C136.592 29.0639 137.239 28.5341 137.733 27.875C138.227 27.2159 138.555 26.447 138.687 25.6339C139.42 21.1353 138.742 16.5203 136.747 12.422ZM136.675 25.3072C136.602 25.7941 136.413 26.2562 136.123 26.6543C135.833 27.0524 135.452 27.3749 135.011 27.5942C134.563 27.8061 134.072 27.9066 133.577 27.887C133.083 27.8674 132.6 27.7285 132.171 27.4819C122.665 22.0527 111.983 19.0082 101.042 18.6094C100.554 18.5936 100.077 18.4588 99.6538 18.2168C99.2301 17.9747 98.8721 17.6328 98.6108 17.2208C98.3326 16.7936 98.1654 16.3038 98.1243 15.7956C98.0833 15.2875 98.1698 14.7772 98.376 14.3109C99.541 11.5269 101.321 9.04266 103.584 7.04454C105.846 5.04641 108.531 3.58625 111.439 2.77352C113.173 2.28022 114.967 2.0294 116.77 2.02819C119.689 2.01153 122.577 2.63103 125.232 3.84359C127.887 5.05615 130.246 6.83262 132.145 9.04935C134.043 11.2661 135.436 13.8698 136.225 16.6793C137.015 19.4888 137.182 22.4366 136.716 25.3174L136.675 25.3072Z" fill="black"/>
<path d="M164.333 118.137L151.566 112.236L152.015 111.307C157.077 100.721 158.872 88.8692 157.173 77.2602C155.473 65.6513 150.357 54.8105 142.474 46.1184C134.591 37.4262 124.299 31.2759 112.908 28.4508C101.518 25.6256 89.5435 26.2533 78.5108 30.254C67.478 34.2547 57.8859 41.4474 50.9558 50.9161C44.0257 60.3848 40.0713 71.7012 39.596 83.4241C39.1207 95.1471 42.1461 106.746 48.2869 116.745C54.4277 126.743 63.4061 134.688 74.0788 139.568L75.0082 139.997L68.8803 153.199C68.3507 154.358 68.3003 155.68 68.7402 156.877C69.18 158.074 70.0745 159.049 71.2293 159.59L76.5197 162.03C77.68 162.56 79.0023 162.61 80.1994 162.17C81.3966 161.731 82.3718 160.836 82.9132 159.682L90.0624 144.316L90.8182 144.418C100.361 145.712 110.075 144.66 119.119 141.355C128 138.115 135.96 132.764 142.313 125.764L142.824 125.213L157.878 132.176C159.038 132.705 160.36 132.756 161.558 132.316C162.755 131.876 163.73 130.982 164.271 129.828L166.712 124.539C167.242 123.379 167.292 122.057 166.852 120.86C166.412 119.664 165.518 118.689 164.363 118.147L164.333 118.137ZM142.364 103.7L142.129 104.272C138.016 114.046 130.716 122.142 121.415 127.241C112.115 132.34 101.362 134.143 90.9065 132.356C80.4509 130.569 70.9079 125.297 63.8304 117.399C56.7528 109.5 52.5573 99.44 51.9264 88.8547V87.6601C51.6992 80.0527 53.3199 72.5036 56.6497 65.6593C59.9794 58.8151 64.9191 52.8797 71.0455 48.3615L72.5672 47.2588C75.7128 45.1632 79.0968 43.4495 82.6476 42.1538C90.4894 39.2837 98.9538 38.5512 107.172 40.0315C115.391 41.5117 123.067 45.1514 129.414 50.5771L130.66 51.7104C137.67 58.161 142.548 66.5936 144.645 75.8851C146.741 85.1766 145.956 94.8861 142.395 103.721L142.364 103.7Z" fill="#FF6C37"/>
<path d="M168.714 120.149C168.406 119.302 167.934 118.525 167.324 117.863C166.714 117.201 165.978 116.666 165.16 116.289L154.262 111.245C159.272 100.289 160.932 88.0966 159.034 76.2C157.136 64.3033 151.764 53.2325 143.594 44.3773C135.423 35.5222 124.818 29.2775 113.109 26.4273C101.401 23.5772 89.1111 24.2486 77.783 28.3573C66.4548 32.4661 56.5934 39.8289 49.4369 49.5214C42.2803 59.2139 38.1476 70.8041 37.5576 82.8367C36.9677 94.8692 39.9468 106.808 46.1209 117.154C52.295 127.499 61.389 135.791 72.2609 140.987L67.0113 152.341C66.255 153.993 66.1816 155.876 66.807 157.581C67.4324 159.287 68.7061 160.677 70.351 161.448L75.6414 163.889C76.4576 164.268 77.3411 164.481 78.2406 164.517C79.14 164.552 80.0375 164.408 80.8808 164.093C81.7281 163.787 82.5059 163.315 83.1688 162.705C83.8316 162.095 84.3662 161.359 84.7414 160.54L91.2267 146.542C100.865 147.721 110.645 146.595 119.762 143.254C128.714 139.993 136.764 134.657 143.253 127.684L156.959 134.014C158.609 134.769 160.492 134.843 162.196 134.217C163.901 133.592 165.289 132.319 166.059 130.675L168.51 125.386C168.889 124.57 169.102 123.687 169.137 122.788C169.172 121.889 169.028 120.992 168.714 120.149ZM166.671 124.529L164.23 129.818C163.689 130.972 162.714 131.866 161.517 132.306C160.32 132.746 158.997 132.695 157.837 132.166L142.783 125.203L142.272 125.754C135.92 132.754 127.959 138.105 119.078 141.345C110.034 144.65 100.32 145.702 90.7773 144.408L90.0216 144.306L82.8724 159.672C82.331 160.826 81.3557 161.72 80.1586 162.16C78.9615 162.6 77.6391 162.55 76.4789 162.02L71.1885 159.58C70.0337 159.039 69.1392 158.064 68.6994 156.867C68.2595 155.67 68.3098 154.348 68.8394 153.188L74.9673 139.987L74.0379 139.558C63.3673 134.671 54.3928 126.72 48.2569 116.717C42.1211 106.715 39.1016 95.1132 39.5828 83.3894C40.064 71.6657 44.0242 60.3504 50.9591 50.884C57.894 41.4176 67.49 34.2284 78.5253 30.2317C89.5606 26.2351 101.536 25.6118 112.927 28.4412C124.318 31.2706 134.608 37.4246 142.489 46.1199C150.37 54.8151 155.484 65.6582 157.181 77.2686C158.877 88.8789 157.079 100.731 152.016 111.317L151.566 112.246L164.333 118.147C165.487 118.689 166.382 119.664 166.822 120.86C167.262 122.057 167.211 123.379 166.682 124.539L166.671 124.529Z" fill="black"/>
<path d="M126.697 83.6271C123.551 75.0813 111.459 76.184 111.377 76.1942H111.255C110.622 76.1942 95.5367 75.8572 93.1876 68.4549C91.7986 64.0646 93.8719 60.0622 95.5367 56.846C95.8839 56.1926 96.2108 55.5596 96.4967 54.947C97.8244 52.1086 101.92 51.353 105.157 51.884C106.859 52.1903 108.541 52.5995 110.193 53.1091C114.36 54.2935 118.659 55.5187 122.142 53.538C123.98 52.517 125.543 51.6695 126.82 51.0774C119.564 45.3105 110.703 41.9275 101.449 41.3919C92.196 40.8564 83.0032 43.1944 75.1308 48.0858C76.0472 48.7297 76.7398 49.6434 77.1121 50.6996C77.7658 52.6395 77.2858 55.0082 75.6925 57.7445C74.855 59.174 74.518 60.2971 74.6712 60.9811C74.8244 61.6652 75.478 62.0021 76.4891 62.5228C77.5002 63.0436 78.7462 63.7175 79.0628 65.0958C79.3284 66.2904 78.8279 67.6994 77.4798 69.5474C73.5273 74.9587 59.9131 88.3135 53.9895 89.7429C54.6192 97.69 57.3528 105.326 61.9099 111.868C66.4669 118.41 72.6832 123.622 79.9207 126.969C82.932 128.362 86.086 129.423 89.3271 130.134C88.3057 128.909 87.55 126.785 87.8666 123.12C88.5202 115.503 86.6206 114.737 84.9456 114.063L84.6392 113.941C83.8643 113.586 83.1341 113.14 82.4638 112.614C80.699 111.316 78.8025 110.207 76.8057 109.305C67.9509 105.221 67.2564 101.137 68.2369 98.3603C69.9629 93.5411 78.1437 90.3556 81.1157 91.1213C83.3319 91.6931 85.2009 90.7027 87.6419 89.4571C89.1892 88.5941 90.8133 87.8763 92.4931 87.3129C95.6592 86.2919 96.5784 87.7214 97.4976 89.1814C98.7461 91.2816 100.706 92.8647 103.023 93.6432C107.762 95.5321 109.815 100.627 108.947 108.387C108.893 109.089 108.672 109.769 108.302 110.369C107.933 110.969 107.425 111.473 106.822 111.838C105.658 112.705 104.33 113.686 104.187 119.189C104.065 121.606 103.326 123.953 102.04 126.004C100.755 128.056 98.9663 129.745 96.844 130.91L96.4865 131.084C105.629 131.537 114.692 129.194 122.469 124.368C130.245 119.541 136.366 112.46 140.015 104.068C135.95 99.1873 129.209 90.4781 126.697 83.6271Z" fill="#AFE2E3"/>
<path d="M142.885 70.0069C140.311 63.0159 136.11 56.7375 130.629 51.69L129.383 50.5566C123.036 45.131 115.36 41.4913 107.142 40.011C98.9232 38.5308 90.4588 39.2632 82.617 42.1333C79.0661 43.429 75.6822 45.1428 72.5366 47.2383L71.0149 48.3411C64.8884 52.8593 59.9488 58.7947 56.619 65.6389C53.2893 72.4831 51.6686 80.0322 51.8958 87.6397V88.8343C52.491 99.4473 56.6698 109.545 63.7493 117.476C70.8287 125.407 80.39 130.703 90.8702 132.497C101.35 134.292 112.13 132.48 121.446 127.357C130.763 122.233 138.065 114.102 142.16 104.292L142.395 103.721C146.75 92.9354 146.925 80.914 142.885 70.0069ZM73.2209 49.311C74.1017 49.7136 74.788 50.4474 75.1308 51.353C75.5904 52.7007 75.1308 54.4977 73.8847 56.7133C72.7204 58.7043 72.3426 60.2358 72.7102 61.5325C72.9607 62.1661 73.3408 62.7405 73.8262 63.2187C74.3116 63.697 74.8916 64.0685 75.5291 64.3096C76.2644 64.7078 76.9589 65.0754 77.0713 65.5451C77.1427 65.8514 77.0713 66.6273 75.8355 68.3324C70.974 74.9894 58.3607 86.3634 53.9384 87.6805C53.7033 80.1858 55.3438 72.7509 58.711 66.0505C62.0783 59.3501 67.0657 53.5963 73.2209 49.311ZM91.5536 129.378C90.2565 128.511 89.6845 126.315 89.9399 123.252C90.665 114.829 88.367 113.185 85.7423 112.134L85.4665 112.021C84.836 111.715 84.2403 111.342 83.6894 110.908C81.8218 109.536 79.816 108.362 77.7045 107.406C73.6192 105.507 68.9518 102.506 70.1978 99.0137C71.5664 95.2054 78.7462 92.5711 80.6459 93.0612C83.6179 93.827 86.0486 92.5609 88.6224 91.2234C90.0626 90.4223 91.5738 89.7558 93.1366 89.2324C94.8218 88.7015 94.975 88.9465 95.8227 90.2534C97.2932 92.7166 99.5919 94.5767 102.308 95.5014C107.098 97.4107 107.486 103.414 106.955 108.121C106.932 108.545 106.799 108.956 106.57 109.314C106.341 109.672 106.023 109.965 105.648 110.163C103.85 111.511 102.349 113.104 102.185 119.107C102.083 121.161 101.455 123.155 100.363 124.897C99.2702 126.64 97.7494 128.074 95.9452 129.062C94.209 129.971 92.6055 130.083 91.5536 129.378ZM114.309 128.357C108.627 130.459 102.578 131.386 96.5274 131.084L96.8848 130.91C99.0072 129.745 100.796 128.056 102.081 126.004C103.367 123.953 104.106 121.606 104.228 119.189C104.371 113.686 105.699 112.705 106.863 111.838C107.466 111.473 107.973 110.969 108.343 110.369C108.712 109.769 108.933 109.089 108.987 108.387C109.856 100.627 107.803 95.5321 103.064 93.6432C100.747 92.8647 98.7869 91.2816 97.5385 89.1814C96.5886 87.7214 95.7001 86.343 92.534 87.3129C90.8541 87.8763 89.2301 88.5941 87.6828 89.4571C85.2724 90.7027 83.3728 91.6931 81.1565 91.1213C78.1845 90.3555 70.0038 93.5411 68.2777 98.3603C67.2564 101.097 67.9917 105.211 76.8466 109.305C78.8434 110.207 80.7398 111.316 82.5047 112.614C83.175 113.14 83.9052 113.586 84.6801 113.941L84.9865 114.063C86.6614 114.737 88.5611 115.503 87.9074 123.12C87.5908 126.785 88.3772 128.909 89.3679 130.134C86.1269 129.423 82.9729 128.362 79.9616 126.969C72.7241 123.622 66.5078 118.41 61.9508 111.868C57.3937 105.326 54.66 97.6899 54.0303 89.7429C59.9131 88.3135 73.5273 74.9587 77.5206 69.5474C78.8688 67.6994 79.3692 66.2904 79.1037 65.0958C78.7871 63.7174 77.5921 63.0538 76.53 62.5228C75.4678 61.9919 74.8959 61.604 74.712 60.9811C74.5282 60.3583 74.855 59.1739 75.7333 57.7445C77.3266 55.0082 77.776 52.6395 77.153 50.6996C76.7807 49.6434 76.088 48.7297 75.1716 48.0858C83.0354 43.2129 92.2121 40.8852 101.449 41.4206C110.685 41.956 119.531 45.3284 126.779 51.0774C125.502 51.6695 123.939 52.4966 122.101 53.538C118.618 55.5187 114.319 54.2935 110.152 53.1091C108.5 52.5995 106.818 52.1903 105.117 51.884C101.879 51.3735 97.7836 52.129 96.4559 54.947C96.1699 55.5596 95.8431 56.1926 95.4958 56.846C93.8311 60.0622 91.7578 64.0646 93.1468 68.4549C95.4958 75.8572 110.581 76.184 111.214 76.1942H111.336C111.459 76.1942 123.592 75.0813 126.656 83.6271C129.169 90.4781 135.909 99.1873 139.933 104.047C137.517 109.612 134.002 114.631 129.599 118.805C125.196 122.979 119.995 126.221 114.309 128.337V128.357ZM140.863 101.924C137.298 97.5741 130.915 89.2631 128.607 82.943C125.002 73.1515 112.327 74.0705 111.183 74.1726C107.18 74.1011 96.6601 72.8248 95.0873 67.8627C93.9536 64.279 95.7307 60.8382 97.3035 57.8058C97.661 57.1217 97.998 56.4683 98.3249 55.8353C99.1521 54.0485 102.298 53.5073 104.831 53.9055C106.449 54.1959 108.049 54.5847 109.621 55.0695C113.971 56.3151 118.894 57.7241 123.133 55.3145C124.878 54.2906 126.678 53.3635 128.525 52.5374C135.354 58.5439 140.194 66.4839 142.405 75.304C144.616 84.1242 144.092 93.4078 140.904 101.924H140.863Z" fill="black"/>
<path d="M75.8354 68.3223C70.9637 74.9895 58.3198 86.3635 53.9179 87.7214C53.6822 80.224 55.3234 72.7865 58.6926 66.0841C62.0617 59.3818 67.0521 53.6268 73.2106 49.3417C74.0933 49.7449 74.7827 50.478 75.1307 51.3837C75.5903 52.7314 75.1307 54.5284 73.8847 56.744C72.7204 58.735 72.3425 60.2665 72.7102 61.5632C72.9606 62.1968 73.3407 62.7712 73.8261 63.2494C74.3116 63.7277 74.8916 64.0992 75.529 64.3403C76.2644 64.7385 76.9588 65.1061 77.0712 65.5757C77.1427 65.8412 77.0712 66.6172 75.8354 68.3223ZM106.955 108.142C107.486 103.435 107.098 97.4312 102.308 95.5219C99.5918 94.5972 97.2931 92.7371 95.8226 90.2739C94.9749 88.9671 94.8013 88.722 93.1365 89.2529C91.5737 89.7764 90.0626 90.4428 88.6223 91.2439C86.0486 92.5814 83.6178 93.8475 80.6458 93.0817C80.4619 93.0378 80.2732 93.0171 80.0841 93.0204C77.6227 93.0204 71.454 95.5321 70.1977 99.0342C68.9415 102.536 73.5885 105.528 77.7044 107.427C79.8159 108.383 81.8218 109.556 83.6893 110.929C84.2402 111.362 84.836 111.735 85.4664 112.042L85.7422 112.154C88.367 113.175 90.6649 114.85 89.9398 123.273C89.6845 126.336 90.2564 128.511 91.5535 129.399C92.5748 130.103 94.2089 129.991 95.9451 129.093C97.7493 128.104 99.2701 126.671 100.363 124.928C101.455 123.185 102.082 121.192 102.185 119.138C102.349 113.134 103.85 111.542 105.648 110.194C106.025 109.994 106.344 109.7 106.573 109.341C106.802 108.981 106.934 108.568 106.955 108.142ZM140.883 101.913C144.066 93.3945 144.588 84.1104 142.379 75.2887C140.171 66.467 135.336 58.523 128.515 52.5068C126.666 53.3394 124.862 54.2698 123.112 55.2942C118.874 57.7038 113.92 56.3152 109.6 55.0492C108.029 54.5643 106.429 54.1756 104.81 53.8852C102.277 53.487 99.1316 54.0281 98.3044 55.8149C98.0082 56.4479 97.6712 57.1014 97.2831 57.7854C95.7102 60.8485 93.9332 64.2586 95.0668 67.8424C96.6396 72.8045 107.159 74.0807 111.163 74.1522C111.377 74.1522 112.01 74.091 112.919 74.091C116.79 74.091 125.665 74.9894 128.586 82.9227C130.925 89.2427 137.319 97.5639 140.883 101.913Z" fill="#70D44B"/>
</svg>
