<svg width="144" height="150" viewBox="0 0 144 150" fill="none" xmlns="http://www.w3.org/2000/svg">
<path d="M32.0322 30.6163C31.9782 30.189 31.8135 29.7806 31.5526 29.4268C31.2917 29.0731 30.9425 28.7847 30.5355 28.587C27.7443 27.1876 24.6302 26.4525 21.4662 26.446C18.3173 26.4585 15.2174 27.1799 12.4266 28.5498C9.57942 29.9472 7.14403 31.9838 5.33703 34.4784C3.53004 36.973 2.40743 39.8483 2.06902 42.8487C1.73062 45.849 2.18691 48.8814 3.39733 51.6761C4.60775 54.4709 6.53477 56.9414 9.00706 58.8681C9.37685 59.1589 9.8164 59.3608 10.2878 59.4565C10.7592 59.5522 11.2483 59.5387 11.713 59.4173C12.1678 59.2948 12.585 59.0721 12.9298 58.7677C13.2746 58.4633 13.537 58.0861 13.6953 57.6673C17.2985 48.2581 23.2817 39.8119 31.1302 33.0552C31.4745 32.7441 31.7356 32.361 31.8923 31.9372C32.0491 31.5134 32.097 31.0608 32.0322 30.6163V30.6163Z" fill="black"/>
<path d="M31.4672 26.9394C26.7699 24.6222 21.3256 24.0198 16.1834 25.2483C11.0413 26.4769 6.56534 29.4494 3.61817 33.593C0.671005 37.7367 -0.538775 42.7582 0.221984 47.6897C0.982744 52.6213 3.6602 57.1139 7.73834 60.3017C8.63936 60.9928 9.76661 61.3709 10.9299 61.3722C11.9496 61.3711 12.9441 61.0746 13.7778 60.5232C14.6115 59.9718 15.2438 59.1923 15.5885 58.291C19.0629 49.1704 24.8455 40.9796 32.4386 34.4236C33.0277 33.9171 33.4778 33.2844 33.7505 32.5794C34.0232 31.8743 34.1104 31.1178 34.0046 30.3743C33.9103 29.6514 33.63 28.9608 33.1879 28.3624C32.7458 27.7639 32.1553 27.2755 31.4672 26.9394V26.9394ZM13.7152 57.658C13.5568 58.0768 13.2944 58.4541 12.9496 58.7584C12.6048 59.0628 12.1877 59.2855 11.7328 59.408C11.2682 59.5294 10.779 59.5429 10.3076 59.4472C9.83622 59.3515 9.39667 59.1496 9.02687 58.8588C6.55459 56.9322 4.62757 54.4616 3.41715 51.6668C2.20673 48.8721 1.75044 45.8397 2.08884 42.8394C2.42725 39.8391 3.54986 36.9638 5.35686 34.4692C7.16386 31.9746 9.59924 29.938 12.4465 28.5405C15.2372 27.1707 18.3371 26.4492 21.486 26.4368C24.65 26.4432 27.7641 27.1784 30.5553 28.5777C30.9623 28.7755 31.3115 29.0638 31.5724 29.4176C31.8333 29.7713 31.998 30.1797 32.052 30.607C32.1058 31.0583 32.0438 31.5152 31.8714 31.9394C31.699 32.3636 31.4211 32.743 31.0608 33.0459C23.2434 39.8145 17.2913 48.2633 13.7152 57.6673V57.658Z" fill="black"/>
<path d="M92.742 1.84325C90.9926 1.84108 89.2514 2.06664 87.568 2.51347C84.7466 3.25445 82.1404 4.5857 79.9449 6.40741C77.7493 8.22912 76.0215 10.494 74.8908 13.0323C74.6907 13.4574 74.6068 13.9226 74.6466 14.3859C74.6864 14.8492 74.8487 15.2958 75.1188 15.6852C75.3713 16.0639 75.7198 16.3777 76.1333 16.5987C76.5467 16.8196 77.0121 16.9408 77.4877 16.9512C88.1044 17.3148 98.4684 20.0939 107.689 25.0497C108.106 25.2737 108.575 25.3992 109.056 25.4155C109.536 25.4319 110.014 25.3386 110.448 25.1437C110.881 24.9488 111.258 24.658 111.546 24.2963C111.834 23.9346 112.024 23.5128 112.1 23.067V23.067C112.744 19.3642 112.159 15.5651 110.425 12.1852C108.803 9.07992 106.286 6.46439 103.16 4.6361C100.034 2.80781 96.4246 1.84017 92.742 1.84325Z" fill="black"/>
<path d="M112.169 11.3288C109.944 7.09368 106.218 3.71871 101.63 1.78382C97.0432 -0.15106 91.8817 -0.525029 87.0328 0.726173C83.9239 1.54385 81.052 3.01098 78.6319 5.01786C76.2118 7.02474 74.306 9.51944 73.0572 12.3155C72.7402 13.0197 72.6097 13.7857 72.6771 14.5477C72.7444 15.3097 73.0075 16.045 73.4437 16.6905C73.8689 17.3223 74.4528 17.8462 75.1441 18.2163C75.8354 18.5864 76.613 18.7913 77.4084 18.8129C87.7066 19.1663 97.7602 21.8589 106.708 26.6601C107.456 27.0623 108.304 27.274 109.166 27.2745C109.902 27.2741 110.63 27.1215 111.297 26.8277C112.02 26.5029 112.649 26.0181 113.129 25.415C113.609 24.8118 113.926 24.1083 114.052 23.3649C114.763 19.2664 114.105 15.0619 112.169 11.3288V11.3288ZM112.1 23.067C112.024 23.5128 111.834 23.9346 111.546 24.2963C111.258 24.658 110.881 24.9488 110.448 25.1437C110.014 25.3386 109.536 25.4319 109.056 25.4156C108.576 25.3992 108.106 25.2737 107.689 25.0497C98.4685 20.0939 88.1045 17.3148 77.4877 16.9512C77.0122 16.9407 76.5468 16.8196 76.1333 16.5987C75.7199 16.3777 75.3713 16.0638 75.1188 15.6852C74.8487 15.2957 74.6864 14.8491 74.6466 14.3859C74.6068 13.9226 74.6908 13.4573 74.8908 13.0322C76.0215 10.494 77.7494 8.2291 79.9449 6.40738C82.1404 4.58567 84.7466 3.25441 87.568 2.51344C89.2514 2.0666 90.9927 1.84105 92.742 1.84321C96.4246 1.84013 100.034 2.80778 103.16 4.63607C106.286 6.46436 108.803 9.07989 110.425 12.1851C112.159 15.5651 112.744 19.3642 112.1 23.067V23.067Z" fill="black"/>
<path d="M138.941 107.711L126.551 102.321L126.987 101.474C131.899 91.8229 133.641 81.0174 131.992 70.4333C130.343 59.8493 125.377 49.9656 117.727 42.0409C110.077 34.1161 100.089 28.5089 89.0342 25.9331C77.9795 23.3574 66.3587 23.9297 55.6515 27.5772C44.9443 31.2247 35.6352 37.7823 28.9096 46.4151C22.184 55.0478 18.3462 65.365 17.885 76.053C17.4237 86.7409 20.3598 97.316 26.3195 106.432C32.2791 115.547 40.9925 122.791 51.3503 127.24L52.2522 127.631L46.3052 139.677C45.7965 140.735 45.7504 141.938 46.1767 143.028C46.6031 144.118 47.4678 145.007 48.5849 145.504L53.7192 147.729C54.8452 148.211 56.1285 148.257 57.2903 147.856C58.4522 147.455 59.3986 146.64 59.924 145.588L66.8623 131.569L67.5957 131.662C76.8564 132.852 86.2865 131.893 95.0614 128.869C103.682 125.918 111.408 121.039 117.571 114.655L118.067 114.152L132.677 120.501C133.803 120.983 135.086 121.029 136.248 120.628C137.41 120.228 138.356 119.412 138.881 118.36L141.25 113.547C141.767 112.49 141.817 111.284 141.39 110.192C140.963 109.1 140.093 108.211 138.971 107.72L138.941 107.711ZM117.621 94.5482L117.393 95.0695C113.404 103.978 106.324 111.358 97.3036 116.009C88.283 120.66 77.8525 122.308 67.708 120.686C57.5635 119.063 48.3017 114.266 41.4286 107.073C34.5555 99.8805 30.4753 90.7158 29.8516 81.0693V79.9801C29.6328 73.0446 31.2064 66.1625 34.4378 59.9228C37.6691 53.6831 42.4621 48.2715 48.4065 44.1511L49.8833 43.1551C58.1583 37.9112 68.037 35.3627 78.0032 35.9008C87.9693 36.4389 97.472 40.0339 105.052 46.1339L106.262 47.1671C113.076 53.0533 117.817 60.7512 119.852 69.2336C121.887 77.716 121.119 86.5794 117.65 94.6413L117.621 94.5482Z" fill="black"/>
<path d="M143.223 109.535C142.923 108.764 142.463 108.057 141.872 107.453C141.28 106.849 140.567 106.361 139.774 106.016L129.198 101.427C132.447 94.8208 134.274 87.6767 134.575 80.4052C134.876 73.1336 133.645 65.8778 130.952 59.0543C127.599 50.4776 122.053 42.8064 114.802 36.7158C107.55 30.6252 98.816 26.3019 89.3673 24.1266C79.9187 21.9513 70.0456 21.9906 60.617 24.241C51.1883 26.4914 42.4932 30.8839 35.297 37.032C28.1007 43.18 22.624 50.8951 19.3488 59.4982C16.0736 68.1012 15.1004 77.3285 16.5147 86.3678C17.9291 95.4071 21.6877 103.981 27.4598 111.336C33.2319 118.69 40.8404 124.6 49.6157 128.543L44.521 138.904C43.7875 140.408 43.7165 142.124 44.3236 143.678C44.9306 145.231 46.1665 146.496 47.7622 147.198L52.8965 149.423C53.765 149.805 54.7127 150.002 55.6718 150C56.9444 150.004 58.1914 149.665 59.2648 149.023C60.3383 148.381 61.1931 147.463 61.7279 146.379L68.0219 133.607C77.3748 134.691 86.868 133.667 95.7155 130.619C104.404 127.644 112.216 122.776 118.513 116.414L131.814 122.195C133.417 122.886 135.246 122.952 136.901 122.38C138.556 121.808 139.902 120.644 140.646 119.142L143.025 114.329C143.393 113.582 143.601 112.774 143.635 111.951C143.669 111.128 143.529 110.307 143.223 109.535V109.535ZM141.24 113.538L138.872 118.35C138.346 119.403 137.4 120.218 136.238 120.619C135.076 121.02 133.793 120.974 132.667 120.491L118.057 114.143L117.561 114.646C111.398 121.03 103.672 125.909 95.0514 128.86C86.2766 131.884 76.8465 132.843 67.5858 131.653L66.8523 131.559L59.9141 145.578C59.3887 146.631 58.4422 147.446 57.2804 147.847C56.1186 148.248 54.8353 148.202 53.7093 147.719L48.575 145.495C47.4579 144.997 46.5932 144.108 46.1668 143.019C45.7405 141.929 45.7866 140.725 46.2953 139.667L52.2423 127.622L51.3404 127.231C40.9826 122.782 32.2692 115.538 26.3095 106.422C20.3499 97.3067 17.4138 86.7316 17.8751 76.0437C18.3363 65.3557 22.1741 55.0385 28.8997 46.4058C35.6253 37.773 44.9344 31.2154 55.6416 27.5679C66.3487 23.9204 77.9696 23.3481 89.0242 25.9238C100.079 28.4996 110.067 34.1068 117.717 42.0316C125.368 49.9563 130.333 59.84 131.982 70.424C133.631 81.0081 131.889 91.8136 126.977 101.465L126.541 102.312L138.931 107.701C140.054 108.193 140.923 109.082 141.35 110.173C141.778 111.265 141.727 112.471 141.211 113.529L141.24 113.538Z" fill="black"/>
<path d="M102.416 76.2381C99.3631 68.4467 87.6275 69.452 87.5482 69.4613H87.4293C86.8147 69.4613 72.175 69.1542 69.8953 62.3961C68.5473 58.3933 70.5594 54.7536 72.175 51.8214C72.512 51.2163 72.8292 50.6392 73.1067 50.09C74.3952 47.4929 78.3699 46.8134 81.5119 47.2974C83.1643 47.5723 84.7964 47.9454 86.3984 48.4145C90.4424 49.4943 94.6153 50.6113 97.9952 48.8054C99.7794 47.8497 101.293 47.0988 102.535 46.5527C96.6754 42.1861 89.7201 39.3057 82.3354 38.1876C74.9507 37.0694 67.3839 37.751 60.3601 40.167C57.5746 41.1346 54.8984 42.3601 52.3712 43.8253C53.2608 44.4161 53.9328 45.2522 54.2941 46.2176C54.9285 47.9769 54.4626 50.1365 52.9164 52.6406C52.1036 53.9438 51.7765 54.9584 51.9252 55.5821C52.0739 56.2058 52.7082 56.513 53.6895 56.9877C54.6707 57.4625 55.88 58.0862 56.1872 59.3335C56.445 60.4226 55.9593 61.7165 54.6509 63.3921C50.8151 68.335 37.6026 80.5107 31.8538 81.8047C32.6105 90.5849 36.3525 98.904 42.5275 105.535C48.7025 112.165 56.9836 116.756 66.1486 118.63C65.1574 117.513 64.424 115.586 64.7312 112.244C65.3656 105.3 63.522 104.602 61.8964 103.987L61.5991 103.875C60.849 103.545 60.1408 103.135 59.4879 102.656C57.7727 101.476 55.9326 100.466 53.9967 99.6401C45.4032 95.9166 44.7391 92.1931 45.6807 89.6705C47.3558 85.2768 55.2952 82.3632 58.1795 83.0706C60.3304 83.5919 62.1442 82.689 64.5132 81.544C66.0152 80.7604 67.5913 80.1091 69.2213 79.5985C72.2939 78.6676 73.186 79.9615 74.0781 81.302C75.2897 83.2168 77.1923 84.6601 79.4403 85.3699C84.0394 87.092 86.0317 91.737 85.1892 98.8023C85.1399 99.4437 84.9269 100.064 84.568 100.612C84.2091 101.16 83.715 101.618 83.1275 101.949C81.9976 102.74 80.7091 103.643 80.5703 108.651C80.4514 110.855 79.7342 112.994 78.4869 114.864C77.2395 116.735 75.5034 118.275 73.4437 119.337L73.0968 119.495C81.9759 119.93 90.7843 117.806 98.3417 113.407C105.899 109.008 111.844 102.545 115.381 94.8833C111.416 90.4245 104.854 82.4842 102.416 76.2381Z" fill="white"/>
<path d="M118.126 63.8203C115.628 57.4466 111.551 51.7225 106.232 47.1206L105.023 46.0873C97.4422 39.9873 87.9396 36.3923 77.9734 35.8542C68.0073 35.3161 58.1285 37.8646 49.8536 43.1085L48.3767 44.1046C42.4324 48.225 37.6394 53.6366 34.408 59.8763C31.1766 66.116 29.603 72.9981 29.8218 79.9336V81.0227C30.4341 90.6735 34.5059 99.8457 41.3746 107.047C48.2433 114.248 57.5046 119.054 67.6517 120.683C77.7988 122.313 88.2343 120.669 97.2603 116.02C106.286 111.371 113.371 103.99 117.363 95.0788L117.591 94.5575C121.835 84.7312 122.026 73.7717 118.126 63.8203V63.8203ZM50.5177 44.9517C51.3687 45.3237 52.0331 45.991 52.3712 46.8134C52.8172 48.0421 52.3712 49.6898 51.162 51.7005C50.032 53.5622 49.6653 54.9212 50.0221 56.0941C50.2635 56.6739 50.6316 57.1996 51.1029 57.6373C51.5741 58.0751 52.1379 58.4151 52.7578 58.6354C53.4714 58.9891 54.1454 59.3242 54.2544 59.7524C54.3635 60.1806 54.2544 60.7485 53.0551 62.303C48.3371 68.3629 36.1059 78.7421 31.8042 79.9429C31.5752 73.1084 33.1669 66.3284 36.4348 60.218C39.7027 54.1075 44.5434 48.8601 50.5177 44.9517V44.9517ZM68.3094 117.95C67.0506 117.159 66.4955 115.158 66.7433 112.365C67.4471 104.685 65.2169 103.187 62.6696 102.219L62.402 102.116C61.792 101.837 61.214 101.5 60.6773 101.111C58.8672 99.8561 56.9202 98.7858 54.869 97.918C50.9043 96.1772 46.3746 93.4405 47.5838 90.2569C48.912 86.7941 55.88 84.3832 57.7236 84.83C60.6079 85.5374 62.9669 84.3832 65.4647 83.1637C66.8586 82.4136 68.3256 81.7902 69.8457 81.302C71.4812 80.8272 71.6298 81.0413 72.4525 82.2329C73.8812 84.4793 76.1111 86.1778 78.7465 87.0268C83.3951 88.7675 83.7718 94.241 83.2564 98.523C83.2331 98.9096 83.1041 99.284 82.8819 99.6101C82.6597 99.9362 82.3517 100.203 81.9877 100.385C80.2432 101.604 78.7862 103.056 78.6276 108.53C78.5275 110.404 77.9185 112.222 76.8584 113.813C75.7983 115.403 74.3225 116.712 72.5715 117.615C70.8865 118.499 69.3303 118.592 68.3094 117.95ZM90.3929 117.019C84.8782 118.932 79.0077 119.774 73.1364 119.495L73.4833 119.337C75.5431 118.275 77.2791 116.735 78.5265 114.864C79.7739 112.994 80.4911 110.855 80.6099 108.651C80.7487 103.643 82.0372 102.74 83.1672 101.949C83.7547 101.618 84.2488 101.16 84.6076 100.612C84.9665 100.065 85.1796 99.4437 85.2288 98.8023C86.0713 91.737 84.0791 87.092 79.48 85.3699C77.2319 84.6601 75.3293 83.2168 74.1177 81.302C73.1959 79.9615 72.3336 78.7049 69.2609 79.5985C67.631 80.1091 66.0549 80.7604 64.5528 81.544C62.2136 82.689 60.37 83.5919 58.2192 83.0706C55.3348 82.3632 47.3955 85.2768 45.7204 89.6705C44.7292 92.1559 45.4429 95.9073 54.0364 99.6401C55.9723 100.466 57.8124 101.476 59.5275 102.656C60.1804 103.135 60.8886 103.545 61.6387 103.875L61.9361 103.987C63.5616 104.602 65.4052 105.3 64.7709 112.244C64.4636 115.586 65.2268 117.513 66.1883 118.63C57.0139 116.774 48.7217 112.188 42.5433 105.554C36.3649 98.9201 32.63 90.5911 31.8934 81.8047C37.6026 80.5108 50.815 68.335 54.6906 63.3921C55.9989 61.7166 56.4846 60.4227 56.2269 59.3335C55.9196 58.0862 54.7599 57.4718 53.7291 56.9878C52.6983 56.5037 52.1432 56.1593 51.9648 55.5821C51.7864 55.005 52.1036 53.9438 52.956 52.6406C54.5022 50.1366 54.9384 47.9863 54.3337 46.2176C53.9725 45.2522 53.3005 44.4162 52.4109 43.8253C54.9381 42.3601 57.6142 41.1346 60.3998 40.167C67.4119 37.7634 74.9629 37.0874 82.3322 38.2037C89.7015 39.32 96.6433 42.1912 102.495 46.5434C101.26 47.0833 99.7463 47.8342 97.9556 48.7961C94.5757 50.602 90.4028 49.485 86.3588 48.4052C84.7568 47.9361 83.1246 47.563 81.4723 47.2881C78.3302 46.8227 74.3556 47.5022 73.0671 50.0807C72.7895 50.6299 72.4723 51.2071 72.1353 51.8122C70.5197 54.7444 68.5076 58.3841 69.8556 62.3868C72.1354 69.1449 86.7751 69.4427 87.3896 69.452H87.5086C87.6275 69.452 99.4027 68.4374 102.376 76.2288C104.815 82.4749 111.356 90.4152 115.262 94.8461C112.917 99.9217 109.507 104.501 105.233 108.309C100.96 112.118 95.9127 115.077 90.3929 117.01V117.019ZM116.164 92.9192C112.704 88.9444 106.509 81.3765 104.269 75.6144C100.771 66.6781 88.47 67.5252 87.3599 67.6182C83.4744 67.5438 73.2653 66.3802 71.7389 61.8562C70.6387 58.5888 72.3633 55.4611 73.8897 52.6965C74.2366 52.0728 74.5637 51.4677 74.8809 50.8906C75.6937 49.2616 78.7366 48.7682 81.1947 49.1312C82.7649 49.4038 84.317 49.7612 85.8434 50.2017C90.0658 51.3281 94.8532 52.6127 98.9567 50.4158C100.653 49.4863 102.4 48.6411 104.19 47.8839C110.818 53.3616 115.516 60.6021 117.662 68.6452C119.807 76.6883 119.299 85.1539 116.203 92.9192H116.164Z" fill="white"/>
<path d="M53.0551 62.2937C48.3272 68.363 36.0564 78.7421 31.7844 79.9337C31.5601 73.0989 33.1548 66.3195 36.4242 60.2095C39.6936 54.0996 44.5342 48.8521 50.5078 44.9424C51.3619 45.3132 52.0298 45.9805 52.3712 46.8041C52.8172 48.0329 52.3712 49.6805 51.162 51.6912C50.032 53.5529 49.6653 54.912 50.0221 56.0849C50.2634 56.6646 50.6316 57.1903 51.1029 57.6281C51.5741 58.0658 52.1379 58.4058 52.7578 58.6261C53.4714 58.9799 54.1454 59.315 54.2544 59.7432C54.3635 60.1714 54.2544 60.7392 53.0551 62.2937ZM83.2564 98.5975C83.7718 94.3155 83.3951 88.8421 78.7465 87.1013C76.1111 86.2523 73.8812 84.5538 72.4525 82.3073C71.6298 81.1158 71.4613 80.9017 69.8457 81.3765C68.3256 81.8647 66.8586 82.4881 65.4647 83.2382C62.9669 84.4577 60.6079 85.6119 57.7236 84.9045C57.5451 84.8644 57.3619 84.8456 57.1784 84.8486C54.7897 84.8486 48.8029 87.1479 47.5838 90.3314C46.3646 93.515 50.8745 96.2517 54.869 97.9925C56.9202 98.8603 58.8672 99.9306 60.6773 101.185C61.214 101.575 61.7919 101.912 62.4019 102.191L62.6696 102.293C65.2169 103.224 67.447 104.76 66.7433 112.44C66.4955 115.232 67.0506 117.206 68.3094 118.025C69.3006 118.667 70.8864 118.574 72.5714 117.755C74.3225 116.852 75.7983 115.543 76.8584 113.952C77.9184 112.362 78.5275 110.543 78.6276 108.669C78.7862 103.196 80.2432 101.744 81.9877 100.524C82.363 100.336 82.6782 100.058 82.9012 99.7177C83.1241 99.3774 83.2467 98.9876 83.2564 98.5882V98.5975ZM116.183 92.9285C119.272 85.1617 119.778 76.6973 117.635 68.6545C115.492 60.6116 110.8 53.3689 104.18 47.8839C102.385 48.6385 100.635 49.4837 98.9369 50.4159C94.8334 52.6127 90.0162 51.3467 85.8235 50.2018C84.2972 49.7613 82.7451 49.4038 81.1749 49.1313C78.7168 48.7682 75.6738 49.2616 74.8611 50.8906C74.5736 51.4677 74.2465 52.0728 73.8699 52.6965C72.3435 55.4891 70.6188 58.5889 71.719 61.8562C73.2455 66.3802 83.4546 67.5438 87.34 67.6183C87.5482 67.6183 88.1627 67.5531 89.0449 67.5531C92.8014 67.5531 101.415 68.3723 104.25 75.6144C106.529 81.3672 112.724 88.9444 116.183 92.9192V92.9285Z" fill="black"/>
</svg>
