<svg width="144" height="150" viewBox="0 0 144 150" fill="none" xmlns="http://www.w3.org/2000/svg">
<path d="M32.0816 30.6163C32.0278 30.1901 31.8644 29.7827 31.6054 29.4291C31.3465 29.0756 30.9999 28.7865 30.5954 28.587C27.8014 27.1887 24.6856 26.4537 21.5199 26.446C18.3722 26.4585 15.2736 27.1799 12.4839 28.5498C9.63787 29.9473 7.20346 31.9839 5.39719 34.4785C3.59092 36.9731 2.46876 39.8484 2.13049 42.8487C1.79222 45.849 2.24833 48.8814 3.45826 51.6762C4.66819 54.4709 6.59444 56.9415 9.06573 58.8681C9.43302 59.1589 9.86987 59.3617 10.3388 59.4592C10.8078 59.5567 11.2949 59.546 11.7585 59.4279C12.2221 59.3099 12.6483 59.0881 13.0006 58.7815C13.353 58.4748 13.6211 58.0925 13.7819 57.6673C17.359 48.2626 23.3163 39.816 31.1404 33.0552C31.4916 32.7477 31.76 32.3663 31.9237 31.9423C32.0873 31.5183 32.1414 31.0638 32.0816 30.6163V30.6163Z" fill="#B6B6B6"/>
<path d="M31.497 26.9394C26.8008 24.6048 21.3497 23.9899 16.1987 25.2138C11.0477 26.4378 6.56308 29.4134 3.61274 33.5649C0.662402 37.7164 -0.543879 42.7487 0.227342 47.6876C0.998564 52.6266 3.69245 57.1212 7.78767 60.3016C8.40116 60.7874 9.13104 61.1259 9.91457 61.2881C10.6981 61.4502 11.5118 61.4312 12.2858 61.2325C13.0529 61.0391 13.758 60.6726 14.3399 60.1648C14.9219 59.657 15.3629 59.0233 15.6247 58.3189C19.1013 49.2 24.8811 41.0099 32.468 34.4515C33.0569 33.945 33.5068 33.3123 33.7794 32.6073C34.052 31.9022 34.1391 31.1457 34.0334 30.4022C33.9438 29.6743 33.6657 28.9781 33.2236 28.3745C32.7814 27.7708 32.1886 27.2781 31.497 26.9394V26.9394ZM13.7621 57.658C13.6013 58.0832 13.3332 58.4655 12.9809 58.7721C12.6285 59.0787 12.2022 59.3005 11.7387 59.4186C11.2751 59.5366 10.788 59.5473 10.319 59.4499C9.85006 59.3524 9.41324 59.1496 9.04595 58.8588C6.57466 56.9321 4.64842 54.4616 3.43849 51.6668C2.22856 48.872 1.77246 45.8397 2.11073 42.8393C2.44899 39.839 3.57115 36.9637 5.37742 34.4691C7.18369 31.9745 9.61809 29.938 12.4642 28.5405C15.2538 27.1706 18.3524 26.4492 21.5001 26.4367C24.6658 26.4443 27.7815 27.1794 30.5756 28.5777C30.98 28.7772 31.3267 29.0662 31.5856 29.4198C31.8446 29.7734 32.008 30.1808 32.0618 30.607C32.1216 31.0545 32.0675 31.509 31.9038 31.933C31.7402 32.357 31.4717 32.7384 31.1205 33.0459C23.3024 39.8114 17.352 48.2611 13.7819 57.6673L13.7621 57.658Z" fill="black"/>
<path d="M92.7669 1.84325C91.0182 1.84108 89.2777 2.06664 87.595 2.51347C84.7747 3.25445 82.1696 4.5857 79.9749 6.40741C77.7803 8.22913 76.0531 10.494 74.9229 13.0323C74.7229 13.4574 74.639 13.9226 74.6788 14.3859C74.7186 14.8492 74.8809 15.2958 75.1508 15.6852C75.4032 16.0639 75.7517 16.3777 76.1649 16.5987C76.5782 16.8196 77.0434 16.9408 77.5188 16.9512C88.1342 17.3159 98.4969 20.0949 107.718 25.0498C108.135 25.2717 108.603 25.3956 109.082 25.4109C109.561 25.4263 110.036 25.3325 110.468 25.1378C110.901 24.943 111.276 24.653 111.563 24.2925C111.85 23.9319 112.04 23.5115 112.117 23.067C112.748 19.3604 112.15 15.5611 110.403 12.1852C108.785 9.0856 106.275 6.47384 103.158 4.64595C100.041 2.81805 96.4413 1.84713 92.7669 1.84325Z" fill="#B6B6B6"/>
<path d="M112.186 11.3288C109.962 7.09368 106.237 3.71871 101.652 1.78383C97.0665 -0.15106 91.907 -0.525029 87.06 0.726174C83.956 1.54632 81.0892 3.01456 78.6737 5.02131C76.2581 7.02806 74.3562 9.52149 73.1099 12.3155C72.7928 13.0201 72.6631 13.7868 72.7322 14.5491C72.8013 15.3113 73.0669 16.0464 73.5062 16.6906C73.9305 17.3228 74.514 17.8472 75.2052 18.2174C75.8964 18.5875 76.674 18.7921 77.4693 18.8129C87.76 19.1678 97.8058 21.8604 106.747 26.6601C107.495 27.0623 108.342 27.2741 109.204 27.2745C109.94 27.2741 110.668 27.1215 111.334 26.8277C112.057 26.5029 112.686 26.0181 113.165 25.415C113.645 24.8118 113.962 24.1083 114.089 23.3649C114.793 19.2645 114.128 15.0599 112.186 11.3288V11.3288ZM112.117 23.067C112.04 23.5115 111.85 23.9319 111.563 24.2925C111.276 24.653 110.901 24.943 110.469 25.1378C110.036 25.3325 109.561 25.4263 109.082 25.4109C108.603 25.3956 108.135 25.2717 107.718 25.0498C98.497 20.0949 88.1342 17.3158 77.5188 16.9512C77.0435 16.9407 76.5783 16.8196 76.165 16.5987C75.7517 16.3777 75.4032 16.0638 75.1509 15.6852C74.8809 15.2957 74.7187 14.8491 74.6789 14.3859C74.6391 13.9226 74.723 13.4573 74.923 13.0322C76.0532 10.494 77.7804 8.2291 79.975 6.40738C82.1696 4.58567 84.7748 3.25441 87.5951 2.51344C89.2778 2.0666 91.0183 1.84105 92.7669 1.84321C96.4414 1.84709 100.041 2.81802 103.158 4.64591C106.275 6.47381 108.785 9.08558 110.403 12.1852C112.15 15.5611 112.748 19.3604 112.117 23.067V23.067Z" fill="black"/>
<path d="M138.947 107.711L126.612 102.321L127.048 101.474C131.955 91.8245 133.694 81.0214 132.045 70.4402C130.395 59.8589 125.432 49.9782 117.786 42.056C110.14 34.1338 100.158 28.5286 89.1101 25.9539C78.0625 23.3792 66.4493 23.9516 55.7491 27.5982C45.0488 31.2448 35.7456 37.8006 29.024 46.431C22.3024 55.0613 18.4664 65.3758 18.0045 76.0611C17.5426 86.7464 20.4756 97.3191 26.4301 106.433C32.3846 115.547 41.0913 122.79 51.4415 127.24L52.3431 127.631L46.3588 139.714C45.845 140.771 45.7962 141.977 46.2229 143.068C46.6496 144.159 47.5173 145.048 48.6376 145.541L53.7599 147.766C54.8851 148.251 56.1689 148.298 57.331 147.897C58.4931 147.496 59.439 146.679 59.9622 145.625L66.8977 131.606L67.6209 131.699C76.8778 132.889 86.3042 131.93 95.0755 128.906C103.695 125.954 111.421 121.075 117.586 114.692L118.071 114.189L132.676 120.538C133.801 121.021 135.084 121.067 136.245 120.666C137.407 120.265 138.353 119.45 138.878 118.397L141.246 113.584C141.762 112.527 141.813 111.321 141.386 110.229C140.959 109.137 140.089 108.249 138.967 107.757L138.947 107.711ZM117.695 94.5482L117.457 95.0695C115.104 100.386 111.631 105.2 107.248 109.223C102.864 113.247 97.6606 116.397 91.949 118.483C86.2375 120.57 80.136 121.55 74.011 121.366C67.886 121.182 61.8639 119.836 56.3062 117.41C48.8209 114.159 42.4131 109.064 37.7639 102.665C33.1146 96.2659 30.3977 88.8029 29.9019 81.0693V79.9801C29.6852 73.0439 31.26 66.1616 34.4918 59.922C37.7236 53.6823 42.516 48.2711 48.4592 44.1511L49.9256 43.1551C58.1972 37.9112 68.072 35.3627 78.0341 35.9008C87.9962 36.4389 97.495 40.0339 105.072 46.1339L106.281 47.1671C113.098 53.0499 117.841 60.7474 119.877 69.2307C121.913 77.7141 121.145 86.5792 117.675 94.6413L117.695 94.5482Z" fill="#969696"/>
<path d="M143.227 109.535C142.929 108.764 142.47 108.055 141.878 107.451C141.287 106.847 140.573 106.36 139.779 106.017L129.208 101.427C134.069 91.4378 135.68 80.3217 133.839 69.4748C131.998 58.6279 126.787 48.5337 118.861 40.4599C110.934 32.386 100.645 26.6923 89.2865 24.0938C77.9274 21.4953 66.0044 22.1078 55.0146 25.8544C44.0248 29.6009 34.4581 36.3145 27.5158 45.1522C20.5736 53.9899 16.5652 64.5576 15.9939 75.5284C15.4227 86.4992 18.3142 97.3841 24.3052 106.816C30.2963 116.248 39.1199 123.807 49.668 128.543L44.5654 138.904C43.8302 140.409 43.7593 142.127 44.3683 143.681C44.9773 145.235 46.2166 146.5 47.8152 147.198L52.9376 149.423C53.8057 149.805 54.753 150.002 55.7117 150C56.9854 150.006 58.234 149.667 59.309 149.025C60.384 148.383 61.24 147.465 61.7753 146.379L68.0569 133.607C77.406 134.691 86.8953 133.667 95.7393 130.619C104.424 127.644 112.234 122.776 118.527 116.414L131.814 122.195C133.416 122.886 135.244 122.952 136.898 122.38C138.553 121.808 139.898 120.644 140.641 119.142L143.019 114.329C143.39 113.583 143.599 112.775 143.634 111.952C143.67 111.129 143.532 110.307 143.227 109.535V109.535ZM141.246 113.538L138.878 118.35C138.353 119.403 137.407 120.218 136.245 120.619C135.084 121.02 133.801 120.974 132.676 120.491L118.071 114.143L117.586 114.646C111.42 121.029 103.695 125.907 95.0754 128.86C86.3041 131.884 76.8778 132.843 67.6209 131.653L66.8977 131.559L59.9622 145.578C59.439 146.633 58.4931 147.449 57.331 147.851C56.1689 148.252 54.8851 148.205 53.7599 147.719L48.6375 145.495C47.5298 145.001 46.6713 144.12 46.2455 143.04C45.8197 141.96 45.8604 140.766 46.3588 139.714L52.3034 127.613L51.4018 127.222C41.0483 122.772 32.3383 115.529 26.3811 106.413C20.4239 97.2974 17.489 86.7224 17.95 76.0344C18.4111 65.3465 22.2473 55.0292 28.9702 46.3965C35.6931 37.7637 44.9984 31.2061 55.7013 27.5586C66.4042 23.9111 78.0203 23.3388 89.0705 25.9145C100.121 28.4903 110.105 34.0975 117.752 42.0223C125.399 49.947 130.363 59.8307 132.011 70.4147C133.66 80.9988 131.918 91.8043 127.008 101.455L126.572 102.302L138.957 107.692C140.079 108.184 140.949 109.072 141.376 110.164C141.803 111.256 141.752 112.462 141.236 113.519L141.246 113.538Z" fill="black"/>
<path d="M102.437 76.2381C99.3853 68.4468 87.6545 69.4521 87.5752 69.4614H87.4563C86.842 69.4614 72.2082 69.1542 69.9294 62.3961C68.582 58.3934 70.5932 54.7537 72.2181 51.8215C72.5451 51.2164 72.8621 50.6393 73.1395 50.0901C74.4276 47.493 78.4006 46.8134 81.5513 47.2975C83.1994 47.5735 84.8275 47.9466 86.4259 48.4145C90.4683 49.4944 94.6395 50.6114 98.028 48.8055C99.8015 47.8746 101.317 47.0927 102.556 46.5528C96.6987 42.1862 89.7463 39.3058 82.3645 38.1877C74.9828 37.0695 67.4191 37.7511 60.3981 40.1671C57.6137 41.1347 54.9386 42.3601 52.4124 43.8254C53.3017 44.4162 53.9734 45.2523 54.3345 46.2177C54.9686 47.977 54.503 50.1366 52.9573 52.6407C52.1449 53.9439 51.8179 54.9585 51.9666 55.5822C52.1152 56.2059 52.7493 56.5131 53.7302 56.9878C54.711 57.4626 55.9198 58.0862 56.2269 59.3336C56.4944 60.4227 55.999 61.7166 54.6912 63.3922C50.8569 68.3351 37.6597 80.5108 31.9033 81.8047C32.2289 85.5307 33.0922 89.1977 34.4694 92.7051C37.0152 99.1773 41.2536 104.943 46.7943 109.472C52.335 114.001 58.9997 117.147 66.1744 118.62C65.1836 117.503 64.4504 115.577 64.7575 112.235C65.3916 105.29 63.5488 104.592 61.9239 103.978L61.6267 103.866C60.8769 103.535 60.169 103.126 59.5163 102.647C57.8033 101.465 55.9637 100.454 54.0274 99.6308C45.4472 95.9073 44.7735 92.1839 45.7147 89.6612C47.3892 85.2675 55.3352 82.3539 58.2085 83.0614C60.3585 83.5827 62.1716 82.6797 64.5396 81.5348C66.0419 80.7529 67.6172 80.1016 69.2458 79.5892C72.3271 78.6584 73.2089 79.9523 74.1006 81.2927C75.3142 83.2092 77.2198 84.6528 79.4706 85.3606C84.0679 87.0827 86.0494 91.7277 85.2072 98.793C85.1583 99.4334 84.9464 100.053 84.5896 100.601C84.2327 101.148 83.7412 101.607 83.1563 101.939C82.0169 102.731 80.7388 103.634 80.6001 108.642C80.4775 110.846 79.7579 112.985 78.5096 114.855C77.2612 116.725 75.5254 118.264 73.4665 119.328L73.1197 119.486C81.981 119.906 90.7676 117.776 98.306 113.379C105.844 108.983 111.775 102.53 115.307 94.8834C111.413 90.4245 104.874 82.4842 102.437 76.2381Z" fill="#D3D3D3"/>
<path d="M118.151 63.8203C115.653 57.4466 111.578 51.7225 106.261 47.1206L105.053 46.0874C97.4752 39.9874 87.9763 36.3924 78.0142 35.8542C68.0521 35.3161 58.1773 37.8647 49.9057 43.1086L48.4394 44.1046C42.4962 48.2245 37.7037 53.6358 34.472 59.8754C31.2402 66.1151 29.6653 72.9974 29.8821 79.9336V81.0228C30.4896 90.6773 34.558 99.8542 41.4247 107.059C48.2915 114.264 57.5521 119.073 67.6987 120.703C77.8454 122.333 88.2804 120.687 97.3047 116.034C106.329 111.381 113.411 103.995 117.398 95.0788L117.636 94.5575C121.866 84.7278 122.05 73.7704 118.151 63.8203V63.8203ZM50.5596 44.9517C51.4103 45.3237 52.0745 45.991 52.4124 46.8134C52.8583 48.0422 52.4124 49.6898 51.2037 51.7005C50.0742 53.5622 49.7076 54.9213 50.0643 56.0942C50.3071 56.673 50.6757 57.1979 51.1466 57.6355C51.6174 58.073 52.1801 58.4136 52.7988 58.6354C53.5122 58.9891 54.1859 59.3243 54.2949 59.7525C54.4039 60.1807 54.2949 60.7485 53.096 62.303C48.3799 68.363 36.1537 78.7421 31.8537 79.943C31.6248 73.1085 33.2158 66.3284 36.4824 60.218C39.749 54.1075 44.5877 48.8601 50.5596 44.9517V44.9517ZM68.3442 117.95C67.0859 117.159 66.531 115.158 66.7787 112.365C67.4822 104.685 65.2529 103.187 62.7066 102.219L62.4391 102.116C61.8294 101.837 61.2517 101.501 60.7151 101.111C58.9074 99.8539 56.9608 98.7835 54.9092 97.918C50.9461 96.1773 46.4182 93.4405 47.6369 90.2569C48.9546 86.7941 55.9198 84.3832 57.7626 84.83C60.6458 85.5375 63.0138 84.3832 65.5006 83.1637C66.894 82.4137 68.3604 81.7903 69.8799 81.302C71.5246 80.8273 71.6633 81.0414 72.4856 82.2329C73.9161 84.4811 76.149 86.1797 78.787 87.0268C83.4338 88.7675 83.8003 94.2411 83.2851 98.523C83.2638 98.91 83.1356 99.2852 82.9133 99.6116C82.6909 99.938 82.382 100.204 82.0169 100.385C80.2732 101.604 78.8167 103.056 78.6681 108.53C78.5661 110.404 77.9555 112.223 76.8941 113.813C75.8328 115.404 74.3561 116.712 72.6045 117.615C70.9202 118.499 69.3746 118.593 68.3442 117.95ZM90.4188 117.019C84.9063 118.932 79.0381 119.774 73.1693 119.495L73.516 119.337C75.5749 118.274 77.3108 116.734 78.5591 114.864C79.8075 112.994 80.5271 110.855 80.6496 108.651C80.7884 103.643 82.0665 102.74 83.2059 101.949C83.7907 101.617 84.2822 101.158 84.6391 100.61C84.996 100.063 85.2078 99.4426 85.2568 98.8023C86.099 91.737 84.1174 87.092 79.5202 85.3699C77.2693 84.662 75.3637 83.2185 74.1501 81.302C73.2287 79.9616 72.3766 78.7049 69.2953 79.5985C67.6667 80.1109 66.0915 80.7621 64.5891 81.544C62.2509 82.689 60.408 83.5919 58.258 83.0706C55.3848 82.3632 47.4387 85.2768 45.7643 89.6705C44.823 92.1559 45.4968 95.9073 54.0769 99.6401C56.0133 100.463 57.8529 101.474 59.5658 102.656C60.2185 103.135 60.9264 103.545 61.6762 103.876L61.9735 103.987C63.5983 104.602 65.4412 105.3 64.8071 112.244C64.4999 115.586 65.2628 117.513 66.2239 118.63C59.0492 117.156 52.3845 114.01 46.8439 109.482C41.3032 104.953 37.0647 99.1866 34.5189 92.7144C33.1476 89.2031 32.291 85.5329 31.9726 81.8047C37.6894 80.5108 50.8866 68.3351 54.7606 63.3922C56.0684 61.7166 56.5638 60.4227 56.2963 59.3336C55.9891 58.0862 54.8299 57.4718 53.7995 56.9878C52.7691 56.5037 52.2143 56.1593 52.0359 55.5822C51.8576 55.005 52.1746 53.9438 53.0267 52.6406C54.5723 50.1366 55.0083 47.9863 54.4039 46.2177C54.0428 45.2522 53.371 44.4162 52.4818 43.8253C55.008 42.3601 57.683 41.1347 60.4675 40.167C67.4884 37.7511 75.0521 37.0695 82.4339 38.1876C89.8156 39.3058 96.7681 42.1861 102.625 46.5528C101.387 47.0927 99.8708 47.8467 98.0973 48.8055C94.7088 50.6114 90.5377 49.4943 86.4953 48.4145C84.8969 47.9466 83.2688 47.5735 81.6206 47.2975C78.4699 46.832 74.4969 47.5116 73.2089 50.0901C72.9315 50.6393 72.6144 51.2164 72.2875 51.8215C70.6626 54.7537 68.6513 58.3934 69.9988 62.3961C72.2776 69.1542 86.9114 69.4521 87.5257 69.4614H87.6446C87.7635 69.4614 99.5339 68.4467 102.506 76.2381C104.944 82.4842 111.483 90.4245 115.386 94.8554C113.03 99.9392 109.603 104.523 105.312 108.33C101.022 112.137 95.9555 115.09 90.4188 117.01V117.019ZM116.179 92.9192C112.721 88.9444 106.529 81.3765 104.29 75.6144C100.792 66.6781 88.4966 67.5252 87.387 67.6183C83.513 67.5438 73.2981 66.3802 71.7723 61.8562C70.6725 58.5889 72.3965 55.4612 73.9223 52.6965C74.269 52.0728 74.596 51.4677 74.9131 50.8906C75.7255 49.2616 78.7672 48.7682 81.2243 49.1313C82.7939 49.4038 84.3454 49.7613 85.8711 50.2018C90.0918 51.3281 94.8773 52.6127 98.9791 50.4159C100.674 49.4863 102.421 48.6412 104.21 47.8839C110.836 53.3617 115.532 60.6022 117.677 68.6452C119.821 76.6883 119.313 85.1539 116.219 92.9192H116.179Z" fill="black"/>
<path d="M53.096 62.2937C48.37 68.363 36.1041 78.7422 31.8339 79.9337C31.6097 73.0989 33.2038 66.3195 36.4718 60.2096C39.7399 54.0996 44.5786 48.8521 50.5497 44.9424C51.4061 45.31 52.0748 45.9784 52.4124 46.8041C52.8582 48.0329 52.4124 49.6805 51.2037 51.6912C50.0742 53.5529 49.7076 54.912 50.0642 56.0849C50.3071 56.6637 50.6757 57.1887 51.1465 57.6262C51.6174 58.0638 52.1801 58.4043 52.7988 58.6262C53.5122 58.9799 54.1859 59.315 54.2949 59.7432C54.4039 60.1714 54.285 60.7392 53.096 62.2937ZM83.2851 98.5975C83.8003 94.3155 83.4338 88.8421 78.787 87.1014C76.149 86.2542 73.9161 84.5555 72.4856 82.3074C71.6633 81.1159 71.4948 80.9018 69.8799 81.3765C68.3604 81.8648 66.894 82.4882 65.5006 83.2382C63.0138 84.4577 60.6458 85.6119 57.7626 84.9045C57.5995 84.8485 57.4299 84.811 57.2573 84.7928C54.8695 84.7928 48.8852 87.092 47.6765 90.2756C46.4677 93.4592 50.9659 96.1959 54.9488 97.9366C57.0005 98.8021 58.947 99.8725 60.7548 101.129C61.2913 101.519 61.869 101.856 62.4787 102.135L62.7463 102.237C65.2926 103.168 67.5218 104.704 66.8184 112.384C66.5707 115.176 67.1255 117.15 68.3838 117.969C69.3746 118.611 70.9598 118.518 72.6442 117.699C74.3945 116.795 75.8702 115.486 76.9313 113.896C77.9925 112.306 78.6039 110.488 78.7077 108.614C78.8563 103.14 80.3128 101.688 82.0566 100.469C82.4171 100.282 82.7198 100.01 82.9352 99.6808C83.1505 99.3512 83.2711 98.9748 83.2851 98.5882V98.5975ZM116.199 92.9286C119.288 85.1626 119.795 76.6988 117.655 68.656C115.514 60.6132 110.826 53.37 104.21 47.884C102.411 48.6359 100.658 49.4812 98.9593 50.4159C94.8575 52.6128 90.0423 51.3468 85.8513 50.2018C84.3255 49.7613 82.7741 49.4039 81.2045 49.1313C78.7474 48.7683 75.7057 49.2616 74.8932 50.8906C74.6059 51.4678 74.2789 52.0728 73.9024 52.6965C72.3766 55.4891 70.6527 58.5889 71.7525 61.8562C73.2783 66.3802 83.4932 67.5438 87.3672 67.6183C87.5752 67.6183 88.1895 67.5532 89.0713 67.5532C92.8264 67.5532 101.436 68.3723 104.27 75.6145C106.549 81.3672 112.741 88.9445 116.199 92.9193V92.9286Z" fill="#A6A6A6"/>
</svg>
