<svg width="144" height="150" viewBox="0 0 144 150" fill="none" xmlns="http://www.w3.org/2000/svg">
<path d="M32.0392 30.6229C31.9842 30.1946 31.8192 29.7853 31.5585 29.4302C31.2977 29.0751 30.9489 28.7848 30.5422 28.5842C27.7496 27.1877 24.6348 26.4558 21.4709 26.4525C18.322 26.4618 15.2215 27.18 12.4293 28.547C9.57958 29.9429 7.14168 31.9788 5.33277 34.4735C3.52386 36.9682 2.40007 39.8442 2.0615 42.8454C1.72293 45.8467 2.18009 48.8799 3.39224 51.6751C4.6044 54.4703 6.53392 56.9406 9.009 58.866C9.37888 59.1568 9.81854 59.3588 10.29 59.4544C10.7616 59.5501 11.2508 59.5367 11.7155 59.4153C12.1724 59.2994 12.592 59.0801 12.9377 58.7766C13.2834 58.4732 13.5445 58.0947 13.6983 57.6745C17.2849 48.268 23.2485 39.819 31.0775 33.0525C31.435 32.7507 31.7093 32.3719 31.8767 31.9488C32.0442 31.5257 32.1 31.0707 32.0392 30.6229Z" fill="#FFAB4D"/>
<path d="M31.4741 26.9365C26.7757 24.6192 21.3302 24.0168 16.1869 25.2454C11.0437 26.474 6.56677 29.4465 3.61896 33.5903C0.671151 37.734 -0.538893 42.7557 0.222033 47.6873C0.982958 52.619 3.66099 57.1117 7.74002 60.2995C8.63781 60.9974 9.76679 61.3793 10.9323 61.3794C11.9522 61.3783 12.947 61.0818 13.7809 60.5304C14.6147 59.979 15.2472 59.1994 15.5919 58.2981C19.0667 49.1745 24.8505 40.9803 32.4456 34.4209C33.0334 33.9153 33.4827 33.2841 33.7554 32.5808C34.0281 31.8775 34.1161 31.1228 34.012 30.3808C33.9168 29.6569 33.6362 28.9654 33.1942 28.3656C32.7522 27.7658 32.162 27.2754 31.4741 26.9365V26.9365ZM13.7181 57.6558C13.5643 58.0761 13.3032 58.4545 12.9575 58.758C12.6119 59.0614 12.1922 59.2807 11.7353 59.3966C11.2706 59.518 10.7814 59.5314 10.3099 59.4358C9.83835 59.3401 9.39871 59.1381 9.02883 58.8474C6.55376 56.9219 4.62422 54.4516 3.41206 51.6564C2.19991 48.8612 1.74277 45.828 2.08134 42.8268C2.41991 39.8255 3.5437 36.9495 5.35261 34.4548C7.16152 31.9601 9.5994 29.9242 12.4492 28.5283C15.2413 27.1613 18.3418 26.4431 21.4907 26.4338C24.6546 26.4371 27.7694 27.169 30.562 28.5656C30.9687 28.7661 31.3175 29.0564 31.5783 29.4115C31.839 29.7666 32.004 30.176 32.059 30.6042C32.1162 31.0543 32.0558 31.5107 31.8831 31.934C31.7103 32.3573 31.4304 32.7348 31.0676 33.0338C23.2467 39.8086 17.2933 48.264 13.7181 57.6744V57.6558Z" fill="black"/>
<path d="M92.7624 1.8864C91.0123 1.8875 89.2707 2.11618 87.5873 2.56594C84.7682 3.30399 82.1634 4.63103 79.9676 6.44777C77.7718 8.2645 76.0419 10.5239 74.9073 13.057C74.7072 13.4821 74.6233 13.9474 74.6631 14.4107C74.7029 14.8739 74.8652 15.3206 75.1354 15.71C75.3889 16.0857 75.7365 16.3974 76.1477 16.6181C76.559 16.8387 77.0215 16.9616 77.4949 16.976C88.1158 17.3397 98.4845 20.1154 107.713 25.0654C108.135 25.295 108.611 25.4236 109.098 25.4398C109.586 25.4561 110.07 25.3595 110.508 25.1585C110.943 24.964 111.32 24.6735 111.609 24.3119C111.897 23.9504 112.088 23.5286 112.164 23.0826V23.0826C112.611 20.4557 112.442 17.769 111.671 15.2095C110.899 12.6499 109.543 10.2789 107.696 8.26149C105.85 6.24408 103.557 4.6287 100.978 3.52773C98.399 2.42677 95.5954 1.86667 92.7624 1.8864Z" fill="#FFA44B"/>
<path d="M112.194 11.3256C109.965 7.09285 106.238 3.72003 101.65 1.7855C97.0631 -0.149034 91.902 -0.52475 87.052 0.722784C83.9424 1.54048 81.0699 3.00763 78.6492 5.01455C76.2286 7.02147 74.3224 9.51623 73.0732 12.3123C72.7562 13.0182 72.6257 13.7857 72.693 14.5491C72.7604 15.3126 73.0235 16.0495 73.4599 16.6968C73.8851 17.3285 74.4692 17.8525 75.1607 18.2226C75.8521 18.5927 76.6299 18.7975 77.4255 18.8192C87.7267 19.1682 97.7835 21.8612 106.731 26.6666C107.426 27.0384 108.207 27.2467 109.006 27.2738C109.806 27.3009 110.6 27.146 111.322 26.8222C112.044 26.4985 112.671 26.0155 113.151 25.4145C113.631 24.8136 113.949 24.1125 114.077 23.3712C114.788 19.2697 114.13 15.0621 112.194 11.3256V11.3256ZM112.124 23.0734C112.053 23.5173 111.869 23.9386 111.588 24.3016C111.307 24.6646 110.936 24.9585 110.508 25.1585C110.074 25.3517 109.597 25.4433 109.117 25.4255C108.637 25.4076 108.169 25.2809 107.752 25.0561C98.5241 20.1061 88.1554 17.3304 77.5345 16.9667C77.0611 16.9523 76.5987 16.8295 76.1874 16.6088C75.7761 16.3882 75.4286 16.0764 75.175 15.7007C74.9049 15.3113 74.7426 14.8647 74.7028 14.4014C74.6629 13.9381 74.7469 13.4728 74.947 13.0477C76.0779 10.5094 77.8062 8.24448 80.0022 6.42273C82.1982 4.60097 84.8049 3.2697 87.627 2.52871C89.3103 2.07895 91.0519 1.85026 92.8021 1.84916C95.6357 1.83397 98.4387 2.39879 101.016 3.50432C103.594 4.60985 105.883 6.22951 107.726 8.25058C109.569 10.2716 110.921 12.6456 111.687 15.2071C112.454 17.7686 112.616 20.4561 112.164 23.0827L112.124 23.0734Z" fill="black"/>
<path d="M138.971 107.71L126.579 102.329L127.015 101.482C131.928 91.8309 133.671 81.0251 132.021 70.4409C130.372 59.8566 125.405 49.9727 117.753 42.0478C110.101 34.1228 100.111 28.5154 89.0536 25.9396C77.9965 23.3638 66.3732 23.9362 55.6636 27.5837C44.9541 31.2313 35.6429 37.7891 28.9159 46.422C22.1888 55.055 18.3502 65.3725 17.8888 76.0607C17.4275 86.7489 20.3642 97.3242 26.3252 106.44C32.2861 115.556 41.0014 122.8 51.3615 127.249L52.2636 127.64L46.3153 139.676C45.8012 140.734 45.7523 141.939 46.1793 143.03C46.6062 144.121 47.4745 145.01 48.5955 145.504L53.7309 147.729C54.8572 148.211 56.1408 148.257 57.3028 147.856C58.4649 147.455 59.4115 146.64 59.9371 145.588L66.8768 131.578L67.6105 131.671C76.8733 132.85 86.3028 131.892 95.0821 128.878C103.703 125.924 111.43 121.046 117.597 114.663L118.092 114.161L132.706 120.509C133.832 120.992 135.116 121.038 136.278 120.637C137.44 120.236 138.386 119.421 138.912 118.368L141.281 113.546C141.795 112.489 141.844 111.284 141.417 110.192C140.99 109.101 140.122 108.212 139.001 107.719L138.971 107.71ZM117.646 94.547L117.418 95.0683C113.426 103.98 106.339 111.361 97.3113 116.01C88.2833 120.659 77.8455 122.303 67.6962 120.673C57.5469 119.044 48.2835 114.238 41.4133 107.037C34.5431 99.8353 30.4704 90.6629 29.858 81.0119V79.9227C29.6375 72.9868 31.2107 66.104 34.4429 59.8639C37.6752 53.6238 42.4701 48.2123 48.417 44.0929L49.8942 43.0875C52.9476 41.1769 56.2324 39.6145 59.6793 38.4331C67.2913 35.8164 75.5078 35.1485 83.4855 36.4981C91.4631 37.8478 98.9147 41.1662 105.075 46.1129L106.285 47.1462C113.09 53.0275 117.825 60.7157 119.86 69.1871C121.895 77.6584 121.133 86.5109 117.676 94.5656L117.646 94.547Z" fill="#FF6C37"/>
<path d="M143.225 109.544C142.926 108.772 142.467 108.064 141.875 107.46C141.283 106.856 140.569 106.368 139.775 106.025L129.196 101.426C134.059 91.4366 135.671 80.3207 133.828 69.4741C131.986 58.6276 126.771 48.5339 118.84 40.4603C110.909 32.3868 100.615 26.6933 89.249 24.0947C77.8834 21.4962 65.9536 22.1083 54.9573 25.8544C43.961 29.6004 34.3885 36.3134 27.4416 45.1504C20.4946 53.9874 16.483 64.5545 15.9103 75.525C15.3377 86.4955 18.2295 97.3803 24.2227 106.813C30.216 116.245 39.0435 123.805 49.5969 128.543L44.5012 138.894C43.7671 140.4 43.6958 142.117 44.3029 143.672C44.91 145.227 46.1463 146.494 47.743 147.198L52.8785 149.423C53.6708 149.769 54.5284 149.963 55.4015 149.995C56.2746 150.027 57.1458 149.896 57.9643 149.609C58.7869 149.33 59.5419 148.9 60.1853 148.343C60.8287 147.787 61.3477 147.116 61.7118 146.369L68.0072 133.607C77.363 134.683 86.857 133.655 95.7069 130.61C104.396 127.637 112.21 122.771 118.509 116.413L131.814 122.185C133.416 122.874 135.243 122.941 136.898 122.37C138.552 121.8 139.9 120.64 140.647 119.141L143.026 114.319C143.394 113.575 143.601 112.77 143.635 111.95C143.669 111.13 143.53 110.312 143.225 109.544V109.544ZM141.242 113.537L138.872 118.359C138.347 119.412 137.4 120.227 136.238 120.628C135.076 121.029 133.793 120.983 132.666 120.5L118.053 114.151L117.557 114.654C111.391 121.036 103.664 125.915 95.0427 128.869C86.2633 131.882 76.8338 132.841 67.571 131.661L66.8374 131.568L59.8976 145.578C59.3721 146.631 58.4254 147.446 57.2633 147.847C56.1013 148.248 54.8177 148.202 53.6914 147.719L48.556 145.494C47.435 145.001 46.5667 144.112 46.1398 143.021C45.7128 141.93 45.7617 140.725 46.2757 139.667L52.2241 127.631L51.322 127.24C40.9639 122.784 32.2523 115.535 26.2962 106.415C20.3401 97.2955 17.409 86.7179 17.8761 76.029C18.3432 65.3401 22.1874 55.0235 28.9192 46.3927C35.651 37.7618 44.9659 31.2072 55.6779 27.5633C66.3899 23.9195 78.0144 23.3512 89.0715 25.9308C100.129 28.5105 110.118 34.1213 117.768 42.0491C125.418 49.9768 130.382 59.8628 132.029 70.4484C133.676 81.0339 131.931 91.8402 127.015 101.491L126.579 102.338L138.972 107.719C140.092 108.212 140.961 109.101 141.388 110.192C141.815 111.284 141.766 112.489 141.252 113.546L141.242 113.537Z" fill="black"/>
<path d="M102.438 76.2456C99.3849 68.4541 87.6468 69.4595 87.5674 69.4688H87.4485C86.8338 69.4688 72.1909 69.1616 69.9106 62.4126C68.5623 58.4098 70.5749 54.7607 72.1909 51.8284C72.5279 51.2327 72.8452 50.6555 73.1228 50.097C74.4116 47.5091 78.3871 46.8203 81.5298 47.3043C83.1816 47.5837 84.8138 47.9567 86.4174 48.4214C90.4624 49.5012 94.6361 50.6183 98.0168 48.8124C99.8013 47.8815 101.318 47.1088 102.557 46.5689C95.5148 41.3111 86.9129 38.2267 77.9304 37.7384C68.948 37.2501 60.0245 39.3818 52.3827 43.8414C53.2723 44.4285 53.9446 45.2616 54.306 46.2245C54.9405 47.9932 54.4746 50.1528 52.928 52.6476C52.1151 53.9509 51.7879 54.9749 51.9366 55.5986C52.0853 56.2222 52.7198 56.5294 53.7013 57.0042C54.6828 57.4789 55.8923 58.0933 56.1996 59.35C56.4574 60.4392 55.9716 61.7238 54.6629 63.4087C50.8262 68.3424 37.6109 80.5184 31.8608 81.8217C32.472 89.0672 35.1256 96.0295 39.5491 101.994C43.9727 107.959 50.0069 112.71 57.0324 115.762C59.9555 117.032 63.0171 118 66.1631 118.648C65.1718 117.531 64.4381 115.594 64.7455 112.252C65.38 105.308 63.536 104.61 61.9101 103.995L61.6126 103.884C60.8605 103.56 60.1516 103.154 59.5009 102.674C57.7878 101.49 55.9469 100.479 54.0086 99.6575C45.4132 95.9339 44.739 92.2104 45.6908 89.6784C47.3662 85.2846 55.3074 82.3802 58.1923 83.0784C60.3437 83.5997 62.1579 82.6967 64.5273 81.561C66.0294 80.7742 67.6058 80.1198 69.2365 79.6061C72.3098 78.6753 73.2021 79.9785 74.0943 81.3097C75.3062 83.2245 77.2092 84.6679 79.4578 85.3777C84.0579 87.0998 86.0506 91.7449 85.2079 98.8197C85.1555 99.4603 84.941 100.08 84.5823 100.627C84.2237 101.174 83.7312 101.633 83.1458 101.966C82.0156 102.757 80.7268 103.651 80.588 108.668C80.4691 110.873 79.7518 113.012 78.5041 114.882C77.2565 116.753 75.52 118.292 73.4599 119.355L73.1129 119.513C81.9873 119.927 90.7852 117.791 98.334 113.39C105.883 108.99 111.824 102.534 115.366 94.882C111.421 90.4324 104.877 82.4919 102.438 76.2456Z" fill="#AFE2E3"/>
<path d="M118.152 63.8276C115.653 57.4538 111.575 51.7295 106.255 47.1275L105.046 46.0942C98.885 41.1475 91.4335 37.829 83.4558 36.4794C75.4781 35.1298 67.2617 35.7976 59.6496 38.4144C56.2028 39.5957 52.9179 41.1582 49.8645 43.0688L48.3873 44.0742C42.4404 48.1936 37.6455 53.6051 34.4132 59.8452C31.181 66.0854 29.6078 72.9681 29.8284 79.9041V80.9932C30.4061 90.6695 34.4626 99.8755 41.3346 107.107C48.2067 114.338 57.4878 119.166 67.6611 120.802C77.8343 122.439 88.2978 120.786 97.3413 116.115C106.385 111.444 113.473 104.031 117.448 95.0869L117.676 94.5656C121.904 84.7324 122.074 73.7721 118.152 63.8276V63.8276ZM50.5288 44.9585C51.3838 45.3256 52.05 45.9946 52.3827 46.8203C52.8288 48.0491 52.3827 49.6874 51.1732 51.7075C50.043 53.5227 49.6762 54.919 50.0331 56.1012C50.2762 56.679 50.6451 57.2027 51.1163 57.6387C51.5875 58.0747 52.1506 58.4135 52.7693 58.6333C53.4831 58.9963 54.1573 59.3315 54.2663 59.7597C54.3357 60.0389 54.2663 60.7464 53.0667 62.301C48.3477 68.3704 36.1039 78.7405 31.8111 79.9413C31.5829 73.1081 33.1753 66.3295 36.4439 60.2205C39.7125 54.1115 44.5539 48.8655 50.5288 44.9585V44.9585ZM68.3244 117.959C67.0653 117.168 66.5101 115.166 66.7579 112.373C67.4618 104.694 65.2312 103.195 62.6833 102.236L62.4156 102.134C61.8036 101.854 61.2253 101.514 60.6906 101.119C58.8777 99.8677 56.9307 98.7976 54.881 97.9261C50.9154 96.1946 46.3847 93.4578 47.5942 90.2742C48.9227 86.802 55.8922 84.4003 57.7362 84.8471C60.6212 85.5453 62.9807 84.391 65.479 83.1715C66.8771 82.4411 68.344 81.8335 69.861 81.3563C71.4968 80.8722 71.6455 81.0956 72.4684 82.2871C73.8958 84.5329 76.1272 86.2288 78.7638 87.0719C83.4135 88.8127 83.7902 94.2863 83.2746 98.5777C83.2523 98.9645 83.1237 99.3393 82.9013 99.6655C82.6789 99.9918 82.3704 100.258 82.0057 100.439C80.2608 101.668 78.8034 103.12 78.6448 108.594C78.5449 110.467 77.9357 112.284 76.8753 113.873C75.8149 115.462 74.3387 116.769 72.5874 117.67C70.902 118.499 69.3455 118.601 68.3244 117.959ZM90.4127 117.028C84.8974 118.944 79.0257 119.789 73.1525 119.513L73.4995 119.355C75.5596 118.293 77.2961 116.753 78.5437 114.882C79.7914 113.012 80.5087 110.873 80.6276 108.669C80.7664 103.651 82.0552 102.757 83.1854 101.966C83.7708 101.633 84.2633 101.174 84.6219 100.627C84.9806 100.08 85.195 99.4604 85.2475 98.8197C86.0902 91.745 84.0975 87.0998 79.4974 85.3777C77.2488 84.6679 75.3459 83.2246 74.134 81.3097C73.212 79.9786 72.3494 78.7218 69.2761 79.6062C67.6454 80.1198 66.069 80.7742 64.567 81.5611C62.2273 82.6967 60.3832 83.5997 58.2319 83.0784C55.3469 82.3802 47.4059 85.2846 45.7304 89.6784C44.739 92.1732 45.4528 95.9247 54.0482 99.6575C55.9865 100.479 57.8274 101.49 59.5406 102.674C60.1913 103.154 60.9001 103.56 61.6522 103.884L61.9497 103.995C63.5755 104.61 65.4196 105.308 64.7851 112.252C64.4777 115.594 65.2411 117.531 66.2028 118.648C63.0567 118 59.9951 117.032 57.072 115.762C50.0465 112.71 44.0123 107.959 39.5888 101.994C35.1652 96.0296 32.5116 89.0673 31.9004 81.8217C37.6108 80.5185 50.8262 68.3424 54.7025 63.4087C56.0112 61.7238 56.497 60.4392 56.2392 59.3501C55.9319 58.0934 54.7719 57.4883 53.7409 57.0042C52.7098 56.5202 52.1546 56.1664 51.9762 55.5986C51.7977 55.0307 52.115 53.9509 52.9676 52.6477C54.5142 50.1529 54.9504 47.9932 54.3456 46.2245C53.9843 45.2616 53.3119 44.4285 52.4223 43.8415C60.0558 39.3986 68.9636 37.2764 77.9295 37.7646C86.8954 38.2527 95.4823 41.3275 102.518 46.569C101.278 47.1089 99.7616 47.8629 97.9771 48.8124C94.5964 50.6183 90.4226 49.5012 86.3777 48.4214C84.7741 47.9567 83.1419 47.5837 81.4901 47.3044C78.3474 46.8389 74.3719 47.5278 73.0831 50.097C72.8055 50.6556 72.4882 51.2327 72.1512 51.8285C70.5352 54.7608 68.5226 58.4099 69.871 62.4127C72.1512 69.1616 86.7941 69.4595 87.4088 69.4688H87.5278C87.6467 69.4688 99.4245 68.4542 102.399 76.2457C104.838 82.492 111.381 90.4324 115.287 94.8635C112.941 99.9367 109.529 104.513 105.255 108.318C100.981 112.124 95.9327 115.08 90.4127 117.009V117.028ZM116.189 92.9272C112.729 88.9616 106.533 81.3842 104.292 75.622C100.793 66.6948 88.4894 67.5326 87.3791 67.6257C83.4928 67.5605 73.2814 66.3969 71.7546 61.8728C70.6541 58.6054 72.3792 55.4683 73.9059 52.7035C74.2529 52.0798 74.5801 51.4841 74.8973 50.9069C75.7004 49.2778 78.7539 48.7845 81.2126 49.1475C82.7839 49.4123 84.3367 49.7667 85.8622 50.2087C90.0856 51.3444 94.8641 52.629 98.9784 50.4321C100.672 49.4986 102.42 48.6533 104.213 47.9001C110.841 53.3765 115.54 60.6156 117.686 68.6572C119.832 76.6989 119.324 85.1631 116.229 92.9272H116.189Z" fill="black"/>
<path d="M53.0668 62.2917C48.3378 68.3704 36.0643 78.7405 31.7914 79.9786C31.5625 73.143 33.1557 66.3619 36.4261 60.2511C39.6966 54.1403 44.5408 48.8933 50.5189 44.9865C51.3757 45.3541 52.0449 46.0225 52.3827 46.8483C52.8288 48.077 52.3827 49.7154 51.1732 51.7354C50.043 53.5507 49.6762 54.947 50.0331 56.1292C50.2762 56.7069 50.6452 57.2306 51.1164 57.6666C51.5876 58.1027 52.1506 58.4414 52.7694 58.6612C53.4832 59.0243 54.1573 59.3594 54.2664 59.7876C54.3358 60.0297 54.2664 60.7371 53.0668 62.2917ZM83.2747 98.5963C83.7902 94.305 83.4135 88.8313 78.7638 87.0906C76.1273 86.2475 73.8959 84.5515 72.4685 82.3058C71.6456 81.1143 71.4771 80.8909 69.8611 81.3749C68.3441 81.8521 66.8772 82.4598 65.4791 83.1901C62.9808 84.4096 60.6212 85.5639 57.7363 84.8657C57.5577 84.8257 57.3745 84.8069 57.191 84.8099C54.8017 84.8099 48.8137 87.0999 47.5943 90.2928C46.3748 93.4858 50.8857 96.2133 54.8811 97.9447C56.9307 98.8162 58.8778 99.8863 60.6906 101.138C61.2254 101.533 61.8037 101.873 62.4157 102.152L62.6834 102.255C65.2313 103.186 67.4619 104.712 66.758 112.392C66.5101 115.185 67.0653 117.168 68.3244 117.977C69.3158 118.62 70.902 118.517 72.5874 117.698C74.3387 116.797 75.815 115.49 76.8754 113.901C77.9358 112.312 78.545 110.495 78.6449 108.622C78.8035 103.148 80.2609 101.696 82.0057 100.467C82.3718 100.286 82.6813 100.017 82.9037 99.6894C83.1262 99.3614 83.254 98.9847 83.2747 98.5963ZM116.209 92.9179C119.298 85.1509 119.805 76.6863 117.661 68.6432C115.518 60.6002 110.825 53.3573 104.203 47.8722C102.408 48.6313 100.657 49.4796 98.9586 50.4136C94.8443 52.6105 90.036 51.3445 85.8424 50.1902C84.3169 49.7481 82.7642 49.3937 81.1928 49.1289C78.7341 48.7659 75.6806 49.2593 74.8776 50.8883C74.59 51.4655 74.2629 52.0612 73.8862 52.6849C72.3594 55.4776 70.6344 58.5868 71.7348 61.8542C73.2616 66.3783 83.473 67.5419 87.3593 67.6071C87.5675 67.6071 88.1821 67.5512 89.0645 67.5512C92.8219 67.5512 101.437 68.3704 104.273 75.6034C106.543 81.3656 112.749 88.9523 116.209 92.9179V92.9179Z" fill="#70D44B"/>
</svg>
