<svg width="500" height="473" viewBox="0 0 500 473" fill="none" xmlns="http://www.w3.org/2000/svg">
<rect width="500" height="473" fill="white"/>
<path d="M80 0L77.1132 5H82.8868L80 0ZM80 380L82.8868 375H77.1132L80 380ZM79.5 8.90625V14.8438H80.5V8.90625H79.5ZM79.5 20.7812V26.7188H80.5V20.7812H79.5ZM79.5 32.6562V38.5938H80.5V32.6562H79.5ZM79.5 44.5312V50.4688H80.5V44.5312H79.5ZM79.5 56.4062V62.3438H80.5V56.4062H79.5ZM79.5 68.2812V74.2188H80.5V68.2812H79.5ZM79.5 80.1562V86.0938H80.5V80.1562H79.5ZM79.5 92.0312V97.9688H80.5V92.0312H79.5ZM79.5 103.906V109.844H80.5V103.906H79.5ZM79.5 115.781L79.5 121.719H80.5L80.5 115.781H79.5ZM79.5 127.656V133.594H80.5V127.656H79.5ZM79.5 139.531V145.469H80.5V139.531H79.5ZM79.5 151.406V157.344H80.5V151.406H79.5ZM79.5 163.281V169.219H80.5V163.281H79.5ZM79.5 175.156V181.094H80.5V175.156H79.5ZM79.5 187.031V192.969H80.5V187.031H79.5ZM79.5 198.906V204.844H80.5V198.906H79.5ZM79.5 210.781V216.719H80.5V210.781H79.5ZM79.5 222.656V228.594H80.5V222.656H79.5ZM79.5 234.531V240.469H80.5V234.531H79.5ZM79.5 246.406V252.344H80.5V246.406H79.5ZM79.5 258.281V264.219H80.5V258.281H79.5ZM79.5 270.156V276.094H80.5V270.156H79.5ZM79.5 282.031V287.969H80.5V282.031H79.5ZM79.5 293.906V299.844H80.5V293.906H79.5ZM79.5 305.781V311.719H80.5V305.781H79.5ZM79.5 317.656V323.594H80.5V317.656H79.5ZM79.5 329.531V335.469H80.5V329.531H79.5ZM79.5 341.406V347.344H80.5V341.406H79.5ZM79.5 353.281V359.219H80.5V353.281H79.5ZM79.5 365.156V371.094H80.5V365.156H79.5Z" fill="#494949"/>
<path d="M120 420L125 422.887V417.113L120 420ZM500 420L495 417.113V422.887L500 420ZM122.969 420.5H123.469V419.5H122.969V420.5ZM128.906 419.5H128.406V420.5H128.906V419.5ZM134.844 420.5H135.344V419.5H134.844V420.5ZM140.781 419.5H140.281V420.5H140.781V419.5ZM146.719 420.5H147.219V419.5H146.719V420.5ZM152.656 419.5H152.156V420.5H152.656V419.5ZM158.594 420.5H159.094V419.5H158.594V420.5ZM164.531 419.5H164.031V420.5H164.531V419.5ZM170.469 420.5H170.969V419.5H170.469V420.5ZM176.406 419.5H175.906V420.5H176.406V419.5ZM182.344 420.5H182.844V419.5H182.344V420.5ZM188.281 419.5H187.781V420.5H188.281V419.5ZM194.219 420.5H194.719V419.5H194.219V420.5ZM200.156 419.5H199.656V420.5H200.156V419.5ZM206.094 420.5H206.594V419.5H206.094V420.5ZM212.031 419.5H211.531V420.5H212.031V419.5ZM217.969 420.5H218.469V419.5H217.969V420.5ZM223.906 419.5H223.406V420.5H223.906V419.5ZM229.844 420.5H230.344V419.5H229.844V420.5ZM235.781 419.5H235.281V420.5H235.781V419.5ZM241.719 420.5H242.219V419.5H241.719V420.5ZM247.656 419.5H247.156V420.5H247.656V419.5ZM253.594 420.5H254.094V419.5H253.594V420.5ZM259.531 419.5H259.031V420.5H259.531V419.5ZM265.469 420.5H265.969V419.5H265.469V420.5ZM271.406 419.5H270.906V420.5H271.406V419.5ZM277.344 420.5H277.844V419.5H277.344V420.5ZM283.281 419.5H282.781V420.5H283.281V419.5ZM289.219 420.5H289.719V419.5H289.219V420.5ZM295.156 419.5H294.656V420.5H295.156V419.5ZM301.094 420.5H301.594V419.5H301.094V420.5ZM307.031 419.5H306.531V420.5H307.031V419.5ZM312.969 420.5H313.469V419.5H312.969V420.5ZM318.906 419.5H318.406V420.5H318.906V419.5ZM324.844 420.5H325.344V419.5H324.844V420.5ZM330.781 419.5H330.281V420.5H330.781V419.5ZM336.719 420.5H337.219V419.5H336.719V420.5ZM342.656 419.5H342.156V420.5H342.656V419.5ZM348.594 420.5H349.094V419.5H348.594V420.5ZM354.531 419.5H354.031V420.5H354.531V419.5ZM360.469 420.5H360.969V419.5H360.469V420.5ZM366.406 419.5H365.906V420.5H366.406V419.5ZM372.344 420.5H372.844V419.5H372.344V420.5ZM378.281 419.5H377.781V420.5H378.281V419.5ZM384.219 420.5H384.719V419.5H384.219V420.5ZM390.156 419.5H389.656V420.5H390.156V419.5ZM396.094 420.5H396.594V419.5H396.094V420.5ZM402.031 419.5H401.531V420.5H402.031V419.5ZM407.969 420.5H408.469V419.5H407.969V420.5ZM413.906 419.5H413.406V420.5H413.906V419.5ZM419.844 420.5H420.344V419.5H419.844V420.5ZM425.781 419.5H425.281V420.5H425.781V419.5ZM431.719 420.5H432.219V419.5H431.719V420.5ZM437.656 419.5H437.156V420.5H437.656V419.5ZM443.594 420.5H444.094V419.5H443.594V420.5ZM449.531 419.5H449.031V420.5H449.531V419.5ZM455.469 420.5H455.969V419.5H455.469V420.5ZM461.406 419.5H460.906V420.5H461.406V419.5ZM467.344 420.5H467.844V419.5H467.344V420.5ZM473.281 419.5H472.781V420.5H473.281V419.5ZM479.219 420.5H479.719V419.5H479.219V420.5ZM485.156 419.5H484.656V420.5H485.156V419.5ZM491.094 420.5H491.594V419.5H491.094V420.5ZM497.031 419.5H496.531V420.5H497.031V419.5ZM128.906 420.5H134.844V419.5H128.906V420.5ZM140.781 420.5H146.719V419.5H140.781V420.5ZM152.656 420.5H158.594V419.5H152.656V420.5ZM164.531 420.5H170.469V419.5H164.531V420.5ZM176.406 420.5H182.344V419.5H176.406V420.5ZM188.281 420.5H194.219V419.5H188.281V420.5ZM200.156 420.5H206.094V419.5H200.156V420.5ZM212.031 420.5H217.969V419.5H212.031V420.5ZM223.906 420.5H229.844V419.5H223.906V420.5ZM235.781 420.5H241.719V419.5H235.781V420.5ZM247.656 420.5H253.594V419.5H247.656V420.5ZM259.531 420.5H265.469V419.5H259.531V420.5ZM271.406 420.5H277.344V419.5H271.406V420.5ZM283.281 420.5H289.219V419.5H283.281V420.5ZM295.156 420.5H301.094V419.5H295.156V420.5ZM307.031 420.5H312.969V419.5H307.031V420.5ZM318.906 420.5H324.844V419.5H318.906V420.5ZM330.781 420.5H336.719V419.5H330.781V420.5ZM342.656 420.5H348.594V419.5H342.656V420.5ZM354.531 420.5H360.469V419.5H354.531V420.5ZM366.406 420.5H372.344V419.5H366.406V420.5ZM378.281 420.5H384.219V419.5H378.281V420.5ZM390.156 420.5H396.094V419.5H390.156V420.5ZM402.031 420.5H407.969V419.5H402.031V420.5ZM413.906 420.5H419.844V419.5H413.906V420.5ZM425.781 420.5H431.719V419.5H425.781V420.5ZM437.656 420.5H443.594V419.5H437.656V420.5ZM449.531 420.5H455.469V419.5H449.531V420.5ZM461.406 420.5H467.344V419.5H461.406V420.5ZM473.281 420.5H479.219V419.5H473.281V420.5ZM485.156 420.5H491.094V419.5H485.156V420.5Z" fill="#494949"/>
<path d="M277.218 464V462.32H281.082V449.456L278.034 451.376L277.194 449.912L281.634 447.08H283.05V462.32H286.674V464H277.218ZM295.833 464.216C293.897 464.216 292.425 463.472 291.417 461.984C290.409 460.496 289.905 458.344 289.905 455.528C289.905 452.696 290.409 450.544 291.417 449.072C292.425 447.6 293.897 446.864 295.833 446.864C297.785 446.864 299.257 447.6 300.249 449.072C301.257 450.528 301.761 452.672 301.761 455.504C301.761 458.336 301.249 460.496 300.225 461.984C299.217 463.472 297.753 464.216 295.833 464.216ZM295.833 462.512C297.177 462.512 298.169 461.944 298.809 460.808C299.465 459.672 299.793 457.904 299.793 455.504C299.793 453.104 299.473 451.352 298.833 450.248C298.193 449.128 297.193 448.568 295.833 448.568C294.489 448.568 293.489 449.128 292.833 450.248C292.193 451.368 291.873 453.12 291.873 455.504C291.873 457.904 292.193 459.672 292.833 460.808C293.489 461.944 294.489 462.512 295.833 462.512ZM310.223 464.216C308.287 464.216 306.815 463.472 305.807 461.984C304.799 460.496 304.295 458.344 304.295 455.528C304.295 452.696 304.799 450.544 305.807 449.072C306.815 447.6 308.287 446.864 310.223 446.864C312.175 446.864 313.647 447.6 314.639 449.072C315.647 450.528 316.151 452.672 316.151 455.504C316.151 458.336 315.639 460.496 314.615 461.984C313.607 463.472 312.143 464.216 310.223 464.216ZM310.223 462.512C311.567 462.512 312.559 461.944 313.199 460.808C313.855 459.672 314.183 457.904 314.183 455.504C314.183 453.104 313.863 451.352 313.223 450.248C312.583 449.128 311.583 448.568 310.223 448.568C308.879 448.568 307.879 449.128 307.223 450.248C306.583 451.368 306.263 453.12 306.263 455.504C306.263 457.904 306.583 459.672 307.223 460.808C307.879 461.944 308.879 462.512 310.223 462.512ZM319.238 468.32V452.336H321.134V454.424C321.486 453.704 322.006 453.144 322.694 452.744C323.398 452.328 324.214 452.12 325.142 452.12C326.182 452.12 327.086 452.368 327.854 452.864C328.638 453.344 329.238 454.04 329.654 454.952C330.086 455.848 330.302 456.92 330.302 458.168C330.302 459.4 330.086 460.472 329.654 461.384C329.238 462.28 328.638 462.976 327.854 463.472C327.086 463.968 326.182 464.216 325.142 464.216C324.246 464.216 323.446 464.016 322.742 463.616C322.038 463.216 321.518 462.664 321.182 461.96V468.32H319.238ZM324.734 462.656C325.822 462.656 326.694 462.272 327.35 461.504C328.006 460.72 328.334 459.608 328.334 458.168C328.334 456.712 328.006 455.6 327.35 454.832C326.694 454.064 325.822 453.68 324.734 453.68C323.646 453.68 322.774 454.064 322.118 454.832C321.462 455.6 321.134 456.712 321.134 458.168C321.134 459.608 321.462 460.72 322.118 461.504C322.774 462.272 323.646 462.656 324.734 462.656ZM331.484 464L336.332 457.976L331.772 452.336H334.076L337.46 456.632L340.868 452.336H343.148L338.588 457.976L343.436 464H341.132L337.436 459.368L333.788 464H331.484Z" fill="black"/>
<path d="M3.21819 204V202.32H7.08219V189.456L4.03419 191.376L3.19419 189.912L7.63419 187.08H9.05019V202.32H12.6742V204H3.21819ZM21.8328 204.216C19.8968 204.216 18.4248 203.472 17.4168 201.984C16.4088 200.496 15.9048 198.344 15.9048 195.528C15.9048 192.696 16.4088 190.544 17.4168 189.072C18.4248 187.6 19.8968 186.864 21.8328 186.864C23.7848 186.864 25.2568 187.6 26.2488 189.072C27.2568 190.528 27.7608 192.672 27.7608 195.504C27.7608 198.336 27.2488 200.496 26.2248 201.984C25.2168 203.472 23.7528 204.216 21.8328 204.216ZM21.8328 202.512C23.1768 202.512 24.1688 201.944 24.8088 200.808C25.4648 199.672 25.7928 197.904 25.7928 195.504C25.7928 193.104 25.4728 191.352 24.8328 190.248C24.1928 189.128 23.1928 188.568 21.8328 188.568C20.4888 188.568 19.4888 189.128 18.8328 190.248C18.1928 191.368 17.8728 193.12 17.8728 195.504C17.8728 197.904 18.1928 199.672 18.8328 200.808C19.4888 201.944 20.4888 202.512 21.8328 202.512ZM36.2234 204.216C34.2874 204.216 32.8154 203.472 31.8074 201.984C30.7994 200.496 30.2954 198.344 30.2954 195.528C30.2954 192.696 30.7994 190.544 31.8074 189.072C32.8154 187.6 34.2874 186.864 36.2234 186.864C38.1754 186.864 39.6474 187.6 40.6394 189.072C41.6474 190.528 42.1514 192.672 42.1514 195.504C42.1514 198.336 41.6394 200.496 40.6154 201.984C39.6074 203.472 38.1434 204.216 36.2234 204.216ZM36.2234 202.512C37.5674 202.512 38.5594 201.944 39.1994 200.808C39.8554 199.672 40.1834 197.904 40.1834 195.504C40.1834 193.104 39.8634 191.352 39.2234 190.248C38.5834 189.128 37.5834 188.568 36.2234 188.568C34.8794 188.568 33.8794 189.128 33.2234 190.248C32.5834 191.368 32.2634 193.12 32.2634 195.504C32.2634 197.904 32.5834 199.672 33.2234 200.808C33.8794 201.944 34.8794 202.512 36.2234 202.512ZM45.2381 208.32V192.336H47.1341V194.424C47.4861 193.704 48.0061 193.144 48.6941 192.744C49.3981 192.328 50.2141 192.12 51.1421 192.12C52.1821 192.12 53.0861 192.368 53.8541 192.864C54.6381 193.344 55.2381 194.04 55.6541 194.952C56.0861 195.848 56.3021 196.92 56.3021 198.168C56.3021 199.4 56.0861 200.472 55.6541 201.384C55.2381 202.28 54.6381 202.976 53.8541 203.472C53.0861 203.968 52.1821 204.216 51.1421 204.216C50.2461 204.216 49.4461 204.016 48.7421 203.616C48.0381 203.216 47.5181 202.664 47.1821 201.96V208.32H45.2381ZM50.7341 202.656C51.8221 202.656 52.6941 202.272 53.3501 201.504C54.0061 200.72 54.3341 199.608 54.3341 198.168C54.3341 196.712 54.0061 195.6 53.3501 194.832C52.6941 194.064 51.8221 193.68 50.7341 193.68C49.6461 193.68 48.7741 194.064 48.1181 194.832C47.4621 195.6 47.1341 196.712 47.1341 198.168C47.1341 199.608 47.4621 200.72 48.1181 201.504C48.7741 202.272 49.6461 202.656 50.7341 202.656ZM57.4844 204L62.3324 197.976L57.7724 192.336H60.0764L63.4604 196.632L66.8684 192.336H69.1484L64.5884 197.976L69.4364 204H67.1324L63.4364 199.368L59.7884 204H57.4844Z" fill="black"/>
<path d="M155.398 332.415H139V322.213H184.014V332.415H167.616V378.363H155.398V332.415Z" fill="black"/>
<path d="M194.018 333.861C192.142 333.861 190.561 333.245 189.275 332.013C187.989 330.782 187.346 329.229 187.346 327.354C187.346 325.533 187.989 324.007 189.275 322.775C190.561 321.49 192.142 320.848 194.018 320.848C195.893 320.848 197.474 321.49 198.76 322.775C200.046 324.007 200.689 325.533 200.689 327.354C200.689 329.229 200.046 330.782 198.76 332.013C197.474 333.245 195.893 333.861 194.018 333.861ZM187.909 339.805H200.127V378.363H187.909V339.805Z" fill="black"/>
<path d="M209.011 339.805H220.345V344.464C222.006 342.59 223.935 341.144 226.133 340.126C228.33 339.109 230.607 338.6 232.965 338.6C235.912 338.6 238.27 339.082 240.039 340.046C241.807 340.956 243.2 342.322 244.218 344.143C245.88 342.376 247.889 341.01 250.247 340.046C252.658 339.082 255.043 338.6 257.401 338.6C262.331 338.6 265.841 339.859 267.931 342.376C270.075 344.893 271.146 348.534 271.146 353.3V378.363H259.571V354.987C259.571 352.524 259.089 350.757 258.124 349.686C257.16 348.614 255.606 348.079 253.462 348.079C250.461 348.079 248.05 349.257 246.228 351.613C246.335 353.327 246.389 354.719 246.389 355.791V378.363H234.733V354.586C234.733 352.229 234.305 350.569 233.447 349.605C232.643 348.588 231.223 348.079 229.187 348.079C226.025 348.079 223.212 349.873 220.747 353.461V378.363H209.011V339.805Z" fill="black"/>
<path d="M301.374 379.568C293.978 379.568 288.164 377.801 283.931 374.266C279.697 370.678 277.581 365.671 277.581 359.245C277.581 352.872 279.456 347.838 283.207 344.143C287.012 340.448 292.424 338.6 299.444 338.6C304.053 338.6 307.965 339.457 311.18 341.171C314.395 342.884 316.834 345.267 318.495 348.32C320.156 351.319 320.987 354.719 320.987 358.522V363.422H289.156C290.013 368.349 294.621 370.812 302.981 370.812C305.446 370.812 307.992 370.598 310.617 370.169C313.243 369.741 315.521 369.152 317.45 368.402V376.917C315.574 377.72 313.163 378.363 310.216 378.845C307.268 379.327 304.321 379.568 301.374 379.568ZM309.492 355.55C309.331 352.979 308.367 350.998 306.598 349.605C304.83 348.159 302.392 347.436 299.284 347.436C296.229 347.436 293.818 348.159 292.049 349.605C290.281 351.051 289.316 353.033 289.156 355.55H309.492Z" fill="black"/>
<path d="M342.088 379.568C337.372 379.568 333.514 378.39 330.513 376.033C327.566 373.623 326.092 370.357 326.092 366.233C326.092 361.949 327.512 358.629 330.352 356.272C333.193 353.863 337.212 352.658 342.41 352.658C344.714 352.658 346.911 352.899 349.001 353.381C351.091 353.863 352.94 354.532 354.547 355.389V354.425C354.547 352.015 353.69 350.248 351.975 349.123C350.26 347.999 347.634 347.436 344.098 347.436C339.382 347.436 335.041 348.32 331.076 350.087V341.251C332.791 340.501 335.015 339.885 337.748 339.403C340.481 338.868 343.213 338.6 345.946 338.6C352.913 338.6 358.111 340.046 361.541 342.938C364.97 345.776 366.685 349.766 366.685 354.907V378.363H355.271V374.828C352.002 377.988 347.608 379.568 342.088 379.568ZM345.384 371.535C347.367 371.535 349.162 371.16 350.769 370.41C352.377 369.661 353.636 368.616 354.547 367.278V363.422C351.814 361.601 348.813 360.691 345.545 360.691C343.294 360.691 341.552 361.173 340.32 362.136C339.141 363.047 338.551 364.412 338.551 366.233C338.551 367.947 339.141 369.259 340.32 370.169C341.499 371.08 343.187 371.535 345.384 371.535Z" fill="black"/>
<path d="M374.72 339.805H386.456V345.348C388.01 343.473 390.18 342.054 392.967 341.09C395.753 340.073 398.915 339.564 402.452 339.564V348.802C398.754 348.802 395.485 349.364 392.645 350.489C389.859 351.613 387.929 353.327 386.858 355.63V378.363H374.72V339.805Z" fill="black"/>
<path d="M423.767 379.568C419.266 379.568 415.836 378.336 413.478 375.873C411.174 373.356 410.022 369.875 410.022 365.43V348.561H404.395V339.805H410.022V328.238H422.16V339.805H431.243V348.561H422.16V363.823C422.16 366.073 422.588 367.706 423.446 368.723C424.303 369.687 425.83 370.169 428.027 370.169C429.796 370.169 431.484 369.741 433.092 368.884V377.961C430.626 379.032 427.518 379.568 423.767 379.568Z" fill="black"/>
<path d="M438.696 319H450.833V344.223C452.655 342.349 454.718 340.956 457.023 340.046C459.327 339.082 461.792 338.6 464.418 338.6C469.669 338.6 473.581 340.019 476.154 342.858C478.779 345.642 480.092 349.418 480.092 354.184V378.363H467.955V355.55C467.955 350.569 465.65 348.079 461.042 348.079C459.005 348.079 457.103 348.588 455.335 349.605C453.566 350.569 452.066 352.015 450.833 353.943V378.363H438.696V319Z" fill="black"/>
<path d="M236.253 61.8781C236.152 61.0346 235.847 60.2284 235.364 59.5289C234.882 58.8295 234.237 58.2577 233.485 57.8628C228.32 55.1121 222.56 53.6704 216.708 53.6641C210.885 53.6823 205.151 55.097 199.987 57.7894C194.716 60.5387 190.208 64.5487 186.862 69.4623C183.517 74.3759 181.439 80.0406 180.813 85.9518C180.186 91.8631 181.032 97.8374 183.274 103.343C185.515 108.848 189.084 113.714 193.661 117.506C194.345 118.079 195.158 118.477 196.03 118.665C196.902 118.854 197.807 118.827 198.667 118.588C199.512 118.36 200.288 117.928 200.927 117.33C201.566 116.732 202.049 115.987 202.334 115.159C208.967 96.6321 219.996 79.9908 234.475 66.6636C235.136 66.069 235.643 65.3231 235.953 64.4896C236.263 63.6562 236.366 62.7601 236.253 61.8781Z" fill="#FFAB4D"/>
<path d="M235.208 54.6175C226.519 50.0533 216.448 48.8668 206.936 51.2866C197.424 53.7064 189.145 59.5613 183.693 67.7229C178.241 75.8845 176.003 85.7751 177.411 95.4886C178.818 105.202 183.771 114.051 191.314 120.33C192.975 121.704 195.063 122.457 197.218 122.457C199.104 122.455 200.944 121.871 202.486 120.785C204.029 119.698 205.198 118.163 205.836 116.388C212.262 98.4178 222.959 82.2785 237.005 69.3588C238.092 68.3631 238.923 67.1199 239.427 65.7346C239.932 64.3494 240.094 62.8629 239.902 61.4014C239.726 59.9756 239.207 58.6137 238.389 57.4322C237.572 56.2508 236.48 55.285 235.208 54.6175ZM202.37 115.123C202.086 115.95 201.603 116.696 200.964 117.294C200.324 117.891 199.548 118.323 198.703 118.551C197.844 118.79 196.939 118.817 196.067 118.629C195.195 118.44 194.382 118.042 193.698 117.47C189.121 113.677 185.552 108.812 183.31 103.306C181.069 97.8008 180.223 91.8264 180.849 85.9152C181.475 80.0039 183.554 74.3392 186.899 69.4257C190.245 64.5121 194.753 60.502 200.023 57.7528C205.187 55.0603 210.921 53.6456 216.745 53.6274C222.596 53.6338 228.357 55.0755 233.521 57.8261C234.274 58.2211 234.919 58.7928 235.401 59.4923C235.883 60.1918 236.188 60.998 236.29 61.8415C236.396 62.728 236.284 63.627 235.965 64.4607C235.645 65.2945 235.128 66.0379 234.456 66.6269C219.993 79.9706 208.982 96.6245 202.37 115.159V115.123Z" fill="black"/>
<path d="M348.555 5.27823C345.318 5.2804 342.097 5.73082 338.984 6.61667C333.77 8.07036 328.953 10.6841 324.892 14.2624C320.831 17.8407 317.632 22.2909 315.533 27.2801C315.163 28.1174 315.008 29.0339 315.082 29.9463C315.155 30.8588 315.456 31.7385 315.955 32.5056C316.424 33.2455 317.067 33.8595 317.827 34.2941C318.588 34.7288 319.443 34.9708 320.319 34.9992C339.961 35.7154 359.137 41.1825 376.204 50.9322C376.984 51.3844 377.864 51.6377 378.766 51.6697C379.668 51.7017 380.563 51.5114 381.374 51.1155C382.177 50.7325 382.875 50.1603 383.409 49.4482C383.942 48.736 384.294 47.9052 384.436 47.0269C385.262 41.8529 384.951 36.5611 383.524 31.5197C382.097 26.4783 379.588 21.8083 376.173 17.8348C372.758 13.8612 368.518 10.6795 363.749 8.51104C358.979 6.34255 353.794 5.23936 348.555 5.27823Z" fill="#FFA44B"/>
<path d="M384.491 23.8698C380.37 15.533 373.476 8.8898 364.992 5.0795C356.508 1.2692 346.963 0.529186 337.994 2.98636C332.243 4.5969 326.93 7.48664 322.454 11.4395C317.977 15.3924 314.452 20.3061 312.142 25.8133C311.555 27.2037 311.314 28.7153 311.438 30.219C311.563 31.7228 312.05 33.1742 312.857 34.4491C313.643 35.6934 314.723 36.7254 316.002 37.4543C317.281 38.1832 318.719 38.5868 320.191 38.6295C339.242 39.3168 357.841 44.6209 374.389 54.0858C375.674 54.8181 377.118 55.2285 378.596 55.2819C380.074 55.3353 381.544 55.0301 382.879 54.3924C384.213 53.7546 385.374 52.8034 386.262 51.6198C387.149 50.4361 387.737 49.0553 387.975 47.5952C389.29 39.5168 388.073 31.2293 384.491 23.8698ZM384.363 47.0085C384.231 47.8829 383.891 48.7127 383.371 49.4276C382.851 50.1426 382.166 50.7216 381.374 51.1155C380.571 51.496 379.688 51.6764 378.801 51.6413C377.913 51.6062 377.047 51.3566 376.277 50.9138C359.21 41.1642 340.034 35.6971 320.392 34.9808C319.517 34.9524 318.661 34.7104 317.901 34.2758C317.14 33.8412 316.497 33.2272 316.029 32.4872C315.529 31.7201 315.229 30.8405 315.155 29.928C315.082 29.0155 315.237 28.0991 315.607 27.2618C317.698 22.2623 320.895 17.8012 324.956 14.2131C329.017 10.6249 333.838 8.0028 339.057 6.54333C342.17 5.65749 345.391 5.20706 348.628 5.20489C353.868 5.17498 359.052 6.28745 363.819 8.46493C368.586 10.6424 372.821 13.8325 376.229 17.8133C379.637 21.794 382.137 26.4697 383.555 31.5149C384.972 36.5601 385.273 41.8536 384.436 47.0269L384.363 47.0085Z" fill="black"/>
<path d="M434.014 213.709L411.095 203.112L411.902 201.443C420.988 182.434 424.21 161.151 421.16 140.304C418.11 119.457 408.924 99.9896 394.773 84.3805C380.621 68.7714 362.145 57.727 341.696 52.6537C321.247 47.5803 299.751 48.7076 279.944 55.8919C260.138 63.0763 242.918 75.9926 230.477 92.9962C218.036 110 210.937 130.321 210.084 151.373C209.23 172.425 214.662 193.254 225.686 211.209C236.71 229.163 252.828 243.431 271.988 252.195L273.656 252.965L262.656 276.672C261.705 278.754 261.614 281.128 262.404 283.278C263.194 285.427 264.799 287.177 266.873 288.149L276.37 292.531C278.453 293.482 280.827 293.572 282.976 292.783C285.125 291.993 286.876 290.387 287.848 288.314L300.682 260.72L302.039 260.904C319.17 263.227 336.609 261.339 352.845 255.403C368.789 249.584 383.079 239.976 394.484 227.406L395.4 226.416L422.426 238.92C424.509 239.871 426.883 239.961 429.032 239.172C431.181 238.382 432.932 236.776 433.904 234.703L438.286 225.206C439.236 223.123 439.327 220.749 438.537 218.6C437.748 216.45 436.142 214.7 434.069 213.728L434.014 213.709ZM394.575 187.784L394.154 188.811C386.77 206.363 373.664 220.901 356.968 230.058C340.271 239.215 320.968 242.452 302.197 239.243C283.427 236.034 266.296 226.567 253.59 212.384C240.884 198.2 233.352 180.134 232.22 161.125V158.98C231.812 145.319 234.721 131.762 240.699 119.472C246.677 107.181 255.544 96.5223 266.543 88.4086L269.274 86.4285C274.921 82.6653 280.996 79.5878 287.371 77.261C301.449 72.107 316.644 70.7917 331.398 73.4499C346.152 76.1081 359.933 82.6442 371.327 92.3873L373.563 94.4225C386.148 106.006 394.906 121.149 398.669 137.835C402.433 154.52 401.024 171.956 394.63 187.821L394.575 187.784Z" fill="#FF6C37"/>
<path d="M441.879 217.321C441.327 215.802 440.479 214.407 439.383 213.217C438.288 212.028 436.968 211.067 435.499 210.391L415.936 201.333C424.929 181.658 427.909 159.764 424.501 138.4C421.094 117.037 411.451 97.1558 396.783 81.254C382.115 65.3522 363.076 54.1383 342.057 49.0201C321.037 43.9019 298.974 45.1076 278.638 52.4859C258.301 59.8642 240.598 73.0862 227.75 90.4916C214.903 107.897 207.483 128.71 206.424 150.318C205.365 171.926 210.713 193.365 221.797 211.943C232.881 230.522 249.207 245.411 268.724 254.743L259.3 275.132C257.943 278.098 257.811 281.48 258.934 284.542C260.056 287.605 262.343 290.1 265.296 291.486L274.793 295.868C276.259 296.55 277.845 296.933 279.459 296.996C281.074 297.059 282.685 296.8 284.199 296.235C285.72 295.685 287.117 294.838 288.307 293.742C289.497 292.647 290.456 291.325 291.13 289.854L302.772 264.717C320.075 266.836 337.633 264.812 354 258.813C370.07 252.958 384.522 243.376 396.171 230.853L420.776 242.22C423.739 243.577 427.119 243.708 430.178 242.586C433.238 241.463 435.73 239.176 437.112 236.225L441.513 226.727C442.193 225.262 442.576 223.676 442.639 222.061C442.702 220.447 442.444 218.836 441.879 217.321ZM438.212 225.187L433.83 234.685C432.859 236.758 431.108 238.364 428.959 239.153C426.81 239.943 424.436 239.852 422.353 238.902L395.327 226.397L394.41 227.387C383.006 239.958 368.716 249.566 352.772 255.385C336.535 261.321 319.096 263.209 301.966 260.885L300.609 260.702L287.774 288.296C286.803 290.369 285.052 291.975 282.903 292.764C280.754 293.554 278.38 293.464 276.297 292.513L266.799 288.131C264.726 287.159 263.12 285.408 262.331 283.259C261.541 281.11 261.631 278.736 262.582 276.653L273.583 252.946L271.915 252.176C252.758 243.4 236.647 229.122 225.632 211.16C214.617 193.198 209.196 172.364 210.06 151.311C210.924 130.258 218.033 109.938 230.483 92.9384C242.933 75.939 260.16 63.0289 279.971 55.8519C299.781 48.6748 321.28 47.5555 341.729 52.6364C362.178 57.7173 380.652 68.7686 394.8 84.3833C408.948 99.9979 418.129 119.469 421.174 140.319C424.22 161.169 420.992 182.453 411.902 201.462L411.095 203.13L434.014 213.728C436.087 214.7 437.693 216.45 438.482 218.6C439.272 220.749 439.182 223.123 438.231 225.206L438.212 225.187Z" fill="black"/>
<path d="M366.45 151.737C360.802 136.391 339.094 138.371 338.947 138.39H338.727C337.59 138.39 310.51 137.785 306.293 124.492C303.799 116.608 307.521 109.42 310.51 103.645C311.133 102.472 311.72 101.335 312.233 100.235C314.617 95.1376 321.969 93.7808 327.781 94.7342C330.836 95.2844 333.855 96.0191 336.82 96.9343C344.301 99.0612 352.02 101.261 358.272 97.7044C361.572 95.8709 364.378 94.3492 366.67 93.2857C353.645 82.9297 337.737 76.8547 321.124 75.8929C304.512 74.9312 288.009 79.1299 273.877 87.9136C275.522 89.0699 276.765 90.7107 277.434 92.6073C278.607 96.091 277.745 100.345 274.885 105.258C273.382 107.825 272.776 109.842 273.051 111.071C273.327 112.299 274.5 112.904 276.315 113.839C278.13 114.774 280.367 115.984 280.935 118.46C281.412 120.605 280.514 123.135 278.094 126.454C270.998 136.171 246.558 160.153 235.923 162.72C237.054 176.991 241.961 190.704 250.142 202.452C258.323 214.2 269.483 223.559 282.476 229.569C287.882 232.071 293.544 233.977 299.362 235.253C297.529 233.053 296.172 229.239 296.74 222.657C297.914 208.979 294.503 207.604 291.496 206.394L290.946 206.174C289.555 205.536 288.244 204.736 287.041 203.79C283.873 201.46 280.468 199.468 276.883 197.85C260.987 190.516 259.74 183.182 261.5 178.195C264.599 169.541 279.285 163.82 284.621 165.195C288.6 166.222 291.955 164.444 296.337 162.207C299.115 160.657 302.03 159.368 305.046 158.356C310.73 156.523 312.38 159.09 314.03 161.712C316.271 165.483 319.791 168.326 323.949 169.724C332.457 173.116 336.142 182.265 334.583 196.2C334.486 197.461 334.09 198.682 333.426 199.76C332.763 200.838 331.852 201.742 330.77 202.397C328.68 203.955 326.296 205.715 326.039 215.598C325.82 219.939 324.493 224.153 322.185 227.837C319.878 231.521 316.667 234.554 312.857 236.647L312.215 236.958C328.627 237.772 344.898 233.566 358.859 224.898C372.82 216.231 383.808 203.514 390.358 188.444C383.061 179.68 370.96 164.04 366.45 151.737Z" fill="#AFE2E3"/>
<path d="M395.51 127.279C390.889 114.725 383.347 103.45 373.508 94.3858L371.272 92.3506C359.878 82.6075 346.097 76.0714 331.343 73.4132C316.589 70.755 301.394 72.0703 287.316 77.2243C280.941 79.5511 274.866 82.6286 269.219 86.3918L266.488 88.372C255.489 96.4856 246.622 107.144 240.644 119.435C234.666 131.726 231.757 145.282 232.165 158.943V161.088C233.233 180.147 240.735 198.279 253.444 212.522C266.153 226.764 283.318 236.274 302.132 239.497C320.947 242.72 340.298 239.465 357.023 230.265C373.748 221.065 386.858 206.464 394.209 188.847L394.63 187.821C402.449 168.453 402.763 146.865 395.51 127.279ZM270.448 90.1138C272.029 90.8368 273.261 92.1545 273.877 93.7807C274.702 96.201 273.877 99.4279 271.64 103.407C269.549 106.982 268.871 109.732 269.531 112.061C269.981 113.199 270.663 114.23 271.535 115.089C272.406 115.948 273.447 116.615 274.592 117.048C275.912 117.763 277.158 118.423 277.36 119.266C277.488 119.816 277.36 121.21 275.142 124.272C266.414 136.226 243.771 156.651 235.832 159.016C235.409 145.558 238.354 132.206 244.399 120.174C250.444 108.142 259.398 97.8091 270.448 90.1138ZM303.359 233.896C301.031 232.338 300.004 228.396 300.462 222.895C301.764 207.769 297.639 204.817 292.927 202.929L292.431 202.727C291.3 202.177 290.23 201.507 289.241 200.728C285.889 198.264 282.288 196.156 278.497 194.44C271.163 191.029 262.784 185.639 265.021 179.368C267.478 172.529 280.367 167.799 283.777 168.679C289.113 170.054 293.477 167.781 298.097 165.379C300.683 163.94 303.395 162.743 306.201 161.803C309.226 160.85 309.501 161.29 311.023 163.637C313.663 168.06 317.79 171.4 322.666 173.061C331.265 176.49 331.962 187.271 331.008 195.723C330.967 196.485 330.729 197.223 330.318 197.866C329.906 198.508 329.336 199.033 328.661 199.39C325.434 201.81 322.739 204.67 322.446 215.451C322.261 219.14 321.134 222.72 319.173 225.849C317.212 228.978 314.482 231.553 311.243 233.328C308.126 234.96 305.248 235.161 303.359 233.896ZM344.209 232.063C334.009 235.836 323.15 237.501 312.288 236.958L312.93 236.646C316.74 234.554 319.951 231.521 322.259 227.837C324.566 224.153 325.893 219.939 326.113 215.598C326.369 205.715 328.753 203.955 330.843 202.397C331.926 201.742 332.837 200.838 333.5 199.76C334.163 198.682 334.56 197.461 334.657 196.2C336.215 182.265 332.53 173.116 324.023 169.724C319.864 168.326 316.345 165.483 314.103 161.712C312.398 159.09 310.803 156.615 305.119 158.356C302.104 159.368 299.188 160.657 296.41 162.207C292.083 164.444 288.673 166.222 284.694 165.195C279.359 163.82 264.672 169.541 261.574 178.195C259.74 183.109 261.06 190.497 276.957 197.85C280.542 199.468 283.946 201.46 287.114 203.79C288.318 204.736 289.629 205.536 291.02 206.174L291.57 206.394C294.577 207.604 297.987 208.979 296.814 222.657C296.245 229.239 297.657 233.053 299.435 235.253C293.617 233.977 287.955 232.071 282.549 229.569C269.556 223.559 258.396 214.2 250.215 202.452C242.035 190.704 237.127 176.991 235.997 162.72C246.557 160.153 270.998 136.171 278.167 126.454C280.587 123.135 281.486 120.605 281.009 118.46C280.44 115.984 278.295 114.793 276.388 113.839C274.482 112.886 273.455 112.189 273.125 111.071C272.795 109.952 273.381 107.825 274.958 105.258C277.819 100.345 278.625 96.091 277.507 92.6073C276.839 90.7107 275.595 89.0699 273.95 87.9136C288.067 79.1629 304.541 74.983 321.123 75.9445C337.704 76.906 353.585 82.962 366.596 93.2857C364.304 94.3491 361.499 95.8343 358.199 97.7044C351.947 101.261 344.228 99.0612 336.747 96.9343C333.781 96.0191 330.763 95.2844 327.708 94.7342C321.896 93.8174 314.543 95.1742 312.16 100.235C311.646 101.335 311.06 102.472 310.436 103.645C307.448 109.42 303.726 116.608 306.219 124.492C310.436 137.785 337.517 138.371 338.654 138.39H338.874C339.094 138.39 360.876 136.391 366.376 151.737C370.887 164.04 382.988 179.68 390.212 188.407C385.874 198.4 379.564 207.413 371.659 214.908C363.754 222.404 354.418 228.226 344.209 232.026V232.063ZM391.88 184.594C385.481 176.783 374.022 161.858 369.878 150.509C363.406 132.926 340.652 134.576 338.599 134.759C331.412 134.631 312.527 132.339 309.703 123.428C307.668 116.993 310.858 110.814 313.682 105.368C314.323 104.14 314.928 102.967 315.515 101.83C317 98.6212 322.647 97.6494 327.195 98.3645C330.101 98.886 332.972 99.584 335.794 100.455C343.604 102.692 352.442 105.222 360.051 100.895C363.184 99.056 366.416 97.3911 369.732 95.9076C381.99 106.694 390.68 120.952 394.649 136.791C398.618 152.63 397.678 169.301 391.953 184.594H391.88Z" fill="black"/>
<path d="M275.142 124.254C266.396 136.226 243.697 156.651 235.795 159.09C235.372 145.626 238.318 132.27 244.366 120.234C250.415 108.198 259.374 97.8638 270.429 90.1689C272.014 90.8929 273.252 92.2095 273.876 93.8359C274.701 96.2561 273.876 99.483 271.64 103.462C269.549 107.037 268.871 109.787 269.531 112.116C269.981 113.254 270.663 114.285 271.534 115.144C272.406 116.003 273.447 116.67 274.591 117.103C275.912 117.818 277.158 118.478 277.36 119.321C277.488 119.798 277.36 121.192 275.142 124.254ZM331.008 195.76C331.961 187.307 331.265 176.526 322.666 173.098C317.79 171.437 313.663 168.097 311.023 163.674C309.501 161.327 309.189 160.887 306.201 161.84C303.395 162.78 300.682 163.977 298.097 165.415C293.476 167.817 289.113 170.091 283.777 168.716C283.447 168.637 283.108 168.6 282.769 168.606C278.35 168.606 267.276 173.116 265.021 179.405C262.765 185.694 271.108 191.066 278.497 194.476C282.287 196.193 285.888 198.3 289.241 200.765C290.23 201.543 291.3 202.213 292.431 202.764L292.926 202.965C297.638 204.799 301.764 207.806 300.462 222.932C300.004 228.433 301.03 232.338 303.359 233.933C305.192 235.198 308.126 234.996 311.243 233.383C314.482 231.608 317.212 229.034 319.173 225.904C321.134 222.775 322.261 219.195 322.446 215.506C322.739 204.726 325.434 201.865 328.661 199.445C329.338 199.087 329.911 198.559 330.322 197.913C330.733 197.267 330.97 196.525 331.008 195.76ZM391.917 184.575C397.63 169.277 398.567 152.605 394.602 136.764C390.638 120.922 381.959 106.656 369.713 95.8527C366.393 97.3477 363.156 99.0186 360.014 100.858C352.405 105.185 343.512 102.692 335.757 100.418C332.936 99.5475 330.064 98.8494 327.158 98.3279C322.611 97.6129 316.963 98.5846 315.478 101.793C314.947 102.93 314.342 104.103 313.645 105.332C310.821 110.832 307.631 116.956 309.666 123.392C312.49 132.303 331.375 134.594 338.562 134.723C338.947 134.723 340.084 134.613 341.716 134.613C348.665 134.613 364.598 136.226 369.841 150.472C374.04 161.822 385.518 176.765 391.917 184.575Z" fill="#70D44B"/>
</svg>
