<svg width="410" height="372" viewBox="0 0 410 372" fill="none" xmlns="http://www.w3.org/2000/svg">
<rect width="410" height="372" fill="white"/>
<path d="M110 0L107.113 5L112.887 5L110 0ZM110 300L112.887 295L107.113 295L110 300ZM109.5 9L109.5 15L110.5 15L110.5 9L109.5 9ZM109.5 21L109.5 27L110.5 27L110.5 21L109.5 21ZM109.5 33L109.5 39L110.5 39L110.5 33L109.5 33ZM109.5 45L109.5 51L110.5 51L110.5 45L109.5 45ZM109.5 57L109.5 63L110.5 63L110.5 57L109.5 57ZM109.5 69L109.5 75L110.5 75L110.5 69L109.5 69ZM109.5 81L109.5 87L110.5 87L110.5 81L109.5 81ZM109.5 93L109.5 99L110.5 99L110.5 93L109.5 93ZM109.5 105L109.5 111L110.5 111L110.5 105L109.5 105ZM109.5 117L109.5 123L110.5 123L110.5 117L109.5 117ZM109.5 129L109.5 135L110.5 135L110.5 129L109.5 129ZM109.5 141L109.5 147L110.5 147L110.5 141L109.5 141ZM109.5 153L109.5 159L110.5 159L110.5 153L109.5 153ZM109.5 165L109.5 171L110.5 171L110.5 165L109.5 165ZM109.5 177L109.5 183L110.5 183L110.5 177L109.5 177ZM109.5 189L109.5 195L110.5 195L110.5 189L109.5 189ZM109.5 201L109.5 207L110.5 207L110.5 201L109.5 201ZM109.5 213L109.5 219L110.5 219L110.5 213L109.5 213ZM109.5 225L109.5 231L110.5 231L110.5 225L109.5 225ZM109.5 237L109.5 243L110.5 243L110.5 237L109.5 237ZM109.5 249L109.5 255L110.5 255L110.5 249L109.5 249ZM109.5 261L109.5 267L110.5 267L110.5 261L109.5 261ZM109.5 273L109.5 279L110.5 279L110.5 273L109.5 273ZM109.5 285L109.5 291L110.5 291L110.5 285L109.5 285Z" fill="#494949"/>
<path d="M138 320L143.011 322.868L142.989 317.095L138 320ZM408 319L402.989 316.132L403.011 321.905L408 319ZM140.937 320.489L141.437 320.487L141.433 319.487L140.933 319.489L140.937 320.489ZM146.802 319.467L146.302 319.469L146.306 320.469L146.806 320.467L146.802 319.467ZM152.676 320.446L153.176 320.444L153.172 319.444L152.672 319.446L152.676 320.446ZM158.542 319.424L158.042 319.426L158.045 320.426L158.545 320.424L158.542 319.424ZM164.415 320.402L164.915 320.4L164.911 319.4L164.411 319.402L164.415 320.402ZM170.281 319.38L169.781 319.382L169.784 320.382L170.284 320.38L170.281 319.38ZM176.154 320.359L176.654 320.357L176.65 319.357L176.15 319.359L176.154 320.359ZM182.02 319.337L181.52 319.339L181.524 320.339L182.024 320.337L182.02 319.337ZM187.893 320.315L188.393 320.313L188.389 319.313L187.889 319.315L187.893 320.315ZM193.759 319.293L193.259 319.295L193.263 320.295L193.763 320.293L193.759 319.293ZM199.632 320.272L200.132 320.27L200.129 319.27L199.629 319.272L199.632 320.272ZM205.498 319.25L204.998 319.252L205.002 320.252L205.502 320.25L205.498 319.25ZM211.371 320.228L211.871 320.226L211.868 319.226L211.368 319.228L211.371 320.228ZM217.237 319.207L216.737 319.208L216.741 320.208L217.241 320.207L217.237 319.207ZM223.111 320.185L223.611 320.183L223.607 319.183L223.107 319.185L223.111 320.185ZM228.976 319.163L228.476 319.165L228.48 320.165L228.98 320.163L228.976 319.163ZM234.85 320.141L235.35 320.139L235.346 319.139L234.846 319.141L234.85 320.141ZM240.716 319.12L240.216 319.121L240.219 320.121L240.719 320.12L240.716 319.12ZM246.589 320.098L247.089 320.096L247.085 319.096L246.585 319.098L246.589 320.098ZM252.455 319.076L251.955 319.078L251.958 320.078L252.458 320.076L252.455 319.076ZM258.328 320.054L258.828 320.052L258.824 319.052L258.324 319.054L258.328 320.054ZM264.194 319.033L263.694 319.034L263.698 320.034L264.198 320.033L264.194 319.033ZM270.067 320.011L270.567 320.009L270.563 319.009L270.063 319.011L270.067 320.011ZM275.933 318.989L275.433 318.991L275.437 319.991L275.937 319.989L275.933 318.989ZM281.806 319.967L282.306 319.966L282.302 318.966L281.802 318.967L281.806 319.967ZM287.672 318.946L287.172 318.948L287.176 319.948L287.676 319.946L287.672 318.946ZM293.545 319.924L294.045 319.922L294.042 318.922L293.542 318.924L293.545 319.924ZM299.411 318.902L298.911 318.904L298.915 319.904L299.415 319.902L299.411 318.902ZM305.284 319.88L305.784 319.879L305.781 318.879L305.281 318.88L305.284 319.88ZM311.15 318.859L310.65 318.861L310.654 319.861L311.154 319.859L311.15 318.859ZM317.024 319.837L317.524 319.835L317.52 318.835L317.02 318.837L317.024 319.837ZM322.889 318.815L322.389 318.817L322.393 319.817L322.893 319.815L322.889 318.815ZM328.763 319.793L329.263 319.792L329.259 318.792L328.759 318.793L328.763 319.793ZM334.629 318.772L334.129 318.774L334.132 319.774L334.632 319.772L334.629 318.772ZM340.502 319.75L341.002 319.748L340.998 318.748L340.498 318.75L340.502 319.75ZM346.368 318.728L345.868 318.73L345.871 319.73L346.371 319.728L346.368 318.728ZM352.241 319.707L352.741 319.705L352.737 318.705L352.237 318.707L352.241 319.707ZM358.107 318.685L357.607 318.687L357.61 319.687L358.11 319.685L358.107 318.685ZM363.98 319.663L364.48 319.661L364.476 318.661L363.976 318.663L363.98 319.663ZM369.846 318.641L369.346 318.643L369.35 319.643L369.85 319.641L369.846 318.641ZM375.719 319.62L376.219 319.618L376.215 318.618L375.715 318.62L375.719 319.62ZM381.585 318.598L381.085 318.6L381.089 319.6L381.589 319.598L381.585 318.598ZM387.458 319.576L387.958 319.574L387.955 318.574L387.455 318.576L387.458 319.576ZM393.324 318.554L392.824 318.556L392.828 319.556L393.328 319.554L393.324 318.554ZM399.197 319.533L399.697 319.531L399.694 318.531L399.194 318.533L399.197 319.533ZM405.063 318.511L404.563 318.513L404.567 319.513L405.067 319.511L405.063 318.511ZM146.806 320.467L152.676 320.446L152.672 319.446L146.802 319.467L146.806 320.467ZM158.545 320.424L164.415 320.402L164.411 319.402L158.542 319.424L158.545 320.424ZM170.284 320.38L176.154 320.359L176.15 319.359L170.281 319.38L170.284 320.38ZM182.024 320.337L187.893 320.315L187.889 319.315L182.02 319.337L182.024 320.337ZM193.763 320.293L199.632 320.272L199.629 319.272L193.759 319.293L193.763 320.293ZM205.502 320.25L211.371 320.228L211.368 319.228L205.498 319.25L205.502 320.25ZM217.241 320.207L223.111 320.185L223.107 319.185L217.237 319.207L217.241 320.207ZM228.98 320.163L234.85 320.141L234.846 319.141L228.976 319.163L228.98 320.163ZM240.719 320.12L246.589 320.098L246.585 319.098L240.716 319.12L240.719 320.12ZM252.458 320.076L258.328 320.054L258.324 319.054L252.455 319.076L252.458 320.076ZM264.198 320.033L270.067 320.011L270.063 319.011L264.194 319.033L264.198 320.033ZM275.937 319.989L281.806 319.967L281.802 318.967L275.933 318.989L275.937 319.989ZM287.676 319.946L293.545 319.924L293.542 318.924L287.672 318.946L287.676 319.946ZM299.415 319.902L305.284 319.88L305.281 318.88L299.411 318.902L299.415 319.902ZM311.154 319.859L317.024 319.837L317.02 318.837L311.15 318.859L311.154 319.859ZM322.893 319.815L328.763 319.793L328.759 318.793L322.889 318.815L322.893 319.815ZM334.632 319.772L340.502 319.75L340.498 318.75L334.629 318.772L334.632 319.772ZM346.371 319.728L352.241 319.707L352.237 318.707L346.368 318.728L346.371 319.728ZM358.11 319.685L363.98 319.663L363.976 318.663L358.107 318.685L358.11 319.685ZM369.85 319.641L375.719 319.62L375.715 318.62L369.846 318.641L369.85 319.641ZM381.589 319.598L387.458 319.576L387.455 318.576L381.585 318.598L381.589 319.598ZM393.328 319.554L399.197 319.533L399.194 318.533L393.324 318.554L393.328 319.554Z" fill="#494949"/>
<path d="M254.446 363.216C253.326 363.216 252.262 363.048 251.254 362.712C250.246 362.36 249.398 361.856 248.71 361.2L249.43 359.64C250.214 360.28 251.006 360.744 251.806 361.032C252.606 361.32 253.47 361.464 254.398 361.464C255.614 361.464 256.542 361.2 257.182 360.672C257.838 360.128 258.166 359.336 258.166 358.296C258.166 357.304 257.838 356.552 257.182 356.04C256.526 355.528 255.574 355.272 254.326 355.272H251.83V353.568H254.158C255.246 353.568 256.102 353.288 256.726 352.728C257.366 352.152 257.686 351.368 257.686 350.376C257.686 349.496 257.39 348.816 256.798 348.336C256.222 347.856 255.398 347.616 254.326 347.616C252.566 347.616 251.03 348.256 249.718 349.536L248.998 348C249.622 347.328 250.414 346.808 251.374 346.44C252.35 346.056 253.374 345.864 254.446 345.864C256.078 345.864 257.35 346.248 258.262 347.016C259.19 347.784 259.654 348.848 259.654 350.208C259.654 351.152 259.414 351.984 258.934 352.704C258.454 353.408 257.79 353.92 256.942 354.24C257.95 354.512 258.734 355.016 259.294 355.752C259.854 356.472 260.134 357.368 260.134 358.44C260.134 359.896 259.622 361.056 258.598 361.92C257.59 362.784 256.206 363.216 254.446 363.216ZM269.028 363.216C267.092 363.216 265.62 362.472 264.612 360.984C263.604 359.496 263.1 357.344 263.1 354.528C263.1 351.696 263.604 349.544 264.612 348.072C265.62 346.6 267.092 345.864 269.028 345.864C270.98 345.864 272.452 346.6 273.444 348.072C274.452 349.528 274.956 351.672 274.956 354.504C274.956 357.336 274.444 359.496 273.42 360.984C272.412 362.472 270.948 363.216 269.028 363.216ZM269.028 361.512C270.372 361.512 271.364 360.944 272.004 359.808C272.66 358.672 272.988 356.904 272.988 354.504C272.988 352.104 272.668 350.352 272.028 349.248C271.388 348.128 270.388 347.568 269.028 347.568C267.684 347.568 266.684 348.128 266.028 349.248C265.388 350.368 265.068 352.12 265.068 354.504C265.068 356.904 265.388 358.672 266.028 359.808C266.684 360.944 267.684 361.512 269.028 361.512ZM278.043 367.32V351.336H279.939V353.424C280.291 352.704 280.811 352.144 281.499 351.744C282.203 351.328 283.019 351.12 283.947 351.12C284.987 351.12 285.891 351.368 286.659 351.864C287.443 352.344 288.043 353.04 288.459 353.952C288.891 354.848 289.107 355.92 289.107 357.168C289.107 358.4 288.891 359.472 288.459 360.384C288.043 361.28 287.443 361.976 286.659 362.472C285.891 362.968 284.987 363.216 283.947 363.216C283.051 363.216 282.251 363.016 281.547 362.616C280.843 362.216 280.323 361.664 279.987 360.96V367.32H278.043ZM283.539 361.656C284.627 361.656 285.499 361.272 286.155 360.504C286.811 359.72 287.139 358.608 287.139 357.168C287.139 355.712 286.811 354.6 286.155 353.832C285.499 353.064 284.627 352.68 283.539 352.68C282.451 352.68 281.579 353.064 280.923 353.832C280.267 354.6 279.939 355.712 279.939 357.168C279.939 358.608 280.267 359.72 280.923 360.504C281.579 361.272 282.451 361.656 283.539 361.656ZM290.289 363L295.137 356.976L290.577 351.336H292.881L296.265 355.632L299.673 351.336H301.953L297.393 356.976L302.241 363H299.937L296.241 358.368L292.593 363H290.289Z" fill="black"/>
<path d="M7.32441 158.216C6.20441 158.216 5.14041 158.048 4.13241 157.712C3.12441 157.36 2.27641 156.856 1.58841 156.2L2.30841 154.64C3.09241 155.28 3.88441 155.744 4.68441 156.032C5.48441 156.32 6.34841 156.464 7.27641 156.464C8.49241 156.464 9.42041 156.2 10.0604 155.672C10.7164 155.128 11.0444 154.336 11.0444 153.296C11.0444 152.304 10.7164 151.552 10.0604 151.04C9.40441 150.528 8.45241 150.272 7.20441 150.272H4.70841V148.568H7.03641C8.12441 148.568 8.98041 148.288 9.60441 147.728C10.2444 147.152 10.5644 146.368 10.5644 145.376C10.5644 144.496 10.2684 143.816 9.67641 143.336C9.10041 142.856 8.27641 142.616 7.20441 142.616C5.44441 142.616 3.90841 143.256 2.59641 144.536L1.87641 143C2.50041 142.328 3.29241 141.808 4.25241 141.44C5.22841 141.056 6.25241 140.864 7.32441 140.864C8.95641 140.864 10.2284 141.248 11.1404 142.016C12.0684 142.784 12.5324 143.848 12.5324 145.208C12.5324 146.152 12.2924 146.984 11.8124 147.704C11.3324 148.408 10.6684 148.92 9.82041 149.24C10.8284 149.512 11.6124 150.016 12.1724 150.752C12.7324 151.472 13.0124 152.368 13.0124 153.44C13.0124 154.896 12.5004 156.056 11.4764 156.92C10.4684 157.784 9.08441 158.216 7.32441 158.216ZM21.715 158.216C20.595 158.216 19.531 158.048 18.523 157.712C17.515 157.36 16.667 156.856 15.979 156.2L16.699 154.64C17.483 155.28 18.275 155.744 19.075 156.032C19.875 156.32 20.739 156.464 21.667 156.464C22.883 156.464 23.811 156.2 24.451 155.672C25.107 155.128 25.435 154.336 25.435 153.296C25.435 152.304 25.107 151.552 24.451 151.04C23.795 150.528 22.843 150.272 21.595 150.272H19.099V148.568H21.427C22.515 148.568 23.371 148.288 23.995 147.728C24.635 147.152 24.955 146.368 24.955 145.376C24.955 144.496 24.659 143.816 24.067 143.336C23.491 142.856 22.667 142.616 21.595 142.616C19.835 142.616 18.299 143.256 16.987 144.536L16.267 143C16.891 142.328 17.683 141.808 18.643 141.44C19.619 141.056 20.643 140.864 21.715 140.864C23.347 140.864 24.619 141.248 25.531 142.016C26.459 142.784 26.923 143.848 26.923 145.208C26.923 146.152 26.683 146.984 26.203 147.704C25.723 148.408 25.059 148.92 24.211 149.24C25.219 149.512 26.003 150.016 26.563 150.752C27.123 151.472 27.403 152.368 27.403 153.44C27.403 154.896 26.891 156.056 25.867 156.92C24.859 157.784 23.475 158.216 21.715 158.216ZM30.6097 158V155.552H33.0577V158H30.6097ZM41.5666 158.216C40.4466 158.216 39.3826 158.048 38.3746 157.712C37.3666 157.36 36.5186 156.856 35.8306 156.2L36.5506 154.64C37.3346 155.28 38.1266 155.744 38.9266 156.032C39.7266 156.32 40.5906 156.464 41.5186 156.464C42.7346 156.464 43.6626 156.2 44.3026 155.672C44.9586 155.128 45.2866 154.336 45.2866 153.296C45.2866 152.304 44.9586 151.552 44.3026 151.04C43.6466 150.528 42.6946 150.272 41.4466 150.272H38.9506V148.568H41.2786C42.3666 148.568 43.2226 148.288 43.8466 147.728C44.4866 147.152 44.8066 146.368 44.8066 145.376C44.8066 144.496 44.5106 143.816 43.9186 143.336C43.3426 142.856 42.5186 142.616 41.4466 142.616C39.6866 142.616 38.1506 143.256 36.8386 144.536L36.1186 143C36.7426 142.328 37.5346 141.808 38.4946 141.44C39.4706 141.056 40.4946 140.864 41.5666 140.864C43.1986 140.864 44.4706 141.248 45.3826 142.016C46.3106 142.784 46.7746 143.848 46.7746 145.208C46.7746 146.152 46.5346 146.984 46.0546 147.704C45.5746 148.408 44.9106 148.92 44.0626 149.24C45.0706 149.512 45.8546 150.016 46.4146 150.752C46.9746 151.472 47.2546 152.368 47.2546 153.44C47.2546 154.896 46.7426 156.056 45.7186 156.92C44.7106 157.784 43.3266 158.216 41.5666 158.216ZM56.5092 158.216C55.4212 158.216 54.3812 158.04 53.3892 157.688C52.3972 157.336 51.5572 156.84 50.8692 156.2L51.6132 154.64C53.1012 155.856 54.7252 156.464 56.4852 156.464C57.6532 156.464 58.5732 156.136 59.2452 155.48C59.9172 154.824 60.2532 153.96 60.2532 152.888C60.2532 151.784 59.9332 150.88 59.2932 150.176C58.6532 149.472 57.7732 149.12 56.6532 149.12C55.0372 149.12 53.7652 149.792 52.8372 151.136H51.3972V141.08H61.2132V142.76H53.3412V148.808C54.2692 147.88 55.4932 147.416 57.0132 147.416C58.0692 147.416 58.9892 147.64 59.7732 148.088C60.5572 148.536 61.1572 149.168 61.5732 149.984C62.0052 150.784 62.2212 151.72 62.2212 152.792C62.2212 153.848 61.9892 154.784 61.5252 155.6C61.0612 156.416 60.3972 157.056 59.5332 157.52C58.6852 157.984 57.6772 158.216 56.5092 158.216ZM65.1638 162.32V146.336H67.0598V148.424C67.4118 147.704 67.9318 147.144 68.6198 146.744C69.3238 146.328 70.1398 146.12 71.0678 146.12C72.1078 146.12 73.0118 146.368 73.7798 146.864C74.5638 147.344 75.1638 148.04 75.5798 148.952C76.0118 149.848 76.2278 150.92 76.2278 152.168C76.2278 153.4 76.0118 154.472 75.5798 155.384C75.1638 156.28 74.5638 156.976 73.7798 157.472C73.0118 157.968 72.1078 158.216 71.0678 158.216C70.1718 158.216 69.3718 158.016 68.6678 157.616C67.9638 157.216 67.4438 156.664 67.1078 155.96V162.32H65.1638ZM70.6598 156.656C71.7478 156.656 72.6198 156.272 73.2758 155.504C73.9318 154.72 74.2598 153.608 74.2598 152.168C74.2598 150.712 73.9318 149.6 73.2758 148.832C72.6198 148.064 71.7478 147.68 70.6598 147.68C69.5718 147.68 68.6998 148.064 68.0438 148.832C67.3878 149.6 67.0598 150.712 67.0598 152.168C67.0598 153.608 67.3878 154.72 68.0438 155.504C68.6998 156.272 69.5718 156.656 70.6598 156.656ZM77.4102 158L82.2582 151.976L77.6982 146.336H80.0022L83.3862 150.632L86.7942 146.336H89.0742L84.5142 151.976L89.3622 158H87.0582L83.3622 153.368L79.7142 158H77.4102Z" fill="black"/>
<path d="M200.189 61.2458C200.085 60.3893 199.775 59.5707 199.286 58.8604C198.796 58.1501 198.14 57.5695 197.376 57.1685C192.13 54.3755 186.279 52.9115 180.335 52.9051C174.42 52.9235 168.595 54.3601 163.35 57.094C157.996 59.8857 153.416 63.9576 150.018 68.947C146.62 73.9364 144.509 79.6884 143.873 85.6909C143.237 91.6933 144.096 97.7599 146.373 103.35C148.65 108.941 152.275 113.881 156.924 117.732C157.619 118.314 158.445 118.718 159.331 118.909C160.217 119.1 161.136 119.073 162.009 118.831C162.867 118.599 163.655 118.16 164.305 117.553C164.954 116.946 165.445 116.189 165.734 115.349C172.471 96.5359 183.675 79.6379 198.382 66.1051C199.054 65.5014 199.569 64.7439 199.883 63.8976C200.198 63.0513 200.303 62.1414 200.189 61.2458Z" fill="#FFAB4D"/>
<path d="M199.127 53.8732C190.301 49.2386 180.071 48.0338 170.409 50.4909C160.747 52.9481 152.336 58.8932 146.799 67.1807C141.261 75.4682 138.988 85.5115 140.417 95.3748C141.847 105.238 146.878 114.224 154.54 120.599C156.227 121.995 158.348 122.759 160.537 122.759C162.453 122.757 164.322 122.164 165.889 121.061C167.455 119.958 168.643 118.399 169.291 116.596C175.819 98.3492 186.684 81.9609 200.952 68.8419C202.056 67.8308 202.9 66.5684 203.413 65.1618C203.925 63.7552 204.09 62.2458 203.895 60.7617C203.716 59.3139 203.189 57.931 202.358 56.7313C201.528 55.5317 200.419 54.551 199.127 53.8732ZM165.771 115.312C165.482 116.152 164.991 116.909 164.342 117.516C163.693 118.123 162.904 118.562 162.046 118.793C161.173 119.036 160.254 119.063 159.368 118.872C158.482 118.68 157.656 118.276 156.962 117.695C152.312 113.844 148.687 108.903 146.41 103.313C144.133 97.7226 143.274 91.6561 143.91 85.6537C144.546 79.6512 146.657 73.8992 150.055 68.9098C153.454 63.9204 158.033 59.8485 163.387 57.0568C168.632 54.3228 174.457 52.8863 180.372 52.8678C186.316 52.8743 192.167 54.3382 197.414 57.1313C198.178 57.5323 198.833 58.1129 199.323 58.8232C199.813 59.5334 200.123 60.3521 200.226 61.2086C200.333 62.1088 200.22 63.0216 199.895 63.8683C199.571 64.7149 199.045 65.4698 198.363 66.0678C183.671 79.6174 172.487 96.5282 165.771 115.349V115.312Z" fill="black"/>
<path d="M314.263 3.7728C310.975 3.775 307.703 4.23237 304.541 5.13189C299.245 6.608 294.351 9.26209 290.226 12.8956C286.101 16.5291 282.852 21.0479 280.72 26.1141C280.344 26.9643 280.187 27.8949 280.261 28.8214C280.336 29.748 280.641 30.6412 281.149 31.4202C281.625 32.1715 282.278 32.795 283.05 33.2363C283.823 33.6776 284.692 33.9234 285.581 33.9522C305.533 34.6795 325.012 40.231 342.348 50.131C343.141 50.5903 344.035 50.8475 344.951 50.8799C345.867 50.9124 346.777 50.7192 347.6 50.3172C348.416 49.9282 349.125 49.3472 349.667 48.6241C350.208 47.901 350.567 47.0573 350.71 46.1655C351.549 40.9117 351.233 35.5383 349.784 30.4191C348.334 25.2999 345.786 20.5579 342.317 16.5231C338.848 12.4882 334.541 9.25743 329.696 7.05548C324.851 4.85354 319.585 3.73334 314.263 3.7728Z" fill="#FFA44B"/>
<path d="M350.766 22.6512C346.58 14.1857 339.577 7.44008 330.959 3.57101C322.342 -0.298068 312.646 -1.0495 303.535 1.44557C297.693 3.08096 292.297 6.01528 287.75 10.0291C283.202 14.043 279.621 19.0325 277.275 24.6247C276.679 26.0365 276.434 27.5714 276.56 29.0984C276.687 30.6254 277.181 32.0991 278.001 33.3937C278.8 34.6571 279.897 35.7051 281.196 36.4452C282.495 37.1854 283.956 37.5952 285.451 37.6385C304.803 38.3365 323.695 43.7224 340.504 53.3333C341.81 54.0769 343.276 54.4936 344.778 54.5478C346.28 54.602 347.772 54.2921 349.128 53.6446C350.484 52.997 351.663 52.0311 352.565 50.8292C353.466 49.6273 354.063 48.2252 354.305 46.7426C355.641 38.5395 354.404 30.1242 350.766 22.6512ZM350.636 46.1468C350.502 47.0347 350.157 47.8773 349.628 48.6033C349.1 49.3292 348.404 49.9172 347.6 50.3172C346.785 50.7036 345.888 50.8867 344.986 50.8511C344.085 50.8154 343.205 50.562 342.423 50.1124C325.086 40.2124 305.608 34.6609 285.656 33.9336C284.766 33.9048 283.898 33.659 283.125 33.2177C282.352 32.7764 281.699 32.1529 281.223 31.4015C280.716 30.6226 280.411 29.7294 280.336 28.8028C280.261 27.8763 280.419 26.9457 280.795 26.0955C282.919 21.0189 286.166 16.489 290.291 12.8455C294.417 9.20197 299.314 6.53941 304.615 5.05742C307.778 4.15791 311.049 3.70054 314.337 3.69833C319.66 3.66795 324.926 4.7976 329.768 7.00866C334.61 9.21972 338.912 12.4591 342.374 16.5012C345.836 20.5433 348.375 25.2912 349.815 30.4142C351.255 35.5372 351.56 40.9124 350.71 46.1655L350.636 46.1468Z" fill="black"/>
<path d="M401.071 215.419L377.79 204.658L378.61 202.964C387.839 183.662 391.113 162.05 388.014 140.882C384.915 119.713 375.585 99.9452 361.21 84.0953C346.836 68.2455 328.067 57.0307 307.296 51.8791C286.524 46.7275 264.688 47.8721 244.569 55.1673C224.45 62.4624 206.959 75.578 194.321 92.8439C181.684 110.11 174.473 130.745 173.606 152.121C172.739 173.498 178.256 194.648 189.454 212.88C200.652 231.112 217.025 245.599 236.487 254.498L238.182 255.28L227.008 279.353C226.042 281.468 225.95 283.878 226.752 286.061C227.554 288.243 229.185 290.021 231.291 291.007L240.939 295.457C243.054 296.423 245.466 296.514 247.649 295.713C249.832 294.911 251.61 293.28 252.597 291.175L265.634 263.155L267.013 263.342C284.414 265.701 302.128 263.784 318.621 257.756C334.816 251.848 349.332 242.091 360.917 229.327L361.848 228.321L389.3 241.019C391.416 241.984 393.827 242.076 396.01 241.274C398.193 240.472 399.972 238.842 400.959 236.737L405.41 227.093C406.376 224.978 406.468 222.567 405.665 220.385C404.863 218.203 403.232 216.425 401.126 215.438L401.071 215.419ZM361.01 189.094L360.581 190.136C353.081 207.96 339.768 222.722 322.808 232.02C305.849 241.318 286.24 244.605 267.174 241.347C248.107 238.088 230.705 228.476 217.799 214.073C204.892 199.67 197.242 181.326 196.091 162.024V159.845C195.677 145.973 198.632 132.208 204.704 119.728C210.776 107.247 219.784 96.4244 230.956 88.1856L233.731 86.1749C239.467 82.3537 245.638 79.2287 252.113 76.866C266.413 71.6325 281.848 70.2969 296.835 72.9961C311.822 75.6953 325.82 82.3322 337.394 92.2257L339.666 94.2922C352.45 106.055 361.345 121.431 365.168 138.374C368.991 155.317 367.56 173.022 361.066 189.131L361.01 189.094Z" fill="#FF6C37"/>
<path d="M409.06 219.087C408.499 217.544 407.637 216.127 406.525 214.919C405.412 213.711 404.071 212.736 402.579 212.05L382.707 202.852C391.842 182.873 394.869 160.641 391.408 138.948C387.947 117.255 378.152 97.0677 363.252 80.9206C348.353 64.7735 329.013 53.3866 307.662 48.1894C286.311 42.9923 263.9 44.2166 243.242 51.7087C222.585 59.2008 204.602 72.6267 191.551 90.3007C178.501 107.975 170.965 129.109 169.889 151.05C168.813 172.991 174.246 194.761 185.505 213.626C196.763 232.491 213.347 247.61 233.172 257.086L223.599 277.789C222.22 280.801 222.086 284.235 223.227 287.345C224.367 290.455 226.69 292.989 229.69 294.396L239.337 298.846C240.825 299.537 242.436 299.927 244.077 299.991C245.717 300.054 247.353 299.792 248.891 299.218C250.436 298.66 251.855 297.799 253.063 296.687C254.272 295.574 255.247 294.232 255.931 292.739L267.758 267.214C285.333 269.365 303.169 267.31 319.794 261.219C336.117 255.273 350.797 245.543 362.63 232.827L387.624 244.37C390.634 245.748 394.067 245.881 397.175 244.741C400.283 243.601 402.814 241.279 404.218 238.282L408.688 228.638C409.379 227.15 409.768 225.539 409.832 223.9C409.896 222.26 409.634 220.625 409.06 219.087ZM405.336 227.074L400.884 236.718C399.897 238.823 398.119 240.454 395.936 241.256C393.753 242.057 391.341 241.966 389.226 241L361.773 228.303L360.842 229.308C349.258 242.072 334.742 251.829 318.546 257.738C302.053 263.765 284.339 265.682 266.938 263.323L265.56 263.137L252.523 291.156C251.536 293.261 249.757 294.892 247.574 295.694C245.391 296.496 242.98 296.404 240.864 295.439L231.217 290.989C229.111 290.002 227.48 288.224 226.678 286.042C225.876 283.86 225.967 281.449 226.933 279.334L238.108 255.261L236.413 254.479C216.954 245.568 200.589 231.07 189.4 212.83C178.211 194.591 172.704 173.436 173.582 152.058C174.459 130.68 181.681 110.047 194.327 92.7853C206.973 75.5236 224.472 62.4144 244.596 55.1266C264.719 47.8389 286.557 46.7023 307.329 51.8616C328.101 57.0209 346.867 68.2426 361.238 84.0981C375.609 99.9537 384.935 119.726 388.029 140.897C391.122 162.068 387.843 183.68 378.61 202.983L377.79 204.677L401.071 215.438C403.176 216.425 404.808 218.203 405.61 220.385C406.412 222.567 406.32 224.978 405.354 227.093L405.336 227.074Z" fill="black"/>
<path d="M332.44 152.491C326.704 136.908 304.652 138.919 304.503 138.938H304.28C303.125 138.938 275.617 138.323 271.333 124.825C268.801 116.82 272.581 109.522 275.617 103.657C276.25 102.465 276.846 101.311 277.368 100.194C279.789 95.0183 287.257 93.6406 293.161 94.6087C296.264 95.1674 299.33 95.9134 302.343 96.8428C309.942 99.0025 317.783 101.237 324.133 97.6248C327.486 95.763 330.335 94.2178 332.663 93.1379C319.433 82.6222 303.274 76.4534 286.399 75.4768C269.525 74.5003 252.761 78.7637 238.406 87.6829C240.077 88.8571 241.34 90.5232 242.019 92.4491C243.211 95.9864 242.335 100.306 239.43 105.295C237.903 107.902 237.288 109.95 237.568 111.197C237.847 112.445 239.039 113.059 240.883 114.008C242.727 114.958 244.999 116.187 245.576 118.7C246.06 120.878 245.148 123.448 242.689 126.817C235.482 136.685 210.655 161.037 199.853 163.643C201.002 178.134 205.987 192.059 214.297 203.988C222.607 215.917 233.942 225.421 247.141 231.524C252.632 234.064 258.383 235.999 264.293 237.295C262.431 235.061 261.053 231.189 261.63 224.505C262.822 210.616 259.358 209.22 256.304 207.991L255.745 207.768C254.332 207.12 253 206.307 251.778 205.347C248.56 202.98 245.101 200.959 241.46 199.315C225.313 191.868 224.046 184.421 225.834 179.357C228.982 170.569 243.9 164.76 249.32 166.157C253.361 167.199 256.769 165.393 261.22 163.122C264.042 161.548 267.004 160.24 270.067 159.212C275.841 157.351 277.517 159.957 279.193 162.619C281.47 166.449 285.045 169.336 289.269 170.755C297.91 174.2 301.654 183.49 300.071 197.639C299.972 198.921 299.569 200.16 298.896 201.254C298.222 202.349 297.297 203.267 296.197 203.932C294.074 205.515 291.653 207.302 291.392 217.337C291.169 221.745 289.821 226.024 287.477 229.765C285.133 233.506 281.871 236.585 278.001 238.71L277.349 239.027C294.021 239.853 310.548 235.582 324.729 226.781C338.911 217.98 350.072 205.067 356.726 189.764C349.314 180.865 337.022 164.984 332.44 152.491Z" fill="#AFE2E3"/>
<path d="M361.96 127.655C357.265 114.908 349.604 103.459 339.61 94.255L337.338 92.1884C325.765 82.2949 311.766 75.6581 296.779 72.9588C281.793 70.2596 266.357 71.5953 252.057 76.8287C245.582 79.1914 239.411 82.3164 233.675 86.1376L230.9 88.1484C219.728 96.3872 210.721 107.21 204.648 119.69C198.576 132.171 195.621 145.936 196.035 159.808V161.986C197.121 181.339 204.741 199.751 217.651 214.213C230.561 228.675 247.996 238.332 267.108 241.605C286.219 244.877 305.876 241.573 322.865 232.231C339.854 222.888 353.17 208.062 360.637 190.174L361.066 189.131C369.008 169.465 369.327 147.544 361.96 127.655ZM234.923 89.917C236.529 90.6512 237.781 91.9893 238.406 93.6406C239.244 96.0981 238.406 99.3749 236.134 103.415C234.01 107.045 233.321 109.838 233.992 112.202C234.448 113.358 235.142 114.405 236.027 115.277C236.912 116.149 237.97 116.827 239.132 117.267C240.473 117.993 241.739 118.663 241.944 119.519C242.075 120.078 241.944 121.493 239.691 124.602C230.826 136.741 207.825 157.481 199.76 159.883C199.331 146.216 202.323 132.659 208.463 120.441C214.604 108.223 223.699 97.7311 234.923 89.917ZM268.354 235.918C265.988 234.335 264.945 230.332 265.411 224.747C266.733 209.387 262.543 206.39 257.756 204.472L257.254 204.267C256.104 203.709 255.017 203.028 254.013 202.238C250.607 199.735 246.95 197.595 243.099 195.852C235.649 192.389 227.138 186.916 229.41 180.548C231.906 173.604 244.999 168.8 248.463 169.694C253.882 171.09 258.315 168.782 263.008 166.343C265.635 164.882 268.391 163.667 271.24 162.712C274.313 161.744 274.593 162.191 276.139 164.574C278.82 169.066 283.012 172.458 287.965 174.144C296.7 177.625 297.408 188.573 296.439 197.155C296.397 197.929 296.156 198.678 295.738 199.331C295.32 199.984 294.74 200.517 294.055 200.879C290.777 203.336 288.04 206.241 287.742 217.188C287.554 220.934 286.41 224.568 284.417 227.746C282.425 230.924 279.652 233.538 276.362 235.34C273.196 236.997 270.272 237.202 268.354 235.918ZM309.849 234.056C299.488 237.887 288.457 239.578 277.424 239.027L278.076 238.71C281.946 236.585 285.208 233.506 287.552 229.765C289.895 226.024 291.243 221.745 291.466 217.337C291.727 207.302 294.148 205.515 296.271 203.932C297.371 203.267 298.296 202.349 298.97 201.254C299.644 200.16 300.047 198.921 300.145 197.639C301.728 183.49 297.985 174.2 289.343 170.755C285.119 169.336 281.544 166.449 279.267 162.619C277.535 159.957 275.915 157.444 270.142 159.212C267.078 160.24 264.117 161.548 261.295 163.122C256.9 165.393 253.436 167.199 249.394 166.157C243.974 164.76 229.056 170.569 225.909 179.357C224.046 184.346 225.387 191.849 241.535 199.315C245.176 200.959 248.634 202.98 251.852 205.347C253.075 206.307 254.406 207.12 255.819 207.768L256.378 207.991C259.433 209.22 262.897 210.616 261.705 224.505C261.127 231.189 262.561 235.061 264.368 237.295C258.458 235.999 252.706 234.064 247.215 231.524C234.017 225.421 222.681 215.917 214.371 203.988C206.061 192.059 201.076 178.134 199.928 163.643C210.655 161.037 235.482 136.685 242.764 126.817C245.222 123.448 246.135 120.878 245.651 118.7C245.073 116.187 242.894 114.977 240.957 114.008C239.02 113.04 237.977 112.333 237.642 111.197C237.307 110.061 237.903 107.902 239.505 105.295C242.41 100.306 243.229 95.9864 242.093 92.4491C241.414 90.5232 240.151 88.8571 238.48 87.6829C252.82 78.7973 269.555 74.5528 286.398 75.5292C303.241 76.5055 319.372 82.6549 332.589 93.1379C330.261 94.2177 327.411 95.7258 324.059 97.6248C317.708 101.237 309.867 99.0025 302.269 96.8428C299.256 95.9134 296.19 95.1674 293.087 94.6087C287.183 93.6778 279.714 95.0556 277.293 100.194C276.772 101.311 276.176 102.465 275.543 103.657C272.507 109.522 268.726 116.82 271.259 124.825C275.543 138.323 303.051 138.919 304.205 138.938H304.429C304.652 138.938 326.778 136.908 332.365 152.491C336.947 164.984 349.239 180.865 356.577 189.727C352.171 199.873 345.761 209.026 337.732 216.637C329.702 224.248 320.218 230.16 309.849 234.019V234.056ZM358.272 185.854C351.772 177.923 340.132 162.768 335.923 151.244C329.348 133.39 306.236 135.065 304.15 135.251C296.849 135.121 277.666 132.794 274.798 123.746C272.73 117.211 275.971 110.936 278.839 105.407C279.491 104.16 280.106 102.968 280.702 101.814C282.21 98.5557 287.946 97.5689 292.565 98.295C295.517 98.8246 298.434 99.5334 301.3 100.417C309.234 102.689 318.211 105.258 325.94 100.864C329.123 98.9972 332.405 97.3066 335.774 95.8002C348.226 106.753 357.053 121.231 361.085 137.314C365.116 153.398 364.161 170.326 358.346 185.854H358.272Z" fill="black"/>
<path d="M239.691 124.583C230.807 136.741 207.75 157.481 199.723 159.957C199.293 146.286 202.286 132.724 208.43 120.502C214.573 108.281 223.674 97.7867 234.904 89.973C236.514 90.7082 237.771 92.0451 238.406 93.6965C239.244 96.1541 238.406 99.4308 236.133 103.471C234.01 107.101 233.321 109.894 233.992 112.258C234.448 113.414 235.141 114.461 236.027 115.333C236.912 116.205 237.97 116.883 239.132 117.322C240.473 118.049 241.739 118.719 241.944 119.575C242.075 120.059 241.944 121.474 239.691 124.583ZM296.439 197.193C297.407 188.61 296.7 177.663 287.965 174.181C283.012 172.495 278.82 169.103 276.138 164.612C274.593 162.229 274.276 161.782 271.24 162.75C268.39 163.704 265.635 164.92 263.008 166.38C258.315 168.819 253.882 171.128 248.463 169.732C248.127 169.651 247.783 169.614 247.438 169.62C242.95 169.62 231.701 174.2 229.41 180.586C227.119 186.972 235.593 192.427 243.099 195.889C246.949 197.632 250.607 199.773 254.013 202.275C255.017 203.066 256.104 203.746 257.253 204.305L257.756 204.51C262.543 206.371 266.733 209.425 265.411 224.784C264.945 230.37 265.988 234.335 268.354 235.955C270.216 237.24 273.196 237.035 276.362 235.396C279.652 233.594 282.425 230.98 284.417 227.802C286.409 224.624 287.554 220.989 287.741 217.244C288.039 206.297 290.777 203.392 294.055 200.935C294.743 200.571 295.324 200.035 295.742 199.379C296.16 198.723 296.4 197.97 296.439 197.193ZM358.309 185.836C364.113 170.302 365.064 153.373 361.037 137.287C357.01 121.2 348.194 106.715 335.755 95.7445C332.383 97.2626 329.094 98.9592 325.903 100.827C318.174 105.221 309.141 102.689 301.263 100.38C298.397 99.4963 295.48 98.7875 292.528 98.2579C287.909 97.5318 282.173 98.5186 280.664 101.777C280.124 102.931 279.509 104.123 278.802 105.37C275.934 110.955 272.693 117.174 274.76 123.708C277.628 132.757 296.811 135.084 304.112 135.214C304.503 135.214 305.658 135.102 307.316 135.102C314.374 135.102 330.559 136.741 335.885 151.207C340.15 162.731 351.809 177.905 358.309 185.836Z" fill="#70D44B"/>
</svg>
