<svg width="42" height="42" viewBox="0 0 42 42" fill="none" xmlns="http://www.w3.org/2000/svg">
<path d="M33.9462 20.7122L29.9984 8.3106C29.9069 8.04856 29.7428 7.82008 29.5267 7.65358C29.3105 7.48708 29.0517 7.38991 28.7825 7.37413H27.6017L31.5495 19.7856C31.5892 19.9061 31.6027 20.0343 31.5889 20.1608C31.5751 20.2874 31.5344 20.4092 31.4697 20.5176C31.4102 20.6182 31.3267 20.7013 31.2273 20.759C31.1278 20.8168 31.0157 20.8472 30.9016 20.8474H23.3634L26.2708 33.1863L28.9644 36.7343C29.2835 37.1563 29.4463 37.064 29.3218 36.5397L26.0347 22.595C25.9991 22.4829 25.9903 22.3636 26.009 22.2473C26.0276 22.131 26.0732 22.021 26.1418 21.9268C26.2105 21.8326 26.3001 21.7569 26.4031 21.7061C26.5062 21.6554 26.6195 21.6312 26.7336 21.6354H33.3239C33.433 21.6421 33.5419 21.6198 33.6403 21.5705C33.7386 21.5212 33.823 21.4467 33.8855 21.354C33.948 21.2613 33.9863 21.1537 33.997 21.0413C34.0076 20.9289 33.9901 20.8156 33.9462 20.7122Z" fill="#F0C100"/>
<path d="M21.9113 19.5877C21.9688 19.4904 22.0488 19.4094 22.144 19.3518C22.2392 19.2943 22.3468 19.262 22.4571 19.258H29.8995L26.1177 7.38732H16.1125C15.6051 7.38732 15.4327 7.75003 15.7327 8.18859L20.3699 15.0109C20.6635 15.4495 20.4975 15.8122 19.9869 15.8122H13.9806C13.47 15.8122 13.32 16.1419 13.6392 16.5772L24.1996 30.4824L21.7965 20.2868C21.7682 20.1684 21.7639 20.0452 21.7836 19.9249C21.8034 19.8047 21.8469 19.6899 21.9113 19.5877Z" fill="#F0C100"/>
<path d="M30.8888 20.8737C31.0029 20.8735 31.115 20.8431 31.2145 20.7854C31.3139 20.7277 31.3974 20.6446 31.4569 20.544C31.5216 20.4356 31.5623 20.3138 31.5761 20.1872C31.5899 20.0607 31.5764 19.9325 31.5367 19.812L27.6017 7.38732L27.0081 5.52429C26.9686 5.37862 26.8856 5.24953 26.771 5.1554C26.6564 5.06127 26.516 5.00689 26.3698 5H11.836C11.7013 5.00414 11.5707 5.04919 11.4606 5.12952C11.3505 5.20986 11.2657 5.32194 11.2169 5.45174C11.1601 5.58894 11.1374 5.73859 11.1508 5.88714C11.1642 6.03569 11.2132 6.17844 11.2935 6.30248L16.1317 13.4216H9.70094C9.56065 13.4233 9.42425 13.4695 9.31013 13.5538C9.196 13.6381 9.10963 13.7565 9.06266 13.8931C9.00725 14.034 8.98812 14.1874 9.00714 14.3382C9.02616 14.489 9.08267 14.6322 9.17116 14.7537L25.6868 36.4672C25.7468 36.5509 25.8246 36.6191 25.9143 36.6666C26.004 36.714 26.1031 36.7395 26.2038 36.7409C26.3177 36.7406 26.4289 36.705 26.523 36.6386C26.6655 36.542 26.7749 36.4014 26.8356 36.2368C26.8963 36.0723 26.9053 35.8921 26.8612 35.722L23.3603 20.8737H30.8888ZM24.7358 32.8202L11.2201 15.0142H17.5423C17.6805 15.0128 17.8151 14.9688 17.9288 14.8877C18.0426 14.8066 18.1303 14.6922 18.1806 14.5592C18.2377 14.4225 18.2604 14.273 18.2464 14.1248C18.2325 13.9766 18.1824 13.8345 18.1008 13.7118L13.2594 6.59924H25.8655L26.1177 7.38732L29.8995 19.258H22.4571C22.3468 19.262 22.2392 19.2943 22.144 19.3518C22.0488 19.4094 21.9688 19.4904 21.9113 19.5877C21.8469 19.6899 21.8034 19.8047 21.7836 19.9249C21.7639 20.0452 21.7682 20.1684 21.7965 20.2868L24.7358 32.8202Z" fill="#3F3F41"/>
</svg>
