<svg width="42" height="42" viewBox="0 0 42 42" fill="none" xmlns="http://www.w3.org/2000/svg">
<path d="M18.242 17.2519C19.5776 16.2927 20.346 14.4388 20.346 12.1668C20.346 9.99015 19.6964 7.5214 17.9706 6.5837C15.0585 6.69438 13.3632 9.42753 13.3632 12.9262C13.356 14.4529 13.8148 15.9449 14.6774 17.1997C14.9666 17.4117 15.2017 17.6898 15.3635 18.0113C15.5815 18.2363 15.8181 18.442 16.0709 18.6262C16.2935 18.7814 16.4758 18.9885 16.6021 19.2299C16.7284 19.4713 16.7952 19.7398 16.7966 20.0128V35.3141C16.936 35.3154 17.0747 35.2957 17.2083 35.2557C17.2942 35.004 17.3243 34.7364 17.2967 34.4717V19.0751C17.2989 18.7172 17.3859 18.3651 17.5503 18.048C17.7147 17.7309 17.9518 17.458 18.242 17.2519Z" fill="#C17638"/>
<path d="M22.6573 14.1744C22.6943 13.8303 22.7126 13.4845 22.7122 13.1384C22.7122 10.5128 21.8797 8.20084 20.2392 7.15861L20.288 7.22932C21.0991 8.49906 21.526 10.2115 21.526 12.173C21.526 14.8293 20.5746 17.0306 18.9219 18.2204C18.7858 18.3168 18.6746 18.4447 18.5977 18.5934C18.5207 18.7422 18.4803 18.9073 18.4798 19.0751V34.4717C18.4798 35.2434 18.3883 35.8306 17.9401 36.1873C17.6394 36.3989 17.279 36.5068 16.9125 36.4947C17.0619 36.8729 17.3943 36.8759 18.0834 36.8759H18.2206C19.3092 36.8759 19.666 36.8759 19.666 35.4463V20.0435C19.6668 19.7802 19.7303 19.521 19.8513 19.2877C19.9723 19.0544 20.1472 18.8539 20.3612 18.7031C21.0036 18.23 21.526 17.6106 21.8858 16.8953C21.8839 16.6792 21.9064 16.4637 21.9529 16.2527C22.1398 15.5444 22.3752 14.85 22.6573 14.1744Z" fill="#C17638"/>
<path d="M28.5881 34.8591C28.5881 31.8031 28.2344 16.0099 28.0392 9.14161C26.4627 11.9086 24.6149 16.1974 24.3405 17.4856C24.3405 17.5194 24.3405 17.5501 24.3222 17.584L24.4167 17.6024C25.0662 17.7285 25.74 17.8576 26.1761 18.3372C26.3164 18.494 26.4505 18.7276 26.542 19.4225C26.8962 19.4719 27.2275 19.6272 27.4934 19.8683C28.2435 20.7014 27.4629 32.4734 27.3897 35.2588H27.6184C27.932 35.2724 28.246 35.2424 28.5515 35.1696C28.5831 35.0694 28.5955 34.964 28.5881 34.8591Z" fill="#C17638"/>
<path d="M30.3536 7.5091C30.3109 6.4269 29.8657 6.54065 29.2345 7.31541C29.4083 12.6526 29.8443 31.4896 29.8443 34.8683C29.8544 35.1578 29.7991 35.4459 29.6827 35.7107C29.563 35.9726 29.3558 36.1837 29.0973 36.3072C28.637 36.4811 28.1456 36.5554 27.655 36.5255H27.5757C27.8227 37.0051 28.3441 37.0174 29.268 36.9928C30.4145 36.962 31 36.9928 31 35.9659C30.9878 32.3289 30.503 11.0631 30.3536 7.5091Z" fill="#C17638"/>
<path d="M29.1003 36.3072C29.3588 36.1837 29.566 35.9726 29.6858 35.7107C29.8021 35.4459 29.8574 35.1578 29.8474 34.8683C29.8474 31.4865 29.4144 12.6526 29.2375 7.31541C29.2375 6.93111 29.2132 6.61444 29.204 6.39308C29.1613 5.30781 28.6917 5.03727 28.2892 5.00345C27.7282 4.95426 27.1732 5.42772 26.3804 6.64519C25.7078 7.71455 25.0969 8.82215 24.5508 9.96248C23.8343 11.4075 23.1512 12.9477 22.6573 14.1867C22.3752 14.8623 22.1398 15.5567 21.9529 16.265C21.9064 16.476 21.8839 16.6915 21.8858 16.9076C21.8805 17.2487 21.976 17.5837 22.1602 17.8699C22.6085 18.5524 23.444 18.7154 24.1819 18.8568C24.5446 18.8923 24.8974 18.9966 25.2217 19.1642C25.2979 19.3641 25.4687 20.2218 25.3985 23.8097C25.3528 26.22 25.2217 28.9901 25.115 31.2129C25.0174 33.2758 24.9655 34.3672 24.9899 34.7085C25.1058 36.3441 26.0328 36.5285 27.039 36.5285H27.6489C28.1428 36.5588 28.6374 36.4834 29.1003 36.3072ZM27.4629 35.2557H27.3897C27.0559 35.289 26.7189 35.2662 26.3926 35.1881C26.2859 35.1297 26.2493 34.7638 26.2371 34.6132C26.2157 34.3334 26.2889 32.8423 26.3621 31.2682C26.4658 29.0669 26.6121 26.0417 26.667 23.5637C26.7199 22.1813 26.6832 20.7969 26.5572 19.4194C26.4658 18.7246 26.3316 18.4971 26.1913 18.3341C25.7553 17.8545 25.0814 17.7192 24.4319 17.5993L24.3374 17.5809C23.8678 17.4887 23.3647 17.378 23.2153 17.1505C23.1321 16.9461 23.1223 16.7188 23.1878 16.5079C23.3525 15.7332 24.2703 13.3997 25.5144 10.8418C26.7006 8.40068 27.5178 7.15247 27.9752 6.57448C27.9965 7.1248 28.0239 8.0133 28.0544 9.13854C28.2496 16.0068 28.6033 31.8001 28.6033 34.8561C28.6103 34.9599 28.5979 35.0642 28.5667 35.1635C28.2612 35.2363 27.9472 35.2663 27.6336 35.2526L27.4629 35.2557Z" fill="#3F3F41"/>
<path d="M18.4798 34.4717V19.0751C18.4803 18.9073 18.5207 18.7422 18.5977 18.5934C18.6746 18.4447 18.7858 18.3168 18.9219 18.2204C20.5746 17.0306 21.526 14.8385 21.526 12.173C21.526 10.2115 21.0991 8.48369 20.288 7.22932L20.2392 7.15861C19.8346 6.49389 19.266 5.94625 18.5889 5.56908C17.9118 5.19191 17.1493 4.99809 16.3758 5.00652C15.5906 4.99528 14.8147 5.17897 14.1165 5.54141C13.4183 5.90384 12.8193 6.43389 12.3722 7.08482C11.4879 8.31459 11 10.0486 11 11.9486C11 14.4696 12.1343 16.8338 13.9608 18.1281C14.1061 18.2286 14.2253 18.363 14.3081 18.5198C14.3909 18.6766 14.435 18.8513 14.4365 19.0289V34.401C14.4365 35.2772 14.4944 35.7814 14.842 36.1289C15.1897 36.4763 15.6836 36.4855 16.3087 36.4855H16.4459C16.6106 36.4855 16.7509 36.4855 16.9125 36.4855C17.279 36.4975 17.6394 36.3897 17.9401 36.1781C18.3883 35.8306 18.4798 35.2557 18.4798 34.4717ZM17.2997 34.4718C17.3264 34.7367 17.2952 35.0043 17.2083 35.2557C17.0733 35.2929 16.9335 35.3095 16.7936 35.3049H16.3057C16.0939 35.3128 15.8818 35.3036 15.6714 35.2773C15.6078 34.9878 15.5852 34.6907 15.6044 34.3949V19.0228C15.604 18.6679 15.5204 18.3182 15.3604 18.0021C15.1986 17.6806 14.9635 17.4024 14.6743 17.1904C14.6609 17.1773 14.6466 17.1649 14.6316 17.1535C13.8699 16.5982 13.2595 15.8579 12.857 15.0015C12.4004 14.0508 12.1648 13.0078 12.1678 11.9516C12.1678 10.2945 12.5734 8.81572 13.3144 7.78272C13.655 7.28656 14.111 6.88221 14.6427 6.60509C15.1743 6.32798 15.7652 6.18657 16.3636 6.19325C16.92 6.18562 17.4693 6.3188 17.9614 6.58062C19.6873 7.50295 20.3368 9.98708 20.3368 12.1638C20.3368 14.4358 19.5684 16.2896 18.2328 17.2489C17.9432 17.4553 17.7067 17.7283 17.5428 18.0454C17.379 18.3625 17.2925 18.7144 17.2906 19.072L17.2997 34.4718Z" fill="#3F3F41"/>
</svg>
