<svg xmlns="http://www.w3.org/2000/svg" viewBox="0 0 109.9 127.34"><defs><style>.cls-1{fill:#4eead7;}.cls-2{fill:#2d5e6b;}.cls-3{fill:#44d8ca;}.cls-4,.cls-5{fill:#bbe925;}.cls-5,.cls-9{stroke:#2d5e6b;stroke-width:2px;}.cls-5,.cls-7,.cls-9{stroke-miterlimit:10;}.cls-6{fill:#6fd037;}.cls-7,.cls-8{fill:none;stroke:#132d33;stroke-linecap:round;stroke-width:3px;}.cls-8{stroke-linejoin:round;}.cls-9{fill:#80e0b7;}</style></defs><g id="Layer_2" data-name="Layer 2"><g id="Layer_1-2" data-name="Layer 1"><g id="happy_earth" data-name="happy earth"><path class="cls-1" d="M36.89,123.23a54.19,54.19,0,0,1-34.81-40l-.15-.74.68-.35c3-1.54,6-4.14,7.13-17.11,1.08-10.55,3.17-11.59,7.08-12.65a14.89,14.89,0,0,0,5.63-2.57,15.71,15.71,0,0,0,3.72-6C27.33,41,28.42,38.3,32.6,38.3c.3,0,.62,0,.95,0l.19,0,.16.08a6.31,6.31,0,0,0,2.77.64c2.69,0,4.76-1.67,5.14-3.23s-.83-2.4-1.89-2.94C36.18,31,34.42,27.4,35,22.84l.07-.6.57-.22a54,54,0,0,1,38.2-.18l1.17.44-.68,1C70.89,28.57,61.74,30.2,58.8,30.2h-.13c-5.62.42-9.16,3.69-9.34,6.62-.2,3.41,3.82,6.24,10.74,7.58C87.8,49.74,90.12,65.09,89,73.76c-.8,6.36,1.22,7.21,4.89,8.75a23.56,23.56,0,0,1,5.3,2.85c2,1.54,4,4.8,5.35,7.27l.23.42-.19.44a54,54,0,0,1-8.21,13.42l-.26.31-.41,0a25.05,25.05,0,0,0-3.17.54l-.73.17a21.27,21.27,0,0,1-5,.76h0a14.55,14.55,0,0,1-6.76-1.83,10.28,10.28,0,0,0-4.66-1c-5.63,0-11.48,3.27-12.51,7-1.47,5.29-4,8.2-7.24,8.2a7.56,7.56,0,0,1-4.12-1.44,10.5,10.5,0,0,0-5.78-2.06c-3.63,0-6.2,2.84-7.72,5.22l-.43.68Zm-5.14-39c-5.09,0-6.9,4.45-6.9,8.62s2.33,8.53,7.47,8.53,10.92-4.47,10.92-8.53S37.12,84.23,31.75,84.23Z"/><path class="cls-2" d="M55,19.44a52.67,52.67,0,0,1,18.52,3.34c-3.23,4.95-12.2,6.42-14.67,6.42h-.16C47.51,30,42,41.93,59.88,45.38,72.54,47.82,90.4,54.82,88,73.64c-1.28,10.16,4.77,8.12,10.57,12.52,1.9,1.44,3.84,4.63,5.08,6.94a53.1,53.1,0,0,1-8.06,13.17,25.26,25.26,0,0,0-3.29.55,24.32,24.32,0,0,1-5.48.91,13.49,13.49,0,0,1-6.3-1.72,11.25,11.25,0,0,0-5.12-1.1c-5.71,0-12.23,3.22-13.48,7.73-1,3.77-3,7.46-6.27,7.46a6.54,6.54,0,0,1-3.56-1.27,11.4,11.4,0,0,0-6.34-2.23c-4,0-6.87,3-8.56,5.69A53,53,0,0,1,3.06,83c3.66-1.88,6.59-5.21,7.67-17.92,1.58-15.35,5-9,12.36-14.53,5.26-4.87,3.44-11.23,9.51-11.23.28,0,.56,0,.87,0a7.28,7.28,0,0,0,3.2.74c5.07,0,8.95-5.36,3.71-8.06C36.08,29.8,35.62,25.84,36,23a52.71,52.71,0,0,1,19-3.52M32.32,102.38c5.63,0,11.92-4.73,11.92-9.53s-6.86-9.62-12.49-9.62-7.9,4.83-7.9,9.62,2.84,9.53,8.47,9.53M55,17.44a54.73,54.73,0,0,0-19.69,3.65l-1.12.43L34,22.71c-.61,5,1.33,9,5.48,11.08,1.07.56,1.53,1.17,1.37,1.83-.28,1.16-2.07,2.46-4.17,2.46a5.3,5.3,0,0,1-2.33-.54L34,37.38l-.37,0c-.36,0-.71-.05-1-.05-4.85,0-6.18,3.24-7.36,6.09A14.71,14.71,0,0,1,21.81,49a14,14,0,0,1-5.25,2.38C12,52.61,9.83,54.26,8.74,64.86,7.68,77.36,4.9,79.79,2.15,81.2L.8,81.9l.3,1.48a55.17,55.17,0,0,0,35.46,40.79l1.5.54.85-1.35c1.39-2.17,3.7-4.76,6.88-4.76A9.64,9.64,0,0,1,51,120.49a8.43,8.43,0,0,0,4.67,1.61c3.69,0,6.6-3.17,8.2-8.93.93-3.34,6.32-6.26,11.55-6.26a9.29,9.29,0,0,1,4.21.88,15.57,15.57,0,0,0,7.21,1.94,21.7,21.7,0,0,0,5.2-.79l.73-.17a23.81,23.81,0,0,1,3-.51l.82-.08.52-.63a55.14,55.14,0,0,0,8.36-13.66l.37-.89-.45-.84c-2-3.72-3.89-6.27-5.63-7.59a24.2,24.2,0,0,0-5.51-3c-3.53-1.48-5-2.09-4.29-7.7,1.14-9.11-2-16.55-9.21-22.11-6.35-4.86-14.68-7.23-20.55-8.37C54,42.2,50.17,39.7,50.33,36.88c.15-2.44,3.38-5.29,8.37-5.68h.1c2.29,0,12.41-1.31,16.35-7.33l1.36-2.09-2.34-.88A54.92,54.92,0,0,0,55,17.44ZM32.32,100.38c-4.47,0-6.47-3.78-6.47-7.53,0-1.79.42-7.62,5.9-7.62,4.71,0,10.49,4.2,10.49,7.62s-5.29,7.53-9.92,7.53Z"/><path class="cls-3" d="M51.84,125.31C21.91,117,9.33,80.9,14,55.86c-.93,1.44-2,3.6-2.27,8.83C11.08,77.78,7.14,82.43,3.32,84,7.72,105.63,29.25,124.37,51.84,125.31Z"/><path class="cls-4" d="M2.08,83.18A54,54,0,0,1,35.62,22l1.55-.59L37,23.08c-.46,3.77.84,6.48,3.87,8.05,3.35,1.73,3.16,4.21,2.91,5.19C43.11,39,40,41.08,36.67,41.08a8.15,8.15,0,0,1-3.46-.76l-.61,0c-2.72,0-3.37,1.3-4.58,4.23a17.35,17.35,0,0,1-4.25,6.73l-.08.07a16.6,16.6,0,0,1-6.34,2.93c-3.08.84-4.63,1.25-5.62,10.91-1.07,12.6-3.94,16.5-8.21,18.7l-1.17.61Z"/><path class="cls-2" d="M36,23c-.35,2.88.11,6.84,4.41,9.06,5.24,2.7,1.36,8.06-3.71,8.06a7.28,7.28,0,0,1-3.2-.74c-.31,0-.59,0-.87,0-6.07,0-4.25,6.36-9.51,11.23C15.77,56,12.31,49.71,10.73,65.06c-1.08,12.71-4,16-7.67,17.92A53.5,53.5,0,0,1,2,72.39,53,53,0,0,1,36,23m2.39-3.06-3.1,1.19A55,55,0,0,0,0,72.39a55.44,55.44,0,0,0,1.1,11L1.63,86,4,84.76c6.17-3.17,7.92-9.83,8.75-19.53.92-8.93,2.08-9.24,4.88-10a18.06,18.06,0,0,0,6.68-3.1l.09-.06.07-.08a18.11,18.11,0,0,0,4.49-7.08c1.16-2.8,1.58-3.61,3.66-3.61H33a9.26,9.26,0,0,0,3.7.77c3.83,0,7.29-2.37,8.06-5.52.61-2.53-.67-4.9-3.43-6.32s-3.75-3.68-3.34-7l.4-3.3Z"/><path class="cls-4" d="M55,126.34a53.88,53.88,0,0,1-18.06-3.11l-1.18-.42.67-1.06c2.57-4,5.82-6.15,9.41-6.15a12.6,12.6,0,0,1,6.9,2.39,5.49,5.49,0,0,0,3,1.11c3,0,4.61-4.22,5.31-6.73,1.45-5.23,8.62-8.46,14.44-8.46A12.29,12.29,0,0,1,81,105.12a12.66,12.66,0,0,0,5.85,1.61,19.36,19.36,0,0,0,4.51-.71l.74-.17a26.73,26.73,0,0,1,3.43-.58L98,105l-1.57,1.88A53.82,53.82,0,0,1,55,126.34Z"/><path class="cls-2" d="M75.44,104.91a11.25,11.25,0,0,1,5.12,1.1,13.49,13.49,0,0,0,6.3,1.72,24.32,24.32,0,0,0,5.48-.91,25.26,25.26,0,0,1,3.29-.55,52.94,52.94,0,0,1-58.4,16c1.69-2.66,4.51-5.69,8.56-5.69a11.4,11.4,0,0,1,6.34,2.23,6.54,6.54,0,0,0,3.56,1.27c3.25,0,5.23-3.69,6.27-7.46,1.25-4.51,7.77-7.73,13.48-7.73m0-2h0c-6.18,0-13.83,3.51-15.4,9.19-.39,1.41-1.86,6-4.35,6a4.65,4.65,0,0,1-2.45-.94,13.48,13.48,0,0,0-7.45-2.56c-3.95,0-7.49,2.29-10.25,6.61l-1.35,2.12,2.37.84a54.93,54.93,0,0,0,60.61-16.62l3.13-3.76-4.87.49a28.09,28.09,0,0,0-3.54.59l-.75.18a19,19,0,0,1-4.28.68,11.73,11.73,0,0,1-5.39-1.5,13.23,13.23,0,0,0-6-1.32Z"/><path class="cls-4" d="M102.81,93.58C101.07,90.33,99.37,88,98,87a20.87,20.87,0,0,0-4.87-2.6c-3.8-1.6-7.08-3-6.1-10.85,2.34-18.59-16.13-25-27.35-27.15-11.53-2.22-12.48-7.5-12.35-9.66.26-4.4,5.09-8.06,11.23-8.5h.23c2.19,0,10.87-1.43,13.83-6l.44-.67.75.28A54.2,54.2,0,0,1,108.9,72.39a53.64,53.64,0,0,1-4.29,21.1l-.82,1.92Z"/><path class="cls-2" d="M73.47,22.78A53,53,0,0,1,103.69,93.1c-1.24-2.31-3.18-5.5-5.08-6.94C92.81,81.76,86.76,83.8,88,73.64c2.36-18.82-15.5-25.82-28.16-28.26C42,41.93,47.51,30,58.64,29.2h.16c2.47,0,11.44-1.47,14.67-6.42m-.8-2.44-.87,1.35c-2.53,3.87-10.33,5.51-13,5.51h-.3c-6.64.48-11.87,4.54-12.16,9.44-.14,2.43.85,8.33,13.16,10.7,5.45,1,13.15,3.22,18.87,7.61a18.91,18.91,0,0,1,7.68,18.44C85,82,88.93,83.67,92.76,85.28a20.26,20.26,0,0,1,4.65,2.48c1.24.94,2.84,3.17,4.52,6.29l2,3.67,1.63-3.83a55,55,0,0,0-31.36-73l-1.5-.56Z"/><path class="cls-5" d="M31.75,83.23c-5.63,0-7.9,4.83-7.9,9.62s2.84,9.53,8.47,9.53,11.92-4.73,11.92-9.53S37.38,83.23,31.75,83.23Z"/><path class="cls-6" d="M3.06,83c3.63-1.9,6.54-4.66,7.61-17.49.57-5.67,1.63-8.92,2.8-10.39C16,40.45,23.29,28.38,35.71,23A54.38,54.38,0,0,0,10.27,44.08a48,48,0,0,0-8,23.07C2.19,69,2,71,2,72.89A48.65,48.65,0,0,0,3.06,83Z"/><g id="face"><line class="cls-7" x1="34.41" y1="49.92" x2="34.41" y2="54.02"/><line class="cls-7" x1="61.81" y1="49.92" x2="61.81" y2="54.02"/><path class="cls-8" d="M40,58.33c0,3.87,15.54,4.19,15.54,0"/></g><path class="cls-9" d="M97.72,11.24a15.26,15.26,0,0,0-7.43,12.18C88,19.49,83.88,17.05,78.11,16,83,12.72,85.38,8.63,85.54,3.81,87.85,8.2,92.2,10.36,97.72,11.24Z"/></g></g></g></svg>