<svg width="170" height="170" viewBox="0 0 170 170" fill="none" xmlns="http://www.w3.org/2000/svg">
<path d="M63.4555 34.4036C63.2493 38.3198 64.7767 41.1564 68.011 42.8446C70.9436 44.3758 72.3145 46.8373 71.6768 49.4595C70.8672 52.8091 66.9876 55.4352 62.8445 55.4352C61.499 55.4372 60.1658 55.1772 58.9191 54.6695C58.5918 54.6143 58.2616 54.5785 57.9301 54.5624C54.8753 54.5624 54.188 55.9902 52.7599 59.4547C51.7518 61.9123 50.4917 64.9709 47.5781 67.6812L47.4559 67.7807C44.3439 70.1235 41.7778 70.8202 39.712 71.3791C38.2991 71.7619 37.2643 72.0414 36.4663 72.7381L36.4052 72.8491C36.3326 72.9793 36.2677 73.0865 36.2257 73.1515C36.1226 73.2932 36.0271 73.4501 35.9278 73.6186C32.3843 99.1098 42.4728 132.766 66.2163 148.224C68.6869 145.778 71.5088 144.499 74.5368 144.499H74.5941C77.548 144.606 80.3991 145.614 82.7657 147.39C83.711 148.085 84.8403 148.484 86.0115 148.538C89.3068 148.5 91.1206 143.278 91.7392 141.027C93.5148 134.807 101.935 130.979 108.755 130.979H108.8C111.072 130.934 113.323 131.419 115.376 132.395L115.464 132.441C117.451 133.557 119.678 134.173 121.955 134.236C123.965 134.129 125.956 133.797 127.893 133.249H127.946C129.212 132.954 130.493 132.733 131.784 132.586C136.009 127.618 139.426 122.013 141.907 115.976C139.998 112.481 138.149 109.951 136.675 108.829C134.808 107.405 132.918 106.609 131.093 105.84C126.717 103.994 122.581 102.253 123.78 92.7935C124.926 83.6329 121.818 76.1528 114.536 70.5599C107.75 65.3499 98.666 62.7698 92.2395 61.5218C78.5157 58.8613 77.3969 52.4722 77.5535 49.85C77.8742 44.5289 83.6402 40.119 90.9717 39.5945H91.2543C93.5072 39.5945 101.721 38.2853 105.822 34.2965C92.122 29.3224 77.1093 29.3631 63.4364 34.4113L63.4555 34.4036ZM53.936 67.5893C53.936 66.9802 54.1773 66.396 54.607 65.9652C55.0367 65.5345 55.6194 65.2925 56.2271 65.2925C56.8347 65.2925 57.4175 65.5345 57.8471 65.9652C58.2768 66.396 58.5182 66.9802 58.5182 67.5893V71.9227C58.5182 72.5319 58.2768 73.1161 57.8471 73.5469C57.4175 73.9776 56.8347 74.2196 56.2271 74.2196C55.6194 74.2196 55.0367 73.9776 54.607 73.5469C54.1773 73.1161 53.936 72.5319 53.936 71.9227V67.5893ZM62.5963 129.486C54.86 129.486 50.8086 122.901 50.8086 116.394C50.8086 112.948 51.6983 109.802 53.3135 107.501C55.2953 104.684 58.2776 103.194 61.8976 103.194C69.2367 103.194 78.5463 109.407 78.5463 116.394C78.5463 123.46 69.7751 129.486 62.5963 129.486ZM84.7437 67.5893C84.7437 66.9802 84.9851 66.396 85.4148 65.9652C85.8444 65.5345 86.4272 65.2925 87.0348 65.2925C87.6425 65.2925 88.2252 65.5345 88.6549 65.9652C89.0845 66.396 89.3259 66.9802 89.3259 67.5893V71.9227C89.3259 72.5319 89.0845 73.1161 88.6549 73.5469C88.2252 73.9776 87.6425 74.2196 87.0348 74.2196C86.4272 74.2196 85.8444 73.9776 85.4148 73.5469C84.9851 73.1161 84.7437 72.5319 84.7437 71.9227V67.5893ZM79.0159 76.9681C79.2169 76.4877 79.5958 76.104 80.0731 75.8978C80.5503 75.6915 81.0887 75.6787 81.5751 75.8621C82.0616 76.0455 82.4582 76.4107 82.6816 76.8811C82.9051 77.3515 82.938 77.8904 82.7734 78.3845C81.5285 81.7035 77.6642 83.8702 72.6887 84.0386L72.0319 84.031C65.8574 84.031 62.3138 81.0872 61.1377 78.4917C60.9411 78.0098 60.9383 77.4703 61.13 76.9864C61.3216 76.5025 61.6928 76.1118 62.1656 75.8964C62.6384 75.6809 63.1761 75.6575 63.6657 75.8309C64.1554 76.0043 64.5591 76.3611 64.792 76.8265C65.6817 78.7865 68.9542 80.1225 72.5627 80C75.7778 79.9081 78.3706 78.6716 79.0159 76.9681Z" fill="#4EEAD7"/>
<path d="M108.919 35.4985C104.401 40.9458 94.5611 42.6876 91.2772 42.6876H91.1588C84.8277 43.1585 80.8489 46.7913 80.6503 50.0414C80.5663 51.4539 81.1963 56.2391 92.8466 58.4976C99.5977 59.8107 109.171 62.5401 116.43 68.1176C124.643 74.4263 128.153 82.8596 126.858 93.1878C125.953 100.323 128.08 101.227 132.311 103.003C134.22 103.807 136.381 104.718 138.562 106.379C140.238 107.658 141.895 109.913 143.27 112.148C148.614 97.4022 148.014 81.1486 141.597 66.839C135.18 52.5293 123.452 41.2908 108.903 35.51L108.919 35.4985Z" fill="#BBE925"/>
<path d="M56.2271 74.0205C56.808 74.0455 57.3752 73.8388 57.8045 73.4457C58.2338 73.0526 58.4904 72.505 58.5182 71.9227V67.5893C58.5182 66.9802 58.2768 66.396 57.8471 65.9652C57.4175 65.5345 56.8347 65.2925 56.2271 65.2925C55.6194 65.2925 55.0367 65.5345 54.607 65.9652C54.1773 66.396 53.936 66.9802 53.936 67.5893V71.9227C53.9627 72.5053 54.219 73.0535 54.6486 73.4468C55.0781 73.8402 55.6459 74.0465 56.2271 74.0205Z" fill="#2D5E6B"/>
<path d="M87.0196 74.0205C87.6008 74.0465 88.1685 73.8402 88.5981 73.4468C89.0276 73.0535 89.2839 72.5054 89.3107 71.9227V67.5893C89.3107 66.9802 89.0693 66.396 88.6396 65.9652C88.21 65.5345 87.6272 65.2925 87.0196 65.2925C86.4119 65.2925 85.8292 65.5345 85.3995 65.9652C84.9698 66.396 84.7285 66.9802 84.7285 67.5893V71.9227C84.7562 72.505 85.0128 73.0526 85.4421 73.4457C85.8715 73.8388 86.4386 74.0455 87.0196 74.0205Z" fill="#2D5E6B"/>
<path d="M64.7767 76.8418C64.5438 76.3764 64.1402 76.0196 63.6505 75.8462C63.1608 75.6728 62.6231 75.6962 62.1503 75.9117C61.6775 76.1271 61.3063 76.5178 61.1147 77.0017C60.923 77.4856 60.9258 78.0251 61.1224 78.507C62.3061 81.1025 65.8497 84.031 72.0319 84.031L72.6963 84.031C77.6604 83.8625 81.5362 81.6958 82.781 78.3769C82.9456 77.8827 82.9127 77.3438 82.6893 76.8734C82.4658 76.403 82.0692 76.0378 81.5828 75.8544C81.0963 75.6711 80.5579 75.6839 80.0807 75.8901C79.6035 76.0964 79.2246 76.48 79.0236 76.9605C78.3783 78.6755 75.7855 79.9005 72.5627 80.023C68.9465 80.1378 65.6741 78.8018 64.7767 76.8418Z" fill="#2D5E6B"/>
<path d="M35.9278 73.6109C35.084 75.0886 34.4234 77.5692 33.8468 81.3513C33.7628 81.9294 33.6864 82.4997 33.6177 83.0854C33.4764 85.1296 33.2702 86.9824 33.0067 88.6783C32.9265 89.2908 32.8425 89.8918 32.7508 90.466C31.6053 97.8274 29.6349 102.107 26.2326 104.775C25.5964 105.27 24.9222 105.715 24.2165 106.104C26.3587 115.827 31.2616 125.03 37.9288 132.751C39.4534 134.513 41.067 136.196 42.763 137.793C48.8428 143.574 55.9933 148.107 63.8106 151.134C64.5139 150.09 65.3157 149.117 66.2048 148.228C42.4728 132.759 32.3843 99.1021 35.9278 73.6109Z" fill="#44D8CA"/>
<path d="M68.7098 48.736C68.7385 48.6179 68.7564 48.4975 68.7632 48.3762C68.6607 48.8915 68.4667 49.3842 68.1905 49.8308C68.4291 49.5009 68.6051 49.1298 68.7098 48.736Z" fill="#6FD037"/>
<path d="M29.7457 89.976C30.0244 88.2036 30.2612 86.2206 30.4406 84.0807C30.5552 82.9668 30.685 81.9293 30.8225 80.8881C31.5251 76.1719 32.411 73.2319 33.6864 71.4174V71.3791C33.8418 71.0608 34.0511 70.772 34.305 70.5255C34.6105 70.2472 34.9417 69.9986 35.294 69.7828C37.123 59.8107 40.8766 50.9065 46.6655 44.0581L45.7262 44.8237C40.6692 48.9976 36.2894 53.9334 32.7432 59.4546C32.6134 59.6499 32.5026 59.8183 32.3957 59.9868L32.2163 60.2624C27.2885 67.8438 24.2815 76.5167 23.4566 85.5278L23.426 85.834C23.426 85.991 23.3955 86.1479 23.384 86.3049C23.3573 86.7183 23.3268 87.1432 23.2962 87.5681C23.2084 88.7701 23.1167 90.0143 23.0671 91.2393C23.0404 91.913 23.0289 92.5064 23.0289 93.0461C23.0271 96.2824 23.3249 99.5118 23.9186 102.693C24.079 102.582 24.2317 102.467 24.3768 102.352C27.1033 100.205 28.7109 96.5029 29.7457 89.976Z" fill="#6FD037"/>
<path d="M38.9177 68.4162C40.8041 67.9032 42.9425 67.3214 45.5581 65.3537C47.9409 63.1143 48.9948 60.538 49.938 58.2641C51.3088 54.926 52.7293 51.4731 57.9568 51.4731H58.0332C58.7085 51.4783 59.3792 51.5854 60.0227 51.7908C60.9137 52.161 61.8686 52.3522 62.8331 52.3535C65.1929 52.3535 67.2244 51.1745 68.179 49.8117C68.4552 49.3651 68.6492 48.8724 68.7518 48.357C68.8549 47.0248 67.6673 46.0984 66.5981 45.5472C62.7376 43.5336 60.5878 40.0922 60.3931 35.709C59.5683 36.0918 58.8351 36.4287 58.6938 36.5053L58.6175 36.5435C54.5229 38.5287 50.6508 40.9451 47.0665 43.7518L46.6846 44.0428C40.8957 50.8912 37.1383 59.7953 35.3131 69.7675C36.441 69.1401 37.6559 68.6846 38.9177 68.4162Z" fill="#BBE925"/>
<path d="M122.02 137.31H121.967C119.187 137.246 116.466 136.505 114.036 135.151C112.42 134.389 110.65 134.012 108.865 134.049H108.762C102.446 134.049 95.8823 137.693 94.6909 141.87C92.9382 148.148 89.8414 151.608 85.9771 151.608H85.9007C84.1064 151.529 82.3771 150.911 80.9367 149.836C79.0747 148.435 76.8323 147.634 74.5063 147.539C71.3026 147.539 68.8243 149.606 67.0907 151.803C77.6675 155.162 88.9688 155.499 99.7259 152.776C110.483 150.053 120.27 144.378 127.988 136.388C126.046 136.894 124.058 137.201 122.054 137.306L122.02 137.31Z" fill="#BBE925"/>
<path d="M144.29 65.2963C140.869 57.7082 135.982 50.8752 129.911 45.1928C123.84 39.5103 116.705 35.0912 108.919 32.191C94.5344 26.4087 78.5592 25.9863 63.8908 31.0005H63.8526L61.4622 31.923C60.4274 32.3059 57.8347 33.5002 57.2619 33.8026C52.9845 35.8812 48.9385 38.4078 45.1916 41.3401C44.5462 41.8454 44.1186 42.1785 43.836 42.435C38.5406 46.8032 33.9534 51.9688 30.2383 57.7473C30.1161 57.9349 29.9939 58.1301 29.8564 58.3062L29.6884 58.5665C28.7058 60.0748 27.797 61.6239 26.962 63.2138C23.7808 69.2609 21.6782 75.8188 20.7493 82.5916C20.6271 83.4759 20.5202 84.3602 20.44 85.2483L20.4132 85.5316C20.3941 85.7115 20.3789 85.8914 20.3636 86.0828C20.3369 86.5001 20.3063 86.9212 20.2758 87.3423C20.1841 88.5673 20.0925 89.8382 20.0428 91.1091C20.0199 91.6986 20.0047 92.2269 20.0008 92.7131V93.0346C19.9818 96.5113 20.2886 99.982 20.9173 103.401C22.8534 114.642 27.6994 125.176 34.9708 133.951C42.2421 142.725 51.6839 149.431 62.352 153.4L64.1619 154.043L64.498 154.158C74.2571 157.563 84.7039 158.501 94.9114 156.889C105.119 155.276 114.771 151.162 123.013 144.913C134.598 136.425 143.056 124.333 147.069 110.521C151.777 95.6233 150.786 79.5022 144.29 65.2963ZM23.0671 93.0423C23.0671 92.5025 23.0671 91.8939 23.1053 91.2354C23.1549 90.0105 23.2466 88.7663 23.3344 87.5643C23.3649 87.1394 23.3955 86.7145 23.4222 86.301C23.4222 86.1441 23.449 85.9871 23.4642 85.8302L23.4948 85.5239C24.3197 76.5129 27.3267 67.84 32.2544 60.2585L32.4339 59.9829C32.5408 59.8145 32.6516 59.6461 32.7814 59.4508C36.3276 53.9296 40.7074 48.9938 45.7643 44.8199L46.7037 44.0543L47.0855 43.7633C50.6655 40.9602 54.5324 38.5464 58.6213 36.5627L58.6976 36.5244C58.8389 36.4478 59.5721 36.1033 60.3969 35.7282C60.5916 40.1113 62.7415 43.5528 66.602 45.5663C67.6712 46.1176 68.8587 47.044 68.7556 48.3762C68.7488 48.4975 68.7309 48.6179 68.7021 48.736C68.5975 49.1298 68.4214 49.5009 68.1828 49.8308C67.2282 51.1936 65.1968 52.3727 62.8369 52.3727C61.8724 52.3714 60.9175 52.1802 60.0265 51.81C59.383 51.6046 58.7123 51.4974 58.037 51.4922H57.9607C52.7217 51.4922 51.3012 54.9375 49.9418 58.2833C49.0063 60.5571 47.9447 63.1334 45.562 65.3729C42.9463 67.3214 40.8079 67.9032 38.9216 68.4353C37.6641 68.71 36.4545 69.1706 35.3322 69.802C34.9799 70.0177 34.6487 70.2664 34.3432 70.5446C34.0879 70.7908 33.8773 71.0797 33.7207 71.3983V71.4366C32.4454 73.2626 31.5595 76.1911 30.8569 80.9073C30.7041 81.9485 30.5743 82.9859 30.475 84.0999C30.2955 86.2398 30.0588 88.2227 29.78 89.9951C28.7452 96.522 27.1376 100.224 24.3959 102.371C24.2508 102.486 24.0981 102.601 23.9377 102.712C23.349 99.5228 23.0576 96.2856 23.0671 93.0423ZM100.892 152.485C89.7997 155.549 78.0584 155.317 67.0946 151.819C68.8282 149.621 71.2949 147.566 74.5101 147.554C76.8361 147.649 79.0785 148.45 80.9405 149.851C82.381 150.927 84.1102 151.544 85.9045 151.624H85.9809C89.8453 151.624 92.9421 148.178 94.6948 141.885C95.8861 137.708 102.45 134.064 108.766 134.064H108.869C110.652 134.023 112.42 134.395 114.036 135.151C116.467 136.504 119.19 137.244 121.97 137.306L122.054 137.306C124.054 137.206 126.038 136.903 127.977 136.403C120.559 144.112 111.201 149.669 100.892 152.485ZM131.822 132.579C130.531 132.725 129.25 132.946 127.985 133.241H127.931C125.994 133.79 124.003 134.121 121.993 134.229C119.716 134.165 117.489 133.549 115.502 132.433L115.414 132.387C113.361 131.411 111.11 130.926 108.839 130.971H108.793C101.973 130.971 93.553 134.799 91.7774 141.02C91.1512 143.271 89.3374 148.492 86.0497 148.53C84.8785 148.477 83.7492 148.077 82.8039 147.382C80.4373 145.607 77.5862 144.598 74.6323 144.492H74.575C71.5469 144.492 68.7251 145.77 66.2545 148.217C65.3653 149.106 64.5636 150.079 63.8603 151.122C56.0429 148.095 48.8925 143.563 42.8126 137.781C41.109 136.192 39.4951 134.509 37.9784 132.74C31.2731 125.018 26.3701 115.804 24.2279 106.092C24.9337 105.703 25.6078 105.259 26.2441 104.764C29.6464 102.084 31.59 97.8159 32.7623 90.4545C32.8539 89.8803 32.938 89.2793 33.0181 88.6668C33.1963 87.3065 33.3504 85.8736 33.4802 84.3678C33.526 83.9276 33.5756 83.4989 33.6291 83.074C33.6978 82.4921 33.7742 81.9255 33.8582 81.3398C34.4234 77.5692 35.084 75.0886 35.9278 73.6109C36.0271 73.4425 36.1226 73.2855 36.2257 73.1439C36.2677 73.0788 36.3326 72.9716 36.4052 72.8415L36.4663 72.7305C37.2643 72.0337 38.2991 71.7543 39.712 71.3715C41.7778 70.8126 44.3439 70.1159 47.4559 67.7731L47.5781 67.6736C50.4917 64.9633 51.7518 61.9046 52.7599 59.447C54.188 56.0017 54.8906 54.5662 57.9301 54.5547C58.2616 54.5709 58.5918 54.6067 58.9191 54.6619C60.1658 55.1695 61.499 55.4295 62.8446 55.4275C66.9876 55.4275 70.8634 52.8014 71.6768 49.4519C72.3145 46.8296 70.9436 44.3567 68.011 42.8369C64.7767 41.1564 63.2493 38.3198 63.4555 34.4036C77.1284 29.3554 92.1411 29.3148 105.841 34.2888C101.744 38.2777 93.5301 39.5869 91.2772 39.5869H90.9946C83.6631 40.1113 77.8971 44.5213 77.5764 49.8423C77.4198 52.4646 78.5386 58.8536 92.2624 61.5142C98.6889 62.7621 107.773 65.3423 114.559 70.5523C121.841 76.1451 124.949 83.6252 123.803 92.7858C122.604 102.245 126.74 103.987 131.116 105.832C132.941 106.598 134.831 107.398 136.698 108.822C138.172 109.943 140.021 112.474 141.93 115.969C139.449 122.006 136.033 127.613 131.807 132.583L131.822 132.579ZM143.278 112.133C141.903 109.897 140.246 107.643 138.569 106.364C136.389 104.703 134.228 103.792 132.319 102.988C128.088 101.204 125.961 100.308 126.866 93.1724C128.16 82.8366 124.651 74.4148 116.437 68.1023C109.182 62.5248 99.6054 59.7953 92.8542 58.4823C81.204 56.2237 80.5739 51.4386 80.6579 50.0261C80.8527 46.776 84.8354 43.1355 91.1665 42.6723H91.2848C94.5764 42.6723 104.409 40.942 108.926 35.4947C123.475 41.2755 135.203 52.514 141.62 66.8237C148.037 81.1333 148.637 97.3869 143.293 112.133H143.278Z" fill="#2D5E6B"/>
<path d="M61.8976 106.257C55.975 106.257 53.8787 111.494 53.8787 116.394C53.8787 121.225 56.6127 126.423 62.6116 126.423C68.7594 126.423 75.5067 121.175 75.5067 116.394C75.5067 111.612 68.2477 106.257 61.8976 106.257Z" fill="#BBE925"/>
<path d="M61.8976 103.194C58.2623 103.194 55.2953 104.684 53.3135 107.501C51.6983 109.798 50.8086 112.96 50.8086 116.394C50.8086 122.901 54.86 129.486 62.5963 129.486C69.7751 129.486 78.5463 123.445 78.5463 116.394C78.5463 109.407 69.2367 103.194 61.8976 103.194ZM62.5963 126.423C56.5975 126.423 53.8634 121.225 53.8634 116.394C53.8634 111.494 55.975 106.257 61.8823 106.257C68.2325 106.257 75.4762 111.654 75.4762 116.394C75.4762 121.133 68.7441 126.423 62.5963 126.423Z" fill="#2D5E6B"/>
<path d="M125.392 17.5256C124.472 21.0704 122.455 24.2018 119.359 26.8853C123.383 28.0337 126.614 29.9095 128.977 32.4398C129.942 28.752 131.983 25.4368 134.839 22.9194C130.837 21.8284 127.691 20.0407 125.392 17.5256Z" fill="#80E0B7"/>
<path d="M140.001 21.8513C139.943 21.5426 139.791 21.2594 139.566 21.0402C139.341 20.8211 139.055 20.6766 138.745 20.6264C132.292 19.5851 128.053 17.028 125.781 12.8056C125.622 12.5092 125.37 12.2737 125.064 12.1353C124.758 11.997 124.415 11.9636 124.088 12.0403C123.761 12.117 123.469 12.2995 123.256 12.5596C123.043 12.8197 122.921 13.143 122.91 13.4793C122.723 18.7161 120.138 22.9309 115.005 26.3608C114.753 26.5302 114.556 26.7713 114.441 27.0533C114.325 27.3353 114.297 27.6453 114.358 27.9438C114.42 28.2423 114.569 28.5155 114.786 28.7286C115.003 28.9417 115.279 29.085 115.578 29.14C121.837 30.2885 126.22 32.9337 128.599 37.0106C128.733 37.2426 128.925 37.4354 129.156 37.5697C129.387 37.704 129.65 37.7752 129.917 37.7762C130.037 37.776 130.156 37.7606 130.272 37.7303C130.591 37.6544 130.877 37.4776 131.088 37.2259C131.3 36.9743 131.424 36.6612 131.444 36.333C131.601 33.7081 132.398 31.1618 133.765 28.9173C135.131 26.6728 137.026 24.7987 139.284 23.4591C139.554 23.2978 139.768 23.0569 139.896 22.7691C140.025 22.4813 140.061 22.1608 140.001 21.8513ZM128.977 32.4398C126.602 29.9095 123.383 28.049 119.359 26.8853C122.455 24.2056 124.472 21.0704 125.392 17.5256C127.683 20.0407 130.818 21.8284 134.839 22.9194C131.983 25.4368 129.942 28.752 128.977 32.4398Z" fill="#2D5E6B"/>
</svg>
