<svg xmlns="http://www.w3.org/2000/svg" viewBox="0 0 109.9 109.9"><defs><style>.cls-1{fill:#b1cecf;}.cls-2{fill:#1e3f47;}.cls-3{fill:#bbe925;}.cls-4{fill:#7eaca9;}.cls-5{fill:#2fa0b7;}.cls-6{fill:#6fd037;}.cls-7,.cls-8{fill:none;stroke:#132d33;stroke-linecap:round;stroke-width:3px;}.cls-7{stroke-miterlimit:10;}.cls-8{stroke-linejoin:round;}.cls-9{fill:#edca80;}.cls-10{fill:#132d33;}.cls-11{fill:#f1d49b;}.cls-12{fill:#e18085;}.cls-13{fill:#dc636e;}.cls-14{fill:#f0f0f0;}</style></defs><g id="Layer_2" data-name="Layer 2"><g id="Layer_1-2" data-name="Layer 1"><g id="sad_earth" data-name="sad earth"><path class="cls-1" d="M36.48,105.65A54.39,54.39,0,0,1,16.25,92.52l-.8-.83.93-.67c3.13-2.3,13.22-10.41,11.53-18.48a29.63,29.63,0,0,0-3.05-8.15c-2.36-4.62-4.4-8.61-1.07-22.7,1.37-5.82-2.33-11.8-11.33-18.27l-.84-.61.63-.82a54,54,0,0,1,32-19.93l1-.2.21,1c.82,4,1.32,8.58,1.81,13,1.07,9.75,2.17,19.83,6.47,20.37a9.12,9.12,0,0,0,1.27.08,14.36,14.36,0,0,0,5.35-1.27,14.11,14.11,0,0,1,5.13-1.24c3.81,0,7.87,2.65,13.14,8.57A15.19,15.19,0,0,0,90.5,47.46c4.51,0,9.84-1.44,15.85-4.28l1.14-.55.26,1.25A53.91,53.91,0,0,1,95.07,91l-.73.81-.75-.8C79,75.41,67.83,66.46,63,66.46c-1,0-2.23.36-2.51,3.15-1,10-5.82,24.4-23.1,35.93l-.42.28Z"/><path class="cls-2" d="M44.48,3c2.73,13.2,1.89,33.28,9.13,34.2a11.38,11.38,0,0,0,1.4.08c4.26,0,6.91-2.51,10.48-2.51,3,0,6.63,1.77,12.39,8.24A16.13,16.13,0,0,0,90.5,48.46c5.57,0,11.41-2.08,16.28-4.38A53,53,0,0,1,94.33,90.34C85.57,81,70,65.46,63,65.46c-1.94,0-3.22,1.2-3.5,4.05-1.11,11.06-6.64,24.5-22.67,35.2A52.88,52.88,0,0,1,17,91.82c6.71-4.91,13.4-12.44,11.92-19.49C26.44,60.63,20,62.27,24.76,41.92,26.65,34,19.3,27.11,13,22.61A52.89,52.89,0,0,1,44.48,3M46,.69l-2,.39a54.89,54.89,0,0,0-32.62,20.3L10.19,23l1.68,1.21c8.52,6.13,12.2,11.92,11,17.23C19.4,55.91,21.52,60.05,24,64.85a28.72,28.72,0,0,1,3,7.89c1.25,6-4.94,12.93-11.14,17.47l-1.86,1.36,1.6,1.65a55.33,55.33,0,0,0,20.61,13.37l1,.35.84-.57C55.54,94.62,60.45,80,61.48,69.71c.22-2.25,1-2.25,1.51-2.25,1.69,0,8.82,1.75,29.87,24.24l1.49,1.6,1.46-1.63A54.83,54.83,0,0,0,109.9,55a55.52,55.52,0,0,0-1.17-11.28l-.52-2.48-2.29,1.08C100,45.05,94.86,46.46,90.5,46.46a14,14,0,0,1-11.12-4.74c-5.48-6.16-9.76-8.91-13.89-8.91h0A14.86,14.86,0,0,0,60,34.12a13.54,13.54,0,0,1-5,1.2,8.83,8.83,0,0,1-1.14-.07c-3.52-.44-4.68-11-5.61-19.49-.49-4.47-1-9.1-1.83-13.12L46,.69Z"/><path class="cls-3" d="M16.25,92.52a53.91,53.91,0,0,1-4-70.53l.59-.76.78.56c9.74,7,13.7,13.66,12.12,20.36-3.17,13.38-1.37,16.89.9,21.33a31.43,31.43,0,0,1,3.23,8.65c1.94,9.24-8.93,18-12.31,20.5l-.7.51Z"/><path class="cls-2" d="M13,22.61C19.3,27.11,26.65,34,24.76,41.92,20,62.27,26.44,60.63,28.89,72.33c1.48,7-5.21,14.58-11.92,19.49A52.89,52.89,0,0,1,13,22.61m-.4-2.76-1.18,1.53a54.91,54.91,0,0,0,4.07,71.84l1.22,1.24,1.4-1c13.46-9.86,13.37-18.33,12.7-21.52A32.17,32.17,0,0,0,27.53,63c-2.26-4.43-3.9-7.63-.82-20.65,1.66-7-2.54-14.23-12.5-21.4l-1.57-1.13Z"/><path class="cls-4" d="M59.37,107c29.93-8.3,46.32-35,41.61-60.07a36.39,36.39,0,0,0,5.43-2.09C113.27,82,82.58,106.66,59.37,107Z"/><path class="cls-5" d="M55,108.9a53.89,53.89,0,0,1-18.47-3.25L34.63,105l1.64-1.09C52.9,92.78,57.53,79,58.49,69.41c.43-4.31,3-5,4.5-5,7,0,21.31,13.7,32.07,25.19l.62.67-.61.69A54.05,54.05,0,0,1,55,108.9Z"/><path class="cls-2" d="M63,65.46c7,0,22.58,15.53,31.34,24.88a53,53,0,0,1-57.51,14.37c16-10.7,21.56-24.14,22.67-35.2.28-2.86,1.56-4.05,3.5-4.05m0-2c-1.47,0-5,.57-5.49,5.86C56.56,78.7,52,92.16,35.71,103.05l-3.28,2.19,3.71,1.35A55,55,0,0,0,95.81,91.67L97,90.31,95.79,89C79.94,72,68.91,63.46,63,63.46Z"/><path class="cls-3" d="M90.5,49.46a17.09,17.09,0,0,1-13.36-5.75c-6.23-7-9.5-7.9-11.65-7.9a12.41,12.41,0,0,0-4.41,1.11A16.29,16.29,0,0,1,55,38.32a13,13,0,0,1-1.52-.09c-5.87-.74-7-11.14-8.21-22.14-.48-4.41-1-9-1.78-12.85l-.21-1,1-.2A54.69,54.69,0,0,1,55,1a54.14,54.14,0,0,1,52.8,42.88l.16.77-.71.34c-6.28,3-11.9,4.47-16.7,4.47Z"/><path class="cls-2" d="M55,2a53,53,0,0,1,51.83,42.08c-4.87,2.3-10.71,4.38-16.28,4.38a16.17,16.17,0,0,1-12.62-5.41c-5.76-6.48-9.39-8.24-12.39-8.24-3.57,0-6.22,2.51-10.48,2.51a11.38,11.38,0,0,1-1.4-.08c-7.24-.92-6.4-21-9.13-34.2A53,53,0,0,1,55,2m0-2A55.12,55.12,0,0,0,44.08,1.08l-2,.4.41,2c.79,3.83,1.29,8.36,1.77,12.74,1.3,11.91,2.42,22.19,9.07,23a13.16,13.16,0,0,0,1.65.1,17.16,17.16,0,0,0,6.43-1.47,11.66,11.66,0,0,1,4-1c1.79,0,4.87.79,10.9,7.57A18.09,18.09,0,0,0,90.5,50.46c5,0,10.72-1.54,17.13-4.57l1.42-.68-.32-1.54A54.95,54.95,0,0,0,55,0Z"/><path class="cls-6" d="M100.65,46c-2.54-14.65-19.56-36.18-32-41.6,26,7,35.3,28.54,37.52,39.38A56.51,56.51,0,0,1,100.65,46Z"/><g id="face"><line class="cls-7" x1="45.31" y1="50.85" x2="45.31" y2="54.95"/><line class="cls-7" x1="72.71" y1="50.85" x2="72.71" y2="54.95"/><path class="cls-8" d="M51.6,59.67c1.89-6.56,13.24-6.54,15.54,0"/></g><g id="band"><g id="bandaid"><path class="cls-9" d="M36,46.7a4.76,4.76,0,0,1-4-2.2L23.32,30.92a4.77,4.77,0,0,1,8-5.14L40,39.36a4.77,4.77,0,0,1-4,7.34Z"/><path class="cls-10" d="M27.33,24.33a4,4,0,0,1,3.4,1.85l8.68,13.58a4,4,0,0,1-1.22,5.56A4,4,0,0,1,36,46a4,4,0,0,1-3.4-1.85L24,30.51A4,4,0,0,1,25.17,25a4,4,0,0,1,2.16-.63m0-1.5a5.51,5.51,0,0,0-4.65,8.49L31.37,44.9A5.52,5.52,0,1,0,40.67,39L32,25.37a5.51,5.51,0,0,0-4.66-2.54Z"/><path class="cls-11" d="M39.79,42.55a3.94,3.94,0,0,0-.42-3.08L31,26.36A4.05,4.05,0,0,0,25.83,25C33.28,28.5,33.53,38.62,39.79,42.55Z"/></g><g id="bandaid-2" data-name="bandaid"><path class="cls-11" d="M24.64,44a4.6,4.6,0,0,1-2.49-8.48L36,26.64a4.6,4.6,0,1,1,5,7.76L27.11,43.26a4.52,4.52,0,0,1-2.47.73Z"/><path class="cls-10" d="M38.49,26.67a3.88,3.88,0,0,1,3.26,1.78h0a3.86,3.86,0,0,1-1.18,5.32L26.7,42.63a3.8,3.8,0,0,1-2.06.61,3.85,3.85,0,0,1-2.09-7.1l13.88-8.86a3.8,3.8,0,0,1,2.06-.61m0-1.5a5.31,5.31,0,0,0-2.87.84L21.75,34.88a5.35,5.35,0,0,0,5.76,9L41.38,35a5.35,5.35,0,0,0-2.89-9.86Z"/><path class="cls-9" d="M39.37,27.1c-1.52-.61-2.69.07-4.07,1l-12.69,8.1a3.3,3.3,0,0,0-1,4.56C25.36,33.9,35.27,32.94,39.37,27.1Z"/><rect class="cls-12" x="26.37" y="30.48" width="10.39" height="8.96" transform="translate(-13.86 22.5) rotate(-32.58)"/><path class="cls-10" d="M33.3,29.42l4,6.28-7.49,4.79-4-6.28,7.49-4.79m.46-2.07-1.26.81L25,32.94l-1.26.81L24.55,35l4,6.28.81,1.26,1.26-.81L38.13,37l1.26-.8-.81-1.27-4-6.28-.81-1.26Z"/><path class="cls-13" d="M33.3,29.42l-7.49,4.79,1,1.6c2.49-1.61,5.33-2.79,7.82-4.29Z"/></g></g><path class="cls-14" d="M41.71,76.64a7,7,0,0,1-5.58-3.3,5,5,0,0,1,.29-5.28c1.83-3,3.59-6.16,4.26-7.38a1.14,1.14,0,0,1,1-.59,1.11,1.11,0,0,1,1,.61c.68,1.26,2.44,4.52,4.26,7.35a4.89,4.89,0,0,1,.45,5.27A7,7,0,0,1,41.71,76.64Z"/><path class="cls-2" d="M41.66,60.84a.36.36,0,0,1,.32.21c.7,1.31,2.46,4.57,4.29,7.4,2.92,4.54-2,7.44-4.56,7.44s-7.35-3-4.64-7.44c1.82-3,3.57-6.14,4.27-7.41a.37.37,0,0,1,.32-.2m0-1.5a1.88,1.88,0,0,0-1.63,1c-.67,1.22-2.43,4.36-4.25,7.37a5.78,5.78,0,0,0-.3,6,7.8,7.8,0,0,0,6.23,3.68A7.8,7.8,0,0,0,48,73.68a5.73,5.73,0,0,0-.48-6c-1.8-2.8-3.55-6-4.22-7.3a1.88,1.88,0,0,0-1.65-1Z"/></g></g></g></svg>