<svg width="170" height="170" viewBox="0 0 170 170" fill="none" xmlns="http://www.w3.org/2000/svg">
<path d="M85.4886 62.1009C85.9926 62.1627 86.5001 62.1914 87.0078 62.1868C89.178 62.1209 91.314 61.6298 93.2943 60.7413C95.0357 59.9326 96.915 59.4611 98.8324 59.3518H98.9185C101.661 59.3518 105.763 60.4238 113.213 68.7831C114.948 70.7522 117.101 72.3121 119.514 73.3501C121.927 74.3881 124.541 74.8784 127.167 74.7854H127.219C127.649 74.7854 128.087 74.7854 128.525 74.7481H128.858C129.281 74.7219 129.707 74.6883 130.141 74.6435H130.205C130.669 74.5912 131.141 74.5277 131.619 74.4567L131.889 74.4119C132.353 74.3372 132.824 74.255 133.3 74.1579H133.33C133.838 74.0533 134.359 73.9375 134.879 73.8068L135.043 73.7657C136.099 73.5043 137.18 73.1905 138.28 72.8282H138.336C138.894 72.6415 139.459 72.4547 140.031 72.2343C137.262 56.9576 121.093 35.3349 107.476 26.6656C104.34 25.5142 101.111 24.6284 97.8258 24.0174L97.7136 23.9987C96.4338 23.7634 95.1428 23.5729 93.8519 23.4235H93.6797C93.081 23.3525 92.4786 23.2965 91.8798 23.248H91.7302C91.0828 23.1994 90.4355 23.1583 89.7844 23.1284H89.6983C89.1071 23.1023 88.5196 23.0836 87.9283 23.0761H87.5803C86.333 23.0761 85.0857 23.1035 83.8384 23.1583L83.4155 23.1845C82.9066 23.2143 82.394 23.2517 81.8851 23.2965L81.5109 23.3264C80.9009 23.3824 80.2947 23.4497 79.6848 23.5244L79.3106 23.5729C78.8167 23.6364 78.3227 23.7074 77.8138 23.7858C77.6492 23.812 77.4808 23.8344 77.3161 23.8643C76.7099 23.9614 76.1037 24.0659 75.4976 24.1855C76.3807 28.6676 76.9756 33.8968 77.4696 38.4911C78.7456 49.7226 80.0253 61.4211 85.4886 62.1009Z" fill="#BBE925"/>
<path d="M145.876 72.9851C139.025 76.1525 132.761 77.7623 127.241 77.7698C127.014 77.7698 126.786 77.7698 126.557 77.7698C123.608 77.7733 120.692 77.1487 118.005 75.9378C115.317 74.7269 112.919 72.9575 110.971 70.7477C104.292 63.2513 100.917 62.3362 98.9596 62.325C97.4279 62.4179 95.9274 62.7981 94.5366 63.4455C92.1941 64.5059 89.6647 65.0936 87.0939 65.1749H87.049C86.4099 65.1796 85.7712 65.1434 85.1368 65.0666C77.3274 64.0955 75.9765 51.7732 74.5471 38.7301C74.0494 34.0948 73.4432 28.7834 72.5489 24.3498V24.2826C58.6646 27.1905 46.2006 34.7665 37.2397 45.7447C44.776 51.2092 49.3749 56.5766 51.1074 61.9291L53.4798 60.435L51.8895 58.0109C51.2011 57.0173 50.8306 55.8387 50.8268 54.6306C50.8073 53.2618 51.2335 51.9237 52.0414 50.8176C52.8494 49.7114 53.9953 48.897 55.3068 48.4968C56.6183 48.0967 58.0246 48.1324 59.314 48.5987C60.6034 49.0649 61.7063 49.9365 62.4568 51.0822L64.1332 53.6371L66.7189 51.9861C67.7323 51.332 68.9135 50.9844 70.1203 50.9851C71.801 50.995 73.4094 51.6683 74.5943 52.8581C75.7792 54.0478 76.4443 55.6572 76.4442 57.3349C76.4475 58.3886 76.1832 59.426 75.676 60.3502C75.1689 61.2744 74.4355 62.0553 73.5442 62.6201L71.0558 64.2112L72.6686 66.6652C73.3341 67.6699 73.6953 68.8449 73.7089 70.0493C73.7179 71.7256 73.0624 73.3375 71.8854 74.5334C70.7085 75.7292 69.1054 76.4119 67.4261 76.4326H67.3588C66.3142 76.4352 65.2855 76.1768 64.3666 75.6809C63.4477 75.1851 62.6676 74.4677 62.0976 73.5939L60.41 71.0167L60.3389 71.0615L57.8467 72.6527C56.8417 73.3273 55.6564 73.684 54.4453 73.6761C53.2183 73.6761 52.0176 73.322 50.9877 72.6564C48.17 85.6584 49.9512 89.1695 52.376 93.9019C54.1649 97.135 55.4626 100.616 56.2264 104.23C57.2742 109.223 55.5641 114.58 51.1449 120.145C48.4537 123.433 45.3713 126.382 41.9658 128.926C48.1218 134.929 55.462 139.587 63.5195 142.604L65.0163 141.581C83.0338 129.36 88.063 114.262 89.107 103.751C89.7432 97.256 94.2111 96.7518 95.5657 96.7518C102.208 96.7518 114.41 106.321 131.836 125.191C137.993 118.124 142.455 109.749 144.886 100.704C147.317 91.6584 147.651 82.1791 145.865 72.9851H145.876ZM74.1317 103.737L74.098 103.793C73.3136 105.096 72.2155 106.184 70.9035 106.957C69.5914 107.73 68.1067 108.163 66.5842 108.219H66.4644C64.9758 108.138 63.5287 107.7 62.2465 106.941C60.9642 106.182 59.8848 105.125 59.1003 103.86L59.0666 103.807C58.4371 102.676 58.1385 101.39 58.2047 100.097C58.2708 98.8044 58.6991 97.556 59.4408 96.4941C61.4203 93.237 63.3661 89.7708 64.2043 88.2357C64.4271 87.8177 64.7631 87.4708 65.174 87.2343C65.5849 86.9979 66.0541 86.8815 66.528 86.8985C66.9854 86.9041 67.4332 87.029 67.8271 87.261C68.221 87.493 68.5472 87.8239 68.7732 88.2207L68.8032 88.2768C69.1961 89.0238 71.2729 92.9233 73.533 96.4343C74.3168 97.4693 74.7893 98.7055 74.8953 99.9986C75.0013 101.292 74.7365 102.588 74.1317 103.737ZM82.6896 81.9681C82.6896 83.0886 81.683 83.9813 80.4444 83.9813C79.2058 83.9813 78.1992 83.0774 78.1992 81.9681V77.7997C78.1992 76.6791 79.2058 75.7864 80.4444 75.7864C81.683 75.7864 82.6896 76.6866 82.6896 77.7997V81.9681ZM105.429 92.1015C105.194 92.2104 104.938 92.2714 104.679 92.2813C104.419 92.2911 104.16 92.2495 103.916 92.1589C103.673 92.0683 103.45 91.9304 103.26 91.7532C103.07 91.5761 102.917 91.3631 102.81 91.1267C101.938 89.2143 98.7314 87.9107 95.1952 88.034C92.037 88.1386 89.4925 89.3338 88.8638 91.0221C88.6669 91.4909 88.2956 91.8652 87.8279 92.0665C87.3602 92.2677 86.8326 92.2802 86.3559 92.1013C85.8792 91.9224 85.4906 91.566 85.2716 91.107C85.0527 90.6481 85.0204 90.1223 85.1817 89.6401C86.4016 86.398 90.1885 84.2839 95.0605 84.1233H95.7153C101.762 84.1233 105.239 86.9956 106.391 89.528C106.599 89.9974 106.615 90.5294 106.436 91.0104C106.256 91.4914 105.895 91.883 105.429 92.1015ZM112.865 81.9644C112.865 83.0849 111.858 83.9776 110.62 83.9776C109.381 83.9776 108.374 83.0737 108.374 81.9644V77.7997C108.374 76.6791 109.377 75.7864 110.62 75.7864C111.862 75.7864 112.865 76.6866 112.865 77.7997V81.9644Z" fill="#B1CECF"/>
<path d="M48.6265 64.7155C47.6985 59.3854 43.3391 53.9359 35.4323 48.2062C26.6786 59.6565 22.3193 73.8559 23.1429 88.2359C23.9665 102.616 29.9187 116.227 39.9227 126.607C43.863 123.66 55.2011 114.236 53.2254 104.82C52.5209 101.493 51.3241 98.2889 49.6743 95.3138L49.6481 95.2689C46.8977 89.9053 44.7236 85.6696 48.4843 69.7579L48.5068 69.6496C48.2132 68.9179 48.062 68.137 48.0615 67.3488C48.061 66.441 48.2536 65.5434 48.6265 64.7155Z" fill="#BBE925"/>
<path d="M95.5769 99.7399C93.5151 99.7399 92.3251 101.189 92.0445 104.047C90.9481 115.088 85.743 130.872 67.2428 143.669C78.1162 147.53 89.8993 148.052 101.072 145.166C112.245 142.28 122.296 136.119 129.928 127.477C107.675 103.363 98.8586 99.7399 95.5769 99.7399Z" fill="#2FA0B7"/>
<path d="M140.031 72.1858C141.715 71.5657 143.444 70.8361 145.218 69.997C141.977 54.7386 132.823 41.3781 119.754 32.8286C115.908 30.2961 111.784 28.2132 107.461 26.6208C121.093 35.2863 137.262 56.909 140.031 72.1858Z" fill="#6FD037"/>
<path d="M150 84.7433C150.002 79.4758 149.36 74.2277 148.088 69.1155C144.987 55.0111 137.09 42.4131 125.739 33.4615C114.388 24.5099 100.282 19.7568 85.8179 20.0096H85.1406C74.2037 20.0139 63.4455 22.7787 53.8662 28.0467C44.287 33.3148 36.1978 40.9151 30.3508 50.141C23.1458 61.1361 19.5446 74.0956 20.0461 87.2244C20.5476 100.353 25.1269 113.001 33.1498 123.417L33.2695 123.574V123.6C42.4523 135.803 55.6497 144.386 70.5432 147.841C81.5481 150.856 93.1819 150.711 104.108 147.421C115.034 144.132 124.808 137.833 132.308 129.248L133.91 127.455L133.868 127.406C144.273 115.621 150.009 100.451 150 84.7433ZM77.3648 23.7783C77.5294 23.7485 77.6978 23.7261 77.8624 23.6999C78.3601 23.6215 78.8541 23.5505 79.3592 23.487L79.7334 23.4384C80.3434 23.3637 80.9496 23.2965 81.5595 23.2405L81.9337 23.2106C82.4426 23.1658 82.9553 23.1284 83.4642 23.0985L83.887 23.0724C85.1343 23.0052 86.3816 22.9778 87.629 22.9902H87.977C88.5682 22.9902 89.1557 23.0164 89.7469 23.0425H89.833C90.4841 23.0724 91.1315 23.1135 91.7788 23.162H91.9285C92.5272 23.2106 93.1296 23.2666 93.7284 23.3376H93.9005C95.1915 23.487 96.4825 23.6775 97.7622 23.9128L97.8745 23.9315C101.16 24.5424 104.388 25.4283 107.525 26.5797C111.847 28.1721 115.972 30.255 119.817 32.7875C132.887 41.337 142.04 54.6975 145.281 69.9559C143.505 70.7975 141.776 71.5271 140.095 72.1447C139.526 72.3576 138.972 72.5518 138.4 72.7386H138.344C137.244 73.1121 136.162 73.4146 135.107 73.6761L134.942 73.7172C134.422 73.8479 133.902 73.9637 133.393 74.0683H133.363C132.888 74.1654 132.417 74.2476 131.953 74.3223L131.683 74.3671C131.204 74.4381 130.733 74.5016 130.269 74.5538H130.126C129.692 74.5987 129.266 74.6323 128.843 74.6584H128.51C128.072 74.6808 127.634 74.6958 127.204 74.6958H127.152C124.526 74.7887 121.912 74.2985 119.499 73.2605C117.086 72.2225 114.933 70.6626 113.198 68.6934C105.748 60.3342 101.646 59.2622 98.9035 59.2622H98.8175C96.9 59.3715 95.0207 59.843 93.2794 60.6516C91.299 61.5401 89.163 62.0313 86.9928 62.0972C86.4851 62.1017 85.9776 62.073 85.4736 62.0112C80.0103 61.3314 78.7381 49.633 77.4883 38.3155C76.9943 33.7325 76.3993 28.4846 75.5162 24.0099C76.1374 23.98 76.7436 23.8755 77.3648 23.7783ZM86.6523 147.004C80.0453 147.007 73.4867 145.878 67.2615 143.669C85.7617 130.872 90.9668 115.088 92.0632 104.047C92.3439 101.189 93.5338 99.7399 95.5956 99.7399C98.8773 99.7399 107.697 103.348 129.947 127.477C124.519 133.6 117.853 138.506 110.388 141.872C102.923 145.237 94.8284 146.987 86.6374 147.004H86.6523ZM131.863 125.191C114.41 106.321 102.219 96.7518 95.5769 96.7518C94.2223 96.7518 89.7544 97.256 89.1183 103.751C88.0743 114.262 83.0451 129.36 65.0275 141.581L63.5308 142.604C55.454 139.582 48.0977 134.91 41.9321 128.889C45.3376 126.345 48.42 123.396 51.1112 120.108C55.5304 114.542 57.2405 109.186 56.1927 104.192C55.4289 100.578 54.1313 97.0977 52.3423 93.8645C49.9175 89.1321 48.1363 85.6211 50.954 72.619C49.8504 71.9055 48.9955 70.8681 48.5068 69.6496L48.4843 69.7579C44.7236 85.6696 46.8977 89.9053 49.6481 95.2689L49.6743 95.3138C51.3215 98.2893 52.5158 101.493 53.2179 104.82C55.1936 114.236 43.863 123.66 39.9152 126.607C29.9112 116.227 23.9591 102.616 23.1355 88.2359C22.3119 73.8559 26.6712 59.6565 35.4249 48.2062C43.3316 53.9359 47.691 59.3854 48.619 64.7155C49.1243 63.6004 49.9417 62.6548 50.9727 61.9926L51.07 61.9291C49.3375 56.5617 44.7386 51.2092 37.2023 45.7447C46.1632 34.7665 58.6272 27.1905 72.5115 24.2826V24.3498C73.4058 28.7834 74.0082 34.0948 74.5097 38.7301C75.9391 51.7732 77.2899 64.0955 85.0994 65.0666C85.7338 65.1434 86.3725 65.1796 87.0116 65.1749L87.0939 65.1749C89.67 65.1008 92.206 64.5181 94.5553 63.4605C95.9461 62.813 97.4466 62.4329 98.9783 62.3399C100.935 62.3399 104.311 63.2663 110.99 70.7627C112.938 72.9724 115.336 74.7418 118.023 75.9528C120.711 77.1637 123.627 77.7883 126.575 77.7847C126.802 77.7847 127.031 77.7847 127.26 77.7847C132.78 77.7847 139.044 76.1674 145.895 73C147.677 82.1931 147.337 91.6704 144.904 100.713C142.47 109.756 138.005 118.127 131.848 125.191H131.863Z" fill="#2D5E6B"/>
<path d="M80.4444 75.7864C79.2058 75.7864 78.1992 76.6866 78.1992 77.7997L78.1992 81.9644C78.1992 83.0849 79.2058 83.9776 80.4444 83.9776C81.683 83.9776 82.6896 83.0737 82.6896 81.9644L82.6896 77.7997C82.6896 76.6866 81.683 75.7864 80.4444 75.7864Z" fill="#2D5E6B"/>
<path d="M110.623 75.7864C109.381 75.7864 108.378 76.6866 108.378 77.7997V81.9644C108.378 83.0849 109.381 83.9776 110.623 83.9776C111.866 83.9776 112.869 83.0737 112.869 81.9644V77.7997C112.869 76.6866 111.862 75.7864 110.623 75.7864Z" fill="#2D5E6B"/>
<path d="M95.7341 84.0971H95.0792C90.2147 84.2577 86.4203 86.3718 85.2004 89.6139C85.0392 90.0961 85.0714 90.6219 85.2903 91.0809C85.5093 91.5398 85.898 91.8962 86.3746 92.0751C86.8513 92.2541 87.3789 92.2416 87.8466 92.0403C88.3143 91.8391 88.6856 91.4647 88.8825 90.9959C89.5112 89.3226 92.0557 88.1273 95.2139 88.0078C98.7501 87.8846 101.949 89.1881 102.829 91.1005C103.057 91.5546 103.453 91.9028 103.932 92.072C104.412 92.2412 104.939 92.2183 105.403 92.0081C105.866 91.7979 106.23 91.4167 106.417 90.9445C106.605 90.4724 106.603 89.9459 106.41 89.4757C105.257 86.9695 101.781 84.0971 95.7341 84.0971Z" fill="#2D5E6B"/>
<path d="M71.3776 97.8761C69.0838 94.3202 66.9771 90.3722 66.5131 89.5168V89.4982C65.6412 91.0968 63.6804 94.5929 61.6859 97.8686L61.641 97.9396C61.1707 98.5977 60.8947 99.3743 60.8444 100.181C60.7942 100.988 60.9716 101.793 61.3566 102.504C61.9138 103.395 62.6755 104.141 63.5786 104.68C64.4817 105.219 65.5004 105.536 66.5505 105.604C67.6214 105.555 68.664 105.244 69.5865 104.699C70.5091 104.154 71.2834 103.391 71.8416 102.478C72.2082 101.765 72.3638 100.963 72.2903 100.165C72.2167 99.3674 71.917 98.6071 71.4263 97.9732L71.3776 97.8761Z" fill="#F0F0F0"/>
<path d="M68.8144 88.2618L68.7844 88.2058C68.5584 87.8089 68.2322 87.4781 67.8383 87.2461C67.4444 87.0141 66.9966 86.8891 66.5393 86.8835C66.0653 86.8666 65.5961 86.983 65.1852 87.2194C64.7743 87.4558 64.4383 87.8028 64.2155 88.2207C63.3773 89.7559 61.4315 93.2221 59.452 96.4791C58.7103 97.5411 58.282 98.7895 58.2159 100.082C58.1497 101.375 58.4484 102.661 59.0778 103.793L59.1115 103.845C59.8932 105.111 60.9701 106.171 62.2504 106.932C63.5307 107.694 64.9764 108.135 66.4644 108.219H66.5842C68.1057 108.165 69.5896 107.733 70.9016 106.962C72.2136 106.191 73.3123 105.105 74.098 103.804L74.1317 103.748C74.7403 102.599 75.0083 101.301 74.9043 100.006C74.8002 98.7104 74.3284 97.4715 73.5442 96.4343C71.2841 92.9046 69.2073 89.0089 68.8144 88.2618ZM71.8416 102.463C71.2852 103.379 70.5116 104.145 69.5889 104.693C68.6663 105.241 67.6228 105.554 66.5505 105.604C65.4998 105.539 64.4798 105.225 63.5746 104.689C62.6695 104.152 61.9054 103.409 61.3454 102.519C60.9604 101.808 60.7829 101.003 60.8332 100.196C60.8835 99.3892 61.1595 98.6126 61.6298 97.9545L61.6747 97.8835C63.6692 94.6078 65.63 91.1117 66.5018 89.5131V89.5318C66.9509 90.3871 69.0576 94.3352 71.3664 97.891L71.4263 97.9732C71.9141 98.6056 72.212 99.3632 72.2855 100.158C72.3591 100.953 72.2051 101.752 71.8416 102.463Z" fill="#2D5E6B"/>
<path d="M66.7376 57.5702L69.7836 62.3026L72.2907 60.7039C72.8645 60.341 73.3369 59.8389 73.6641 59.2446C73.9912 58.6503 74.1624 57.9831 74.1617 57.305C74.1617 56.2217 73.7332 55.1823 72.9693 54.4128C72.2055 53.6434 71.1681 53.2062 70.0829 53.1963H70.0155C70.4213 53.2159 70.821 53.303 71.198 53.454C69.989 55.0985 68.4747 56.4959 66.7376 57.5702Z" fill="#F1D49B"/>
<path d="M56.5707 70.744L59.089 69.1379L55.7213 63.9087C53.7372 65.2429 52.0839 67.0108 50.8867 69.0781C50.5373 68.529 50.3385 67.8978 50.3104 67.2479C50.3104 67.2853 50.3104 67.3226 50.3104 67.36C50.3143 67.8956 50.4239 68.4252 50.6329 68.9186C50.8419 69.412 51.1461 69.8594 51.5284 70.2354C51.9106 70.6114 52.3633 70.9085 52.8605 71.1099C53.3578 71.3112 53.8899 71.4128 54.4266 71.4089C55.1921 71.4085 55.9396 71.1767 56.5707 70.744Z" fill="#F1D49B"/>
<path d="M70.7078 67.7858C71.2158 68.7896 71.337 69.9446 71.0484 71.0316C69.391 69.9223 67.9881 68.4749 66.9322 66.7848L62.2622 69.7729L63.9386 72.3314C64.3037 72.8913 64.8028 73.3514 65.3908 73.6703C65.9788 73.9892 66.6372 74.1568 67.3064 74.1579H67.3513C68.0846 74.159 68.8046 73.9622 69.4351 73.5883C70.0655 73.2145 70.583 72.6774 70.9327 72.034C71.2824 71.3906 71.4514 70.6648 71.4217 69.9334C71.392 69.202 71.1647 68.4922 70.764 67.8792L70.7078 67.7858Z" fill="#EDCA80"/>
<path d="M55.4144 59.3219L60.8141 55.8632C59.3809 53.8276 57.6334 52.0683 55.2236 50.9328C55.8253 50.629 56.4878 50.4643 57.1619 50.451H57.0534C55.9723 50.4687 54.9424 50.9142 54.1902 51.6895C53.438 52.4648 53.025 53.5066 53.042 54.5858C53.0444 55.3548 53.2806 56.105 53.7193 56.7372L55.4144 59.3219Z" fill="#EDCA80"/>
<path d="M71.0484 71.0316C71.337 69.9446 71.2158 68.7896 70.7078 67.7858C70.6644 67.691 70.6157 67.5987 70.5619 67.5094L69.1923 65.343L66.9471 66.7848C67.9987 68.4734 69.3964 69.9207 71.0484 71.0316Z" fill="#F1D49B"/>
<path d="M60.8141 55.8632L62.5204 54.7688L61.0797 52.4829C60.651 51.8413 60.0666 51.3185 59.3809 50.9632C58.6952 50.608 57.9305 50.4317 57.1582 50.451C56.484 50.4643 55.8215 50.629 55.2198 50.9328C57.6334 52.0683 59.3809 53.8276 60.8141 55.8632Z" fill="#F1D49B"/>
<path d="M71.2055 53.469C70.8285 53.318 70.4288 53.2308 70.023 53.2113C68.8144 53.1664 67.7779 53.8014 66.5617 54.6231L65.3418 55.4L66.7376 57.5702C68.4761 56.5011 69.9928 55.1088 71.2055 53.469Z" fill="#EDCA80"/>
<path d="M55.7213 63.8975L54.6398 62.2129L52.0504 63.8639C51.4937 64.2252 51.0413 64.7255 50.7381 65.3152C50.4348 65.9048 50.2913 66.5634 50.3216 67.2255C50.3498 67.8754 50.5485 68.5066 50.8979 69.0557C52.0932 66.9936 53.7426 65.2298 55.7213 63.8975Z" fill="#EDCA80"/>
<path d="M61.0049 67.8567L67.8115 63.4941L64.7132 58.6758C62.468 60.0839 59.9385 61.2082 57.7008 62.7172L61.0049 67.8567Z" fill="#E18085"/>
<path d="M56.7353 61.2119L57.7008 62.706C59.9459 61.2119 62.4718 60.0727 64.7132 58.6646L63.5382 56.8381L56.8476 61.1559L56.7353 61.2119Z" fill="#DC636E"/>
<path d="M57.8093 72.6153L60.3014 71.0241L60.3725 70.9793L62.0601 73.5566C62.6302 74.4303 63.4103 75.1478 64.3292 75.6436C65.2481 76.1394 66.2768 76.3978 67.3213 76.3953H67.3887C69.068 76.3746 70.671 75.6919 71.848 74.496C73.025 73.3002 73.6805 71.6883 73.6715 70.0119C73.6579 68.8075 73.2967 67.6326 72.6312 66.6279L71.0184 64.1739L73.5068 62.5827C74.3981 62.018 75.1315 61.2371 75.6387 60.3129C76.1458 59.3886 76.4101 58.3512 76.4068 57.2975C76.4069 55.6199 75.7418 54.0104 74.5569 52.8207C73.372 51.631 71.7636 50.9576 70.0829 50.9478C68.8761 50.947 67.6949 51.2946 66.6815 51.9488L64.0958 53.5997L62.4269 51.071C61.6764 49.9253 60.5735 49.0537 59.284 48.5875C57.9946 48.1212 56.5884 48.0855 55.2769 48.4856C53.9653 48.8858 52.8194 49.7002 52.0115 50.8063C51.2036 51.9125 50.7773 53.2506 50.7968 54.6194C50.8006 55.8275 51.1712 57.0061 51.8596 57.9997L53.4499 60.4238L51.0775 61.9179L50.9802 61.9814C49.9491 62.6436 49.1318 63.5892 48.6265 64.7043C48.2523 65.5319 48.0584 66.4295 48.0577 67.3376C48.0583 68.1258 48.2094 68.9067 48.503 69.6384C48.9755 70.816 49.7904 71.8254 50.8429 72.5364C51.8953 73.2474 53.137 73.6274 54.4078 73.6275C55.6178 73.6387 56.803 73.286 57.8093 72.6153ZM71.4338 70.0455C71.4339 71.1256 71.0079 72.1622 70.2481 72.9312C69.4883 73.7001 68.4557 74.1395 67.3737 74.1542H67.3288C66.6596 74.1531 66.0013 73.9855 65.4133 73.6666C64.8253 73.3477 64.3261 72.8875 63.9611 72.3277L62.2847 69.7691L66.9546 66.781L69.1998 65.3393L70.5694 67.5056C70.6232 67.595 70.6719 67.6873 70.7153 67.782L70.7715 67.8642C71.1958 68.5135 71.4256 69.2703 71.4338 70.0455ZM66.5692 54.6231C67.7667 53.8014 68.8144 53.1664 70.0305 53.2113H70.0979C71.1831 53.2211 72.2205 53.6583 72.9843 54.4278C73.7482 55.1972 74.1767 56.2367 74.1766 57.3199C74.1774 57.998 74.0062 58.6653 73.6791 59.2596C73.3519 59.8539 72.8795 60.3559 72.3056 60.7189L69.7985 62.3175L65.3568 55.415L66.5692 54.6231ZM64.7207 58.6758L67.819 63.4941L61.0124 67.8567L57.7082 62.7172L56.7428 61.2231L56.8588 61.1484L63.5495 56.8605L64.7207 58.6758ZM53.0495 54.5671C53.0406 54.0324 53.1373 53.5013 53.3341 53.0039C53.5308 52.5065 53.8238 52.0527 54.1964 51.6684C54.5689 51.2841 55.0136 50.9768 55.5051 50.7641C55.9966 50.5513 56.5252 50.4373 57.0609 50.4286H57.1582C57.9299 50.4099 58.6938 50.5865 59.3788 50.9417C60.0638 51.297 60.6477 51.8195 61.076 52.4605L62.5167 54.7464L55.4107 59.2995L53.7156 56.7148C53.2825 56.0885 53.0478 55.3468 53.042 54.5858L53.0495 54.5671ZM50.3104 67.3301C50.3104 67.2927 50.3104 67.2554 50.3104 67.218C50.28 66.5559 50.4236 65.8974 50.7268 65.3077C51.0301 64.718 51.4825 64.2177 52.0392 63.8564L54.6286 62.2055L55.71 63.89L59.0778 69.1192L56.5595 70.7253C55.9219 71.1576 55.1674 71.3857 54.3966 71.379C53.32 71.381 52.286 70.9588 51.5194 70.2042C50.7529 69.4495 50.3157 68.4234 50.3029 67.3488L50.3104 67.3301Z" fill="#2D5E6B"/>
</svg>
