<svg width="42" height="42" viewBox="0 0 42 42" fill="none" xmlns="http://www.w3.org/2000/svg">
<path d="M17.4648 13.2704H16.0808C16.0808 13.6814 16.0808 14.0869 16.0808 14.4755H17.4648C17.4509 14.0869 17.4509 13.6814 17.4648 13.2704Z" fill="#AC7D5A"/>
<path d="M27.1917 14.4755H28.5758C28.5758 14.3413 28.5758 14.1959 28.5758 14.0701C28.5281 13.8061 28.5021 13.5387 28.4982 13.2704H27.1862C27.2111 13.6814 27.2056 14.0869 27.1917 14.4755Z" fill="#AC7D5A"/>
<path d="M24.6091 6.86418C24.8693 7.19655 25.0913 7.55772 25.2707 7.94073C25.4912 8.11639 25.6909 8.31718 25.8658 8.53912C26.5966 9.46468 26.973 10.7342 27.1114 12.0428H28.4955C28.3266 10.4545 27.8837 8.86349 26.9426 7.66949C26.5056 7.1163 25.9606 6.65982 25.3416 6.32838C24.7225 5.99695 24.0426 5.79765 23.3441 5.74288C23.8294 6.03642 24.2579 6.41632 24.6091 6.86418Z" fill="#AC7D5A"/>
<path d="M17.7028 7.84845C16.7894 9.02287 16.3493 10.5356 16.1721 12.0428H17.5561C17.7167 10.8125 18.0765 9.61847 18.7851 8.7097C19.6322 7.62196 20.8612 7.09347 22.5442 7.09347C22.6576 7.09347 22.7628 7.09347 22.8708 7.10745C22.1622 6.6089 21.3115 6.35846 20.4488 6.39441C20.0217 6.39231 19.5956 6.43731 19.1782 6.52863C18.6089 6.87127 18.1084 7.31899 17.7028 7.84845Z" fill="#AC7D5A"/>
<path d="M31.1362 14.4755H29.9127C29.957 14.8027 30.0068 15.1662 30.0567 15.5409C30.3888 17.9373 30.9397 21.9527 31.258 25.4284C31.4352 27.369 31.521 28.9489 31.5099 30.1205C31.496 31.9269 31.2801 32.8385 30.7348 33.3754C30.3252 33.7808 29.5778 34.1919 26.9121 34.4435C25.3759 34.5917 23.3829 34.6672 21.1546 34.6672C18.763 34.6672 16.2773 34.5749 14.3258 34.4128C13.3044 34.3261 12.4518 34.2254 11.7875 34.1108C11.8678 34.5693 11.9896 34.8853 12.1557 35.0167C13.5867 36.1352 31.0476 36.5071 32.5534 35.0167C34.1368 33.4704 30.9895 14.5091 31.1362 14.4755Z" fill="#D4C9BB"/>
<path d="M27.1917 14.4755L26.0707 14.4755C25.9998 15.284 25.8787 16.0872 25.708 16.8803C25.6736 17.0347 25.5883 17.1727 25.4661 17.2717C25.3439 17.3708 25.1921 17.425 25.0354 17.4256C24.9832 17.4246 24.9312 17.418 24.8804 17.406C24.7914 17.3859 24.7073 17.3482 24.6329 17.295C24.5585 17.2418 24.4953 17.1743 24.4469 17.0963C24.3985 17.0183 24.3659 16.9313 24.351 16.8405C24.3361 16.7497 24.3391 16.6568 24.36 16.5671C24.5024 15.8753 24.6078 15.1761 24.6756 14.4727H15.8178C15.8873 15.174 15.9973 15.8705 16.1472 16.5587C16.1788 16.7342 16.1429 16.9152 16.0468 17.0648C15.9506 17.2144 15.8015 17.3212 15.63 17.3633C15.4584 17.4055 15.2774 17.3798 15.124 17.2916C14.9706 17.2034 14.8564 17.0592 14.8047 16.8887C14.6252 16.0927 14.4976 15.2856 14.4227 14.4727H13.2573C13.4871 14.4727 11.4692 27.4921 11.6768 32.8357C13.4954 33.2104 17.4177 33.4369 21.1629 33.4369C25.279 33.4369 29.1902 33.1572 29.8352 32.5141C31.0753 31.2894 29.1819 18.4993 28.6394 14.4727H27.1889L27.1917 14.4755Z" fill="#D4C9BB"/>
<path d="M31.2691 25.4284C30.9507 21.9527 30.3999 17.9373 30.0677 15.5409C30.0179 15.1662 29.9681 14.8027 29.9238 14.4755C29.8491 13.9415 29.7937 13.5108 29.7771 13.3347V13.2704C29.7765 13.108 29.7434 12.9475 29.6796 12.7985C29.6159 12.6495 29.5228 12.5152 29.4062 12.4035C29.1635 12.1728 28.8426 12.0447 28.5093 12.0456H26.1537C26.1426 10.6322 25.8449 9.23618 25.279 7.94353C25.0996 7.56052 24.8776 7.19935 24.6174 6.86697C24.2685 6.42089 23.8428 6.042 23.3607 5.74847C22.4826 5.23364 21.4803 4.97517 20.4654 5.00188C18.4779 5.00188 16.9361 5.68696 15.887 7.03754C14.8379 8.38813 14.431 10.3008 14.359 12.0484H11.7598C11.5775 12.0484 11.3973 12.0874 11.2311 12.1631C11.0658 12.2349 10.9176 12.3417 10.7965 12.4762C10.6784 12.6092 10.5905 12.7667 10.5391 12.9376C10.4886 13.107 10.4764 13.2857 10.5031 13.4605C10.481 13.8827 10.3121 15.2725 10.1488 16.6231C9.82218 19.3214 9.37376 23.0209 9.14401 26.2142C9.0249 27.6313 8.97962 29.0537 9.00838 30.4756C9.06928 32.1534 9.32671 32.9923 9.93568 33.476C10.2983 33.7556 10.8353 33.9458 11.7792 34.1108H11.8096C12.474 34.2254 13.3265 34.3261 14.348 34.4128C16.2994 34.5749 18.7768 34.6672 21.1767 34.6672C23.3912 34.6672 25.398 34.5917 26.9343 34.4435C29.5999 34.1919 30.3473 33.7808 30.757 33.3753C31.3106 32.8385 31.5182 31.9269 31.532 30.1205C31.532 28.9489 31.4462 27.369 31.2691 25.4284ZM16.9693 7.89319C17.5222 7.18545 18.3078 6.70132 19.1837 6.52862C19.6012 6.43731 20.0272 6.39231 20.4543 6.39441C21.3171 6.35846 22.1677 6.6089 22.8763 7.10745C23.12 7.28914 23.3379 7.50364 23.5241 7.74499C24.4015 8.86349 24.7088 10.4909 24.7641 12.054H15.7375C15.7984 10.5412 16.1112 8.99491 16.9693 7.89319ZM29.838 32.5169C29.182 33.1684 25.2818 33.4397 21.1657 33.4397C17.4205 33.4397 13.4982 33.2132 11.6796 32.8385C11.3447 32.7938 11.0214 32.6847 10.7273 32.5169C9.16062 31.2866 12.009 13.2704 11.7488 13.2704L14.348 13.2704C14.3618 13.6954 14.3895 14.1092 14.4255 14.4755C14.5004 15.2884 14.628 16.0955 14.8075 16.8915C14.8591 17.062 14.9734 17.2062 15.1268 17.2944C15.2802 17.3826 15.4612 17.4083 15.6328 17.3661C15.8043 17.324 15.9534 17.2172 16.0495 17.0676C16.1457 16.918 16.1816 16.737 16.15 16.5615C16.0001 15.8733 15.8901 15.1768 15.8206 14.4755C15.7818 14.1036 15.7514 13.6982 15.7347 13.2704L24.7697 13.2704C24.7531 13.6954 24.7226 14.1092 24.6866 14.4755C24.6189 15.1789 24.5135 15.8781 24.3711 16.5699C24.3502 16.6596 24.3471 16.7525 24.3621 16.8433C24.377 16.9341 24.4096 17.0211 24.458 17.0991C24.5064 17.1771 24.5696 17.2446 24.644 17.2978C24.7184 17.351 24.8025 17.3887 24.8915 17.4088C24.9423 17.4208 24.9943 17.4274 25.0465 17.4284C25.2031 17.4278 25.355 17.3736 25.4772 17.2745C25.5994 17.1755 25.6847 17.0375 25.7191 16.8831C25.8897 16.09 26.0108 15.2868 26.0817 14.4783C26.1149 14.1036 26.1426 13.6982 26.1565 13.2732H28.5204C28.5243 13.5414 28.5502 13.8089 28.5979 14.0729C28.6145 14.1959 28.6339 14.3329 28.6533 14.4783C29.1986 18.5021 31.0781 31.2921 29.838 32.5169Z" fill="#3F3F41"/>
</svg>
