<svg width="42" height="42" viewBox="0 0 42 42" fill="none" xmlns="http://www.w3.org/2000/svg">
<path d="M7.47891 21.4238L7.02287 21.5285C7.02287 21.6014 7.02287 21.6743 7.02287 21.7441C7.02407 21.7557 7.02407 21.7674 7.02287 21.779C7.00697 21.8988 6.9833 22.0175 6.95201 22.1341C6.95201 22.1753 6.92736 22.2165 6.91503 22.2577C6.89091 22.346 6.8621 22.4328 6.82875 22.5177L6.77329 22.6509C6.73653 22.7366 6.6954 22.8202 6.65004 22.9014C6.63133 22.9394 6.61076 22.9765 6.58841 23.0124C6.52023 23.1318 6.44404 23.2462 6.3604 23.3548C6.27027 23.4734 6.17247 23.5857 6.06767 23.6909C6.02761 23.7321 5.98446 23.767 5.94132 23.805C5.89818 23.8431 5.80883 23.9318 5.73796 23.9889C5.66709 24.046 5.6332 24.065 5.58081 24.1031L5.37745 24.2457L5.19873 24.344L4.98612 24.4613L4.79199 24.5406C4.71804 24.5691 4.64718 24.604 4.57015 24.6294L4.36677 24.6896C4.28973 24.7118 4.2127 24.7372 4.13258 24.753C4.05247 24.7689 4.0309 24.7721 3.9816 24.7816C3.95387 24.9845 3.93538 25.1969 3.92305 25.4157C6.24946 25.7518 8.38174 23.805 7.47891 21.4238Z" fill="#EFEFEF"/>
<path d="M4.34828 23.3421C4.40374 23.3199 4.46226 23.2945 4.51772 23.266L4.61633 23.2121C4.68104 23.1741 4.74574 23.136 4.80737 23.0948L4.90289 23.025C4.96411 22.9799 5.02275 22.9312 5.07853 22.8792L5.15556 22.8126C5.29433 22.6778 5.41459 22.5242 5.51301 22.356C5.52746 22.3346 5.54082 22.3123 5.55305 22.2894L5.63008 22.1309C5.63008 22.1055 5.65166 22.0802 5.66399 22.0516L5.69173 21.9692C5.10554 22.2568 4.63179 22.7409 4.34828 23.3421Z" fill="#EFEFEF"/>
<path d="M37.2074 22.207C37.2109 22.2558 37.2275 22.3026 37.2552 22.3423C37.2829 22.382 37.3208 22.4131 37.3645 22.4321C37.5089 22.4935 37.6447 22.5746 37.7681 22.6731C37.6994 22.0273 37.5965 21.3859 37.46 20.7517C36.8931 18.3546 36.2028 15.8213 35.1244 13.8872C35.8234 15.667 36.3799 17.5026 36.7883 19.3756C36.9903 20.3085 37.1303 21.2545 37.2074 22.207Z" fill="#F7D858"/>
<path d="M6.79483 28.8844C6.0452 28.8921 5.29703 28.8145 4.56398 28.653C5.29117 29.2269 6.48671 29.4139 7.49429 29.4615C7.43567 29.2687 7.39138 29.0715 7.3618 28.8717C7.19233 28.8781 7.00436 28.8844 6.79483 28.8844Z" fill="#F7D858"/>
<path d="M15.9802 28.8274C16.0161 29.0261 16.0357 29.2276 16.0387 29.4298H30.0063C29.9491 29.2357 29.9058 29.0375 29.8769 28.8369L15.9802 28.8274Z" fill="#F7D858"/>
<path d="M38.9144 24.6357C39.1902 25.6694 39.3383 26.7347 39.355 27.8064C39.3591 27.9399 39.3373 28.0729 39.2907 28.1976C39.2441 28.3223 39.1738 28.4362 39.0839 28.5325C38.9289 28.6953 38.7222 28.7954 38.5015 28.8147C38.5392 29.0132 38.5599 29.2148 38.5631 29.4171H39.6909C39.7346 29.4139 39.7773 29.4018 39.8165 29.3816C39.8557 29.3613 39.8906 29.3333 39.9193 29.2991C39.9479 29.2649 39.9697 29.2253 39.9834 29.1824C39.9971 29.1395 40.0024 29.0943 39.999 29.0493C39.9898 28.133 39.808 25.6694 38.9144 24.6357Z" fill="#F7D858"/>
<path d="M19.2741 12.4635C18.3282 12.8948 17.2004 15.9925 16.5687 18.4434H17.5424C18.1125 16.4935 19.1262 13.643 20.2971 13.1104C21.0798 12.7584 22.984 12.6221 24.953 12.6189V12.0482C22.6574 11.9911 20.1184 12.0831 19.2741 12.4635Z" fill="#F7D858"/>
<path d="M12.6216 25.9421C12.7794 25.9434 12.9369 25.9561 13.093 25.9801C12.6833 25.643 12.1898 25.4312 11.6687 25.3689C11.1477 25.3066 10.6201 25.3963 10.1462 25.6277C9.67232 25.8591 9.2712 26.223 8.98862 26.6777C8.70604 27.1325 8.55338 27.6598 8.54808 28.1996V28.2883C8.55131 28.6886 8.63855 29.0833 8.80384 29.4456L9.20132 29.4203C9.21186 28.494 9.57687 27.6094 10.2172 26.9583C10.8574 26.3071 11.7214 25.942 12.6216 25.9421Z" fill="#F7D858"/>
<path d="M30.1234 26.7379C30.1481 26.6713 30.1727 26.6016 30.2035 26.5381C30.2344 26.4747 30.2467 26.443 30.2713 26.3986C30.296 26.3542 30.336 26.2655 30.3699 26.1989L30.4439 26.0784C30.5238 25.9461 30.6102 25.818 30.7027 25.6947C30.7274 25.663 30.752 25.6282 30.7767 25.5996C30.8013 25.5711 30.8599 25.5045 30.903 25.4569C30.9461 25.4094 30.9831 25.3618 31.0263 25.3174L31.1557 25.1938C31.2019 25.1494 31.2481 25.105 31.2974 25.0638L31.433 24.9528C31.4854 24.9116 31.5377 24.8704 31.5932 24.8323L31.735 24.7372C31.7904 24.6992 31.849 24.6643 31.9075 24.6294L32.0554 24.5501C32.1155 24.5163 32.1772 24.4856 32.2403 24.4582C32.2892 24.4328 32.3396 24.4105 32.3913 24.3916C32.456 24.3631 32.5238 24.3377 32.5916 24.3155L32.7425 24.2648L32.9644 24.2045L33.1092 24.1697C33.1924 24.1538 33.2787 24.1411 33.3619 24.1316C33.4451 24.1221 33.4451 24.1158 33.4882 24.1126C33.6135 24.0999 33.7429 24.0936 33.8765 24.0936C34.01 24.0936 34.1394 24.0999 34.2647 24.1126L34.388 24.1316C34.4742 24.1316 34.5605 24.1538 34.6437 24.1697L34.7855 24.2045L35.0104 24.2648C35.0597 24.2648 35.1059 24.2965 35.1552 24.3123L35.3617 24.3916L35.5065 24.455C35.5712 24.4835 35.639 24.5152 35.7006 24.5501L35.8393 24.6262L36.0241 24.7404L36.1536 24.8291C36.2152 24.8704 36.2737 24.9148 36.3323 24.9623C36.3908 25.0099 36.4093 25.0226 36.4463 25.0574C36.4832 25.0923 36.5634 25.1621 36.6219 25.216L36.7174 25.3111C36.7821 25.3745 36.8438 25.4443 36.9023 25.514L36.967 25.5869C37.0471 25.6852 37.1211 25.7867 37.192 25.904C37.2009 25.9144 37.2082 25.9261 37.2135 25.9389C37.2751 26.0319 37.3337 26.127 37.3892 26.2242L37.4446 26.3352C37.4816 26.4113 37.5217 26.4874 37.5556 26.5667L37.611 26.6998C37.6387 26.7728 37.6696 26.8489 37.6942 26.9218C37.7189 26.9947 37.725 27.0201 37.7373 27.0708C37.7497 27.1215 37.7713 27.1945 37.7867 27.2579C37.8676 27.3582 37.9417 27.4642 38.0085 27.5749H38.1164C38.0362 25.8152 37.6079 23.9097 36.9116 23.6275C36.6597 23.523 36.4404 23.3496 36.2775 23.126C36.1145 22.9024 36.0141 22.6373 35.9872 22.3592C35.9102 21.4632 35.7753 20.5734 35.5835 19.6958C34.6807 15.8657 33.5406 12.1909 31.3929 10.726C28.4503 9.9619 20.6083 9.20411 18.2172 10.8909C15.9063 12.5238 14.874 17.4098 14.5567 19.2234C14.528 19.4191 14.4422 19.6012 14.3107 19.7456C14.1792 19.8899 14.0081 19.9898 13.8202 20.0319C12.8065 20.2317 9.28145 21.0275 7.48504 21.4429C8.38787 23.824 6.25252 25.7708 3.90764 25.4347C3.87971 25.9861 3.87971 26.5385 3.90764 27.0898C4.76733 27.5845 6.2895 27.6669 7.3772 27.6225C7.38157 27.5925 7.38774 27.5629 7.39569 27.5337C7.40768 27.4504 7.42413 27.3678 7.44498 27.2864C7.44498 27.2515 7.46348 27.2167 7.47272 27.1818C7.49429 27.093 7.52202 27.0011 7.54976 26.9154C7.55609 26.8936 7.56435 26.8724 7.57441 26.852C7.72542 26.4248 7.94406 26.0263 8.22148 25.6725L8.2492 25.6377C8.29931 25.5724 8.3528 25.51 8.40943 25.4506L8.49572 25.3523L8.64979 25.2033L8.76994 25.0923L8.92094 24.9718L9.06576 24.8609L9.21982 24.7562L9.38314 24.6548L9.5372 24.5692L9.71899 24.4804L9.87306 24.4106L10.0733 24.3345L10.2274 24.2838C10.2983 24.2616 10.3753 24.2426 10.4493 24.2267L10.5941 24.1887C10.6773 24.1728 10.7636 24.1601 10.8498 24.1506L10.9731 24.1316C11.1025 24.1316 11.2319 24.1126 11.3644 24.1126C11.4969 24.1126 11.6233 24.1126 11.7527 24.1316C11.7958 24.1316 11.8359 24.1316 11.879 24.1506C11.9221 24.1697 12.0485 24.1728 12.1317 24.1887L12.2765 24.2235L12.4983 24.2838L12.6462 24.3314L12.8496 24.4106L12.9975 24.474C13.0622 24.5026 13.1269 24.5343 13.1885 24.5692L13.3272 24.6453L13.5121 24.7594L13.6415 24.8482C13.7025 24.889 13.7612 24.9334 13.8171 24.9813C13.8572 25.013 13.8972 25.0416 13.9342 25.0765C13.9712 25.1113 14.0513 25.1811 14.1068 25.235L14.2085 25.3301C14.2701 25.3935 14.3286 25.4601 14.3872 25.5299C14.4457 25.5996 14.4334 25.5806 14.455 25.6091C14.535 25.7054 14.6101 25.8059 14.6799 25.9103L14.7076 25.9516C14.7662 26.0435 14.8247 26.1355 14.8771 26.2306L14.9326 26.3447C14.9726 26.4208 15.0096 26.4937 15.0435 26.5698C15.0774 26.6459 15.0805 26.6618 15.099 26.7094C15.1175 26.7569 15.1575 26.8552 15.1821 26.9281L15.2284 27.0803C15.2284 27.1406 15.2623 27.2008 15.2777 27.2642C15.3566 27.3654 15.4297 27.4713 15.4964 27.5813H24.9653V20.3046H17.0494C17.0494 20.3046 17.1018 20.0827 17.1943 19.7117H15.367C15.3237 19.7114 15.2809 19.7011 15.2419 19.6815C15.203 19.6619 15.1687 19.6336 15.1418 19.5986C15.1149 19.5636 15.096 19.5228 15.0864 19.4793C15.0769 19.4358 15.0769 19.3906 15.0866 19.3471L15.1821 18.9349C15.4317 17.8188 16.7906 12.2067 18.778 11.3031C20.7655 10.3994 27.8956 10.7609 29.3192 11.1858C30.8599 11.655 31.8551 13.2182 32.4745 14.8289C33.8056 17.0198 34.1199 20.3046 34.1199 20.3046H26.1855V27.5591H29.8831C29.8831 27.5274 29.8831 27.4957 29.9047 27.464C29.9262 27.4323 29.9293 27.3308 29.9447 27.2642L29.9909 27.093C30.0094 27.0264 30.031 26.9567 30.0526 26.8901C30.0741 26.8235 30.1019 26.7886 30.1234 26.7379ZM22.3493 20.5139H23.5387C23.7021 20.5139 23.8589 20.5807 23.9744 20.6996C24.09 20.8185 24.1549 20.9798 24.1549 21.148C24.1549 21.3162 24.09 21.4775 23.9744 21.5964C23.8589 21.7153 23.7021 21.7821 23.5387 21.7821H22.3493C22.1858 21.7821 22.0291 21.7153 21.9135 21.5964C21.798 21.4775 21.733 21.3162 21.733 21.148C21.733 20.9798 21.798 20.8185 21.9135 20.6996C22.0291 20.5807 22.1858 20.5139 22.3493 20.5139ZM28.7153 21.7821H27.5259C27.3625 21.7821 27.2057 21.7153 27.0901 21.5964C26.9746 21.4775 26.9096 21.3162 26.9096 21.148C26.9096 20.9798 26.9746 20.8185 27.0901 20.6996C27.2057 20.5807 27.3625 20.5139 27.5259 20.5139H28.7153C28.8787 20.5139 29.0355 20.5807 29.151 20.6996C29.2666 20.8185 29.3315 20.9798 29.3315 21.148C29.3315 21.3162 29.2666 21.4775 29.151 21.5964C29.0355 21.7153 28.8787 21.7821 28.7153 21.7821Z" fill="#F7D858"/>
<path d="M26.1855 12.0926V12.6253C27.4055 12.6429 28.6236 12.7318 29.8338 12.8916C29.5846 12.6707 29.2941 12.5045 28.9803 12.4033C28.059 12.2177 27.124 12.1137 26.1855 12.0926Z" fill="#F7D858"/>
<path d="M35.1429 25.9421C35.3007 25.9434 35.4582 25.9561 35.6143 25.9801C35.2046 25.643 34.7111 25.4312 34.19 25.3689C33.669 25.3066 33.1414 25.3963 32.6675 25.6277C32.1936 25.8591 31.7925 26.223 31.5099 26.6777C31.2273 27.1325 31.0747 27.6598 31.0694 28.1996V28.2852C31.0726 28.6755 31.1544 29.061 31.3097 29.4171H31.7226C31.734 28.4914 32.0993 27.6076 32.7395 26.9571C33.3797 26.3067 34.2432 25.942 35.1429 25.9421Z" fill="#F7D858"/>
<path d="M15.2746 27.2832C15.2746 27.334 15.2962 27.3879 15.3085 27.4418C15.3208 27.4957 15.327 27.5179 15.3331 27.5591H15.4841C15.4173 27.4491 15.3443 27.3432 15.2653 27.242L15.2746 27.2832Z" fill="#727272"/>
<path d="M15.3486 28.8274C15.2726 29.3815 15.0888 29.9142 14.808 30.3934C14.5272 30.8727 14.1552 31.2886 13.7144 31.6164C13.2736 31.9442 12.773 32.177 12.2427 32.3008C11.7123 32.4247 11.1631 32.4371 10.628 32.3373C11.1384 32.7155 11.7404 32.9413 12.3675 32.99C12.9947 33.0387 13.6228 32.9084 14.1826 32.6133C14.7424 32.3182 15.2122 31.8699 15.5402 31.3177C15.8683 30.7655 16.0419 30.1309 16.0418 29.4837V29.4298C16.0372 29.2307 16.0166 29.0324 15.9802 28.8369L15.3486 28.8274Z" fill="#727272"/>
<path d="M14.1561 28.2027C14.1497 27.7749 14.0511 27.3538 13.8672 26.9699C13.6834 26.5861 13.4189 26.2491 13.093 25.9833C12.6111 25.909 12.1192 25.9425 11.651 26.0815C11.1827 26.2206 10.7491 26.4619 10.3798 26.789C10.0104 27.1161 9.71391 27.5214 9.51054 27.9771C9.30718 28.4328 9.20171 28.9283 9.20133 29.4298C9.20133 29.4456 9.20132 29.4615 9.20132 29.4773C9.2019 29.7116 9.22461 29.9452 9.26912 30.1749C9.64612 30.6093 10.1422 30.916 10.692 31.0546C11.2417 31.1931 11.8194 31.1571 12.3488 30.9511C12.8783 30.7451 13.3346 30.3789 13.6578 29.9008C13.981 29.4226 14.1558 28.8549 14.1592 28.2725V28.1964L14.1561 28.2027Z" fill="#727272"/>
<path d="M31.7257 29.4298C31.7257 29.4488 31.7257 29.4678 31.7257 29.4868C31.7263 29.7211 31.749 29.9547 31.7935 30.1844C32.1705 30.6188 32.6666 30.9255 33.2163 31.0641C33.7661 31.2027 34.3438 31.1666 34.8732 30.9606C35.4026 30.7546 35.859 30.3884 36.1822 29.9103C36.5053 29.4321 36.6801 28.8644 36.6835 28.282V28.2059C36.6772 27.778 36.5785 27.3569 36.3947 26.9731C36.2108 26.5893 35.9464 26.2523 35.6205 25.9864C35.1385 25.9117 34.6466 25.9447 34.1782 26.0834C33.7098 26.222 33.276 26.4629 32.9063 26.7898C32.5366 27.1166 32.2398 27.5216 32.0361 27.9772C31.8323 28.4328 31.7265 28.9283 31.7257 29.4298Z" fill="#727272"/>
<path d="M38.4245 28.8274H37.8698C37.7943 29.3814 37.6108 29.914 37.3303 30.3932C37.0498 30.8724 36.6782 31.2884 36.2376 31.6162C35.7971 31.944 35.2967 32.1768 34.7665 32.3008C34.2363 32.4247 33.6873 32.4371 33.1523 32.3373C33.6628 32.7155 34.2647 32.9413 34.8919 32.99C35.5191 33.0387 36.1472 32.9084 36.707 32.6133C37.2668 32.3182 37.7366 31.8699 38.0646 31.3177C38.3927 30.7655 38.5662 30.1309 38.5662 29.4837C38.5678 29.4647 38.5678 29.4456 38.5662 29.4266C38.563 29.2243 38.5423 29.0227 38.5046 28.8242L38.4245 28.8274Z" fill="#727272"/>
<path d="M37.799 27.2832C37.799 27.334 37.8205 27.3879 37.8328 27.4418C37.8452 27.4957 37.8329 27.5179 37.8575 27.5591H38.0085C37.9417 27.4483 37.8675 27.3424 37.7866 27.242C37.7924 27.2552 37.7965 27.269 37.799 27.2832Z" fill="#727272"/>
<path d="M17.5424 18.4434L24.9376 18.4434V12.6253C22.9686 12.6253 21.0644 12.7648 20.2817 13.1167C19.1201 13.643 18.1125 16.4935 17.5424 18.4434Z" fill="#CFF2E6"/>
<path d="M32.4745 14.8447C32.9735 16.1916 33.3058 17.5977 33.4636 19.03L33.4975 19.401C33.5004 19.4415 33.4952 19.4823 33.4822 19.5206C33.4691 19.559 33.4485 19.5942 33.4216 19.624C33.3946 19.6537 33.362 19.6775 33.3258 19.6937C33.2895 19.7099 33.2504 19.7181 33.2109 19.718H26.4752C26.3989 19.718 26.3257 19.749 26.2714 19.8042C26.2172 19.8594 26.1863 19.9344 26.1855 20.0129V20.3109H34.1199C34.1199 20.3109 33.8056 17.0198 32.4745 14.8447Z" fill="#CFF2E6"/>
<path d="M26.1855 18.4434H32.1478C31.8952 16.8074 31.1988 14.0869 29.8338 12.9011C28.6236 12.7413 27.4055 12.6524 26.1855 12.6348V18.4434Z" fill="#CFF2E6"/>
<path d="M24.953 20.3046V20.0066C24.953 19.9284 24.9228 19.8534 24.869 19.7981C24.8153 19.7428 24.7424 19.7117 24.6664 19.7117L17.1943 19.7117C17.1018 20.0827 17.0494 20.3046 17.0494 20.3046L24.953 20.3046Z" fill="#CFF2E6"/>
<path d="M28.7153 20.5139H27.5259C27.3625 20.5139 27.2057 20.5807 27.0901 20.6996C26.9746 20.8185 26.9096 20.9798 26.9096 21.148C26.9096 21.3162 26.9746 21.4775 27.0901 21.5964C27.2057 21.7153 27.3625 21.7821 27.5259 21.7821H28.7153C28.8787 21.7821 29.0355 21.7153 29.151 21.5964C29.2666 21.4775 29.3315 21.3162 29.3315 21.148C29.3315 20.9798 29.2666 20.8185 29.151 20.6996C29.0355 20.5807 28.8787 20.5139 28.7153 20.5139Z" fill="#3F3F41"/>
<path d="M37.8698 28.8274H38.4245L38.5015 28.8274C38.7222 28.8081 38.9289 28.708 39.0839 28.5452C39.1738 28.4488 39.2442 28.335 39.2907 28.2103C39.3373 28.0856 39.3592 27.9526 39.355 27.8191C39.3383 26.7473 39.1902 25.6821 38.9144 24.6484C38.6802 23.8462 38.3166 23.1075 37.7682 22.6858C37.6447 22.5873 37.5089 22.5062 37.3645 22.4448C37.3208 22.4257 37.283 22.3947 37.2552 22.3549C37.2275 22.3152 37.211 22.2684 37.2074 22.2197C37.1253 21.2668 36.9801 20.3208 36.7729 19.3883C36.3644 17.5152 35.808 15.6796 35.109 13.8999C34.1322 11.5599 32.8196 9.73361 30.8753 9.05508C28.5027 8.23388 19.4374 7.12415 16.5934 9.13435C14.2177 10.8148 13.1177 15.333 12.674 17.8791C12.667 17.9477 12.64 18.0126 12.5966 18.0652C12.5532 18.1179 12.4953 18.1558 12.4305 18.1739C11.4753 18.361 8.38172 19.0617 6.59148 19.4707L6.0738 19.5912L5.37436 19.7529C5.03849 19.8322 4.99842 19.8449 4.97686 19.8512C4.28968 20.021 3.66379 20.3888 3.1726 20.9117C2.68142 21.4345 2.3453 22.0906 2.20368 22.8031C2.20368 22.8031 2.05269 23.7955 2.03112 24.1601C1.98963 24.8549 1.98963 25.5517 2.03112 26.2464C2.0488 26.5508 2.12648 26.8484 2.25944 27.1209C2.3924 27.3935 2.57786 27.6353 2.80454 27.8318C3.32034 28.2508 3.92726 28.5348 4.5732 28.6593C5.30626 28.8209 6.05445 28.8985 6.80409 28.8908C7.01054 28.8908 7.19849 28.8908 7.37104 28.8908C7.40062 29.0905 7.44491 29.2877 7.50353 29.4805C7.77189 30.3838 8.33165 31.1659 9.09034 31.6975C9.84903 32.2292 10.7613 32.4787 11.6764 32.4048C12.5915 32.3309 13.4547 31.938 14.1235 31.291C14.7923 30.644 15.2266 29.7817 15.3547 28.8464H29.8862C29.9151 29.047 29.9583 29.2452 30.0156 29.4393C30.227 30.1765 30.6324 30.8392 31.1871 31.354C31.7418 31.8689 32.4241 32.2157 33.1585 32.3563C33.6935 32.4561 34.2425 32.4437 34.7727 32.3198C35.3028 32.1959 35.8032 31.963 36.2438 31.6352C36.6843 31.3075 37.056 30.8915 37.3365 30.4122C37.617 29.933 37.8005 29.4004 37.876 28.8464L37.8698 28.8274ZM3.40539 23.0884L3.45469 22.8824C3.571 22.4292 3.80707 22.018 4.13668 21.6945C4.46629 21.371 4.87655 21.1478 5.32196 21.0497L5.78109 20.9419V20.9736C5.78109 20.999 5.78109 21.0243 5.78109 21.0465C5.78109 21.0687 5.78109 21.1734 5.78109 21.2336V21.3192C5.78415 21.3815 5.78415 21.444 5.78109 21.5063C5.78109 21.5285 5.78109 21.5475 5.78109 21.5697C5.78109 21.6521 5.75335 21.7314 5.73486 21.8107L5.71638 21.8677C5.71638 21.8995 5.69482 21.9312 5.68557 21.9629L5.65783 22.0453C5.65783 22.0738 5.63627 22.0992 5.62394 22.1246L5.54691 22.2831C5.53468 22.306 5.52131 22.3282 5.50685 22.3497C5.40843 22.5179 5.28817 22.6715 5.14941 22.8063L5.07238 22.8728C5.0166 22.9249 4.95798 22.9736 4.89676 23.0187L4.80124 23.0885C4.73961 23.1297 4.67489 23.1677 4.61018 23.2058L4.51159 23.2597C4.45613 23.2882 4.39757 23.3136 4.34211 23.3358L4.25892 23.3738L4.20346 23.396C4.0981 23.4369 3.98995 23.4697 3.87991 23.4943L3.77516 23.5165C3.69812 23.5323 3.618 23.5482 3.53789 23.5577H3.30371C3.32934 23.3995 3.36329 23.2429 3.40539 23.0884ZM11.3613 31.1293C10.9683 31.13 10.5794 31.0457 10.22 30.8819C9.86065 30.718 9.53878 30.4782 9.27529 30.1781C8.82187 29.6632 8.56659 28.9958 8.55734 28.301V28.2122C8.55734 27.447 8.85276 26.7131 9.37861 26.172C9.90446 25.6309 10.6177 25.3269 11.3613 25.3269C12.105 25.3269 12.8182 25.6309 13.3441 26.172C13.8699 26.7131 14.1653 27.447 14.1653 28.2122V28.2883C14.1548 29.0483 13.8536 29.7734 13.3269 30.3064C12.8003 30.8394 12.0907 31.1373 11.3521 31.1356L11.3613 31.1293ZM29.9663 27.2579C29.9663 27.3245 29.9386 27.391 29.9262 27.4576C29.9139 27.5242 29.9262 27.521 29.9047 27.5527H26.2071V20.0066C26.2079 19.9281 26.2388 19.8531 26.293 19.7979C26.3472 19.7427 26.4204 19.7117 26.4967 19.7117H33.2325C33.272 19.7118 33.3111 19.7035 33.3474 19.6873C33.3836 19.6711 33.4162 19.6474 33.4431 19.6176C33.47 19.5879 33.4907 19.5527 33.5037 19.5143C33.5168 19.4759 33.522 19.4352 33.519 19.3946L33.4851 19.0237C33.3274 17.5914 32.9951 16.1853 32.496 14.8384C31.8798 13.2277 30.8907 11.6677 29.3408 11.1953C27.9172 10.7704 20.7409 10.4375 18.7996 11.3126C16.8584 12.1877 15.4225 17.8188 15.1821 18.9349L15.0866 19.3471C15.0769 19.3906 15.0769 19.4358 15.0864 19.4793C15.096 19.5228 15.1149 19.5636 15.1418 19.5986C15.1687 19.6336 15.203 19.6619 15.2419 19.6815C15.2809 19.7011 15.3237 19.7114 15.367 19.7117L24.6664 19.7117C24.7424 19.7117 24.8153 19.7428 24.869 19.7981C24.9228 19.8534 24.953 19.9284 24.953 20.0066L24.953 27.5591L15.3331 27.5591C15.3331 27.5179 15.3146 27.4798 15.3085 27.4418C15.3023 27.4037 15.2869 27.334 15.2746 27.2832L15.2746 27.2452C15.2746 27.1818 15.2407 27.1215 15.2253 27.0613L15.1791 26.9091C15.1544 26.8362 15.1236 26.7632 15.0959 26.6903C15.0682 26.6174 15.062 26.5984 15.0404 26.5508C15.0189 26.5033 14.9696 26.4018 14.9295 26.3257L14.874 26.2116C14.8216 26.1164 14.7631 26.0245 14.7046 25.9325L14.6768 25.8913C14.607 25.7869 14.5319 25.6864 14.4519 25.5901C14.4303 25.5616 14.4057 25.5362 14.3841 25.5108C14.3625 25.4855 14.267 25.3745 14.2054 25.3111L14.1037 25.216C14.0482 25.1621 13.9928 25.1082 13.9311 25.0574C13.8695 25.0067 13.8541 24.994 13.8141 24.9623C13.7581 24.9144 13.6995 24.8699 13.6384 24.8291L13.509 24.7404L13.3241 24.6262L13.1855 24.5501C13.1238 24.5152 13.0591 24.4835 12.9944 24.455L12.8465 24.3916L12.6432 24.3123L12.4953 24.2648L12.2734 24.2045L12.1286 24.1697C12.0454 24.1538 11.9591 24.1411 11.8759 24.1316C11.7927 24.1221 11.7927 24.1158 11.7496 24.1126C11.6202 24.1126 11.4938 24.0936 11.3613 24.0936C11.2288 24.0936 11.0994 24.0936 10.97 24.1126L10.8468 24.1316C10.7605 24.1316 10.6742 24.1538 10.591 24.1697L10.4462 24.2077C10.3722 24.2235 10.2952 24.2426 10.2243 24.2648L10.0703 24.3155L9.86998 24.3916L9.71591 24.4613L9.53412 24.5501L9.38006 24.6357L9.21674 24.7372L9.06268 24.8418L8.91786 24.9528L8.76688 25.0733L8.64671 25.1843L8.49264 25.3333L8.40635 25.4316C8.34972 25.4909 8.29625 25.5534 8.24614 25.6186L8.2184 25.6535C7.94098 26.0073 7.72234 26.4058 7.57133 26.833C7.56127 26.8533 7.55301 26.8746 7.54668 26.8964C7.51894 26.982 7.49121 27.074 7.46964 27.1628C7.46964 27.1976 7.44807 27.2325 7.4419 27.2674C7.42105 27.3488 7.4046 27.4314 7.39261 27.5147C7.38466 27.5439 7.37849 27.5735 7.37412 27.6035C6.28642 27.6479 4.76425 27.5654 3.90457 27.0708C3.80216 27.0125 3.7052 26.9445 3.61492 26.8679C3.51089 26.7827 3.42593 26.6755 3.36584 26.5535C3.30576 26.4314 3.27195 26.2975 3.26673 26.1608C3.239 25.6884 3.22976 25.2572 3.23284 24.8609H3.67038C3.7505 24.8609 3.82754 24.8355 3.90765 24.8196H3.96928C4.01858 24.8196 4.07096 24.8196 4.12026 24.7911C4.16956 24.7626 4.27741 24.7499 4.35444 24.7277L4.5578 24.6674C4.63483 24.6421 4.70571 24.6072 4.77967 24.5787L4.97379 24.4994L5.1864 24.3821L5.3651 24.2838L5.56848 24.1411C5.62086 24.1031 5.67633 24.0682 5.72563 24.027C5.77493 23.9857 5.8612 23.9065 5.92899 23.8431C5.99678 23.7797 6.01526 23.7701 6.05531 23.7289C6.16011 23.6238 6.25791 23.5115 6.34804 23.3928C6.43168 23.2843 6.50787 23.1699 6.57606 23.0504C6.5984 23.0145 6.61897 22.9775 6.63769 22.9394C6.68304 22.8582 6.72419 22.7746 6.76095 22.6889L6.81641 22.5558C6.84976 22.4708 6.87855 22.384 6.90267 22.2958C6.90267 22.2546 6.9304 22.2133 6.93965 22.1721C6.97094 22.0555 6.99463 21.9369 7.01053 21.817C7.01173 21.8054 7.01173 21.7937 7.01053 21.7821C7.01053 21.7124 7.01053 21.6395 7.01053 21.5665C7.01053 21.4936 7.01053 21.4429 7.01053 21.3795C7.01053 21.316 7.01053 21.3002 7.01053 21.259C7.01053 21.1639 7.01053 21.0656 6.99204 20.9673L6.97356 20.8278C6.97356 20.7865 6.97356 20.7485 6.97356 20.7073C8.97025 20.2507 11.7927 19.6134 12.6555 19.439C12.9682 19.3772 13.2546 19.2172 13.4754 18.981C13.6961 18.7448 13.8402 18.444 13.888 18.12C14.1468 16.6457 15.1514 11.7121 17.2775 10.1934C19.5145 8.60802 27.9696 9.40703 30.4685 10.2726C30.7888 10.3856 31.0934 10.5412 31.3745 10.7355C33.5314 12.2004 34.6622 15.8752 35.565 19.7053C35.7569 20.5829 35.8917 21.4727 35.9687 22.3687C35.9956 22.6468 36.096 22.9119 36.259 23.1355C36.4219 23.3591 36.6412 23.5325 36.8931 23.637C37.5894 23.9192 38.0178 25.8247 38.0979 27.5845H37.839C37.839 27.5432 37.8205 27.5052 37.8144 27.4671C37.8082 27.4291 37.7928 27.3593 37.7805 27.3086C37.7818 27.296 37.7818 27.2832 37.7805 27.2706C37.7651 27.2071 37.7497 27.1437 37.7312 27.0835C37.7127 27.0233 37.7035 26.9852 37.688 26.9345C37.6726 26.8837 37.6326 26.7854 37.6049 26.7125L37.5494 26.5794C37.5155 26.5001 37.4754 26.424 37.4385 26.3479L37.383 26.2369C37.3275 26.1376 37.269 26.0425 37.2074 25.9516C37.202 25.9388 37.1947 25.9271 37.1858 25.9167C37.1149 25.8121 37.041 25.7106 36.9609 25.5996L36.8962 25.5267C36.8376 25.4569 36.776 25.3872 36.7113 25.3238L36.6158 25.2287C36.5572 25.1747 36.5018 25.1208 36.4401 25.0701C36.3785 25.0194 36.3631 25.0067 36.3261 24.975C36.2891 24.9433 36.209 24.883 36.1474 24.8418L36.018 24.7531L35.8331 24.6389L35.6944 24.5628C35.6328 24.5279 35.565 24.4962 35.5003 24.4677L35.3555 24.4043L35.1491 24.325C35.0998 24.3092 35.0535 24.2901 35.0042 24.2775L34.7793 24.2172L34.6375 24.1823C34.5544 24.1665 34.4681 24.1538 34.3818 24.1443L34.2586 24.1253C34.1291 24.1126 33.9997 24.1062 33.8703 24.1062C33.7409 24.1062 33.6115 24.1126 33.4821 24.1253C33.4389 24.1253 33.3989 24.1253 33.3557 24.1443C33.3126 24.1633 33.1863 24.1665 33.1031 24.1823L32.9582 24.2172L32.7364 24.2775L32.5854 24.3282C32.5176 24.3504 32.4498 24.3757 32.3851 24.4043C32.3335 24.4232 32.2831 24.4454 32.2341 24.4709C32.171 24.4983 32.1093 24.529 32.0493 24.5628L31.9013 24.6421C31.8428 24.677 31.7843 24.7118 31.7288 24.7499L31.5871 24.845C31.5316 24.8831 31.4792 24.9243 31.4268 24.9655L31.2913 25.0765C31.2419 25.1177 31.1957 25.1621 31.1495 25.2065L31.0201 25.3301C30.977 25.3745 30.9369 25.4221 30.8968 25.4696C30.8568 25.5172 30.8106 25.5616 30.7705 25.6123C30.7304 25.663 30.7212 25.6757 30.6966 25.7074C30.604 25.8307 30.5176 25.9588 30.4377 26.0911L30.3638 26.2116C30.3299 26.2781 30.296 26.3447 30.2652 26.4113C30.2344 26.4779 30.219 26.5033 30.1974 26.5508C30.1758 26.5984 30.1419 26.684 30.1173 26.7506C30.0926 26.8172 30.0772 26.852 30.0587 26.9028C30.0402 26.9535 30.0156 27.0391 29.9971 27.1057L29.9663 27.2579ZM32.1571 18.4371H26.1855V12.0957C27.1221 12.1193 28.0551 12.2254 28.9741 12.4128C29.2909 12.5161 29.5836 12.6855 29.8338 12.9106C31.1988 14.0869 31.8952 16.8074 32.1478 18.4434L32.1571 18.4371ZM24.953 18.4498H16.5687C17.185 15.9988 18.3282 12.9011 19.2741 12.4699C20.1184 12.0894 22.6636 11.9943 24.953 12.0545V18.4498ZM31.0725 28.2947V28.2091C31.0725 27.4438 31.3679 26.71 31.8937 26.1689C32.4196 25.6278 33.1328 25.3238 33.8765 25.3238C34.6201 25.3238 35.3333 25.6278 35.8592 26.1689C36.385 26.71 36.6805 27.4438 36.6805 28.2091V28.2852C36.6771 28.8676 36.5023 29.4353 36.1791 29.9134C35.8559 30.3916 35.3996 30.7578 34.8701 30.9638C34.3407 31.1697 33.763 31.2058 33.2132 31.0673C32.6635 30.9287 32.1674 30.622 31.7904 30.1876C31.5949 29.9624 31.4339 29.708 31.3128 29.433C31.1558 29.0729 31.0739 28.683 31.0725 28.2883V28.2947Z" fill="#3F3F41"/>
<path d="M22.3493 21.7821H23.5387C23.7021 21.7821 23.8589 21.7153 23.9744 21.5964C24.09 21.4775 24.1549 21.3162 24.1549 21.148C24.1549 20.9798 24.09 20.8185 23.9744 20.6996C23.8589 20.5807 23.7021 20.5139 23.5387 20.5139H22.3493C22.1858 20.5139 22.0291 20.5807 21.9135 20.6996C21.798 20.8185 21.733 20.9798 21.733 21.148C21.733 21.3162 21.798 21.4775 21.9135 21.5964C22.0291 21.7153 22.1858 21.7821 22.3493 21.7821Z" fill="#3F3F41"/>
</svg>
