<svg width="42" height="42" viewBox="0 0 42 42" fill="none" xmlns="http://www.w3.org/2000/svg">
<path d="M16.6816 8.35296C17.0174 8.01532 17.4722 7.8135 17.9548 7.78798H26.8901V7.06157C26.8591 6.82977 26.7694 6.60906 26.629 6.4192C26.4886 6.22933 26.3019 6.07622 26.0857 5.97358H17.865C16.2462 5.97358 15.3021 6.96472 14.7104 8.23351V8.35296H16.6816Z" fill="#258CF2"/>
<path d="M16.1032 9.4119H14.4877C14.4217 9.41095 14.3559 9.40338 14.2915 9.3893C14.2616 9.48938 14.2317 9.58946 14.2051 9.68954H16.0933V9.54103C16.0934 9.49781 16.0967 9.45465 16.1032 9.4119Z" fill="#258CF2"/>
<path d="M30.5833 9.55072C30.8424 9.55005 31.0915 9.6473 31.2781 9.82191C31.0049 8.80744 30.503 7.8646 29.8088 7.06157C30.0659 7.87792 30.2582 8.71224 30.3839 9.55718L30.5833 9.55072Z" fill="#258CF2"/>
<path d="M30.5135 11.8526V10.7453H29.3633V11.0358C29.3633 11.1214 29.3283 11.2036 29.266 11.2641C29.2036 11.3247 29.1191 11.3587 29.0309 11.3587H16.3991C16.3109 11.3587 16.2264 11.3247 16.164 11.2641C16.1017 11.2036 16.0667 11.1214 16.0667 11.0358V10.7453H13.9292C13.8528 11.1294 13.7863 11.5039 13.7264 11.8526H30.5135Z" fill="#258CF2"/>
<path d="M31.5839 12.1335C31.5649 12.2745 31.515 12.4099 31.4376 12.5306H31.8498C31.7867 12.0657 31.7069 11.5814 31.6038 11.0972V11.9301C31.6041 11.9984 31.5974 12.0665 31.5839 12.1335Z" fill="#258CF2"/>
<path d="M14.4212 35.0072H28.027L29.36 14.9455H13.0849L14.4212 35.0072Z" fill="#258CF2"/>
<path d="M29.0941 35.1912C29.0821 35.4282 28.9759 35.6514 28.798 35.8139C28.6201 35.9765 28.3843 36.0657 28.14 36.0629H14.491L14.594 37.6223C14.6032 37.7251 14.6515 37.8208 14.7297 37.8907C14.8078 37.9606 14.91 37.9996 15.0162 38H30.0814C30.1876 37.9996 30.2898 37.9606 30.3679 37.8907C30.446 37.8208 30.4944 37.7251 30.5035 37.6223L32.0027 14.9455H30.4404L29.0941 35.1912Z" fill="#258CF2"/>
<path d="M27.9772 7.06157V7.85254C28.4822 8.02227 28.9048 8.36719 29.1639 8.82108C28.9885 7.878 28.688 6.961 28.2697 6.09303C28.0658 6.03579 27.8564 5.99901 27.6447 5.98326C27.8546 6.30659 27.9695 6.67944 27.9772 7.06157Z" fill="#258CF2"/>
<path d="M12.4766 13.0375C12.4749 13.0525 12.4749 13.0676 12.4766 13.0827V14.3934C12.4752 14.4085 12.4752 14.4236 12.4766 14.4386C12.4851 14.546 12.5263 14.6484 12.595 14.7329C12.6636 14.8174 12.7566 14.8802 12.8622 14.9132C12.9197 14.9338 12.9804 14.9447 13.0417 14.9455H29.3434L29.4797 12.9116H12.5031C12.4876 12.9519 12.4787 12.9944 12.4766 13.0375Z" fill="#61B1F2"/>
<path d="M33 14.3934V13.0827C32.9998 12.9588 32.9568 12.8387 32.8778 12.7415C32.7988 12.6443 32.6885 12.5757 32.5645 12.5467C32.521 12.5364 32.4764 12.531 32.4316 12.5306H31.4343C31.3443 12.6717 31.2184 12.788 31.0688 12.8683C30.9192 12.9485 30.7509 12.9901 30.58 12.989L30.4503 14.9455H32.4448C32.5036 14.944 32.5618 14.9342 32.6177 14.9164C32.7299 14.8792 32.8271 14.8087 32.8957 14.7148C32.9643 14.621 33.0008 14.5085 33 14.3934Z" fill="#61B1F2"/>
<path d="M27.9772 7.86223V8.56281C27.9776 8.67389 27.9555 8.78396 27.9121 8.88675C27.8688 8.98954 27.805 9.08302 27.7244 9.16187C27.6438 9.24071 27.5481 9.30337 27.4426 9.34627C27.3371 9.38917 27.2239 9.41147 27.1095 9.4119H16.1032C16.1001 9.45489 16.1001 9.49804 16.1032 9.54103V9.68954H29.3234C29.2802 9.39575 29.227 9.10842 29.1738 8.834C28.913 8.37706 28.4864 8.03068 27.9772 7.86223Z" fill="#61B1F2"/>
<path d="M16.6816 8.35296H26.8901V7.78798H17.9548C17.4722 7.8135 17.0174 8.01532 16.6816 8.35296Z" fill="#61B1F2"/>
<path d="M16.4157 11.349H29.0475C29.1357 11.349 29.2203 11.315 29.2826 11.2544C29.3449 11.1939 29.3799 11.1118 29.3799 11.0261V10.7356H16.0933V11.0261C16.0932 11.1101 16.1269 11.1908 16.1871 11.2511C16.2473 11.3113 16.3293 11.3465 16.4157 11.349Z" fill="#61B1F2"/>
<path d="M25.5971 4.80164H16.0268C15.408 4.82549 14.8213 5.07576 14.3846 5.50222C14.1554 5.70341 13.9698 5.94691 13.8385 6.21852C13.7073 6.49012 13.633 6.7844 13.6201 7.08417V8.57895C13.6199 8.76831 13.6854 8.9522 13.806 9.10098C13.9266 9.24975 14.0953 9.35473 14.2849 9.39899C14.3493 9.41307 14.415 9.42064 14.481 9.42158H27.1129C27.2272 9.42116 27.3404 9.39886 27.4459 9.35596C27.5514 9.31306 27.6472 9.2504 27.7277 9.17156C27.8083 9.09271 27.8721 8.99923 27.9155 8.89644C27.9588 8.79365 27.9809 8.68357 27.9805 8.57249V7.06157C27.9722 6.68054 27.8573 6.30889 27.6481 5.98649C27.4327 5.64053 27.133 5.35144 26.7752 5.14478C26.4175 4.93813 26.0128 4.82027 25.5971 4.80164ZM26.8902 7.79766L26.8901 8.35296L14.717 8.35296V7.06157C14.717 6.49982 15.4317 5.84121 16.0467 5.84121H25.617C25.7884 5.84679 25.956 5.89218 26.1056 5.97358C26.3219 6.07623 26.5085 6.22933 26.6489 6.4192C26.7893 6.60907 26.879 6.82977 26.9101 7.06157L26.8902 7.79766ZM31.5938 10.5903V10.5419C31.5896 10.2863 31.4831 10.0423 31.297 9.8616C31.1109 9.68086 30.8598 9.57748 30.5966 9.57332H30.3972C30.268 8.7226 30.0712 7.88284 29.8088 7.06157C29.6366 6.51488 29.4141 5.98435 29.1439 5.47639C28.7963 4.79482 28.298 4.19621 27.6846 3.72333C27.0362 3.24712 26.2437 2.99282 25.4308 3.00015H15.9237C14.3447 3.00015 13.1447 3.81373 12.3536 5.41828C11.7253 6.6903 11.4627 8.20768 11.2566 9.42804C11.2566 9.47001 11.2566 9.51521 11.23 9.55718H10.9973C10.7328 9.55718 10.4792 9.65922 10.2921 9.84086C10.1051 10.0225 10 10.2689 10 10.5257V12.0011C9.99819 12.1988 10.0587 12.3923 10.1734 12.5556C10.288 12.719 10.4514 12.8443 10.6416 12.9148L12.1242 35.1912C12.1403 35.4285 12.249 35.6508 12.4282 35.8128C12.6073 35.9748 12.8434 36.0643 13.0882 36.0629H28.1533C28.3976 36.0657 28.6334 35.9765 28.8113 35.8139C28.9892 35.6514 29.0954 35.4282 29.1074 35.1912L30.5833 12.989C30.8288 12.9907 31.0663 12.9043 31.2503 12.7464C31.4343 12.5886 31.5519 12.3703 31.5806 12.1335C31.5941 12.0665 31.6008 11.9984 31.6005 11.9301V10.671C31.6001 10.6408 31.5979 10.6106 31.5938 10.5806V10.5903ZM30.5168 11.8623H11.0837V10.7549H30.5168V11.8623ZM12.3369 9.60238C12.5364 8.44336 12.7857 7.0196 13.3342 5.8735C13.9458 4.63053 14.7669 4.05587 15.9204 4.05587H25.4375C26.591 4.05587 27.4918 4.67896 28.1866 5.96389C28.2132 6.01232 28.2364 6.06398 28.2597 6.11563C28.678 6.9836 28.9786 7.90061 29.1539 8.84369C29.2071 9.11811 29.2603 9.40544 29.3035 9.69923H12.3203C12.327 9.64435 12.3336 9.62498 12.3369 9.59269V9.60238ZM29.3434 14.9455L28.0137 35.0072H13.1912L11.7253 12.9116H29.493L29.3434 14.9455Z" fill="#3F3F41"/>
</svg>
