<svg width="42" height="42" viewBox="0 0 42 42" fill="none" xmlns="http://www.w3.org/2000/svg">
<path d="M21.864 11.0386C21.8683 11.0195 21.8745 11.0008 21.8823 10.9828H21.8151C21.7386 10.9828 21.6652 10.9828 21.5887 10.9828H21.5062C21.6018 11.075 21.7041 11.1599 21.812 11.2369L21.864 11.0386Z" fill="#99D3BF"/>
<path d="M20.8975 7.17481C20.6468 7.12523 20.2094 7.03848 19.6742 6.95172C19.6287 7.13376 19.5981 7.31925 19.5824 7.50635C19.5859 7.85457 19.6685 8.19729 19.8239 8.5079C19.9793 8.81851 20.2033 9.08863 20.4785 9.29726C20.7771 9.50853 21.1155 9.65515 21.4725 9.72795H21.5031C21.5912 9.74133 21.6801 9.74857 21.7692 9.74964H21.8854C21.9755 9.74869 22.0654 9.74145 22.1545 9.72795H22.1851C22.542 9.65456 22.8802 9.50799 23.1791 9.29726C23.462 9.08198 23.6906 8.80191 23.8462 8.47995C24.0018 8.158 24.08 7.8033 24.0743 7.44487C24.0687 7.08644 23.9793 6.73446 23.8136 6.41772C23.6479 6.10097 23.4106 5.82846 23.121 5.62248C22.6578 5.69156 22.2165 5.86744 21.831 6.13658C21.4455 6.40571 21.1262 6.76091 20.8975 7.17481Z" fill="#99D3BF"/>
<path d="M18.3774 7.45677C18.3781 7.23096 18.4006 7.00576 18.4447 6.7844C15.8573 6.47455 12.3279 6.43737 12.3462 8.48546V8.51025C13.016 8.67757 14.0864 8.77362 15.7961 8.63109C16.8329 8.54433 17.8024 8.38631 18.4233 8.27786C18.3683 8.00793 18.3528 7.73126 18.3774 7.45677Z" fill="#99D3BF"/>
<path d="M18.9463 9.41191C17.9419 9.60768 16.9282 9.7504 15.9093 9.8395C15.3282 9.89217 14.7868 9.91386 14.2883 9.91386C13.9549 9.91386 13.643 9.89837 13.3463 9.87668C14.8235 10.5614 17.5975 10.3136 19.4081 10.0471V9.99132C19.234 9.81559 19.0792 9.62133 18.9463 9.41191Z" fill="#99D3BF"/>
<path d="M23.0935 10.7381C22.9315 10.8027 22.7648 10.8545 22.595 10.893C22.7729 10.9744 22.9583 11.0377 23.1485 11.082L23.0935 10.7381Z" fill="#99D3BF"/>
<path d="M33.2382 9.07107C32.5409 9.64119 31.3359 9.92625 29.6385 9.92625C29.139 9.92625 28.5976 9.90146 28.0145 9.85189C26.91 9.75296 25.8115 9.59472 24.7236 9.37782C24.5739 9.61288 24.3973 9.8292 24.1976 10.0223L24.3597 11.0758C24.5942 11.0174 24.8211 10.9311 25.0356 10.8186C25.0843 10.7943 25.1378 10.7813 25.1922 10.7804C25.2465 10.7796 25.3003 10.791 25.3498 10.8139C25.3992 10.8367 25.4431 10.8704 25.4781 10.9124C25.5132 10.9545 25.5386 11.004 25.5524 11.0572C25.9399 10.7229 26.2403 10.2973 26.4272 9.81781C28.1032 10.1277 34.8439 11.2741 34.85 8.48546C34.8494 8.19455 34.764 7.91031 34.6046 7.66834C34.4452 7.42638 34.2188 7.23745 33.9539 7.12523C33.9765 7.24467 33.9867 7.36617 33.9845 7.48775C33.9895 7.79217 33.9247 8.09361 33.7952 8.36835C33.6657 8.6431 33.4751 8.88365 33.2382 9.07107Z" fill="#99D3BF"/>
<path d="M26.2498 7.1965C26.139 6.99811 26.0078 6.81219 25.8583 6.64187L25.4271 6.71933C25.5626 7.22416 25.5877 7.75291 25.5005 8.26857C26.1121 8.38321 27.0878 8.53504 28.1246 8.6218C31.0607 8.86967 32.1005 8.4049 32.4859 8.10435C32.5829 8.03415 32.6615 7.94099 32.7148 7.83298C32.7681 7.72496 32.7945 7.60538 32.7917 7.48466C32.7969 7.35961 32.7717 7.23518 32.7184 7.12228C32.6651 7.00938 32.5853 6.91146 32.4859 6.83708C32.4112 6.77814 32.3314 6.72628 32.2473 6.68215C30.0086 6.46836 27.048 7.02918 26.2498 7.1965Z" fill="#99D3BF"/>
<path d="M18.0532 18.5493C21.5001 18.5028 25.1824 18.5183 28.4304 18.5493C30.3511 18.5648 32.0424 18.5741 33.3789 18.5648V13.883H26.3109C26.2445 13.8832 26.1793 13.8652 26.1222 13.8308C26.0651 13.7964 26.0183 13.747 25.9868 13.6878H24.063C23.9204 13.6856 23.7831 13.6329 23.6748 13.539C23.5664 13.4451 23.4939 13.3158 23.4697 13.1734L23.1638 11.082C22.9736 11.0377 22.7881 10.9744 22.6103 10.893C22.4606 10.93 22.3082 10.9549 22.1546 10.9673C22.0781 10.9673 22.0047 10.9673 21.9313 10.9673H21.8977C21.8898 10.9853 21.8837 11.004 21.8793 11.0231L21.8304 11.2059L21.2187 13.5732C21.1973 13.6555 21.1492 13.7282 21.082 13.7793C21.0149 13.8305 20.9326 13.8572 20.8486 13.8551C10.6335 13.5019 9.17158 20.5695 9.04313 24.5634H12.7927C12.7591 22.4968 13.1934 20.9971 14.1079 19.9963C15.0223 18.9955 16.2793 18.5772 18.0532 18.5493Z" fill="#99D3BF"/>
<path d="M35.6391 13.883H34.584V19.1504C34.584 19.3148 34.5195 19.4724 34.4048 19.5886C34.2901 19.7048 34.1345 19.7701 33.9723 19.7701C32.5501 19.7701 30.6294 19.7701 28.409 19.7701C25.164 19.7546 21.4909 19.7329 18.0563 19.7701C16.6311 19.7918 15.6095 20.145 14.9764 20.8453C14.2027 21.6912 13.8846 23.101 14.0039 25.1552C14.0091 25.2379 13.9973 25.3207 13.9695 25.3986C13.9416 25.4764 13.8981 25.5476 13.8418 25.6076C13.7848 25.6665 13.7167 25.7133 13.6416 25.7453C13.5665 25.7772 13.4859 25.7936 13.4044 25.7935H9.03089C9.04465 25.8797 9.08817 25.9582 9.1537 26.015C9.21923 26.0717 9.30251 26.103 9.38872 26.1034H14.848C14.8974 26.1034 14.9462 26.0934 14.9918 26.074C15.0373 26.0546 15.0785 26.0261 15.113 25.9903C15.1474 25.9545 15.1745 25.9121 15.1926 25.8655C15.2106 25.8189 15.2193 25.7692 15.2181 25.7192C15.0896 21.7872 16.6158 20.0676 19.925 20.0211C25.5892 19.9374 32.0302 20.049 35.633 20.0211C35.7306 20.0203 35.8239 19.9804 35.8927 19.9102C35.9614 19.84 36 19.7451 36 19.6462V14.2548C35.9985 14.1578 35.9601 14.065 35.893 13.9958C35.8258 13.9265 35.7349 13.8862 35.6391 13.883Z" fill="#99D3BF"/>
<path d="M25.0356 10.8186C24.8211 10.9311 24.5942 11.0174 24.3597 11.0758L24.5768 12.4732H25.791L25.58 11.1006C25.58 11.0851 25.58 11.0696 25.58 11.0572C25.5673 11.0001 25.5414 10.9468 25.5045 10.9017C25.4676 10.8566 25.4207 10.8209 25.3677 10.7977C25.3146 10.7744 25.2569 10.7642 25.1992 10.7678C25.1414 10.7715 25.0854 10.7889 25.0356 10.8186Z" fill="#99D3BF"/>
<path d="M8.3764 34.6676C8.37269 35.1588 8.47718 35.6446 8.68224 36.0898C9.0457 36.2749 9.44682 36.3714 9.85362 36.3717C10.5588 36.3701 11.2347 36.0855 11.7333 35.5804C12.232 35.0752 12.5128 34.3905 12.5144 33.676C12.5144 32.8023 11.5786 31.6125 10.7711 30.6117C9.79245 31.8541 8.3764 33.3724 8.3764 34.6676Z" fill="#99D3BF"/>
<path d="M11.5051 29.5799L11.5755 29.6666C12.5878 30.906 13.7347 32.3127 13.7347 33.676C13.7336 34.6794 13.3522 35.6439 12.6691 36.3705C11.9861 37.097 11.0538 37.5301 10.0646 37.5801C10.5657 37.8621 11.1308 38.0068 11.7039 37.9998C12.2771 37.9928 12.8385 37.8343 13.3327 37.5402C13.8269 37.246 14.2368 36.8263 14.5219 36.3225C14.807 35.8187 14.9573 35.2483 14.9581 34.6676C14.9581 32.8302 12.1566 30.4908 11.6642 29.2266C11.6222 29.3492 11.5689 29.4674 11.5051 29.5799Z" fill="#99D3BF"/>
<path d="M13.8632 25.6107C13.9195 25.5507 13.963 25.4795 13.9909 25.4017C14.0188 25.3238 14.0305 25.241 14.0253 25.1583C13.906 23.1041 14.2241 21.6943 14.9979 20.8484C15.6432 20.1481 16.6525 19.7949 18.0777 19.7732C21.5123 19.7267 25.1855 19.7484 28.4304 19.7732C30.6509 19.7732 32.5715 19.7949 33.9937 19.7732C34.1559 19.7732 34.3115 19.7079 34.4262 19.5917C34.5409 19.4755 34.6054 19.3179 34.6054 19.1535V13.0836C34.6054 12.9192 34.5409 12.7616 34.4262 12.6454C34.3115 12.5292 34.1559 12.4639 33.9937 12.4639H24.5677L24.3505 11.0665L24.1884 10.013C24.3882 9.81991 24.5648 9.60358 24.7145 9.36853C25.8024 9.58542 26.9009 9.74367 28.0053 9.8426C28.5905 9.89217 29.1318 9.91696 29.6293 9.91696C31.3268 9.91696 32.5318 9.6319 33.2291 9.06178C33.4647 8.87531 33.6546 8.63625 33.784 8.36323C33.9135 8.09022 33.9789 7.79061 33.9753 7.48775C33.9776 7.36617 33.9673 7.24467 33.9448 7.12523C33.8668 6.63402 33.6077 6.19108 33.2199 5.88584C32.3024 5.14531 30.553 4.88504 27.99 5.11433C26.8971 5.22562 25.8108 5.39628 24.7359 5.62557C24.4287 5.13298 24.0047 4.72617 23.5025 4.44225C23.0003 4.15833 22.4359 4.00636 21.8608 4.0002C21.2857 3.99403 20.7183 4.13388 20.2102 4.40697C19.7022 4.68006 19.2698 5.07771 18.9524 5.56361C17.9501 5.36537 16.9385 5.21853 15.9215 5.12362C13.3616 4.89124 11.603 5.1546 10.6916 5.89514C10.4518 6.0832 10.2586 6.32539 10.1275 6.60241C9.99634 6.87944 9.93082 7.18366 9.93619 7.49086C9.93166 7.79342 9.99674 8.0929 10.1263 8.36556C10.2558 8.63823 10.4462 8.8766 10.6824 9.06178C11.2452 9.52035 12.1413 9.79302 13.3463 9.88288C13.6522 9.90457 13.958 9.92006 14.2883 9.92006C14.7868 9.92006 15.3282 9.89837 15.9093 9.84569C16.9283 9.7566 17.942 9.61388 18.9463 9.41811C19.083 9.62814 19.242 9.82243 19.4203 9.99752V10.0533L18.8087 12.4577C14.8572 12.3586 11.8049 13.3563 9.74046 15.426C7.55675 17.6105 6.52912 20.9072 6.68204 25.2172C6.69066 25.3756 6.75888 25.5246 6.87267 25.6335C6.98647 25.7425 7.13716 25.8031 7.29373 25.8028H13.4381C13.5992 25.7981 13.752 25.729 13.8632 25.6107ZM28.1246 6.34132C30.5713 6.12133 31.7213 6.41259 32.2443 6.69145C32.3283 6.73558 32.4082 6.78744 32.4828 6.84637C32.5822 6.92075 32.662 7.01868 32.7154 7.13158C32.7687 7.24448 32.7939 7.3689 32.7887 7.49395C32.7914 7.61468 32.765 7.73426 32.7117 7.84227C32.6584 7.95028 32.5798 8.04345 32.4828 8.11365C32.1128 8.42349 31.0576 8.87897 28.1215 8.63109C27.0847 8.54433 26.1183 8.39251 25.4974 8.27787C25.5846 7.7622 25.5596 7.23346 25.424 6.72863L25.8553 6.65117C26.4608 6.55511 27.2652 6.41568 28.1154 6.34132L28.1246 6.34132ZM21.8151 5.21348C22.2857 5.21347 22.7445 5.36333 23.1264 5.64186C23.5084 5.92038 23.7944 6.31349 23.9438 6.76563C24.0932 7.21776 24.0986 7.70604 23.9592 8.16144C23.8198 8.61685 23.5426 9.01634 23.1669 9.30346C22.868 9.51419 22.5298 9.66075 22.1729 9.73415H22.1423C22.0532 9.74764 21.9633 9.75489 21.8732 9.75584H21.757C21.6679 9.75477 21.579 9.74752 21.4909 9.73415H21.4603C21.1033 9.66135 20.7649 9.51473 20.4663 9.30346C20.1911 9.09482 19.9671 8.82471 19.8117 8.5141C19.6563 8.20349 19.5736 7.86076 19.5702 7.51254C19.5858 7.32544 19.6165 7.13995 19.662 6.95792C19.6925 6.82778 19.7323 6.68835 19.7782 6.53962C19.9571 6.14446 20.244 5.80953 20.605 5.57449C20.966 5.33946 21.386 5.21417 21.8151 5.21348ZM15.7869 8.6218C14.0773 8.76433 13.0068 8.66827 12.3371 8.50096C12.0061 8.43722 11.6929 8.30079 11.4195 8.10125C11.3223 8.03124 11.2436 7.93811 11.1903 7.83006C11.137 7.722 11.1107 7.60233 11.1137 7.48156C11.1083 7.35604 11.1333 7.23108 11.1866 7.11764C11.24 7.0042 11.3199 6.90574 11.4195 6.83088C11.7254 6.5923 12.4441 6.24837 14.1996 6.24837C14.7257 6.24901 15.2514 6.27693 15.7747 6.33203C16.8329 6.42498 17.8177 6.5861 18.4355 6.70384L18.4172 6.77511C18.3732 6.99647 18.3506 7.22167 18.3499 7.44748C18.3253 7.72197 18.3408 7.99864 18.3958 8.26857C17.8024 8.38631 16.8329 8.54433 15.7961 8.63109L15.7869 8.6218ZM9.02478 24.5696H7.85036C7.81366 20.9041 8.72201 18.1155 10.5632 16.2812C12.4655 14.3695 15.3741 13.4926 19.2154 13.6816C19.3531 13.6866 19.4884 13.6443 19.5994 13.5616C19.7105 13.479 19.7907 13.3607 19.8271 13.2261L20.4724 10.7009C20.7985 10.8407 21.1443 10.9275 21.497 10.958H21.5796C21.656 10.958 21.7294 10.958 21.8059 10.958H21.9068C21.9802 10.958 22.0536 10.958 22.1301 10.958C22.2837 10.9456 22.4361 10.9208 22.5858 10.8837C22.7557 10.8452 22.9224 10.7934 23.0843 10.7288L23.1394 11.0727L23.4452 13.1642C23.4694 13.3065 23.542 13.4358 23.6503 13.5297C23.7587 13.6236 23.896 13.6763 24.0386 13.6785H33.3545V18.5462C32.018 18.5462 30.3267 18.5462 28.406 18.5307C25.1579 18.509 21.4756 18.4935 18.0288 18.5307C16.2549 18.5586 14.9703 19.0358 14.0834 19.9932C13.1965 20.9506 12.7346 22.4937 12.7683 24.5603L9.02478 24.5696ZM13.7256 33.6668C13.7256 32.3034 12.5787 30.8998 11.5663 29.6573L11.496 29.5706C11.0799 29.1088 10.7185 28.5992 10.4194 28.0523C10.3699 27.9408 10.289 27.8466 10.1868 27.7816C10.0845 27.7166 9.96561 27.6836 9.84496 27.687C9.72431 27.6903 9.60733 27.7297 9.50873 27.8002C9.41013 27.8707 9.33432 27.9692 9.29086 28.0833C9.16241 28.4799 8.62108 29.1399 8.09503 29.7813C7.11328 30.9804 6 32.3406 6 33.6668C5.99919 34.1834 6.0993 34.6951 6.29455 35.1725C6.48981 35.6498 6.77634 36.0832 7.13767 36.4478C7.499 36.8124 7.92798 37.101 8.39988 37.297C8.87178 37.4929 9.37728 37.5923 9.88726 37.5894H10.0799C11.0679 37.5354 11.9978 37.0994 12.6779 36.3713C13.3579 35.6432 13.7362 34.6784 13.7347 33.676L13.7256 33.6668ZM9.85668 36.3624C9.44988 36.3621 9.04876 36.2656 8.6853 36.0805C8.23981 35.8589 7.86445 35.5153 7.60175 35.0887C7.33906 34.6621 7.19952 34.1695 7.19892 33.6668C7.19892 32.7806 8.2082 31.5474 9.03397 30.5683C9.33981 30.181 9.64565 29.8184 9.89338 29.4807C10.1166 29.7906 10.3766 30.1004 10.6519 30.4412C10.6947 30.497 10.7406 30.5559 10.7895 30.6117C11.5969 31.6125 12.5328 32.8023 12.5328 33.676C12.5312 34.3916 12.2495 35.0772 11.7495 35.5825C11.2495 36.0879 10.5721 36.3717 9.86585 36.3717L9.85668 36.3624Z" fill="#3F3F41"/>
</svg>
