<svg width="198" height="58" viewBox="0 0 198 58" fill="none" xmlns="http://www.w3.org/2000/svg">
<g filter="url(#filter0_d_190_1266)">
<rect x="4" width="190" height="50" rx="8" fill="#6491E9"/>
<path d="M46.0966 32V17.9H52.2566C53.7366 17.9 54.8833 18.2267 55.6966 18.88C56.51 19.52 56.9166 20.4133 56.9166 21.56C56.9166 22.32 56.7233 22.9733 56.3366 23.52C55.95 24.0667 55.4166 24.4667 54.7366 24.72C55.5366 24.9467 56.1566 25.3467 56.5966 25.92C57.05 26.48 57.2766 27.1933 57.2766 28.06C57.2766 29.3133 56.85 30.2867 55.9966 30.98C55.1566 31.66 53.9833 32 52.4766 32H46.0966ZM48.5566 23.88H51.8166C53.5633 23.88 54.4366 23.2067 54.4366 21.86C54.4366 20.5133 53.5633 19.84 51.8166 19.84H48.5566V23.88ZM48.5566 30.06H52.1566C53.9166 30.06 54.7966 29.3533 54.7966 27.94C54.7966 26.5267 53.9166 25.82 52.1566 25.82H48.5566V30.06ZM63.1662 32.2C60.7662 32.2 59.5662 30.8533 59.5662 28.16V22.22H62.0662V28.2C62.0662 28.8933 62.2062 29.4067 62.4862 29.74C62.7662 30.0733 63.2128 30.24 63.8262 30.24C64.4928 30.24 65.0395 30.0133 65.4662 29.56C65.8928 29.0933 66.1062 28.48 66.1062 27.72V22.22H68.6062V32H66.1662V30.54C65.5128 31.6467 64.5128 32.2 63.1662 32.2ZM75.6882 32.2C73.1015 32.2 71.8082 30.92 71.8082 28.36V24.1H69.9282V22.22H71.8082V19.3H74.3082V22.22H77.2682V24.1H74.3082V28.22C74.3082 28.86 74.4482 29.34 74.7282 29.66C75.0082 29.98 75.4615 30.14 76.0882 30.14C76.2749 30.14 76.4682 30.12 76.6682 30.08C76.8682 30.0267 77.0749 29.9733 77.2882 29.92L77.6682 31.76C77.4282 31.8933 77.1215 32 76.7482 32.08C76.3882 32.16 76.0349 32.2 75.6882 32.2ZM82.7976 32.2C80.2109 32.2 78.9176 30.92 78.9176 28.36V24.1H77.0376V22.22H78.9176V19.3H81.4176V22.22H84.3776V24.1H81.4176V28.22C81.4176 28.86 81.5576 29.34 81.8376 29.66C82.1176 29.98 82.5709 30.14 83.1976 30.14C83.3842 30.14 83.5776 30.12 83.7776 30.08C83.9776 30.0267 84.1842 29.9733 84.3976 29.92L84.7776 31.76C84.5376 31.8933 84.2309 32 83.8576 32.08C83.4976 32.16 83.1442 32.2 82.7976 32.2ZM90.3557 32.2C89.3424 32.2 88.4624 31.9933 87.7157 31.58C86.969 31.1667 86.389 30.58 85.9757 29.82C85.5624 29.0467 85.3557 28.14 85.3557 27.1C85.3557 26.06 85.5624 25.16 85.9757 24.4C86.389 23.64 86.969 23.0533 87.7157 22.64C88.4624 22.2267 89.3424 22.02 90.3557 22.02C91.369 22.02 92.249 22.2267 92.9957 22.64C93.7424 23.0533 94.3224 23.64 94.7357 24.4C95.149 25.16 95.3557 26.06 95.3557 27.1C95.3557 28.14 95.149 29.0467 94.7357 29.82C94.3224 30.58 93.7424 31.1667 92.9957 31.58C92.249 31.9933 91.369 32.2 90.3557 32.2ZM90.3557 30.3C91.1024 30.3 91.7024 30.0333 92.1557 29.5C92.609 28.9533 92.8357 28.1533 92.8357 27.1C92.8357 26.0333 92.609 25.24 92.1557 24.72C91.7024 24.1867 91.1024 23.92 90.3557 23.92C89.609 23.92 89.009 24.1867 88.5557 24.72C88.1024 25.24 87.8757 26.0333 87.8757 27.1C87.8757 28.1533 88.1024 28.9533 88.5557 29.5C89.009 30.0333 89.609 30.3 90.3557 30.3ZM97.4191 32V22.22H99.8591V23.74C100.192 23.18 100.639 22.7533 101.199 22.46C101.772 22.1667 102.412 22.02 103.119 22.02C105.426 22.02 106.579 23.36 106.579 26.04V32H104.079V26.16C104.079 25.4 103.932 24.8467 103.639 24.5C103.359 24.1533 102.919 23.98 102.319 23.98C101.586 23.98 100.999 24.2133 100.559 24.68C100.132 25.1333 99.9191 25.74 99.9191 26.5V32H97.4191ZM118.149 32V20.04H113.309V17.9H125.549V20.04H120.709V32H118.149ZM130.188 32.2C129.082 32.2 128.128 31.9933 127.328 31.58C126.528 31.1667 125.908 30.58 125.468 29.82C125.042 29.06 124.828 28.16 124.828 27.12C124.828 26.1067 125.035 25.22 125.448 24.46C125.875 23.7 126.455 23.1067 127.188 22.68C127.935 22.24 128.782 22.02 129.728 22.02C131.115 22.02 132.208 22.46 133.008 23.34C133.822 24.22 134.228 25.42 134.228 26.94V27.68H127.228C127.415 29.4267 128.415 30.3 130.228 30.3C130.775 30.3 131.322 30.22 131.868 30.06C132.415 29.8867 132.915 29.62 133.368 29.26L134.068 30.94C133.602 31.3267 133.015 31.6333 132.308 31.86C131.602 32.0867 130.895 32.2 130.188 32.2ZM129.828 23.72C129.095 23.72 128.502 23.9467 128.048 24.4C127.595 24.8533 127.322 25.4667 127.228 26.24H132.148C132.095 25.4267 131.868 24.8067 131.468 24.38C131.082 23.94 130.535 23.72 129.828 23.72ZM134.79 32L138.89 26.94L135.05 22.22H137.97L140.33 25.24L142.69 22.22H145.61L141.75 26.96L145.87 32H142.93L140.31 28.7L137.71 32H134.79ZM151.548 32.2C148.961 32.2 147.668 30.92 147.668 28.36V24.1H145.788V22.22H147.668V19.3H150.168V22.22H153.128V24.1H150.168V28.22C150.168 28.86 150.308 29.34 150.588 29.66C150.868 29.98 151.321 30.14 151.948 30.14C152.134 30.14 152.328 30.12 152.528 30.08C152.728 30.0267 152.934 29.9733 153.148 29.92L153.528 31.76C153.288 31.8933 152.981 32 152.608 32.08C152.248 32.16 151.894 32.2 151.548 32.2Z" fill="white"/>
</g>
<defs>
<filter id="filter0_d_190_1266" x="0" y="0" width="198" height="58" filterUnits="userSpaceOnUse" color-interpolation-filters="sRGB">
<feFlood flood-opacity="0" result="BackgroundImageFix"/>
<feColorMatrix in="SourceAlpha" type="matrix" values="0 0 0 0 0 0 0 0 0 0 0 0 0 0 0 0 0 0 127 0" result="hardAlpha"/>
<feOffset dy="4"/>
<feGaussianBlur stdDeviation="2"/>
<feComposite in2="hardAlpha" operator="out"/>
<feColorMatrix type="matrix" values="0 0 0 0 0 0 0 0 0 0 0 0 0 0 0 0 0 0 0.25 0"/>
<feBlend mode="normal" in2="BackgroundImageFix" result="effect1_dropShadow_190_1266"/>
<feBlend mode="normal" in="SourceGraphic" in2="effect1_dropShadow_190_1266" result="shape"/>
</filter>
</defs>
</svg>
