<svg width="190" height="50" viewBox="0 0 190 50" fill="none" xmlns="http://www.w3.org/2000/svg">
<rect width="190" height="50" rx="8" fill="white"/>
<path d="M42.0966 32V17.9H48.2566C49.7366 17.9 50.8833 18.2267 51.6966 18.88C52.51 19.52 52.9166 20.4133 52.9166 21.56C52.9166 22.32 52.7233 22.9733 52.3366 23.52C51.95 24.0667 51.4166 24.4667 50.7366 24.72C51.5366 24.9467 52.1566 25.3467 52.5966 25.92C53.05 26.48 53.2766 27.1933 53.2766 28.06C53.2766 29.3133 52.85 30.2867 51.9966 30.98C51.1566 31.66 49.9833 32 48.4766 32H42.0966ZM44.5566 23.88H47.8166C49.5633 23.88 50.4366 23.2067 50.4366 21.86C50.4366 20.5133 49.5633 19.84 47.8166 19.84H44.5566V23.88ZM44.5566 30.06H48.1566C49.9166 30.06 50.7966 29.3533 50.7966 27.94C50.7966 26.5267 49.9166 25.82 48.1566 25.82H44.5566V30.06ZM59.1662 32.2C56.7662 32.2 55.5662 30.8533 55.5662 28.16V22.22H58.0662V28.2C58.0662 28.8933 58.2062 29.4067 58.4862 29.74C58.7662 30.0733 59.2128 30.24 59.8262 30.24C60.4928 30.24 61.0395 30.0133 61.4662 29.56C61.8928 29.0933 62.1062 28.48 62.1062 27.72V22.22H64.6062V32H62.1662V30.54C61.5128 31.6467 60.5128 32.2 59.1662 32.2ZM71.6882 32.2C69.1015 32.2 67.8082 30.92 67.8082 28.36V24.1H65.9282V22.22H67.8082V19.3H70.3082V22.22H73.2682V24.1H70.3082V28.22C70.3082 28.86 70.4482 29.34 70.7282 29.66C71.0082 29.98 71.4615 30.14 72.0882 30.14C72.2749 30.14 72.4682 30.12 72.6682 30.08C72.8682 30.0267 73.0749 29.9733 73.2882 29.92L73.6682 31.76C73.4282 31.8933 73.1215 32 72.7482 32.08C72.3882 32.16 72.0349 32.2 71.6882 32.2ZM78.7976 32.2C76.2109 32.2 74.9176 30.92 74.9176 28.36V24.1H73.0376V22.22H74.9176V19.3H77.4176V22.22H80.3776V24.1H77.4176V28.22C77.4176 28.86 77.5576 29.34 77.8376 29.66C78.1176 29.98 78.5709 30.14 79.1976 30.14C79.3842 30.14 79.5776 30.12 79.7776 30.08C79.9776 30.0267 80.1842 29.9733 80.3976 29.92L80.7776 31.76C80.5376 31.8933 80.2309 32 79.8576 32.08C79.4976 32.16 79.1442 32.2 78.7976 32.2ZM86.3557 32.2C85.3424 32.2 84.4624 31.9933 83.7157 31.58C82.969 31.1667 82.389 30.58 81.9757 29.82C81.5624 29.0467 81.3557 28.14 81.3557 27.1C81.3557 26.06 81.5624 25.16 81.9757 24.4C82.389 23.64 82.969 23.0533 83.7157 22.64C84.4624 22.2267 85.3424 22.02 86.3557 22.02C87.369 22.02 88.249 22.2267 88.9957 22.64C89.7424 23.0533 90.3224 23.64 90.7357 24.4C91.149 25.16 91.3557 26.06 91.3557 27.1C91.3557 28.14 91.149 29.0467 90.7357 29.82C90.3224 30.58 89.7424 31.1667 88.9957 31.58C88.249 31.9933 87.369 32.2 86.3557 32.2ZM86.3557 30.3C87.1024 30.3 87.7024 30.0333 88.1557 29.5C88.609 28.9533 88.8357 28.1533 88.8357 27.1C88.8357 26.0333 88.609 25.24 88.1557 24.72C87.7024 24.1867 87.1024 23.92 86.3557 23.92C85.609 23.92 85.009 24.1867 84.5557 24.72C84.1024 25.24 83.8757 26.0333 83.8757 27.1C83.8757 28.1533 84.1024 28.9533 84.5557 29.5C85.009 30.0333 85.609 30.3 86.3557 30.3ZM93.4191 32V22.22H95.8591V23.74C96.1925 23.18 96.6391 22.7533 97.1991 22.46C97.7725 22.1667 98.4125 22.02 99.1191 22.02C101.426 22.02 102.579 23.36 102.579 26.04V32H100.079V26.16C100.079 25.4 99.9325 24.8467 99.6391 24.5C99.3591 24.1533 98.9191 23.98 98.3191 23.98C97.5858 23.98 96.9991 24.2133 96.5591 24.68C96.1325 25.1333 95.9191 25.74 95.9191 26.5V32H93.4191ZM114.149 32V20.04H109.309V17.9H121.549V20.04H116.709V32H114.149ZM126.188 32.2C125.082 32.2 124.128 31.9933 123.328 31.58C122.528 31.1667 121.908 30.58 121.468 29.82C121.042 29.06 120.828 28.16 120.828 27.12C120.828 26.1067 121.035 25.22 121.448 24.46C121.875 23.7 122.455 23.1067 123.188 22.68C123.935 22.24 124.782 22.02 125.728 22.02C127.115 22.02 128.208 22.46 129.008 23.34C129.822 24.22 130.228 25.42 130.228 26.94V27.68H123.228C123.415 29.4267 124.415 30.3 126.228 30.3C126.775 30.3 127.322 30.22 127.868 30.06C128.415 29.8867 128.915 29.62 129.368 29.26L130.068 30.94C129.602 31.3267 129.015 31.6333 128.308 31.86C127.602 32.0867 126.895 32.2 126.188 32.2ZM125.828 23.72C125.095 23.72 124.502 23.9467 124.048 24.4C123.595 24.8533 123.322 25.4667 123.228 26.24H128.148C128.095 25.4267 127.868 24.8067 127.468 24.38C127.082 23.94 126.535 23.72 125.828 23.72ZM130.79 32L134.89 26.94L131.05 22.22H133.97L136.33 25.24L138.69 22.22H141.61L137.75 26.96L141.87 32H138.93L136.31 28.7L133.71 32H130.79ZM147.548 32.2C144.961 32.2 143.668 30.92 143.668 28.36V24.1H141.788V22.22H143.668V19.3H146.168V22.22H149.128V24.1H146.168V28.22C146.168 28.86 146.308 29.34 146.588 29.66C146.868 29.98 147.321 30.14 147.948 30.14C148.134 30.14 148.328 30.12 148.528 30.08C148.728 30.0267 148.934 29.9733 149.148 29.92L149.528 31.76C149.288 31.8933 148.981 32 148.608 32.08C148.248 32.16 147.894 32.2 147.548 32.2Z" fill="black"/>
</svg>
