<svg width="202" height="80" viewBox="0 0 202 80" fill="none" xmlns="http://www.w3.org/2000/svg">
<line y1="39.5" x2="102" y2="39.5" stroke="#6491E9"/>
<rect x="122" width="80" height="80" rx="6" fill="#6491E9"/>
<path d="M126.534 46.126C126.138 46.126 125.988 45.892 126.084 45.424L126.606 42.724H125.616C125.184 42.724 124.968 42.55 124.968 42.202C124.968 41.842 125.184 41.662 125.616 41.662H126.804L127.614 37.504H125.976C125.544 37.504 125.328 37.324 125.328 36.964C125.328 36.616 125.544 36.442 125.976 36.442H127.794L128.316 33.778C128.4 33.382 128.628 33.184 129 33.184C129.372 33.184 129.516 33.418 129.432 33.886L128.946 36.442H131.808L132.312 33.778C132.396 33.382 132.624 33.184 132.996 33.184C133.38 33.184 133.53 33.418 133.446 33.886L132.942 36.442H133.932C134.364 36.442 134.58 36.616 134.58 36.964C134.58 37.324 134.364 37.504 133.932 37.504H132.744L131.934 41.662H133.572C134.004 41.662 134.22 41.842 134.22 42.202C134.22 42.55 134.004 42.724 133.572 42.724H131.754L131.196 45.532C131.112 45.928 130.89 46.126 130.53 46.126C130.35 46.126 130.218 46.066 130.134 45.946C130.05 45.814 130.026 45.64 130.062 45.424L130.584 42.724H127.74L127.2 45.532C127.128 45.928 126.906 46.126 126.534 46.126ZM127.938 41.662H130.782L131.61 37.504H128.748L127.938 41.662ZM140.999 46.162C139.499 46.162 138.341 45.622 137.525 44.542C136.721 43.45 136.319 41.926 136.319 39.97C136.319 37.774 136.769 36.088 137.669 34.912C138.569 33.736 139.829 33.148 141.449 33.148C142.001 33.148 142.565 33.256 143.141 33.472C143.729 33.688 144.245 33.994 144.689 34.39C144.845 34.522 144.929 34.672 144.941 34.84C144.965 35.008 144.935 35.164 144.851 35.308C144.767 35.452 144.647 35.548 144.491 35.596C144.347 35.632 144.179 35.578 143.987 35.434C143.579 35.086 143.159 34.84 142.727 34.696C142.295 34.54 141.857 34.462 141.413 34.462C140.237 34.462 139.331 34.9 138.695 35.776C138.071 36.652 137.759 37.954 137.759 39.682V40.564C137.987 39.772 138.407 39.154 139.019 38.71C139.643 38.266 140.375 38.044 141.215 38.044C141.959 38.044 142.619 38.218 143.195 38.566C143.771 38.902 144.221 39.37 144.545 39.97C144.869 40.57 145.031 41.26 145.031 42.04C145.031 42.844 144.857 43.558 144.509 44.182C144.173 44.794 143.699 45.28 143.087 45.64C142.487 45.988 141.791 46.162 140.999 46.162ZM140.909 44.902C141.713 44.902 142.361 44.644 142.853 44.128C143.357 43.612 143.609 42.934 143.609 42.094C143.609 41.266 143.357 40.594 142.853 40.078C142.361 39.55 141.713 39.286 140.909 39.286C140.105 39.286 139.451 39.55 138.947 40.078C138.455 40.594 138.209 41.266 138.209 42.094C138.209 42.934 138.455 43.612 138.947 44.128C139.451 44.644 140.105 44.902 140.909 44.902ZM153.484 46.126C152.992 46.126 152.746 45.874 152.746 45.37V43.282H147.58C147.34 43.282 147.148 43.228 147.004 43.12C146.872 43 146.806 42.832 146.806 42.616C146.806 42.4 146.944 42.088 147.22 41.68L152.71 33.688C152.926 33.352 153.202 33.184 153.538 33.184C153.73 33.184 153.892 33.25 154.024 33.382C154.168 33.502 154.24 33.688 154.24 33.94V42.022H155.554C156.022 42.022 156.256 42.232 156.256 42.652C156.256 43.072 156.022 43.282 155.554 43.282H154.24V45.37C154.24 45.874 153.988 46.126 153.484 46.126ZM152.746 42.022V35.686L148.408 42.022H152.746ZM161.271 46.162C160.719 46.162 160.149 46.054 159.561 45.838C158.985 45.622 158.475 45.31 158.031 44.902C157.875 44.782 157.785 44.638 157.761 44.47C157.749 44.29 157.785 44.134 157.869 44.002C157.953 43.858 158.067 43.768 158.211 43.732C158.367 43.684 158.541 43.726 158.733 43.858C159.141 44.206 159.561 44.458 159.993 44.614C160.425 44.77 160.863 44.848 161.307 44.848C162.483 44.848 163.383 44.41 164.007 43.534C164.643 42.658 164.961 41.356 164.961 39.628V38.746C164.733 39.538 164.307 40.156 163.683 40.6C163.071 41.044 162.345 41.266 161.505 41.266C160.761 41.266 160.101 41.098 159.525 40.762C158.949 40.414 158.499 39.94 158.175 39.34C157.851 38.74 157.689 38.05 157.689 37.27C157.689 36.466 157.857 35.758 158.193 35.146C158.541 34.522 159.015 34.036 159.615 33.688C160.227 33.328 160.929 33.148 161.721 33.148C163.221 33.148 164.373 33.694 165.177 34.786C165.993 35.866 166.401 37.384 166.401 39.34C166.401 41.536 165.951 43.222 165.051 44.398C164.151 45.574 162.891 46.162 161.271 46.162ZM161.811 40.024C162.615 40.024 163.269 39.766 163.773 39.25C164.277 38.722 164.529 38.038 164.529 37.198C164.529 36.37 164.277 35.698 163.773 35.182C163.269 34.654 162.615 34.39 161.811 34.39C161.019 34.39 160.371 34.654 159.867 35.182C159.363 35.698 159.111 36.37 159.111 37.198C159.111 38.038 159.363 38.722 159.867 39.25C160.371 39.766 161.019 40.024 161.811 40.024ZM170.336 46C169.88 46 169.652 45.784 169.652 45.352C169.652 44.944 169.88 44.74 170.336 44.74H172.676V35.038L170.84 36.262C170.648 36.382 170.468 36.418 170.3 36.37C170.144 36.31 170.024 36.208 169.94 36.064C169.856 35.92 169.826 35.764 169.85 35.596C169.886 35.428 170 35.278 170.192 35.146L172.676 33.508C172.832 33.412 172.982 33.334 173.126 33.274C173.27 33.214 173.414 33.184 173.558 33.184C173.726 33.184 173.864 33.238 173.972 33.346C174.092 33.442 174.152 33.598 174.152 33.814V44.74H176.312C176.768 44.74 176.996 44.944 176.996 45.352C176.996 45.784 176.768 46 176.312 46H170.336ZM180.715 46C180.175 46 179.905 45.73 179.905 45.19V34.12C179.905 33.58 180.175 33.31 180.715 33.31H187.411C187.831 33.31 188.041 33.514 188.041 33.922C188.041 34.342 187.831 34.552 187.411 34.552H181.345V38.944H187.033C187.453 38.944 187.663 39.148 187.663 39.556C187.663 39.976 187.453 40.186 187.033 40.186H181.345V44.758H187.411C187.831 44.758 188.041 44.962 188.041 45.37C188.041 45.79 187.831 46 187.411 46H180.715ZM193.351 46.162C192.799 46.162 192.229 46.054 191.641 45.838C191.065 45.622 190.555 45.31 190.111 44.902C189.955 44.782 189.865 44.638 189.841 44.47C189.829 44.29 189.865 44.134 189.949 44.002C190.033 43.858 190.147 43.768 190.291 43.732C190.447 43.684 190.621 43.726 190.813 43.858C191.221 44.206 191.641 44.458 192.073 44.614C192.505 44.77 192.943 44.848 193.387 44.848C194.563 44.848 195.463 44.41 196.087 43.534C196.723 42.658 197.041 41.356 197.041 39.628V38.746C196.813 39.538 196.387 40.156 195.763 40.6C195.151 41.044 194.425 41.266 193.585 41.266C192.841 41.266 192.181 41.098 191.605 40.762C191.029 40.414 190.579 39.94 190.255 39.34C189.931 38.74 189.769 38.05 189.769 37.27C189.769 36.466 189.937 35.758 190.273 35.146C190.621 34.522 191.095 34.036 191.695 33.688C192.307 33.328 193.009 33.148 193.801 33.148C195.301 33.148 196.453 33.694 197.257 34.786C198.073 35.866 198.481 37.384 198.481 39.34C198.481 41.536 198.031 43.222 197.131 44.398C196.231 45.574 194.971 46.162 193.351 46.162ZM193.891 40.024C194.695 40.024 195.349 39.766 195.853 39.25C196.357 38.722 196.609 38.038 196.609 37.198C196.609 36.37 196.357 35.698 195.853 35.182C195.349 34.654 194.695 34.39 193.891 34.39C193.099 34.39 192.451 34.654 191.947 35.182C191.443 35.698 191.191 36.37 191.191 37.198C191.191 38.038 191.443 38.722 191.947 39.25C192.451 39.766 193.099 40.024 193.891 40.024Z" fill="white"/>
</svg>
