<svg width="90" height="86" viewBox="0 0 90 86" fill="none" xmlns="http://www.w3.org/2000/svg">
<path d="M56.6431 29.3185H33.3568C31.8792 29.3185 30.6814 28.1208 30.6814 26.6431V3.35685C30.6814 1.87925 31.8792 0.681452 33.3568 0.681452H56.6431C58.1207 0.681452 59.3185 1.87925 59.3185 3.35685V26.6431C59.3185 28.1208 58.1207 29.3185 56.6431 29.3185Z" fill="white" stroke="#11263A"/>
<path d="M10.2289 54.162C8.98085 54.162 7.91285 53.898 7.02485 53.37C6.13685 52.842 5.45285 52.092 4.97285 51.12C4.50485 50.148 4.27085 48.99 4.27085 47.646C4.27085 46.314 4.50485 45.162 4.97285 44.19C5.45285 43.218 6.13685 42.468 7.02485 41.94C7.91285 41.412 8.98085 41.148 10.2289 41.148C10.9729 41.148 11.6809 41.256 12.3529 41.472C13.0249 41.688 13.6069 41.994 14.0989 42.39C14.3029 42.534 14.4169 42.702 14.4409 42.894C14.4769 43.086 14.4469 43.26 14.3509 43.416C14.2549 43.56 14.1169 43.656 13.9369 43.704C13.7689 43.74 13.5769 43.68 13.3609 43.524C12.5089 42.84 11.4769 42.498 10.2649 42.498C8.83685 42.498 7.74485 42.948 6.98885 43.848C6.23285 44.748 5.85485 46.014 5.85485 47.646C5.85485 49.29 6.23285 50.562 6.98885 51.462C7.74485 52.362 8.83685 52.812 10.2649 52.812C11.4769 52.812 12.5209 52.464 13.3969 51.768C13.6129 51.624 13.8049 51.57 13.9729 51.606C14.1529 51.642 14.2849 51.732 14.3689 51.876C14.4649 52.02 14.5009 52.182 14.4769 52.362C14.4529 52.542 14.3509 52.704 14.1709 52.848C13.6549 53.28 13.0609 53.61 12.3889 53.838C11.7169 54.054 10.9969 54.162 10.2289 54.162ZM17.3722 54.126C16.8922 54.126 16.6522 53.874 16.6522 53.37V41.922C16.6522 41.43 16.8922 41.184 17.3722 41.184C17.8642 41.184 18.1102 41.43 18.1102 41.922V46.692C18.3982 46.164 18.8002 45.768 19.3162 45.504C19.8442 45.228 20.4322 45.09 21.0802 45.09C23.1562 45.09 24.1942 46.242 24.1942 48.546V53.37C24.1942 53.874 23.9542 54.126 23.4742 54.126C22.9822 54.126 22.7362 53.874 22.7362 53.37V48.636C22.7362 47.82 22.5742 47.226 22.2502 46.854C21.9382 46.47 21.4342 46.278 20.7382 46.278C19.9342 46.278 19.2922 46.53 18.8122 47.034C18.3442 47.526 18.1102 48.186 18.1102 49.014V53.37C18.1102 53.874 17.8642 54.126 17.3722 54.126ZM30.8246 54.162C29.4446 54.162 28.3526 53.76 27.5486 52.956C26.7446 52.14 26.3426 51.036 26.3426 49.644C26.3426 48.744 26.5226 47.952 26.8826 47.268C27.2426 46.572 27.7346 46.038 28.3586 45.666C28.9946 45.282 29.7266 45.09 30.5546 45.09C31.7426 45.09 32.6726 45.474 33.3446 46.242C34.0166 46.998 34.3526 48.042 34.3526 49.374C34.3526 49.746 34.1426 49.932 33.7226 49.932H27.7646C27.8126 50.928 28.1006 51.69 28.6286 52.218C29.1566 52.734 29.8886 52.992 30.8246 52.992C31.2206 52.992 31.6226 52.944 32.0306 52.848C32.4386 52.74 32.8346 52.554 33.2186 52.29C33.4946 52.11 33.7226 52.074 33.9026 52.182C34.0946 52.29 34.1906 52.458 34.1906 52.686C34.2026 52.902 34.0826 53.094 33.8306 53.262C33.4346 53.55 32.9606 53.772 32.4086 53.928C31.8686 54.084 31.3406 54.162 30.8246 54.162ZM30.5906 46.17C29.7626 46.17 29.1086 46.428 28.6286 46.944C28.1486 47.46 27.8666 48.138 27.7826 48.978H33.0926C33.0566 48.09 32.8226 47.4 32.3906 46.908C31.9706 46.416 31.3706 46.17 30.5906 46.17ZM40.1707 54.162C39.2947 54.162 38.5387 53.976 37.9027 53.604C37.2667 53.22 36.7747 52.686 36.4267 52.002C36.0907 51.306 35.9227 50.496 35.9227 49.572C35.9227 48.18 36.3007 47.088 37.0567 46.296C37.8127 45.492 38.8507 45.09 40.1707 45.09C40.6027 45.09 41.0527 45.162 41.5207 45.306C41.9887 45.438 42.4147 45.66 42.7987 45.972C43.0027 46.116 43.0867 46.296 43.0507 46.512C43.0267 46.728 42.9247 46.89 42.7447 46.998C42.5767 47.106 42.3787 47.082 42.1507 46.926C41.8267 46.686 41.5027 46.518 41.1787 46.422C40.8667 46.326 40.5607 46.278 40.2607 46.278C39.3487 46.278 38.6467 46.566 38.1547 47.142C37.6627 47.706 37.4167 48.522 37.4167 49.59C37.4167 50.634 37.6627 51.462 38.1547 52.074C38.6467 52.674 39.3487 52.974 40.2607 52.974C40.5607 52.974 40.8667 52.926 41.1787 52.83C41.5027 52.734 41.8267 52.566 42.1507 52.326C42.3787 52.17 42.5767 52.152 42.7447 52.272C42.9127 52.38 43.0027 52.542 43.0147 52.758C43.0387 52.974 42.9547 53.148 42.7627 53.28C42.3787 53.592 41.9587 53.82 41.5027 53.964C41.0467 54.096 40.6027 54.162 40.1707 54.162ZM45.5148 54.126C45.0348 54.126 44.7948 53.874 44.7948 53.37V41.922C44.7948 41.43 45.0348 41.184 45.5148 41.184C46.0068 41.184 46.2528 41.43 46.2528 41.922V49.14H46.2888L49.9788 45.612C50.1348 45.456 50.2788 45.336 50.4108 45.252C50.5428 45.168 50.7168 45.126 50.9328 45.126C51.2208 45.126 51.4068 45.24 51.4908 45.468C51.5868 45.684 51.5268 45.906 51.3108 46.134L47.8008 49.464L51.6528 53.082C51.9048 53.322 51.9708 53.556 51.8508 53.784C51.7428 54.012 51.5568 54.126 51.2928 54.126C51.0768 54.126 50.8968 54.084 50.7528 54C50.6208 53.904 50.4648 53.766 50.2848 53.586L46.2888 49.896H46.2528V53.37C46.2528 53.874 46.0068 54.126 45.5148 54.126ZM62.8634 54.162C62.1794 54.162 61.5734 54.012 61.0454 53.712C60.5174 53.4 60.1274 52.974 59.8754 52.434V53.37C59.8754 53.874 59.6354 54.126 59.1554 54.126C58.6754 54.126 58.4354 53.874 58.4354 53.37V41.922C58.4354 41.43 58.6754 41.184 59.1554 41.184C59.6474 41.184 59.8934 41.43 59.8934 41.922V46.764C60.1454 46.248 60.5354 45.84 61.0634 45.54C61.5914 45.24 62.1914 45.09 62.8634 45.09C63.6434 45.09 64.3214 45.276 64.8974 45.648C65.4854 46.008 65.9354 46.53 66.2474 47.214C66.5714 47.886 66.7334 48.69 66.7334 49.626C66.7334 50.55 66.5714 51.354 66.2474 52.038C65.9354 52.71 65.4854 53.232 64.8974 53.604C64.3214 53.976 63.6434 54.162 62.8634 54.162ZM62.5574 52.992C63.3734 52.992 64.0274 52.704 64.5194 52.128C65.0114 51.54 65.2574 50.706 65.2574 49.626C65.2574 48.534 65.0114 47.7 64.5194 47.124C64.0274 46.548 63.3734 46.26 62.5574 46.26C61.7414 46.26 61.0874 46.548 60.5954 47.124C60.1034 47.7 59.8574 48.534 59.8574 49.626C59.8574 50.706 60.1034 51.54 60.5954 52.128C61.0874 52.704 61.7414 52.992 62.5574 52.992ZM72.5655 54.162C71.7135 54.162 70.9755 53.976 70.3515 53.604C69.7275 53.232 69.2415 52.71 68.8935 52.038C68.5575 51.354 68.3895 50.55 68.3895 49.626C68.3895 48.702 68.5575 47.904 68.8935 47.232C69.2415 46.548 69.7275 46.02 70.3515 45.648C70.9755 45.276 71.7135 45.09 72.5655 45.09C73.4055 45.09 74.1375 45.276 74.7615 45.648C75.3975 46.02 75.8835 46.548 76.2195 47.232C76.5675 47.904 76.7415 48.702 76.7415 49.626C76.7415 50.55 76.5675 51.354 76.2195 52.038C75.8835 52.71 75.3975 53.232 74.7615 53.604C74.1375 53.976 73.4055 54.162 72.5655 54.162ZM72.5655 52.992C73.3815 52.992 74.0355 52.704 74.5275 52.128C75.0195 51.54 75.2655 50.706 75.2655 49.626C75.2655 48.534 75.0195 47.7 74.5275 47.124C74.0355 46.548 73.3815 46.26 72.5655 46.26C71.7375 46.26 71.0775 46.548 70.5855 47.124C70.1055 47.7 69.8655 48.534 69.8655 49.626C69.8655 50.706 70.1055 51.54 70.5855 52.128C71.0775 52.704 71.7375 52.992 72.5655 52.992ZM78.7741 54.108C78.5341 54.108 78.3541 54.006 78.2341 53.802C78.1141 53.586 78.1681 53.34 78.3961 53.064L81.2581 49.482L78.5941 46.17C78.3661 45.894 78.3121 45.654 78.4321 45.45C78.5521 45.234 78.7321 45.126 78.9721 45.126C79.1641 45.126 79.3201 45.162 79.4401 45.234C79.5601 45.294 79.6741 45.396 79.7821 45.54L82.1041 48.474L84.4441 45.54C84.5521 45.396 84.6661 45.294 84.7861 45.234C84.9061 45.162 85.0561 45.126 85.2361 45.126C85.4881 45.126 85.6681 45.234 85.7761 45.45C85.8961 45.654 85.8421 45.9 85.6141 46.188L82.9501 49.482L85.8301 53.064C86.0461 53.34 86.0941 53.586 85.9741 53.802C85.8541 54.006 85.6681 54.108 85.4161 54.108C85.0921 54.108 84.8221 53.97 84.6061 53.694L82.0861 50.526L79.5841 53.694C79.4761 53.826 79.3621 53.928 79.2421 54C79.1221 54.072 78.9661 54.108 78.7741 54.108ZM3.89426 82.042C3.22226 80.806 2.73026 79.54 2.41826 78.244C2.10626 76.936 1.95026 75.61 1.95026 74.266C1.95026 72.922 2.10626 71.602 2.41826 70.306C2.73026 69.01 3.22226 67.738 3.89426 66.49C4.01426 66.286 4.17626 66.184 4.38026 66.184C4.59626 66.172 4.77026 66.25 4.90226 66.418C5.04626 66.574 5.05826 66.802 4.93826 67.102C4.45826 68.302 4.09826 69.49 3.85826 70.666C3.61826 71.842 3.49826 73.042 3.49826 74.266C3.49826 75.49 3.61826 76.69 3.85826 77.866C4.11026 79.042 4.47026 80.23 4.93826 81.43C5.05826 81.73 5.04626 81.958 4.90226 82.114C4.77026 82.282 4.59626 82.36 4.38026 82.348C4.17626 82.336 4.01426 82.234 3.89426 82.042ZM12.3971 79.162C10.7291 79.162 9.46315 78.724 8.59915 77.848C7.73515 76.96 7.30315 75.67 7.30315 73.978V66.94C7.30315 66.436 7.54915 66.184 8.04115 66.184C8.53315 66.184 8.77915 66.436 8.77915 66.94V73.906C8.77915 76.534 9.98515 77.848 12.3971 77.848C14.7851 77.848 15.9791 76.534 15.9791 73.906V66.94C15.9791 66.436 16.2311 66.184 16.7351 66.184C17.2151 66.184 17.4551 66.436 17.4551 66.94V73.978C17.4551 75.67 17.0231 76.96 16.1591 77.848C15.3071 78.724 14.0531 79.162 12.3971 79.162ZM21.0109 79.126C20.5309 79.126 20.2909 78.874 20.2909 78.37V70.864C20.2909 70.372 20.5249 70.126 20.9929 70.126C21.4729 70.126 21.7129 70.372 21.7129 70.864V71.746C22.0009 71.194 22.4089 70.78 22.9369 70.504C23.4649 70.228 24.0589 70.09 24.7189 70.09C26.7949 70.09 27.8329 71.242 27.8329 73.546V78.37C27.8329 78.874 27.5929 79.126 27.1129 79.126C26.6209 79.126 26.3749 78.874 26.3749 78.37V73.636C26.3749 72.82 26.2129 72.226 25.8889 71.854C25.5769 71.47 25.0729 71.278 24.3769 71.278C23.5729 71.278 22.9309 71.53 22.4509 72.034C21.9829 72.526 21.7489 73.186 21.7489 74.014V78.37C21.7489 78.874 21.5029 79.126 21.0109 79.126ZM34.2293 79.162C33.3533 79.162 32.5973 78.976 31.9613 78.604C31.3253 78.22 30.8333 77.686 30.4853 77.002C30.1493 76.306 29.9813 75.496 29.9813 74.572C29.9813 73.18 30.3593 72.088 31.1153 71.296C31.8713 70.492 32.9093 70.09 34.2293 70.09C34.6613 70.09 35.1113 70.162 35.5793 70.306C36.0473 70.438 36.4733 70.66 36.8573 70.972C37.0613 71.116 37.1453 71.296 37.1093 71.512C37.0853 71.728 36.9833 71.89 36.8033 71.998C36.6353 72.106 36.4373 72.082 36.2093 71.926C35.8853 71.686 35.5613 71.518 35.2373 71.422C34.9253 71.326 34.6193 71.278 34.3193 71.278C33.4073 71.278 32.7053 71.566 32.2133 72.142C31.7213 72.706 31.4753 73.522 31.4753 74.59C31.4753 75.634 31.7213 76.462 32.2133 77.074C32.7053 77.674 33.4073 77.974 34.3193 77.974C34.6193 77.974 34.9253 77.926 35.2373 77.83C35.5613 77.734 35.8853 77.566 36.2093 77.326C36.4373 77.17 36.6353 77.152 36.8033 77.272C36.9713 77.38 37.0613 77.542 37.0733 77.758C37.0973 77.974 37.0133 78.148 36.8213 78.28C36.4373 78.592 36.0173 78.82 35.5613 78.964C35.1053 79.096 34.6613 79.162 34.2293 79.162ZM41.5174 79.162C40.6534 79.162 39.9934 78.904 39.5374 78.388C39.0814 77.86 38.8534 77.098 38.8534 76.102V66.922C38.8534 66.43 39.0934 66.184 39.5734 66.184C40.0654 66.184 40.3114 66.43 40.3114 66.922V75.994C40.3114 77.278 40.8214 77.92 41.8414 77.92C41.9494 77.92 42.0454 77.914 42.1294 77.902C42.2134 77.89 42.2974 77.884 42.3814 77.884C42.5134 77.872 42.6034 77.902 42.6514 77.974C42.7114 78.046 42.7414 78.19 42.7414 78.406C42.7414 78.814 42.5374 79.048 42.1294 79.108C42.0334 79.132 41.9314 79.144 41.8234 79.144C41.7154 79.156 41.6134 79.162 41.5174 79.162ZM44.8995 68.146C44.2635 68.146 43.9455 67.846 43.9455 67.246C43.9455 66.658 44.2635 66.364 44.8995 66.364C45.5355 66.364 45.8535 66.658 45.8535 67.246C45.8535 67.846 45.5355 68.146 44.8995 68.146ZM44.8995 79.09C44.4195 79.09 44.1795 78.826 44.1795 78.298V70.936C44.1795 70.42 44.4195 70.162 44.8995 70.162C45.3915 70.162 45.6375 70.42 45.6375 70.936V78.298C45.6375 78.826 45.3915 79.09 44.8995 79.09ZM52.0711 79.162C51.1951 79.162 50.4391 78.976 49.8031 78.604C49.1671 78.22 48.6751 77.686 48.3271 77.002C47.9911 76.306 47.8231 75.496 47.8231 74.572C47.8231 73.18 48.2011 72.088 48.9571 71.296C49.7131 70.492 50.7511 70.09 52.0711 70.09C52.5031 70.09 52.9531 70.162 53.4211 70.306C53.8891 70.438 54.3151 70.66 54.6991 70.972C54.9031 71.116 54.9871 71.296 54.9511 71.512C54.9271 71.728 54.8251 71.89 54.6451 71.998C54.4771 72.106 54.2791 72.082 54.0511 71.926C53.7271 71.686 53.4031 71.518 53.0791 71.422C52.7671 71.326 52.4611 71.278 52.1611 71.278C51.2491 71.278 50.5471 71.566 50.0551 72.142C49.5631 72.706 49.3171 73.522 49.3171 74.59C49.3171 75.634 49.5631 76.462 50.0551 77.074C50.5471 77.674 51.2491 77.974 52.1611 77.974C52.4611 77.974 52.7671 77.926 53.0791 77.83C53.4031 77.734 53.7271 77.566 54.0511 77.326C54.2791 77.17 54.4771 77.152 54.6451 77.272C54.8131 77.38 54.9031 77.542 54.9151 77.758C54.9391 77.974 54.8551 78.148 54.6631 78.28C54.2791 78.592 53.8591 78.82 53.4031 78.964C52.9471 79.096 52.5031 79.162 52.0711 79.162ZM57.4151 79.126C56.9351 79.126 56.6951 78.874 56.6951 78.37V66.922C56.6951 66.43 56.9351 66.184 57.4151 66.184C57.9071 66.184 58.1531 66.43 58.1531 66.922V74.14H58.1891L61.8791 70.612C62.0351 70.456 62.1791 70.336 62.3111 70.252C62.4431 70.168 62.6171 70.126 62.8331 70.126C63.1211 70.126 63.3071 70.24 63.3911 70.468C63.4871 70.684 63.4271 70.906 63.2111 71.134L59.7011 74.464L63.5531 78.082C63.8051 78.322 63.8711 78.556 63.7511 78.784C63.6431 79.012 63.4571 79.126 63.1931 79.126C62.9771 79.126 62.7971 79.084 62.6531 79C62.5211 78.904 62.3651 78.766 62.1851 78.586L58.1891 74.896H58.1531V78.37C58.1531 78.874 57.9071 79.126 57.4151 79.126ZM69.4086 79.162C68.0286 79.162 66.9366 78.76 66.1326 77.956C65.3286 77.14 64.9266 76.036 64.9266 74.644C64.9266 73.744 65.1066 72.952 65.4666 72.268C65.8266 71.572 66.3186 71.038 66.9426 70.666C67.5786 70.282 68.3106 70.09 69.1386 70.09C70.3266 70.09 71.2566 70.474 71.9286 71.242C72.6006 71.998 72.9366 73.042 72.9366 74.374C72.9366 74.746 72.7266 74.932 72.3066 74.932H66.3486C66.3966 75.928 66.6846 76.69 67.2126 77.218C67.7406 77.734 68.4726 77.992 69.4086 77.992C69.8046 77.992 70.2066 77.944 70.6146 77.848C71.0226 77.74 71.4186 77.554 71.8026 77.29C72.0786 77.11 72.3066 77.074 72.4866 77.182C72.6786 77.29 72.7746 77.458 72.7746 77.686C72.7866 77.902 72.6666 78.094 72.4146 78.262C72.0186 78.55 71.5446 78.772 70.9926 78.928C70.4526 79.084 69.9246 79.162 69.4086 79.162ZM69.1746 71.17C68.3466 71.17 67.6926 71.428 67.2126 71.944C66.7326 72.46 66.4506 73.138 66.3666 73.978H71.6766C71.6406 73.09 71.4066 72.4 70.9746 71.908C70.5546 71.416 69.9546 71.17 69.1746 71.17ZM78.3767 79.162C77.5967 79.162 76.9127 78.976 76.3247 78.604C75.7487 78.232 75.2987 77.71 74.9747 77.038C74.6627 76.354 74.5067 75.55 74.5067 74.626C74.5067 73.69 74.6627 72.886 74.9747 72.214C75.2987 71.53 75.7487 71.008 76.3247 70.648C76.9127 70.276 77.5967 70.09 78.3767 70.09C79.0607 70.09 79.6607 70.24 80.1767 70.54C80.7047 70.84 81.0947 71.254 81.3467 71.782V66.922C81.3467 66.43 81.5927 66.184 82.0847 66.184C82.5647 66.184 82.8047 66.43 82.8047 66.922V78.37C82.8047 78.874 82.5647 79.126 82.0847 79.126C81.6047 79.126 81.3647 78.874 81.3647 78.37V77.434C81.1007 77.974 80.7047 78.4 80.1767 78.712C79.6607 79.012 79.0607 79.162 78.3767 79.162ZM78.6827 77.992C79.4987 77.992 80.1527 77.704 80.6447 77.128C81.1367 76.54 81.3827 75.706 81.3827 74.626C81.3827 73.534 81.1367 72.7 80.6447 72.124C80.1527 71.548 79.4987 71.26 78.6827 71.26C77.8547 71.26 77.1947 71.548 76.7027 72.124C76.2227 72.7 75.9827 73.534 75.9827 74.626C75.9827 75.706 76.2227 76.54 76.7027 77.128C77.1947 77.704 77.8547 77.992 78.6827 77.992ZM86.1169 82.042C85.9969 82.234 85.8289 82.336 85.6129 82.348C85.3969 82.36 85.2169 82.282 85.0729 82.114C84.9409 81.958 84.9349 81.73 85.0549 81.43C86.0149 79.066 86.4949 76.678 86.4949 74.266C86.4949 73.042 86.3689 71.848 86.1169 70.684C85.8649 69.508 85.5109 68.314 85.0549 67.102C84.9469 66.802 84.9589 66.574 85.0909 66.418C85.2349 66.25 85.4089 66.172 85.6129 66.184C85.8289 66.184 85.9969 66.286 86.1169 66.49C86.7769 67.726 87.2629 68.998 87.5749 70.306C87.8869 71.602 88.0429 72.922 88.0429 74.266C88.0429 75.61 87.8869 76.936 87.5749 78.244C87.2629 79.552 86.7769 80.818 86.1169 82.042Z" fill="black"/>
</svg>
