<svg width="198" height="84" viewBox="0 0 198 84" fill="none" xmlns="http://www.w3.org/2000/svg">
<g filter="url(#filter0_d_183_1208)">
<rect x="4" width="190" height="50" rx="8" fill="#6491E9"/>
<path d="M53.2133 32.2C51.7466 32.2 50.4866 31.9067 49.4333 31.32C48.3933 30.72 47.5933 29.88 47.0333 28.8C46.4733 27.7067 46.1933 26.42 46.1933 24.94C46.1933 23.46 46.4733 22.18 47.0333 21.1C47.5933 20.02 48.3933 19.1867 49.4333 18.6C50.4866 18 51.7466 17.7 53.2133 17.7C54.1599 17.7 55.0533 17.8467 55.8933 18.14C56.7466 18.4333 57.4466 18.8533 57.9933 19.4L57.1533 21.44C56.5533 20.9333 55.9399 20.5667 55.3133 20.34C54.6866 20.1 54.0133 19.98 53.2933 19.98C51.8666 19.98 50.7799 20.4133 50.0333 21.28C49.2866 22.1333 48.9133 23.3533 48.9133 24.94C48.9133 26.5267 49.2866 27.7533 50.0333 28.62C50.7799 29.4867 51.8666 29.92 53.2933 29.92C54.0133 29.92 54.6866 29.8067 55.3133 29.58C55.9399 29.34 56.5533 28.9667 57.1533 28.46L57.9933 30.5C57.4466 31.0333 56.7466 31.4533 55.8933 31.76C55.0533 32.0533 54.1599 32.2 53.2133 32.2ZM63.4322 32V20.04H58.5922V17.9H70.8322V20.04H65.9922V32H63.4322ZM69.3716 32L75.7516 17.9H77.8516L84.2316 32H81.6316L80.2316 28.74H73.3516L71.9716 32H69.3716ZM76.7716 20.68L74.2316 26.7H79.3516L76.8116 20.68H76.7716ZM91.165 32V17.9H97.325C98.805 17.9 99.9517 18.2267 100.765 18.88C101.578 19.52 101.985 20.4133 101.985 21.56C101.985 22.32 101.792 22.9733 101.405 23.52C101.018 24.0667 100.485 24.4667 99.805 24.72C100.605 24.9467 101.225 25.3467 101.665 25.92C102.118 26.48 102.345 27.1933 102.345 28.06C102.345 29.3133 101.918 30.2867 101.065 30.98C100.225 31.66 99.0517 32 97.545 32H91.165ZM93.625 23.88H96.885C98.6317 23.88 99.505 23.2067 99.505 21.86C99.505 20.5133 98.6317 19.84 96.885 19.84H93.625V23.88ZM93.625 30.06H97.225C98.985 30.06 99.865 29.3533 99.865 27.94C99.865 26.5267 98.985 25.82 97.225 25.82H93.625V30.06ZM108.235 32.2C105.835 32.2 104.635 30.8533 104.635 28.16V22.22H107.135V28.2C107.135 28.8933 107.275 29.4067 107.555 29.74C107.835 30.0733 108.281 30.24 108.895 30.24C109.561 30.24 110.108 30.0133 110.535 29.56C110.961 29.0933 111.175 28.48 111.175 27.72V22.22H113.675V32H111.235V30.54C110.581 31.6467 109.581 32.2 108.235 32.2ZM120.757 32.2C118.17 32.2 116.877 30.92 116.877 28.36V24.1H114.997V22.22H116.877V19.3H119.377V22.22H122.337V24.1H119.377V28.22C119.377 28.86 119.517 29.34 119.797 29.66C120.077 29.98 120.53 30.14 121.157 30.14C121.343 30.14 121.537 30.12 121.737 30.08C121.937 30.0267 122.143 29.9733 122.357 29.92L122.737 31.76C122.497 31.8933 122.19 32 121.817 32.08C121.457 32.16 121.103 32.2 120.757 32.2ZM127.866 32.2C125.279 32.2 123.986 30.92 123.986 28.36V24.1H122.106V22.22H123.986V19.3H126.486V22.22H129.446V24.1H126.486V28.22C126.486 28.86 126.626 29.34 126.906 29.66C127.186 29.98 127.639 30.14 128.266 30.14C128.453 30.14 128.646 30.12 128.846 30.08C129.046 30.0267 129.253 29.9733 129.466 29.92L129.846 31.76C129.606 31.8933 129.299 32 128.926 32.08C128.566 32.16 128.213 32.2 127.866 32.2ZM135.424 32.2C134.411 32.2 133.531 31.9933 132.784 31.58C132.037 31.1667 131.457 30.58 131.044 29.82C130.631 29.0467 130.424 28.14 130.424 27.1C130.424 26.06 130.631 25.16 131.044 24.4C131.457 23.64 132.037 23.0533 132.784 22.64C133.531 22.2267 134.411 22.02 135.424 22.02C136.437 22.02 137.317 22.2267 138.064 22.64C138.811 23.0533 139.391 23.64 139.804 24.4C140.217 25.16 140.424 26.06 140.424 27.1C140.424 28.14 140.217 29.0467 139.804 29.82C139.391 30.58 138.811 31.1667 138.064 31.58C137.317 31.9933 136.437 32.2 135.424 32.2ZM135.424 30.3C136.171 30.3 136.771 30.0333 137.224 29.5C137.677 28.9533 137.904 28.1533 137.904 27.1C137.904 26.0333 137.677 25.24 137.224 24.72C136.771 24.1867 136.171 23.92 135.424 23.92C134.677 23.92 134.077 24.1867 133.624 24.72C133.171 25.24 132.944 26.0333 132.944 27.1C132.944 28.1533 133.171 28.9533 133.624 29.5C134.077 30.0333 134.677 30.3 135.424 30.3ZM142.488 32V22.22H144.928V23.74C145.261 23.18 145.708 22.7533 146.268 22.46C146.841 22.1667 147.481 22.02 148.188 22.02C150.494 22.02 151.648 23.36 151.648 26.04V32H149.148V26.16C149.148 25.4 149.001 24.8467 148.708 24.5C148.428 24.1533 147.988 23.98 147.388 23.98C146.654 23.98 146.068 24.2133 145.628 24.68C145.201 25.1333 144.988 25.74 144.988 26.5V32H142.488Z" fill="#F6F6F6"/>
</g>
<path d="M40.3314 77.162C39.0834 77.162 38.0154 76.898 37.1274 76.37C36.2394 75.842 35.5554 75.092 35.0754 74.12C34.6074 73.148 34.3734 71.99 34.3734 70.646C34.3734 69.314 34.6074 68.162 35.0754 67.19C35.5554 66.218 36.2394 65.468 37.1274 64.94C38.0154 64.412 39.0834 64.148 40.3314 64.148C41.0754 64.148 41.7834 64.256 42.4554 64.472C43.1274 64.688 43.7094 64.994 44.2014 65.39C44.4054 65.534 44.5194 65.702 44.5434 65.894C44.5794 66.086 44.5494 66.26 44.4534 66.416C44.3574 66.56 44.2194 66.656 44.0394 66.704C43.8714 66.74 43.6794 66.68 43.4634 66.524C42.6114 65.84 41.5794 65.498 40.3674 65.498C38.9394 65.498 37.8474 65.948 37.0914 66.848C36.3354 67.748 35.9574 69.014 35.9574 70.646C35.9574 72.29 36.3354 73.562 37.0914 74.462C37.8474 75.362 38.9394 75.812 40.3674 75.812C41.5794 75.812 42.6234 75.464 43.4994 74.768C43.7154 74.624 43.9074 74.57 44.0754 74.606C44.2554 74.642 44.3874 74.732 44.4714 74.876C44.5674 75.02 44.6034 75.182 44.5794 75.362C44.5554 75.542 44.4534 75.704 44.2734 75.848C43.7574 76.28 43.1634 76.61 42.4914 76.838C41.8194 77.054 41.0994 77.162 40.3314 77.162ZM49.4187 77.162C48.5547 77.162 47.8947 76.904 47.4387 76.388C46.9827 75.86 46.7547 75.098 46.7547 74.102V64.922C46.7547 64.43 46.9947 64.184 47.4747 64.184C47.9667 64.184 48.2127 64.43 48.2127 64.922V73.994C48.2127 75.278 48.7227 75.92 49.7427 75.92C49.8507 75.92 49.9467 75.914 50.0307 75.902C50.1147 75.89 50.1987 75.884 50.2827 75.884C50.4147 75.872 50.5047 75.902 50.5527 75.974C50.6127 76.046 50.6427 76.19 50.6427 76.406C50.6427 76.814 50.4387 77.048 50.0307 77.108C49.9347 77.132 49.8327 77.144 49.7247 77.144C49.6167 77.156 49.5147 77.162 49.4187 77.162ZM52.8009 66.146C52.1649 66.146 51.8469 65.846 51.8469 65.246C51.8469 64.658 52.1649 64.364 52.8009 64.364C53.4369 64.364 53.7549 64.658 53.7549 65.246C53.7549 65.846 53.4369 66.146 52.8009 66.146ZM52.8009 77.09C52.3209 77.09 52.0809 76.826 52.0809 76.298V68.936C52.0809 68.42 52.3209 68.162 52.8009 68.162C53.2929 68.162 53.5389 68.42 53.5389 68.936V76.298C53.5389 76.826 53.2929 77.09 52.8009 77.09ZM59.9725 77.162C59.0965 77.162 58.3405 76.976 57.7045 76.604C57.0685 76.22 56.5765 75.686 56.2285 75.002C55.8925 74.306 55.7245 73.496 55.7245 72.572C55.7245 71.18 56.1025 70.088 56.8585 69.296C57.6145 68.492 58.6525 68.09 59.9725 68.09C60.4045 68.09 60.8545 68.162 61.3225 68.306C61.7905 68.438 62.2165 68.66 62.6005 68.972C62.8045 69.116 62.8885 69.296 62.8525 69.512C62.8285 69.728 62.7265 69.89 62.5465 69.998C62.3785 70.106 62.1805 70.082 61.9525 69.926C61.6285 69.686 61.3045 69.518 60.9805 69.422C60.6685 69.326 60.3625 69.278 60.0625 69.278C59.1505 69.278 58.4485 69.566 57.9565 70.142C57.4645 70.706 57.2185 71.522 57.2185 72.59C57.2185 73.634 57.4645 74.462 57.9565 75.074C58.4485 75.674 59.1505 75.974 60.0625 75.974C60.3625 75.974 60.6685 75.926 60.9805 75.83C61.3045 75.734 61.6285 75.566 61.9525 75.326C62.1805 75.17 62.3785 75.152 62.5465 75.272C62.7145 75.38 62.8045 75.542 62.8165 75.758C62.8405 75.974 62.7565 76.148 62.5645 76.28C62.1805 76.592 61.7605 76.82 61.3045 76.964C60.8485 77.096 60.4045 77.162 59.9725 77.162ZM65.3165 77.126C64.8365 77.126 64.5965 76.874 64.5965 76.37V64.922C64.5965 64.43 64.8365 64.184 65.3165 64.184C65.8085 64.184 66.0545 64.43 66.0545 64.922V72.14H66.0905L69.7805 68.612C69.9365 68.456 70.0805 68.336 70.2125 68.252C70.3445 68.168 70.5185 68.126 70.7345 68.126C71.0225 68.126 71.2085 68.24 71.2925 68.468C71.3885 68.684 71.3285 68.906 71.1125 69.134L67.6025 72.464L71.4545 76.082C71.7065 76.322 71.7725 76.556 71.6525 76.784C71.5445 77.012 71.3585 77.126 71.0945 77.126C70.8785 77.126 70.6985 77.084 70.5545 77C70.4225 76.904 70.2665 76.766 70.0865 76.586L66.0905 72.896H66.0545V76.37C66.0545 76.874 65.8085 77.126 65.3165 77.126ZM76.2626 77.162C75.6626 77.162 75.1226 77.048 74.6426 76.82C74.1746 76.58 73.8026 76.256 73.5266 75.848C73.2506 75.44 73.1126 74.984 73.1126 74.48C73.1126 73.844 73.2746 73.34 73.5986 72.968C73.9346 72.596 74.4806 72.332 75.2366 72.176C76.0046 72.008 77.0486 71.924 78.3686 71.924H78.9446V71.366C78.9446 70.622 78.7886 70.088 78.4766 69.764C78.1766 69.428 77.6906 69.26 77.0186 69.26C76.5986 69.26 76.1726 69.314 75.7406 69.422C75.3206 69.53 74.8826 69.704 74.4266 69.944C74.2226 70.052 74.0486 70.076 73.9046 70.016C73.7726 69.944 73.6766 69.836 73.6166 69.692C73.5686 69.536 73.5686 69.38 73.6166 69.224C73.6766 69.056 73.7966 68.93 73.9766 68.846C74.4926 68.582 75.0086 68.39 75.5246 68.27C76.0526 68.15 76.5506 68.09 77.0186 68.09C78.1466 68.09 78.9806 68.366 79.5206 68.918C80.0726 69.47 80.3486 70.328 80.3486 71.492V76.37C80.3486 76.874 80.1266 77.126 79.6826 77.126C79.2146 77.126 78.9806 76.874 78.9806 76.37V75.488C78.7526 76.004 78.3986 76.412 77.9186 76.712C77.4506 77.012 76.8986 77.162 76.2626 77.162ZM76.4966 76.064C77.2166 76.064 77.8046 75.818 78.2606 75.326C78.7166 74.822 78.9446 74.186 78.9446 73.418V72.878H78.3866C77.4146 72.878 76.6466 72.926 76.0826 73.022C75.5306 73.106 75.1406 73.262 74.9126 73.49C74.6966 73.706 74.5886 74.006 74.5886 74.39C74.5886 74.882 74.7566 75.284 75.0926 75.596C75.4406 75.908 75.9086 76.064 76.4966 76.064ZM87.4815 77.162C86.7975 77.162 86.1915 77.012 85.6635 76.712C85.1355 76.4 84.7455 75.974 84.4935 75.434V76.37C84.4935 76.874 84.2535 77.126 83.7735 77.126C83.2935 77.126 83.0535 76.874 83.0535 76.37V64.922C83.0535 64.43 83.2935 64.184 83.7735 64.184C84.2655 64.184 84.5115 64.43 84.5115 64.922V69.764C84.7635 69.248 85.1535 68.84 85.6815 68.54C86.2095 68.24 86.8095 68.09 87.4815 68.09C88.2615 68.09 88.9395 68.276 89.5155 68.648C90.1035 69.008 90.5535 69.53 90.8655 70.214C91.1895 70.886 91.3515 71.69 91.3515 72.626C91.3515 73.55 91.1895 74.354 90.8655 75.038C90.5535 75.71 90.1035 76.232 89.5155 76.604C88.9395 76.976 88.2615 77.162 87.4815 77.162ZM87.1755 75.992C87.9915 75.992 88.6455 75.704 89.1375 75.128C89.6295 74.54 89.8755 73.706 89.8755 72.626C89.8755 71.534 89.6295 70.7 89.1375 70.124C88.6455 69.548 87.9915 69.26 87.1755 69.26C86.3595 69.26 85.7055 69.548 85.2135 70.124C84.7215 70.7 84.4755 71.534 84.4755 72.626C84.4755 73.706 84.7215 74.54 85.2135 75.128C85.7055 75.704 86.3595 75.992 87.1755 75.992ZM96.2117 77.162C95.3477 77.162 94.6877 76.904 94.2317 76.388C93.7757 75.86 93.5477 75.098 93.5477 74.102V64.922C93.5477 64.43 93.7877 64.184 94.2677 64.184C94.7597 64.184 95.0057 64.43 95.0057 64.922V73.994C95.0057 75.278 95.5157 75.92 96.5357 75.92C96.6437 75.92 96.7397 75.914 96.8237 75.902C96.9077 75.89 96.9917 75.884 97.0757 75.884C97.2077 75.872 97.2977 75.902 97.3457 75.974C97.4057 76.046 97.4357 76.19 97.4357 76.406C97.4357 76.814 97.2317 77.048 96.8237 77.108C96.7277 77.132 96.6257 77.144 96.5177 77.144C96.4097 77.156 96.3077 77.162 96.2117 77.162ZM102.728 77.162C101.348 77.162 100.256 76.76 99.452 75.956C98.648 75.14 98.246 74.036 98.246 72.644C98.246 71.744 98.426 70.952 98.786 70.268C99.146 69.572 99.638 69.038 100.262 68.666C100.898 68.282 101.63 68.09 102.458 68.09C103.646 68.09 104.576 68.474 105.248 69.242C105.92 69.998 106.256 71.042 106.256 72.374C106.256 72.746 106.046 72.932 105.626 72.932H99.668C99.716 73.928 100.004 74.69 100.532 75.218C101.06 75.734 101.792 75.992 102.728 75.992C103.124 75.992 103.526 75.944 103.934 75.848C104.342 75.74 104.738 75.554 105.122 75.29C105.398 75.11 105.626 75.074 105.806 75.182C105.998 75.29 106.094 75.458 106.094 75.686C106.106 75.902 105.986 76.094 105.734 76.262C105.338 76.55 104.864 76.772 104.312 76.928C103.772 77.084 103.244 77.162 102.728 77.162ZM102.494 69.17C101.666 69.17 101.012 69.428 100.532 69.944C100.052 70.46 99.77 71.138 99.686 71.978H104.996C104.96 71.09 104.726 70.4 104.294 69.908C103.874 69.416 103.274 69.17 102.494 69.17ZM117.435 77.162C116.751 77.162 116.145 77.012 115.617 76.712C115.089 76.4 114.699 75.974 114.447 75.434V76.37C114.447 76.874 114.207 77.126 113.727 77.126C113.247 77.126 113.007 76.874 113.007 76.37V64.922C113.007 64.43 113.247 64.184 113.727 64.184C114.219 64.184 114.465 64.43 114.465 64.922V69.764C114.717 69.248 115.107 68.84 115.635 68.54C116.163 68.24 116.763 68.09 117.435 68.09C118.215 68.09 118.893 68.276 119.469 68.648C120.057 69.008 120.507 69.53 120.819 70.214C121.143 70.886 121.305 71.69 121.305 72.626C121.305 73.55 121.143 74.354 120.819 75.038C120.507 75.71 120.057 76.232 119.469 76.604C118.893 76.976 118.215 77.162 117.435 77.162ZM117.129 75.992C117.945 75.992 118.599 75.704 119.091 75.128C119.583 74.54 119.829 73.706 119.829 72.626C119.829 71.534 119.583 70.7 119.091 70.124C118.599 69.548 117.945 69.26 117.129 69.26C116.313 69.26 115.659 69.548 115.167 70.124C114.675 70.7 114.429 71.534 114.429 72.626C114.429 73.706 114.675 74.54 115.167 75.128C115.659 75.704 116.313 75.992 117.129 75.992ZM126.597 77.162C124.497 77.162 123.447 76.004 123.447 73.688V68.864C123.447 68.372 123.687 68.126 124.167 68.126C124.659 68.126 124.905 68.372 124.905 68.864V73.67C124.905 74.45 125.061 75.026 125.373 75.398C125.697 75.77 126.201 75.956 126.885 75.956C127.629 75.956 128.235 75.71 128.703 75.218C129.171 74.714 129.405 74.048 129.405 73.22V68.864C129.405 68.372 129.651 68.126 130.143 68.126C130.623 68.126 130.863 68.372 130.863 68.864V76.37C130.863 76.874 130.629 77.126 130.161 77.126C129.681 77.126 129.441 76.874 129.441 76.37V75.524C129.165 76.052 128.775 76.46 128.271 76.748C127.779 77.024 127.221 77.162 126.597 77.162ZM137.101 77.162C136.069 77.162 135.295 76.892 134.779 76.352C134.263 75.8 134.005 75.008 134.005 73.976V69.386H132.799C132.379 69.386 132.169 69.194 132.169 68.81C132.169 68.438 132.379 68.252 132.799 68.252H134.005V66.182C134.005 65.69 134.251 65.444 134.743 65.444C135.223 65.444 135.463 65.69 135.463 66.182V68.252H137.731C138.151 68.252 138.361 68.438 138.361 68.81C138.361 69.194 138.151 69.386 137.731 69.386H135.463V73.832C135.463 74.516 135.607 75.038 135.895 75.398C136.183 75.746 136.651 75.92 137.299 75.92C137.527 75.92 137.719 75.896 137.875 75.848C138.031 75.8 138.169 75.776 138.289 75.776C138.397 75.764 138.487 75.8 138.559 75.884C138.631 75.968 138.667 76.112 138.667 76.316C138.667 76.46 138.637 76.592 138.577 76.712C138.529 76.832 138.439 76.916 138.307 76.964C138.163 77.012 137.971 77.054 137.731 77.09C137.503 77.138 137.293 77.162 137.101 77.162ZM143.165 77.162C142.133 77.162 141.359 76.892 140.843 76.352C140.327 75.8 140.069 75.008 140.069 73.976V69.386H138.863C138.443 69.386 138.233 69.194 138.233 68.81C138.233 68.438 138.443 68.252 138.863 68.252H140.069V66.182C140.069 65.69 140.315 65.444 140.807 65.444C141.287 65.444 141.527 65.69 141.527 66.182V68.252H143.795C144.215 68.252 144.425 68.438 144.425 68.81C144.425 69.194 144.215 69.386 143.795 69.386H141.527V73.832C141.527 74.516 141.671 75.038 141.959 75.398C142.247 75.746 142.715 75.92 143.363 75.92C143.591 75.92 143.783 75.896 143.939 75.848C144.095 75.8 144.233 75.776 144.353 75.776C144.461 75.764 144.551 75.8 144.623 75.884C144.695 75.968 144.731 76.112 144.731 76.316C144.731 76.46 144.701 76.592 144.641 76.712C144.593 76.832 144.503 76.916 144.371 76.964C144.227 77.012 144.035 77.054 143.795 77.09C143.567 77.138 143.357 77.162 143.165 77.162ZM149.496 77.162C148.644 77.162 147.906 76.976 147.282 76.604C146.658 76.232 146.172 75.71 145.824 75.038C145.488 74.354 145.32 73.55 145.32 72.626C145.32 71.702 145.488 70.904 145.824 70.232C146.172 69.548 146.658 69.02 147.282 68.648C147.906 68.276 148.644 68.09 149.496 68.09C150.336 68.09 151.068 68.276 151.692 68.648C152.328 69.02 152.814 69.548 153.15 70.232C153.498 70.904 153.672 71.702 153.672 72.626C153.672 73.55 153.498 74.354 153.15 75.038C152.814 75.71 152.328 76.232 151.692 76.604C151.068 76.976 150.336 77.162 149.496 77.162ZM149.496 75.992C150.312 75.992 150.966 75.704 151.458 75.128C151.95 74.54 152.196 73.706 152.196 72.626C152.196 71.534 151.95 70.7 151.458 70.124C150.966 69.548 150.312 69.26 149.496 69.26C148.668 69.26 148.008 69.548 147.516 70.124C147.036 70.7 146.796 71.534 146.796 72.626C146.796 73.706 147.036 74.54 147.516 75.128C148.008 75.704 148.668 75.992 149.496 75.992ZM156.582 77.126C156.102 77.126 155.862 76.874 155.862 76.37V68.864C155.862 68.372 156.096 68.126 156.564 68.126C157.044 68.126 157.284 68.372 157.284 68.864V69.746C157.572 69.194 157.98 68.78 158.508 68.504C159.036 68.228 159.63 68.09 160.29 68.09C162.366 68.09 163.404 69.242 163.404 71.546V76.37C163.404 76.874 163.164 77.126 162.684 77.126C162.192 77.126 161.946 76.874 161.946 76.37V71.636C161.946 70.82 161.784 70.226 161.46 69.854C161.148 69.47 160.644 69.278 159.948 69.278C159.144 69.278 158.502 69.53 158.022 70.034C157.554 70.526 157.32 71.186 157.32 72.014V76.37C157.32 76.874 157.074 77.126 156.582 77.126Z" fill="black"/>
<defs>
<filter id="filter0_d_183_1208" x="0" y="0" width="198" height="58" filterUnits="userSpaceOnUse" color-interpolation-filters="sRGB">
<feFlood flood-opacity="0" result="BackgroundImageFix"/>
<feColorMatrix in="SourceAlpha" type="matrix" values="0 0 0 0 0 0 0 0 0 0 0 0 0 0 0 0 0 0 127 0" result="hardAlpha"/>
<feOffset dy="4"/>
<feGaussianBlur stdDeviation="2"/>
<feComposite in2="hardAlpha" operator="out"/>
<feColorMatrix type="matrix" values="0 0 0 0 0 0 0 0 0 0 0 0 0 0 0 0 0 0 0.25 0"/>
<feBlend mode="normal" in2="BackgroundImageFix" result="effect1_dropShadow_183_1208"/>
<feBlend mode="normal" in="SourceGraphic" in2="effect1_dropShadow_183_1208" result="shape"/>
</filter>
</defs>
</svg>
