<svg width="318" height="228" viewBox="0 0 318 228" fill="none" xmlns="http://www.w3.org/2000/svg">
<path d="M97.9341 223.216C97.1061 223.216 96.3381 223.06 95.6301 222.748C94.9221 222.424 94.3101 221.998 93.7941 221.47L94.6941 220.426C95.1141 220.87 95.6061 221.23 96.1701 221.506C96.7461 221.77 97.3401 221.902 97.9521 221.902C98.7321 221.902 99.3381 221.728 99.7701 221.38C100.202 221.02 100.418 220.552 100.418 219.976C100.418 219.568 100.328 219.244 100.148 219.004C99.9801 218.764 99.7461 218.56 99.4461 218.392C99.1581 218.224 98.8281 218.056 98.4561 217.888L96.7641 217.15C96.3921 216.994 96.0201 216.79 95.6481 216.538C95.2881 216.286 94.9821 215.962 94.7301 215.566C94.4901 215.17 94.3701 214.684 94.3701 214.108C94.3701 213.508 94.5261 212.974 94.8381 212.506C95.1621 212.026 95.6061 211.654 96.1701 211.39C96.7341 211.114 97.3701 210.976 98.0781 210.976C98.7861 210.976 99.4401 211.114 100.04 211.39C100.64 211.654 101.15 212.002 101.57 212.434L100.76 213.406C100.4 213.058 99.9981 212.788 99.5541 212.596C99.1221 212.392 98.6301 212.29 98.0781 212.29C97.4181 212.29 96.8841 212.446 96.4761 212.758C96.0801 213.07 95.8821 213.49 95.8821 214.018C95.8821 214.39 95.9781 214.702 96.1701 214.954C96.3741 215.194 96.6261 215.392 96.9261 215.548C97.2261 215.704 97.5321 215.848 97.8441 215.98L99.5181 216.7C99.9741 216.892 100.382 217.126 100.742 217.402C101.114 217.666 101.408 217.996 101.624 218.392C101.84 218.776 101.948 219.262 101.948 219.85C101.948 220.474 101.786 221.044 101.462 221.56C101.138 222.064 100.676 222.466 100.076 222.766C99.4761 223.066 98.7621 223.216 97.9341 223.216ZM107.675 223.216C106.895 223.216 106.187 223.036 105.551 222.676C104.915 222.304 104.411 221.776 104.039 221.092C103.667 220.408 103.481 219.592 103.481 218.644C103.481 217.684 103.667 216.862 104.039 216.178C104.423 215.494 104.915 214.966 105.515 214.594C106.115 214.222 106.745 214.036 107.405 214.036C108.521 214.036 109.379 214.408 109.979 215.152C110.591 215.896 110.897 216.892 110.897 218.14C110.897 218.296 110.891 218.452 110.879 218.608C110.879 218.752 110.867 218.878 110.843 218.986H104.939C104.999 219.91 105.287 220.648 105.803 221.2C106.331 221.752 107.015 222.028 107.855 222.028C108.275 222.028 108.659 221.968 109.007 221.848C109.367 221.716 109.709 221.548 110.033 221.344L110.555 222.316C110.183 222.556 109.757 222.766 109.277 222.946C108.809 223.126 108.275 223.216 107.675 223.216ZM104.921 217.924H109.601C109.601 217.036 109.409 216.364 109.025 215.908C108.653 215.44 108.125 215.206 107.441 215.206C106.829 215.206 106.277 215.446 105.785 215.926C105.305 216.394 105.017 217.06 104.921 217.924ZM116.515 223.216C115.747 223.216 115.051 223.036 114.427 222.676C113.803 222.316 113.311 221.794 112.951 221.11C112.591 220.426 112.411 219.604 112.411 218.644C112.411 217.66 112.603 216.826 112.987 216.142C113.383 215.458 113.899 214.936 114.535 214.576C115.183 214.216 115.879 214.036 116.623 214.036C117.199 214.036 117.691 214.138 118.099 214.342C118.519 214.546 118.879 214.786 119.179 215.062L118.423 216.034C118.171 215.806 117.901 215.62 117.613 215.476C117.337 215.332 117.025 215.26 116.677 215.26C116.149 215.26 115.675 215.404 115.255 215.692C114.847 215.968 114.523 216.364 114.283 216.88C114.055 217.384 113.941 217.972 113.941 218.644C113.941 219.64 114.187 220.45 114.679 221.074C115.183 221.686 115.837 221.992 116.641 221.992C117.049 221.992 117.427 221.908 117.775 221.74C118.123 221.56 118.429 221.35 118.693 221.11L119.341 222.1C118.945 222.448 118.507 222.724 118.027 222.928C117.547 223.12 117.043 223.216 116.515 223.216ZM123.846 223.216C122.91 223.216 122.256 222.946 121.884 222.406C121.524 221.866 121.344 221.164 121.344 220.3V215.458H120.048V214.342L121.416 214.252L121.596 211.804H122.838V214.252H125.196V215.458H122.838V220.318C122.838 220.858 122.934 221.278 123.126 221.578C123.33 221.866 123.684 222.01 124.188 222.01C124.344 222.01 124.512 221.986 124.692 221.938C124.872 221.878 125.034 221.824 125.178 221.776L125.466 222.892C125.226 222.976 124.962 223.048 124.674 223.108C124.398 223.18 124.122 223.216 123.846 223.216ZM127.174 223V214.252H128.65V223H127.174ZM127.93 212.452C127.642 212.452 127.402 212.368 127.21 212.2C127.03 212.02 126.94 211.78 126.94 211.48C126.94 211.192 127.03 210.958 127.21 210.778C127.402 210.598 127.642 210.508 127.93 210.508C128.218 210.508 128.452 210.598 128.632 210.778C128.824 210.958 128.92 211.192 128.92 211.48C128.92 211.78 128.824 212.02 128.632 212.2C128.452 212.368 128.218 212.452 127.93 212.452ZM135.006 223.216C134.298 223.216 133.632 223.036 133.008 222.676C132.396 222.316 131.898 221.794 131.514 221.11C131.142 220.426 130.956 219.604 130.956 218.644C130.956 217.66 131.142 216.826 131.514 216.142C131.898 215.458 132.396 214.936 133.008 214.576C133.632 214.216 134.298 214.036 135.006 214.036C135.726 214.036 136.392 214.216 137.004 214.576C137.616 214.936 138.108 215.458 138.48 216.142C138.864 216.826 139.056 217.66 139.056 218.644C139.056 219.604 138.864 220.426 138.48 221.11C138.108 221.794 137.616 222.316 137.004 222.676C136.392 223.036 135.726 223.216 135.006 223.216ZM135.006 221.992C135.762 221.992 136.368 221.686 136.824 221.074C137.292 220.45 137.526 219.64 137.526 218.644C137.526 217.636 137.292 216.82 136.824 216.196C136.368 215.572 135.762 215.26 135.006 215.26C134.262 215.26 133.656 215.572 133.188 216.196C132.72 216.82 132.486 217.636 132.486 218.644C132.486 219.64 132.72 220.45 133.188 221.074C133.656 221.686 134.262 221.992 135.006 221.992ZM141.36 223V214.252H142.584L142.71 215.512H142.764C143.184 215.092 143.628 214.744 144.096 214.468C144.564 214.18 145.098 214.036 145.698 214.036C146.622 214.036 147.294 214.33 147.714 214.918C148.146 215.494 148.362 216.34 148.362 217.456V223H146.886V217.654C146.886 216.838 146.754 216.244 146.49 215.872C146.226 215.5 145.806 215.314 145.23 215.314C144.786 215.314 144.384 215.428 144.024 215.656C143.676 215.884 143.28 216.22 142.836 216.664V223H141.36ZM158.263 223.216C157.495 223.216 156.799 223.036 156.175 222.676C155.551 222.316 155.059 221.794 154.699 221.11C154.339 220.426 154.159 219.604 154.159 218.644C154.159 217.66 154.351 216.826 154.735 216.142C155.131 215.458 155.647 214.936 156.283 214.576C156.931 214.216 157.627 214.036 158.371 214.036C158.947 214.036 159.439 214.138 159.847 214.342C160.267 214.546 160.627 214.786 160.927 215.062L160.171 216.034C159.919 215.806 159.649 215.62 159.361 215.476C159.085 215.332 158.773 215.26 158.425 215.26C157.897 215.26 157.423 215.404 157.003 215.692C156.595 215.968 156.271 216.364 156.031 216.88C155.803 217.384 155.689 217.972 155.689 218.644C155.689 219.64 155.935 220.45 156.427 221.074C156.931 221.686 157.585 221.992 158.389 221.992C158.797 221.992 159.175 221.908 159.523 221.74C159.871 221.56 160.177 221.35 160.441 221.11L161.089 222.1C160.693 222.448 160.255 222.724 159.775 222.928C159.295 223.12 158.791 223.216 158.263 223.216ZM166.031 223.216C165.323 223.216 164.657 223.036 164.033 222.676C163.421 222.316 162.923 221.794 162.539 221.11C162.167 220.426 161.981 219.604 161.981 218.644C161.981 217.66 162.167 216.826 162.539 216.142C162.923 215.458 163.421 214.936 164.033 214.576C164.657 214.216 165.323 214.036 166.031 214.036C166.751 214.036 167.417 214.216 168.029 214.576C168.641 214.936 169.133 215.458 169.505 216.142C169.889 216.826 170.081 217.66 170.081 218.644C170.081 219.604 169.889 220.426 169.505 221.11C169.133 221.794 168.641 222.316 168.029 222.676C167.417 223.036 166.751 223.216 166.031 223.216ZM166.031 221.992C166.787 221.992 167.393 221.686 167.849 221.074C168.317 220.45 168.551 219.64 168.551 218.644C168.551 217.636 168.317 216.82 167.849 216.196C167.393 215.572 166.787 215.26 166.031 215.26C165.287 215.26 164.681 215.572 164.213 216.196C163.745 216.82 163.511 217.636 163.511 218.644C163.511 219.64 163.745 220.45 164.213 221.074C164.681 221.686 165.287 221.992 166.031 221.992ZM172.385 223V214.252H173.609L173.735 215.512H173.789C174.209 215.092 174.653 214.744 175.121 214.468C175.589 214.18 176.123 214.036 176.723 214.036C177.647 214.036 178.319 214.33 178.739 214.918C179.171 215.494 179.387 216.34 179.387 217.456V223H177.911V217.654C177.911 216.838 177.779 216.244 177.515 215.872C177.251 215.5 176.831 215.314 176.255 215.314C175.811 215.314 175.409 215.428 175.049 215.656C174.701 215.884 174.305 216.22 173.861 216.664V223H172.385ZM184.983 223.216C184.047 223.216 183.393 222.946 183.021 222.406C182.661 221.866 182.481 221.164 182.481 220.3V215.458H181.185V214.342L182.553 214.252L182.733 211.804H183.975V214.252H186.333V215.458H183.975V220.318C183.975 220.858 184.071 221.278 184.263 221.578C184.467 221.866 184.821 222.01 185.325 222.01C185.481 222.01 185.649 221.986 185.829 221.938C186.009 221.878 186.171 221.824 186.315 221.776L186.603 222.892C186.363 222.976 186.099 223.048 185.811 223.108C185.535 223.18 185.259 223.216 184.983 223.216ZM189.94 223.216C189.208 223.216 188.596 223 188.104 222.568C187.624 222.124 187.384 221.512 187.384 220.732C187.384 219.772 187.81 219.04 188.662 218.536C189.526 218.02 190.888 217.66 192.748 217.456C192.748 217.084 192.694 216.73 192.586 216.394C192.49 216.058 192.31 215.788 192.046 215.584C191.794 215.368 191.428 215.26 190.948 215.26C190.444 215.26 189.97 215.356 189.526 215.548C189.082 215.74 188.686 215.956 188.338 216.196L187.762 215.17C188.17 214.906 188.668 214.654 189.256 214.414C189.856 214.162 190.504 214.036 191.2 214.036C192.268 214.036 193.042 214.366 193.522 215.026C194.002 215.674 194.242 216.544 194.242 217.636V223H193.018L192.892 221.956H192.838C192.43 222.292 191.98 222.586 191.488 222.838C191.008 223.09 190.492 223.216 189.94 223.216ZM190.372 222.028C190.792 222.028 191.188 221.926 191.56 221.722C191.932 221.518 192.328 221.23 192.748 220.858V218.428C191.296 218.608 190.276 218.878 189.688 219.238C189.112 219.598 188.824 220.06 188.824 220.624C188.824 221.116 188.974 221.476 189.274 221.704C189.574 221.92 189.94 222.028 190.372 222.028ZM196.995 223V214.252H198.471V223H196.995ZM197.751 212.452C197.463 212.452 197.223 212.368 197.031 212.2C196.851 212.02 196.761 211.78 196.761 211.48C196.761 211.192 196.851 210.958 197.031 210.778C197.223 210.598 197.463 210.508 197.751 210.508C198.039 210.508 198.273 210.598 198.453 210.778C198.645 210.958 198.741 211.192 198.741 211.48C198.741 211.78 198.645 212.02 198.453 212.2C198.273 212.368 198.039 212.452 197.751 212.452ZM201.424 223V214.252H202.648L202.774 215.512H202.828C203.248 215.092 203.692 214.744 204.16 214.468C204.628 214.18 205.162 214.036 205.762 214.036C206.686 214.036 207.358 214.33 207.778 214.918C208.21 215.494 208.426 216.34 208.426 217.456V223H206.95V217.654C206.95 216.838 206.818 216.244 206.554 215.872C206.29 215.5 205.87 215.314 205.294 215.314C204.85 215.314 204.448 215.428 204.088 215.656C203.74 215.884 203.344 216.22 202.9 216.664V223H201.424ZM214.814 223.216C214.034 223.216 213.326 223.036 212.69 222.676C212.054 222.304 211.55 221.776 211.178 221.092C210.806 220.408 210.62 219.592 210.62 218.644C210.62 217.684 210.806 216.862 211.178 216.178C211.562 215.494 212.054 214.966 212.654 214.594C213.254 214.222 213.884 214.036 214.544 214.036C215.66 214.036 216.518 214.408 217.118 215.152C217.73 215.896 218.036 216.892 218.036 218.14C218.036 218.296 218.03 218.452 218.018 218.608C218.018 218.752 218.006 218.878 217.982 218.986H212.078C212.138 219.91 212.426 220.648 212.942 221.2C213.47 221.752 214.154 222.028 214.994 222.028C215.414 222.028 215.798 221.968 216.146 221.848C216.506 221.716 216.848 221.548 217.172 221.344L217.694 222.316C217.322 222.556 216.896 222.766 216.416 222.946C215.948 223.126 215.414 223.216 214.814 223.216ZM212.06 217.924H216.74C216.74 217.036 216.548 216.364 216.164 215.908C215.792 215.44 215.264 215.206 214.58 215.206C213.968 215.206 213.416 215.446 212.924 215.926C212.444 216.394 212.156 217.06 212.06 217.924ZM220.198 223V214.252H221.422L221.548 215.836H221.602C221.902 215.284 222.268 214.846 222.7 214.522C223.132 214.198 223.594 214.036 224.086 214.036C224.434 214.036 224.746 214.096 225.022 214.216L224.734 215.512C224.59 215.464 224.458 215.428 224.338 215.404C224.218 215.38 224.068 215.368 223.888 215.368C223.516 215.368 223.126 215.518 222.718 215.818C222.322 216.118 221.974 216.64 221.674 217.384V223H220.198Z" fill="black"/>
<g filter="url(#filter0_d_183_1205)">
<rect x="4" width="310" height="200" rx="6" fill="white"/>
</g>
<path d="M19.04 32.144C18.1547 32.144 17.3547 32.032 16.64 31.808C15.9253 31.5733 15.3067 31.2373 14.784 30.8L15.248 29.744C15.792 30.16 16.3627 30.4693 16.96 30.672C17.5573 30.8747 18.2507 30.976 19.04 30.976C20 30.976 20.7093 30.8 21.168 30.448C21.6373 30.0853 21.872 29.6107 21.872 29.024C21.872 28.5547 21.7013 28.1813 21.36 27.904C21.0293 27.6267 20.4693 27.408 19.68 27.248L18.016 26.912C17.0133 26.6987 16.2613 26.352 15.76 25.872C15.2693 25.3813 15.024 24.7307 15.024 23.92C15.024 23.248 15.1947 22.6613 15.536 22.16C15.888 21.6587 16.3733 21.2693 16.992 20.992C17.6107 20.7147 18.3253 20.576 19.136 20.576C19.8933 20.576 20.5973 20.6987 21.248 20.944C21.8987 21.1787 22.448 21.52 22.896 21.968L22.432 22.992C21.952 22.5547 21.4453 22.24 20.912 22.048C20.3787 21.8453 19.7813 21.744 19.12 21.744C18.2773 21.744 17.6053 21.9413 17.104 22.336C16.6027 22.72 16.352 23.232 16.352 23.872C16.352 24.384 16.5067 24.7893 16.816 25.088C17.136 25.3867 17.6533 25.6053 18.368 25.744L20.032 26.096C21.1093 26.32 21.904 26.6613 22.416 27.12C22.9387 27.568 23.2 28.1813 23.2 28.96C23.2 29.5893 23.0293 30.144 22.688 30.624C22.3573 31.104 21.8773 31.4773 21.248 31.744C20.6293 32.0107 19.8933 32.144 19.04 32.144ZM28.5638 32.144C27.3371 32.144 26.3664 31.7867 25.6518 31.072C24.9371 30.3467 24.5798 29.3653 24.5798 28.128C24.5798 27.328 24.7398 26.624 25.0598 26.016C25.3798 25.3973 25.8171 24.9227 26.3718 24.592C26.9371 24.2507 27.5878 24.08 28.3238 24.08C29.3798 24.08 30.2064 24.4213 30.8038 25.104C31.4011 25.776 31.6998 26.704 31.6998 27.888V28.384H25.8438C25.8864 29.2693 26.1424 29.9467 26.6118 30.416C27.0811 30.8747 27.7318 31.104 28.5638 31.104C29.0331 31.104 29.4811 31.0347 29.9078 30.896C30.3344 30.7467 30.7398 30.5067 31.1238 30.176L31.5718 31.088C31.2198 31.4187 30.7718 31.68 30.2278 31.872C29.6838 32.0533 29.1291 32.144 28.5638 32.144ZM28.3558 25.04C27.6198 25.04 27.0384 25.2693 26.6118 25.728C26.1851 26.1867 25.9344 26.7893 25.8598 27.536H30.5798C30.5478 26.7467 30.3398 26.1333 29.9558 25.696C29.5824 25.2587 29.0491 25.04 28.3558 25.04ZM35.9594 32.144C35.17 32.144 34.5727 31.9147 34.1674 31.456C33.7727 30.9867 33.5754 30.3093 33.5754 29.424V20.72H34.8714V29.328C34.8714 30.4693 35.3247 31.04 36.2314 31.04C36.498 31.04 36.738 31.008 36.9514 30.944L36.9194 32.032C36.5887 32.1067 36.2687 32.144 35.9594 32.144ZM41.7356 32.144C40.509 32.144 39.5383 31.7867 38.8236 31.072C38.109 30.3467 37.7516 29.3653 37.7516 28.128C37.7516 27.328 37.9116 26.624 38.2316 26.016C38.5516 25.3973 38.989 24.9227 39.5436 24.592C40.109 24.2507 40.7596 24.08 41.4956 24.08C42.5516 24.08 43.3783 24.4213 43.9756 25.104C44.573 25.776 44.8716 26.704 44.8716 27.888V28.384H39.0156C39.0583 29.2693 39.3143 29.9467 39.7836 30.416C40.253 30.8747 40.9036 31.104 41.7356 31.104C42.205 31.104 42.653 31.0347 43.0796 30.896C43.5063 30.7467 43.9116 30.5067 44.2956 30.176L44.7436 31.088C44.3916 31.4187 43.9436 31.68 43.3996 31.872C42.8556 32.0533 42.301 32.144 41.7356 32.144ZM41.5276 25.04C40.7916 25.04 40.2103 25.2693 39.7836 25.728C39.357 26.1867 39.1063 26.7893 39.0316 27.536H43.7516C43.7196 26.7467 43.5116 26.1333 43.1276 25.696C42.7543 25.2587 42.221 25.04 41.5276 25.04ZM50.0433 32.144C49.2646 32.144 48.5926 31.9787 48.0273 31.648C47.4619 31.3067 47.0246 30.832 46.7153 30.224C46.4166 29.6053 46.2673 28.8853 46.2673 28.064C46.2673 26.8267 46.6033 25.856 47.2753 25.152C47.9473 24.4373 48.8699 24.08 50.0433 24.08C50.5233 24.08 50.9979 24.1653 51.4673 24.336C51.9366 24.5067 52.3259 24.7467 52.6353 25.056L52.1873 26C51.8779 25.7013 51.5366 25.4827 51.1633 25.344C50.8006 25.2053 50.4539 25.136 50.1233 25.136C49.3126 25.136 48.6886 25.392 48.2513 25.904C47.8139 26.4053 47.5953 27.1307 47.5953 28.08C47.5953 29.008 47.8139 29.744 48.2513 30.288C48.6886 30.8213 49.3126 31.088 50.1233 31.088C50.4539 31.088 50.8006 31.0187 51.1633 30.88C51.5366 30.7413 51.8779 30.5173 52.1873 30.208L52.6353 31.152C52.3259 31.4613 51.9313 31.7067 51.4513 31.888C50.9819 32.0587 50.5126 32.144 50.0433 32.144ZM57.2735 32.144C56.3562 32.144 55.6682 31.904 55.2095 31.424C54.7508 30.9333 54.5215 30.2293 54.5215 29.312V25.232H53.0015V24.224H54.5215V21.84H55.8175V24.224H58.2815V25.232H55.8175V29.184C55.8175 29.792 55.9455 30.256 56.2015 30.576C56.4575 30.8853 56.8735 31.04 57.4495 31.04C57.6202 31.04 57.7908 31.0187 57.9615 30.976C58.1322 30.9333 58.2868 30.8907 58.4255 30.848L58.6495 31.84C58.5108 31.9147 58.3082 31.984 58.0415 32.048C57.7748 32.112 57.5188 32.144 57.2735 32.144ZM59.5872 22.288V20.832H61.1873V22.288H59.5872ZM59.7473 32V24.224H61.0433V32H59.7473ZM66.698 32.144C65.9407 32.144 65.2847 31.9787 64.73 31.648C64.1753 31.3173 63.7433 30.8533 63.434 30.256C63.1353 29.648 62.986 28.9333 62.986 28.112C62.986 27.2907 63.1353 26.5813 63.434 25.984C63.7433 25.376 64.1753 24.9067 64.73 24.576C65.2847 24.2453 65.9407 24.08 66.698 24.08C67.4447 24.08 68.0953 24.2453 68.65 24.576C69.2153 24.9067 69.6473 25.376 69.946 25.984C70.2553 26.5813 70.41 27.2907 70.41 28.112C70.41 28.9333 70.2553 29.648 69.946 30.256C69.6473 30.8533 69.2153 31.3173 68.65 31.648C68.0953 31.9787 67.4447 32.144 66.698 32.144ZM66.698 31.104C67.4233 31.104 68.0047 30.848 68.442 30.336C68.8793 29.8133 69.098 29.072 69.098 28.112C69.098 27.1413 68.8793 26.4 68.442 25.888C68.0047 25.376 67.4233 25.12 66.698 25.12C65.962 25.12 65.3753 25.376 64.938 25.888C64.5113 26.4 64.298 27.1413 64.298 28.112C64.298 29.072 64.5113 29.8133 64.938 30.336C65.3753 30.848 65.962 31.104 66.698 31.104ZM72.3566 32V24.224H73.6206V25.552C73.8766 25.0613 74.2393 24.6933 74.7086 24.448C75.178 24.2027 75.706 24.08 76.2926 24.08C78.138 24.08 79.0606 25.104 79.0606 27.152V32H77.7646V27.232C77.7646 26.5067 77.6206 25.9787 77.3326 25.648C77.0553 25.3067 76.6073 25.136 75.9886 25.136C75.274 25.136 74.7033 25.36 74.2766 25.808C73.8606 26.2453 73.6526 26.832 73.6526 27.568V32H72.3566ZM85.7518 32L86.3278 29.088H84.9038V28.144H86.5038L87.2238 24.448H85.2238V23.504H87.3838L87.9438 20.72H88.9518L88.4078 23.504H90.9518L91.4958 20.72H92.5198L91.9758 23.504H93.3837V24.448H91.7838L91.0638 28.144H93.0638V29.088H90.9038L90.3278 32H89.3038L89.8638 29.088H87.3358L86.7758 32H85.7518ZM87.5118 28.144H90.0398L90.7758 24.448H88.2318L87.5118 28.144Z" fill="black"/>
<path d="M300.643 39.3186H277.357C275.879 39.3186 274.681 38.1208 274.681 36.6432V13.3569C274.681 11.8793 275.879 10.6815 277.357 10.6815H300.643C302.121 10.6815 303.318 11.8793 303.318 13.3569V36.6432C303.318 38.1208 302.121 39.3186 300.643 39.3186Z" fill="white" stroke="#11263A"/>
<path d="M19.04 82.144C18.1547 82.144 17.3547 82.032 16.64 81.808C15.9253 81.5733 15.3067 81.2373 14.784 80.8L15.248 79.744C15.792 80.16 16.3627 80.4693 16.96 80.672C17.5573 80.8747 18.2507 80.976 19.04 80.976C20 80.976 20.7093 80.8 21.168 80.448C21.6373 80.0853 21.872 79.6107 21.872 79.024C21.872 78.5547 21.7013 78.1813 21.36 77.904C21.0293 77.6267 20.4693 77.408 19.68 77.248L18.016 76.912C17.0133 76.6987 16.2613 76.352 15.76 75.872C15.2693 75.3813 15.024 74.7307 15.024 73.92C15.024 73.248 15.1947 72.6613 15.536 72.16C15.888 71.6587 16.3733 71.2693 16.992 70.992C17.6107 70.7147 18.3253 70.576 19.136 70.576C19.8933 70.576 20.5973 70.6987 21.248 70.944C21.8987 71.1787 22.448 71.52 22.896 71.968L22.432 72.992C21.952 72.5547 21.4453 72.24 20.912 72.048C20.3787 71.8453 19.7813 71.744 19.12 71.744C18.2773 71.744 17.6053 71.9413 17.104 72.336C16.6027 72.72 16.352 73.232 16.352 73.872C16.352 74.384 16.5067 74.7893 16.816 75.088C17.136 75.3867 17.6533 75.6053 18.368 75.744L20.032 76.096C21.1093 76.32 21.904 76.6613 22.416 77.12C22.9387 77.568 23.2 78.1813 23.2 78.96C23.2 79.5893 23.0293 80.144 22.688 80.624C22.3573 81.104 21.8773 81.4773 21.248 81.744C20.6293 82.0107 19.8933 82.144 19.04 82.144ZM28.5638 82.144C27.3371 82.144 26.3664 81.7867 25.6518 81.072C24.9371 80.3467 24.5798 79.3653 24.5798 78.128C24.5798 77.328 24.7398 76.624 25.0598 76.016C25.3798 75.3973 25.8171 74.9227 26.3718 74.592C26.9371 74.2507 27.5878 74.08 28.3238 74.08C29.3798 74.08 30.2064 74.4213 30.8038 75.104C31.4011 75.776 31.6998 76.704 31.6998 77.888V78.384H25.8438C25.8864 79.2693 26.1424 79.9467 26.6118 80.416C27.0811 80.8747 27.7318 81.104 28.5638 81.104C29.0331 81.104 29.4811 81.0347 29.9078 80.896C30.3344 80.7467 30.7398 80.5067 31.1238 80.176L31.5718 81.088C31.2198 81.4187 30.7718 81.68 30.2278 81.872C29.6838 82.0533 29.1291 82.144 28.5638 82.144ZM28.3558 75.04C27.6198 75.04 27.0384 75.2693 26.6118 75.728C26.1851 76.1867 25.9344 76.7893 25.8598 77.536H30.5798C30.5478 76.7467 30.3398 76.1333 29.9558 75.696C29.5824 75.2587 29.0491 75.04 28.3558 75.04ZM35.9594 82.144C35.17 82.144 34.5727 81.9147 34.1674 81.456C33.7727 80.9867 33.5754 80.3093 33.5754 79.424V70.72H34.8714V79.328C34.8714 80.4693 35.3247 81.04 36.2314 81.04C36.498 81.04 36.738 81.008 36.9514 80.944L36.9194 82.032C36.5887 82.1067 36.2687 82.144 35.9594 82.144ZM41.7356 82.144C40.509 82.144 39.5383 81.7867 38.8236 81.072C38.109 80.3467 37.7516 79.3653 37.7516 78.128C37.7516 77.328 37.9116 76.624 38.2316 76.016C38.5516 75.3973 38.989 74.9227 39.5436 74.592C40.109 74.2507 40.7596 74.08 41.4956 74.08C42.5516 74.08 43.3783 74.4213 43.9756 75.104C44.573 75.776 44.8716 76.704 44.8716 77.888V78.384H39.0156C39.0583 79.2693 39.3143 79.9467 39.7836 80.416C40.253 80.8747 40.9036 81.104 41.7356 81.104C42.205 81.104 42.653 81.0347 43.0796 80.896C43.5063 80.7467 43.9116 80.5067 44.2956 80.176L44.7436 81.088C44.3916 81.4187 43.9436 81.68 43.3996 81.872C42.8556 82.0533 42.301 82.144 41.7356 82.144ZM41.5276 75.04C40.7916 75.04 40.2103 75.2693 39.7836 75.728C39.357 76.1867 39.1063 76.7893 39.0316 77.536H43.7516C43.7196 76.7467 43.5116 76.1333 43.1276 75.696C42.7543 75.2587 42.221 75.04 41.5276 75.04ZM50.0433 82.144C49.2646 82.144 48.5926 81.9787 48.0273 81.648C47.4619 81.3067 47.0246 80.832 46.7153 80.224C46.4166 79.6053 46.2673 78.8853 46.2673 78.064C46.2673 76.8267 46.6033 75.856 47.2753 75.152C47.9473 74.4373 48.8699 74.08 50.0433 74.08C50.5233 74.08 50.9979 74.1653 51.4673 74.336C51.9366 74.5067 52.3259 74.7467 52.6353 75.056L52.1873 76C51.8779 75.7013 51.5366 75.4827 51.1633 75.344C50.8006 75.2053 50.4539 75.136 50.1233 75.136C49.3126 75.136 48.6886 75.392 48.2513 75.904C47.8139 76.4053 47.5953 77.1307 47.5953 78.08C47.5953 79.008 47.8139 79.744 48.2513 80.288C48.6886 80.8213 49.3126 81.088 50.1233 81.088C50.4539 81.088 50.8006 81.0187 51.1633 80.88C51.5366 80.7413 51.8779 80.5173 52.1873 80.208L52.6353 81.152C52.3259 81.4613 51.9313 81.7067 51.4513 81.888C50.9819 82.0587 50.5126 82.144 50.0433 82.144ZM57.2735 82.144C56.3562 82.144 55.6682 81.904 55.2095 81.424C54.7508 80.9333 54.5215 80.2293 54.5215 79.312V75.232H53.0015V74.224H54.5215V71.84H55.8175V74.224H58.2815V75.232H55.8175V79.184C55.8175 79.792 55.9455 80.256 56.2015 80.576C56.4575 80.8853 56.8735 81.04 57.4495 81.04C57.6202 81.04 57.7908 81.0187 57.9615 80.976C58.1322 80.9333 58.2868 80.8907 58.4255 80.848L58.6495 81.84C58.5108 81.9147 58.3082 81.984 58.0415 82.048C57.7748 82.112 57.5188 82.144 57.2735 82.144ZM59.5872 72.288V70.832H61.1873V72.288H59.5872ZM59.7473 82V74.224H61.0433V82H59.7473ZM66.698 82.144C65.9407 82.144 65.2847 81.9787 64.73 81.648C64.1753 81.3173 63.7433 80.8533 63.434 80.256C63.1353 79.648 62.986 78.9333 62.986 78.112C62.986 77.2907 63.1353 76.5813 63.434 75.984C63.7433 75.376 64.1753 74.9067 64.73 74.576C65.2847 74.2453 65.9407 74.08 66.698 74.08C67.4447 74.08 68.0953 74.2453 68.65 74.576C69.2153 74.9067 69.6473 75.376 69.946 75.984C70.2553 76.5813 70.41 77.2907 70.41 78.112C70.41 78.9333 70.2553 79.648 69.946 80.256C69.6473 80.8533 69.2153 81.3173 68.65 81.648C68.0953 81.9787 67.4447 82.144 66.698 82.144ZM66.698 81.104C67.4233 81.104 68.0047 80.848 68.442 80.336C68.8793 79.8133 69.098 79.072 69.098 78.112C69.098 77.1413 68.8793 76.4 68.442 75.888C68.0047 75.376 67.4233 75.12 66.698 75.12C65.962 75.12 65.3753 75.376 64.938 75.888C64.5113 76.4 64.298 77.1413 64.298 78.112C64.298 79.072 64.5113 79.8133 64.938 80.336C65.3753 80.848 65.962 81.104 66.698 81.104ZM72.3566 82V74.224H73.6206V75.552C73.8766 75.0613 74.2393 74.6933 74.7086 74.448C75.178 74.2027 75.706 74.08 76.2926 74.08C78.138 74.08 79.0606 75.104 79.0606 77.152V82H77.7646V77.232C77.7646 76.5067 77.6206 75.9787 77.3326 75.648C77.0553 75.3067 76.6073 75.136 75.9886 75.136C75.274 75.136 74.7033 75.36 74.2766 75.808C73.8606 76.2453 73.6526 76.832 73.6526 77.568V82H72.3566ZM85.7518 82L86.3278 79.088H84.9038V78.144H86.5038L87.2238 74.448H85.2238V73.504H87.3838L87.9438 70.72H88.9518L88.4078 73.504H90.9518L91.4958 70.72H92.5198L91.9758 73.504H93.3837V74.448H91.7838L91.0638 78.144H93.0638V79.088H90.9038L90.3278 82H89.3038L89.8638 79.088H87.3358L86.7758 82H85.7518ZM87.5118 78.144H90.0398L90.7758 74.448H88.2318L87.5118 78.144Z" fill="black"/>
<path d="M300.643 89.3186H277.357C275.879 89.3186 274.681 88.1208 274.681 86.6432V63.3569C274.681 61.8793 275.879 60.6815 277.357 60.6815H300.643C302.121 60.6815 303.318 61.8793 303.318 63.3569V86.6432C303.318 88.1208 302.121 89.3186 300.643 89.3186Z" fill="white" stroke="#11263A"/>
<path d="M19.04 132.144C18.1547 132.144 17.3547 132.032 16.64 131.808C15.9253 131.573 15.3067 131.237 14.784 130.8L15.248 129.744C15.792 130.16 16.3627 130.469 16.96 130.672C17.5573 130.875 18.2507 130.976 19.04 130.976C20 130.976 20.7093 130.8 21.168 130.448C21.6373 130.085 21.872 129.611 21.872 129.024C21.872 128.555 21.7013 128.181 21.36 127.904C21.0293 127.627 20.4693 127.408 19.68 127.248L18.016 126.912C17.0133 126.699 16.2613 126.352 15.76 125.872C15.2693 125.381 15.024 124.731 15.024 123.92C15.024 123.248 15.1947 122.661 15.536 122.16C15.888 121.659 16.3733 121.269 16.992 120.992C17.6107 120.715 18.3253 120.576 19.136 120.576C19.8933 120.576 20.5973 120.699 21.248 120.944C21.8987 121.179 22.448 121.52 22.896 121.968L22.432 122.992C21.952 122.555 21.4453 122.24 20.912 122.048C20.3787 121.845 19.7813 121.744 19.12 121.744C18.2773 121.744 17.6053 121.941 17.104 122.336C16.6027 122.72 16.352 123.232 16.352 123.872C16.352 124.384 16.5067 124.789 16.816 125.088C17.136 125.387 17.6533 125.605 18.368 125.744L20.032 126.096C21.1093 126.32 21.904 126.661 22.416 127.12C22.9387 127.568 23.2 128.181 23.2 128.96C23.2 129.589 23.0293 130.144 22.688 130.624C22.3573 131.104 21.8773 131.477 21.248 131.744C20.6293 132.011 19.8933 132.144 19.04 132.144ZM28.5638 132.144C27.3371 132.144 26.3664 131.787 25.6518 131.072C24.9371 130.347 24.5798 129.365 24.5798 128.128C24.5798 127.328 24.7398 126.624 25.0598 126.016C25.3798 125.397 25.8171 124.923 26.3718 124.592C26.9371 124.251 27.5878 124.08 28.3238 124.08C29.3798 124.08 30.2064 124.421 30.8038 125.104C31.4011 125.776 31.6998 126.704 31.6998 127.888V128.384H25.8438C25.8864 129.269 26.1424 129.947 26.6118 130.416C27.0811 130.875 27.7318 131.104 28.5638 131.104C29.0331 131.104 29.4811 131.035 29.9078 130.896C30.3344 130.747 30.7398 130.507 31.1238 130.176L31.5718 131.088C31.2198 131.419 30.7718 131.68 30.2278 131.872C29.6838 132.053 29.1291 132.144 28.5638 132.144ZM28.3558 125.04C27.6198 125.04 27.0384 125.269 26.6118 125.728C26.1851 126.187 25.9344 126.789 25.8598 127.536H30.5798C30.5478 126.747 30.3398 126.133 29.9558 125.696C29.5824 125.259 29.0491 125.04 28.3558 125.04ZM35.9594 132.144C35.17 132.144 34.5727 131.915 34.1674 131.456C33.7727 130.987 33.5754 130.309 33.5754 129.424V120.72H34.8714V129.328C34.8714 130.469 35.3247 131.04 36.2314 131.04C36.498 131.04 36.738 131.008 36.9514 130.944L36.9194 132.032C36.5887 132.107 36.2687 132.144 35.9594 132.144ZM41.7356 132.144C40.509 132.144 39.5383 131.787 38.8236 131.072C38.109 130.347 37.7516 129.365 37.7516 128.128C37.7516 127.328 37.9116 126.624 38.2316 126.016C38.5516 125.397 38.989 124.923 39.5436 124.592C40.109 124.251 40.7596 124.08 41.4956 124.08C42.5516 124.08 43.3783 124.421 43.9756 125.104C44.573 125.776 44.8716 126.704 44.8716 127.888V128.384H39.0156C39.0583 129.269 39.3143 129.947 39.7836 130.416C40.253 130.875 40.9036 131.104 41.7356 131.104C42.205 131.104 42.653 131.035 43.0796 130.896C43.5063 130.747 43.9116 130.507 44.2956 130.176L44.7436 131.088C44.3916 131.419 43.9436 131.68 43.3996 131.872C42.8556 132.053 42.301 132.144 41.7356 132.144ZM41.5276 125.04C40.7916 125.04 40.2103 125.269 39.7836 125.728C39.357 126.187 39.1063 126.789 39.0316 127.536H43.7516C43.7196 126.747 43.5116 126.133 43.1276 125.696C42.7543 125.259 42.221 125.04 41.5276 125.04ZM50.0433 132.144C49.2646 132.144 48.5926 131.979 48.0273 131.648C47.4619 131.307 47.0246 130.832 46.7153 130.224C46.4166 129.605 46.2673 128.885 46.2673 128.064C46.2673 126.827 46.6033 125.856 47.2753 125.152C47.9473 124.437 48.8699 124.08 50.0433 124.08C50.5233 124.08 50.9979 124.165 51.4673 124.336C51.9366 124.507 52.3259 124.747 52.6353 125.056L52.1873 126C51.8779 125.701 51.5366 125.483 51.1633 125.344C50.8006 125.205 50.4539 125.136 50.1233 125.136C49.3126 125.136 48.6886 125.392 48.2513 125.904C47.8139 126.405 47.5953 127.131 47.5953 128.08C47.5953 129.008 47.8139 129.744 48.2513 130.288C48.6886 130.821 49.3126 131.088 50.1233 131.088C50.4539 131.088 50.8006 131.019 51.1633 130.88C51.5366 130.741 51.8779 130.517 52.1873 130.208L52.6353 131.152C52.3259 131.461 51.9313 131.707 51.4513 131.888C50.9819 132.059 50.5126 132.144 50.0433 132.144ZM57.2735 132.144C56.3562 132.144 55.6682 131.904 55.2095 131.424C54.7508 130.933 54.5215 130.229 54.5215 129.312V125.232H53.0015V124.224H54.5215V121.84H55.8175V124.224H58.2815V125.232H55.8175V129.184C55.8175 129.792 55.9455 130.256 56.2015 130.576C56.4575 130.885 56.8735 131.04 57.4495 131.04C57.6202 131.04 57.7908 131.019 57.9615 130.976C58.1322 130.933 58.2868 130.891 58.4255 130.848L58.6495 131.84C58.5108 131.915 58.3082 131.984 58.0415 132.048C57.7748 132.112 57.5188 132.144 57.2735 132.144ZM59.5872 122.288V120.832H61.1873V122.288H59.5872ZM59.7473 132V124.224H61.0433V132H59.7473ZM66.698 132.144C65.9407 132.144 65.2847 131.979 64.73 131.648C64.1753 131.317 63.7433 130.853 63.434 130.256C63.1353 129.648 62.986 128.933 62.986 128.112C62.986 127.291 63.1353 126.581 63.434 125.984C63.7433 125.376 64.1753 124.907 64.73 124.576C65.2847 124.245 65.9407 124.08 66.698 124.08C67.4447 124.08 68.0953 124.245 68.65 124.576C69.2153 124.907 69.6473 125.376 69.946 125.984C70.2553 126.581 70.41 127.291 70.41 128.112C70.41 128.933 70.2553 129.648 69.946 130.256C69.6473 130.853 69.2153 131.317 68.65 131.648C68.0953 131.979 67.4447 132.144 66.698 132.144ZM66.698 131.104C67.4233 131.104 68.0047 130.848 68.442 130.336C68.8793 129.813 69.098 129.072 69.098 128.112C69.098 127.141 68.8793 126.4 68.442 125.888C68.0047 125.376 67.4233 125.12 66.698 125.12C65.962 125.12 65.3753 125.376 64.938 125.888C64.5113 126.4 64.298 127.141 64.298 128.112C64.298 129.072 64.5113 129.813 64.938 130.336C65.3753 130.848 65.962 131.104 66.698 131.104ZM72.3566 132V124.224H73.6206V125.552C73.8766 125.061 74.2393 124.693 74.7086 124.448C75.178 124.203 75.706 124.08 76.2926 124.08C78.138 124.08 79.0606 125.104 79.0606 127.152V132H77.7646V127.232C77.7646 126.507 77.6206 125.979 77.3326 125.648C77.0553 125.307 76.6073 125.136 75.9886 125.136C75.274 125.136 74.7033 125.36 74.2766 125.808C73.8606 126.245 73.6526 126.832 73.6526 127.568V132H72.3566ZM85.7518 132L86.3278 129.088H84.9038V128.144H86.5038L87.2238 124.448H85.2238V123.504H87.3838L87.9438 120.72H88.9518L88.4078 123.504H90.9518L91.4958 120.72H92.5198L91.9758 123.504H93.3837V124.448H91.7838L91.0638 128.144H93.0638V129.088H90.9038L90.3278 132H89.3038L89.8638 129.088H87.3358L86.7758 132H85.7518ZM87.5118 128.144H90.0398L90.7758 124.448H88.2318L87.5118 128.144Z" fill="black"/>
<path d="M300.643 139.319H277.357C275.879 139.319 274.681 138.121 274.681 136.643V113.357C274.681 111.879 275.879 110.681 277.357 110.681H300.643C302.121 110.681 303.318 111.879 303.318 113.357V136.643C303.318 138.121 302.121 139.319 300.643 139.319Z" fill="white" stroke="#11263A"/>
<path d="M19.04 182.144C18.1547 182.144 17.3547 182.032 16.64 181.808C15.9253 181.573 15.3067 181.237 14.784 180.8L15.248 179.744C15.792 180.16 16.3627 180.469 16.96 180.672C17.5573 180.875 18.2507 180.976 19.04 180.976C20 180.976 20.7093 180.8 21.168 180.448C21.6373 180.085 21.872 179.611 21.872 179.024C21.872 178.555 21.7013 178.181 21.36 177.904C21.0293 177.627 20.4693 177.408 19.68 177.248L18.016 176.912C17.0133 176.699 16.2613 176.352 15.76 175.872C15.2693 175.381 15.024 174.731 15.024 173.92C15.024 173.248 15.1947 172.661 15.536 172.16C15.888 171.659 16.3733 171.269 16.992 170.992C17.6107 170.715 18.3253 170.576 19.136 170.576C19.8933 170.576 20.5973 170.699 21.248 170.944C21.8987 171.179 22.448 171.52 22.896 171.968L22.432 172.992C21.952 172.555 21.4453 172.24 20.912 172.048C20.3787 171.845 19.7813 171.744 19.12 171.744C18.2773 171.744 17.6053 171.941 17.104 172.336C16.6027 172.72 16.352 173.232 16.352 173.872C16.352 174.384 16.5067 174.789 16.816 175.088C17.136 175.387 17.6533 175.605 18.368 175.744L20.032 176.096C21.1093 176.32 21.904 176.661 22.416 177.12C22.9387 177.568 23.2 178.181 23.2 178.96C23.2 179.589 23.0293 180.144 22.688 180.624C22.3573 181.104 21.8773 181.477 21.248 181.744C20.6293 182.011 19.8933 182.144 19.04 182.144ZM28.5638 182.144C27.3371 182.144 26.3664 181.787 25.6518 181.072C24.9371 180.347 24.5798 179.365 24.5798 178.128C24.5798 177.328 24.7398 176.624 25.0598 176.016C25.3798 175.397 25.8171 174.923 26.3718 174.592C26.9371 174.251 27.5878 174.08 28.3238 174.08C29.3798 174.08 30.2064 174.421 30.8038 175.104C31.4011 175.776 31.6998 176.704 31.6998 177.888V178.384H25.8438C25.8864 179.269 26.1424 179.947 26.6118 180.416C27.0811 180.875 27.7318 181.104 28.5638 181.104C29.0331 181.104 29.4811 181.035 29.9078 180.896C30.3344 180.747 30.7398 180.507 31.1238 180.176L31.5718 181.088C31.2198 181.419 30.7718 181.68 30.2278 181.872C29.6838 182.053 29.1291 182.144 28.5638 182.144ZM28.3558 175.04C27.6198 175.04 27.0384 175.269 26.6118 175.728C26.1851 176.187 25.9344 176.789 25.8598 177.536H30.5798C30.5478 176.747 30.3398 176.133 29.9558 175.696C29.5824 175.259 29.0491 175.04 28.3558 175.04ZM35.9594 182.144C35.17 182.144 34.5727 181.915 34.1674 181.456C33.7727 180.987 33.5754 180.309 33.5754 179.424V170.72H34.8714V179.328C34.8714 180.469 35.3247 181.04 36.2314 181.04C36.498 181.04 36.738 181.008 36.9514 180.944L36.9194 182.032C36.5887 182.107 36.2687 182.144 35.9594 182.144ZM41.7356 182.144C40.509 182.144 39.5383 181.787 38.8236 181.072C38.109 180.347 37.7516 179.365 37.7516 178.128C37.7516 177.328 37.9116 176.624 38.2316 176.016C38.5516 175.397 38.989 174.923 39.5436 174.592C40.109 174.251 40.7596 174.08 41.4956 174.08C42.5516 174.08 43.3783 174.421 43.9756 175.104C44.573 175.776 44.8716 176.704 44.8716 177.888V178.384H39.0156C39.0583 179.269 39.3143 179.947 39.7836 180.416C40.253 180.875 40.9036 181.104 41.7356 181.104C42.205 181.104 42.653 181.035 43.0796 180.896C43.5063 180.747 43.9116 180.507 44.2956 180.176L44.7436 181.088C44.3916 181.419 43.9436 181.68 43.3996 181.872C42.8556 182.053 42.301 182.144 41.7356 182.144ZM41.5276 175.04C40.7916 175.04 40.2103 175.269 39.7836 175.728C39.357 176.187 39.1063 176.789 39.0316 177.536H43.7516C43.7196 176.747 43.5116 176.133 43.1276 175.696C42.7543 175.259 42.221 175.04 41.5276 175.04ZM50.0433 182.144C49.2646 182.144 48.5926 181.979 48.0273 181.648C47.4619 181.307 47.0246 180.832 46.7153 180.224C46.4166 179.605 46.2673 178.885 46.2673 178.064C46.2673 176.827 46.6033 175.856 47.2753 175.152C47.9473 174.437 48.8699 174.08 50.0433 174.08C50.5233 174.08 50.9979 174.165 51.4673 174.336C51.9366 174.507 52.3259 174.747 52.6353 175.056L52.1873 176C51.8779 175.701 51.5366 175.483 51.1633 175.344C50.8006 175.205 50.4539 175.136 50.1233 175.136C49.3126 175.136 48.6886 175.392 48.2513 175.904C47.8139 176.405 47.5953 177.131 47.5953 178.08C47.5953 179.008 47.8139 179.744 48.2513 180.288C48.6886 180.821 49.3126 181.088 50.1233 181.088C50.4539 181.088 50.8006 181.019 51.1633 180.88C51.5366 180.741 51.8779 180.517 52.1873 180.208L52.6353 181.152C52.3259 181.461 51.9313 181.707 51.4513 181.888C50.9819 182.059 50.5126 182.144 50.0433 182.144ZM57.2735 182.144C56.3562 182.144 55.6682 181.904 55.2095 181.424C54.7508 180.933 54.5215 180.229 54.5215 179.312V175.232H53.0015V174.224H54.5215V171.84H55.8175V174.224H58.2815V175.232H55.8175V179.184C55.8175 179.792 55.9455 180.256 56.2015 180.576C56.4575 180.885 56.8735 181.04 57.4495 181.04C57.6202 181.04 57.7908 181.019 57.9615 180.976C58.1322 180.933 58.2868 180.891 58.4255 180.848L58.6495 181.84C58.5108 181.915 58.3082 181.984 58.0415 182.048C57.7748 182.112 57.5188 182.144 57.2735 182.144ZM59.5872 172.288V170.832H61.1873V172.288H59.5872ZM59.7473 182V174.224H61.0433V182H59.7473ZM66.698 182.144C65.9407 182.144 65.2847 181.979 64.73 181.648C64.1753 181.317 63.7433 180.853 63.434 180.256C63.1353 179.648 62.986 178.933 62.986 178.112C62.986 177.291 63.1353 176.581 63.434 175.984C63.7433 175.376 64.1753 174.907 64.73 174.576C65.2847 174.245 65.9407 174.08 66.698 174.08C67.4447 174.08 68.0953 174.245 68.65 174.576C69.2153 174.907 69.6473 175.376 69.946 175.984C70.2553 176.581 70.41 177.291 70.41 178.112C70.41 178.933 70.2553 179.648 69.946 180.256C69.6473 180.853 69.2153 181.317 68.65 181.648C68.0953 181.979 67.4447 182.144 66.698 182.144ZM66.698 181.104C67.4233 181.104 68.0047 180.848 68.442 180.336C68.8793 179.813 69.098 179.072 69.098 178.112C69.098 177.141 68.8793 176.4 68.442 175.888C68.0047 175.376 67.4233 175.12 66.698 175.12C65.962 175.12 65.3753 175.376 64.938 175.888C64.5113 176.4 64.298 177.141 64.298 178.112C64.298 179.072 64.5113 179.813 64.938 180.336C65.3753 180.848 65.962 181.104 66.698 181.104ZM72.3566 182V174.224H73.6206V175.552C73.8766 175.061 74.2393 174.693 74.7086 174.448C75.178 174.203 75.706 174.08 76.2926 174.08C78.138 174.08 79.0606 175.104 79.0606 177.152V182H77.7646V177.232C77.7646 176.507 77.6206 175.979 77.3326 175.648C77.0553 175.307 76.6073 175.136 75.9886 175.136C75.274 175.136 74.7033 175.36 74.2766 175.808C73.8606 176.245 73.6526 176.832 73.6526 177.568V182H72.3566ZM85.7518 182L86.3278 179.088H84.9038V178.144H86.5038L87.2238 174.448H85.2238V173.504H87.3838L87.9438 170.72H88.9518L88.4078 173.504H90.9518L91.4958 170.72H92.5198L91.9758 173.504H93.3837V174.448H91.7838L91.0638 178.144H93.0638V179.088H90.9038L90.3278 182H89.3038L89.8638 179.088H87.3358L86.7758 182H85.7518ZM87.5118 178.144H90.0398L90.7758 174.448H88.2318L87.5118 178.144Z" fill="black"/>
<path d="M300.643 189.319H277.357C275.879 189.319 274.681 188.121 274.681 186.643V163.357C274.681 161.879 275.879 160.681 277.357 160.681H300.643C302.121 160.681 303.318 161.879 303.318 163.357V186.643C303.318 188.121 302.121 189.319 300.643 189.319Z" fill="white" stroke="#11263A"/>
<defs>
<filter id="filter0_d_183_1205" x="0" y="0" width="318" height="208" filterUnits="userSpaceOnUse" color-interpolation-filters="sRGB">
<feFlood flood-opacity="0" result="BackgroundImageFix"/>
<feColorMatrix in="SourceAlpha" type="matrix" values="0 0 0 0 0 0 0 0 0 0 0 0 0 0 0 0 0 0 127 0" result="hardAlpha"/>
<feOffset dy="4"/>
<feGaussianBlur stdDeviation="2"/>
<feComposite in2="hardAlpha" operator="out"/>
<feColorMatrix type="matrix" values="0 0 0 0 0 0 0 0 0 0 0 0 0 0 0 0 0 0 0.25 0"/>
<feBlend mode="normal" in2="BackgroundImageFix" result="effect1_dropShadow_183_1205"/>
<feBlend mode="normal" in="SourceGraphic" in2="effect1_dropShadow_183_1205" result="shape"/>
</filter>
</defs>
</svg>
