<svg width="358" height="168" viewBox="0 0 358 168" fill="none" xmlns="http://www.w3.org/2000/svg">
<g filter="url(#filter0_d_234_5239)">
<path d="M24 28C24 24.6863 26.6863 22 30 22H328C331.314 22 334 24.6863 334 28V66C334 69.3137 331.314 72 328 72H30C26.6863 72 24 69.3137 24 66V28Z" fill="white"/>
<path d="M39.67 53.162C38.674 53.162 37.774 53.036 36.97 52.784C36.166 52.52 35.47 52.142 34.882 51.65L35.404 50.462C36.016 50.93 36.658 51.278 37.33 51.506C38.002 51.734 38.782 51.848 39.67 51.848C40.75 51.848 41.548 51.65 42.064 51.254C42.592 50.846 42.856 50.312 42.856 49.652C42.856 49.124 42.664 48.704 42.28 48.392C41.908 48.08 41.278 47.834 40.39 47.654L38.518 47.276C37.39 47.036 36.544 46.646 35.98 46.106C35.428 45.554 35.152 44.822 35.152 43.91C35.152 43.154 35.344 42.494 35.728 41.93C36.124 41.366 36.67 40.928 37.366 40.616C38.062 40.304 38.866 40.148 39.778 40.148C40.63 40.148 41.422 40.286 42.154 40.562C42.886 40.826 43.504 41.21 44.008 41.714L43.486 42.866C42.946 42.374 42.376 42.02 41.776 41.804C41.176 41.576 40.504 41.462 39.76 41.462C38.812 41.462 38.056 41.684 37.492 42.128C36.928 42.56 36.646 43.136 36.646 43.856C36.646 44.432 36.82 44.888 37.168 45.224C37.528 45.56 38.11 45.806 38.914 45.962L40.786 46.358C41.998 46.61 42.892 46.994 43.468 47.51C44.056 48.014 44.35 48.704 44.35 49.58C44.35 50.288 44.158 50.912 43.774 51.452C43.402 51.992 42.862 52.412 42.154 52.712C41.458 53.012 40.63 53.162 39.67 53.162ZM50.3842 53.162C49.0042 53.162 47.9122 52.76 47.1082 51.956C46.3042 51.14 45.9022 50.036 45.9022 48.644C45.9022 47.744 46.0822 46.952 46.4422 46.268C46.8022 45.572 47.2942 45.038 47.9182 44.666C48.5542 44.282 49.2862 44.09 50.1142 44.09C51.3022 44.09 52.2322 44.474 52.9042 45.242C53.5762 45.998 53.9122 47.042 53.9122 48.374V48.932H47.3242C47.3722 49.928 47.6602 50.69 48.1882 51.218C48.7162 51.734 49.4482 51.992 50.3842 51.992C50.9122 51.992 51.4162 51.914 51.8962 51.758C52.3762 51.59 52.8322 51.32 53.2642 50.948L53.7682 51.974C53.3722 52.346 52.8682 52.64 52.2562 52.856C51.6442 53.06 51.0202 53.162 50.3842 53.162ZM50.1502 45.17C49.3222 45.17 48.6682 45.428 48.1882 45.944C47.7082 46.46 47.4262 47.138 47.3422 47.978H52.6522C52.6162 47.09 52.3822 46.4 51.9502 45.908C51.5302 45.416 50.9302 45.17 50.1502 45.17ZM58.7043 53.162C57.8163 53.162 57.1443 52.904 56.6883 52.388C56.2443 51.86 56.0223 51.098 56.0223 50.102V40.31H57.4803V49.994C57.4803 51.278 57.9903 51.92 59.0103 51.92C59.3103 51.92 59.5803 51.884 59.8203 51.812L59.7843 53.036C59.4123 53.12 59.0523 53.162 58.7043 53.162ZM64.9686 53.162C64.0926 53.162 63.3366 52.976 62.7006 52.604C62.0646 52.22 61.5726 51.686 61.2246 51.002C60.8886 50.306 60.7206 49.496 60.7206 48.572C60.7206 47.18 61.0986 46.088 61.8546 45.296C62.6106 44.492 63.6486 44.09 64.9686 44.09C65.5086 44.09 66.0426 44.186 66.5706 44.378C67.0986 44.57 67.5366 44.84 67.8846 45.188L67.3806 46.25C67.0326 45.914 66.6486 45.668 66.2286 45.512C65.8206 45.356 65.4306 45.278 65.0586 45.278C64.1466 45.278 63.4446 45.566 62.9526 46.142C62.4606 46.706 62.2146 47.522 62.2146 48.59C62.2146 49.634 62.4606 50.462 62.9526 51.074C63.4446 51.674 64.1466 51.974 65.0586 51.974C65.4306 51.974 65.8206 51.896 66.2286 51.74C66.6486 51.584 67.0326 51.332 67.3806 50.984L67.8846 52.046C67.5366 52.394 67.0926 52.67 66.5526 52.874C66.0246 53.066 65.4966 53.162 64.9686 53.162ZM73.1026 53.162C72.0706 53.162 71.2966 52.892 70.7806 52.352C70.2646 51.8 70.0066 51.008 70.0066 49.976V45.386H68.2966V44.252H70.0066V41.57H71.4646V44.252H74.2366V45.386H71.4646V49.832C71.4646 50.516 71.6086 51.038 71.8966 51.398C72.1846 51.746 72.6526 51.92 73.3006 51.92C73.4926 51.92 73.6846 51.896 73.8766 51.848C74.0686 51.8 74.2426 51.752 74.3986 51.704L74.6506 52.82C74.4946 52.904 74.2666 52.982 73.9666 53.054C73.6666 53.126 73.3786 53.162 73.1026 53.162ZM75.7056 42.074V40.436H77.5056V42.074H75.7056ZM75.8856 53V44.252H77.3436V53H75.8856ZM83.7052 53.162C82.8532 53.162 82.1152 52.976 81.4912 52.604C80.8672 52.232 80.3812 51.71 80.0332 51.038C79.6972 50.354 79.5292 49.55 79.5292 48.626C79.5292 47.702 79.6972 46.904 80.0332 46.232C80.3812 45.548 80.8672 45.02 81.4912 44.648C82.1152 44.276 82.8532 44.09 83.7052 44.09C84.5452 44.09 85.2772 44.276 85.9012 44.648C86.5372 45.02 87.0232 45.548 87.3592 46.232C87.7072 46.904 87.8812 47.702 87.8812 48.626C87.8812 49.55 87.7072 50.354 87.3592 51.038C87.0232 51.71 86.5372 52.232 85.9012 52.604C85.2772 52.976 84.5452 53.162 83.7052 53.162ZM83.7052 51.992C84.5212 51.992 85.1752 51.704 85.6672 51.128C86.1592 50.54 86.4052 49.706 86.4052 48.626C86.4052 47.534 86.1592 46.7 85.6672 46.124C85.1752 45.548 84.5212 45.26 83.7052 45.26C82.8772 45.26 82.2172 45.548 81.7252 46.124C81.2452 46.7 81.0052 47.534 81.0052 48.626C81.0052 49.706 81.2452 50.54 81.7252 51.128C82.2172 51.704 82.8772 51.992 83.7052 51.992ZM90.0711 53V44.252H91.4931V45.746C91.7811 45.194 92.1891 44.78 92.7171 44.504C93.2451 44.228 93.8391 44.09 94.4991 44.09C96.5751 44.09 97.6131 45.242 97.6131 47.546V53H96.1551V47.636C96.1551 46.82 95.9931 46.226 95.6691 45.854C95.3571 45.47 94.8531 45.278 94.1571 45.278C93.3531 45.278 92.7111 45.53 92.2311 46.034C91.7631 46.526 91.5291 47.186 91.5291 48.014V53H90.0711ZM105.141 53L105.789 49.724H104.187V48.662H105.987L106.797 44.504H104.547V43.442H106.977L107.607 40.31H108.741L108.129 43.442H110.991L111.603 40.31H112.755L112.143 43.442H113.727V44.504H111.927L111.117 48.662H113.367V49.724H110.937L110.289 53H109.137L109.767 49.724H106.923L106.293 53H105.141ZM107.121 48.662H109.965L110.793 44.504H107.931L107.121 48.662Z" fill="black"/>
<rect x="224.5" y="38.5" width="52.0357" height="19" rx="4.5" fill="white" stroke="black"/>
<path d="M245.146 54.2673C243.694 54.2673 242.59 53.7093 241.834 52.5933C241.078 51.4773 240.7 49.8633 240.7 47.7513C240.7 45.6273 241.078 44.0133 241.834 42.9093C242.59 41.8053 243.694 41.2533 245.146 41.2533C246.61 41.2533 247.714 41.8053 248.458 42.9093C249.214 44.0013 249.592 45.6093 249.592 47.7333C249.592 49.8573 249.208 51.4773 248.44 52.5933C247.684 53.7093 246.586 54.2673 245.146 54.2673ZM245.146 52.9893C246.154 52.9893 246.898 52.5633 247.378 51.7113C247.87 50.8593 248.116 49.5333 248.116 47.7333C248.116 45.9333 247.876 44.6193 247.396 43.7913C246.916 42.9513 246.166 42.5313 245.146 42.5313C244.138 42.5313 243.388 42.9513 242.896 43.7913C242.416 44.6313 242.176 45.9453 242.176 47.7333C242.176 49.5333 242.416 50.8593 242.896 51.7113C243.388 52.5633 244.138 52.9893 245.146 52.9893Z" fill="black"/>
<path d="M286.404 53V44.252H287.826V45.728C288.09 45.2 288.456 44.798 288.924 44.522C289.392 44.234 289.938 44.09 290.562 44.09C291.93 44.09 292.806 44.684 293.19 45.872C293.454 45.32 293.844 44.888 294.36 44.576C294.876 44.252 295.47 44.09 296.142 44.09C298.086 44.09 299.058 45.242 299.058 47.546V53H297.6V47.618C297.6 46.814 297.456 46.226 297.168 45.854C296.892 45.47 296.43 45.278 295.782 45.278C295.074 45.278 294.51 45.53 294.09 46.034C293.67 46.538 293.46 47.21 293.46 48.05V53H292.002V47.618C292.002 46.814 291.858 46.226 291.57 45.854C291.294 45.47 290.832 45.278 290.184 45.278C289.464 45.278 288.894 45.53 288.474 46.034C288.066 46.538 287.862 47.21 287.862 48.05V53H286.404ZM301.604 42.074V40.436H303.404V42.074H301.604ZM301.784 53V44.252H303.242V53H301.784ZM305.968 53V44.252H307.39V45.746C307.678 45.194 308.086 44.78 308.614 44.504C309.142 44.228 309.736 44.09 310.396 44.09C312.472 44.09 313.51 45.242 313.51 47.546V53H312.052V47.636C312.052 46.82 311.89 46.226 311.566 45.854C311.254 45.47 310.75 45.278 310.054 45.278C309.25 45.278 308.608 45.53 308.128 46.034C307.66 46.526 307.426 47.186 307.426 48.014V53H305.968ZM319.15 53.162C318.466 53.162 317.818 53.066 317.206 52.874C316.594 52.682 316.09 52.412 315.694 52.064L316.162 51.038C316.594 51.386 317.068 51.644 317.584 51.812C318.112 51.968 318.646 52.046 319.186 52.046C319.87 52.046 320.386 51.92 320.734 51.668C321.082 51.416 321.256 51.074 321.256 50.642C321.256 50.306 321.142 50.042 320.914 49.85C320.686 49.646 320.326 49.49 319.834 49.382L318.196 49.022C316.708 48.698 315.964 47.93 315.964 46.718C315.964 45.926 316.276 45.29 316.9 44.81C317.536 44.33 318.364 44.09 319.384 44.09C319.984 44.09 320.554 44.186 321.094 44.378C321.646 44.558 322.102 44.828 322.462 45.188L321.976 46.214C321.628 45.89 321.22 45.644 320.752 45.476C320.296 45.296 319.84 45.206 319.384 45.206C318.712 45.206 318.202 45.338 317.854 45.602C317.506 45.866 317.332 46.214 317.332 46.646C317.332 47.318 317.776 47.75 318.664 47.942L320.302 48.284C321.07 48.452 321.652 48.722 322.048 49.094C322.444 49.454 322.642 49.946 322.642 50.57C322.642 51.374 322.324 52.01 321.688 52.478C321.052 52.934 320.206 53.162 319.15 53.162Z" fill="black"/>
<path d="M258 42C258 39.7909 259.791 38 262 38H274C276.209 38 278 39.7909 278 42V54C278 56.2091 276.209 58 274 58H262C259.791 58 258 56.2091 258 54V42Z" fill="#6B97ED"/>
<path d="M267.588 52.1949L262.275 46.8824C261.908 46.5152 261.908 45.9215 262.275 45.5582L263.158 44.6754C263.525 44.3082 264.119 44.3082 264.482 44.6754L268.248 48.441L272.014 44.6754C272.381 44.3082 272.975 44.3082 273.338 44.6754L274.221 45.5582C274.588 45.9254 274.588 46.5191 274.221 46.8824L268.908 52.1949C268.549 52.5621 267.955 52.5621 267.588 52.1949Z" fill="white"/>
</g>
<g filter="url(#filter1_d_234_5239)">
<path d="M24 98C24 94.6863 26.6863 92 30 92H328C331.314 92 334 94.6863 334 98V136C334 139.314 331.314 142 328 142H30C26.6863 142 24 139.314 24 136V98Z" fill="#6B97ED"/>
<path d="M39.76 123.18C38.764 123.18 37.84 123.054 36.988 122.802C36.136 122.538 35.416 122.184 34.828 121.74L35.53 119.922C36.118 120.342 36.76 120.666 37.456 120.894C38.164 121.122 38.932 121.236 39.76 121.236C40.708 121.236 41.398 121.08 41.83 120.768C42.262 120.444 42.478 120.03 42.478 119.526C42.478 119.106 42.322 118.776 42.01 118.536C41.71 118.296 41.188 118.098 40.444 117.942L38.464 117.528C36.208 117.048 35.08 115.89 35.08 114.054C35.08 113.262 35.29 112.572 35.71 111.984C36.13 111.396 36.712 110.94 37.456 110.616C38.2 110.292 39.058 110.13 40.03 110.13C40.894 110.13 41.704 110.262 42.46 110.526C43.216 110.778 43.846 111.138 44.35 111.606L43.648 113.334C42.652 112.494 41.44 112.074 40.012 112.074C39.184 112.074 38.536 112.248 38.068 112.596C37.6 112.944 37.366 113.4 37.366 113.964C37.366 114.396 37.51 114.744 37.798 115.008C38.086 115.26 38.578 115.458 39.274 115.602L41.236 116.016C42.424 116.268 43.306 116.664 43.882 117.204C44.47 117.744 44.764 118.464 44.764 119.364C44.764 120.12 44.56 120.786 44.152 121.362C43.744 121.938 43.162 122.388 42.406 122.712C41.662 123.024 40.78 123.18 39.76 123.18ZM50.8635 123.18C49.8675 123.18 49.0095 122.994 48.2895 122.622C47.5695 122.25 47.0115 121.722 46.6155 121.038C46.2315 120.354 46.0395 119.544 46.0395 118.608C46.0395 117.696 46.2255 116.898 46.5975 116.214C46.9815 115.53 47.5035 114.996 48.1635 114.612C48.8355 114.216 49.5975 114.018 50.4495 114.018C51.6975 114.018 52.6815 114.414 53.4015 115.206C54.1335 115.998 54.4995 117.078 54.4995 118.446V119.112H48.1995C48.3675 120.684 49.2675 121.47 50.8995 121.47C51.3915 121.47 51.8835 121.398 52.3755 121.254C52.8675 121.098 53.3175 120.858 53.7255 120.534L54.3555 122.046C53.9355 122.394 53.4075 122.67 52.7715 122.874C52.1355 123.078 51.4995 123.18 50.8635 123.18ZM50.5395 115.548C49.8795 115.548 49.3455 115.752 48.9375 116.16C48.5295 116.568 48.2835 117.12 48.1995 117.816H52.6275C52.5795 117.084 52.3755 116.526 52.0155 116.142C51.6675 115.746 51.1755 115.548 50.5395 115.548ZM59.3413 123.18C58.2973 123.18 57.5233 122.898 57.0193 122.334C56.5273 121.758 56.2813 120.918 56.2813 119.814V110.31H58.5313V119.706C58.5313 120.786 58.9873 121.326 59.8993 121.326C60.0313 121.326 60.1633 121.32 60.2953 121.308C60.4273 121.296 60.5533 121.272 60.6733 121.236L60.6373 123.018C60.2053 123.126 59.7733 123.18 59.3413 123.18ZM66.0095 123.18C65.0855 123.18 64.2815 122.994 63.5975 122.622C62.9135 122.238 62.3855 121.698 62.0135 121.002C61.6415 120.306 61.4555 119.49 61.4555 118.554C61.4555 117.618 61.6415 116.814 62.0135 116.142C62.3855 115.458 62.9135 114.936 63.5975 114.576C64.2815 114.204 65.0855 114.018 66.0095 114.018C66.5735 114.018 67.1315 114.108 67.6835 114.288C68.2355 114.468 68.6915 114.72 69.0515 115.044L68.3855 116.61C68.0735 116.334 67.7195 116.124 67.3235 115.98C66.9395 115.836 66.5675 115.764 66.2075 115.764C65.4275 115.764 64.8215 116.01 64.3895 116.502C63.9695 116.982 63.7595 117.672 63.7595 118.572C63.7595 119.46 63.9695 120.162 64.3895 120.678C64.8215 121.182 65.4275 121.434 66.2075 121.434C66.5555 121.434 66.9275 121.362 67.3235 121.218C67.7195 121.074 68.0735 120.858 68.3855 120.57L69.0515 122.154C68.6915 122.466 68.2295 122.718 67.6655 122.91C67.1135 123.09 66.5615 123.18 66.0095 123.18ZM74.4989 123.18C72.1709 123.18 71.0069 122.028 71.0069 119.724V115.89H69.3149V114.198H71.0069V111.57H73.2569V114.198H75.9209V115.89H73.2569V119.598C73.2569 120.174 73.3829 120.606 73.6349 120.894C73.8869 121.182 74.2949 121.326 74.8589 121.326C75.0269 121.326 75.2009 121.308 75.3809 121.272C75.5609 121.224 75.7469 121.176 75.9389 121.128L76.2809 122.784C76.0649 122.904 75.7889 123 75.4529 123.072C75.1289 123.144 74.8109 123.18 74.4989 123.18ZM77.2311 112.308V110.112H79.7511V112.308H77.2311ZM77.3751 123V114.198H79.6251V123H77.3751ZM85.977 123.18C85.065 123.18 84.273 122.994 83.601 122.622C82.929 122.25 82.407 121.722 82.035 121.038C81.663 120.342 81.477 119.526 81.477 118.59C81.477 117.654 81.663 116.844 82.035 116.16C82.407 115.476 82.929 114.948 83.601 114.576C84.273 114.204 85.065 114.018 85.977 114.018C86.889 114.018 87.681 114.204 88.353 114.576C89.025 114.948 89.547 115.476 89.919 116.16C90.291 116.844 90.477 117.654 90.477 118.59C90.477 119.526 90.291 120.342 89.919 121.038C89.547 121.722 89.025 122.25 88.353 122.622C87.681 122.994 86.889 123.18 85.977 123.18ZM85.977 121.47C86.649 121.47 87.189 121.23 87.597 120.75C88.005 120.258 88.209 119.538 88.209 118.59C88.209 117.63 88.005 116.916 87.597 116.448C87.189 115.968 86.649 115.728 85.977 115.728C85.305 115.728 84.765 115.968 84.357 116.448C83.949 116.916 83.745 117.63 83.745 118.59C83.745 119.538 83.949 120.258 84.357 120.75C84.765 121.23 85.305 121.47 85.977 121.47ZM92.3341 123V114.198H94.5301V115.566C94.8301 115.062 95.2321 114.678 95.7361 114.414C96.2521 114.15 96.8281 114.018 97.4641 114.018C99.5401 114.018 100.578 115.224 100.578 117.636V123H98.3281V117.744C98.3281 117.06 98.1961 116.562 97.9321 116.25C97.6801 115.938 97.2841 115.782 96.7441 115.782C96.0841 115.782 95.5561 115.992 95.1601 116.412C94.7761 116.82 94.5841 117.366 94.5841 118.05V123H92.3341ZM108.003 123L108.615 119.904H107.337V118.464H108.885L109.623 114.702H107.715V113.262H109.875L110.469 110.31H112.035L111.441 113.262H113.709L114.303 110.31H115.869L115.275 113.262H116.553V114.702H115.005L114.267 118.464H116.175V119.904H114.015L113.403 123H111.837L112.449 119.904H110.181L109.569 123H108.003ZM110.451 118.464H112.701L113.439 114.702H111.189L110.451 118.464Z" fill="white"/>
<rect x="224.5" y="108.5" width="52.0357" height="19" rx="4.5" fill="white" stroke="black"/>
<path d="M245.146 124.267C243.694 124.267 242.59 123.709 241.834 122.593C241.078 121.477 240.7 119.863 240.7 117.751C240.7 115.627 241.078 114.013 241.834 112.909C242.59 111.805 243.694 111.253 245.146 111.253C246.61 111.253 247.714 111.805 248.458 112.909C249.214 114.001 249.592 115.609 249.592 117.733C249.592 119.857 249.208 121.477 248.44 122.593C247.684 123.709 246.586 124.267 245.146 124.267ZM245.146 122.989C246.154 122.989 246.898 122.563 247.378 121.711C247.87 120.859 248.116 119.533 248.116 117.733C248.116 115.933 247.876 114.619 247.396 113.791C246.916 112.951 246.166 112.531 245.146 112.531C244.138 112.531 243.388 112.951 242.896 113.791C242.416 114.631 242.176 115.945 242.176 117.733C242.176 119.533 242.416 120.859 242.896 121.711C243.388 122.563 244.138 122.989 245.146 122.989Z" fill="black"/>
<path d="M286.206 123V114.198H288.402V115.548C288.666 115.068 289.032 114.696 289.5 114.432C289.968 114.156 290.508 114.018 291.12 114.018C292.44 114.018 293.304 114.594 293.712 115.746C293.988 115.206 294.384 114.786 294.9 114.486C295.416 114.174 296.004 114.018 296.664 114.018C298.644 114.018 299.634 115.224 299.634 117.636V123H297.384V117.726C297.384 117.054 297.27 116.562 297.042 116.25C296.826 115.938 296.454 115.782 295.926 115.782C295.338 115.782 294.876 115.992 294.54 116.412C294.204 116.82 294.036 117.39 294.036 118.122V123H291.786V117.726C291.786 117.054 291.672 116.562 291.444 116.25C291.228 115.938 290.862 115.782 290.346 115.782C289.758 115.782 289.296 115.992 288.96 116.412C288.624 116.82 288.456 117.39 288.456 118.122V123H286.206ZM301.811 112.308V110.112H304.331V112.308H301.811ZM301.955 123V114.198H304.205V123H301.955ZM306.543 123V114.198H308.739V115.566C309.039 115.062 309.441 114.678 309.945 114.414C310.461 114.15 311.037 114.018 311.673 114.018C313.749 114.018 314.787 115.224 314.787 117.636V123H312.537V117.744C312.537 117.06 312.405 116.562 312.141 116.25C311.889 115.938 311.493 115.782 310.953 115.782C310.293 115.782 309.765 115.992 309.369 116.412C308.985 116.82 308.793 117.366 308.793 118.05V123H306.543ZM320.294 123.18C319.55 123.18 318.854 123.09 318.206 122.91C317.558 122.73 317.018 122.472 316.586 122.136L317.162 120.66C317.606 120.96 318.104 121.194 318.656 121.362C319.208 121.518 319.76 121.596 320.312 121.596C320.888 121.596 321.314 121.5 321.59 121.308C321.878 121.104 322.022 120.84 322.022 120.516C322.022 120.012 321.65 119.688 320.906 119.544L319.106 119.202C317.582 118.914 316.82 118.122 316.82 116.826C316.82 116.25 316.976 115.752 317.288 115.332C317.612 114.912 318.056 114.588 318.62 114.36C319.184 114.132 319.832 114.018 320.564 114.018C321.188 114.018 321.788 114.108 322.364 114.288C322.94 114.456 323.432 114.714 323.84 115.062L323.228 116.538C322.88 116.25 322.46 116.022 321.968 115.854C321.488 115.686 321.026 115.602 320.582 115.602C319.994 115.602 319.556 115.704 319.268 115.908C318.992 116.112 318.854 116.382 318.854 116.718C318.854 117.246 319.196 117.57 319.88 117.69L321.68 118.032C322.46 118.176 323.048 118.44 323.444 118.824C323.852 119.208 324.056 119.724 324.056 120.372C324.056 121.248 323.714 121.938 323.03 122.442C322.346 122.934 321.434 123.18 320.294 123.18Z" fill="white"/>
<path d="M258 112C258 109.791 259.791 108 262 108H274C276.209 108 278 109.791 278 112V124C278 126.209 276.209 128 274 128H262C259.791 128 258 126.209 258 124V112Z" fill="white"/>
<path d="M267.588 122.195L262.275 116.882C261.908 116.515 261.908 115.921 262.275 115.558L263.158 114.675C263.525 114.308 264.119 114.308 264.482 114.675L268.248 118.441L272.014 114.675C272.381 114.308 272.975 114.308 273.338 114.675L274.221 115.558C274.588 115.925 274.588 116.519 274.221 116.882L268.908 122.195C268.549 122.562 267.955 122.562 267.588 122.195Z" fill="#6B97ED"/>
</g>
<defs>
<filter id="filter0_d_234_5239" x="20" y="20" width="318" height="58" filterUnits="userSpaceOnUse" color-interpolation-filters="sRGB">
<feFlood flood-opacity="0" result="BackgroundImageFix"/>
<feColorMatrix in="SourceAlpha" type="matrix" values="0 0 0 0 0 0 0 0 0 0 0 0 0 0 0 0 0 0 127 0" result="hardAlpha"/>
<feOffset dy="2"/>
<feGaussianBlur stdDeviation="2"/>
<feComposite in2="hardAlpha" operator="out"/>
<feColorMatrix type="matrix" values="0 0 0 0 0 0 0 0 0 0 0 0 0 0 0 0 0 0 0.1 0"/>
<feBlend mode="normal" in2="BackgroundImageFix" result="effect1_dropShadow_234_5239"/>
<feBlend mode="normal" in="SourceGraphic" in2="effect1_dropShadow_234_5239" result="shape"/>
</filter>
<filter id="filter1_d_234_5239" x="20" y="90" width="318" height="58" filterUnits="userSpaceOnUse" color-interpolation-filters="sRGB">
<feFlood flood-opacity="0" result="BackgroundImageFix"/>
<feColorMatrix in="SourceAlpha" type="matrix" values="0 0 0 0 0 0 0 0 0 0 0 0 0 0 0 0 0 0 127 0" result="hardAlpha"/>
<feOffset dy="2"/>
<feGaussianBlur stdDeviation="2"/>
<feComposite in2="hardAlpha" operator="out"/>
<feColorMatrix type="matrix" values="0 0 0 0 0 0 0 0 0 0 0 0 0 0 0 0 0 0 0.1 0"/>
<feBlend mode="normal" in2="BackgroundImageFix" result="effect1_dropShadow_234_5239"/>
<feBlend mode="normal" in="SourceGraphic" in2="effect1_dropShadow_234_5239" result="shape"/>
</filter>
</defs>
</svg>
