<svg width="358" height="173" viewBox="0 0 358 173" fill="none" xmlns="http://www.w3.org/2000/svg">
<g filter="url(#filter0_d_234_4338)">
<path d="M24 28C24 24.6863 26.6863 22 30 22H328C331.314 22 334 24.6863 334 28V66C334 69.3137 331.314 72 328 72H30C26.6863 72 24 69.3137 24 66V28Z" fill="white"/>
<path d="M39.67 53.162C38.674 53.162 37.774 53.036 36.97 52.784C36.166 52.52 35.47 52.142 34.882 51.65L35.404 50.462C36.016 50.93 36.658 51.278 37.33 51.506C38.002 51.734 38.782 51.848 39.67 51.848C40.75 51.848 41.548 51.65 42.064 51.254C42.592 50.846 42.856 50.312 42.856 49.652C42.856 49.124 42.664 48.704 42.28 48.392C41.908 48.08 41.278 47.834 40.39 47.654L38.518 47.276C37.39 47.036 36.544 46.646 35.98 46.106C35.428 45.554 35.152 44.822 35.152 43.91C35.152 43.154 35.344 42.494 35.728 41.93C36.124 41.366 36.67 40.928 37.366 40.616C38.062 40.304 38.866 40.148 39.778 40.148C40.63 40.148 41.422 40.286 42.154 40.562C42.886 40.826 43.504 41.21 44.008 41.714L43.486 42.866C42.946 42.374 42.376 42.02 41.776 41.804C41.176 41.576 40.504 41.462 39.76 41.462C38.812 41.462 38.056 41.684 37.492 42.128C36.928 42.56 36.646 43.136 36.646 43.856C36.646 44.432 36.82 44.888 37.168 45.224C37.528 45.56 38.11 45.806 38.914 45.962L40.786 46.358C41.998 46.61 42.892 46.994 43.468 47.51C44.056 48.014 44.35 48.704 44.35 49.58C44.35 50.288 44.158 50.912 43.774 51.452C43.402 51.992 42.862 52.412 42.154 52.712C41.458 53.012 40.63 53.162 39.67 53.162ZM50.3842 53.162C49.0042 53.162 47.9122 52.76 47.1082 51.956C46.3042 51.14 45.9022 50.036 45.9022 48.644C45.9022 47.744 46.0822 46.952 46.4422 46.268C46.8022 45.572 47.2942 45.038 47.9182 44.666C48.5542 44.282 49.2862 44.09 50.1142 44.09C51.3022 44.09 52.2322 44.474 52.9042 45.242C53.5762 45.998 53.9122 47.042 53.9122 48.374V48.932H47.3242C47.3722 49.928 47.6602 50.69 48.1882 51.218C48.7162 51.734 49.4482 51.992 50.3842 51.992C50.9122 51.992 51.4162 51.914 51.8962 51.758C52.3762 51.59 52.8322 51.32 53.2642 50.948L53.7682 51.974C53.3722 52.346 52.8682 52.64 52.2562 52.856C51.6442 53.06 51.0202 53.162 50.3842 53.162ZM50.1502 45.17C49.3222 45.17 48.6682 45.428 48.1882 45.944C47.7082 46.46 47.4262 47.138 47.3422 47.978H52.6522C52.6162 47.09 52.3822 46.4 51.9502 45.908C51.5302 45.416 50.9302 45.17 50.1502 45.17ZM58.7043 53.162C57.8163 53.162 57.1443 52.904 56.6883 52.388C56.2443 51.86 56.0223 51.098 56.0223 50.102V40.31H57.4803V49.994C57.4803 51.278 57.9903 51.92 59.0103 51.92C59.3103 51.92 59.5803 51.884 59.8203 51.812L59.7843 53.036C59.4123 53.12 59.0523 53.162 58.7043 53.162ZM64.9686 53.162C64.0926 53.162 63.3366 52.976 62.7006 52.604C62.0646 52.22 61.5726 51.686 61.2246 51.002C60.8886 50.306 60.7206 49.496 60.7206 48.572C60.7206 47.18 61.0986 46.088 61.8546 45.296C62.6106 44.492 63.6486 44.09 64.9686 44.09C65.5086 44.09 66.0426 44.186 66.5706 44.378C67.0986 44.57 67.5366 44.84 67.8846 45.188L67.3806 46.25C67.0326 45.914 66.6486 45.668 66.2286 45.512C65.8206 45.356 65.4306 45.278 65.0586 45.278C64.1466 45.278 63.4446 45.566 62.9526 46.142C62.4606 46.706 62.2146 47.522 62.2146 48.59C62.2146 49.634 62.4606 50.462 62.9526 51.074C63.4446 51.674 64.1466 51.974 65.0586 51.974C65.4306 51.974 65.8206 51.896 66.2286 51.74C66.6486 51.584 67.0326 51.332 67.3806 50.984L67.8846 52.046C67.5366 52.394 67.0926 52.67 66.5526 52.874C66.0246 53.066 65.4966 53.162 64.9686 53.162ZM73.1026 53.162C72.0706 53.162 71.2966 52.892 70.7806 52.352C70.2646 51.8 70.0066 51.008 70.0066 49.976V45.386H68.2966V44.252H70.0066V41.57H71.4646V44.252H74.2366V45.386H71.4646V49.832C71.4646 50.516 71.6086 51.038 71.8966 51.398C72.1846 51.746 72.6526 51.92 73.3006 51.92C73.4926 51.92 73.6846 51.896 73.8766 51.848C74.0686 51.8 74.2426 51.752 74.3986 51.704L74.6506 52.82C74.4946 52.904 74.2666 52.982 73.9666 53.054C73.6666 53.126 73.3786 53.162 73.1026 53.162ZM75.7056 42.074V40.436H77.5056V42.074H75.7056ZM75.8856 53V44.252H77.3436V53H75.8856ZM83.7052 53.162C82.8532 53.162 82.1152 52.976 81.4912 52.604C80.8672 52.232 80.3812 51.71 80.0332 51.038C79.6972 50.354 79.5292 49.55 79.5292 48.626C79.5292 47.702 79.6972 46.904 80.0332 46.232C80.3812 45.548 80.8672 45.02 81.4912 44.648C82.1152 44.276 82.8532 44.09 83.7052 44.09C84.5452 44.09 85.2772 44.276 85.9012 44.648C86.5372 45.02 87.0232 45.548 87.3592 46.232C87.7072 46.904 87.8812 47.702 87.8812 48.626C87.8812 49.55 87.7072 50.354 87.3592 51.038C87.0232 51.71 86.5372 52.232 85.9012 52.604C85.2772 52.976 84.5452 53.162 83.7052 53.162ZM83.7052 51.992C84.5212 51.992 85.1752 51.704 85.6672 51.128C86.1592 50.54 86.4052 49.706 86.4052 48.626C86.4052 47.534 86.1592 46.7 85.6672 46.124C85.1752 45.548 84.5212 45.26 83.7052 45.26C82.8772 45.26 82.2172 45.548 81.7252 46.124C81.2452 46.7 81.0052 47.534 81.0052 48.626C81.0052 49.706 81.2452 50.54 81.7252 51.128C82.2172 51.704 82.8772 51.992 83.7052 51.992ZM90.0711 53V44.252H91.4931V45.746C91.7811 45.194 92.1891 44.78 92.7171 44.504C93.2451 44.228 93.8391 44.09 94.4991 44.09C96.5751 44.09 97.6131 45.242 97.6131 47.546V53H96.1551V47.636C96.1551 46.82 95.9931 46.226 95.6691 45.854C95.3571 45.47 94.8531 45.278 94.1571 45.278C93.3531 45.278 92.7111 45.53 92.2311 46.034C91.7631 46.526 91.5291 47.186 91.5291 48.014V53H90.0711ZM105.141 53L105.789 49.724H104.187V48.662H105.987L106.797 44.504H104.547V43.442H106.977L107.607 40.31H108.741L108.129 43.442H110.991L111.603 40.31H112.755L112.143 43.442H113.727V44.504H111.927L111.117 48.662H113.367V49.724H110.937L110.289 53H109.137L109.767 49.724H106.923L106.293 53H105.141ZM107.121 48.662H109.965L110.793 44.504H107.931L107.121 48.662Z" fill="black"/>
<path d="M321.203 57.8488H301.797C300.888 57.8488 300.151 57.1118 300.151 56.2026V36.7974C300.151 35.8882 300.888 35.1512 301.797 35.1512H321.203C322.112 35.1512 322.849 35.8882 322.849 36.7974V56.2026C322.849 57.1118 322.112 57.8488 321.203 57.8488Z" stroke="#DADADA" stroke-width="2"/>
</g>
<g filter="url(#filter1_d_234_4338)">
<path d="M24 103C24 99.6863 26.6863 97 30 97H328C331.314 97 334 99.6863 334 103V141C334 144.314 331.314 147 328 147H30C26.6863 147 24 144.314 24 141V103Z" fill="#6B97ED"/>
<path d="M39.76 128.18C38.764 128.18 37.84 128.054 36.988 127.802C36.136 127.538 35.416 127.184 34.828 126.74L35.53 124.922C36.118 125.342 36.76 125.666 37.456 125.894C38.164 126.122 38.932 126.236 39.76 126.236C40.708 126.236 41.398 126.08 41.83 125.768C42.262 125.444 42.478 125.03 42.478 124.526C42.478 124.106 42.322 123.776 42.01 123.536C41.71 123.296 41.188 123.098 40.444 122.942L38.464 122.528C36.208 122.048 35.08 120.89 35.08 119.054C35.08 118.262 35.29 117.572 35.71 116.984C36.13 116.396 36.712 115.94 37.456 115.616C38.2 115.292 39.058 115.13 40.03 115.13C40.894 115.13 41.704 115.262 42.46 115.526C43.216 115.778 43.846 116.138 44.35 116.606L43.648 118.334C42.652 117.494 41.44 117.074 40.012 117.074C39.184 117.074 38.536 117.248 38.068 117.596C37.6 117.944 37.366 118.4 37.366 118.964C37.366 119.396 37.51 119.744 37.798 120.008C38.086 120.26 38.578 120.458 39.274 120.602L41.236 121.016C42.424 121.268 43.306 121.664 43.882 122.204C44.47 122.744 44.764 123.464 44.764 124.364C44.764 125.12 44.56 125.786 44.152 126.362C43.744 126.938 43.162 127.388 42.406 127.712C41.662 128.024 40.78 128.18 39.76 128.18ZM50.8635 128.18C49.8675 128.18 49.0095 127.994 48.2895 127.622C47.5695 127.25 47.0115 126.722 46.6155 126.038C46.2315 125.354 46.0395 124.544 46.0395 123.608C46.0395 122.696 46.2255 121.898 46.5975 121.214C46.9815 120.53 47.5035 119.996 48.1635 119.612C48.8355 119.216 49.5975 119.018 50.4495 119.018C51.6975 119.018 52.6815 119.414 53.4015 120.206C54.1335 120.998 54.4995 122.078 54.4995 123.446V124.112H48.1995C48.3675 125.684 49.2675 126.47 50.8995 126.47C51.3915 126.47 51.8835 126.398 52.3755 126.254C52.8675 126.098 53.3175 125.858 53.7255 125.534L54.3555 127.046C53.9355 127.394 53.4075 127.67 52.7715 127.874C52.1355 128.078 51.4995 128.18 50.8635 128.18ZM50.5395 120.548C49.8795 120.548 49.3455 120.752 48.9375 121.16C48.5295 121.568 48.2835 122.12 48.1995 122.816H52.6275C52.5795 122.084 52.3755 121.526 52.0155 121.142C51.6675 120.746 51.1755 120.548 50.5395 120.548ZM59.3413 128.18C58.2973 128.18 57.5233 127.898 57.0193 127.334C56.5273 126.758 56.2813 125.918 56.2813 124.814V115.31H58.5313V124.706C58.5313 125.786 58.9873 126.326 59.8993 126.326C60.0313 126.326 60.1633 126.32 60.2953 126.308C60.4273 126.296 60.5533 126.272 60.6733 126.236L60.6373 128.018C60.2053 128.126 59.7733 128.18 59.3413 128.18ZM66.0095 128.18C65.0855 128.18 64.2815 127.994 63.5975 127.622C62.9135 127.238 62.3855 126.698 62.0135 126.002C61.6415 125.306 61.4555 124.49 61.4555 123.554C61.4555 122.618 61.6415 121.814 62.0135 121.142C62.3855 120.458 62.9135 119.936 63.5975 119.576C64.2815 119.204 65.0855 119.018 66.0095 119.018C66.5735 119.018 67.1315 119.108 67.6835 119.288C68.2355 119.468 68.6915 119.72 69.0515 120.044L68.3855 121.61C68.0735 121.334 67.7195 121.124 67.3235 120.98C66.9395 120.836 66.5675 120.764 66.2075 120.764C65.4275 120.764 64.8215 121.01 64.3895 121.502C63.9695 121.982 63.7595 122.672 63.7595 123.572C63.7595 124.46 63.9695 125.162 64.3895 125.678C64.8215 126.182 65.4275 126.434 66.2075 126.434C66.5555 126.434 66.9275 126.362 67.3235 126.218C67.7195 126.074 68.0735 125.858 68.3855 125.57L69.0515 127.154C68.6915 127.466 68.2295 127.718 67.6655 127.91C67.1135 128.09 66.5615 128.18 66.0095 128.18ZM74.4989 128.18C72.1709 128.18 71.0069 127.028 71.0069 124.724V120.89H69.3149V119.198H71.0069V116.57H73.2569V119.198H75.9209V120.89H73.2569V124.598C73.2569 125.174 73.3829 125.606 73.6349 125.894C73.8869 126.182 74.2949 126.326 74.8589 126.326C75.0269 126.326 75.2009 126.308 75.3809 126.272C75.5609 126.224 75.7469 126.176 75.9389 126.128L76.2809 127.784C76.0649 127.904 75.7889 128 75.4529 128.072C75.1289 128.144 74.8109 128.18 74.4989 128.18ZM77.2311 117.308V115.112H79.7511V117.308H77.2311ZM77.3751 128V119.198H79.6251V128H77.3751ZM85.977 128.18C85.065 128.18 84.273 127.994 83.601 127.622C82.929 127.25 82.407 126.722 82.035 126.038C81.663 125.342 81.477 124.526 81.477 123.59C81.477 122.654 81.663 121.844 82.035 121.16C82.407 120.476 82.929 119.948 83.601 119.576C84.273 119.204 85.065 119.018 85.977 119.018C86.889 119.018 87.681 119.204 88.353 119.576C89.025 119.948 89.547 120.476 89.919 121.16C90.291 121.844 90.477 122.654 90.477 123.59C90.477 124.526 90.291 125.342 89.919 126.038C89.547 126.722 89.025 127.25 88.353 127.622C87.681 127.994 86.889 128.18 85.977 128.18ZM85.977 126.47C86.649 126.47 87.189 126.23 87.597 125.75C88.005 125.258 88.209 124.538 88.209 123.59C88.209 122.63 88.005 121.916 87.597 121.448C87.189 120.968 86.649 120.728 85.977 120.728C85.305 120.728 84.765 120.968 84.357 121.448C83.949 121.916 83.745 122.63 83.745 123.59C83.745 124.538 83.949 125.258 84.357 125.75C84.765 126.23 85.305 126.47 85.977 126.47ZM92.3341 128V119.198H94.5301V120.566C94.8301 120.062 95.2321 119.678 95.7361 119.414C96.2521 119.15 96.8281 119.018 97.4641 119.018C99.5401 119.018 100.578 120.224 100.578 122.636V128H98.3281V122.744C98.3281 122.06 98.1961 121.562 97.9321 121.25C97.6801 120.938 97.2841 120.782 96.7441 120.782C96.0841 120.782 95.5561 120.992 95.1601 121.412C94.7761 121.82 94.5841 122.366 94.5841 123.05V128H92.3341ZM108.003 128L108.615 124.904H107.337V123.464H108.885L109.623 119.702H107.715V118.262H109.875L110.469 115.31H112.035L111.441 118.262H113.709L114.303 115.31H115.869L115.275 118.262H116.553V119.702H115.005L114.267 123.464H116.175V124.904H114.015L113.403 128H111.837L112.449 124.904H110.181L109.569 128H108.003ZM110.451 123.464H112.701L113.439 119.702H111.189L110.451 123.464Z" fill="white"/>
<path d="M321.203 133.849H301.797C300.336 133.849 299.151 132.664 299.151 131.203V111.797C299.151 110.336 300.336 109.151 301.797 109.151H321.203C322.664 109.151 323.849 110.336 323.849 111.797V131.203C323.849 132.664 322.664 133.849 321.203 133.849Z" fill="white"/>
<path fill-rule="evenodd" clip-rule="evenodd" d="M320.549 117.586L310.406 127.73C310.061 128.075 309.503 128.075 309.158 127.73L303.425 121.997C303.081 121.652 303.081 121.094 303.425 120.749L304.672 119.502C305.017 119.157 305.575 119.157 305.92 119.502L309.782 123.364L318.055 115.092C318.399 114.747 318.958 114.747 319.302 115.092L320.549 116.339C320.894 116.684 320.894 117.242 320.549 117.586Z" fill="#6B97ED"/>
</g>
<defs>
<filter id="filter0_d_234_4338" x="20" y="20" width="318" height="58" filterUnits="userSpaceOnUse" color-interpolation-filters="sRGB">
<feFlood flood-opacity="0" result="BackgroundImageFix"/>
<feColorMatrix in="SourceAlpha" type="matrix" values="0 0 0 0 0 0 0 0 0 0 0 0 0 0 0 0 0 0 127 0" result="hardAlpha"/>
<feOffset dy="2"/>
<feGaussianBlur stdDeviation="2"/>
<feComposite in2="hardAlpha" operator="out"/>
<feColorMatrix type="matrix" values="0 0 0 0 0 0 0 0 0 0 0 0 0 0 0 0 0 0 0.1 0"/>
<feBlend mode="normal" in2="BackgroundImageFix" result="effect1_dropShadow_234_4338"/>
<feBlend mode="normal" in="SourceGraphic" in2="effect1_dropShadow_234_4338" result="shape"/>
</filter>
<filter id="filter1_d_234_4338" x="20" y="95" width="318" height="58" filterUnits="userSpaceOnUse" color-interpolation-filters="sRGB">
<feFlood flood-opacity="0" result="BackgroundImageFix"/>
<feColorMatrix in="SourceAlpha" type="matrix" values="0 0 0 0 0 0 0 0 0 0 0 0 0 0 0 0 0 0 127 0" result="hardAlpha"/>
<feOffset dy="2"/>
<feGaussianBlur stdDeviation="2"/>
<feComposite in2="hardAlpha" operator="out"/>
<feColorMatrix type="matrix" values="0 0 0 0 0 0 0 0 0 0 0 0 0 0 0 0 0 0 0.1 0"/>
<feBlend mode="normal" in2="BackgroundImageFix" result="effect1_dropShadow_234_4338"/>
<feBlend mode="normal" in="SourceGraphic" in2="effect1_dropShadow_234_4338" result="shape"/>
</filter>
</defs>
</svg>
