<svg width="182" height="90" viewBox="0 0 182 90" fill="none" xmlns="http://www.w3.org/2000/svg">
<path d="M47.5342 83.126C47.0422 83.126 46.7962 82.868 46.7962 82.352V71.588H42.7462C42.2902 71.588 42.0622 71.372 42.0622 70.94C42.0622 70.52 42.2902 70.31 42.7462 70.31H52.3402C52.7962 70.31 53.0242 70.52 53.0242 70.94C53.0242 71.372 52.7962 71.588 52.3402 71.588H48.2902V82.352C48.2902 82.868 48.0382 83.126 47.5342 83.126ZM55.5069 72.146C54.8709 72.146 54.5529 71.846 54.5529 71.246C54.5529 70.658 54.8709 70.364 55.5069 70.364C56.1429 70.364 56.4609 70.658 56.4609 71.246C56.4609 71.846 56.1429 72.146 55.5069 72.146ZM55.5069 83.09C55.0269 83.09 54.7869 82.826 54.7869 82.298V74.936C54.7869 74.42 55.0269 74.162 55.5069 74.162C55.9989 74.162 56.2449 74.42 56.2449 74.936V82.298C56.2449 82.826 55.9989 83.09 55.5069 83.09ZM59.7265 83.126C59.2465 83.126 59.0065 82.874 59.0065 82.37V74.864C59.0065 74.372 59.2405 74.126 59.7085 74.126C60.1885 74.126 60.4285 74.372 60.4285 74.864V75.728C60.6925 75.2 61.0585 74.798 61.5265 74.522C61.9945 74.234 62.5405 74.09 63.1645 74.09C64.5325 74.09 65.4085 74.684 65.7925 75.872C66.0565 75.32 66.4465 74.888 66.9625 74.576C67.4785 74.252 68.0725 74.09 68.7445 74.09C70.6885 74.09 71.6605 75.242 71.6605 77.546V82.37C71.6605 82.874 71.4145 83.126 70.9225 83.126C70.4425 83.126 70.2025 82.874 70.2025 82.37V77.618C70.2025 76.814 70.0585 76.226 69.7705 75.854C69.4945 75.47 69.0325 75.278 68.3845 75.278C67.6765 75.278 67.1125 75.53 66.6925 76.034C66.2725 76.538 66.0625 77.21 66.0625 78.05V82.37C66.0625 82.874 65.8165 83.126 65.3245 83.126C64.8445 83.126 64.6045 82.874 64.6045 82.37V77.618C64.6045 76.814 64.4605 76.226 64.1725 75.854C63.8965 75.47 63.4345 75.278 62.7865 75.278C62.0665 75.278 61.4965 75.53 61.0765 76.034C60.6685 76.538 60.4645 77.21 60.4645 78.05V82.37C60.4645 82.874 60.2185 83.126 59.7265 83.126ZM78.3286 83.162C76.9486 83.162 75.8566 82.76 75.0526 81.956C74.2486 81.14 73.8466 80.036 73.8466 78.644C73.8466 77.744 74.0266 76.952 74.3866 76.268C74.7466 75.572 75.2386 75.038 75.8626 74.666C76.4986 74.282 77.2306 74.09 78.0586 74.09C79.2466 74.09 80.1766 74.474 80.8486 75.242C81.5206 75.998 81.8566 77.042 81.8566 78.374C81.8566 78.746 81.6466 78.932 81.2266 78.932H75.2686C75.3166 79.928 75.6046 80.69 76.1326 81.218C76.6606 81.734 77.3926 81.992 78.3286 81.992C78.7246 81.992 79.1266 81.944 79.5346 81.848C79.9426 81.74 80.3386 81.554 80.7226 81.29C80.9986 81.11 81.2266 81.074 81.4066 81.182C81.5986 81.29 81.6946 81.458 81.6946 81.686C81.7066 81.902 81.5866 82.094 81.3346 82.262C80.9386 82.55 80.4646 82.772 79.9126 82.928C79.3726 83.084 78.8446 83.162 78.3286 83.162ZM78.0946 75.17C77.2666 75.17 76.6126 75.428 76.1326 75.944C75.6526 76.46 75.3706 77.138 75.2866 77.978H80.5966C80.5606 77.09 80.3266 76.4 79.8946 75.908C79.4746 75.416 78.8746 75.17 78.0946 75.17ZM89.5433 83.126C89.0513 83.126 88.8053 82.868 88.8053 82.352V71.066C88.8053 70.562 89.0573 70.31 89.5613 70.31H93.8273C95.1953 70.31 96.2393 70.628 96.9593 71.264C97.6913 71.9 98.0573 72.806 98.0573 73.982C98.0573 74.918 97.7993 75.686 97.2833 76.286C96.7793 76.886 96.0593 77.276 95.1233 77.456C95.6753 77.648 96.1493 78.116 96.5453 78.86L98.2733 82.082C98.4053 82.334 98.4293 82.574 98.3453 82.802C98.2613 83.018 98.0693 83.126 97.7693 83.126C97.5653 83.126 97.3973 83.084 97.2653 83C97.1333 82.904 97.0193 82.76 96.9233 82.568L94.9613 78.932C94.6853 78.416 94.3673 78.074 94.0073 77.906C93.6473 77.726 93.1733 77.636 92.5853 77.636H90.2813V82.352C90.2813 82.868 90.0353 83.126 89.5433 83.126ZM90.2813 76.466H93.6113C95.6033 76.466 96.5993 75.638 96.5993 73.982C96.5993 72.35 95.6033 71.534 93.6113 71.534H90.2813V76.466ZM104.397 83.162C103.017 83.162 101.925 82.76 101.121 81.956C100.317 81.14 99.9149 80.036 99.9149 78.644C99.9149 77.744 100.095 76.952 100.455 76.268C100.815 75.572 101.307 75.038 101.931 74.666C102.567 74.282 103.299 74.09 104.127 74.09C105.315 74.09 106.245 74.474 106.917 75.242C107.589 75.998 107.925 77.042 107.925 78.374C107.925 78.746 107.715 78.932 107.295 78.932H101.337C101.385 79.928 101.673 80.69 102.201 81.218C102.729 81.734 103.461 81.992 104.397 81.992C104.793 81.992 105.195 81.944 105.603 81.848C106.011 81.74 106.407 81.554 106.791 81.29C107.067 81.11 107.295 81.074 107.475 81.182C107.667 81.29 107.763 81.458 107.763 81.686C107.775 81.902 107.655 82.094 107.403 82.262C107.007 82.55 106.533 82.772 105.981 82.928C105.441 83.084 104.913 83.162 104.397 83.162ZM104.163 75.17C103.335 75.17 102.681 75.428 102.201 75.944C101.721 76.46 101.439 77.138 101.355 77.978H106.665C106.629 77.09 106.395 76.4 105.963 75.908C105.543 75.416 104.943 75.17 104.163 75.17ZM112.987 83.162C112.447 83.162 111.901 83.096 111.349 82.964C110.809 82.82 110.305 82.592 109.837 82.28C109.621 82.148 109.513 81.98 109.513 81.776C109.525 81.56 109.609 81.392 109.765 81.272C109.921 81.152 110.119 81.152 110.359 81.272C110.827 81.56 111.277 81.764 111.709 81.884C112.153 81.992 112.591 82.046 113.023 82.046C113.707 82.046 114.223 81.92 114.571 81.668C114.919 81.416 115.093 81.074 115.093 80.642C115.093 80.306 114.979 80.042 114.751 79.85C114.523 79.646 114.163 79.49 113.671 79.382L112.033 79.022C110.545 78.698 109.801 77.93 109.801 76.718C109.801 75.926 110.113 75.29 110.737 74.81C111.373 74.33 112.201 74.09 113.221 74.09C113.737 74.09 114.235 74.162 114.715 74.306C115.195 74.438 115.627 74.654 116.011 74.954C116.215 75.098 116.305 75.272 116.281 75.476C116.257 75.68 116.161 75.842 115.993 75.962C115.837 76.07 115.645 76.052 115.417 75.908C115.057 75.668 114.691 75.494 114.319 75.386C113.947 75.266 113.581 75.206 113.221 75.206C112.549 75.206 112.039 75.338 111.691 75.602C111.343 75.866 111.169 76.214 111.169 76.646C111.169 77.318 111.613 77.75 112.501 77.942L114.139 78.284C114.907 78.452 115.489 78.722 115.885 79.094C116.281 79.454 116.479 79.946 116.479 80.57C116.479 81.374 116.161 82.01 115.525 82.478C114.889 82.934 114.043 83.162 112.987 83.162ZM121.797 83.162C119.697 83.162 118.647 82.004 118.647 79.688V74.864C118.647 74.372 118.887 74.126 119.367 74.126C119.859 74.126 120.105 74.372 120.105 74.864V79.67C120.105 80.45 120.261 81.026 120.573 81.398C120.897 81.77 121.401 81.956 122.085 81.956C122.829 81.956 123.435 81.71 123.903 81.218C124.371 80.714 124.605 80.048 124.605 79.22V74.864C124.605 74.372 124.851 74.126 125.343 74.126C125.823 74.126 126.063 74.372 126.063 74.864V82.37C126.063 82.874 125.829 83.126 125.361 83.126C124.881 83.126 124.641 82.874 124.641 82.37V81.524C124.365 82.052 123.975 82.46 123.471 82.748C122.979 83.024 122.421 83.162 121.797 83.162ZM131.455 83.162C130.591 83.162 129.931 82.904 129.475 82.388C129.019 81.86 128.791 81.098 128.791 80.102V70.922C128.791 70.43 129.031 70.184 129.511 70.184C130.003 70.184 130.249 70.43 130.249 70.922V79.994C130.249 81.278 130.759 81.92 131.779 81.92C131.887 81.92 131.983 81.914 132.067 81.902C132.151 81.89 132.235 81.884 132.319 81.884C132.451 81.872 132.541 81.902 132.589 81.974C132.649 82.046 132.679 82.19 132.679 82.406C132.679 82.814 132.475 83.048 132.067 83.108C131.971 83.132 131.869 83.144 131.761 83.144C131.653 83.156 131.551 83.162 131.455 83.162ZM137.469 83.162C136.437 83.162 135.663 82.892 135.147 82.352C134.631 81.8 134.373 81.008 134.373 79.976V75.386H133.167C132.747 75.386 132.537 75.194 132.537 74.81C132.537 74.438 132.747 74.252 133.167 74.252H134.373V72.182C134.373 71.69 134.619 71.444 135.111 71.444C135.591 71.444 135.831 71.69 135.831 72.182V74.252H138.099C138.519 74.252 138.729 74.438 138.729 74.81C138.729 75.194 138.519 75.386 138.099 75.386H135.831V79.832C135.831 80.516 135.975 81.038 136.263 81.398C136.551 81.746 137.019 81.92 137.667 81.92C137.895 81.92 138.087 81.896 138.243 81.848C138.399 81.8 138.537 81.776 138.657 81.776C138.765 81.764 138.855 81.8 138.927 81.884C138.999 81.968 139.035 82.112 139.035 82.316C139.035 82.46 139.005 82.592 138.945 82.712C138.897 82.832 138.807 82.916 138.675 82.964C138.531 83.012 138.339 83.054 138.099 83.09C137.871 83.138 137.661 83.162 137.469 83.162Z" fill="black"/>
<g filter="url(#filter0_d_183_1207)">
<path d="M16.0093 48.48C14.2813 48.48 12.4893 48.256 10.6333 47.808C8.77725 47.36 7.16125 46.688 5.78525 45.792C4.98525 45.248 4.50525 44.64 4.34525 43.968C4.18525 43.264 4.26525 42.64 4.58525 42.096C4.90525 41.52 5.38525 41.136 6.02525 40.944C6.69725 40.752 7.44925 40.88 8.28125 41.328C9.59325 42.032 10.8573 42.544 12.0733 42.864C13.2893 43.152 14.5373 43.296 15.8173 43.296C20.1373 43.296 22.2973 41.6 22.2973 38.208C22.2973 36.608 21.7533 35.424 20.6653 34.656C19.6093 33.856 18.0573 33.456 16.0093 33.456H12.9373C12.0413 33.456 11.3533 33.232 10.8733 32.784C10.4253 32.336 10.2013 31.712 10.2013 30.912C10.2013 30.112 10.4253 29.488 10.8733 29.04C11.3533 28.592 12.0413 28.368 12.9373 28.368H15.4333C17.2253 28.368 18.6493 27.936 19.7053 27.072C20.7613 26.176 21.2893 24.944 21.2893 23.376C21.2893 21.904 20.7933 20.784 19.8013 20.016C18.8413 19.248 17.4333 18.864 15.5773 18.864C14.3933 18.864 13.2733 19.008 12.2173 19.296C11.1933 19.552 10.0573 20.048 8.80925 20.784C8.07325 21.232 7.40125 21.36 6.79325 21.168C6.18525 20.944 5.70525 20.56 5.35325 20.016C5.03325 19.44 4.93725 18.816 5.06525 18.144C5.19325 17.472 5.64125 16.896 6.40925 16.416C9.22525 14.592 12.4573 13.68 16.1053 13.68C19.6253 13.68 22.3613 14.48 24.3133 16.08C26.2653 17.648 27.2413 19.84 27.2413 22.656C27.2413 24.48 26.7773 26.08 25.8493 27.456C24.9213 28.832 23.6573 29.824 22.0573 30.432C24.0093 30.976 25.5293 31.984 26.6173 33.456C27.7053 34.896 28.2493 36.656 28.2493 38.736C28.2493 41.744 27.1613 44.128 24.9853 45.888C22.8093 47.616 19.8173 48.48 16.0093 48.48ZM45.4625 48.48C41.4625 48.48 38.4065 46.976 36.2945 43.968C34.1825 40.928 33.1265 36.608 33.1265 31.008C33.1265 25.344 34.1825 21.04 36.2945 18.096C38.4065 15.152 41.4625 13.68 45.4625 13.68C49.4945 13.68 52.5505 15.152 54.6305 18.096C56.7425 21.04 57.7985 25.328 57.7985 30.96C57.7985 36.592 56.7425 40.928 54.6305 43.968C52.5185 46.976 49.4625 48.48 45.4625 48.48ZM45.4625 43.44C47.6385 43.44 49.2385 42.432 50.2625 40.416C51.3185 38.4 51.8465 35.248 51.8465 30.96C51.8465 26.672 51.3185 23.568 50.2625 21.648C49.2385 19.696 47.6385 18.72 45.4625 18.72C43.3185 18.72 41.7185 19.696 40.6625 21.648C39.6065 23.568 39.0785 26.672 39.0785 30.96C39.0785 35.248 39.6065 38.4 40.6625 40.416C41.7185 42.432 43.3185 43.44 45.4625 43.44ZM79.067 48.384C77.083 48.384 76.091 47.36 76.091 45.312V27.168C76.091 25.152 77.067 24.144 79.019 24.144C80.971 24.144 81.947 25.152 81.947 27.168V28.128C82.651 26.848 83.627 25.856 84.875 25.152C86.123 24.416 87.563 24.048 89.195 24.048C92.715 24.048 95.019 25.584 96.107 28.656C96.843 27.216 97.899 26.096 99.275 25.296C100.651 24.464 102.219 24.048 103.979 24.048C109.259 24.048 111.899 27.264 111.899 33.696V45.312C111.899 47.36 110.891 48.384 108.875 48.384C106.891 48.384 105.899 47.36 105.899 45.312V33.936C105.899 32.144 105.595 30.832 104.987 30C104.411 29.168 103.419 28.752 102.011 28.752C100.443 28.752 99.211 29.312 98.315 30.432C97.419 31.52 96.971 33.04 96.971 34.992V45.312C96.971 47.36 95.979 48.384 93.995 48.384C91.979 48.384 90.971 47.36 90.971 45.312V33.936C90.971 32.144 90.667 30.832 90.059 30C89.483 29.168 88.507 28.752 87.131 28.752C85.563 28.752 84.331 29.312 83.435 30.432C82.539 31.52 82.091 33.04 82.091 34.992V45.312C82.091 47.36 81.083 48.384 79.067 48.384ZM121.065 19.728C119.945 19.728 119.065 19.456 118.425 18.912C117.817 18.336 117.513 17.552 117.513 16.56C117.513 15.536 117.817 14.752 118.425 14.208C119.065 13.664 119.945 13.392 121.065 13.392C123.433 13.392 124.617 14.448 124.617 16.56C124.617 18.672 123.433 19.728 121.065 19.728ZM121.065 48.336C120.105 48.336 119.369 48.048 118.857 47.472C118.345 46.896 118.089 46.096 118.089 45.072V27.456C118.089 25.28 119.081 24.192 121.065 24.192C123.081 24.192 124.089 25.28 124.089 27.456V45.072C124.089 46.096 123.833 46.896 123.321 47.472C122.809 48.048 122.057 48.336 121.065 48.336ZM133.299 48.384C131.315 48.384 130.323 47.36 130.323 45.312V27.168C130.323 25.152 131.299 24.144 133.251 24.144C135.203 24.144 136.179 25.152 136.179 27.168V28.176C136.979 26.832 138.051 25.808 139.395 25.104C140.771 24.4 142.307 24.048 144.003 24.048C149.539 24.048 152.307 27.264 152.307 33.696V45.312C152.307 47.36 151.315 48.384 149.331 48.384C147.315 48.384 146.307 47.36 146.307 45.312V33.984C146.307 32.16 145.955 30.832 145.251 30C144.579 29.168 143.523 28.752 142.083 28.752C140.323 28.752 138.915 29.312 137.859 30.432C136.835 31.52 136.323 32.976 136.323 34.8V45.312C136.323 47.36 135.315 48.384 133.299 48.384ZM166.993 48.48C165.617 48.48 164.161 48.336 162.625 48.048C161.089 47.76 159.713 47.264 158.497 46.56C157.825 46.176 157.409 45.712 157.249 45.168C157.089 44.592 157.105 44.064 157.297 43.584C157.521 43.072 157.873 42.704 158.353 42.48C158.865 42.256 159.457 42.304 160.129 42.624C161.409 43.232 162.609 43.664 163.729 43.92C164.849 44.144 165.953 44.256 167.041 44.256C168.577 44.256 169.713 44 170.449 43.488C171.217 42.944 171.601 42.24 171.601 41.376C171.601 40.032 170.609 39.168 168.625 38.784L163.825 37.872C159.761 37.104 157.729 34.992 157.729 31.536C157.729 30 158.145 28.672 158.977 27.552C159.841 26.432 161.025 25.568 162.529 24.96C164.033 24.352 165.761 24.048 167.713 24.048C170.529 24.048 173.041 24.672 175.249 25.92C175.857 26.24 176.209 26.688 176.305 27.264C176.433 27.808 176.369 28.336 176.113 28.848C175.889 29.328 175.521 29.68 175.009 29.904C174.497 30.096 173.905 30.032 173.233 29.712C172.241 29.2 171.281 28.832 170.353 28.608C169.457 28.384 168.593 28.272 167.761 28.272C166.193 28.272 165.025 28.544 164.257 29.088C163.521 29.632 163.153 30.352 163.153 31.248C163.153 32.656 164.065 33.52 165.889 33.84L170.689 34.752C172.769 35.136 174.337 35.84 175.393 36.864C176.481 37.888 177.025 39.264 177.025 40.992C177.025 43.328 176.113 45.168 174.289 46.512C172.465 47.824 170.033 48.48 166.993 48.48Z" fill="black"/>
</g>
<defs>
<filter id="filter0_d_183_1207" x="0.105225" y="13.392" width="180.92" height="43.088" filterUnits="userSpaceOnUse" color-interpolation-filters="sRGB">
<feFlood flood-opacity="0" result="BackgroundImageFix"/>
<feColorMatrix in="SourceAlpha" type="matrix" values="0 0 0 0 0 0 0 0 0 0 0 0 0 0 0 0 0 0 127 0" result="hardAlpha"/>
<feOffset dy="4"/>
<feGaussianBlur stdDeviation="2"/>
<feComposite in2="hardAlpha" operator="out"/>
<feColorMatrix type="matrix" values="0 0 0 0 0 0 0 0 0 0 0 0 0 0 0 0 0 0 0.25 0"/>
<feBlend mode="normal" in2="BackgroundImageFix" result="effect1_dropShadow_183_1207"/>
<feBlend mode="normal" in="SourceGraphic" in2="effect1_dropShadow_183_1207" result="shape"/>
</filter>
</defs>
</svg>
