<svg width="163" height="81" viewBox="0 0 163 81" fill="none" xmlns="http://www.w3.org/2000/svg">
<rect x="38.5" y="0.5" width="46" height="19" rx="4.5" fill="white" stroke="#11263A"/>
<path d="M50.0934 15V13.88H52.6694V5.304L50.6374 6.584L50.0774 5.608L53.0374 3.72H53.9814V13.88H56.3974V15H50.0934ZM59.1431 15V14.008L62.9991 9.848C63.5431 9.25067 63.9325 8.70667 64.1671 8.216C64.4125 7.72533 64.5351 7.224 64.5351 6.712C64.5351 5.4 63.7725 4.744 62.2471 4.744C61.1058 4.744 60.0978 5.17067 59.2231 6.024L58.7271 5C59.1431 4.57333 59.6711 4.232 60.3111 3.976C60.9618 3.70933 61.6445 3.576 62.3591 3.576C63.4898 3.576 64.3538 3.84267 64.9511 4.376C65.5591 4.89867 65.8631 5.64533 65.8631 6.616C65.8631 7.288 65.6978 7.94933 65.3671 8.6C65.0365 9.24 64.5298 9.92267 63.8471 10.648L60.8231 13.88H66.3271V15H59.1431ZM72.0969 15.144C70.8062 15.144 69.8249 14.648 69.1529 13.656C68.4809 12.664 68.1449 11.2293 68.1449 9.352C68.1449 7.464 68.4809 6.02933 69.1529 5.048C69.8249 4.06667 70.8062 3.576 72.0969 3.576C73.3982 3.576 74.3795 4.06667 75.0409 5.048C75.7129 6.01867 76.0489 7.448 76.0489 9.336C76.0489 11.224 75.7075 12.664 75.0249 13.656C74.3529 14.648 73.3769 15.144 72.0969 15.144ZM72.0969 14.008C72.9929 14.008 73.6542 13.6293 74.0809 12.872C74.5182 12.1147 74.7369 10.936 74.7369 9.336C74.7369 7.736 74.5235 6.568 74.0969 5.832C73.6702 5.08533 73.0035 4.712 72.0969 4.712C71.2009 4.712 70.5342 5.08533 70.0969 5.832C69.6702 6.57867 69.4569 7.74667 69.4569 9.336C69.4569 10.936 69.6702 12.1147 70.0969 12.872C70.5342 13.6293 71.2009 14.008 72.0969 14.008Z" fill="black"/>
<path d="M94.6386 14V6.224H95.9026V7.536C96.1373 7.06667 96.4626 6.70933 96.8786 6.464C97.2946 6.208 97.78 6.08 98.3346 6.08C99.5506 6.08 100.329 6.608 100.671 7.664C100.905 7.17333 101.252 6.78933 101.711 6.512C102.169 6.224 102.697 6.08 103.295 6.08C105.023 6.08 105.887 7.104 105.887 9.152V14H104.591V9.216C104.591 8.50133 104.463 7.97867 104.207 7.648C103.961 7.30667 103.551 7.136 102.975 7.136C102.345 7.136 101.844 7.36 101.471 7.808C101.097 8.256 100.911 8.85333 100.911 9.6V14H99.6146V9.216C99.6146 8.50133 99.4866 7.97867 99.2306 7.648C98.9853 7.30667 98.5746 7.136 97.9986 7.136C97.3586 7.136 96.852 7.36 96.4786 7.808C96.116 8.256 95.9346 8.85333 95.9346 9.6V14H94.6386ZM108.15 4.288V2.832H109.75V4.288H108.15ZM108.31 14V6.224H109.606V14H108.31ZM112.029 14V6.224H113.293V7.552C113.549 7.06133 113.911 6.69333 114.381 6.448C114.85 6.20267 115.378 6.08 115.965 6.08C117.81 6.08 118.733 7.104 118.733 9.152V14H117.437V9.232C117.437 8.50667 117.293 7.97867 117.005 7.648C116.727 7.30667 116.279 7.136 115.661 7.136C114.946 7.136 114.375 7.36 113.949 7.808C113.533 8.24533 113.325 8.832 113.325 9.568V14H112.029ZM123.746 14.144C123.138 14.144 122.562 14.0587 122.018 13.888C121.474 13.7173 121.026 13.4773 120.674 13.168L121.09 12.256C121.474 12.5653 121.896 12.7947 122.354 12.944C122.824 13.0827 123.298 13.152 123.778 13.152C124.386 13.152 124.845 13.04 125.154 12.816C125.464 12.592 125.618 12.288 125.618 11.904C125.618 11.6053 125.517 11.3707 125.314 11.2C125.112 11.0187 124.792 10.88 124.354 10.784L122.898 10.464C121.576 10.176 120.914 9.49333 120.914 8.416C120.914 7.712 121.192 7.14667 121.746 6.72C122.312 6.29333 123.048 6.08 123.954 6.08C124.488 6.08 124.994 6.16533 125.474 6.336C125.965 6.496 126.37 6.736 126.69 7.056L126.258 7.968C125.949 7.68 125.586 7.46133 125.17 7.312C124.765 7.152 124.36 7.072 123.954 7.072C123.357 7.072 122.904 7.18933 122.594 7.424C122.285 7.65867 122.13 7.968 122.13 8.352C122.13 8.94933 122.525 9.33333 123.314 9.504L124.77 9.808C125.453 9.95733 125.97 10.1973 126.322 10.528C126.674 10.848 126.85 11.2853 126.85 11.84C126.85 12.5547 126.568 13.12 126.002 13.536C125.437 13.9413 124.685 14.144 123.746 14.144Z" fill="black"/>
<path d="M14.8477 49.126C14.3557 49.126 14.1097 48.868 14.1097 48.352V37.588H10.0597C9.60369 37.588 9.37569 37.372 9.37569 36.94C9.37569 36.52 9.60369 36.31 10.0597 36.31H19.6537C20.1097 36.31 20.3377 36.52 20.3377 36.94C20.3377 37.372 20.1097 37.588 19.6537 37.588H15.6037V48.352C15.6037 48.868 15.3517 49.126 14.8477 49.126ZM22.8204 38.146C22.1844 38.146 21.8664 37.846 21.8664 37.246C21.8664 36.658 22.1844 36.364 22.8204 36.364C23.4564 36.364 23.7744 36.658 23.7744 37.246C23.7744 37.846 23.4564 38.146 22.8204 38.146ZM22.8204 49.09C22.3404 49.09 22.1004 48.826 22.1004 48.298V40.936C22.1004 40.42 22.3404 40.162 22.8204 40.162C23.3124 40.162 23.5584 40.42 23.5584 40.936V48.298C23.5584 48.826 23.3124 49.09 22.8204 49.09ZM27.04 49.126C26.56 49.126 26.32 48.874 26.32 48.37V40.864C26.32 40.372 26.554 40.126 27.022 40.126C27.502 40.126 27.742 40.372 27.742 40.864V41.728C28.006 41.2 28.372 40.798 28.84 40.522C29.308 40.234 29.854 40.09 30.478 40.09C31.846 40.09 32.722 40.684 33.106 41.872C33.37 41.32 33.76 40.888 34.276 40.576C34.792 40.252 35.386 40.09 36.058 40.09C38.002 40.09 38.974 41.242 38.974 43.546V48.37C38.974 48.874 38.728 49.126 38.236 49.126C37.756 49.126 37.516 48.874 37.516 48.37V43.618C37.516 42.814 37.372 42.226 37.084 41.854C36.808 41.47 36.346 41.278 35.698 41.278C34.99 41.278 34.426 41.53 34.006 42.034C33.586 42.538 33.376 43.21 33.376 44.05V48.37C33.376 48.874 33.13 49.126 32.638 49.126C32.158 49.126 31.918 48.874 31.918 48.37V43.618C31.918 42.814 31.774 42.226 31.486 41.854C31.21 41.47 30.748 41.278 30.1 41.278C29.38 41.278 28.81 41.53 28.39 42.034C27.982 42.538 27.778 43.21 27.778 44.05V48.37C27.778 48.874 27.532 49.126 27.04 49.126ZM45.642 49.162C44.262 49.162 43.17 48.76 42.366 47.956C41.562 47.14 41.16 46.036 41.16 44.644C41.16 43.744 41.34 42.952 41.7 42.268C42.06 41.572 42.552 41.038 43.176 40.666C43.812 40.282 44.544 40.09 45.372 40.09C46.56 40.09 47.49 40.474 48.162 41.242C48.834 41.998 49.17 43.042 49.17 44.374C49.17 44.746 48.96 44.932 48.54 44.932H42.582C42.63 45.928 42.918 46.69 43.446 47.218C43.974 47.734 44.706 47.992 45.642 47.992C46.038 47.992 46.44 47.944 46.848 47.848C47.256 47.74 47.652 47.554 48.036 47.29C48.312 47.11 48.54 47.074 48.72 47.182C48.912 47.29 49.008 47.458 49.008 47.686C49.02 47.902 48.9 48.094 48.648 48.262C48.252 48.55 47.778 48.772 47.226 48.928C46.686 49.084 46.158 49.162 45.642 49.162ZM45.408 41.17C44.58 41.17 43.926 41.428 43.446 41.944C42.966 42.46 42.684 43.138 42.6 43.978H47.91C47.874 43.09 47.64 42.4 47.208 41.908C46.788 41.416 46.188 41.17 45.408 41.17ZM56.6407 38.146C56.0047 38.146 55.6867 37.846 55.6867 37.246C55.6867 36.658 56.0047 36.364 56.6407 36.364C57.2767 36.364 57.5947 36.658 57.5947 37.246C57.5947 37.846 57.2767 38.146 56.6407 38.146ZM56.6407 49.09C56.1607 49.09 55.9207 48.826 55.9207 48.298V40.936C55.9207 40.42 56.1607 40.162 56.6407 40.162C57.1327 40.162 57.3787 40.42 57.3787 40.936V48.298C57.3787 48.826 57.1327 49.09 56.6407 49.09ZM60.8243 49.126C60.3443 49.126 60.1043 48.874 60.1043 48.37V40.864C60.1043 40.372 60.3383 40.126 60.8063 40.126C61.2863 40.126 61.5263 40.372 61.5263 40.864V41.746C61.8143 41.194 62.2223 40.78 62.7503 40.504C63.2783 40.228 63.8723 40.09 64.5323 40.09C66.6083 40.09 67.6463 41.242 67.6463 43.546V48.37C67.6463 48.874 67.4063 49.126 66.9263 49.126C66.4343 49.126 66.1883 48.874 66.1883 48.37V43.636C66.1883 42.82 66.0263 42.226 65.7023 41.854C65.3903 41.47 64.8863 41.278 64.1903 41.278C63.3863 41.278 62.7443 41.53 62.2643 42.034C61.7963 42.526 61.5623 43.186 61.5623 44.014V48.37C61.5623 48.874 61.3163 49.126 60.8243 49.126ZM71.0548 52.366C70.5748 52.366 70.3348 52.12 70.3348 51.628V40.864C70.3348 40.372 70.5688 40.126 71.0368 40.126C71.5288 40.126 71.7748 40.372 71.7748 40.864V41.8C72.0268 41.272 72.4168 40.858 72.9448 40.558C73.4728 40.246 74.0788 40.09 74.7628 40.09C75.5428 40.09 76.2208 40.276 76.7968 40.648C77.3848 41.008 77.8348 41.53 78.1468 42.214C78.4708 42.886 78.6328 43.69 78.6328 44.626C78.6328 45.55 78.4708 46.354 78.1468 47.038C77.8348 47.71 77.3848 48.232 76.7968 48.604C76.2208 48.976 75.5428 49.162 74.7628 49.162C74.0908 49.162 73.4908 49.012 72.9628 48.712C72.4348 48.412 72.0448 47.998 71.7928 47.47V51.628C71.7928 52.12 71.5468 52.366 71.0548 52.366ZM74.4568 47.992C75.2728 47.992 75.9268 47.704 76.4188 47.128C76.9108 46.54 77.1568 45.706 77.1568 44.626C77.1568 43.534 76.9108 42.7 76.4188 42.124C75.9268 41.548 75.2728 41.26 74.4568 41.26C73.6408 41.26 72.9868 41.548 72.4948 42.124C72.0028 42.7 71.7568 43.534 71.7568 44.626C71.7568 45.706 72.0028 46.54 72.4948 47.128C72.9868 47.704 73.6408 47.992 74.4568 47.992ZM83.9249 49.162C81.8249 49.162 80.7749 48.004 80.7749 45.688V40.864C80.7749 40.372 81.0149 40.126 81.4949 40.126C81.9869 40.126 82.2329 40.372 82.2329 40.864V45.67C82.2329 46.45 82.3889 47.026 82.7009 47.398C83.0249 47.77 83.5289 47.956 84.2129 47.956C84.9569 47.956 85.5629 47.71 86.0309 47.218C86.4989 46.714 86.7329 46.048 86.7329 45.22V40.864C86.7329 40.372 86.9789 40.126 87.4709 40.126C87.9509 40.126 88.1909 40.372 88.1909 40.864V48.37C88.1909 48.874 87.9569 49.126 87.4889 49.126C87.0089 49.126 86.7689 48.874 86.7689 48.37V47.524C86.4929 48.052 86.1029 48.46 85.5989 48.748C85.1069 49.024 84.5489 49.162 83.9249 49.162ZM94.4288 49.162C93.3968 49.162 92.6228 48.892 92.1068 48.352C91.5908 47.8 91.3328 47.008 91.3328 45.976V41.386H90.1268C89.7068 41.386 89.4968 41.194 89.4968 40.81C89.4968 40.438 89.7068 40.252 90.1268 40.252H91.3328V38.182C91.3328 37.69 91.5788 37.444 92.0708 37.444C92.5508 37.444 92.7908 37.69 92.7908 38.182V40.252H95.0588C95.4788 40.252 95.6888 40.438 95.6888 40.81C95.6888 41.194 95.4788 41.386 95.0588 41.386H92.7908V45.832C92.7908 46.516 92.9348 47.038 93.2228 47.398C93.5108 47.746 93.9788 47.92 94.6268 47.92C94.8548 47.92 95.0468 47.896 95.2028 47.848C95.3588 47.8 95.4968 47.776 95.6168 47.776C95.7248 47.764 95.8148 47.8 95.8868 47.884C95.9588 47.968 95.9948 48.112 95.9948 48.316C95.9948 48.46 95.9648 48.592 95.9048 48.712C95.8568 48.832 95.7668 48.916 95.6348 48.964C95.4908 49.012 95.2988 49.054 95.0588 49.09C94.8308 49.138 94.6208 49.162 94.4288 49.162ZM106.28 49.162C105.596 49.162 104.99 49.012 104.462 48.712C103.934 48.4 103.544 47.974 103.292 47.434V48.37C103.292 48.874 103.052 49.126 102.572 49.126C102.092 49.126 101.852 48.874 101.852 48.37V36.922C101.852 36.43 102.092 36.184 102.572 36.184C103.064 36.184 103.31 36.43 103.31 36.922V41.764C103.562 41.248 103.952 40.84 104.48 40.54C105.008 40.24 105.608 40.09 106.28 40.09C107.06 40.09 107.738 40.276 108.314 40.648C108.902 41.008 109.352 41.53 109.664 42.214C109.988 42.886 110.15 43.69 110.15 44.626C110.15 45.55 109.988 46.354 109.664 47.038C109.352 47.71 108.902 48.232 108.314 48.604C107.738 48.976 107.06 49.162 106.28 49.162ZM105.974 47.992C106.79 47.992 107.444 47.704 107.936 47.128C108.428 46.54 108.674 45.706 108.674 44.626C108.674 43.534 108.428 42.7 107.936 42.124C107.444 41.548 106.79 41.26 105.974 41.26C105.158 41.26 104.504 41.548 104.012 42.124C103.52 42.7 103.274 43.534 103.274 44.626C103.274 45.706 103.52 46.54 104.012 47.128C104.504 47.704 105.158 47.992 105.974 47.992ZM115.443 49.162C113.343 49.162 112.293 48.004 112.293 45.688V40.864C112.293 40.372 112.533 40.126 113.013 40.126C113.505 40.126 113.751 40.372 113.751 40.864V45.67C113.751 46.45 113.907 47.026 114.219 47.398C114.543 47.77 115.047 47.956 115.731 47.956C116.475 47.956 117.081 47.71 117.549 47.218C118.017 46.714 118.251 46.048 118.251 45.22V40.864C118.251 40.372 118.497 40.126 118.989 40.126C119.469 40.126 119.709 40.372 119.709 40.864V48.37C119.709 48.874 119.475 49.126 119.007 49.126C118.527 49.126 118.287 48.874 118.287 48.37V47.524C118.011 48.052 117.621 48.46 117.117 48.748C116.625 49.024 116.067 49.162 115.443 49.162ZM125.946 49.162C124.914 49.162 124.14 48.892 123.624 48.352C123.108 47.8 122.85 47.008 122.85 45.976V41.386H121.644C121.224 41.386 121.014 41.194 121.014 40.81C121.014 40.438 121.224 40.252 121.644 40.252H122.85V38.182C122.85 37.69 123.096 37.444 123.588 37.444C124.068 37.444 124.308 37.69 124.308 38.182V40.252H126.576C126.996 40.252 127.206 40.438 127.206 40.81C127.206 41.194 126.996 41.386 126.576 41.386H124.308V45.832C124.308 46.516 124.452 47.038 124.74 47.398C125.028 47.746 125.496 47.92 126.144 47.92C126.372 47.92 126.564 47.896 126.72 47.848C126.876 47.8 127.014 47.776 127.134 47.776C127.242 47.764 127.332 47.8 127.404 47.884C127.476 47.968 127.512 48.112 127.512 48.316C127.512 48.46 127.482 48.592 127.422 48.712C127.374 48.832 127.284 48.916 127.152 48.964C127.008 49.012 126.816 49.054 126.576 49.09C126.348 49.138 126.138 49.162 125.946 49.162ZM132.011 49.162C130.979 49.162 130.205 48.892 129.689 48.352C129.173 47.8 128.915 47.008 128.915 45.976V41.386H127.709C127.289 41.386 127.079 41.194 127.079 40.81C127.079 40.438 127.289 40.252 127.709 40.252H128.915V38.182C128.915 37.69 129.161 37.444 129.653 37.444C130.133 37.444 130.373 37.69 130.373 38.182V40.252H132.641C133.061 40.252 133.271 40.438 133.271 40.81C133.271 41.194 133.061 41.386 132.641 41.386H130.373V45.832C130.373 46.516 130.517 47.038 130.805 47.398C131.093 47.746 131.561 47.92 132.209 47.92C132.437 47.92 132.629 47.896 132.785 47.848C132.941 47.8 133.079 47.776 133.199 47.776C133.307 47.764 133.397 47.8 133.469 47.884C133.541 47.968 133.577 48.112 133.577 48.316C133.577 48.46 133.547 48.592 133.487 48.712C133.439 48.832 133.349 48.916 133.217 48.964C133.073 49.012 132.881 49.054 132.641 49.09C132.413 49.138 132.203 49.162 132.011 49.162ZM138.342 49.162C137.49 49.162 136.752 48.976 136.128 48.604C135.504 48.232 135.018 47.71 134.67 47.038C134.334 46.354 134.166 45.55 134.166 44.626C134.166 43.702 134.334 42.904 134.67 42.232C135.018 41.548 135.504 41.02 136.128 40.648C136.752 40.276 137.49 40.09 138.342 40.09C139.182 40.09 139.914 40.276 140.538 40.648C141.174 41.02 141.66 41.548 141.996 42.232C142.344 42.904 142.518 43.702 142.518 44.626C142.518 45.55 142.344 46.354 141.996 47.038C141.66 47.71 141.174 48.232 140.538 48.604C139.914 48.976 139.182 49.162 138.342 49.162ZM138.342 47.992C139.158 47.992 139.812 47.704 140.304 47.128C140.796 46.54 141.042 45.706 141.042 44.626C141.042 43.534 140.796 42.7 140.304 42.124C139.812 41.548 139.158 41.26 138.342 41.26C137.514 41.26 136.854 41.548 136.362 42.124C135.882 42.7 135.642 43.534 135.642 44.626C135.642 45.706 135.882 46.54 136.362 47.128C136.854 47.704 137.514 47.992 138.342 47.992ZM145.428 49.126C144.948 49.126 144.708 48.874 144.708 48.37V40.864C144.708 40.372 144.942 40.126 145.41 40.126C145.89 40.126 146.13 40.372 146.13 40.864V41.746C146.418 41.194 146.826 40.78 147.354 40.504C147.882 40.228 148.476 40.09 149.136 40.09C151.212 40.09 152.25 41.242 152.25 43.546V48.37C152.25 48.874 152.01 49.126 151.53 49.126C151.038 49.126 150.792 48.874 150.792 48.37V43.636C150.792 42.82 150.63 42.226 150.306 41.854C149.994 41.47 149.49 41.278 148.794 41.278C147.99 41.278 147.348 41.53 146.868 42.034C146.4 42.526 146.166 43.186 146.166 44.014V48.37C146.166 48.874 145.92 49.126 145.428 49.126ZM4.09543 77.042C3.42343 75.806 2.93143 74.54 2.61943 73.244C2.30743 71.936 2.15143 70.61 2.15143 69.266C2.15143 67.922 2.30743 66.602 2.61943 65.306C2.93143 64.01 3.42343 62.738 4.09543 61.49C4.21543 61.286 4.37743 61.184 4.58143 61.184C4.79743 61.172 4.97143 61.25 5.10343 61.418C5.24743 61.574 5.25943 61.802 5.13943 62.102C4.65943 63.302 4.29943 64.49 4.05943 65.666C3.81943 66.842 3.69943 68.042 3.69943 69.266C3.69943 70.49 3.81943 71.69 4.05943 72.866C4.31143 74.042 4.67143 75.23 5.13943 76.43C5.25943 76.73 5.24743 76.958 5.10343 77.114C4.97143 77.282 4.79743 77.36 4.58143 77.348C4.37743 77.336 4.21543 77.234 4.09543 77.042ZM8.29632 74.126C7.82832 74.126 7.59432 73.88 7.59432 73.388V61.94C7.59432 61.436 7.81032 61.184 8.24232 61.184C8.42232 61.184 8.56032 61.22 8.65632 61.292C8.75232 61.352 8.86032 61.466 8.98032 61.634L16.3963 71.516V61.904C16.3963 61.424 16.6303 61.184 17.0983 61.184C17.5423 61.184 17.7643 61.424 17.7643 61.904V73.406C17.7643 73.886 17.5663 74.126 17.1703 74.126C16.9903 74.126 16.8463 74.09 16.7383 74.018C16.6303 73.946 16.5163 73.832 16.3963 73.676L8.98032 63.758V73.388C8.98032 73.88 8.75232 74.126 8.29632 74.126ZM23.8165 74.162C21.7165 74.162 20.6665 73.004 20.6665 70.688V65.864C20.6665 65.372 20.9065 65.126 21.3865 65.126C21.8785 65.126 22.1245 65.372 22.1245 65.864V70.67C22.1245 71.45 22.2805 72.026 22.5925 72.398C22.9165 72.77 23.4205 72.956 24.1045 72.956C24.8485 72.956 25.4545 72.71 25.9225 72.218C26.3905 71.714 26.6245 71.048 26.6245 70.22V65.864C26.6245 65.372 26.8705 65.126 27.3625 65.126C27.8425 65.126 28.0825 65.372 28.0825 65.864V73.37C28.0825 73.874 27.8485 74.126 27.3805 74.126C26.9005 74.126 26.6605 73.874 26.6605 73.37V72.524C26.3845 73.052 25.9945 73.46 25.4905 73.748C24.9985 74.024 24.4405 74.162 23.8165 74.162ZM31.5664 74.126C31.0864 74.126 30.8464 73.874 30.8464 73.37V65.864C30.8464 65.372 31.0804 65.126 31.5484 65.126C32.0284 65.126 32.2684 65.372 32.2684 65.864V66.728C32.5324 66.2 32.8984 65.798 33.3664 65.522C33.8344 65.234 34.3804 65.09 35.0044 65.09C36.3724 65.09 37.2484 65.684 37.6324 66.872C37.8964 66.32 38.2864 65.888 38.8024 65.576C39.3184 65.252 39.9124 65.09 40.5844 65.09C42.5284 65.09 43.5004 66.242 43.5004 68.546V73.37C43.5004 73.874 43.2544 74.126 42.7624 74.126C42.2824 74.126 42.0424 73.874 42.0424 73.37V68.618C42.0424 67.814 41.8984 67.226 41.6104 66.854C41.3344 66.47 40.8724 66.278 40.2244 66.278C39.5164 66.278 38.9524 66.53 38.5324 67.034C38.1124 67.538 37.9024 68.21 37.9024 69.05V73.37C37.9024 73.874 37.6564 74.126 37.1644 74.126C36.6844 74.126 36.4444 73.874 36.4444 73.37V68.618C36.4444 67.814 36.3004 67.226 36.0124 66.854C35.7364 66.47 35.2744 66.278 34.6264 66.278C33.9064 66.278 33.3364 66.53 32.9164 67.034C32.5084 67.538 32.3044 68.21 32.3044 69.05V73.37C32.3044 73.874 32.0584 74.126 31.5664 74.126ZM50.6544 74.162C49.9704 74.162 49.3644 74.012 48.8364 73.712C48.3084 73.4 47.9184 72.974 47.6664 72.434V73.37C47.6664 73.874 47.4264 74.126 46.9464 74.126C46.4664 74.126 46.2264 73.874 46.2264 73.37V61.922C46.2264 61.43 46.4664 61.184 46.9464 61.184C47.4384 61.184 47.6844 61.43 47.6844 61.922V66.764C47.9364 66.248 48.3264 65.84 48.8544 65.54C49.3824 65.24 49.9824 65.09 50.6544 65.09C51.4344 65.09 52.1124 65.276 52.6884 65.648C53.2764 66.008 53.7264 66.53 54.0384 67.214C54.3624 67.886 54.5244 68.69 54.5244 69.626C54.5244 70.55 54.3624 71.354 54.0384 72.038C53.7264 72.71 53.2764 73.232 52.6884 73.604C52.1124 73.976 51.4344 74.162 50.6544 74.162ZM50.3484 72.992C51.1644 72.992 51.8184 72.704 52.3104 72.128C52.8024 71.54 53.0484 70.706 53.0484 69.626C53.0484 68.534 52.8024 67.7 52.3104 67.124C51.8184 66.548 51.1644 66.26 50.3484 66.26C49.5324 66.26 48.8784 66.548 48.3864 67.124C47.8944 67.7 47.6484 68.534 47.6484 69.626C47.6484 70.706 47.8944 71.54 48.3864 72.128C48.8784 72.704 49.5324 72.992 50.3484 72.992ZM60.6625 74.162C59.2825 74.162 58.1905 73.76 57.3865 72.956C56.5825 72.14 56.1805 71.036 56.1805 69.644C56.1805 68.744 56.3605 67.952 56.7205 67.268C57.0805 66.572 57.5725 66.038 58.1965 65.666C58.8325 65.282 59.5645 65.09 60.3925 65.09C61.5805 65.09 62.5105 65.474 63.1825 66.242C63.8545 66.998 64.1905 68.042 64.1905 69.374C64.1905 69.746 63.9805 69.932 63.5605 69.932H57.6025C57.6505 70.928 57.9385 71.69 58.4665 72.218C58.9945 72.734 59.7265 72.992 60.6625 72.992C61.0585 72.992 61.4605 72.944 61.8685 72.848C62.2765 72.74 62.6725 72.554 63.0565 72.29C63.3325 72.11 63.5605 72.074 63.7405 72.182C63.9325 72.29 64.0285 72.458 64.0285 72.686C64.0405 72.902 63.9205 73.094 63.6685 73.262C63.2725 73.55 62.7985 73.772 62.2465 73.928C61.7065 74.084 61.1785 74.162 60.6625 74.162ZM60.4285 66.17C59.6005 66.17 58.9465 66.428 58.4665 66.944C57.9865 67.46 57.7045 68.138 57.6205 68.978H62.9305C62.8945 68.09 62.6605 67.4 62.2285 66.908C61.8085 66.416 61.2085 66.17 60.4285 66.17ZM67.0386 74.126C66.5466 74.126 66.3006 73.874 66.3006 73.37V65.864C66.3006 65.372 66.5346 65.126 67.0026 65.126C67.4826 65.126 67.7226 65.372 67.7226 65.864V66.818C67.9626 66.266 68.3346 65.846 68.8386 65.558C69.3426 65.258 69.9426 65.096 70.6386 65.072C71.0226 65.036 71.2266 65.228 71.2506 65.648C71.2866 66.068 71.0706 66.302 70.6026 66.35L70.3146 66.386C69.4866 66.458 68.8566 66.722 68.4246 67.178C67.9926 67.622 67.7766 68.234 67.7766 69.014V73.37C67.7766 73.874 67.5306 74.126 67.0386 74.126ZM78.1124 63.146C77.4764 63.146 77.1584 62.846 77.1584 62.246C77.1584 61.658 77.4764 61.364 78.1124 61.364C78.7484 61.364 79.0664 61.658 79.0664 62.246C79.0664 62.846 78.7484 63.146 78.1124 63.146ZM78.1124 74.09C77.6324 74.09 77.3924 73.826 77.3924 73.298V65.936C77.3924 65.42 77.6324 65.162 78.1124 65.162C78.6044 65.162 78.8504 65.42 78.8504 65.936V73.298C78.8504 73.826 78.6044 74.09 78.1124 74.09ZM82.296 74.126C81.816 74.126 81.576 73.874 81.576 73.37V65.864C81.576 65.372 81.81 65.126 82.278 65.126C82.758 65.126 82.998 65.372 82.998 65.864V66.746C83.286 66.194 83.694 65.78 84.222 65.504C84.75 65.228 85.344 65.09 86.004 65.09C88.08 65.09 89.118 66.242 89.118 68.546V73.37C89.118 73.874 88.878 74.126 88.398 74.126C87.906 74.126 87.66 73.874 87.66 73.37V68.636C87.66 67.82 87.498 67.226 87.174 66.854C86.862 66.47 86.358 66.278 85.662 66.278C84.858 66.278 84.216 66.53 83.736 67.034C83.268 67.526 83.034 68.186 83.034 69.014V73.37C83.034 73.874 82.788 74.126 82.296 74.126ZM92.5265 77.366C92.0465 77.366 91.8065 77.12 91.8065 76.628V65.864C91.8065 65.372 92.0405 65.126 92.5085 65.126C93.0005 65.126 93.2465 65.372 93.2465 65.864V66.8C93.4985 66.272 93.8885 65.858 94.4165 65.558C94.9445 65.246 95.5505 65.09 96.2345 65.09C97.0145 65.09 97.6925 65.276 98.2685 65.648C98.8565 66.008 99.3065 66.53 99.6185 67.214C99.9425 67.886 100.104 68.69 100.104 69.626C100.104 70.55 99.9425 71.354 99.6185 72.038C99.3065 72.71 98.8565 73.232 98.2685 73.604C97.6925 73.976 97.0145 74.162 96.2345 74.162C95.5625 74.162 94.9625 74.012 94.4345 73.712C93.9065 73.412 93.5165 72.998 93.2645 72.47V76.628C93.2645 77.12 93.0185 77.366 92.5265 77.366ZM95.9285 72.992C96.7445 72.992 97.3985 72.704 97.8905 72.128C98.3825 71.54 98.6285 70.706 98.6285 69.626C98.6285 68.534 98.3825 67.7 97.8905 67.124C97.3985 66.548 96.7445 66.26 95.9285 66.26C95.1125 66.26 94.4585 66.548 93.9665 67.124C93.4745 67.7 93.2285 68.534 93.2285 69.626C93.2285 70.706 93.4745 71.54 93.9665 72.128C94.4585 72.704 95.1125 72.992 95.9285 72.992ZM105.397 74.162C103.297 74.162 102.247 73.004 102.247 70.688V65.864C102.247 65.372 102.487 65.126 102.967 65.126C103.459 65.126 103.705 65.372 103.705 65.864V70.67C103.705 71.45 103.861 72.026 104.173 72.398C104.497 72.77 105.001 72.956 105.685 72.956C106.429 72.956 107.035 72.71 107.503 72.218C107.971 71.714 108.205 71.048 108.205 70.22V65.864C108.205 65.372 108.451 65.126 108.943 65.126C109.423 65.126 109.663 65.372 109.663 65.864V73.37C109.663 73.874 109.429 74.126 108.961 74.126C108.481 74.126 108.241 73.874 108.241 73.37V72.524C107.965 73.052 107.575 73.46 107.071 73.748C106.579 74.024 106.021 74.162 105.397 74.162ZM115.9 74.162C114.868 74.162 114.094 73.892 113.578 73.352C113.062 72.8 112.804 72.008 112.804 70.976V66.386H111.598C111.178 66.386 110.968 66.194 110.968 65.81C110.968 65.438 111.178 65.252 111.598 65.252H112.804V63.182C112.804 62.69 113.05 62.444 113.542 62.444C114.022 62.444 114.262 62.69 114.262 63.182V65.252H116.53C116.95 65.252 117.16 65.438 117.16 65.81C117.16 66.194 116.95 66.386 116.53 66.386H114.262V70.832C114.262 71.516 114.406 72.038 114.694 72.398C114.982 72.746 115.45 72.92 116.098 72.92C116.326 72.92 116.518 72.896 116.674 72.848C116.83 72.8 116.968 72.776 117.088 72.776C117.196 72.764 117.286 72.8 117.358 72.884C117.43 72.968 117.466 73.112 117.466 73.316C117.466 73.46 117.436 73.592 117.376 73.712C117.328 73.832 117.238 73.916 117.106 73.964C116.962 74.012 116.77 74.054 116.53 74.09C116.302 74.138 116.092 74.162 115.9 74.162ZM126.078 74.162C125.478 74.162 124.938 74.048 124.458 73.82C123.99 73.58 123.618 73.256 123.342 72.848C123.066 72.44 122.928 71.984 122.928 71.48C122.928 70.844 123.09 70.34 123.414 69.968C123.75 69.596 124.296 69.332 125.052 69.176C125.82 69.008 126.864 68.924 128.184 68.924H128.76V68.366C128.76 67.622 128.604 67.088 128.292 66.764C127.992 66.428 127.506 66.26 126.834 66.26C126.414 66.26 125.988 66.314 125.556 66.422C125.136 66.53 124.698 66.704 124.242 66.944C124.038 67.052 123.864 67.076 123.72 67.016C123.588 66.944 123.492 66.836 123.432 66.692C123.384 66.536 123.384 66.38 123.432 66.224C123.492 66.056 123.612 65.93 123.792 65.846C124.308 65.582 124.824 65.39 125.34 65.27C125.868 65.15 126.366 65.09 126.834 65.09C127.962 65.09 128.796 65.366 129.336 65.918C129.888 66.47 130.164 67.328 130.164 68.492V73.37C130.164 73.874 129.942 74.126 129.498 74.126C129.03 74.126 128.796 73.874 128.796 73.37V72.488C128.568 73.004 128.214 73.412 127.734 73.712C127.266 74.012 126.714 74.162 126.078 74.162ZM126.312 73.064C127.032 73.064 127.62 72.818 128.076 72.326C128.532 71.822 128.76 71.186 128.76 70.418V69.878H128.202C127.23 69.878 126.462 69.926 125.898 70.022C125.346 70.106 124.956 70.262 124.728 70.49C124.512 70.706 124.404 71.006 124.404 71.39C124.404 71.882 124.572 72.284 124.908 72.596C125.256 72.908 125.724 73.064 126.312 73.064ZM133.607 74.126C133.115 74.126 132.869 73.874 132.869 73.37V65.864C132.869 65.372 133.103 65.126 133.571 65.126C134.051 65.126 134.291 65.372 134.291 65.864V66.818C134.531 66.266 134.903 65.846 135.407 65.558C135.911 65.258 136.511 65.096 137.207 65.072C137.591 65.036 137.795 65.228 137.819 65.648C137.855 66.068 137.639 66.302 137.171 66.35L136.883 66.386C136.055 66.458 135.425 66.722 134.993 67.178C134.561 67.622 134.345 68.234 134.345 69.014V73.37C134.345 73.874 134.099 74.126 133.607 74.126ZM143.157 74.162C141.777 74.162 140.685 73.76 139.881 72.956C139.077 72.14 138.675 71.036 138.675 69.644C138.675 68.744 138.855 67.952 139.215 67.268C139.575 66.572 140.067 66.038 140.691 65.666C141.327 65.282 142.059 65.09 142.887 65.09C144.075 65.09 145.005 65.474 145.677 66.242C146.349 66.998 146.685 68.042 146.685 69.374C146.685 69.746 146.475 69.932 146.055 69.932H140.097C140.145 70.928 140.433 71.69 140.961 72.218C141.489 72.734 142.221 72.992 143.157 72.992C143.553 72.992 143.955 72.944 144.363 72.848C144.771 72.74 145.167 72.554 145.551 72.29C145.827 72.11 146.055 72.074 146.235 72.182C146.427 72.29 146.523 72.458 146.523 72.686C146.535 72.902 146.415 73.094 146.163 73.262C145.767 73.55 145.293 73.772 144.741 73.928C144.201 74.084 143.673 74.162 143.157 74.162ZM142.923 66.17C142.095 66.17 141.441 66.428 140.961 66.944C140.481 67.46 140.199 68.138 140.115 68.978H145.425C145.389 68.09 145.155 67.4 144.723 66.908C144.303 66.416 143.703 66.17 142.923 66.17ZM151.549 74.162C150.949 74.162 150.409 74.048 149.929 73.82C149.461 73.58 149.089 73.256 148.813 72.848C148.537 72.44 148.399 71.984 148.399 71.48C148.399 70.844 148.561 70.34 148.885 69.968C149.221 69.596 149.767 69.332 150.523 69.176C151.291 69.008 152.335 68.924 153.655 68.924H154.231V68.366C154.231 67.622 154.075 67.088 153.763 66.764C153.463 66.428 152.977 66.26 152.305 66.26C151.885 66.26 151.459 66.314 151.027 66.422C150.607 66.53 150.169 66.704 149.713 66.944C149.509 67.052 149.335 67.076 149.191 67.016C149.059 66.944 148.963 66.836 148.903 66.692C148.855 66.536 148.855 66.38 148.903 66.224C148.963 66.056 149.083 65.93 149.263 65.846C149.779 65.582 150.295 65.39 150.811 65.27C151.339 65.15 151.837 65.09 152.305 65.09C153.433 65.09 154.267 65.366 154.807 65.918C155.359 66.47 155.635 67.328 155.635 68.492V73.37C155.635 73.874 155.413 74.126 154.969 74.126C154.501 74.126 154.267 73.874 154.267 73.37V72.488C154.039 73.004 153.685 73.412 153.205 73.712C152.737 74.012 152.185 74.162 151.549 74.162ZM151.783 73.064C152.503 73.064 153.091 72.818 153.547 72.326C154.003 71.822 154.231 71.186 154.231 70.418V69.878H153.673C152.701 69.878 151.933 69.926 151.369 70.022C150.817 70.106 150.427 70.262 150.199 70.49C149.983 70.706 149.875 71.006 149.875 71.39C149.875 71.882 150.043 72.284 150.379 72.596C150.727 72.908 151.195 73.064 151.783 73.064ZM158.916 77.042C158.796 77.234 158.628 77.336 158.412 77.348C158.196 77.36 158.016 77.282 157.872 77.114C157.74 76.958 157.734 76.73 157.854 76.43C158.814 74.066 159.294 71.678 159.294 69.266C159.294 68.042 159.168 66.848 158.916 65.684C158.664 64.508 158.31 63.314 157.854 62.102C157.746 61.802 157.758 61.574 157.89 61.418C158.034 61.25 158.208 61.172 158.412 61.184C158.628 61.184 158.796 61.286 158.916 61.49C159.576 62.726 160.062 63.998 160.374 65.306C160.686 66.602 160.842 67.922 160.842 69.266C160.842 70.61 160.686 71.936 160.374 73.244C160.062 74.552 159.576 75.818 158.916 77.042Z" fill="black"/>
</svg>
