<svg width="459" height="200" viewBox="0 0 459 200" fill="none" xmlns="http://www.w3.org/2000/svg">
<rect width="459" height="200" fill="white"/>
<path d="M6.31731 100.4C4.7713 100.4 3.52739 100.009 2.58557 99.227C1.66151 98.4273 1.19949 97.3522 1.19949 96.0017C1.19949 94.5801 1.64374 93.4872 2.53226 92.7231C3.43854 91.9412 4.71799 91.5503 6.37062 91.5503C8.12987 91.5503 9.62257 91.9057 10.8487 92.6165V91.9501C10.8487 90.9372 10.5377 90.1908 9.91578 89.711C9.31159 89.2135 8.352 88.9647 7.037 88.9647C6.25512 88.9647 5.491 89.0447 4.74465 89.2046C4.01607 89.3468 3.35857 89.5511 2.77215 89.8177V87.6319C3.30526 87.3831 3.9983 87.1877 4.85127 87.0455C5.70424 86.8856 6.53055 86.8056 7.33021 86.8056C9.44487 86.8056 11.0086 87.2765 12.0215 88.2183C13.0522 89.1424 13.5676 90.4307 13.5676 92.0834V100H11.0353V98.5606C10.4844 99.1648 9.82693 99.6268 9.06281 99.9467C8.31646 100.249 7.40129 100.4 6.31731 100.4ZM6.98369 98.3474C7.83666 98.3474 8.60967 98.1786 9.30271 97.8409C9.99574 97.5033 10.5111 97.0324 10.8487 96.4282V94.6956C9.69365 93.9492 8.40531 93.5761 6.98369 93.5761C5.95302 93.5761 5.18002 93.7804 4.66468 94.1891C4.16712 94.5801 3.91833 95.1843 3.91833 96.0017C3.91833 97.5655 4.94012 98.3474 6.98369 98.3474ZM24.8517 100.4C23.6966 100.4 22.6926 100.222 21.8397 99.8667C21.0045 99.4935 20.2315 98.916 19.5206 98.1341V100H16.9084V80.3017H19.6006V88.9114C20.187 88.2183 20.9423 87.6941 21.8663 87.3387C22.7904 86.9833 23.7855 86.8056 24.8517 86.8056C26.1312 86.8056 27.2773 87.0988 28.2902 87.6852C29.3209 88.2539 30.1206 89.0535 30.6892 90.0842C31.2756 91.1149 31.5689 92.2966 31.5689 93.6294C31.5689 94.9799 31.2756 96.1705 30.6892 97.2012C30.1206 98.2141 29.3209 99.0049 28.2902 99.5735C27.2773 100.124 26.1312 100.4 24.8517 100.4ZM24.2386 98.2674C25.1094 98.2674 25.8913 98.0808 26.5843 97.7076C27.2951 97.3167 27.846 96.7658 28.2369 96.055C28.6457 95.3442 28.85 94.5357 28.85 93.6294C28.85 92.7231 28.6457 91.9146 28.2369 91.2037C27.846 90.4929 27.2951 89.9421 26.5843 89.5511C25.8913 89.1602 25.1094 88.9647 24.2386 88.9647C23.1547 88.9647 22.1862 89.2579 21.3332 89.8443C20.4802 90.4307 19.9027 91.2126 19.6006 92.19V95.0688C19.9382 96.0461 20.5158 96.828 21.3332 97.4144C22.1684 97.9831 23.1369 98.2674 24.2386 98.2674ZM40.8584 100.4C39.4368 100.4 38.1751 100.133 37.0734 99.6002C35.9716 99.0671 35.1098 98.2941 34.4878 97.2812C33.8836 96.2505 33.5815 95.0332 33.5815 93.6294C33.5815 92.2255 33.8836 91.0172 34.4878 90.0043C35.1098 88.9736 35.9716 88.1828 37.0734 87.6319C38.1929 87.0811 39.4724 86.8056 40.9118 86.8056C42.8665 86.8056 44.4303 87.1877 45.6031 87.9518V90.1642C44.448 89.3645 42.9731 88.9647 41.1783 88.9647C39.7211 88.9647 38.5394 89.3645 37.6331 90.1642C36.7446 90.9461 36.3004 92.1011 36.3004 93.6294C36.3004 95.1576 36.7446 96.3127 37.6331 97.0946C38.5217 97.8765 39.6856 98.2674 41.125 98.2674C42.9198 98.2674 44.4658 97.8409 45.763 96.9879V99.1737C45.1411 99.6002 44.4303 99.9111 43.6306 100.107C42.8487 100.302 41.9247 100.4 40.8584 100.4ZM54.4853 100.4C53.2059 100.4 52.0508 100.124 51.0202 99.5735C50.0073 99.0049 49.2076 98.2141 48.6212 97.2012C48.0525 96.1705 47.7682 94.9799 47.7682 93.6294C47.7682 92.2966 48.0525 91.1149 48.6212 90.0842C49.2076 89.0535 50.0073 88.2539 51.0202 87.6852C52.0508 87.0988 53.2059 86.8056 54.4853 86.8056C56.7955 86.8056 58.5458 87.5075 59.7364 88.9114V80.3017H62.4286V100H59.8164V98.1341C59.1056 98.916 58.3237 99.4935 57.4707 99.8667C56.6355 100.222 55.6404 100.4 54.4853 100.4ZM55.0984 98.2674C56.2002 98.2674 57.1598 97.9831 57.9772 97.4144C58.8124 96.828 59.3988 96.0461 59.7364 95.0688V92.19C59.4344 91.2126 58.8568 90.4307 58.0039 89.8443C57.1687 89.2579 56.2002 88.9647 55.0984 88.9647C54.2277 88.9647 53.4369 89.1602 52.7261 89.5511C52.0331 89.9421 51.4822 90.4929 51.0735 91.2037C50.6825 91.9146 50.487 92.7231 50.487 93.6294C50.487 94.5357 50.6825 95.3442 51.0735 96.055C51.4822 96.7658 52.0331 97.3167 52.7261 97.7076C53.4369 98.0808 54.2277 98.2674 55.0984 98.2674ZM72.935 100.4C70.5716 100.4 68.7146 99.8134 67.364 98.6406C66.0313 97.45 65.3649 95.7796 65.3649 93.6294C65.3649 91.5325 65.9602 89.871 67.1508 88.6448C68.3592 87.4187 70.074 86.8056 72.2953 86.8056C73.7702 86.8056 75.023 87.0899 76.0537 87.6586C77.0843 88.2095 77.8573 88.9825 78.3727 89.9776C78.9058 90.955 79.1723 92.0745 79.1723 93.3362V94.6689H67.9238C68.0126 95.8773 68.5191 96.7836 69.4431 97.3878C70.385 97.9742 71.6555 98.2674 73.2549 98.2674C74.0723 98.2674 74.8986 98.1963 75.7338 98.0542C76.569 97.8942 77.3065 97.6899 77.9462 97.4411V99.6002C77.3775 99.8312 76.6223 100.018 75.6805 100.16C74.7564 100.32 73.8413 100.4 72.935 100.4ZM76.6401 92.7764C76.6045 91.568 76.2047 90.6351 75.4406 89.9776C74.6942 89.3023 73.628 88.9647 72.242 88.9647C70.8914 88.9647 69.843 89.3112 69.0966 90.0043C68.3503 90.6973 67.9593 91.6213 67.9238 92.7764H76.6401ZM82.9947 89.2846H81.0488V87.2054H82.9947V84.6998C82.9947 83.2249 83.4123 82.1054 84.2475 81.3413C85.0827 80.5594 86.2022 80.1684 87.606 80.1684C88.3346 80.1684 89.0188 80.2751 89.6585 80.4883V82.7274C89.1609 82.4963 88.6456 82.3808 88.1125 82.3808C87.2773 82.3808 86.6642 82.5852 86.2733 82.9939C85.8823 83.3848 85.6869 84.0068 85.6869 84.8598V87.2054H88.8855V89.2846H85.6869V100H82.9947V89.2846ZM98.2026 106.131C97.3318 106.131 96.4789 106.06 95.6437 105.917C94.8262 105.775 94.1332 105.571 93.5645 105.304V103.092C94.8973 103.696 96.4433 103.998 98.2026 103.998C99.8552 103.998 101.055 103.634 101.801 102.905C102.565 102.195 102.947 101.111 102.947 99.6535V98.2941C101.774 99.6979 100.051 100.4 97.7761 100.4C96.4789 100.4 95.3149 100.116 94.2842 99.5469C93.2536 98.9782 92.445 98.1786 91.8586 97.1479C91.2722 96.1172 90.979 94.9355 90.979 93.6027C90.979 92.2522 91.2633 91.0705 91.8319 90.0576C92.4184 89.0269 93.218 88.2272 94.2309 87.6586C95.2616 87.0899 96.4167 86.8056 97.6961 86.8056C98.8867 86.8056 99.8907 86.9833 100.708 87.3387C101.543 87.6764 102.316 88.245 103.027 89.0447V87.2054H105.639V99.3603C105.639 101.546 105.026 103.216 103.8 104.371C102.592 105.544 100.726 106.131 98.2026 106.131ZM98.3092 98.2674C99.4109 98.2674 100.379 97.9742 101.215 97.3878C102.068 96.8014 102.645 96.0195 102.947 95.0421V92.1633C102.61 91.1682 102.023 90.3863 101.188 89.8177C100.371 89.249 99.4109 88.9647 98.3092 88.9647C97.4385 88.9647 96.6477 89.1602 95.9369 89.5511C95.2438 89.9243 94.693 90.4663 94.2842 91.1771C93.8933 91.8879 93.6978 92.6964 93.6978 93.6027C93.6978 94.5268 93.8933 95.3442 94.2842 96.055C94.693 96.7481 95.2438 97.29 95.9369 97.681C96.6477 98.0719 97.4385 98.2674 98.3092 98.2674ZM109.109 80.3017H111.801V88.9647C113.027 87.5253 114.662 86.8056 116.706 86.8056C118.411 86.8056 119.682 87.2588 120.517 88.165C121.352 89.0713 121.77 90.2886 121.77 91.8168V100H119.078V92.0834C119.078 90.0043 118.083 88.9647 116.092 88.9647C115.239 88.9647 114.44 89.1691 113.693 89.5778C112.965 89.9687 112.334 90.5729 111.801 91.3903V100H109.109V80.3017ZM126.664 84.6998C126.22 84.6998 125.847 84.5488 125.545 84.2467C125.243 83.9446 125.092 83.5714 125.092 83.1272C125.092 82.6829 125.243 82.3098 125.545 82.0077C125.847 81.7056 126.22 81.5545 126.664 81.5545C127.126 81.5545 127.508 81.7056 127.81 82.0077C128.13 82.3098 128.29 82.6829 128.29 83.1272C128.29 83.5714 128.13 83.9446 127.81 84.2467C127.508 84.5488 127.126 84.6998 126.664 84.6998ZM125.305 87.2054H128.05V100H125.305V87.2054ZM133.355 84.6998C132.893 84.6998 132.511 84.5488 132.209 84.2467C131.906 83.9446 131.755 83.5714 131.755 83.1272C131.755 82.6829 131.906 82.3098 132.209 82.0077C132.528 81.7056 132.91 81.5545 133.355 81.5545C133.799 81.5545 134.172 81.7056 134.474 82.0077C134.794 82.3098 134.954 82.6829 134.954 83.1272C134.954 83.5714 134.794 83.9446 134.474 84.2467C134.172 84.5488 133.799 84.6998 133.355 84.6998ZM130.183 106.157C129.383 106.157 128.708 106.06 128.157 105.864V103.652C128.619 103.865 129.152 103.972 129.756 103.972C130.556 103.972 131.125 103.776 131.462 103.385C131.818 103.012 131.995 102.399 131.995 101.546V87.2054H134.714V101.733C134.714 103.208 134.305 104.309 133.488 105.038C132.671 105.784 131.569 106.157 130.183 106.157ZM138.419 80.3017H141.111V100H138.419V80.3017ZM141.138 93.5228L147.029 87.2054H150.307L144.39 93.5228L150.921 100H147.642L141.138 93.5228ZM153.595 80.3017H156.287V100H153.595V80.3017ZM159.764 87.2054H162.323V89.0447C162.927 88.2983 163.612 87.7386 164.376 87.3654C165.14 86.9922 165.931 86.8056 166.748 86.8056C167.779 86.8056 168.596 86.9833 169.2 87.3387C169.804 87.6764 170.249 88.2006 170.533 88.9114C171.102 88.2183 171.795 87.6941 172.612 87.3387C173.447 86.9833 174.283 86.8056 175.118 86.8056C176.682 86.8056 177.81 87.2054 178.503 88.0051C179.196 88.787 179.543 89.9509 179.543 91.497V100H176.93V91.8435C176.93 90.795 176.735 90.0576 176.344 89.6311C175.953 89.1868 175.287 88.9647 174.345 88.9647C172.994 88.9647 171.892 89.5511 171.039 90.7239C171.075 90.9905 171.093 91.4259 171.093 92.0301V100H168.481V91.8435C168.481 90.795 168.303 90.0576 167.947 89.6311C167.592 89.1868 166.952 88.9647 166.028 88.9647C164.678 88.9647 163.469 89.7288 162.403 91.2571V100H159.764V87.2054ZM182.879 87.2054H185.492V89.0447C186.096 88.2805 186.833 87.7208 187.704 87.3654C188.593 86.9922 189.517 86.8056 190.476 86.8056C192.182 86.8056 193.453 87.2588 194.288 88.165C195.123 89.0713 195.541 90.2886 195.541 91.8168V100H192.849V92.0834C192.849 90.0043 191.853 88.9647 189.863 88.9647C189.01 88.9647 188.211 89.1691 187.464 89.5778C186.736 89.9687 186.105 90.5729 185.572 91.3903V100H182.879V87.2054ZM205.216 100.4C203.776 100.4 202.506 100.133 201.404 99.6002C200.32 99.0493 199.467 98.2674 198.845 97.2545C198.241 96.2238 197.939 95.0155 197.939 93.6294C197.939 92.2611 198.241 91.0616 198.845 90.0309C199.449 89.0002 200.302 88.2095 201.404 87.6586C202.506 87.0899 203.776 86.8056 205.216 86.8056C206.655 86.8056 207.926 87.0899 209.027 87.6586C210.129 88.2095 210.982 89.0002 211.586 90.0309C212.208 91.0616 212.519 92.2611 212.519 93.6294C212.519 95.0155 212.208 96.2238 211.586 97.2545C210.982 98.2674 210.129 99.0493 209.027 99.6002C207.926 100.133 206.655 100.4 205.216 100.4ZM205.216 98.2674C206.602 98.2674 207.703 97.8409 208.521 96.9879C209.338 96.135 209.747 95.0155 209.747 93.6294C209.747 92.19 209.338 91.0527 208.521 90.2175C207.703 89.3823 206.602 88.9647 205.216 88.9647C203.829 88.9647 202.728 89.3823 201.91 90.2175C201.093 91.0527 200.684 92.19 200.684 93.6294C200.684 95.0155 201.093 96.135 201.91 96.9879C202.728 97.8409 203.829 98.2674 205.216 98.2674ZM215.444 87.2054H218.056V89.098C219.371 87.5697 221.148 86.8056 223.387 86.8056C224.666 86.8056 225.813 87.0899 226.826 87.6586C227.856 88.2272 228.656 89.0269 229.225 90.0576C229.811 91.0705 230.104 92.2522 230.104 93.6027C230.104 94.9355 229.811 96.1172 229.225 97.1479C228.656 98.1786 227.865 98.9782 226.852 99.5469C225.839 100.116 224.684 100.4 223.387 100.4C222.321 100.4 221.326 100.222 220.402 99.8667C219.478 99.5113 218.722 98.9871 218.136 98.2941V105.838H215.444V87.2054ZM222.774 98.2674C223.645 98.2674 224.427 98.0808 225.12 97.7076C225.83 97.3167 226.381 96.7658 226.772 96.055C227.181 95.3442 227.385 94.5268 227.385 93.6027C227.385 92.6787 227.181 91.8701 226.772 91.1771C226.381 90.4663 225.83 89.9243 225.12 89.5511C224.427 89.1602 223.645 88.9647 222.774 88.9647C221.69 88.9647 220.73 89.249 219.895 89.8177C219.078 90.3863 218.491 91.1682 218.136 92.1633V95.0421C218.438 96.0195 219.016 96.8014 219.868 97.3878C220.721 97.9742 221.69 98.2674 222.774 98.2674ZM243.799 98.2941C243.212 98.9871 242.457 99.5113 241.533 99.8667C240.609 100.222 239.614 100.4 238.548 100.4C237.25 100.4 236.095 100.116 235.082 99.5469C234.07 98.9782 233.27 98.1786 232.683 97.1479C232.115 96.1172 231.83 94.9355 231.83 93.6027C231.83 92.2522 232.115 91.0705 232.683 90.0576C233.27 89.0269 234.07 88.2272 235.082 87.6586C236.113 87.0899 237.268 86.8056 238.548 86.8056C240.787 86.8056 242.564 87.5697 243.879 89.098V87.2054H246.491V105.838H243.799V98.2941ZM239.161 98.2674C240.245 98.2674 241.213 97.9742 242.066 97.3878C242.919 96.8014 243.497 96.0195 243.799 95.0421V92.1633C243.443 91.1682 242.848 90.3863 242.013 89.8177C241.195 89.249 240.245 88.9647 239.161 88.9647C238.29 88.9647 237.499 89.1602 236.788 89.5511C236.095 89.9243 235.544 90.4663 235.136 91.1771C234.745 91.8701 234.549 92.6787 234.549 93.6027C234.549 94.5268 234.745 95.3442 235.136 96.055C235.544 96.7658 236.095 97.3167 236.788 97.7076C237.499 98.0808 238.29 98.2674 239.161 98.2674ZM249.96 87.2054H252.572V89.4978C253.106 88.7159 253.852 88.1384 254.812 87.7652C255.789 87.392 256.917 87.2054 258.197 87.2054V89.3112C256.828 89.3112 255.656 89.5333 254.678 89.9776C253.701 90.4219 253.026 91.1238 252.652 92.0834V100H249.96V87.2054ZM264.934 100.4C264.046 100.4 263.104 100.284 262.109 100.053C261.114 99.8401 260.332 99.5469 259.763 99.1737V96.8813C260.456 97.29 261.256 97.6277 262.162 97.8942C263.068 98.143 263.948 98.2674 264.801 98.2674C265.761 98.2674 266.463 98.1519 266.907 97.9209C267.351 97.6899 267.573 97.3167 267.573 96.8014C267.573 96.4104 267.467 96.0994 267.253 95.8684C267.058 95.6196 266.711 95.3975 266.214 95.202C265.734 95.0066 265.005 94.7756 264.028 94.509C262.98 94.2069 262.144 93.9048 261.522 93.6027C260.918 93.2829 260.456 92.883 260.136 92.4032C259.834 91.9234 259.683 91.3015 259.683 90.5374C259.683 89.3112 260.163 88.3872 261.123 87.7652C262.1 87.1255 263.406 86.8056 265.041 86.8056C265.894 86.8056 266.729 86.8856 267.547 87.0455C268.364 87.2054 269.021 87.4276 269.519 87.7119V89.9509C269.004 89.6489 268.364 89.409 267.6 89.2313C266.853 89.0535 266.089 88.9647 265.307 88.9647C264.366 88.9647 263.646 89.0802 263.148 89.3112C262.651 89.5422 262.402 89.9509 262.402 90.5374C262.402 90.9105 262.509 91.2126 262.722 91.4436C262.935 91.6747 263.273 91.879 263.735 92.0567C264.215 92.2166 264.97 92.4299 266.001 92.6964C267.618 93.1407 268.737 93.6649 269.359 94.2691C269.999 94.8733 270.319 95.7085 270.319 96.7747C270.319 97.8765 269.866 98.7561 268.959 99.4136C268.053 100.071 266.711 100.4 264.934 100.4ZM277.798 100.4C276.501 100.4 275.497 100.027 274.786 99.2803C274.093 98.534 273.747 97.4766 273.747 96.1083V89.2846H271.801V87.2054H273.747V83.3671H276.466V87.2054H279.611V89.2846H276.466V95.9217C276.466 96.7747 276.626 97.3789 276.945 97.7343C277.283 98.0897 277.887 98.2674 278.758 98.2674C279.273 98.2674 279.789 98.1519 280.304 97.9209V100.053C279.629 100.284 278.794 100.4 277.798 100.4ZM287.798 100.4C286.074 100.4 284.768 99.9378 283.88 99.0138C283.009 98.0897 282.573 96.8547 282.573 95.3087V87.2054H285.266V95.202C285.266 97.2456 286.287 98.2674 288.331 98.2674C290.126 98.2674 291.53 97.4589 292.543 95.8418V87.2054H295.235V100H292.622V98.1874C292.018 98.9516 291.299 99.5113 290.463 99.8667C289.646 100.222 288.757 100.4 287.798 100.4ZM297.48 87.2054H300.332L304.09 96.4015L307.849 87.2054H310.701L305.263 100H302.917L297.48 87.2054ZM311.901 87.2054H314.646L317.525 96.6947L320.377 87.2054H322.803L325.655 96.6947L328.533 87.2054H331.306L327.147 100H324.562L321.603 90.4574L318.644 100H316.032L311.901 87.2054ZM337.461 93.3095L332.45 87.2054H335.515L338.98 91.4436L342.472 87.2054H345.538L340.527 93.3095L346.018 100H342.979L338.98 95.1754L335.009 100H331.97L337.461 93.3095ZM350.736 105.278C349.777 105.278 348.977 105.18 348.337 104.985V102.879C348.799 103.056 349.368 103.145 350.043 103.145C350.665 103.145 351.154 102.985 351.509 102.666C351.865 102.363 352.185 101.866 352.469 101.173L353.082 99.6801L347.484 87.2054H350.257L354.521 97.0413L358.493 87.2054H361.265L355.508 101.439C354.975 102.772 354.335 103.741 353.588 104.345C352.86 104.967 351.909 105.278 350.736 105.278ZM362.192 98.2674L369.469 89.2846H362.352V87.2054H372.827V88.9647L365.55 97.9209H373.094V100H362.192V98.2674Z" fill="black"/>
<path d="M8.63632 121.368H11.2485L18.6854 140H15.9132L14.0474 135.362H5.81086L3.9983 140H1.19949L8.63632 121.368ZM13.301 133.096L9.94243 124.38L6.58386 133.096H13.301ZM21.62 121.368H30.1763C31.829 121.368 33.1084 121.794 34.0147 122.647C34.921 123.5 35.3741 124.744 35.3741 126.379C35.3741 127.303 35.152 128.121 34.7077 128.831C34.2812 129.524 33.7126 130.04 33.0018 130.377C34.992 130.964 35.9872 132.412 35.9872 134.722C35.9872 135.806 35.7473 136.748 35.2675 137.548C34.8055 138.33 34.1657 138.934 33.3483 139.36C32.5309 139.787 31.6246 140 30.6295 140H21.62V121.368ZM29.8298 129.365C30.7005 129.365 31.3847 129.125 31.8823 128.645C32.3798 128.165 32.6286 127.454 32.6286 126.512C32.6286 125.428 32.3798 124.673 31.8823 124.247C31.4025 123.802 30.6561 123.58 29.6432 123.58H24.3388V129.365H29.8298ZM30.0164 137.788C31.0648 137.788 31.8645 137.557 32.4154 137.095C32.9662 136.633 33.2417 135.842 33.2417 134.722C33.2417 133.603 32.9485 132.803 32.3621 132.323C31.7934 131.843 30.9316 131.604 29.7765 131.604H24.3388V137.788H30.0164ZM47.8692 140.4C45.95 140.4 44.2441 140 42.7514 139.2C41.2587 138.401 40.0947 137.272 39.2595 135.815C38.4243 134.34 38.0067 132.634 38.0067 130.697C38.0067 128.76 38.4243 127.054 39.2595 125.579C40.0947 124.105 41.2587 122.967 42.7514 122.168C44.2441 121.368 45.95 120.968 47.8692 120.968C50.4281 120.968 52.5694 121.617 54.2931 122.914V125.526C52.7471 124.158 50.6858 123.474 48.1091 123.474C46.6697 123.474 45.3903 123.767 44.2707 124.353C43.169 124.94 42.3071 125.784 41.6852 126.886C41.0632 127.97 40.7522 129.24 40.7522 130.697C40.7522 132.154 41.0632 133.434 41.6852 134.536C42.3249 135.637 43.1956 136.481 44.2974 137.068C45.4169 137.654 46.6875 137.948 48.1091 137.948C49.4241 137.948 50.5969 137.779 51.6276 137.441C52.676 137.086 53.6445 136.526 54.533 135.762V138.401C52.9337 139.733 50.7124 140.4 47.8692 140.4ZM57.4641 121.368H63.4615C65.4696 121.368 67.211 121.741 68.686 122.487C70.1609 123.234 71.2893 124.3 72.0712 125.686C72.8709 127.072 73.2707 128.707 73.2707 130.591C73.2707 133.683 72.3733 136.028 70.5785 137.628C68.8015 139.209 66.3048 140 63.0884 140H57.4641V121.368ZM63.0617 137.734C65.5495 137.734 67.4154 137.121 68.6593 135.895C69.9032 134.669 70.5252 132.901 70.5252 130.591C70.5252 128.458 69.9121 126.77 68.686 125.526C67.4776 124.282 65.745 123.66 63.4882 123.66H60.1829V137.734H63.0617ZM76.2061 121.368H88.4942V123.66H78.9249V129.551H86.0686V131.817H78.9249V137.734H88.4942V140H76.2061V121.368ZM91.3038 121.368H103.592V123.66H94.0227V129.604H101.166V131.764H94.0227V140H91.3038V121.368ZM114.924 140.4C113.005 140.4 111.299 140 109.806 139.2C108.313 138.401 107.15 137.272 106.314 135.815C105.479 134.34 105.062 132.634 105.062 130.697C105.062 128.76 105.479 127.054 106.314 125.579C107.15 124.105 108.313 122.967 109.806 122.168C111.299 121.368 113.005 120.968 114.924 120.968C117.501 120.968 119.642 121.608 121.348 122.887V125.5C119.802 124.149 117.741 123.474 115.164 123.474C113.76 123.474 112.498 123.767 111.379 124.353C110.259 124.94 109.38 125.784 108.74 126.886C108.118 127.97 107.807 129.24 107.807 130.697C107.807 132.154 108.118 133.434 108.74 134.536C109.362 135.637 110.224 136.481 111.326 137.068C112.427 137.654 113.671 137.948 115.057 137.948C116.674 137.948 117.998 137.619 119.029 136.961V132.083H115.484V129.871H121.748V138.401C120.913 139.094 119.926 139.6 118.789 139.92C117.669 140.24 116.381 140.4 114.924 140.4ZM124.675 121.368H127.394V129.365H137.123V121.368H139.842V140H137.123V131.657H127.394V140H124.675V121.368ZM143.313 121.368H146.058V140H143.313V121.368ZM151.294 140.4C150.796 140.4 150.272 140.355 149.721 140.267C149.17 140.178 148.752 140.071 148.468 139.947V137.628C148.735 137.734 149.072 137.823 149.481 137.894C149.907 137.965 150.307 138.001 150.68 138.001C152.511 138.001 153.426 137.112 153.426 135.335V121.368H156.145V135.522C156.145 137.05 155.709 138.25 154.839 139.12C153.968 139.973 152.786 140.4 151.294 140.4ZM159.478 121.368H162.197V140H159.478V121.368ZM162.33 130.511L170.833 121.368H174.138L165.635 130.511L174.671 140H171.366L162.33 130.511ZM177.335 121.368H180.054V137.734H189.49V140H177.335V121.368ZM191.886 121.368H194.605L201.242 135.895L207.879 121.368H210.598V140H207.959V126.752L201.908 140H200.576L194.498 126.752V140H191.886V121.368ZM214.064 121.368H216.65L226.139 135.415V121.368H228.884V140H226.272L216.783 125.953V140H214.064V121.368ZM241.614 140.4C239.765 140.4 238.095 140 236.602 139.2C235.11 138.383 233.937 137.237 233.084 135.762C232.231 134.287 231.804 132.599 231.804 130.697C231.804 128.796 232.231 127.108 233.084 125.633C233.937 124.158 235.11 123.012 236.602 122.194C238.095 121.377 239.765 120.968 241.614 120.968C243.462 120.968 245.132 121.377 246.625 122.194C248.117 123.012 249.29 124.158 250.143 125.633C250.996 127.108 251.423 128.796 251.423 130.697C251.423 132.599 250.996 134.287 250.143 135.762C249.29 137.237 248.117 138.383 246.625 139.2C245.132 140 243.462 140.4 241.614 140.4ZM241.614 137.948C242.929 137.948 244.119 137.654 245.185 137.068C246.269 136.464 247.122 135.62 247.744 134.536C248.366 133.434 248.677 132.154 248.677 130.697C248.677 129.258 248.366 127.996 247.744 126.912C247.14 125.81 246.305 124.966 245.239 124.38C244.173 123.776 242.982 123.474 241.667 123.474C240.334 123.474 239.126 123.767 238.042 124.353C236.976 124.94 236.123 125.784 235.483 126.886C234.861 127.987 234.55 129.258 234.55 130.697C234.55 132.154 234.861 133.434 235.483 134.536C236.105 135.62 236.949 136.464 238.015 137.068C239.099 137.654 240.299 137.948 241.614 137.948ZM254.359 121.368H261.53C263.538 121.368 265.119 121.874 266.274 122.887C267.447 123.882 268.034 125.304 268.034 127.152C268.034 129.036 267.456 130.466 266.301 131.444C265.146 132.403 263.556 132.883 261.53 132.883H257.078V140H254.359V121.368ZM261.236 130.617C262.48 130.617 263.467 130.36 264.195 129.844C264.924 129.329 265.288 128.432 265.288 127.152C265.288 125.873 264.924 124.975 264.195 124.46C263.467 123.927 262.48 123.66 261.236 123.66H257.078V130.617H261.236ZM279.786 140C277.76 140 275.965 139.618 274.401 138.854C272.855 138.09 271.647 137.006 270.776 135.602C269.923 134.18 269.497 132.528 269.497 130.644C269.497 128.743 269.923 127.063 270.776 125.606C271.629 124.131 272.802 122.994 274.295 122.194C275.787 121.377 277.458 120.968 279.306 120.968C281.154 120.968 282.824 121.377 284.317 122.194C285.81 122.994 286.983 124.131 287.836 125.606C288.689 127.063 289.115 128.743 289.115 130.644C289.115 132.154 288.769 133.541 288.075 134.802C287.4 136.046 286.503 136.997 285.383 137.654H289.408V140H279.786ZM279.306 137.521C280.674 137.521 281.891 137.255 282.958 136.721C284.024 136.188 284.85 135.406 285.437 134.376C286.041 133.327 286.343 132.083 286.343 130.644C286.343 129.222 286.032 127.97 285.41 126.886C284.788 125.784 283.944 124.94 282.878 124.353C281.811 123.767 280.621 123.474 279.306 123.474C277.991 123.474 276.791 123.767 275.707 124.353C274.641 124.94 273.797 125.775 273.175 126.859C272.553 127.943 272.242 129.205 272.242 130.644C272.242 132.101 272.535 133.345 273.122 134.376C273.726 135.406 274.561 136.188 275.627 136.721C276.694 137.255 277.92 137.521 279.306 137.521ZM291.817 121.368H299.308C301.298 121.368 302.826 121.848 303.892 122.807C304.959 123.767 305.492 125.171 305.492 127.019C305.492 128.387 305.127 129.551 304.399 130.511C303.67 131.453 302.639 132.092 301.307 132.43L305.412 140H302.586L298.615 132.643H294.536V140H291.817V121.368ZM298.854 130.351C300.045 130.351 300.987 130.075 301.68 129.524C302.391 128.956 302.746 128.121 302.746 127.019C302.746 125.81 302.4 124.949 301.707 124.433C301.031 123.918 300.081 123.66 298.854 123.66H294.536V130.351H298.854ZM313.596 140.4C312.53 140.4 311.473 140.302 310.424 140.107C309.393 139.929 308.549 139.68 307.892 139.36V136.908C309.598 137.708 311.437 138.107 313.409 138.107C316.182 138.107 317.568 137.175 317.568 135.309C317.568 134.669 317.417 134.154 317.115 133.763C316.812 133.372 316.377 133.034 315.808 132.75C315.24 132.448 314.316 132.039 313.036 131.524C311.277 130.813 310.006 130.031 309.225 129.178C308.443 128.325 308.052 127.25 308.052 125.953C308.052 124.975 308.318 124.113 308.851 123.367C309.385 122.603 310.131 122.017 311.09 121.608C312.05 121.181 313.152 120.968 314.396 120.968C315.409 120.968 316.324 121.048 317.141 121.208C317.959 121.368 318.758 121.626 319.54 121.981V124.327C317.994 123.634 316.43 123.287 314.849 123.287C313.569 123.287 312.592 123.518 311.917 123.98C311.242 124.442 310.904 125.1 310.904 125.953C310.904 126.539 311.046 127.037 311.33 127.445C311.632 127.836 312.068 128.192 312.636 128.512C313.223 128.814 314.085 129.196 315.222 129.658C316.484 130.173 317.479 130.662 318.207 131.124C318.936 131.586 319.487 132.154 319.86 132.83C320.251 133.487 320.446 134.314 320.446 135.309C320.446 136.926 319.869 138.179 318.714 139.067C317.559 139.956 315.853 140.4 313.596 140.4ZM327.408 123.66H321.624V121.368H335.937V123.66H330.153V140H327.408V123.66ZM345.904 140.4C343.363 140.4 341.444 139.751 340.147 138.454C338.849 137.139 338.201 135.335 338.201 133.043V121.368H340.92V133.15C340.92 134.731 341.364 135.931 342.252 136.748C343.141 137.548 344.358 137.948 345.904 137.948C347.432 137.948 348.641 137.548 349.529 136.748C350.418 135.931 350.862 134.731 350.862 133.15V121.368H353.581V133.043C353.581 135.318 352.932 137.112 351.635 138.427C350.338 139.742 348.428 140.4 345.904 140.4ZM356.387 121.368H359.266L365.13 136.295L370.994 121.368H373.873L366.436 140H363.824L356.387 121.368ZM375.337 121.368H378.163L382.321 135.522L386.426 121.368H388.558L392.636 135.522L396.795 121.368H399.62L394.182 140H391.597L387.465 125.926L383.36 140H380.775L375.337 121.368ZM408.065 130.537L401.348 121.368H404.467L409.638 128.405L414.809 121.368H417.927L411.184 130.537L418.167 140H415.049L409.638 132.643L404.227 140H401.108L408.065 130.537ZM426.438 132.936L419.667 121.368H422.573L427.77 130.351L433.048 121.368H435.927L429.076 132.936V140H426.438V132.936ZM437.394 138.161L447.71 123.66H437.634V121.368H451.015V123.234L440.726 137.734H451.468V140H437.394V138.161Z" fill="black"/>
<path d="M8.95619 180.4C7.35687 180.4 5.97079 180.009 4.79796 179.227C3.64289 178.445 2.75438 177.326 2.13243 175.868C1.51047 174.411 1.19949 172.688 1.19949 170.697C1.19949 168.707 1.50158 166.983 2.10577 165.526C2.72773 164.051 3.61624 162.923 4.7713 162.141C5.94414 161.359 7.3391 160.968 8.95619 160.968C10.5733 160.968 11.9594 161.359 13.1144 162.141C14.2873 162.923 15.1758 164.051 15.7799 165.526C16.4019 166.983 16.7129 168.707 16.7129 170.697C16.7129 172.688 16.4019 174.411 15.7799 175.868C15.158 177.326 14.2606 178.445 13.0878 179.227C11.9327 180.009 10.5555 180.4 8.95619 180.4ZM8.95619 178.001C10.5377 178.001 11.7728 177.352 12.6613 176.055C13.5676 174.74 14.0207 172.963 14.0207 170.724C14.0207 168.485 13.5764 166.708 12.6879 165.393C11.7994 164.078 10.5555 163.42 8.95619 163.42C7.35687 163.42 6.11295 164.078 5.22444 165.393C4.33593 166.708 3.89168 168.485 3.89168 170.724C3.89168 172.963 4.33593 174.74 5.22444 176.055C6.13072 177.352 7.37464 178.001 8.95619 178.001ZM23.1335 164.3L19.1085 167.205V164.62L23.5067 161.368H25.8523V180H23.1335V164.3ZM28.7919 178.214L32.8169 174.349C33.1723 173.994 33.6698 173.532 34.3096 172.963C35.3225 172.039 36.0955 171.293 36.6286 170.724C37.1617 170.155 37.597 169.551 37.9347 168.911C38.2723 168.254 38.4411 167.552 38.4411 166.806C38.4411 165.704 38.1213 164.869 37.4815 164.3C36.8418 163.714 35.9089 163.42 34.6827 163.42C33.8475 163.42 32.9857 163.571 32.0972 163.874C31.2264 164.176 30.409 164.62 29.6449 165.206V162.594C31.1376 161.51 32.959 160.968 35.1092 160.968C37.0284 160.968 38.5211 161.483 39.5873 162.514C40.6535 163.527 41.1866 164.913 41.1866 166.672C41.1866 167.525 41 168.343 40.6269 169.125C40.2715 169.907 39.765 170.68 39.1075 171.444C38.45 172.19 37.5615 173.105 36.442 174.189L32.8169 177.734H41.8797V180H28.7919V178.214ZM49.9577 180.4C48.8737 180.4 47.8342 180.311 46.839 180.133C45.8617 179.973 45.0087 179.725 44.2801 179.387V177.148C45.9327 177.894 47.7098 178.267 49.6112 178.267C51.246 178.267 52.4544 177.974 53.2363 177.388C54.036 176.784 54.4358 175.931 54.4358 174.829C54.4358 173.692 54.0271 172.883 53.2096 172.403C52.3922 171.906 51.1483 171.657 49.4779 171.657H47.2922V169.471H49.4246C50.7574 169.471 51.8325 169.205 52.6499 168.671C53.4673 168.121 53.876 167.321 53.876 166.273C53.876 165.242 53.5384 164.46 52.8631 163.927C52.1879 163.394 51.2105 163.127 49.931 163.127C48.9359 163.127 48.0385 163.243 47.2388 163.474C46.4392 163.705 45.6129 164.087 44.7599 164.62V162.381C46.3237 161.439 48.154 160.968 50.2509 160.968C52.33 160.968 53.9116 161.43 54.9955 162.354C56.0795 163.278 56.6215 164.558 56.6215 166.193C56.6215 167.188 56.355 168.058 55.8219 168.805C55.2888 169.551 54.4891 170.129 53.4229 170.537C54.6313 170.822 55.5553 171.337 56.195 172.083C56.8525 172.83 57.1813 173.772 57.1813 174.909C57.1813 176.597 56.6038 177.939 55.4487 178.934C54.2936 179.911 52.4633 180.4 49.9577 180.4ZM68.1158 175.415H59.053V173.683L68.0891 161.368H70.8613V173.283H73.7401V175.415H70.8613V180H68.1158V175.415ZM68.4357 173.283V164.62L62.1183 173.283H68.4357ZM80.7927 180.4C79.8153 180.4 78.8646 180.293 77.9406 180.08C77.0165 179.884 76.2346 179.609 75.5949 179.254V176.828C76.3235 177.272 77.1498 177.619 78.0739 177.868C78.9979 178.099 79.8775 178.214 80.7127 178.214C82.3298 178.214 83.556 177.876 84.3912 177.201C85.2264 176.508 85.644 175.495 85.644 174.162C85.644 172.901 85.253 171.941 84.4711 171.284C83.707 170.608 82.5608 170.271 81.0326 170.271C80.3929 170.271 79.7176 170.333 79.0068 170.457C78.3137 170.582 77.6918 170.751 77.1409 170.964L75.9414 170.271L76.6345 161.368H87.0567V163.66H79.1134L78.7136 168.458C79.8153 168.227 80.9349 168.112 82.0721 168.112C84.0446 168.112 85.5907 168.663 86.7102 169.764C87.8297 170.866 88.3895 172.332 88.3895 174.162C88.3895 176.171 87.7586 177.717 86.4969 178.801C85.2352 179.867 83.3338 180.4 80.7927 180.4ZM97.8071 180.4C96.4743 180.4 95.2749 180.098 94.2086 179.494C93.1602 178.872 92.325 177.965 91.703 176.775C91.0989 175.566 90.7968 174.118 90.7968 172.43C90.7968 168.734 91.552 165.899 93.0625 163.927C94.5907 161.954 96.7764 160.968 99.6197 160.968C100.597 160.968 101.468 161.075 102.232 161.288V163.58C101.61 163.314 100.81 163.18 99.8329 163.18C96.0301 163.18 93.9421 165.464 93.5689 170.031C94.102 169.356 94.8039 168.849 95.6747 168.512C96.5632 168.156 97.5317 167.978 98.5801 167.978C99.7885 167.978 100.846 168.227 101.752 168.725C102.658 169.222 103.36 169.933 103.858 170.857C104.373 171.781 104.631 172.856 104.631 174.083C104.631 175.291 104.355 176.375 103.805 177.334C103.271 178.294 102.49 179.049 101.459 179.6C100.428 180.133 99.211 180.4 97.8071 180.4ZM97.8071 178.294C99.051 178.294 100.046 177.921 100.793 177.175C101.557 176.41 101.939 175.406 101.939 174.162C101.939 172.919 101.557 171.932 100.793 171.204C100.046 170.475 99.051 170.111 97.8071 170.111C97.043 170.111 96.3411 170.28 95.7013 170.617C95.0794 170.955 94.5818 171.435 94.2086 172.057C93.8532 172.679 93.6755 173.398 93.6755 174.216C93.6755 174.944 93.8444 175.62 94.182 176.242C94.5374 176.864 95.0261 177.361 95.648 177.734C96.27 178.107 96.9897 178.294 97.8071 178.294ZM116.662 163.66H106.773V161.368H119.435V163.367L111.944 180H109.279L116.662 163.66ZM128.389 180.4C126.292 180.4 124.63 179.929 123.404 178.987C122.178 178.028 121.565 176.668 121.565 174.909C121.565 173.718 121.876 172.723 122.498 171.923C123.12 171.106 123.946 170.555 124.977 170.271C124.124 169.915 123.449 169.373 122.951 168.645C122.453 167.898 122.205 167.037 122.205 166.059C122.205 164.495 122.764 163.26 123.884 162.354C125.003 161.43 126.505 160.968 128.389 160.968C130.255 160.968 131.747 161.43 132.867 162.354C133.986 163.26 134.546 164.495 134.546 166.059C134.546 167.037 134.297 167.898 133.8 168.645C133.302 169.373 132.627 169.915 131.774 170.271C132.805 170.555 133.631 171.106 134.253 171.923C134.893 172.723 135.212 173.718 135.212 174.909C135.212 176.668 134.599 178.028 133.373 178.987C132.147 179.929 130.486 180.4 128.389 180.4ZM128.389 169.444C129.437 169.444 130.29 169.16 130.948 168.592C131.605 168.005 131.934 167.241 131.934 166.299C131.934 165.34 131.605 164.558 130.948 163.953C130.308 163.349 129.455 163.047 128.389 163.047C127.322 163.047 126.461 163.349 125.803 163.953C125.163 164.558 124.844 165.34 124.844 166.299C124.844 167.241 125.172 168.005 125.83 168.592C126.487 169.16 127.34 169.444 128.389 169.444ZM128.389 178.427C129.668 178.427 130.672 178.099 131.401 177.441C132.129 176.784 132.494 175.877 132.494 174.722C132.494 173.62 132.112 172.75 131.347 172.11C130.601 171.47 129.615 171.15 128.389 171.15C127.163 171.15 126.167 171.47 125.403 172.11C124.639 172.75 124.257 173.62 124.257 174.722C124.257 175.877 124.621 176.784 125.35 177.441C126.096 178.099 127.109 178.427 128.389 178.427ZM142.611 180.4C141.634 180.4 140.763 180.293 139.999 180.08V177.814C140.692 178.081 141.491 178.214 142.398 178.214C146.218 178.214 148.315 175.931 148.688 171.364C148.155 172.039 147.453 172.545 146.583 172.883C145.73 173.221 144.77 173.389 143.704 173.389C142.513 173.389 141.456 173.141 140.532 172.643C139.608 172.146 138.888 171.435 138.373 170.511C137.857 169.587 137.6 168.512 137.6 167.285C137.6 166.077 137.866 164.993 138.399 164.033C138.95 163.074 139.741 162.328 140.772 161.794C141.802 161.244 143.02 160.968 144.424 160.968C145.774 160.968 146.974 161.27 148.022 161.874C149.088 162.479 149.923 163.385 150.528 164.593C151.132 165.784 151.434 167.232 151.434 168.938C151.434 172.634 150.67 175.469 149.142 177.441C147.631 179.414 145.454 180.4 142.611 180.4ZM144.424 171.257C145.596 171.257 146.574 170.884 147.356 170.138C148.155 169.391 148.555 168.405 148.555 167.179C148.555 166.45 148.377 165.775 148.022 165.153C147.684 164.531 147.205 164.033 146.583 163.66C145.961 163.287 145.241 163.101 144.424 163.101C143.18 163.101 142.176 163.474 141.411 164.22C140.665 164.966 140.292 165.962 140.292 167.205C140.292 168.449 140.665 169.436 141.411 170.164C142.176 170.893 143.18 171.257 144.424 171.257Z" fill="black"/>
<path d="M2.97745 20.7359H18.6508C22.8801 20.7359 26.2564 21.8554 28.7798 24.0944C31.3032 26.2979 32.5649 29.3722 32.5649 33.3172C32.5649 37.3688 31.3032 40.4786 28.7798 42.6465C26.292 44.8145 22.9156 45.8985 18.6508 45.8985H11.0807V58H2.97745V20.7359ZM17.4779 39.128C22.0627 39.128 24.355 37.1911 24.355 33.3172C24.355 31.1492 23.7331 29.6387 22.4891 28.7858C21.2808 27.9328 19.6104 27.5063 17.4779 27.5063H11.0807V39.128H17.4779ZM36.2966 32.4109H44.0799V36.0893C45.1106 34.8454 46.55 33.9036 48.3981 33.2639C50.2462 32.5886 52.3431 32.251 54.6888 32.251V38.3817C52.2365 38.3817 50.0685 38.7549 48.1849 39.5012C46.3368 40.2476 45.0573 41.3849 44.3465 42.9131V58H36.2966V32.4109ZM71.6699 58.7997C68.5779 58.7997 65.859 58.2488 63.5133 57.147C61.2032 56.0097 59.4084 54.4282 58.129 52.4024C56.885 50.341 56.2631 47.9421 56.2631 45.2054C56.2631 42.5399 56.885 40.1765 58.129 38.1151C59.4084 36.0538 61.2032 34.4545 63.5133 33.3172C65.859 32.1799 68.5779 31.6112 71.6699 31.6112C74.7263 31.6112 77.4096 32.1799 79.7198 33.3172C82.0654 34.4545 83.8602 36.0538 85.1041 38.1151C86.3836 40.1765 87.0233 42.5399 87.0233 45.2054C87.0233 47.9421 86.3836 50.341 85.1041 52.4024C83.8602 54.4282 82.0832 56.0097 79.7731 57.147C77.463 58.2488 74.7619 58.7997 71.6699 58.7997ZM71.6699 52.509C73.8378 52.509 75.5615 51.8515 76.841 50.5365C78.1205 49.186 78.7602 47.409 78.7602 45.2054C78.7602 42.9309 78.1205 41.1538 76.841 39.8744C75.5971 38.5594 73.8734 37.9019 71.6699 37.9019C69.4664 37.9019 67.7249 38.5594 66.4454 39.8744C65.166 41.1538 64.5262 42.9309 64.5262 45.2054C64.5262 47.409 65.166 49.186 66.4454 50.5365C67.7604 51.8515 69.5019 52.509 71.6699 52.509ZM91.5335 32.4109H99.0503V35.5029C100.152 34.259 101.432 33.2994 102.889 32.6241C104.346 31.9489 105.856 31.6112 107.42 31.6112C109.375 31.6112 110.939 31.9311 112.111 32.5708C113.284 33.175 114.208 34.0813 114.884 35.2897C115.985 34.1168 117.318 33.2106 118.882 32.5708C120.481 31.9311 122.063 31.6112 123.627 31.6112C126.896 31.6112 129.224 32.4464 130.61 34.1168C132.032 35.7872 132.743 38.204 132.743 41.3671V58H125.066V42.4866C125.066 40.8517 124.746 39.6789 124.106 38.9681C123.467 38.2573 122.436 37.9019 121.014 37.9019C119.024 37.9019 117.425 38.6838 116.216 40.2476C116.287 41.3848 116.323 42.3089 116.323 43.0197V58H108.593V42.2201C108.593 40.6563 108.309 39.5545 107.74 38.9148C107.207 38.2395 106.265 37.9019 104.914 37.9019C102.818 37.9019 100.952 39.0925 99.3169 41.4737V58H91.5335V32.4109ZM138.076 32.4109H145.86V35.2364C148.454 32.8196 151.653 31.6112 155.455 31.6112C158.121 31.6112 160.467 32.1799 162.492 33.3172C164.554 34.4189 166.153 36.0005 167.29 38.0618C168.428 40.0876 168.996 42.4511 168.996 45.1521C168.996 47.8177 168.428 50.1811 167.29 52.2425C166.153 54.3038 164.554 55.9209 162.492 57.0937C160.467 58.231 158.121 58.7997 155.455 58.7997C153.643 58.7997 151.919 58.5331 150.284 58C148.649 57.4669 147.263 56.7028 146.126 55.7076V69.675H138.076V32.4109ZM153.43 52.509C155.598 52.509 157.357 51.8337 158.707 50.4832C160.093 49.1327 160.787 47.3556 160.787 45.1521C160.787 42.9486 160.093 41.1894 158.707 39.8744C157.357 38.5594 155.598 37.9019 153.43 37.9019C151.759 37.9019 150.267 38.3461 148.952 39.2347C147.637 40.1232 146.695 41.296 146.126 42.7532V47.6044C146.659 49.0971 147.583 50.2877 148.898 51.1762C150.249 52.0647 151.759 52.509 153.43 52.509ZM184.245 58.7997C181.26 58.7997 178.985 57.9822 177.422 56.3474C175.893 54.677 175.129 52.3668 175.129 49.417V38.2218H171.397V32.4109H175.129V24.7342H183.179V32.4109H189.203V38.2218H183.179V48.3508C183.179 49.8435 183.463 50.9275 184.032 51.6027C184.601 52.2425 185.614 52.5623 187.071 52.5623C188.244 52.5623 189.363 52.278 190.429 51.7093V57.7334C188.794 58.4443 186.733 58.7997 184.245 58.7997ZM223.979 58.7997C221.705 58.7997 219.448 58.5864 217.209 58.1599C214.97 57.7334 213.139 57.1648 211.718 56.454V49.3104C213.601 50.2344 215.556 50.9275 217.582 51.3895C219.608 51.8515 221.545 52.0825 223.393 52.0825C225.454 52.0825 227.018 51.7271 228.084 51.0163C229.15 50.3055 229.683 49.3104 229.683 48.0309C229.683 47.1069 229.417 46.325 228.884 45.6852C228.351 45.0455 227.569 44.4769 226.538 43.9793C225.543 43.4462 223.997 42.7532 221.9 41.9002C218.417 40.4786 215.894 38.897 214.33 37.1555C212.766 35.3785 211.984 33.1928 211.984 30.5983C211.984 28.5014 212.553 26.6533 213.69 25.054C214.828 23.4192 216.427 22.1575 218.488 21.269C220.55 20.3805 222.931 19.9362 225.632 19.9362C227.835 19.9362 229.79 20.1139 231.496 20.4693C233.202 20.8247 234.872 21.3756 236.507 22.1219V29.0523C233.38 27.4885 230.252 26.7067 227.125 26.7067C225.134 26.7067 223.57 27.0621 222.433 27.7729C221.296 28.4481 220.727 29.4255 220.727 30.705C220.727 31.629 220.994 32.3931 221.527 32.9973C222.06 33.6015 222.806 34.1346 223.766 34.5966C224.726 35.0587 226.289 35.7339 228.457 36.6224C230.981 37.6886 232.953 38.7193 234.375 39.7144C235.796 40.674 236.845 41.8291 237.52 43.1796C238.195 44.4946 238.533 46.1295 238.533 48.0842C238.533 51.4606 237.307 54.0906 234.855 55.9742C232.438 57.8578 228.813 58.7997 223.979 58.7997ZM257.797 58.7997C252.893 58.7997 249.037 57.6268 246.229 55.2812C243.421 52.8999 242.017 49.5769 242.017 45.3121C242.017 41.0828 243.261 37.742 245.749 35.2897C248.272 32.8374 251.862 31.6112 256.518 31.6112C259.574 31.6112 262.169 32.1799 264.301 33.3172C266.434 34.4545 268.051 36.036 269.152 38.0618C270.254 40.0521 270.805 42.3089 270.805 44.8323V48.0842H249.694C250.263 51.3539 253.319 52.9888 258.864 52.9888C260.498 52.9888 262.187 52.8466 263.928 52.5623C265.669 52.278 267.18 51.887 268.459 51.3895V57.0404C267.216 57.5735 265.616 58 263.661 58.3199C261.707 58.6397 259.752 58.7997 257.797 58.7997ZM263.182 42.8598C263.075 41.1538 262.435 39.8388 261.262 38.9148C260.09 37.9552 258.473 37.4754 256.411 37.4754C254.385 37.4754 252.786 37.9552 251.613 38.9148C250.44 39.8744 249.801 41.1894 249.694 42.8598H263.182ZM275.257 32.4109H282.774V35.5029C283.876 34.259 285.155 33.2994 286.613 32.6241C288.07 31.9489 289.58 31.6112 291.144 31.6112C293.099 31.6112 294.662 31.9311 295.835 32.5708C297.008 33.175 297.932 34.0813 298.607 35.2897C299.709 34.1168 301.042 33.2106 302.606 32.5708C304.205 31.9311 305.787 31.6112 307.35 31.6112C310.62 31.6112 312.948 32.4464 314.334 34.1168C315.756 35.7872 316.466 38.204 316.466 41.3671V58H308.79V42.4866C308.79 40.8517 308.47 39.6789 307.83 38.9681C307.19 38.2573 306.16 37.9019 304.738 37.9019C302.748 37.9019 301.149 38.6838 299.94 40.2476C300.011 41.3848 300.047 42.3089 300.047 43.0197V58H292.317V42.2201C292.317 40.6563 292.032 39.5545 291.464 38.9148C290.931 38.2395 289.989 37.9019 288.638 37.9019C286.541 37.9019 284.676 39.0925 283.041 41.4737V58H275.257V32.4109ZM326.225 28.4659C324.981 28.4659 323.932 28.0572 323.08 27.2398C322.227 26.4223 321.8 25.3917 321.8 24.1477C321.8 22.9394 322.227 21.9265 323.08 21.109C323.932 20.2561 324.981 19.8296 326.225 19.8296C327.469 19.8296 328.517 20.2561 329.37 21.109C330.223 21.9265 330.65 22.9394 330.65 24.1477C330.65 25.3917 330.223 26.4223 329.37 27.2398C328.517 28.0572 327.469 28.4659 326.225 28.4659ZM322.173 32.4109H330.276V58H322.173V32.4109ZM353.548 58.7997C351.558 58.7997 349.781 58.5153 348.217 57.9467C346.689 57.378 345.267 56.4718 343.952 55.2278V58H336.169V18.6034H344.219V34.7033C345.356 33.7081 346.742 32.944 348.377 32.4109C350.012 31.8778 351.736 31.6112 353.548 31.6112C356.214 31.6112 358.559 32.1976 360.585 33.3705C362.647 34.5078 364.246 36.1071 365.383 38.1684C366.52 40.2298 367.089 42.5932 367.089 45.2588C367.089 47.9598 366.52 50.341 365.383 52.4024C364.246 54.4282 362.647 56.0097 360.585 57.147C358.559 58.2488 356.214 58.7997 353.548 58.7997ZM351.522 52.5623C353.69 52.5623 355.45 51.9048 356.8 50.5898C358.186 49.2393 358.879 47.4623 358.879 45.2588C358.879 43.0552 358.186 41.2782 356.8 39.9277C355.45 38.5772 353.69 37.9019 351.522 37.9019C349.852 37.9019 348.342 38.3639 346.991 39.288C345.676 40.1765 344.752 41.3493 344.219 42.8065V47.6577C344.787 49.1504 345.729 50.341 347.044 51.2295C348.359 52.1181 349.852 52.5623 351.522 52.5623ZM384.61 58.7997C381.518 58.7997 378.799 58.2488 376.453 57.147C374.143 56.0097 372.348 54.4282 371.069 52.4024C369.825 50.341 369.203 47.9421 369.203 45.2054C369.203 42.5399 369.825 40.1765 371.069 38.1151C372.348 36.0538 374.143 34.4545 376.453 33.3172C378.799 32.1799 381.518 31.6112 384.61 31.6112C387.666 31.6112 390.349 32.1799 392.659 33.3172C395.005 34.4545 396.8 36.0538 398.044 38.1151C399.323 40.1765 399.963 42.5399 399.963 45.2054C399.963 47.9421 399.323 50.341 398.044 52.4024C396.8 54.4282 395.023 56.0097 392.713 57.147C390.403 58.2488 387.702 58.7997 384.61 58.7997ZM384.61 52.509C386.778 52.509 388.501 51.8515 389.781 50.5365C391.06 49.186 391.7 47.409 391.7 45.2054C391.7 42.9309 391.06 41.1538 389.781 39.8744C388.537 38.5594 386.813 37.9019 384.61 37.9019C382.406 37.9019 380.665 38.5594 379.385 39.8744C378.106 41.1538 377.466 42.9309 377.466 45.2054C377.466 47.409 378.106 49.186 379.385 50.5365C380.7 51.8515 382.442 52.509 384.61 52.509ZM404.473 18.6034H412.523V58H404.473V18.6034ZM430.588 58.7997C427.958 58.7997 425.612 58.2488 423.551 57.147C421.525 56.0097 419.926 54.4282 418.753 52.4024C417.616 50.341 417.047 47.9598 417.047 45.2588C417.047 42.5932 417.616 40.2298 418.753 38.1684C419.89 36.1071 421.49 34.5078 423.551 33.3705C425.612 32.1976 427.958 31.6112 430.588 31.6112C432.507 31.6112 434.266 31.8778 435.866 32.4109C437.465 32.944 438.816 33.7081 439.917 34.7033V18.6034H447.967V58H440.184V55.2278C438.869 56.4718 437.429 57.378 435.866 57.9467C434.337 58.5153 432.578 58.7997 430.588 58.7997ZM432.667 52.5623C434.337 52.5623 435.812 52.1181 437.092 51.2295C438.407 50.341 439.349 49.1504 439.917 47.6577V42.8065C439.42 41.3493 438.496 40.1765 437.145 39.288C435.83 38.3639 434.337 37.9019 432.667 37.9019C430.499 37.9019 428.722 38.5772 427.336 39.9277C425.985 41.2782 425.31 43.0552 425.31 45.2588C425.31 47.4623 425.985 49.2393 427.336 50.5898C428.722 51.9048 430.499 52.5623 432.667 52.5623Z" fill="black"/>
</svg>
